<svg width="20" height="20" viewBox="0 0 20 20" fill="none" xmlns="http://www.w3.org/2000/svg">
<path d="M16.875 1.875H3.125C2.79348 1.875 2.47554 2.0067 2.24112 2.24112C2.0067 2.47554 1.875 2.79348 1.875 3.125V16.875C1.875 17.2065 2.0067 17.5245 2.24112 17.7589C2.47554 17.9933 2.79348 18.125 3.125 18.125H16.875C17.2065 18.125 17.5245 17.9933 17.7589 17.7589C17.9933 17.5245 18.125 17.2065 18.125 16.875V3.125C18.125 2.79348 17.9933 2.47554 17.7589 2.24112C17.5245 2.0067 17.2065 1.875 16.875 1.875ZM7.5 10.625C7.5 10.1305 7.64662 9.6472 7.92133 9.23607C8.19603 8.82495 8.58648 8.50452 9.04329 8.3153C9.50011 8.12608 10.0028 8.07657 10.4877 8.17304C10.9727 8.2695 11.4181 8.5076 11.7678 8.85723C12.1174 9.20686 12.3555 9.65232 12.452 10.1373C12.5484 10.6222 12.4989 11.1249 12.3097 11.5817C12.1205 12.0385 11.8 12.429 11.3889 12.7037C10.9778 12.9784 10.4945 13.125 10 13.125C9.33696 13.125 8.70107 12.8616 8.23223 12.3928C7.76339 11.9239 7.5 11.288 7.5 10.625ZM5.66953 16.875C6.10833 16.1147 6.73954 15.4834 7.4997 15.0445C8.25987 14.6055 9.1222 14.3744 10 14.3744C10.8778 14.3744 11.7401 14.6055 12.5003 15.0445C13.2605 15.4834 13.8917 16.1147 14.3305 16.875H5.66953ZM16.875 16.875H15.7289C15.0692 15.3684 13.8431 14.1818 12.3156 13.5719C12.9291 13.0902 13.3772 12.4293 13.5974 11.681C13.8177 10.9327 13.7991 10.1344 13.5443 9.39721C13.2895 8.66001 12.8111 8.02061 12.1759 7.56803C11.5406 7.11545 10.78 6.87223 10 6.87223C9.22 6.87223 8.45942 7.11545 7.82415 7.56803C7.18888 8.02061 6.71054 8.66001 6.45573 9.39721C6.20093 10.1344 6.18235 10.9327 6.40257 11.681C6.62279 12.4293 7.07085 13.0902 7.68438 13.5719C6.15692 14.1818 4.93082 15.3684 4.27109 16.875H3.125V3.125H16.875V16.875Z" fill="#3C5EC4"/>
</svg>
