<svg width="20" height="20" viewBox="0 0 20 20" fill="none" xmlns="http://www.w3.org/2000/svg">
<path d="M7.2915 2.2915H3.5415C3.20998 2.2915 2.89204 2.4232 2.65762 2.65762C2.4232 2.89204 2.2915 3.20998 2.2915 3.5415V7.2915C2.2915 7.62302 2.4232 7.94097 2.65762 8.17539C2.89204 8.40981 3.20998 8.5415 3.5415 8.5415H7.2915C7.62302 8.5415 7.94097 8.40981 8.17539 8.17539C8.40981 7.94097 8.5415 7.62302 8.5415 7.2915V3.5415C8.5415 3.20998 8.40981 2.89204 8.17539 2.65762C7.94097 2.4232 7.62302 2.2915 7.2915 2.2915ZM7.2915 7.2915H3.5415V3.5415H7.2915V7.2915ZM16.4582 2.2915H12.7082C12.3766 2.2915 12.0587 2.4232 11.8243 2.65762C11.5899 2.89204 11.4582 3.20998 11.4582 3.5415V7.2915C11.4582 7.62302 11.5899 7.94097 11.8243 8.17539C12.0587 8.40981 12.3766 8.5415 12.7082 8.5415H16.4582C16.7897 8.5415 17.1076 8.40981 17.3421 8.17539C17.5765 7.94097 17.7082 7.62302 17.7082 7.2915V3.5415C17.7082 3.20998 17.5765 2.89204 17.3421 2.65762C17.1076 2.4232 16.7897 2.2915 16.4582 2.2915ZM16.4582 7.2915H12.7082V3.5415H16.4582V7.2915ZM7.2915 11.4582H3.5415C3.20998 11.4582 2.89204 11.5899 2.65762 11.8243C2.4232 12.0587 2.2915 12.3766 2.2915 12.7082V16.4582C2.2915 16.7897 2.4232 17.1076 2.65762 17.3421C2.89204 17.5765 3.20998 17.7082 3.5415 17.7082H7.2915C7.62302 17.7082 7.94097 17.5765 8.17539 17.3421C8.40981 17.1076 8.5415 16.7897 8.5415 16.4582V12.7082C8.5415 12.3766 8.40981 12.0587 8.17539 11.8243C7.94097 11.5899 7.62302 11.4582 7.2915 11.4582ZM7.2915 16.4582H3.5415V12.7082H7.2915V16.4582ZM16.4582 11.4582H12.7082C12.3766 11.4582 12.0587 11.5899 11.8243 11.8243C11.5899 12.0587 11.4582 12.3766 11.4582 12.7082V16.4582C11.4582 16.7897 11.5899 17.1076 11.8243 17.3421C12.0587 17.5765 12.3766 17.7082 12.7082 17.7082H16.4582C16.7897 17.7082 17.1076 17.5765 17.3421 17.3421C17.5765 17.1076 17.7082 16.7897 17.7082 16.4582V12.7082C17.7082 12.3766 17.5765 12.0587 17.3421 11.8243C17.1076 11.5899 16.7897 11.4582 16.4582 11.4582ZM16.4582 16.4582H12.7082V12.7082H16.4582V16.4582Z" fill="#3C5EC4"/>
</svg>
