<svg width="20" height="20" viewBox="0 0 20 20" fill="none" xmlns="http://www.w3.org/2000/svg">
<path d="M4.37524 16.1031L4.00688 15.7344L3.19925 14.926C3.18955 14.9163 3.17803 14.9086 3.16534 14.9033C3.15266 14.898 3.13907 14.8953 3.12535 14.8953C3.11163 14.8953 3.09804 14.898 3.08535 14.9033C3.07267 14.9086 3.06115 14.9163 3.05144 14.926C3.04174 14.9357 3.03404 14.9472 3.02879 14.9599C3.02354 14.9725 3.02083 14.9861 3.02083 14.9999C3.02083 15.0136 3.02354 15.0272 3.02879 15.0399C3.03404 15.0525 3.04174 15.0641 3.05144 15.0738L4.30144 16.3238L4.30165 16.324C4.31132 16.3337 4.32281 16.3413 4.33546 16.3466C4.3481 16.3518 4.36165 16.3545 4.37535 16.3545C4.38904 16.3545 4.4026 16.3518 4.41524 16.3466C4.42788 16.3413 4.43937 16.3337 4.44905 16.324L4.44925 16.3238L6.94925 13.8238C6.96885 13.8042 6.97986 13.7776 6.97986 13.7499C6.97986 13.7221 6.96885 13.6956 6.94925 13.676C6.92965 13.6564 6.90306 13.6453 6.87535 13.6453C6.84766 13.6453 6.82111 13.6563 6.80151 13.6759L4.37524 16.1031ZM4.37524 16.1031L4.7437 15.7345L6.80144 13.676L4.37524 16.1031ZM4.00688 5.73437L4.37524 6.10308L4.7437 5.73448L6.80144 3.67596L6.80151 3.67589C6.82111 3.65633 6.84766 3.64535 6.87535 3.64535C6.90307 3.64535 6.92965 3.65636 6.94925 3.67596C6.96885 3.69556 6.97986 3.72214 6.97986 3.74986C6.97986 3.77758 6.96885 3.80416 6.94925 3.82376L4.44925 6.32376L4.44905 6.32397C4.43937 6.33365 4.42788 6.34133 4.41524 6.34658C4.40259 6.35182 4.38904 6.35452 4.37535 6.35452C4.36166 6.35452 4.3481 6.35182 4.33546 6.34658C4.32281 6.34133 4.31132 6.33365 4.30165 6.32397L4.30144 6.32376L3.05144 5.07376C3.03184 5.05416 3.02083 5.02758 3.02083 4.99986C3.02083 4.97214 3.03184 4.94556 3.05144 4.92596C3.07104 4.90636 3.09763 4.89535 3.12535 4.89534C3.15307 4.89534 3.17965 4.90636 3.19925 4.92596L4.00688 5.73437ZM4.00688 10.7344L4.37524 11.1031L4.7437 10.7345L6.80144 8.67596C6.80146 8.67595 6.80147 8.67593 6.80148 8.67592C6.80149 8.67591 6.8015 8.6759 6.80151 8.67589C6.82111 8.65633 6.84766 8.64535 6.87535 8.64535C6.90307 8.64535 6.92965 8.65636 6.94925 8.67596C6.96885 8.69556 6.97986 8.72214 6.97986 8.74986C6.97986 8.77758 6.96885 8.80416 6.94925 8.82376L4.44925 11.3238L4.44905 11.324C4.43937 11.3337 4.42788 11.3413 4.41524 11.3466C4.4026 11.3518 4.38904 11.3545 4.37535 11.3545C4.36165 11.3545 4.3481 11.3518 4.33546 11.3466C4.32281 11.3413 4.31132 11.3337 4.30165 11.324L4.30144 11.3238L3.05144 10.0738C3.04174 10.0641 3.03404 10.0525 3.02879 10.0399C3.02354 10.0272 3.02083 10.0136 3.02083 9.99986C3.02083 9.97214 3.03184 9.94556 3.05144 9.92596C3.07104 9.90636 3.09763 9.89535 3.12535 9.89535C3.15307 9.89535 3.17965 9.90636 3.19925 9.92596L4.00688 10.7344ZM16.9795 9.99986C16.9795 10.0275 16.9685 10.054 16.949 10.0735C16.9295 10.0931 16.903 10.104 16.8753 10.104H10.0003C9.97272 10.104 9.94623 10.0931 9.92669 10.0735C9.90716 10.054 9.89618 10.0275 9.89618 9.99986C9.89618 9.97223 9.90716 9.94574 9.92669 9.9262C9.94623 9.90667 9.97272 9.89569 10.0003 9.89569H16.8753C16.903 9.89569 16.9295 9.90667 16.949 9.9262C16.9685 9.94574 16.9795 9.97223 16.9795 9.99986ZM16.8753 5.10403H10.0003C9.97272 5.10403 9.94623 5.09305 9.92669 5.07352C9.90716 5.05398 9.89618 5.02749 9.89618 4.99986C9.89618 4.97223 9.90716 4.94574 9.92669 4.9262C9.94623 4.90667 9.97272 4.89569 10.0003 4.89569H16.8753C16.903 4.89569 16.9295 4.90667 16.949 4.9262C16.9685 4.94574 16.9795 4.97223 16.9795 4.99986C16.9795 5.02749 16.9685 5.05398 16.949 5.07352C16.9295 5.09305 16.903 5.10403 16.8753 5.10403ZM10.0003 14.8957H16.8753C16.903 14.8957 16.9295 14.9067 16.949 14.9262C16.9685 14.9457 16.9795 14.9722 16.9795 14.9999C16.9795 15.0275 16.9685 15.054 16.949 15.0735C16.9295 15.0931 16.903 15.104 16.8753 15.104H10.0003C9.97272 15.104 9.94623 15.0931 9.92669 15.0735C9.90716 15.054 9.89618 15.0275 9.89618 14.9999C9.89618 14.9722 9.90716 14.9457 9.92669 14.9262C9.94623 14.9067 9.97272 14.8957 10.0003 14.8957Z" fill="#3C5EC4" stroke="#3C5EC4" stroke-width="1.04167"/>
</svg>
