<svg width="20" height="20" viewBox="0 0 20 20" fill="none" xmlns="http://www.w3.org/2000/svg">
<path d="M9.06252 8.75C9.06252 8.56458 9.1175 8.38332 9.22052 8.22915C9.32353 8.07498 9.46995 7.95482 9.64126 7.88386C9.81256 7.81291 10.0011 7.79434 10.1829 7.83051C10.3648 7.86669 10.5318 7.95598 10.6629 8.08709C10.794 8.2182 10.8833 8.38525 10.9195 8.5671C10.9557 8.74896 10.9371 8.93746 10.8662 9.10877C10.7952 9.28007 10.675 9.42649 10.5209 9.5295C10.3667 9.63252 10.1854 9.6875 10 9.6875C9.75138 9.6875 9.51292 9.58873 9.33711 9.41291C9.16129 9.2371 9.06252 8.99864 9.06252 8.75ZM6.56252 9.6875C6.74794 9.6875 6.9292 9.63252 7.08337 9.5295C7.23754 9.42649 7.3577 9.28007 7.42866 9.10877C7.49962 8.93746 7.51818 8.74896 7.48201 8.5671C7.44583 8.38525 7.35655 8.2182 7.22543 8.08709C7.09432 7.95598 6.92728 7.86669 6.74542 7.83051C6.56356 7.79434 6.37506 7.81291 6.20376 7.88386C6.03245 7.95482 5.88603 8.07498 5.78302 8.22915C5.68 8.38332 5.62502 8.56458 5.62502 8.75C5.62502 8.99864 5.72379 9.2371 5.89961 9.41291C6.07542 9.58873 6.31388 9.6875 6.56252 9.6875ZM13.4375 9.6875C13.6229 9.6875 13.8042 9.63252 13.9584 9.5295C14.1125 9.42649 14.2327 9.28007 14.3037 9.10877C14.3746 8.93746 14.3932 8.74896 14.357 8.5671C14.3208 8.38525 14.2315 8.2182 14.1004 8.08709C13.9693 7.95598 13.8023 7.86669 13.6204 7.83051C13.4386 7.79434 13.2501 7.81291 13.0788 7.88386C12.9075 7.95482 12.761 8.07498 12.658 8.22915C12.555 8.38332 12.5 8.56458 12.5 8.75C12.5 8.99864 12.5988 9.2371 12.7746 9.41291C12.9504 9.58873 13.1889 9.6875 13.4375 9.6875ZM18.125 3.75V13.75C18.125 14.0815 17.9933 14.3995 17.7589 14.6339C17.5245 14.8683 17.2065 15 16.875 15H6.4844L3.93752 17.2L3.93049 17.2055C3.70552 17.3962 3.41997 17.5006 3.12502 17.5C2.9414 17.4996 2.76009 17.4591 2.59377 17.3812C2.37804 17.2815 2.19556 17.1219 2.06812 16.9213C1.94067 16.7207 1.87364 16.4877 1.87502 16.25V3.75C1.87502 3.41848 2.00672 3.10054 2.24114 2.86612C2.47556 2.6317 2.7935 2.5 3.12502 2.5H16.875C17.2065 2.5 17.5245 2.6317 17.7589 2.86612C17.9933 3.10054 18.125 3.41848 18.125 3.75ZM16.875 3.75H3.12502V16.25L5.84143 13.9062C5.95436 13.8066 6.09945 13.7512 6.25002 13.75H16.875V3.75Z" fill="#3C5EC4"/>
</svg>
