<svg width="160" height="100" viewBox="0 0 160 100" fill="none" xmlns="http://www.w3.org/2000/svg">
<ellipse cx="80.131" cy="51.0042" rx="45.532" ry="79.3558" transform="rotate(79.8625 80.131 51.0042)" fill="#F5F7FC"/>
<path d="M143.011 88.8364H14.9888C14.1964 88.8355 13.4367 88.5154 12.8764 87.9463C12.3161 87.3772 12.0009 86.6056 12 85.8008V58.8721C12.0009 58.0673 12.3161 57.2957 12.8764 56.7266C13.4367 56.1575 14.1964 55.8374 14.9888 55.8364H143.011C143.804 55.8374 144.563 56.1575 145.124 56.7266C145.684 57.2957 145.999 58.0673 146 58.8721V85.8008C145.999 86.6056 145.684 87.3772 145.124 87.9463C144.563 88.5154 143.804 88.8355 143.011 88.8364Z" fill="#D8DFF3"/>
<path d="M23.5419 86.8364H140.033C140.82 86.8355 141.574 86.5143 142.13 85.9433C142.686 85.3723 142.999 84.5981 143 83.7906V60.8822C142.999 60.0747 142.686 59.3006 142.13 58.7296C141.574 58.1586 140.82 57.8374 140.033 57.8364H16.9665C16.18 57.8374 15.426 58.1586 14.8699 58.7296C14.3138 59.3006 14.0009 60.0747 14 60.8822V77.0394C14.0029 79.6368 15.0091 82.127 16.7979 83.9637C18.5868 85.8004 21.0121 86.8335 23.5419 86.8364Z" fill="white"/>
<path d="M34.3885 72.6116C34.7262 68.531 31.6921 64.9493 27.6115 64.6116C23.5309 64.2739 19.9492 67.308 19.6115 71.3886C19.2738 75.4692 22.3079 79.0509 26.3885 79.3886C30.4691 79.7263 34.0508 76.6921 34.3885 72.6116Z" fill="#3C5EC4"/>
<path d="M28.6684 68.6592L26.7316 70.5962L24.7948 68.6592C24.4813 68.3457 23.9729 68.3457 23.6594 68.6592C23.3459 68.9728 23.3459 69.4812 23.6594 69.7947L25.5962 71.7317L23.6594 73.6687C23.3462 73.9825 23.3466 74.4909 23.6605 74.8041C23.9739 75.117 24.4814 75.117 24.7948 74.8041L26.7316 72.8672L28.6684 74.8041C28.9822 75.1174 29.4906 75.1169 29.8038 74.8031C30.1166 74.4896 30.1166 73.9821 29.8038 73.6687L27.867 71.7317L29.8038 69.7947C30.1173 69.4812 30.1173 68.9728 29.8038 68.6592C29.4903 68.3457 28.9819 68.3457 28.6684 68.6592Z" fill="white"/>
<path d="M42.5819 65.8364C42.4278 65.8363 42.28 65.8888 42.1709 65.9824C42.0618 66.0759 42.0003 66.2029 42 66.3354C41.9997 66.4679 42.0605 66.595 42.1692 66.689C42.2778 66.7829 42.4253 66.836 42.5794 66.8364H69.4185C69.5728 66.8364 69.7206 66.7837 69.8297 66.69C69.9387 66.5962 70 66.469 70 66.3364C70 66.2038 69.9387 66.0766 69.8297 65.9829C69.7206 65.8891 69.5728 65.8364 69.4185 65.8364H42.5819Z" fill="#3C5EC4"/>
<path d="M42.5859 71.8364C42.4307 71.8363 42.2819 71.8888 42.1721 71.9824C42.0622 72.0759 42.0003 72.2029 42 72.3354C41.9997 72.4679 42.0609 72.595 42.1703 72.689C42.2797 72.7829 42.4283 72.836 42.5834 72.8364H126.415C126.57 72.8364 126.719 72.7837 126.829 72.69C126.938 72.5962 127 72.469 127 72.3364C127 72.2038 126.938 72.0766 126.829 71.9829C126.719 71.8891 126.57 71.8364 126.415 71.8364H42.5859Z" fill="#D8DFF3"/>
<path d="M42.5859 77.8364C42.4307 77.8363 42.2819 77.8888 42.1721 77.9824C42.0622 78.0759 42.0003 78.2029 42 78.3354C41.9997 78.4679 42.0609 78.595 42.1703 78.689C42.2797 78.7829 42.4283 78.836 42.5834 78.8364H126.415C126.57 78.8364 126.719 78.7837 126.829 78.69C126.938 78.5962 127 78.469 127 78.3364C127 78.2038 126.938 78.0766 126.829 77.9829C126.719 77.8891 126.57 77.8364 126.415 77.8364H42.5859Z" fill="#D8DFF3"/>
<path d="M143.011 46H14.9888C14.1964 45.9991 13.4367 45.6789 12.8764 45.1098C12.3161 44.5408 12.0009 43.7692 12 42.9643V16.0357C12.0009 15.2308 12.3161 14.4592 12.8764 13.8902C13.4367 13.3211 14.1964 13.0009 14.9888 13H143.011C143.804 13.0009 144.563 13.3211 145.124 13.8902C145.684 14.4592 145.999 15.2308 146 16.0357V42.9643C145.999 43.7692 145.684 44.5407 145.124 45.1098C144.563 45.6789 143.804 45.9991 143.011 46Z" fill="#D8DFF3"/>
<path d="M133.458 44H16.9665C16.18 43.9991 15.426 43.6779 14.8699 43.1069C14.3137 42.5359 14.0009 41.7617 14 40.9542V18.0458C14.0009 17.2383 14.3137 16.4641 14.8699 15.8931C15.426 15.3221 16.18 15.0009 16.9665 15H140.033C140.82 15.0009 141.574 15.3221 142.13 15.8931C142.686 16.4641 142.999 17.2383 143 18.0458V34.203C142.997 36.8004 141.991 39.2906 140.202 41.1273C138.413 42.964 135.988 43.9971 133.458 44Z" fill="white"/>
<path d="M34.3885 29.7751C34.7262 25.6946 31.6921 22.1129 27.6115 21.7751C23.5309 21.4374 19.9492 24.4716 19.6115 28.5522C19.2738 32.6327 22.3079 36.2144 26.3885 36.5522C30.4691 36.8899 34.0508 33.8557 34.3885 29.7751Z" fill="#3C5EC4"/>
<path d="M28.6684 25.8228L26.7316 27.7598L24.7948 25.8228C24.4813 25.5093 23.9729 25.5093 23.6594 25.8228C23.3459 26.1364 23.3459 26.6447 23.6594 26.9583L25.5962 28.8953L23.6594 30.8322C23.3462 31.1461 23.3466 31.6544 23.6605 31.9677C23.9739 32.2805 24.4814 32.2805 24.7948 31.9677L26.7316 30.0307L28.6684 31.9677C28.9822 32.281 29.4906 32.2805 29.8038 31.9666C30.1166 31.6532 30.1166 31.1457 29.8038 30.8322L27.867 28.8953L29.8038 26.9583C30.1173 26.6447 30.1173 26.1364 29.8038 25.8228C29.4903 25.5093 28.9819 25.5093 28.6684 25.8228Z" fill="white"/>
<path d="M42.5819 23C42.4278 22.9999 42.28 23.0524 42.1709 23.146C42.0618 23.2395 42.0003 23.3665 42 23.4989C41.9997 23.6314 42.0605 23.7586 42.1692 23.8526C42.2778 23.9465 42.4253 23.9995 42.5794 24H69.4185C69.5728 24 69.7206 23.9473 69.8297 23.8536C69.9387 23.7598 70 23.6326 70 23.5C70 23.3674 69.9387 23.2402 69.8297 23.1464C69.7206 23.0527 69.5728 23 69.4185 23H42.5819Z" fill="#3C5EC4"/>
<path d="M42.5859 29C42.4307 28.9999 42.2819 29.0524 42.1721 29.146C42.0622 29.2395 42.0003 29.3665 42 29.4989C41.9997 29.6314 42.0609 29.7586 42.1703 29.8526C42.2797 29.9465 42.4283 29.9995 42.5834 30H126.415C126.57 30 126.719 29.9473 126.829 29.8536C126.938 29.7598 127 29.6326 127 29.5C127 29.3674 126.938 29.2402 126.829 29.1464C126.719 29.0527 126.57 29 126.415 29H42.5859Z" fill="#D8DFF3"/>
<path d="M42.5859 35C42.4307 34.9999 42.2819 35.0524 42.1721 35.146C42.0622 35.2395 42.0003 35.3665 42 35.4989C41.9997 35.6314 42.0609 35.7586 42.1703 35.8526C42.2797 35.9465 42.4283 35.9995 42.5834 36H126.415C126.57 36 126.719 35.9473 126.829 35.8536C126.938 35.7598 127 35.6326 127 35.5C127 35.3674 126.938 35.2402 126.829 35.1464C126.719 35.0527 126.57 35 126.415 35H42.5859Z" fill="#D8DFF3"/>
</svg>
