<svg width="160" height="117" viewBox="0 0 160 117" fill="none" xmlns="http://www.w3.org/2000/svg">
<g clip-path="url(#clip0_2826_181630)">
<ellipse cx="84.1021" cy="59.2146" rx="46.8618" ry="81.6734" transform="rotate(60.5907 84.1021 59.2146)" fill="#F5F7FC"/>
<path d="M12.2145 53.8132H2.88264C2.68327 53.8136 2.48639 53.7689 2.30676 53.6824C2.12714 53.5958 1.96944 53.4698 1.8455 53.3136C1.72305 53.1614 1.63667 52.9835 1.59282 52.7931C1.54898 52.6028 1.54881 52.405 1.59234 52.2146C2.4811 48.2929 2.42527 44.2163 1.42944 40.3205C1.36645 40.064 1.38168 39.7945 1.47317 39.5467C1.56465 39.2989 1.72821 39.0842 1.94278 38.9302C6.74122 35.479 10.5201 35.5792 13.1747 39.2283C13.2943 39.3946 13.3738 39.5864 13.4069 39.7886C14.1162 44.0526 14.1554 48.4011 13.5233 52.6772C13.4793 52.9928 13.3225 53.2817 13.0819 53.4906C12.8413 53.6995 12.5331 53.8141 12.2145 53.8132Z" fill="#D8DFF3"/>
<path d="M9.32138 44.468H6.11121C5.9337 44.468 5.76345 44.3975 5.63793 44.272C5.5124 44.1465 5.44189 43.9762 5.44189 43.7987C5.44189 43.6212 5.5124 43.451 5.63793 43.3254C5.76345 43.1999 5.9337 43.1294 6.11121 43.1294H9.32138C9.49865 43.1298 9.66853 43.2004 9.79375 43.3259C9.91897 43.4514 9.9893 43.6214 9.9893 43.7987C9.9893 43.976 9.91897 44.146 9.79375 44.2715C9.66853 44.397 9.49865 44.4677 9.32138 44.468Z" fill="white"/>
<path d="M9.32138 46.8152H6.11121C5.9337 46.8152 5.76345 46.7447 5.63793 46.6192C5.5124 46.4936 5.44189 46.3234 5.44189 46.1459C5.44189 45.9684 5.5124 45.7981 5.63793 45.6726C5.76345 45.5471 5.9337 45.4766 6.11121 45.4766H9.32138C9.49865 45.4769 9.66853 45.5476 9.79375 45.6731C9.91897 45.7986 9.9893 45.9686 9.9893 46.1459C9.9893 46.3232 9.91897 46.4932 9.79375 46.6187C9.66853 46.7441 9.49865 46.8148 9.32138 46.8152Z" fill="white"/>
<path d="M9.32138 49.1629H6.11121C5.9337 49.1629 5.76345 49.0923 5.63793 48.9668C5.5124 48.8413 5.44189 48.6711 5.44189 48.4935C5.44189 48.316 5.5124 48.1458 5.63793 48.0203C5.76345 47.8947 5.9337 47.8242 6.11121 47.8242H9.32138C9.49865 47.8246 9.66853 47.8953 9.79375 48.0208C9.91897 48.1462 9.9893 48.3163 9.9893 48.4935C9.9893 48.6708 9.91897 48.8408 9.79375 48.9663C9.66853 49.0918 9.49865 49.1625 9.32138 49.1629Z" fill="white"/>
<path d="M155.297 103.213H145.965C145.766 103.213 145.569 103.168 145.39 103.082C145.21 102.995 145.052 102.869 144.928 102.713C144.806 102.561 144.719 102.383 144.676 102.193C144.632 102.002 144.632 101.804 144.675 101.614C145.564 97.6924 145.508 93.6157 144.512 89.7199C144.449 89.4634 144.464 89.1939 144.556 88.9461C144.647 88.6983 144.811 88.4836 145.026 88.3296C149.824 84.8785 153.603 84.9786 156.257 88.6277C156.377 88.794 156.457 88.9858 156.49 89.1881C157.199 93.452 157.238 97.8006 156.606 102.077C156.562 102.392 156.405 102.681 156.165 102.89C155.924 103.099 155.616 103.213 155.297 103.213Z" fill="#D8DFF3"/>
<path d="M76.5217 53.9161C82.6689 53.9161 87.6521 48.9329 87.6521 42.7857C87.6521 36.6385 82.6689 31.6553 76.5217 31.6553C70.3745 31.6553 65.3913 36.6385 65.3913 42.7857C65.3913 48.9329 70.3745 53.9161 76.5217 53.9161Z" fill="#3C5EC4"/>
<path d="M81.8565 38.8371C81.7054 38.6925 81.5045 38.6118 81.2956 38.6118C81.0867 38.6118 80.8858 38.6925 80.7347 38.8371C78.6026 40.5422 76.6876 42.5036 75.0327 44.6772C74.6264 43.889 74.2202 43.1007 73.814 42.3125C73.345 41.4026 71.9755 42.2064 72.444 43.1154C73.0382 44.2684 73.6325 45.4213 74.2267 46.5743C74.2984 46.692 74.399 46.7892 74.519 46.8567C74.6389 46.9242 74.7741 46.9596 74.9117 46.9596C75.0492 46.9596 75.1844 46.9242 75.3044 46.8567C75.4243 46.7892 75.525 46.692 75.5966 46.5743C77.3601 44.0838 79.4678 41.8574 81.8565 39.962C82.0041 39.8122 82.0869 39.6101 82.0869 39.3996C82.0869 39.189 82.0041 38.9869 81.8565 38.8371Z" fill="white"/>
<path d="M51.7184 74.9665L43.3115 61.7639L53.0465 56.5503L55.6016 66.6233L73.6044 76.3516C74.3152 76.0958 75.085 76.0523 75.8201 76.2265C76.5551 76.4007 77.2236 76.7849 77.744 77.3324C78.2644 77.88 78.6143 78.5671 78.7509 79.31C78.8876 80.0529 78.8051 80.8195 78.5136 81.5164C78.2221 82.2133 77.7341 82.8103 77.1092 83.2346C76.4842 83.6589 75.7493 83.8922 74.9941 83.9061C74.2388 83.92 73.4958 83.7138 72.8557 83.3127C72.2156 82.9117 71.706 82.333 71.3891 81.6473L51.7184 74.9665Z" fill="#A0616A"/>
<path d="M37.1693 45.9283C34.5278 49.8066 43.915 63.904 43.915 63.904C44.3723 62.9182 48.7438 73.9876 49.476 73.3337C51.5569 71.4753 54.8145 66.2986 56.6252 66.0678C57.6607 65.9359 54.2236 58.592 54.2236 58.592C54.2236 58.592 52.6527 54.2554 50.5212 48.7158C49.9476 47.1385 48.9843 45.732 47.7209 44.6272C46.4575 43.5223 44.9351 42.7551 43.2954 42.3969C43.2954 42.3969 39.8108 42.05 37.1693 45.9283Z" fill="#3F3D56"/>
<path d="M57.5754 88.0918L31.6056 88.741C26.6734 91.42 26.5985 97.2181 28.2146 104.102C28.2146 104.102 27.669 108.194 28.7602 109.285C29.8513 110.376 30.3968 110.376 29.8513 112.286C29.3057 114.195 32.1882 117.314 31.8381 117.664C31.4879 118.014 30.6696 119.923 30.6696 119.923L33.3974 135.472C33.3974 135.472 35.3069 162.477 35.8524 163.023C36.398 163.568 36.9435 163.023 36.398 164.386C35.8524 165.75 35.3069 165.205 35.8524 165.75C36.3357 166.271 36.7909 166.818 37.2163 167.387H43.8113C43.8113 167.387 44.3086 164.659 44.3086 164.386C44.3086 164.114 44.8541 162.477 44.8541 162.204C44.8541 161.931 44.3719 161.449 44.3719 161.449C44.2053 160.895 44.0927 160.325 44.0358 159.749C44.0358 159.204 42.3991 138.2 42.3991 138.2L45.6725 110.922L53.5831 137.654C53.5831 137.654 53.5831 161.113 54.1286 161.659C54.6742 162.204 54.6742 161.931 54.4014 163.023C54.1286 164.114 53.0375 163.841 53.8558 164.659C54.6742 165.478 54.9469 164.114 54.6742 165.478L54.4014 166.841L62.5848 166.959C62.5848 166.959 63.6759 164.659 63.1303 163.841C62.5848 163.023 62.6175 163.246 63.2831 161.907C63.9487 160.568 64.2215 160.295 63.9487 160.022C63.6759 159.749 63.6759 158.298 63.6759 158.298L62.312 132.199C62.312 132.199 62.0392 104.648 62.0392 103.829C62.0187 103.408 62.0962 102.988 62.2658 102.602V101.492L61.2209 97.5555L57.5754 88.0918Z" fill="#2F2E41"/>
<path d="M41.975 34.0918C46.4314 34.0918 50.0439 30.4792 50.0439 26.0228C50.0439 21.5665 46.4314 17.9539 41.975 17.9539C37.5186 17.9539 33.906 21.5665 33.906 26.0228C33.906 30.4792 37.5186 34.0918 41.975 34.0918Z" fill="#A0616A"/>
<path d="M46.0095 39.4244C47.7478 40.4579 48.7877 42.3567 49.3846 44.289C50.4898 47.8662 51.155 51.5648 51.3656 55.303L51.9961 66.4945L59.8048 90.3242C53.0373 96.0505 27.5992 91.6256 27.5992 91.6256C27.5992 91.6256 26.8184 91.3654 27.5992 90.5845C28.3801 89.8036 29.1403 90.4954 28.3594 89.7146C27.5786 88.9337 28.1168 89.8036 28.3771 89.0227C28.6374 88.2419 28.3771 88.7625 28.1169 88.5022C27.8566 88.2419 30.1319 85.8993 30.1319 85.8993L28.0496 72.2208L25.4467 44.6302C28.5702 40.7259 34.8519 38.4243 34.8519 38.4243L36.475 35.5027L44.5905 36.1519L46.0095 39.4244Z" fill="#3F3D56"/>
<path d="M48.6266 21.7358C49.2537 22.2036 49.7183 22.8562 49.955 23.6019C50.0459 22.3833 50.0517 21.1598 49.9723 19.9404C49.8772 19.0835 49.2739 18.8908 48.5754 18.6674C47.9445 18.4657 47.2311 18.2377 47.0391 17.4059C44.5027 14.9384 40.0873 15.0628 37.0656 15.9235C35.4028 16.3972 34.4461 17.0057 34.3605 17.3621L34.3427 17.4355L34.2752 17.4693C32.9935 18.1101 32.744 20.1338 32.7605 21.7185C32.7917 24.7043 33.8227 28.0954 34.4034 28.3709C34.4342 28.3855 34.442 28.3798 34.4553 28.3687C35.3297 27.6698 36.3967 28.4218 36.8655 28.8306C37.1421 26.9749 38.0325 25.2653 39.3946 23.9751C40.7567 22.6848 42.5119 21.8881 44.3798 21.7124C44.9899 21.6534 45.595 21.5519 46.1909 21.4087C46.4932 21.3305 46.8039 21.2897 47.1161 21.2873C47.6536 21.2791 48.1807 21.4356 48.6266 21.7358Z" fill="#2F2E41"/>
<path d="M98.7176 94.5213L114.239 78.7593L118.329 66.153L111.748 63.4912C108.488 66.7796 105.132 76.8462 105.132 76.8462L94.538 91.0648C94.4534 91.0963 94.3691 91.1295 94.286 91.1688C93.7982 91.3991 93.3781 91.7513 93.0663 92.1914C92.7544 92.6315 92.5614 93.1446 92.5058 93.6811C92.4502 94.2176 92.5339 94.7594 92.7489 95.2541C92.9639 95.7488 93.3028 96.1797 93.733 96.5051C94.1632 96.8305 94.67 97.0395 95.2045 97.1118C95.739 97.1841 96.2832 97.1173 96.7843 96.9178C97.2855 96.7183 97.7267 96.393 98.0654 95.9732C98.404 95.5534 98.6287 95.0533 98.7176 94.5213Z" fill="#FFB8B8"/>
<path d="M109.953 64.9333L118.275 67.3408L118.306 67.3348C121.365 66.7408 123.785 61.6571 125.276 57.4969C125.767 56.1247 125.718 54.6175 125.14 53.2798C124.562 51.9422 123.497 50.874 122.162 50.2912C121.174 49.8679 120.087 49.7295 119.024 49.8915C117.961 50.0536 116.965 50.5097 116.148 51.2082L111.999 54.7812L109.953 64.9333Z" fill="#3C5EC4"/>
<path d="M129.517 97.4568C129.517 97.4568 130.039 103.728 128.733 109.738C127.426 115.749 127.426 132.675 127.426 132.675L124.552 165.659L115.928 164.875L113.577 109.738L105.215 128.291L105.999 130.905L104.954 131.558C104.954 131.558 105.737 136.653 105.215 136.653C104.692 136.653 103.386 137.437 103.386 137.437L104.431 164.352L95.5463 164.091L92.4106 126.201L95.8076 104.512L96.0689 100.331L97.2448 100.38L97.8435 98.6328L98.9433 95.6277L129.517 97.4568Z" fill="#2F2E41"/>
<path d="M129.968 98.7741L130.015 98.7088C132.502 95.2265 128.761 86.8587 128.197 85.6457L130.573 84.8745L130.038 80.3257L129.785 78.2978L131.601 76.4815L131.606 76.4362L132.651 67.2904L134.171 61.2158C134.744 58.9194 134.695 56.5119 134.03 54.2406C133.365 51.9693 132.107 49.9159 130.386 48.2913L126.873 44.9791L122.604 38.6621H115.719L113.358 43.121C111.07 43.6499 109.039 44.965 107.621 46.8371C106.202 48.7092 105.485 51.0197 105.594 53.3662L106.129 65.0604L104.035 79.6208L104.034 82.2558L101.677 84.8753L102.191 87.4487L100.398 88.2175L99.6055 91.9136C99.2777 92.3461 97.1141 95.231 97.1141 96.0197C97.1141 96.1381 97.2015 96.2525 97.3891 96.3795C98.8636 97.3779 107.013 99.4134 110.62 97.9701C114.462 96.4339 129.735 98.7384 129.889 98.7619L129.968 98.7741Z" fill="#3C5EC4"/>
<path d="M118.272 36.6229C123.308 36.6229 127.39 32.5407 127.39 27.5051C127.39 22.4694 123.308 18.3872 118.272 18.3872C113.236 18.3872 109.154 22.4694 109.154 27.5051C109.154 32.5407 113.236 36.6229 118.272 36.6229Z" fill="#FFB8B8"/>
<path d="M117.399 36.7707C118.811 36.7563 120.219 36.6213 121.608 36.3671C122.983 36.0503 126.017 33.7041 126.844 32.3181C127.459 31.2883 127.827 29.6954 128.029 28.5406C128.3 27.0122 128.248 25.4439 127.875 23.937C127.502 22.4302 126.817 21.0185 125.863 19.7933C125.496 19.2801 124.997 18.8757 124.418 18.6229C124.367 18.6044 124.314 18.5882 124.261 18.5746C123.423 18.377 122.663 17.9333 122.078 17.3004C121.965 17.1723 121.842 17.0525 121.711 16.942C121.056 16.4171 120.285 16.0547 119.463 15.8847C118.134 15.5655 116.233 15.9654 113.813 17.0742C112.598 17.6313 111.248 17.4759 110.208 17.2782C110.15 17.2685 110.09 17.2742 110.035 17.2948C109.98 17.3154 109.93 17.3502 109.893 17.3956C109.463 17.8201 108.889 18.0663 108.286 18.0847C107.917 18.1105 107.542 18.6324 107.09 19.3119C106.988 19.4662 106.868 19.6462 106.782 19.7561L106.764 19.5498L106.561 19.7857C106.242 20.1564 106.021 20.602 105.921 21.0809C105.82 21.5597 105.842 22.0563 105.985 22.5243C106.128 22.9923 106.386 23.4166 106.737 23.7576C107.088 24.0987 107.52 24.3454 107.992 24.4747C108.366 24.564 108.749 24.6149 109.133 24.6265C109.367 24.6415 109.608 24.6569 109.84 24.691C110.584 24.8235 111.281 25.1467 111.863 25.6291C112.445 26.1115 112.892 26.7365 113.161 27.4433C113.224 27.6066 113.324 27.7532 113.453 27.8717C113.582 27.9902 113.737 28.0775 113.905 28.1268C114.073 28.1762 114.25 28.1862 114.423 28.1562C114.595 28.1261 114.759 28.0568 114.9 27.9537C115.136 27.7603 115.414 27.6268 115.713 27.5645C116.011 27.5022 116.32 27.513 116.613 27.5959C116.868 27.7292 117.069 27.946 117.183 28.2101C117.321 28.5041 117.543 28.7503 117.822 28.9174C118.771 29.3762 118.891 31.5143 118.601 33.3067C118.321 35.0344 117.712 36.2948 117.12 36.3716C116.664 36.4307 116.612 36.4645 116.581 36.5461L116.554 36.6193L116.607 36.6856C116.861 36.7706 117.132 36.7996 117.399 36.7707Z" fill="#2F2E41"/>
<path d="M109.834 65.9085L105.451 60.3242C100.987 61.5536 93.0657 68.6141 93.0657 68.6141L76.798 75.6736C76.2551 75.5824 75.6976 75.6358 75.1819 75.8284C74.6661 76.0211 74.2102 76.3463 73.8601 76.7711C73.5099 77.196 73.2779 77.7056 73.1873 78.2487C73.0967 78.7918 73.1508 79.3491 73.3441 79.8646C73.5374 80.3802 73.8631 80.8357 74.2884 81.1853C74.7137 81.535 75.2235 81.7664 75.7667 81.8563C76.3099 81.9463 76.8672 81.8915 77.3825 81.6976C77.8978 81.5037 78.3529 81.1775 78.702 80.7518L100.012 74.8066L109.834 65.9085Z" fill="#FFB8B8"/>
<path d="M108.783 67.185L115.699 59.4762L116.083 54.0139C116.154 52.9412 115.924 51.87 115.419 50.9212C114.913 49.9724 114.153 49.1839 113.223 48.6448C111.957 47.9224 110.464 47.7076 109.046 48.0437C107.628 48.3799 106.391 49.2419 105.584 50.4555C103.141 54.1381 100.512 59.1171 101.865 61.9244L101.878 61.9528L108.783 67.185Z" fill="#3C5EC4"/>
<path d="M45.0459 96.1601L27.0726 86.9552C25.7942 86.3005 25.3707 84.5638 26.1286 83.0839L37.8476 60.2019C38.6055 58.722 40.2622 58.0507 41.5406 58.7055L59.5139 67.9104C60.7923 68.5652 61.2158 70.3018 60.4579 71.7817L48.7389 94.6637C47.981 96.1436 46.3243 96.8149 45.0459 96.1601Z" fill="#D8DFF3"/>
<path d="M41.975 91.9286L29.7637 85.6746C28.5664 85.0614 28.1697 83.4349 28.8796 82.0489L38.6154 63.039C39.3253 61.653 40.8769 61.0244 42.0742 61.6376L56.8229 69.1911C58.0203 69.8043 58.4169 71.4307 57.707 72.8167L52.418 83.1439C49.2561 89.3175 47.3083 94.66 41.975 91.9286Z" fill="white"/>
<path d="M48.0125 81.5472L37.1966 76.0079C37.0644 75.9137 36.9705 75.775 36.932 75.6172C36.8935 75.4595 36.9131 75.2931 36.9871 75.1486C37.0611 75.0041 37.1847 74.891 37.3352 74.83C37.4857 74.769 37.6531 74.7642 37.8068 74.8165L48.6227 80.3558C48.7549 80.45 48.8489 80.5887 48.8873 80.7464C48.9258 80.9042 48.9063 81.0705 48.8322 81.2151C48.7582 81.3596 48.6347 81.4727 48.4842 81.5337C48.3337 81.5947 48.1662 81.5995 48.0125 81.5472Z" fill="#3C5EC4"/>
<path d="M38.4594 79.6261L35.9911 78.362C35.8589 78.2677 35.7649 78.1291 35.7264 77.9713C35.688 77.8135 35.7075 77.6472 35.7816 77.5026C35.8556 77.3581 35.9791 77.245 36.1296 77.184C36.2801 77.1231 36.4476 77.1182 36.6013 77.1705L39.0696 78.4346C39.2018 78.5288 39.2958 78.6675 39.3342 78.8253C39.3727 78.983 39.3532 79.1494 39.2791 79.2939C39.2051 79.4384 39.0816 79.5515 38.9311 79.6125C38.7806 79.6735 38.6131 79.6783 38.4594 79.6261Z" fill="#3C5EC4"/>
<path d="M41.6254 84.219L34.7855 80.716C34.6532 80.6217 34.5593 80.4831 34.5208 80.3253C34.4824 80.1675 34.5019 80.0012 34.576 79.8566C34.65 79.7121 34.7735 79.599 34.924 79.538C35.0745 79.4771 35.2419 79.4722 35.3957 79.5245L42.2356 83.0275C42.3679 83.1218 42.4618 83.2604 42.5003 83.4182C42.5388 83.576 42.5192 83.7423 42.4452 83.8868C42.3711 84.0314 42.2476 84.1445 42.0971 84.2055C41.9466 84.2664 41.7792 84.2712 41.6254 84.219Z" fill="#3C5EC4"/>
<path d="M52.2926 73.1903L41.4767 67.651C41.3445 67.5567 41.2505 67.4181 41.212 67.2603C41.1736 67.1026 41.1931 66.9362 41.2671 66.7917C41.3412 66.6471 41.4647 66.5341 41.6152 66.4731C41.7657 66.4121 41.9331 66.4073 42.0869 66.4596L52.9027 71.9989C53.035 72.0931 53.1289 72.2317 53.1674 72.3895C53.2059 72.5473 53.1863 72.7136 53.1123 72.8581C53.0383 73.0027 52.9147 73.1158 52.7642 73.1767C52.6137 73.2377 52.4463 73.2425 52.2926 73.1903Z" fill="#3C5EC4"/>
<path d="M42.7394 71.2689L40.2712 70.0048C40.1389 69.9105 40.045 69.7719 40.0065 69.6141C39.968 69.4563 39.9876 69.29 40.0616 69.1455C40.1356 69.0009 40.2592 68.8878 40.4097 68.8269C40.5602 68.7659 40.7276 68.7611 40.8814 68.8133L43.3497 70.0774C43.4819 70.1717 43.5758 70.3103 43.6143 70.4681C43.6528 70.6259 43.6332 70.7922 43.5592 70.9367C43.4852 71.0813 43.3616 71.1944 43.2111 71.2553C43.0606 71.3163 42.8932 71.3211 42.7394 71.2689Z" fill="#3C5EC4"/>
<path d="M45.9055 75.8616L39.0656 72.3585C38.9333 72.2643 38.8394 72.1256 38.8009 71.9679C38.7625 71.8101 38.782 71.6438 38.8561 71.4992C38.9301 71.3547 39.0536 71.2416 39.2041 71.1806C39.3546 71.1196 39.522 71.1148 39.6758 71.1671L46.5157 74.6701C46.648 74.7644 46.7419 74.903 46.7804 75.0608C46.8188 75.2185 46.7993 75.3849 46.7253 75.5294C46.6512 75.674 46.5277 75.787 46.3772 75.848C46.2267 75.909 46.0593 75.9138 45.9055 75.8616Z" fill="#3C5EC4"/>
<path d="M30.1522 76.2393L26.0919 61.1231L36.9423 59.0691L36.3588 69.4447L50.6154 84.1244C51.3702 84.0935 52.1176 84.2829 52.7666 84.6695C53.4156 85.0561 53.938 85.6232 54.2703 86.3015C54.6025 86.9799 54.7302 87.7403 54.6378 88.4901C54.5453 89.2398 54.2368 89.9464 53.7497 90.5237C53.2626 91.1011 52.618 91.5243 51.8946 91.7416C51.1711 91.959 50.4001 91.9612 49.6755 91.7479C48.9508 91.5346 48.3039 91.1151 47.8135 90.5406C47.3231 89.966 47.0106 89.2611 46.9139 88.5119L30.1522 76.2393Z" fill="#A0616A"/>
<path d="M24.9815 44.1745C21.2985 47.0821 26.0257 63.3459 26.0257 63.3459C26.7576 62.5427 27.6081 74.4136 28.5026 74.0094C31.0452 72.8606 35.7053 68.8991 37.5018 69.222C38.5293 69.4067 37.4528 61.37 37.4528 61.37C37.4528 61.37 37.2549 56.7619 36.8828 50.8381C36.8086 49.1614 36.3115 47.5307 35.4376 46.0978C34.5637 44.6649 33.3415 43.4764 31.8847 42.643C31.8847 42.643 28.6646 41.267 24.9815 44.1745Z" fill="#3F3D56"/>
<path d="M152.404 93.1756H149.194C149.017 93.1752 148.847 93.1045 148.722 92.979C148.596 92.8535 148.526 92.6835 148.526 92.5062C148.526 92.329 148.596 92.1589 148.722 92.0334C148.847 91.908 149.017 91.8373 149.194 91.8369H152.404C152.582 91.8369 152.752 91.9074 152.877 92.033C153.003 92.1585 153.073 92.3287 153.073 92.5062C153.073 92.6838 153.003 92.854 152.877 92.9795C152.752 93.105 152.582 93.1756 152.404 93.1756Z" fill="white"/>
<path d="M152.404 95.5232H149.194C149.017 95.5229 148.847 95.4522 148.722 95.3267C148.596 95.2012 148.526 95.0312 148.526 94.8539C148.526 94.6766 148.596 94.5066 148.722 94.3811C148.847 94.2556 149.017 94.1849 149.194 94.1846H152.404C152.582 94.1846 152.752 94.2551 152.877 94.3806C153.003 94.5061 153.073 94.6764 153.073 94.8539C153.073 95.0314 153.003 95.2017 152.877 95.3272C152.752 95.4527 152.582 95.5232 152.404 95.5232Z" fill="white"/>
<path d="M152.404 97.8704H149.194C149.017 97.87 148.847 97.7993 148.722 97.6738C148.596 97.5484 148.526 97.3783 148.526 97.2011C148.526 97.0238 148.596 96.8538 148.722 96.7283C148.847 96.6028 149.017 96.5321 149.194 96.5317H152.404C152.582 96.5317 152.752 96.6023 152.877 96.7278C153.003 96.8533 153.073 97.0236 153.073 97.2011C153.073 97.3786 153.003 97.5488 152.877 97.6743C152.752 97.7999 152.582 97.8704 152.404 97.8704Z" fill="white"/>
<path d="M86.2639 93.787L76.456 89.1557C76.2462 89.0572 76.0615 88.9124 75.9157 88.7324C75.7698 88.5523 75.6666 88.3415 75.6139 88.1159C75.5607 87.8951 75.5582 87.6652 75.6066 87.4434C75.655 87.2216 75.753 87.0136 75.8933 86.8351C78.7343 83.2041 80.6851 78.9579 81.5893 74.4371C81.6577 74.0909 81.844 73.7791 82.1164 73.5549C82.3889 73.3307 82.7307 73.2079 83.0836 73.2075C88.0857 73.2245 91.8242 75.051 94.1948 78.6356C94.3198 78.822 94.4026 79.0335 94.4375 79.2552C94.4724 79.477 94.4585 79.7037 94.3967 79.9195C93.0241 84.6505 90.9354 89.1436 88.2032 93.2427C88.0004 93.5525 87.6922 93.7784 87.3356 93.8785C86.9791 93.9786 86.5983 93.9461 86.2639 93.787Z" fill="#D8DFF3"/>
<path d="M89.1491 87.2909L81.6499 83.7497C81.4633 83.6616 81.3194 83.503 81.2497 83.3088C81.1801 83.1146 81.1905 82.9007 81.2786 82.7141C81.3667 82.5275 81.5253 82.3836 81.7195 82.314C81.9137 82.2443 82.1277 82.2547 82.3142 82.3428L89.8135 85.884C89.9059 85.9276 89.9887 85.989 90.0574 86.0647C90.126 86.1403 90.1791 86.2288 90.2136 86.3249C90.2481 86.4211 90.2633 86.5231 90.2583 86.6252C90.2534 86.7272 90.2284 86.8273 90.1848 86.9197C90.1411 87.012 90.0798 87.0949 90.0041 87.1636C89.9284 87.2322 89.84 87.2853 89.7438 87.3198C89.6477 87.3543 89.5456 87.3695 89.4436 87.3645C89.3416 87.3596 89.2415 87.3346 89.1491 87.2909Z" fill="white"/>
<path d="M90.3141 84.8244L82.8149 81.2832C82.6283 81.1951 82.4844 81.0365 82.4147 80.8422C82.3451 80.648 82.3555 80.4341 82.4436 80.2475C82.5317 80.061 82.6903 79.917 82.8845 79.8474C83.0787 79.7778 83.2927 79.7881 83.4792 79.8762L90.9785 83.4175C91.1651 83.5056 91.309 83.6642 91.3786 83.8584C91.4483 84.0526 91.4379 84.2665 91.3498 84.4531C91.2617 84.6397 91.1031 84.7836 90.9089 84.8532C90.7146 84.9229 90.5007 84.9125 90.3141 84.8244Z" fill="white"/>
<path d="M10.1176 37.2059C10.9126 36.011 10.442 34.3004 9.06655 33.3853C7.69109 32.4702 5.93159 32.6971 5.13659 33.892C4.34159 35.087 4.81214 36.7975 6.1876 37.7126C7.56305 38.6277 9.32256 38.4008 10.1176 37.2059Z" fill="#B1BEE7"/>
<path d="M152.89 88.0929C153.685 86.8979 153.214 85.1874 151.839 84.2723C150.463 83.3572 148.704 83.5841 147.909 84.779C147.114 85.9739 147.585 87.6845 148.96 88.5996C150.335 89.5147 152.095 89.2878 152.89 88.0929Z" fill="#B1BEE7"/>
</g>
<defs>
<clipPath id="clip0_2826_181630">
<rect width="160" height="115.478" fill="white" transform="translate(0 0.881592)"/>
</clipPath>
</defs>
</svg>
