<svg width="160" height="164" viewBox="0 0 160 164" fill="none" xmlns="http://www.w3.org/2000/svg">
<ellipse cx="76.8244" cy="79.9508" rx="52.3312" ry="91.2058" transform="rotate(39.7325 76.8244 79.9508)" fill="#F5F7FC"/>
<path d="M36 65.3599H143V101.031H138.947V110.36L129.76 101.031H36V65.3599Z" fill="#D8DFF3"/>
<path d="M140 69.3599H39V97.3599H140V69.3599Z" fill="white"/>
<path d="M47.5819 77.3599C47.4278 77.3598 47.28 77.4123 47.1709 77.5058C47.0618 77.5994 47.0003 77.7263 47 77.8588C46.9997 77.9913 47.0605 78.1185 47.1692 78.2124C47.2778 78.3064 47.4253 78.3594 47.5794 78.3599H74.4185C74.5728 78.3599 74.7206 78.3072 74.8297 78.2134C74.9387 78.1196 75 77.9925 75 77.8599C75 77.7273 74.9387 77.6001 74.8297 77.5063C74.7206 77.4125 74.5728 77.3599 74.4185 77.3599H47.5819Z" fill="#3C5EC4"/>
<path d="M47.5859 82.3599C47.4307 82.3597 47.2819 82.4647 47.1721 82.6518C47.0622 82.8389 47.0003 83.0928 47 83.3578C46.9997 83.6227 47.0609 83.8771 47.1703 84.065C47.2797 84.2529 47.4283 84.3589 47.5834 84.3599H131.415C131.57 84.3599 131.719 84.2545 131.829 84.067C131.938 83.8794 132 83.6251 132 83.3599C132 83.0946 131.938 82.8403 131.829 82.6528C131.719 82.4652 131.57 82.3599 131.415 82.3599H47.5859Z" fill="#D8DFF3"/>
<path d="M47.5859 88.3599C47.4307 88.3598 47.2819 88.4123 47.1721 88.5058C47.0622 88.5994 47.0003 88.7263 47 88.8588C46.9997 88.9913 47.0609 89.1185 47.1703 89.2124C47.2797 89.3064 47.4283 89.3594 47.5834 89.3599H131.415C131.57 89.3599 131.719 89.3072 131.829 89.2134C131.938 89.1196 132 88.9925 132 88.8599C132 88.7273 131.938 88.6001 131.829 88.5063C131.719 88.4125 131.57 88.3599 131.415 88.3599H47.5859Z" fill="#D8DFF3"/>
<path d="M124 112.36H17V148.031H21.0531V157.36L30.2398 148.031H124V112.36Z" fill="#D8DFF3"/>
<path d="M121 116.36H20V144.36H121V116.36Z" fill="white"/>
<path d="M27.5819 124.36C27.4278 124.36 27.28 124.412 27.1709 124.506C27.0618 124.599 27.0003 124.726 27 124.859C26.9997 124.991 27.0605 125.118 27.1692 125.212C27.2778 125.306 27.4253 125.359 27.5794 125.36H54.4185C54.5728 125.36 54.7206 125.307 54.8297 125.213C54.9387 125.12 55 124.992 55 124.86C55 124.727 54.9387 124.6 54.8297 124.506C54.7206 124.413 54.5728 124.36 54.4185 124.36H27.5819Z" fill="#3C5EC4"/>
<path d="M27.5859 129.36C27.4307 129.36 27.2819 129.412 27.1721 129.506C27.0622 129.599 27.0003 129.726 27 129.859C26.9997 129.991 27.0609 130.118 27.1703 130.212C27.2797 130.306 27.4283 130.359 27.5834 130.36H111.415C111.57 130.36 111.719 130.307 111.829 130.213C111.938 130.12 112 129.992 112 129.86C112 129.727 111.938 129.6 111.829 129.506C111.719 129.413 111.57 129.36 111.415 129.36H27.5859Z" fill="#D8DFF3"/>
<path d="M27.5859 134.36C27.4307 134.36 27.2819 134.465 27.1721 134.652C27.0622 134.839 27.0003 135.093 27 135.358C26.9997 135.623 27.0609 135.877 27.1703 136.065C27.2797 136.253 27.4283 136.359 27.5834 136.36H111.415C111.57 136.36 111.719 136.255 111.829 136.067C111.938 135.879 112 135.625 112 135.36C112 135.095 111.938 134.84 111.829 134.653C111.719 134.465 111.57 134.36 111.415 134.36H27.5859Z" fill="#D8DFF3"/>
<path d="M124 18.3599H17V54.0304H21.0531V63.3599L30.2398 54.0304H124V18.3599Z" fill="#D8DFF3"/>
<path d="M121 22.3599H20V50.3599H121V22.3599Z" fill="white"/>
<path d="M27.5819 30.3599C27.4278 30.3598 27.28 30.4123 27.1709 30.5058C27.0618 30.5994 27.0003 30.7263 27 30.8588C26.9997 30.9913 27.0605 31.1185 27.1692 31.2124C27.2778 31.3064 27.4253 31.3594 27.5794 31.3599H54.4185C54.5728 31.3599 54.7206 31.3072 54.8297 31.2134C54.9387 31.1196 55 30.9925 55 30.8599C55 30.7273 54.9387 30.6001 54.8297 30.5063C54.7206 30.4125 54.5728 30.3599 54.4185 30.3599H27.5819Z" fill="#3C5EC4"/>
<path d="M27.5859 35.3599C27.4307 35.3598 27.2819 35.4123 27.1721 35.5058C27.0622 35.5994 27.0003 35.7263 27 35.8588C26.9997 35.9913 27.0609 36.1185 27.1703 36.2124C27.2797 36.3064 27.4283 36.3594 27.5834 36.3599H111.415C111.57 36.3599 111.719 36.3072 111.829 36.2134C111.938 36.1196 112 35.9925 112 35.8599C112 35.7273 111.938 35.6001 111.829 35.5063C111.719 35.4125 111.57 35.3599 111.415 35.3599H27.5859Z" fill="#D8DFF3"/>
<path d="M27.5859 41.3599C27.4307 41.3598 27.2819 41.4123 27.1721 41.5058C27.0622 41.5994 27.0003 41.7263 27 41.8588C26.9997 41.9913 27.0609 42.1185 27.1703 42.2124C27.2797 42.3064 27.4283 42.3594 27.5834 42.3599H111.415C111.57 42.3599 111.719 42.3072 111.829 42.2134C111.938 42.1196 112 41.9925 112 41.8599C112 41.7273 111.938 41.6001 111.829 41.5063C111.719 41.4125 111.57 41.3599 111.415 41.3599H27.5859Z" fill="#D8DFF3"/>
</svg>
