<svg width="160" height="202" viewBox="0 0 160 202" fill="none" xmlns="http://www.w3.org/2000/svg">
<ellipse cx="77.0317" cy="100.646" rx="62.3762" ry="108.713" transform="rotate(27.9307 77.0317 100.646)" fill="#F5F7FC"/>
<path d="M104.092 127.778C97.4627 99.9751 102.992 75.4097 105.678 66.1413C105.838 65.5858 105.866 65.0007 105.761 64.4322C105.656 63.8638 105.42 63.3276 105.072 62.8658C104.723 62.404 104.273 62.0294 103.755 61.7714C103.237 61.5134 102.666 61.3791 102.087 61.3792H37.7329C37.1437 61.3797 36.5629 61.5191 36.0378 61.786C35.5126 62.0528 35.0579 62.4396 34.7106 62.915C32.1128 66.4826 26.7224 78.3134 32.743 111.049C35.9627 128.561 35.9147 140.502 34.8628 148.367C34.2727 152.796 33.3624 155.932 32.5373 158.046L32.4493 158.27C32.2755 158.698 32.1849 159.155 32.1823 159.617C32.1762 160.138 32.2809 160.655 32.4893 161.133C32.6978 161.611 33.0053 162.039 33.3917 162.39C33.6436 162.626 33.9287 162.823 34.238 162.977C34.4948 163.107 34.7664 163.207 35.047 163.273C35.3328 163.342 35.6259 163.377 35.9201 163.376H99.2809C99.289 163.376 99.3102 163.379 99.3476 163.379C99.7535 163.379 101.871 163.262 103.79 160.953C106.7 157.452 109.117 148.855 104.092 127.778Z" fill="white"/>
<path d="M87.5 92.3792C89.433 92.3792 91 90.8121 91 88.8792C91 86.9462 89.433 85.3792 87.5 85.3792C85.567 85.3792 84 86.9462 84 88.8792C84 90.8121 85.567 92.3792 87.5 92.3792Z" fill="#3C5EC4"/>
<path d="M87.5664 90.3791C87.4626 90.3793 87.3616 90.3506 87.2786 90.2974L87.2734 90.2941L86.1896 89.5843C86.1392 89.5515 86.0969 89.5105 86.0651 89.4636C86.0333 89.4168 86.0126 89.365 86.0042 89.3113C85.9959 89.2576 85.9999 89.2031 86.0162 89.1507C86.0326 89.0984 86.0608 89.0493 86.0993 89.0063C86.1378 88.9633 86.1859 88.9272 86.2407 88.9001C86.2956 88.873 86.3561 88.8555 86.4189 88.8484C86.4817 88.8414 86.5455 88.845 86.6067 88.8591C86.6678 88.8732 86.7251 88.8974 86.7753 88.9305L87.4773 89.3909L89.1363 87.5404C89.1748 87.4975 89.2228 87.4615 89.2775 87.4344C89.3323 87.4073 89.3927 87.3898 89.4554 87.3827C89.5181 87.3756 89.5818 87.3792 89.6429 87.3931C89.704 87.4071 89.7613 87.4313 89.8114 87.4642C89.9127 87.5307 89.9791 87.6291 89.9959 87.7373C90.0126 87.8456 89.9784 87.9551 89.9008 88.0418L87.9494 90.2184C87.9043 90.2686 87.8463 90.3092 87.7799 90.337C87.7134 90.3649 87.6404 90.3793 87.5664 90.3791Z" fill="white"/>
<path d="M87.5 102.379C89.433 102.379 91 100.812 91 98.8792C91 96.9462 89.433 95.3792 87.5 95.3792C85.567 95.3792 84 96.9462 84 98.8792C84 100.812 85.567 102.379 87.5 102.379Z" fill="#3C5EC4"/>
<path d="M87.5664 100.379C87.4626 100.379 87.3616 100.351 87.2786 100.297L87.2734 100.294L86.1896 99.5843C86.1392 99.5515 86.0969 99.5105 86.0651 99.4636C86.0333 99.4168 86.0126 99.365 86.0042 99.3113C85.9959 99.2576 85.9999 99.2031 86.0162 99.1507C86.0326 99.0984 86.0608 99.0493 86.0993 99.0063C86.1378 98.9633 86.1859 98.9272 86.2407 98.9001C86.2956 98.873 86.3561 98.8555 86.4189 98.8484C86.4817 98.8414 86.5455 98.845 86.6067 98.8591C86.6678 98.8732 86.7251 98.8974 86.7753 98.9305L87.4773 99.3909L89.1363 97.5404C89.1748 97.4975 89.2228 97.4615 89.2775 97.4344C89.3323 97.4073 89.3927 97.3898 89.4554 97.3827C89.5181 97.3756 89.5818 97.3792 89.6429 97.3931C89.704 97.4071 89.7613 97.4313 89.8114 97.4642C89.9127 97.5307 89.9791 97.6291 89.9959 97.7373C90.0126 97.8456 89.9784 97.9551 89.9008 98.0418L87.9494 100.218C87.9043 100.269 87.8463 100.309 87.7799 100.337C87.7134 100.365 87.6404 100.379 87.5664 100.379Z" fill="white"/>
<path d="M88.5 114.379C90.433 114.379 92 112.812 92 110.879C92 108.946 90.433 107.379 88.5 107.379C86.567 107.379 85 108.946 85 110.879C85 112.812 86.567 114.379 88.5 114.379Z" fill="#3C5EC4"/>
<path d="M88.5664 112.379C88.4626 112.379 88.3616 112.351 88.2786 112.297L88.2734 112.294L87.1896 111.584C87.1392 111.551 87.0969 111.51 87.0651 111.464C87.0333 111.417 87.0126 111.365 87.0042 111.311C86.9959 111.258 86.9999 111.203 87.0162 111.151C87.0326 111.098 87.0608 111.049 87.0993 111.006C87.1378 110.963 87.1859 110.927 87.2407 110.9C87.2956 110.873 87.3561 110.855 87.4189 110.848C87.4817 110.841 87.5455 110.845 87.6067 110.859C87.6678 110.873 87.7251 110.897 87.7753 110.93L88.4773 111.391L90.1363 109.54C90.1748 109.497 90.2228 109.461 90.2775 109.434C90.3323 109.407 90.3927 109.39 90.4554 109.383C90.5181 109.376 90.5818 109.379 90.6429 109.393C90.704 109.407 90.7613 109.431 90.8114 109.464C90.9127 109.531 90.9791 109.629 90.9959 109.737C91.0126 109.846 90.9784 109.955 90.9008 110.042L88.9494 112.218C88.9043 112.269 88.8463 112.309 88.7799 112.337C88.7134 112.365 88.6404 112.379 88.5664 112.379Z" fill="white"/>
<path d="M122.356 140.379C122.32 140.379 122.297 140.378 122.289 140.378L117.986 140.378V139.744H122.305C122.405 139.747 124.445 139.805 126.325 137.524C129.126 134.125 131.427 125.709 126.478 104.924C119.823 76.9743 125.373 52.2827 128.069 42.9641C128.201 42.5031 128.225 42.0175 128.138 41.5457C128.051 41.0739 127.855 40.6288 127.566 40.2457C127.278 39.8625 126.904 39.5517 126.474 39.3379C126.045 39.1241 125.571 39.0131 125.092 39.0137H60.8199C60.3313 39.0143 59.8497 39.1302 59.4142 39.3518C58.9787 39.5735 58.6016 39.8947 58.3135 40.2894C57.1718 41.8599 55.605 44.877 54.6245 50.3323L54 50.2202C55.0017 44.6463 56.6195 41.5404 57.8003 39.9163C58.1473 39.4408 58.6016 39.0537 59.1263 38.7866C59.6509 38.5195 60.2312 38.3799 60.8199 38.3792H125.092C125.67 38.3786 126.24 38.5125 126.758 38.7703C127.275 39.028 127.726 39.4026 128.074 39.8644C128.422 40.3262 128.657 40.8626 128.762 41.4311C128.867 41.9997 128.838 42.5848 128.678 43.1404C125.997 52.4106 120.475 76.9742 127.095 104.777C132.114 125.855 129.701 134.452 126.794 137.953C124.876 140.262 122.763 140.379 122.356 140.379Z" fill="#D8DFF3"/>
<path d="M110.356 152.379C110.32 152.379 110.297 152.378 110.289 152.378L105.986 152.378V151.737H110.305C110.405 151.741 112.445 151.799 114.325 149.496C117.126 146.063 119.427 137.565 114.478 116.576C107.823 88.3527 113.373 63.419 116.069 54.009C116.201 53.5435 116.225 53.0531 116.138 52.5767C116.051 52.1003 115.855 51.6509 115.566 51.264C115.278 50.8771 114.904 50.5633 114.474 50.3473C114.045 50.1314 113.571 50.0193 113.092 50.0199H48.8199C48.3313 50.0206 47.8497 50.1375 47.4142 50.3614C46.9787 50.5852 46.6017 50.9096 46.3136 51.3081C45.1718 52.894 43.605 55.9407 42.6246 61.4495L42 61.3363C43.0017 55.7077 44.6196 52.5714 45.8003 50.9314C46.1474 50.4512 46.6016 50.0603 47.1263 49.7906C47.651 49.5209 48.2312 49.3799 48.8199 49.3792H113.092C113.67 49.3786 114.24 49.5138 114.758 49.7741C115.275 50.0344 115.726 50.4127 116.074 50.879C116.422 51.3453 116.657 51.8869 116.762 52.4611C116.867 53.0352 116.838 53.6261 116.678 54.1871C113.997 63.5482 108.475 88.3525 115.095 116.428C120.114 137.712 117.701 146.394 114.794 149.929C112.876 152.261 110.763 152.379 110.356 152.379Z" fill="#B1BEE7"/>
<path d="M73.4745 91.3792H40.5255C39.8557 91.3792 39.2133 91.1158 38.7397 90.6469C38.2661 90.1781 38 89.5422 38 88.8792C38 88.2161 38.2661 87.5802 38.7397 87.1114C39.2133 86.6425 39.8557 86.3792 40.5255 86.3792H73.4745C74.1443 86.3792 74.7867 86.6425 75.2603 87.1114C75.7339 87.5802 76 88.2161 76 88.8792C76 89.5422 75.7339 90.1781 75.2603 90.6469C74.7867 91.1158 74.1443 91.3792 73.4745 91.3792Z" fill="#D8DFF3"/>
<path d="M73.4745 102.379H40.5255C39.8557 102.379 39.2133 102.116 38.7397 101.647C38.2661 101.178 38 100.542 38 99.8792C38 99.2161 38.2661 98.5802 38.7397 98.1114C39.2133 97.6425 39.8557 97.3792 40.5255 97.3792H73.4745C74.1443 97.3792 74.7867 97.6425 75.2603 98.1114C75.7339 98.5802 76 99.2161 76 99.8792C76 100.542 75.7339 101.178 75.2603 101.647C74.7867 102.116 74.1443 102.379 73.4745 102.379Z" fill="#D8DFF3"/>
<path d="M75.4745 113.379H42.5255C41.8557 113.379 41.2133 113.168 40.7397 112.793C40.2661 112.418 40 111.91 40 111.379C40 110.849 40.2661 110.34 40.7397 109.965C41.2133 109.59 41.8557 109.379 42.5255 109.379H75.4745C76.1443 109.379 76.7867 109.59 77.2603 109.965C77.7339 110.34 78 110.849 78 111.379C78 111.91 77.7339 112.418 77.2603 112.793C76.7867 113.168 76.1443 113.379 75.4745 113.379Z" fill="#D8DFF3"/>
<path d="M78.408 125.379H44.592C43.9045 125.379 43.2453 125.116 42.7592 124.647C42.2731 124.178 42 123.542 42 122.879C42 122.216 42.2731 121.58 42.7592 121.111C43.2453 120.643 43.9045 120.379 44.592 120.379H78.408C79.0955 120.379 79.7547 120.643 80.2408 121.111C80.7269 121.58 81 122.216 81 122.879C81 123.542 80.7269 124.178 80.2408 124.647C79.7547 125.116 79.0955 125.379 78.408 125.379Z" fill="#D8DFF3"/>
<path d="M78.4508 72.3791H54.5518C54.2168 72.3796 53.8851 72.3023 53.5755 72.1517C53.2659 72.0011 52.9846 71.7802 52.7476 71.5016C52.5106 71.2229 52.3226 70.8921 52.1943 70.5279C52.066 70.1637 52 69.7734 52 69.3792C52 68.9849 52.066 68.5946 52.1943 68.2304C52.3226 67.8662 52.5106 67.5354 52.7476 67.2567C52.9846 66.9781 53.2659 66.7572 53.5755 66.6066C53.8851 66.456 54.2168 66.3787 54.5518 66.3792H78.4508C79.1269 66.3792 79.7753 66.6952 80.2533 67.2578C80.7314 67.8204 81 68.5835 81 69.3792C81 70.1748 80.7314 70.9379 80.2533 71.5005C79.7753 72.0631 79.1269 72.3791 78.4508 72.3791Z" fill="#3C5EC4"/>
<path d="M91.5 126.379C93.433 126.379 95 124.812 95 122.879C95 120.946 93.433 119.379 91.5 119.379C89.567 119.379 88 120.946 88 122.879C88 124.812 89.567 126.379 91.5 126.379Z" fill="#D8DFF3"/>
<path d="M79.4745 137.379H46.5255C45.8557 137.379 45.2133 137.063 44.7397 136.5C44.2661 135.938 44 135.175 44 134.379C44 133.584 44.2661 132.82 44.7397 132.258C45.2133 131.695 45.8557 131.379 46.5255 131.379H79.4745C80.1443 131.379 80.7867 131.695 81.2603 132.258C81.7339 132.82 82 133.584 82 134.379C82 135.175 81.7339 135.938 81.2603 136.5C80.7867 137.063 80.1443 137.379 79.4745 137.379Z" fill="#D8DFF3"/>
<path d="M92.5 138.379C94.433 138.379 96 136.588 96 134.379C96 132.17 94.433 130.379 92.5 130.379C90.567 130.379 89 132.17 89 134.379C89 136.588 90.567 138.379 92.5 138.379Z" fill="#D8DFF3"/>
</svg>
