<svg width="160" height="164" viewBox="0 0 160 164" fill="none" xmlns="http://www.w3.org/2000/svg">
<ellipse cx="76.8244" cy="79.9508" rx="52.3312" ry="91.2058" transform="rotate(39.7325 76.8244 79.9508)" fill="#F5F7FC"/>
<path d="M144.011 59.8574H15.9888C15.1964 59.8565 14.4367 59.5364 13.8764 58.9673C13.3161 58.3982 13.0009 57.6266 13 56.8218V29.8931C13.0009 29.0883 13.3161 28.3167 13.8764 27.7476C14.4367 27.1785 15.1964 26.8584 15.9888 26.8574H144.011C144.804 26.8584 145.563 27.1785 146.124 27.7476C146.684 28.3167 146.999 29.0883 147 29.8931V56.8218C146.999 57.6266 146.684 58.3982 146.124 58.9673C145.563 59.5364 144.804 59.8565 144.011 59.8574Z" fill="#D8DFF3"/>
<path d="M144.011 135.857H15.9888C15.1964 135.856 14.4367 135.536 13.8764 134.967C13.3161 134.398 13.0009 133.627 13 132.822V105.893C13.0009 105.088 13.3161 104.317 13.8764 103.748C14.4367 103.178 15.1964 102.858 15.9888 102.857H144.011C144.804 102.858 145.563 103.178 146.124 103.748C146.684 104.317 146.999 105.088 147 105.893V132.822C146.999 133.627 146.684 134.398 146.124 134.967C145.563 135.536 144.804 135.856 144.011 135.857Z" fill="#D8DFF3"/>
<path d="M144.011 97.8574H15.9888C15.1964 97.8565 14.4367 97.5364 13.8764 96.9673C13.3161 96.3982 13.0009 95.6266 13 94.8218V67.8931C13.0009 67.0883 13.3161 66.3167 13.8764 65.7476C14.4367 65.1785 15.1964 64.8584 15.9888 64.8574H144.011C144.804 64.8584 145.563 65.1785 146.124 65.7476C146.684 66.3167 146.999 67.0883 147 67.8931V94.8218C146.999 95.6266 146.684 96.3982 146.124 96.9673C145.563 97.5364 144.804 97.8565 144.011 97.8574Z" fill="#D8DFF3"/>
<path d="M135.384 57.8574H17.9895C17.1969 57.8565 16.4371 57.5353 15.8766 56.9643C15.3162 56.3933 15.0009 55.6191 15 54.8116V31.9032C15.0009 31.0957 15.3162 30.3216 15.8766 29.7506C16.4371 29.1796 17.1969 28.8584 17.9895 28.8574H142.01C142.803 28.8584 143.563 29.1796 144.123 29.7506C144.684 30.3216 144.999 31.0957 145 31.9032V48.0604C144.997 50.6578 143.983 53.148 142.18 54.9847C140.378 56.8214 137.934 57.8545 135.384 57.8574Z" fill="white"/>
<path d="M135.384 133.857H17.9895C17.1969 133.856 16.4371 133.535 15.8766 132.964C15.3162 132.393 15.0009 131.619 15 130.812V107.903C15.0009 107.096 15.3162 106.322 15.8766 105.751C16.4371 105.18 17.1969 104.858 17.9895 104.857H142.01C142.803 104.858 143.563 105.18 144.123 105.751C144.684 106.322 144.999 107.096 145 107.903V124.06C144.997 126.658 143.983 129.148 142.18 130.985C140.378 132.821 137.934 133.854 135.384 133.857Z" fill="white"/>
<path d="M24.6159 95.8574H142.01C142.803 95.8565 143.563 95.5353 144.123 94.9643C144.684 94.3933 144.999 93.6191 145 92.8116V69.9032C144.999 69.0957 144.684 68.3216 144.123 67.7506C143.563 67.1796 142.803 66.8584 142.01 66.8574H17.9895C17.1969 66.8584 16.4371 67.1796 15.8766 67.7506C15.3162 68.3216 15.0009 69.0957 15 69.9032V86.0604C15.0029 88.6578 16.0169 91.148 17.8196 92.9847C19.6223 94.8214 22.0665 95.8545 24.6159 95.8574Z" fill="white"/>
<path d="M120.214 39.8574H83.7856C83.5772 39.8574 83.3774 39.7521 83.2301 39.5645C83.0828 39.377 83 39.1226 83 38.8574C83 38.5922 83.0828 38.3378 83.2301 38.1503C83.3774 37.9628 83.5772 37.8574 83.7856 37.8574H120.214C120.423 37.8574 120.623 37.9628 120.77 38.1503C120.917 38.3378 121 38.5922 121 38.8574C121 39.1226 120.917 39.377 120.77 39.5645C120.623 39.7521 120.423 39.8574 120.214 39.8574Z" fill="#3C5EC4"/>
<path d="M120.214 115.857H83.7856C83.5772 115.857 83.3774 115.752 83.2301 115.565C83.0828 115.377 83 115.123 83 114.857C83 114.592 83.0828 114.338 83.2301 114.15C83.3774 113.963 83.5772 113.857 83.7856 113.857H120.214C120.423 113.857 120.623 113.963 120.77 114.15C120.917 114.338 121 114.592 121 114.857C121 115.123 120.917 115.377 120.77 115.565C120.623 115.752 120.423 115.857 120.214 115.857Z" fill="#3C5EC4"/>
<path d="M120.214 77.8574H83.7856C83.5772 77.8574 83.3774 77.7521 83.2301 77.5645C83.0828 77.377 83 77.1226 83 76.8574C83 76.5922 83.0828 76.3378 83.2301 76.1503C83.3774 75.9628 83.5772 75.8574 83.7856 75.8574H120.214C120.423 75.8574 120.623 75.9628 120.77 76.1503C120.917 76.3378 121 76.5922 121 76.8574C121 77.1226 120.917 77.377 120.77 77.5645C120.623 77.7521 120.423 77.8574 120.214 77.8574Z" fill="#3C5EC4"/>
<path d="M129.221 43.8574H74.7794C74.5727 43.8574 74.3745 43.8047 74.2283 43.711C74.0821 43.6172 74 43.49 74 43.3574C74 43.2248 74.0821 43.0976 74.2283 43.0039C74.3745 42.9101 74.5727 42.8574 74.7794 42.8574H129.221C129.427 42.8574 129.626 42.9101 129.772 43.0039C129.918 43.0976 130 43.2248 130 43.3574C130 43.49 129.918 43.6172 129.772 43.711C129.626 43.8047 129.427 43.8574 129.221 43.8574Z" fill="#D8DFF3"/>
<path d="M129.221 119.857H74.7794C74.5727 119.857 74.3745 119.805 74.2283 119.711C74.0821 119.617 74 119.49 74 119.357C74 119.225 74.0821 119.098 74.2283 119.004C74.3745 118.91 74.5727 118.857 74.7794 118.857H129.221C129.427 118.857 129.626 118.91 129.772 119.004C129.918 119.098 130 119.225 130 119.357C130 119.49 129.918 119.617 129.772 119.711C129.626 119.805 129.427 119.857 129.221 119.857Z" fill="#D8DFF3"/>
<path d="M129.221 81.8574H74.7794C74.5727 81.8574 74.3745 81.8047 74.2283 81.711C74.0821 81.6172 74 81.49 74 81.3574C74 81.2248 74.0821 81.0976 74.2283 81.0039C74.3745 80.9101 74.5727 80.8574 74.7794 80.8574H129.221C129.427 80.8574 129.626 80.9101 129.772 81.0039C129.918 81.0976 130 81.2248 130 81.3574C130 81.49 129.918 81.6172 129.772 81.711C129.626 81.8047 129.427 81.8574 129.221 81.8574Z" fill="#D8DFF3"/>
<path d="M129.221 48.8574H74.7794C74.5727 48.8574 74.3745 48.8047 74.2283 48.711C74.0821 48.6172 74 48.49 74 48.3574C74 48.2248 74.0821 48.0976 74.2283 48.0039C74.3745 47.9101 74.5727 47.8574 74.7794 47.8574H129.221C129.427 47.8574 129.626 47.9101 129.772 48.0039C129.918 48.0976 130 48.2248 130 48.3574C130 48.49 129.918 48.6172 129.772 48.711C129.626 48.8047 129.427 48.8574 129.221 48.8574Z" fill="#D8DFF3"/>
<path d="M129.221 124.857H74.7794C74.5727 124.857 74.3745 124.805 74.2283 124.711C74.0821 124.617 74 124.49 74 124.357C74 124.225 74.0821 124.098 74.2283 124.004C74.3745 123.91 74.5727 123.857 74.7794 123.857H129.221C129.427 123.857 129.626 123.91 129.772 124.004C129.918 124.098 130 124.225 130 124.357C130 124.49 129.918 124.617 129.772 124.711C129.626 124.805 129.427 124.857 129.221 124.857Z" fill="#D8DFF3"/>
<path d="M129.221 86.8574H74.7794C74.5727 86.8574 74.3745 86.8047 74.2283 86.711C74.0821 86.6172 74 86.49 74 86.3574C74 86.2248 74.0821 86.0976 74.2283 86.0039C74.3745 85.9101 74.5727 85.8574 74.7794 85.8574H129.221C129.427 85.8574 129.626 85.9101 129.772 86.0039C129.918 86.0976 130 86.2248 130 86.3574C130 86.49 129.918 86.6172 129.772 86.711C129.626 86.8047 129.427 86.8574 129.221 86.8574Z" fill="#D8DFF3"/>
<path d="M28 50.8574C32.4183 50.8574 36 47.4996 36 43.3574C36 39.2153 32.4183 35.8574 28 35.8574C23.5817 35.8574 20 39.2153 20 43.3574C20 47.4996 23.5817 50.8574 28 50.8574Z" fill="#EBEFF9"/>
<path d="M28 126.857C32.4183 126.857 36 123.5 36 119.357C36 115.215 32.4183 111.857 28 111.857C23.5817 111.857 20 115.215 20 119.357C20 123.5 23.5817 126.857 28 126.857Z" fill="#EBEFF9"/>
<path d="M28 88.8574C32.4183 88.8574 36 85.4996 36 81.3574C36 77.2153 32.4183 73.8574 28 73.8574C23.5817 73.8574 20 77.2153 20 81.3574C20 85.4996 23.5817 88.8574 28 88.8574Z" fill="#EBEFF9"/>
<path d="M57.3157 39.8574H52.6843C52.5028 39.8574 52.3288 39.7521 52.2004 39.5645C52.0721 39.377 52 39.1226 52 38.8574C52 38.5922 52.0721 38.3378 52.2004 38.1503C52.3288 37.9628 52.5028 37.8574 52.6843 37.8574H57.3157C57.4972 37.8574 57.6712 37.9628 57.7996 38.1503C57.9279 38.3378 58 38.5922 58 38.8574C58 39.1226 57.9279 39.377 57.7996 39.5645C57.6712 39.7521 57.4972 39.8574 57.3157 39.8574Z" fill="#3C5EC4"/>
<path d="M57.3157 115.857H52.6843C52.5028 115.857 52.3288 115.752 52.2004 115.565C52.0721 115.377 52 115.123 52 114.857C52 114.592 52.0721 114.338 52.2004 114.15C52.3288 113.963 52.5028 113.857 52.6843 113.857H57.3157C57.4972 113.857 57.6712 113.963 57.7996 114.15C57.9279 114.338 58 114.592 58 114.857C58 115.123 57.9279 115.377 57.7996 115.565C57.6712 115.752 57.4972 115.857 57.3157 115.857Z" fill="#3C5EC4"/>
<path d="M57.3157 76.8574H52.6843C52.5028 76.8574 52.3288 76.8047 52.2004 76.711C52.0721 76.6172 52 76.49 52 76.3574C52 76.2248 52.0721 76.0976 52.2004 76.0039C52.3288 75.9101 52.5028 75.8574 52.6843 75.8574H57.3157C57.4972 75.8574 57.6712 75.9101 57.7996 76.0039C57.9279 76.0976 58 76.2248 58 76.3574C58 76.49 57.9279 76.6172 57.7996 76.711C57.6712 76.8047 57.4972 76.8574 57.3157 76.8574Z" fill="#3C5EC4"/>
<path d="M66.2556 43.8574H43.7444C43.547 43.8574 43.3576 43.8047 43.218 43.711C43.0784 43.6172 43 43.49 43 43.3574C43 43.2248 43.0784 43.0976 43.218 43.0039C43.3576 42.9101 43.547 42.8574 43.7444 42.8574H66.2556C66.453 42.8574 66.6424 42.9101 66.782 43.0039C66.9216 43.0976 67 43.2248 67 43.3574C67 43.49 66.9216 43.6172 66.782 43.711C66.6424 43.8047 66.453 43.8574 66.2556 43.8574Z" fill="#D8DFF3"/>
<path d="M66.2556 119.857H43.7444C43.547 119.857 43.3576 119.805 43.218 119.711C43.0784 119.617 43 119.49 43 119.357C43 119.225 43.0784 119.098 43.218 119.004C43.3576 118.91 43.547 118.857 43.7444 118.857H66.2556C66.453 118.857 66.6424 118.91 66.782 119.004C66.9216 119.098 67 119.225 67 119.357C67 119.49 66.9216 119.617 66.782 119.711C66.6424 119.805 66.453 119.857 66.2556 119.857Z" fill="#D8DFF3"/>
<path d="M66.2556 81.8574H43.7444C43.547 81.8574 43.3576 81.8047 43.218 81.711C43.0784 81.6172 43 81.49 43 81.3574C43 81.2248 43.0784 81.0976 43.218 81.0039C43.3576 80.9101 43.547 80.8574 43.7444 80.8574H66.2556C66.453 80.8574 66.6424 80.9101 66.782 81.0039C66.9216 81.0976 67 81.2248 67 81.3574C67 81.49 66.9216 81.6172 66.782 81.711C66.6424 81.8047 66.453 81.8574 66.2556 81.8574Z" fill="#D8DFF3"/>
<path d="M66.2556 48.8574H43.7444C43.547 48.8574 43.3576 48.8047 43.218 48.711C43.0784 48.6172 43 48.49 43 48.3574C43 48.2248 43.0784 48.0976 43.218 48.0039C43.3576 47.9101 43.547 47.8574 43.7444 47.8574H66.2556C66.453 47.8574 66.6424 47.9101 66.782 48.0039C66.9216 48.0976 67 48.2248 67 48.3574C67 48.49 66.9216 48.6172 66.782 48.711C66.6424 48.8047 66.453 48.8574 66.2556 48.8574Z" fill="#D8DFF3"/>
<path d="M66.2556 124.857H43.7444C43.547 124.857 43.3576 124.805 43.218 124.711C43.0784 124.617 43 124.49 43 124.357C43 124.225 43.0784 124.098 43.218 124.004C43.3576 123.91 43.547 123.857 43.7444 123.857H66.2556C66.453 123.857 66.6424 123.91 66.782 124.004C66.9216 124.098 67 124.225 67 124.357C67 124.49 66.9216 124.617 66.782 124.711C66.6424 124.805 66.453 124.857 66.2556 124.857Z" fill="#D8DFF3"/>
<path d="M66.2556 86.8574H43.7444C43.547 86.8574 43.3576 86.8047 43.218 86.711C43.0784 86.6172 43 86.49 43 86.3574C43 86.2248 43.0784 86.0976 43.218 86.0039C43.3576 85.9101 43.547 85.8574 43.7444 85.8574H66.2556C66.453 85.8574 66.6424 85.9101 66.782 86.0039C66.9216 86.0976 67 86.2248 67 86.3574C67 86.49 66.9216 86.6172 66.782 86.711C66.6424 86.8047 66.453 86.8574 66.2556 86.8574Z" fill="#D8DFF3"/>
</svg>
