<svg width="160" height="164" viewBox="0 0 160 164" fill="none" xmlns="http://www.w3.org/2000/svg">
<ellipse cx="76.8244" cy="79.9508" rx="52.3312" ry="91.2058" transform="rotate(39.7325 76.8244 79.9508)" fill="#F5F7FC"/>
<path d="M144.011 59.8574H15.9888C15.1964 59.8565 14.4367 59.5364 13.8764 58.9673C13.3161 58.3982 13.0009 57.6266 13 56.8218V29.8931C13.0009 29.0883 13.3161 28.3167 13.8764 27.7476C14.4367 27.1785 15.1964 26.8584 15.9888 26.8574H144.011C144.804 26.8584 145.563 27.1785 146.124 27.7476C146.684 28.3167 146.999 29.0883 147 29.8931V56.8218C146.999 57.6266 146.684 58.3982 146.124 58.9673C145.563 59.5364 144.804 59.8565 144.011 59.8574Z" fill="#D8DFF3"/>
<path d="M135.384 57.8574H17.9895C17.1969 57.8565 16.4371 57.5353 15.8766 56.9643C15.3162 56.3933 15.0009 55.6191 15 54.8116V31.9032C15.0009 31.0957 15.3162 30.3216 15.8766 29.7506C16.4371 29.1796 17.1969 28.8584 17.9895 28.8574H142.01C142.803 28.8584 143.563 29.1796 144.123 29.7506C144.684 30.3216 144.999 31.0957 145 31.9032V48.0604C144.997 50.6578 143.983 53.148 142.18 54.9847C140.378 56.8214 137.934 57.8545 135.384 57.8574Z" fill="white"/>
<path d="M32.8841 49.6705C32.1649 49.3006 31.4141 48.9923 30.6403 48.749L30.5417 47.6837L26.54 47.2629L26.0315 48.6245L24.5954 49.1505C24.544 49.1695 24.495 49.1944 24.4496 49.2246H24.4481C24.3679 49.2774 24.2997 49.3457 24.2475 49.4252C24.1953 49.5047 24.1602 49.5937 24.1444 49.6868C24.1291 49.7795 24.1327 49.8741 24.1551 49.9654L24.231 50.2691C24.3403 50.3328 24.4527 50.3936 24.565 50.4513L24.6363 50.4869C24.8003 50.5699 24.9673 50.6484 25.1388 50.721C25.1738 50.7358 25.2117 50.7506 25.2466 50.7654C25.2497 50.7669 25.2511 50.7669 25.2542 50.7684C25.3347 50.801 25.4151 50.8321 25.4971 50.8617C25.7664 50.9621 26.041 51.0482 26.3199 51.1195C27.0315 51.3046 27.7649 51.3983 28.5014 51.3981C28.7701 51.3981 29.0357 51.3862 29.2984 51.361C29.8985 51.307 30.4909 51.1902 31.0654 51.0129C31.0669 51.0129 31.0685 51.0114 31.07 51.0114C31.4329 50.8985 31.7875 50.7614 32.1311 50.601C32.1326 50.5995 32.1357 50.5995 32.1372 50.598C32.2146 50.5625 32.289 50.5239 32.3649 50.4869L32.4013 50.4691C32.462 50.438 32.5228 50.4069 32.5835 50.3743C32.7353 50.2928 32.8841 50.2069 33.0313 50.115C33.0723 50.0913 33.1118 50.0661 33.1528 50.0395C33.2105 50.0024 33.2681 49.9639 33.3243 49.9239C33.1831 49.835 33.0359 49.7505 32.8841 49.6705Z" fill="#2F4B9D"/>
<path d="M25.4038 50.3386L25.1803 49.1006H24.5966C24.5907 49.1007 24.5849 49.1012 24.579 49.1022H24.5776C24.3679 49.124 24.1658 49.2097 23.9899 49.3515C23.8705 49.445 23.7644 49.5617 23.6757 49.6971C23.849 49.8583 24.0292 50.0079 24.2147 50.1508L24.2229 50.1558C24.2756 50.1956 24.3298 50.2355 24.384 50.2737C24.4815 50.3452 24.5817 50.4133 24.6819 50.4781L24.7456 50.518C24.8919 50.6111 25.0409 50.6991 25.1939 50.7806C25.2251 50.7972 25.2589 50.8138 25.2901 50.8304C25.2928 50.8321 25.2941 50.8321 25.2968 50.8337C25.3686 50.8703 25.4404 50.9052 25.5135 50.9384L25.4038 50.3386Z" fill="#2F4B9D"/>
<path d="M28.5 46.8034C30.9106 46.8034 32.8649 44.7464 32.8649 42.2089C32.8649 39.6713 30.9106 37.6143 28.5 37.6143C26.0893 37.6143 24.1351 39.6713 24.1351 42.2089C24.1351 44.7464 26.0893 46.8034 28.5 46.8034Z" fill="#2F4B9D"/>
<path d="M36.527 40.5633C36.1206 39.3957 35.4644 38.3308 34.6042 37.4429C33.744 36.555 32.7005 35.8654 31.5464 35.4223C30.3923 34.9791 29.1555 34.7931 27.9221 34.8771C26.6888 34.9611 25.4886 35.3131 24.4052 35.9087C23.3219 36.5042 22.3815 37.3289 21.6496 38.3253C20.9178 39.3217 20.412 40.4657 20.1677 41.6776C19.9233 42.8895 19.9463 44.1401 20.2349 45.3423C20.5235 46.5444 21.0709 47.6691 21.8388 48.6379C21.9151 48.7341 21.9944 48.8302 22.0754 48.9233C22.0815 48.9294 22.086 48.9355 22.0921 48.9416C22.291 49.1707 22.5024 49.3888 22.7253 49.5946C22.7833 49.648 22.8443 49.703 22.9053 49.7548C23.0213 49.8586 23.1403 49.9578 23.2639 50.0524C23.3127 50.0905 23.36 50.1287 23.4104 50.1653C23.6056 50.3133 23.8086 50.4506 24.0176 50.5818L24.0268 50.5864C24.0862 50.623 24.1473 50.6596 24.2083 50.6947C24.3181 50.7604 24.4311 50.8229 24.5439 50.8824L24.6157 50.919C24.7805 51.0045 24.9483 51.0854 25.1207 51.1601C25.1558 51.1754 25.1939 51.1906 25.229 51.2059C25.2321 51.2074 25.2336 51.2074 25.2366 51.2089C25.3175 51.2425 25.3984 51.2746 25.4808 51.3051C25.7514 51.4084 26.0275 51.4971 26.3077 51.5706C27.0229 51.7612 27.76 51.8576 28.5002 51.8574C28.7702 51.8574 29.0372 51.8452 29.3012 51.8193C29.9043 51.7636 30.4997 51.6434 31.0772 51.4607C31.0786 51.4607 31.0802 51.4592 31.0817 51.4592C31.4465 51.343 31.8028 51.2017 32.1482 51.0365C32.1497 51.035 32.1528 51.035 32.1543 51.0335C32.2321 50.9969 32.3069 50.9572 32.3832 50.919L32.4198 50.9007C32.4808 50.8687 32.5419 50.8366 32.6029 50.8031C32.7554 50.7192 32.905 50.6307 33.0529 50.5361C33.0941 50.5116 33.1338 50.4857 33.175 50.4582C33.233 50.4201 33.2909 50.3804 33.3474 50.3392C33.4221 50.2873 33.4969 50.2339 33.5702 50.179C33.593 50.1622 33.6175 50.1454 33.6403 50.1271C35.0698 49.0421 36.1189 47.5323 36.6375 45.8143C37.1561 44.0962 37.1174 42.258 36.527 40.5633ZM33.3596 49.7564C33.3093 49.796 33.2574 49.8342 33.2055 49.8693C33.1551 49.9074 33.1048 49.944 33.0529 49.9776C33.0087 50.0096 32.9644 50.0402 32.9187 50.0692L32.905 50.0783C32.8714 50.1012 32.8378 50.1226 32.8042 50.1439C32.6776 50.2233 32.5494 50.2995 32.4198 50.3728C32.406 50.3804 32.3923 50.3881 32.3786 50.3957C32.3206 50.4277 32.2626 50.4582 32.2047 50.4888C32.197 50.4933 32.1878 50.4964 32.1802 50.501L32.1711 50.5055C32.0978 50.5437 32.023 50.5803 31.9483 50.6154C31.6598 50.7543 31.3627 50.8746 31.0588 50.9755C31.0191 50.9892 30.9795 51.003 30.9398 51.0152C30.3933 51.189 29.8296 51.3036 29.2585 51.357C29.0082 51.3798 28.7549 51.392 28.5002 51.392C27.8001 51.3935 27.1028 51.3022 26.4267 51.1205C26.0797 51.0299 25.7397 50.9146 25.4091 50.7756C25.3922 50.768 25.3739 50.7619 25.3572 50.7543C25.3389 50.7466 25.3221 50.7405 25.3053 50.7329C25.287 50.7253 25.2702 50.7176 25.2519 50.7085C25.1085 50.6459 24.9666 50.5773 24.8278 50.5055L24.7606 50.4705C24.5912 50.382 24.425 50.2874 24.2632 50.1866C24.2159 50.1577 24.1671 50.1271 24.1213 50.0951C24.1092 50.0875 24.0984 50.0798 24.0862 50.0722C23.9779 50.0005 23.8696 49.9257 23.7643 49.8479C23.6926 49.7945 23.6209 49.7411 23.5507 49.6862C23.4332 49.5977 23.3203 49.5031 23.2105 49.4054C23.1525 49.3566 23.096 49.3032 23.0411 49.2528C22.8248 49.0531 22.62 48.8412 22.4278 48.6181C22.3637 48.5449 22.3012 48.4716 22.2416 48.3953C22.2281 48.3802 22.2154 48.3644 22.2035 48.348C21.2122 47.097 20.6159 45.5791 20.4907 43.9878C20.3656 42.3966 20.7172 40.804 21.5007 39.4134C22.2842 38.0228 23.4641 36.897 24.89 36.1798C26.3158 35.4625 27.923 35.1862 29.5065 35.3861C31.09 35.586 32.5781 36.253 33.781 37.3022C34.984 38.3513 35.8471 39.735 36.2605 41.2767C36.6739 42.8184 36.6187 44.4483 36.1021 45.9586C35.5854 47.4688 34.6307 48.791 33.3596 49.7564Z" fill="#2F4B9D"/>
<path d="M80.2144 39.8574H43.7856C43.5772 39.8574 43.3774 39.7521 43.2301 39.5645C43.0828 39.377 43 39.1226 43 38.8574C43 38.5922 43.0828 38.3378 43.2301 38.1503C43.3774 37.9628 43.5772 37.8574 43.7856 37.8574H80.2144C80.4228 37.8574 80.6226 37.9628 80.7699 38.1503C80.9172 38.3378 81 38.5922 81 38.8574C81 39.1226 80.9172 39.377 80.7699 39.5645C80.6226 39.7521 80.4228 39.8574 80.2144 39.8574Z" fill="#3C5EC4"/>
<path d="M128.221 44.8574H43.7794C43.5727 44.8574 43.3745 44.8047 43.2283 44.711C43.0821 44.6172 43 44.49 43 44.3574C43 44.2248 43.0821 44.0976 43.2283 44.0039C43.3745 43.9101 43.5727 43.8574 43.7794 43.8574H128.221C128.427 43.8574 128.626 43.9101 128.772 44.0039C128.918 44.0976 129 44.2248 129 44.3574C129 44.49 128.918 44.6172 128.772 44.711C128.626 44.8047 128.427 44.8574 128.221 44.8574Z" fill="#D8DFF3"/>
<path d="M98.2206 49.8574H43.7794C43.5727 49.8574 43.3745 49.8047 43.2283 49.711C43.0821 49.6172 43 49.49 43 49.3574C43 49.2248 43.0821 49.0976 43.2283 49.0039C43.3745 48.9101 43.5727 48.8574 43.7794 48.8574H98.2206C98.4273 48.8574 98.6255 48.9101 98.7717 49.0039C98.9179 49.0976 99 49.2248 99 49.3574C99 49.49 98.9179 49.6172 98.7717 49.711C98.6255 49.8047 98.4273 49.8574 98.2206 49.8574Z" fill="#D8DFF3"/>
<path d="M144.011 97.8574H15.9888C15.1964 97.8565 14.4367 97.5364 13.8764 96.9673C13.3161 96.3982 13.0009 95.6266 13 94.8218V67.8931C13.0009 67.0883 13.3161 66.3167 13.8764 65.7476C14.4367 65.1785 15.1964 64.8584 15.9888 64.8574H144.011C144.804 64.8584 145.563 65.1785 146.124 65.7476C146.684 66.3167 146.999 67.0883 147 67.8931V94.8218C146.999 95.6266 146.684 96.3982 146.124 96.9673C145.563 97.5364 144.804 97.8565 144.011 97.8574Z" fill="#D8DFF3"/>
<path d="M135.384 95.8574H17.9895C17.1969 95.8565 16.4371 95.5353 15.8766 94.9643C15.3162 94.3933 15.0009 93.6191 15 92.8116V69.9032C15.0009 69.0957 15.3162 68.3216 15.8766 67.7506C16.4371 67.1796 17.1969 66.8584 17.9895 66.8574H142.01C142.803 66.8584 143.563 67.1796 144.123 67.7506C144.684 68.3216 144.999 69.0957 145 69.9032V86.0604C144.997 88.6578 143.983 91.148 142.18 92.9847C140.378 94.8214 137.934 95.8545 135.384 95.8574Z" fill="white"/>
<path d="M32.8841 87.6705C32.1649 87.3006 31.4141 86.9923 30.6403 86.749L30.5417 85.6837L26.54 85.2629L26.0315 86.6245L24.5954 87.1505C24.544 87.1695 24.495 87.1944 24.4496 87.2246H24.4481C24.3679 87.2774 24.2997 87.3457 24.2475 87.4252C24.1953 87.5047 24.1602 87.5937 24.1444 87.6868C24.1291 87.7795 24.1327 87.8741 24.1551 87.9654L24.231 88.2691C24.3403 88.3328 24.4527 88.3936 24.565 88.4513L24.6363 88.4869C24.8003 88.5699 24.9673 88.6484 25.1388 88.721C25.1738 88.7358 25.2117 88.7506 25.2466 88.7654C25.2497 88.7669 25.2511 88.7669 25.2542 88.7684C25.3347 88.801 25.4151 88.8321 25.4971 88.8617C25.7664 88.9621 26.041 89.0482 26.3199 89.1195C27.0315 89.3046 27.7649 89.3983 28.5014 89.3981C28.7701 89.3981 29.0357 89.3862 29.2984 89.361C29.8985 89.307 30.4909 89.1902 31.0654 89.0129C31.0669 89.0129 31.0685 89.0114 31.07 89.0114C31.4329 88.8985 31.7875 88.7614 32.1311 88.601C32.1326 88.5995 32.1357 88.5995 32.1372 88.598C32.2146 88.5625 32.289 88.5239 32.3649 88.4869L32.4013 88.4691C32.462 88.438 32.5228 88.4069 32.5835 88.3743C32.7353 88.2928 32.8841 88.2069 33.0313 88.115C33.0723 88.0913 33.1118 88.0661 33.1528 88.0395C33.2105 88.0024 33.2681 87.9639 33.3243 87.9239C33.1831 87.835 33.0359 87.7505 32.8841 87.6705Z" fill="#2F4B9D"/>
<path d="M25.4038 88.3386L25.1803 87.1006H24.5966C24.5907 87.1007 24.5849 87.1012 24.579 87.1022H24.5776C24.3679 87.124 24.1658 87.2097 23.9899 87.3515C23.8705 87.445 23.7644 87.5617 23.6757 87.6971C23.849 87.8583 24.0292 88.0079 24.2147 88.1508L24.2229 88.1558C24.2756 88.1956 24.3298 88.2355 24.384 88.2737C24.4815 88.3452 24.5817 88.4133 24.6819 88.4781L24.7456 88.518C24.8919 88.6111 25.0409 88.6991 25.1939 88.7806C25.2251 88.7972 25.2589 88.8138 25.2901 88.8304C25.2928 88.8321 25.2941 88.8321 25.2968 88.8337C25.3686 88.8703 25.4404 88.9052 25.5135 88.9384L25.4038 88.3386Z" fill="#2F4B9D"/>
<path d="M28.5 84.8034C30.9106 84.8034 32.8649 82.7464 32.8649 80.2089C32.8649 77.6713 30.9106 75.6143 28.5 75.6143C26.0893 75.6143 24.1351 77.6713 24.1351 80.2089C24.1351 82.7464 26.0893 84.8034 28.5 84.8034Z" fill="#2F4B9D"/>
<path d="M36.527 78.5633C36.1206 77.3957 35.4644 76.3308 34.6042 75.4429C33.744 74.555 32.7005 73.8654 31.5464 73.4223C30.3923 72.9791 29.1555 72.7931 27.9221 72.8771C26.6888 72.9611 25.4886 73.3131 24.4052 73.9087C23.3219 74.5042 22.3815 75.3289 21.6496 76.3253C20.9178 77.3217 20.412 78.4657 20.1677 79.6776C19.9233 80.8895 19.9463 82.1401 20.2349 83.3423C20.5235 84.5444 21.0709 85.6691 21.8388 86.6379C21.9151 86.7341 21.9944 86.8302 22.0754 86.9233C22.0815 86.9294 22.086 86.9355 22.0921 86.9416C22.291 87.1707 22.5024 87.3888 22.7253 87.5946C22.7833 87.648 22.8443 87.703 22.9053 87.7548C23.0213 87.8586 23.1403 87.9578 23.2639 88.0524C23.3127 88.0905 23.36 88.1287 23.4104 88.1653C23.6056 88.3133 23.8086 88.4506 24.0176 88.5818L24.0268 88.5864C24.0862 88.623 24.1473 88.6596 24.2083 88.6947C24.3181 88.7604 24.4311 88.8229 24.5439 88.8824L24.6157 88.919C24.7805 89.0045 24.9483 89.0854 25.1207 89.1601C25.1558 89.1754 25.1939 89.1906 25.229 89.2059C25.2321 89.2074 25.2336 89.2074 25.2366 89.2089C25.3175 89.2425 25.3984 89.2746 25.4808 89.3051C25.7514 89.4084 26.0275 89.4971 26.3077 89.5706C27.0229 89.7612 27.76 89.8576 28.5002 89.8574C28.7702 89.8574 29.0372 89.8452 29.3012 89.8193C29.9043 89.7636 30.4997 89.6434 31.0772 89.4607C31.0786 89.4607 31.0802 89.4592 31.0817 89.4592C31.4465 89.343 31.8028 89.2017 32.1482 89.0365C32.1497 89.035 32.1528 89.035 32.1543 89.0335C32.2321 88.9969 32.3069 88.9572 32.3832 88.919L32.4198 88.9007C32.4808 88.8687 32.5419 88.8366 32.6029 88.8031C32.7554 88.7192 32.905 88.6307 33.0529 88.5361C33.0941 88.5116 33.1338 88.4857 33.175 88.4582C33.233 88.4201 33.2909 88.3804 33.3474 88.3392C33.4221 88.2873 33.4969 88.2339 33.5702 88.179C33.593 88.1622 33.6175 88.1454 33.6403 88.1271C35.0698 87.0421 36.1189 85.5323 36.6375 83.8143C37.1561 82.0962 37.1174 80.258 36.527 78.5633ZM33.3596 87.7564C33.3093 87.796 33.2574 87.8342 33.2055 87.8693C33.1551 87.9074 33.1048 87.944 33.0529 87.9776C33.0087 88.0096 32.9644 88.0402 32.9187 88.0692L32.905 88.0783C32.8714 88.1012 32.8378 88.1226 32.8042 88.1439C32.6776 88.2233 32.5494 88.2995 32.4198 88.3728C32.406 88.3804 32.3923 88.3881 32.3786 88.3957C32.3206 88.4277 32.2626 88.4582 32.2047 88.4888C32.197 88.4933 32.1878 88.4964 32.1802 88.501L32.1711 88.5055C32.0978 88.5437 32.023 88.5803 31.9483 88.6154C31.6598 88.7543 31.3627 88.8746 31.0588 88.9755C31.0191 88.9892 30.9795 89.003 30.9398 89.0152C30.3933 89.189 29.8296 89.3036 29.2585 89.357C29.0082 89.3798 28.7549 89.392 28.5002 89.392C27.8001 89.3935 27.1028 89.3022 26.4267 89.1205C26.0797 89.0299 25.7397 88.9146 25.4091 88.7756C25.3922 88.768 25.3739 88.7619 25.3572 88.7543C25.3389 88.7466 25.3221 88.7405 25.3053 88.7329C25.287 88.7253 25.2702 88.7176 25.2519 88.7085C25.1085 88.6459 24.9666 88.5773 24.8278 88.5055L24.7606 88.4705C24.5912 88.382 24.425 88.2874 24.2632 88.1866C24.2159 88.1577 24.1671 88.1271 24.1213 88.0951C24.1092 88.0875 24.0984 88.0798 24.0862 88.0722C23.9779 88.0005 23.8696 87.9257 23.7643 87.8479C23.6926 87.7945 23.6209 87.7411 23.5507 87.6862C23.4332 87.5977 23.3203 87.5031 23.2105 87.4054C23.1525 87.3566 23.096 87.3032 23.0411 87.2528C22.8248 87.0531 22.62 86.8412 22.4278 86.6181C22.3637 86.5449 22.3012 86.4716 22.2416 86.3953C22.2281 86.3802 22.2154 86.3644 22.2035 86.348C21.2122 85.097 20.6159 83.5791 20.4907 81.9878C20.3656 80.3966 20.7172 78.804 21.5007 77.4134C22.2842 76.0228 23.4641 74.897 24.89 74.1798C26.3158 73.4625 27.923 73.1862 29.5065 73.3861C31.09 73.586 32.5781 74.253 33.781 75.3022C34.984 76.3513 35.8471 77.735 36.2605 79.2767C36.6739 80.8184 36.6187 82.4483 36.1021 83.9586C35.5854 85.4688 34.6307 86.791 33.3596 87.7564Z" fill="#2F4B9D"/>
<path d="M80.2144 77.8574H43.7856C43.5772 77.8574 43.3774 77.7521 43.2301 77.5645C43.0828 77.377 43 77.1226 43 76.8574C43 76.5922 43.0828 76.3378 43.2301 76.1503C43.3774 75.9628 43.5772 75.8574 43.7856 75.8574H80.2144C80.4228 75.8574 80.6226 75.9628 80.7699 76.1503C80.9172 76.3378 81 76.5922 81 76.8574C81 77.1226 80.9172 77.377 80.7699 77.5645C80.6226 77.7521 80.4228 77.8574 80.2144 77.8574Z" fill="#3C5EC4"/>
<path d="M128.221 82.8574H43.7794C43.5727 82.8574 43.3745 82.8047 43.2283 82.711C43.0821 82.6172 43 82.49 43 82.3574C43 82.2248 43.0821 82.0976 43.2283 82.0039C43.3745 81.9101 43.5727 81.8574 43.7794 81.8574H128.221C128.427 81.8574 128.626 81.9101 128.772 82.0039C128.918 82.0976 129 82.2248 129 82.3574C129 82.49 128.918 82.6172 128.772 82.711C128.626 82.8047 128.427 82.8574 128.221 82.8574Z" fill="#D8DFF3"/>
<path d="M98.2206 87.8574H43.7794C43.5727 87.8574 43.3745 87.8047 43.2283 87.711C43.0821 87.6172 43 87.49 43 87.3574C43 87.2248 43.0821 87.0976 43.2283 87.0039C43.3745 86.9101 43.5727 86.8574 43.7794 86.8574H98.2206C98.4273 86.8574 98.6255 86.9101 98.7717 87.0039C98.9179 87.0976 99 87.2248 99 87.3574C99 87.49 98.9179 87.6172 98.7717 87.711C98.6255 87.8047 98.4273 87.8574 98.2206 87.8574Z" fill="#D8DFF3"/>
<path d="M144.011 135.857H15.9888C15.1964 135.856 14.4367 135.536 13.8764 134.967C13.3161 134.398 13.0009 133.627 13 132.822V105.893C13.0009 105.088 13.3161 104.317 13.8764 103.748C14.4367 103.178 15.1964 102.858 15.9888 102.857H144.011C144.804 102.858 145.563 103.178 146.124 103.748C146.684 104.317 146.999 105.088 147 105.893V132.822C146.999 133.627 146.684 134.398 146.124 134.967C145.563 135.536 144.804 135.856 144.011 135.857Z" fill="#D8DFF3"/>
<path d="M135.384 133.857H17.9895C17.1969 133.856 16.4371 133.535 15.8766 132.964C15.3162 132.393 15.0009 131.619 15 130.812V107.903C15.0009 107.096 15.3162 106.322 15.8766 105.751C16.4371 105.18 17.1969 104.858 17.9895 104.857H142.01C142.803 104.858 143.563 105.18 144.123 105.751C144.684 106.322 144.999 107.096 145 107.903V124.06C144.997 126.658 143.983 129.148 142.18 130.985C140.378 132.821 137.934 133.854 135.384 133.857Z" fill="white"/>
<path d="M32.8841 125.671C32.1649 125.301 31.4141 124.992 30.6403 124.749L30.5417 123.684L26.54 123.263L26.0315 124.625L24.5954 125.15C24.544 125.17 24.495 125.194 24.4496 125.225H24.4481C24.3679 125.277 24.2997 125.346 24.2475 125.425C24.1953 125.505 24.1602 125.594 24.1444 125.687C24.1291 125.779 24.1327 125.874 24.1551 125.965L24.231 126.269C24.3403 126.333 24.4527 126.394 24.565 126.451L24.6363 126.487C24.8003 126.57 24.9673 126.648 25.1388 126.721C25.1738 126.736 25.2117 126.751 25.2466 126.765C25.2497 126.767 25.2511 126.767 25.2542 126.768C25.3347 126.801 25.4151 126.832 25.4971 126.862C25.7664 126.962 26.041 127.048 26.3199 127.12C27.0315 127.305 27.7649 127.398 28.5014 127.398C28.7701 127.398 29.0357 127.386 29.2984 127.361C29.8985 127.307 30.4909 127.19 31.0654 127.013C31.0669 127.013 31.0685 127.011 31.07 127.011C31.4329 126.899 31.7875 126.761 32.1311 126.601C32.1326 126.599 32.1357 126.599 32.1372 126.598C32.2146 126.562 32.289 126.524 32.3649 126.487L32.4013 126.469C32.462 126.438 32.5228 126.407 32.5835 126.374C32.7353 126.293 32.8841 126.207 33.0313 126.115C33.0723 126.091 33.1118 126.066 33.1528 126.039C33.2105 126.002 33.2681 125.964 33.3243 125.924C33.1831 125.835 33.0359 125.751 32.8841 125.671Z" fill="#2F4B9D"/>
<path d="M25.4038 126.339L25.1803 125.101H24.5966C24.5907 125.101 24.5849 125.101 24.579 125.102H24.5776C24.3679 125.124 24.1658 125.21 23.9899 125.352C23.8705 125.445 23.7644 125.562 23.6757 125.697C23.849 125.858 24.0292 126.008 24.2147 126.151L24.2229 126.156C24.2756 126.196 24.3298 126.236 24.384 126.274C24.4815 126.345 24.5817 126.413 24.6819 126.478L24.7456 126.518C24.8919 126.611 25.0409 126.699 25.1939 126.781C25.2251 126.797 25.2589 126.814 25.2901 126.83C25.2928 126.832 25.2941 126.832 25.2968 126.834C25.3686 126.87 25.4404 126.905 25.5135 126.938L25.4038 126.339Z" fill="#2F4B9D"/>
<path d="M28.5 122.803C30.9106 122.803 32.8649 120.746 32.8649 118.209C32.8649 115.671 30.9106 113.614 28.5 113.614C26.0893 113.614 24.1351 115.671 24.1351 118.209C24.1351 120.746 26.0893 122.803 28.5 122.803Z" fill="#2F4B9D"/>
<path d="M36.527 116.563C36.1206 115.396 35.4644 114.331 34.6042 113.443C33.744 112.555 32.7005 111.865 31.5464 111.422C30.3923 110.979 29.1555 110.793 27.9221 110.877C26.6888 110.961 25.4886 111.313 24.4052 111.909C23.3219 112.504 22.3815 113.329 21.6496 114.325C20.9178 115.322 20.412 116.466 20.1677 117.678C19.9233 118.89 19.9463 120.14 20.2349 121.342C20.5235 122.544 21.0709 123.669 21.8388 124.638C21.9151 124.734 21.9944 124.83 22.0754 124.923C22.0815 124.929 22.086 124.935 22.0921 124.942C22.291 125.171 22.5024 125.389 22.7253 125.595C22.7833 125.648 22.8443 125.703 22.9053 125.755C23.0213 125.859 23.1403 125.958 23.2639 126.052C23.3127 126.091 23.36 126.129 23.4104 126.165C23.6056 126.313 23.8086 126.451 24.0176 126.582L24.0268 126.586C24.0862 126.623 24.1473 126.66 24.2083 126.695C24.3181 126.76 24.4311 126.823 24.5439 126.882L24.6157 126.919C24.7805 127.004 24.9483 127.085 25.1207 127.16C25.1558 127.175 25.1939 127.191 25.229 127.206C25.2321 127.207 25.2336 127.207 25.2366 127.209C25.3175 127.243 25.3984 127.275 25.4808 127.305C25.7514 127.408 26.0275 127.497 26.3077 127.571C27.0229 127.761 27.76 127.858 28.5002 127.857C28.7702 127.857 29.0372 127.845 29.3012 127.819C29.9043 127.764 30.4997 127.643 31.0772 127.461C31.0786 127.461 31.0802 127.459 31.0817 127.459C31.4465 127.343 31.8028 127.202 32.1482 127.037C32.1497 127.035 32.1528 127.035 32.1543 127.033C32.2321 126.997 32.3069 126.957 32.3832 126.919L32.4198 126.901C32.4808 126.869 32.5419 126.837 32.6029 126.803C32.7554 126.719 32.905 126.631 33.0529 126.536C33.0941 126.512 33.1338 126.486 33.175 126.458C33.233 126.42 33.2909 126.38 33.3474 126.339C33.4221 126.287 33.4969 126.234 33.5702 126.179C33.593 126.162 33.6175 126.145 33.6403 126.127C35.0698 125.042 36.1189 123.532 36.6375 121.814C37.1561 120.096 37.1174 118.258 36.527 116.563ZM33.3596 125.756C33.3093 125.796 33.2574 125.834 33.2055 125.869C33.1551 125.907 33.1048 125.944 33.0529 125.978C33.0087 126.01 32.9644 126.04 32.9187 126.069L32.905 126.078C32.8714 126.101 32.8378 126.123 32.8042 126.144C32.6776 126.223 32.5494 126.3 32.4198 126.373C32.406 126.38 32.3923 126.388 32.3786 126.396C32.3206 126.428 32.2626 126.458 32.2047 126.489C32.197 126.493 32.1878 126.496 32.1802 126.501L32.1711 126.506C32.0978 126.544 32.023 126.58 31.9483 126.615C31.6598 126.754 31.3627 126.875 31.0588 126.976C31.0191 126.989 30.9795 127.003 30.9398 127.015C30.3933 127.189 29.8296 127.304 29.2585 127.357C29.0082 127.38 28.7549 127.392 28.5002 127.392C27.8001 127.393 27.1028 127.302 26.4267 127.12C26.0797 127.03 25.7397 126.915 25.4091 126.776C25.3922 126.768 25.3739 126.762 25.3572 126.754C25.3389 126.747 25.3221 126.741 25.3053 126.733C25.287 126.725 25.2702 126.718 25.2519 126.708C25.1085 126.646 24.9666 126.577 24.8278 126.506L24.7606 126.47C24.5912 126.382 24.425 126.287 24.2632 126.187C24.2159 126.158 24.1671 126.127 24.1213 126.095C24.1092 126.087 24.0984 126.08 24.0862 126.072C23.9779 126 23.8696 125.926 23.7643 125.848C23.6926 125.795 23.6209 125.741 23.5507 125.686C23.4332 125.598 23.3203 125.503 23.2105 125.405C23.1525 125.357 23.096 125.303 23.0411 125.253C22.8248 125.053 22.62 124.841 22.4278 124.618C22.3637 124.545 22.3012 124.472 22.2416 124.395C22.2281 124.38 22.2154 124.364 22.2035 124.348C21.2122 123.097 20.6159 121.579 20.4907 119.988C20.3656 118.397 20.7172 116.804 21.5007 115.413C22.2842 114.023 23.4641 112.897 24.89 112.18C26.3158 111.462 27.923 111.186 29.5065 111.386C31.09 111.586 32.5781 112.253 33.781 113.302C34.984 114.351 35.8471 115.735 36.2605 117.277C36.6739 118.818 36.6187 120.448 36.1021 121.959C35.5854 123.469 34.6307 124.791 33.3596 125.756Z" fill="#2F4B9D"/>
<path d="M80.2144 115.857H43.7856C43.5772 115.857 43.3774 115.752 43.2301 115.565C43.0828 115.377 43 115.123 43 114.857C43 114.592 43.0828 114.338 43.2301 114.15C43.3774 113.963 43.5772 113.857 43.7856 113.857H80.2144C80.4228 113.857 80.6226 113.963 80.7699 114.15C80.9172 114.338 81 114.592 81 114.857C81 115.123 80.9172 115.377 80.7699 115.565C80.6226 115.752 80.4228 115.857 80.2144 115.857Z" fill="#3C5EC4"/>
<path d="M128.221 120.857H43.7794C43.5727 120.857 43.3745 120.805 43.2283 120.711C43.0821 120.617 43 120.49 43 120.357C43 120.225 43.0821 120.098 43.2283 120.004C43.3745 119.91 43.5727 119.857 43.7794 119.857H128.221C128.427 119.857 128.626 119.91 128.772 120.004C128.918 120.098 129 120.225 129 120.357C129 120.49 128.918 120.617 128.772 120.711C128.626 120.805 128.427 120.857 128.221 120.857Z" fill="#D8DFF3"/>
<path d="M98.2206 125.857H43.7794C43.5727 125.857 43.3745 125.805 43.2283 125.711C43.0821 125.617 43 125.49 43 125.357C43 125.225 43.0821 125.098 43.2283 125.004C43.3745 124.91 43.5727 124.857 43.7794 124.857H98.2206C98.4273 124.857 98.6255 124.91 98.7717 125.004C98.9179 125.098 99 125.225 99 125.357C99 125.49 98.9179 125.617 98.7717 125.711C98.6255 125.805 98.4273 125.857 98.2206 125.857Z" fill="#D8DFF3"/>
</svg>
