<svg width="160" height="100" viewBox="0 0 160 100" fill="none" xmlns="http://www.w3.org/2000/svg">
<ellipse cx="80.131" cy="51.1678" rx="45.532" ry="79.3558" transform="rotate(79.8625 80.131 51.1678)" fill="#F5F7FC"/>
<path d="M143.011 46H14.9888C14.1964 45.9991 13.4367 45.6789 12.8764 45.1098C12.3161 44.5408 12.0009 43.7692 12 42.9643V16.0357C12.0009 15.2308 12.3161 14.4592 12.8764 13.8902C13.4367 13.3211 14.1964 13.0009 14.9888 13H143.011C143.804 13.0009 144.563 13.3211 145.124 13.8902C145.684 14.4592 145.999 15.2308 146 16.0357V42.9643C145.999 43.7692 145.684 44.5407 145.124 45.1098C144.563 45.6789 143.804 45.9991 143.011 46Z" fill="#D8DFF3"/>
<path d="M133.458 44H16.9665C16.18 43.9991 15.426 43.6779 14.8699 43.1069C14.3137 42.5359 14.0009 41.7617 14 40.9542V18.0458C14.0009 17.2383 14.3137 16.4641 14.8699 15.8931C15.426 15.3221 16.18 15.0009 16.9665 15H140.033C140.82 15.0009 141.574 15.3221 142.13 15.8931C142.686 16.4641 142.999 17.2383 143 18.0458V34.203C142.997 36.8004 141.991 39.2906 140.202 41.1273C138.413 42.964 135.988 43.9971 133.458 44Z" fill="white"/>
<path d="M20.5819 23C20.4278 22.9999 20.28 23.0524 20.1709 23.146C20.0618 23.2395 20.0003 23.3665 20 23.4989C19.9997 23.6314 20.0605 23.7586 20.1692 23.8526C20.2778 23.9465 20.4253 23.9995 20.5794 24H47.4185C47.5728 24 47.7206 23.9473 47.8297 23.8536C47.9387 23.7598 48 23.6326 48 23.5C48 23.3674 47.9387 23.2402 47.8297 23.1464C47.7206 23.0527 47.5728 23 47.4185 23H20.5819Z" fill="#3C5EC4"/>
<path d="M20.5859 29C20.4307 28.9999 20.2819 29.0524 20.1721 29.146C20.0622 29.2395 20.0003 29.3665 20 29.4989C19.9997 29.6314 20.0609 29.7586 20.1703 29.8526C20.2797 29.9465 20.4283 29.9995 20.5834 30H104.415C104.57 30 104.719 29.9473 104.829 29.8536C104.938 29.7598 105 29.6326 105 29.5C105 29.3674 104.938 29.2402 104.829 29.1464C104.719 29.0527 104.57 29 104.415 29H20.5859Z" fill="#D8DFF3"/>
<path d="M20.5859 35C20.4307 34.9999 20.2819 35.0524 20.1721 35.146C20.0622 35.2395 20.0003 35.3665 20 35.4989C19.9997 35.6314 20.0609 35.7586 20.1703 35.8526C20.2797 35.9465 20.4283 35.9995 20.5834 36H104.415C104.57 36 104.719 35.9473 104.829 35.8536C104.938 35.7598 105 35.6326 105 35.5C105 35.3674 104.938 35.2402 104.829 35.1464C104.719 35.0527 104.57 35 104.415 35H20.5859Z" fill="#D8DFF3"/>
<path d="M143.5 20C146.538 20 149 17.5376 149 14.5C149 11.4624 146.538 9 143.5 9C140.462 9 138 11.4624 138 14.5C138 17.5376 140.462 20 143.5 20Z" fill="#3C5EC4"/>
<path d="M143.35 17C143.194 17.0003 143.042 16.9524 142.918 16.8637L142.91 16.8582L141.284 15.6753C141.209 15.6206 141.145 15.5522 141.098 15.4741C141.05 15.3961 141.019 15.3098 141.006 15.2203C140.994 15.1308 141 15.0399 141.024 14.9526C141.049 14.8654 141.091 14.7836 141.149 14.7119C141.207 14.6402 141.279 14.5801 141.361 14.535C141.443 14.4898 141.534 14.4605 141.628 14.4488C141.723 14.4371 141.818 14.4431 141.91 14.4666C142.002 14.49 142.088 14.5305 142.163 14.5856L143.216 15.3529L145.704 12.2687C145.762 12.1972 145.834 12.1372 145.916 12.0921C145.998 12.047 146.089 12.0177 146.183 12.0059C146.277 11.9941 146.373 12 146.464 12.0233C146.556 12.0466 146.642 12.0869 146.717 12.1417C146.869 12.2526 146.969 12.4165 146.994 12.5969C147.019 12.7773 146.968 12.9598 146.851 13.1044L143.924 16.7321C143.856 16.8157 143.769 16.8834 143.67 16.9298C143.57 16.9763 143.461 17.0003 143.35 17Z" fill="white"/>
<path d="M143.011 88H14.9888C14.1964 87.9991 13.4367 87.6789 12.8764 87.1098C12.3161 86.5408 12.0009 85.7692 12 84.9643V58.0357C12.0009 57.2308 12.3161 56.4592 12.8764 55.8902C13.4367 55.3211 14.1964 55.0009 14.9888 55H143.011C143.804 55.0009 144.563 55.3211 145.124 55.8902C145.684 56.4592 145.999 57.2308 146 58.0357V84.9643C145.999 85.7692 145.684 86.5407 145.124 87.1098C144.563 87.6789 143.804 87.9991 143.011 88Z" fill="#D8DFF3"/>
<path d="M23.5419 86H140.033C140.82 85.9991 141.574 85.6779 142.13 85.1069C142.686 84.5359 142.999 83.7617 143 82.9542V60.0458C142.999 59.2383 142.686 58.4641 142.13 57.8931C141.574 57.3221 140.82 57.0009 140.033 57H16.9665C16.18 57.0009 15.426 57.3221 14.8699 57.8931C14.3138 58.4641 14.0009 59.2383 14 60.0458V76.203C14.0029 78.8004 15.0091 81.2906 16.7979 83.1273C18.5868 84.964 21.0121 85.9971 23.5419 86Z" fill="white"/>
<path d="M51.5819 65C51.4278 64.9999 51.28 65.0524 51.1709 65.146C51.0618 65.2395 51.0003 65.3665 51 65.4989C50.9997 65.6314 51.0605 65.7586 51.1692 65.8526C51.2778 65.9465 51.4253 65.9995 51.5794 66H78.4185C78.5728 66 78.7206 65.9473 78.8297 65.8536C78.9387 65.7598 79 65.6326 79 65.5C79 65.3674 78.9387 65.2402 78.8297 65.1464C78.7206 65.0527 78.5728 65 78.4185 65H51.5819Z" fill="#3C5EC4"/>
<path d="M51.5859 71C51.4307 70.9999 51.2819 71.0524 51.1721 71.146C51.0622 71.2395 51.0003 71.3665 51 71.4989C50.9997 71.6314 51.0609 71.7586 51.1703 71.8526C51.2797 71.9465 51.4283 71.9995 51.5834 72H135.415C135.57 72 135.719 71.9473 135.829 71.8536C135.938 71.7598 136 71.6326 136 71.5C136 71.3674 135.938 71.2402 135.829 71.1464C135.719 71.0527 135.57 71 135.415 71H51.5859Z" fill="#D8DFF3"/>
<path d="M51.5859 77C51.4307 76.9999 51.2819 77.0524 51.1721 77.146C51.0622 77.2395 51.0003 77.3665 51 77.4989C50.9997 77.6314 51.0609 77.7586 51.1703 77.8526C51.2797 77.9465 51.4283 77.9995 51.5834 78H135.415C135.57 78 135.719 77.9473 135.829 77.8536C135.938 77.7598 136 77.6326 136 77.5C136 77.3674 135.938 77.2402 135.829 77.1464C135.719 77.0527 135.57 77 135.415 77H51.5859Z" fill="#D8DFF3"/>
<path d="M14.5 62C17.5376 62 20 59.5376 20 56.5C20 53.4624 17.5376 51 14.5 51C11.4624 51 9 53.4624 9 56.5C9 59.5376 11.4624 62 14.5 62Z" fill="#3C5EC4"/>
<path d="M14.3496 59C14.1939 59.0003 14.0424 58.9524 13.9179 58.8637L13.9102 58.8582L12.2844 57.6753C12.2089 57.6206 12.1454 57.5522 12.0977 57.4741C12.05 57.3961 12.019 57.3098 12.0064 57.2203C11.9938 57.1308 11.9999 57.0399 12.0244 56.9526C12.0488 56.8654 12.0912 56.7836 12.1489 56.7119C12.2067 56.6402 12.2788 56.5801 12.3611 56.535C12.4433 56.4898 12.5342 56.4605 12.6284 56.4488C12.7226 56.4371 12.8183 56.4431 12.91 56.4666C13.0018 56.49 13.0877 56.5305 13.163 56.5856L14.216 57.3529L16.7045 54.2687C16.7622 54.1972 16.8342 54.1372 16.9163 54.0921C16.9984 54.047 17.0891 54.0177 17.1831 54.0059C17.2772 53.9941 17.3727 54 17.4643 54.0233C17.556 54.0466 17.6419 54.0869 17.7172 54.1417C17.869 54.2526 17.9687 54.4165 17.9938 54.5969C18.0188 54.7773 17.9676 54.9598 17.8512 55.1044L14.9242 58.7321C14.8565 58.8157 14.7694 58.8834 14.6698 58.9298C14.5701 58.9763 14.4606 59.0003 14.3496 59Z" fill="white"/>
</svg>
