<svg width="160" height="127" viewBox="0 0 160 127" fill="none" xmlns="http://www.w3.org/2000/svg">
<g clip-path="url(#clip0_4883_7416)">
<ellipse cx="79.7531" cy="63.2361" rx="45.532" ry="79.3558" transform="rotate(56.8816 79.7531 63.2361)" fill="#F5F7FC"/>
<ellipse cx="79.7533" cy="63.2362" rx="45.532" ry="73.9919" transform="rotate(120 79.7533 63.2362)" fill="#F5F7FC"/>
<path d="M120.698 98.7614H31.8094V32.1711H120.698V98.7614Z" fill="white"/>
<path d="M76.226 82.5165C85.5735 82.5165 93.1512 74.9388 93.1512 65.5913C93.1512 56.2437 85.5735 48.666 76.226 48.666C66.8784 48.666 59.3007 56.2437 59.3007 65.5913C59.3007 74.9388 66.8784 82.5165 76.226 82.5165Z" fill="#3C5EC4"/>
<path d="M83.2547 64.1697H77.5001V58.4151C77.5001 58.056 77.3574 57.7116 77.1035 57.4576C76.8495 57.2037 76.5051 57.061 76.146 57.061C75.7869 57.061 75.4424 57.2037 75.1885 57.4576C74.9345 57.7116 74.7919 58.056 74.7919 58.4151V64.1697H69.0373C68.6782 64.1697 68.3338 64.3124 68.0798 64.5663C67.8259 64.8203 67.6832 65.1647 67.6832 65.5238C67.6832 65.8829 67.8259 66.2274 68.0798 66.4813C68.3338 66.7352 68.6782 66.8779 69.0373 66.8779H74.7919V72.6325C74.7919 72.9916 74.9345 73.336 75.1885 73.59C75.4424 73.8439 75.7869 73.9866 76.146 73.9866C76.5051 73.9866 76.8495 73.8439 77.1035 73.59C77.3574 73.336 77.5001 72.9916 77.5001 72.6325V66.8779H83.2547C83.6138 66.8779 83.9582 66.7352 84.2121 66.4813C84.4661 66.2274 84.6088 65.8829 84.6088 65.5238C84.6088 65.1647 84.4661 64.8203 84.2121 64.5663C83.9582 64.3124 83.6138 64.1697 83.2547 64.1697Z" fill="white"/>
<path d="M39.1414 31.8934H5.92593V6.8291H39.1414V31.8934Z" fill="white"/>
<path d="M34.76 13.6555H10.3067V15.2858H34.76V13.6555Z" fill="#E3E4E8"/>
<path d="M34.76 18.5459H10.3067V20.1761H34.76V18.5459Z" fill="#E3E4E8"/>
<path d="M34.76 23.4368H10.3067V25.067H34.76V23.4368Z" fill="#E3E4E8"/>
<path d="M57.9474 46.5553H20.8931V18.5942H57.9474V46.5553Z" fill="white"/>
<path d="M53.0598 26.21H25.7803V28.0286H53.0598V26.21Z" fill="#3C5EC4"/>
<path d="M53.0598 31.665H25.7803V33.4837H53.0598V31.665Z" fill="#3C5EC4"/>
<path d="M53.0598 37.1211H25.7803V38.9397H53.0598V37.1211Z" fill="#3C5EC4"/>
<path d="M154.109 119.754H97.5637V77.085H154.109V119.754Z" fill="white"/>
<path d="M146.651 88.7061H105.022V91.4814H146.651V88.7061Z" fill="#3C5EC4"/>
<path d="M146.651 97.0312H105.022V99.8066H146.651V97.0312Z" fill="#3C5EC4"/>
<path d="M146.651 105.357H105.022V108.133H146.651V105.357Z" fill="#3C5EC4"/>
</g>
<defs>
<clipPath id="clip0_4883_7416">
<rect width="160" height="126.42" fill="white"/>
</clipPath>
</defs>
</svg>
