<svg width="936" height="456" viewBox="0 0 936 456" fill="none" xmlns="http://www.w3.org/2000/svg">
<g clip-path="url(#clip0_3169_2580)">
<path d="M227.728 200.138L234.856 234.94L227.833 892.863L169.865 859.581L169.97 166.752L200.002 177.077L227.728 200.138Z" fill="#E7ECF9"/>
<path d="M104.903 170.318L125.291 256.273L104.955 862.99L47.1452 896.376L47.0928 203.704L72.6697 182.32L104.903 170.318Z" fill="#9AA4BB"/>
<path d="M176.106 170.369L176.159 863.042L103.097 862.989L102.992 170.317L129.932 167.487L176.106 170.369Z" fill="#F9F9F9"/>
<path d="M100.605 278.23L100.71 970.902L42.795 937.673L42.8475 244.792L80.0597 262.611L100.605 278.23Z" fill="#E7ECF9"/>
<path d="M180.398 278.231L180.503 970.904H98.7931L98.6883 278.231L134.276 275.349L180.398 278.231Z" fill="white"/>
<path d="M238.262 244.843L238.315 937.516L180.505 970.902L180.4 278.229L205.977 256.846L238.262 244.843Z" fill="#9AA4BB"/>
<path d="M180.399 278.229L238.209 244.843V197.62L180.452 164.286L98.5845 164.182L40.8269 197.515L40.9317 244.791L98.6894 278.177H180.399V278.229ZM176.049 272.097H103.144L51.5189 242.275L51.4141 200.084L102.987 170.314H176.101L227.727 200.188L227.622 242.327L175.997 272.15L176.049 272.097Z" fill="#BBC4D9"/>
<path d="M118.157 80.417L125.285 115.218L118.262 773.142L60.2944 739.86L60.3993 47.0308L90.4311 57.3559L118.157 80.417Z" fill="#E7ECF9"/>
<path d="M-6.5851 50.5972L13.803 136.552L-6.5327 743.269L-64.3427 776.656L-64.3951 83.9834L-38.8183 62.5994L-6.5851 50.5972Z" fill="#9AA4BB"/>
<path d="M66.5353 50.6488L66.5877 743.321L-6.4741 743.269L-6.57892 50.5963L20.3607 47.7661L66.5353 50.6488Z" fill="#F1F2F7"/>
<path d="M70.8273 158.51L70.9321 851.182H-10.7777L-10.8825 158.51L24.705 155.627L70.8273 158.51Z" fill="#C4CCDD"/>
<path d="M128.691 125.123L128.744 817.795L70.9338 851.181L70.829 158.509L96.4059 137.125L128.691 125.123Z" fill="#9AA4BB"/>
<path d="M70.8281 158.509L128.638 125.123V77.9001L70.8805 44.5662L-10.9865 44.4614L-68.7441 77.7952L-68.6393 125.071L-10.8817 158.457H70.8281V158.509ZM66.4779 152.377H-6.42669L-58.0522 122.555L-58.157 80.3634L-6.58392 50.5936H66.5303L118.156 80.4682L118.051 122.607L66.4255 152.429L66.4779 152.377Z" fill="#BBC4D9"/>
<path d="M642.572 440.241L632.92 454.346L698.735 420.207L761.451 387.677C762.065 387.364 762.551 386.898 762.908 386.376C763.715 385.197 763.871 383.606 763.179 382.233C762.159 380.27 759.699 379.486 757.735 380.506L695.234 412.916L642.55 440.225L642.572 440.241Z" fill="#C1C7D9"/>
<path d="M107.958 356.171C109.233 353.789 112.218 352.884 114.634 354.158L130.636 362.746L136.708 366L186.96 392.972H166.094L128.992 373.079L122.953 369.825L109.971 362.847C107.589 361.572 106.683 358.587 107.958 356.171Z" fill="#F1F3F7"/>
<path d="M895.126 474.269L894.687 469L441.318 265.519L441.779 270.76L895.126 474.269Z" fill="#9AA4BB"/>
<path d="M896.553 474.222L848.134 509.527L395.019 305.95L443.461 270.618L896.553 474.222Z" fill="#D7E0F5"/>
<path d="M879.971 530.493L875.688 533.592L422.574 329.996L426.88 326.869L879.971 530.493Z" fill="#9AA4BB"/>
<path d="M876.467 533.664L876.467 489.287L421.255 286.227L421.255 330.604L876.467 533.664Z" fill="#9AA4BB"/>
<path d="M455.471 325.329L455.02 320.081L406.177 355.237L406.603 360.488L455.471 325.329Z" fill="#9AA4BB"/>
<path d="M901.305 519.506L900.867 514.237L447.494 310.731L447.958 315.997L901.305 519.506Z" fill="#9AA4BB"/>
<path d="M902.733 519.458L854.314 554.762L401.199 351.186L449.641 315.853L902.733 519.458Z" fill="#D7E0F5"/>
<path d="M777.583 357.641L750.274 446.889L725.714 421.253L753.036 332.222L777.583 357.641Z" fill="#CCD5E9"/>
<path d="M876.578 372.25L844.459 457.652L748.994 446.504L776.494 356.317L821.448 351.82L876.578 372.25Z" fill="#D7E0F5"/>
<path d="M786.812 327.138L822.182 322.989L847.591 348.228L871.875 374.068L834.776 378.439L811.101 352.991L776.459 356.665L752.945 332.222L786.812 327.138Z" fill="#E5EAF6"/>
<path d="M811.844 353.19L778.651 454.732L803.239 480.384L835.683 378.196L811.844 353.19Z" fill="#9AA4BB"/>
<path d="M930.261 456.112L913.22 438.097L918.856 406.295L903.256 405.121L906.846 363.322L866.12 361.913L857.432 406.262L793.559 425.719L792.922 457.32L930.228 456.078L930.261 456.112Z" fill="#E5EAF6"/>
<path d="M795.216 552.072C794.453 551.692 793.838 551.078 793.407 550.28L736.924 438.157C736.308 436.929 735.065 436.095 733.677 435.986L712.661 434.476C708.815 434.186 705.322 432.077 703.303 428.798L659.565 357.936C658.395 356.033 658.982 353.562 660.885 352.392C662.788 351.222 665.259 351.809 666.429 353.712L710.167 424.575C710.832 425.643 711.988 426.342 713.253 426.451L734.269 427.96C738.472 428.275 742.248 430.801 744.157 434.547L800.64 546.671C801.638 548.672 800.83 551.094 798.853 552.104C797.662 552.708 796.335 552.66 795.228 552.109L795.216 552.072Z" fill="#C1C7D9"/>
<path d="M691.396 410.096L640.153 395.638L596.63 413.82L586.4 370.176L572.097 374.201L541.456 418.349L505.936 394.262L464.354 379.066L477.141 342.231H430.397L380.433 380.273L361.631 353.939L313.94 358.133L302.526 373.296L293.575 370.209L270.274 344.848L255.924 348.639L246.973 368.297L143.634 371.383L127.863 381.649V435.323C127.863 435.323 142.071 465.347 146.144 468.232C150.217 471.117 438.732 471.386 440.911 471.554C443.089 471.721 572.855 471.386 576.502 471.554C580.148 471.721 629.45 469.742 635.228 468.232C641.006 466.689 691.349 410.163 691.349 410.163L691.396 410.096Z" fill="#9AA4BB"/>
<path d="M366.884 421.757C370.578 428.443 372.646 434.76 373.274 440.523C373.644 443.663 373.533 446.581 373.053 449.314C371.169 459.583 363.448 466.639 350.926 468.08C349.374 468.264 347.712 468.338 346.013 468.338C344.314 468.338 342.541 468.264 340.804 468.08C326.694 466.639 311.179 459.583 297.992 449.314C294.482 446.581 291.158 443.663 288.055 440.523C282.366 434.797 277.453 428.443 273.759 421.757C270.065 415.071 267.997 408.755 267.332 402.992C266.999 399.889 267.073 396.934 267.553 394.201C269.327 384.449 276.419 377.615 287.833 375.694C288.424 375.583 289.052 375.509 289.68 375.435C291.232 375.251 292.894 375.177 294.593 375.177C296.292 375.177 298.065 375.251 299.802 375.435C300.503 375.509 301.205 375.583 301.907 375.694C315.427 377.578 330.055 384.449 342.614 394.201C346.124 396.934 349.448 399.852 352.514 402.992C358.203 408.718 363.116 415.071 366.81 421.757H366.884Z" fill="#B8BFD5"/>
<path d="M376.601 419.097C380.479 426.153 382.696 432.876 383.36 438.934C383.73 442.222 383.656 445.361 383.102 448.206C381.107 459.029 372.944 466.491 359.719 468.042C358.057 468.227 356.321 468.338 354.511 468.338C352.701 468.338 350.854 468.227 348.97 468.042C334.046 466.528 317.645 459.066 303.719 448.206C300.025 445.324 296.516 442.222 293.228 438.934C287.207 432.876 282.035 426.153 278.12 419.097C274.241 412.042 272.025 405.319 271.323 399.261C270.954 395.973 271.027 392.87 271.582 389.989C273.465 379.683 280.964 372.443 293.043 370.448C293.671 370.337 294.336 370.263 294.964 370.19C296.627 370.005 298.363 369.894 300.173 369.894C301.983 369.894 303.83 370.005 305.677 370.19C306.415 370.263 307.154 370.374 307.93 370.448C322.226 372.443 337.703 379.683 350.965 389.989C354.658 392.87 358.168 395.973 361.455 399.261C367.476 405.319 372.648 412.042 376.564 419.097H376.601Z" fill="#F1F3F7"/>
<path d="M373.905 419.096C377.599 425.782 379.667 432.099 380.295 437.862C380.665 441.001 380.554 443.92 380.074 446.653C378.19 456.922 370.469 463.978 357.947 465.418C356.395 465.603 354.733 465.677 353.034 465.677C351.335 465.677 349.561 465.603 347.825 465.418C333.714 463.978 318.2 456.922 305.012 446.653C301.503 443.92 298.179 441.001 295.076 437.862C289.387 432.136 284.474 425.782 280.78 419.096C277.086 412.41 275.018 406.094 274.353 400.331C274.02 397.228 274.094 394.273 274.574 391.539C276.347 381.787 283.44 374.954 294.854 373.033C295.445 372.922 296.073 372.848 296.701 372.774C298.252 372.59 299.915 372.516 301.614 372.516C303.313 372.516 305.086 372.59 306.822 372.774C307.524 372.848 308.226 372.922 308.928 373.033C322.448 374.917 337.113 381.787 349.635 391.539C353.145 394.273 356.469 397.191 359.535 400.331C365.224 406.057 370.137 412.41 373.831 419.096H373.905Z" fill="#B8BFD5"/>
<path d="M338.182 414.775L376.193 423.678C377.744 427.076 378.852 430.4 379.591 433.614L342.836 428.406L369.987 461.54C368.842 462.242 367.586 462.833 366.256 463.387C364.926 463.905 363.522 464.348 362.082 464.717L332.013 432.765L321.153 456.997C317.311 455.039 313.543 452.786 309.849 450.237L316.535 423.493L278.525 414.59C276.973 411.192 275.865 407.867 275.126 404.654L311.881 409.825L284.731 376.69C285.876 375.989 287.132 375.398 288.461 374.843C289.791 374.326 291.195 373.883 292.636 373.514L322.704 405.466L333.565 381.234C337.369 383.192 341.174 385.445 344.831 387.994L338.145 414.738L338.182 414.775ZM334.784 416.105L324.182 409.751L316.757 412.706L319.934 422.052L330.536 428.406L337.96 425.451L334.784 416.105Z" fill="#F1F3F7"/>
<path d="M336.703 415.366C342.244 421.682 342.539 428.442 337.405 430.511C332.233 432.58 323.552 429.144 318.012 422.828C312.471 416.511 312.175 409.751 317.31 407.682C322.481 405.614 331.162 409.049 336.703 415.366Z" fill="#F1F3F7"/>
<path d="M15.4835 432.555L51.0765 399.713L61.543 390.051L117.063 338.826H260.24L225.955 477.071L225.452 477.943L218.709 489.584L164.129 583.984H-6.69077L15.4835 432.488V432.555ZM228.739 431.28L249.169 348.923H119.377L69.829 394.513L59.3624 404.141L29.875 431.28H228.773H228.739Z" fill="#D7DDEE"/>
<path d="M487.975 423.582L494.449 433.478L566.541 386.378C575.632 380.441 578.182 368.23 572.244 359.139C569.896 355.516 570.902 350.651 574.525 348.303L613.104 323.11C614.11 322.439 613.473 319.721 611.661 316.971L611.594 316.87C609.816 314.186 607.602 312.576 606.629 313.213L568.051 338.407C558.96 344.345 556.41 356.556 562.348 365.647C564.696 369.27 563.69 374.134 560.067 376.482L487.975 423.615V423.582Z" fill="#E7EBF7"/>
<path opacity="0.25" d="M494.18 426.466L497.501 431.532L566.574 386.378C575.665 380.44 578.214 368.229 572.277 359.138C569.928 355.515 570.935 350.651 574.558 348.303L613.136 323.109C614.143 322.438 613.505 319.721 611.694 316.97L611.627 316.87L574.29 341.292C566.071 346.659 563.219 357.159 567.111 365.814C569.593 371.316 567.647 378.495 562.582 381.816L494.247 426.5L494.18 426.466Z" fill="#B0B5C6"/>
<path d="M345.304 486.65L371.773 527.141L509.683 437.001C511.662 435.727 508.978 427.977 503.577 418.685C502.537 416.907 501.397 415.062 500.189 413.183C494.62 404.662 488.817 398.02 485.16 395.672C479.491 398.389 474.358 404.428 469.024 406.944C462.114 410.198 456.511 415.599 449.936 419.389C447.051 421.033 443.831 421.301 440.845 422.677C436.081 424.891 432.794 429.118 428.433 431.969C421.422 436.565 414.913 441.396 407.835 446.025C404.615 448.139 401.663 450.152 398.107 451.561C395.456 452.6 393.008 453.674 390.592 455.251C387.405 457.331 384.554 459.612 381.702 461.926C378.314 464.711 374.121 466.656 370.531 469.24C368.015 471.051 366.271 473.534 364.023 475.513C361.675 477.559 358.622 478.767 355.972 480.243C353.02 481.853 350.068 483.698 347.216 485.409C346.613 485.778 346.009 486.214 345.371 486.717L345.304 486.65Z" fill="#E7EBF7"/>
<path opacity="0.25" d="M371.773 527.14L509.683 437C511.662 435.725 508.978 427.976 503.577 418.684L365.667 508.823C371.068 518.149 373.752 525.865 371.773 527.14Z" fill="#B0B5C6"/>
</g>
<defs>
<clipPath id="clip0_3169_2580">
<rect width="936" height="456" fill="white" transform="matrix(-1 0 0 1 936 0)"/>
</clipPath>
</defs>
</svg>
