<svg width="936" height="456" viewBox="0 0 936 456" fill="none" xmlns="http://www.w3.org/2000/svg">
<g clip-path="url(#clip0_3169_2582)">
<path d="M322.407 474.249L256.646 47.9295L256.646 47.928C255.987 43.7316 252.053 40.8521 247.857 41.4934L322.407 474.249ZM322.407 474.249V474.266L322.414 474.309C323.056 478.506 320.175 482.438 315.98 483.08L315.979 483.08L5.21477 531.019C5.21452 531.019 5.21429 531.019 5.21404 531.019L322.407 474.249ZM-69.3427 98.2218L-3.57465 524.583L-69.3427 98.2218ZM-69.3427 98.2218C-69.3427 98.2216 -69.3428 98.2214 -69.3428 98.2212M-69.3427 98.2218L-69.3428 98.2212M-69.3428 98.2212C-69.9843 94.025 -67.1042 90.0911 -62.9073 89.4324C-62.9071 89.4324 -62.9069 89.4323 -62.9067 89.4323L247.856 41.4935L-69.3428 98.2212Z" fill="#9AA4BB" stroke="#9AA4BB" stroke-width="1.13501"/>
<path d="M303.412 441.594L244.701 60.9168L244.7 60.9153C244.041 56.719 240.108 53.8394 235.912 54.4807L303.412 441.594ZM303.412 441.594V441.611L303.418 441.654C304.06 445.85 301.18 449.784 296.984 450.443L303.412 441.594ZM-54.0228 107.004L4.69483 487.741L-54.0228 107.004ZM-54.0228 107.004C-54.0228 107.003 -54.0229 107.003 -54.0229 107.003M-54.0228 107.004L-54.0229 107.003M-54.0229 107.003C-54.6644 102.807 -51.7844 98.8729 -47.5875 98.2142C-47.5872 98.2142 -47.587 98.2142 -47.5868 98.2141L235.911 54.4808L-54.0229 107.003ZM296.982 450.443L13.4843 494.177C13.484 494.177 13.4838 494.177 13.4835 494.177L296.982 450.443Z" fill="#D8E5FE" stroke="#9AA4BB" stroke-width="1.13501"/>
<path d="M111.973 49.4449L136.022 45.7292V45.7472L136.676 45.6458C145.378 44.2979 153.535 50.2696 154.883 58.9898L155.095 60.3676L155.095 60.3682C156.443 69.0697 150.471 77.2264 141.751 78.5746L49.4244 92.8167L49.424 92.8167C40.7226 94.1646 32.5659 88.193 31.2177 79.473C31.2177 79.4729 31.2177 79.4729 31.2176 79.4728L31.0057 78.0949L31.0056 78.0943C29.6577 69.3928 35.6294 61.2361 44.3496 59.888L69.0524 56.0712L69.6135 55.9845L69.5266 55.4235C67.7369 43.8767 75.6527 33.0701 87.1991 31.2977L87.1999 31.2976C98.746 29.5081 109.536 37.4232 111.326 48.971L111.413 49.5315L111.973 49.4449ZM79.9964 53.3345C80.8745 59.0702 86.2365 62.9923 91.9698 62.1145C97.7056 61.2364 101.628 55.8745 100.75 50.1411C99.8718 44.4054 94.5099 40.4833 88.7765 41.361C83.0407 42.2392 79.1187 47.6011 79.9964 53.3345Z" fill="#9AA4BB" stroke="#9AA4BB" stroke-width="1.13501"/>
<g opacity="0.5">
<path d="M-2.26123 157.825L-2.26036 157.825L78.8448 145.315L-2.26123 157.825ZM-2.26123 157.825C-6.0309 158.413 -9.55955 155.818 -10.1478 152.043C-10.7352 148.274 -8.14089 144.745 -4.36678 144.157L-4.36591 144.157L76.7393 131.646L76.7402 131.646M-2.26123 157.825L76.7402 131.646M76.7402 131.646C80.5098 131.059 84.0385 133.654 84.6267 137.428C85.2142 141.197 82.6198 144.726 78.8457 145.315L76.7402 131.646Z" fill="#9AA4BB" stroke="#9AA4BB" stroke-width="1.13501"/>
<path d="M-2.75555 205.164L-2.7547 205.164L45.113 197.778L-2.75555 205.164ZM-2.75555 205.164C-6.52522 205.751 -10.0539 203.156 -10.6421 199.382C-11.2296 195.612 -8.63481 192.083 -4.86023 191.495L43.0074 184.109L43.0083 184.109M-2.75555 205.164L43.0083 184.109M43.0083 184.109C46.7779 183.522 50.3066 186.116 50.8948 189.891C51.4823 193.66 48.8879 197.189 45.1138 197.777L43.0083 184.109Z" fill="#9AA4BB" stroke="#9AA4BB" stroke-width="1.13501"/>
<path d="M64.4797 194.791L64.4789 194.791C60.7092 195.379 57.1806 192.784 56.5923 189.009C56.0049 185.24 58.5993 181.711 62.3736 181.123C62.3738 181.123 62.374 181.123 62.3742 181.123L142.543 168.754L142.544 168.754C146.313 168.166 149.842 170.761 150.43 174.536C151.018 178.305 148.423 181.834 144.649 182.422C144.649 182.422 144.649 182.422 144.648 182.422L64.4797 194.791Z" fill="#9AA4BB" stroke="#9AA4BB" stroke-width="1.13501"/>
<path d="M5.79639 260.701L5.79728 260.701L141.115 239.832L5.79639 260.701ZM5.79639 260.701C2.02672 261.288 -1.50193 258.693 -2.09018 254.919C-2.67766 251.149 -0.0828679 247.621 3.69171 247.032L139.009 226.164L139.01 226.164M5.79639 260.701L139.01 226.164M139.01 226.164C142.78 225.576 146.308 228.171 146.896 231.946C147.484 235.715 144.89 239.243 141.115 239.832L139.01 226.164Z" fill="#9AA4BB" stroke="#9AA4BB" stroke-width="1.13501"/>
<path d="M10.5493 291.359L10.5501 291.359L91.6377 278.848L10.5493 291.359ZM10.5493 291.359C6.77959 291.946 3.25094 289.352 2.66269 285.577M10.5493 291.359L2.66269 285.577M89.533 265.18L89.5322 265.18L8.44458 277.69L89.533 265.18ZM89.533 265.18C93.3027 264.592 96.8313 267.187 97.4196 270.962C98.007 274.731 95.4127 278.26 91.6385 278.848L89.533 265.18ZM2.66269 285.577C2.07525 281.808 4.6696 278.279 8.44372 277.691L2.66269 285.577Z" fill="#9AA4BB" stroke="#9AA4BB" stroke-width="1.13501"/>
<path d="M118.515 274.713L118.514 274.713C114.745 275.301 111.216 272.706 110.628 268.931C110.04 265.162 112.635 261.633 116.409 261.045C116.409 261.045 116.41 261.045 116.41 261.045L163.235 253.818L163.236 253.818C167.005 253.23 170.534 255.825 171.122 259.6C171.71 263.369 169.115 266.898 165.341 267.486C165.341 267.486 165.34 267.486 165.34 267.486L118.515 274.713Z" fill="#9AA4BB" stroke="#9AA4BB" stroke-width="1.13501"/>
<path d="M17.5486 336.7L17.5477 336.7C13.7781 337.288 10.2494 334.693 9.66116 330.918C9.07371 327.149 11.6682 323.62 15.4425 323.032C15.4427 323.032 15.4429 323.032 15.4431 323.032L116.021 307.517L116.022 307.517C119.791 306.93 123.32 309.525 123.908 313.299C124.496 317.069 121.901 320.597 118.127 321.186C118.127 321.186 118.127 321.186 118.126 321.186L17.5486 336.7Z" fill="#9AA4BB" stroke="#9AA4BB" stroke-width="1.13501"/>
<path d="M138.995 317.952L138.996 317.952L172.339 312.81L138.995 317.952ZM138.995 317.952C135.225 318.54 131.697 315.945 131.108 312.17C130.521 308.401 133.116 304.872 136.89 304.284L170.233 299.142L170.234 299.142M138.995 317.952L170.234 299.142M170.234 299.142C174.004 298.554 177.532 301.149 178.121 304.924C178.708 308.693 176.114 312.221 172.34 312.81L170.234 299.142Z" fill="#9AA4BB" stroke="#9AA4BB" stroke-width="1.13501"/>
<path d="M22.2666 367.34L22.2657 367.341C18.496 367.928 14.9674 365.333 14.3791 361.559C13.7916 357.789 16.3864 354.26 20.161 353.672L144.152 334.553L144.153 334.553C147.922 333.965 151.451 336.56 152.039 340.335C152.627 344.104 150.032 347.633 146.258 348.221C146.258 348.221 146.258 348.221 146.257 348.221L22.2666 367.34Z" fill="#9AA4BB" stroke="#9AA4BB" stroke-width="1.13501"/>
<path d="M103.146 394.299L103.149 394.299C103.725 398.062 101.133 401.581 97.3639 402.168L29.2639 412.682L29.2631 412.682C25.4934 413.269 21.9647 410.675 21.3765 406.9C20.789 403.13 23.3836 399.602 27.1579 399.013C27.1581 399.013 27.1582 399.013 27.1584 399.013L95.2583 388.517L95.2592 388.517C99.0289 387.93 102.558 390.525 103.146 394.299Z" fill="#9AA4BB" stroke="#9AA4BB" stroke-width="1.13501"/>
<path d="M116.625 399.2L116.624 399.2C112.854 399.787 109.326 397.193 108.737 393.418C108.15 389.649 110.744 386.12 114.518 385.532C114.519 385.531 114.519 385.531 114.519 385.531L185.57 374.576L185.571 374.576C189.341 373.988 192.869 376.583 193.458 380.358C194.045 384.127 191.451 387.656 187.676 388.244C187.676 388.244 187.676 388.244 187.676 388.244L116.625 399.2Z" fill="#9AA4BB" stroke="#9AA4BB" stroke-width="1.13501"/>
<path d="M33.9813 443.322L33.9805 443.322C30.2108 443.91 26.6821 441.315 26.0939 437.54C25.5065 433.771 28.1009 430.242 31.8752 429.654C31.8754 429.654 31.8756 429.654 31.8758 429.654L79.9908 422.232L79.9917 422.232C83.7614 421.645 87.29 424.239 87.8782 428.014C88.4657 431.783 85.8712 435.312 82.097 435.901C82.0968 435.901 82.0966 435.901 82.0964 435.901L33.9813 443.322Z" fill="#9AA4BB" stroke="#9AA4BB" stroke-width="1.13501"/>
</g>
<path d="M178.925 140.676L178.926 140.676L206.49 136.418C206.49 136.418 206.491 136.418 206.491 136.418C210.706 135.776 214.638 138.658 215.28 142.852L215.28 142.852L219.538 170.417C219.538 170.417 219.538 170.417 219.538 170.418C220.18 174.633 217.298 178.565 213.104 179.206L213.103 179.206L185.539 183.465C185.539 183.465 185.538 183.465 185.538 183.465C181.323 184.106 177.391 181.225 176.75 177.031L176.75 177.03L172.491 149.466C172.491 149.466 172.491 149.465 172.491 149.465C171.849 145.25 174.731 141.318 178.925 140.676ZM213.115 143.193C212.661 140.179 209.827 138.092 206.812 138.565C206.812 138.565 206.812 138.565 206.811 138.565L179.25 142.823C179.249 142.823 179.249 142.823 179.248 142.823C176.235 143.277 174.148 146.111 174.621 149.126C174.621 149.126 174.621 149.126 174.621 149.127L178.879 176.689C178.879 176.689 178.879 176.689 178.879 176.69C179.333 179.703 182.167 181.79 185.182 181.317C185.182 181.317 185.182 181.317 185.182 181.317L212.744 177.059C212.745 177.059 212.745 177.059 212.746 177.059C215.759 176.606 217.846 173.771 217.373 170.756C217.373 170.756 217.373 170.756 217.373 170.756L213.115 143.194C213.115 143.193 213.115 143.193 213.115 143.193Z" fill="#9AA4BB" stroke="#9AA4BB" stroke-width="1.13501"/>
<path d="M190.869 218.178L190.87 218.178L218.435 213.919C218.435 213.919 218.435 213.919 218.435 213.919C222.651 213.277 226.582 216.159 227.224 220.353L227.224 220.354L231.482 247.918C231.482 247.919 231.482 247.919 231.483 247.919C232.124 252.135 229.242 256.066 225.049 256.708L225.048 256.708L197.483 260.966C197.483 260.966 197.483 260.966 197.482 260.966C193.267 261.608 189.335 258.726 188.694 254.532L188.694 254.531L184.436 226.967C184.436 226.967 184.435 226.967 184.435 226.967C183.794 222.751 186.675 218.819 190.869 218.178ZM225.077 220.694C224.623 217.681 221.789 215.594 218.774 216.067C218.774 216.067 218.774 216.067 218.774 216.067L191.212 220.325C191.211 220.325 191.211 220.325 191.21 220.325C188.197 220.778 186.11 223.613 186.583 226.627C186.583 226.628 186.583 226.628 186.583 226.628L190.841 254.19C190.841 254.19 190.841 254.191 190.841 254.191C191.295 257.204 194.129 259.292 197.144 258.819C197.144 258.819 197.144 258.819 197.144 258.819L224.706 254.561C224.707 254.561 224.707 254.561 224.708 254.561C227.721 254.107 229.808 251.273 229.335 248.258C229.335 248.258 229.335 248.257 229.335 248.257L225.077 220.695C225.077 220.695 225.077 220.695 225.077 220.694Z" fill="#9AA4BB" stroke="#9AA4BB" stroke-width="1.13501"/>
<path d="M202.832 295.697L202.833 295.697L230.397 291.438C230.397 291.438 230.397 291.438 230.398 291.438C234.613 290.796 238.545 293.678 239.186 297.872L239.187 297.873L243.445 325.437C243.445 325.438 243.445 325.438 243.445 325.438C244.087 329.654 241.205 333.585 237.011 334.227L237.01 334.227L209.446 338.485C209.446 338.485 209.445 338.485 209.445 338.485C205.23 339.127 201.298 336.245 200.657 332.051L200.656 332.051L196.398 304.486C196.398 304.486 196.398 304.486 196.398 304.486C195.756 300.27 198.638 296.338 202.832 295.697ZM237.039 298.213C236.586 295.2 233.751 293.113 230.737 293.586C230.736 293.586 230.736 293.586 230.736 293.586L203.174 297.844C203.174 297.844 203.173 297.844 203.173 297.844C200.16 298.297 198.073 301.132 198.545 304.146C198.545 304.147 198.545 304.147 198.545 304.147L202.803 331.709C202.803 331.709 202.803 331.71 202.803 331.71C203.257 334.724 206.092 336.811 209.106 336.338C209.107 336.338 209.107 336.338 209.107 336.338L236.669 332.08C236.669 332.08 236.67 332.08 236.67 332.08C239.683 331.626 241.77 328.792 241.298 325.777C241.298 325.777 241.298 325.776 241.298 325.776L237.04 298.214C237.04 298.214 237.039 298.214 237.039 298.213Z" fill="#9AA4BB" stroke="#9AA4BB" stroke-width="1.13501"/>
<path d="M214.795 373.198L214.796 373.198L242.361 368.94C242.361 368.94 242.361 368.94 242.361 368.94C246.577 368.298 250.509 371.18 251.15 375.374L251.15 375.374L255.409 402.939C255.409 402.939 255.409 402.94 255.409 402.94C256.05 407.138 253.168 411.087 248.975 411.728L248.974 411.728L221.41 415.987C221.409 415.987 221.409 415.987 221.409 415.987C217.193 416.628 213.262 413.747 212.62 409.553L212.62 409.552L208.362 381.988C208.362 381.988 208.362 381.987 208.362 381.987C207.72 377.771 210.601 373.84 214.795 373.198ZM248.985 375.715C248.532 372.701 245.697 370.614 242.683 371.087C242.682 371.087 242.682 371.087 242.682 371.087L215.12 375.345C215.12 375.345 215.119 375.345 215.119 375.345C212.106 375.799 210.019 378.633 210.491 381.648C210.491 381.648 210.491 381.648 210.491 381.649L214.749 409.211C214.749 409.211 214.749 409.211 214.749 409.212C215.203 412.225 218.037 414.312 221.052 413.839C221.052 413.839 221.053 413.839 221.053 413.839L248.615 409.581C248.615 409.581 248.616 409.581 248.616 409.581C251.629 409.127 253.716 406.293 253.244 403.278C253.244 403.278 253.244 403.278 253.244 403.278L248.986 375.716C248.985 375.715 248.985 375.715 248.985 375.715Z" fill="#9AA4BB" stroke="#9AA4BB" stroke-width="1.13501"/>
<path d="M201.272 166.186C200.684 167.16 199.727 167.843 198.609 168.095C198.559 168.104 198.512 168.112 198.469 168.12L198.467 168.121C198.418 168.13 198.373 168.138 198.325 168.146L198.325 168.148C197.307 168.296 196.258 168.062 195.393 167.491C195.393 167.491 195.392 167.49 195.391 167.49L167.069 148.497L167.068 148.496C165.157 147.222 164.642 144.625 165.917 142.711C167.21 140.796 169.792 140.285 171.704 141.559C171.704 141.559 171.704 141.559 171.704 141.559L195.911 157.78L196.404 158.11L196.712 157.603L225.338 110.405L225.338 110.405C226.535 108.431 229.101 107.807 231.079 109.006C233.053 110.203 233.677 112.769 232.478 114.747C232.478 114.747 232.478 114.747 232.478 114.747L201.273 166.185L201.272 166.186Z" fill="#D8E5FE" stroke="#9AA4BB" stroke-width="1.13501"/>
<path d="M213.57 245.861C212.983 246.834 212.025 247.518 210.908 247.77C210.857 247.779 210.81 247.787 210.766 247.795L210.765 247.795C210.716 247.804 210.671 247.812 210.623 247.821L210.623 247.823C209.605 247.971 208.557 247.737 207.691 247.166C207.691 247.165 207.69 247.165 207.69 247.165L179.369 228.172C179.369 228.172 179.368 228.172 179.368 228.172C177.453 226.879 176.942 224.297 178.215 222.386C179.508 220.47 182.091 219.96 184.002 221.234C184.002 221.234 184.002 221.234 184.002 221.234L208.209 237.454L208.703 237.785L209.011 237.277L237.636 190.08L237.636 190.08C238.834 188.106 241.4 187.482 243.377 188.681C245.352 189.878 245.975 192.444 244.776 194.422C244.776 194.422 244.776 194.422 244.776 194.422L213.571 245.859L213.57 245.861Z" fill="#D8E5FE" stroke="#9AA4BB" stroke-width="1.13501"/>
<path d="M225.851 325.536C225.264 326.509 224.306 327.193 223.189 327.445C223.138 327.454 223.091 327.462 223.047 327.47L223.046 327.47C222.997 327.479 222.953 327.487 222.904 327.495L222.905 327.498C221.887 327.646 220.838 327.412 219.973 326.841C219.972 326.84 219.971 326.84 219.971 326.839L191.65 307.847C191.65 307.847 191.65 307.847 191.649 307.847C189.734 306.554 189.223 303.972 190.496 302.06C191.79 300.145 194.372 299.634 196.283 300.909C196.283 300.909 196.284 300.909 196.284 300.909L220.491 317.129L220.984 317.46L221.292 316.952L249.917 269.755L249.918 269.755C251.115 267.78 253.681 267.157 255.658 268.356C257.633 269.553 258.257 272.119 257.058 274.096C257.058 274.096 257.058 274.097 257.058 274.097L225.852 325.534L225.851 325.536Z" fill="#D8E5FE" stroke="#9AA4BB" stroke-width="1.13501"/>
<path d="M235.578 407.116L235.228 407.169C234.202 407.324 233.143 407.091 232.27 406.515C232.27 406.515 232.269 406.515 232.269 406.514L203.948 387.522C203.948 387.522 203.947 387.521 203.947 387.521C202.033 386.229 201.52 383.63 202.794 381.717C204.087 379.802 206.668 379.292 208.579 380.582L208.58 380.583L232.788 396.804L233.282 397.134L233.59 396.627L262.215 349.448L262.215 349.447C263.413 347.473 265.979 346.849 267.956 348.048C269.931 349.245 270.554 351.811 269.355 353.789C269.355 353.789 269.355 353.789 269.355 353.789L238.15 405.227L238.149 405.228C237.578 406.175 236.656 406.847 235.578 407.116Z" fill="#D8E5FE" stroke="#9AA4BB" stroke-width="1.13501"/>
<path d="M278.812 401.449C278.812 546.24 396.179 663.559 540.922 663.559C685.665 663.559 803.032 546.192 803.032 401.449C803.032 256.706 685.665 139.339 540.922 139.339C396.179 139.339 278.812 256.706 278.812 401.449ZM393.752 401.449C393.752 320.195 459.62 254.279 540.922 254.279C622.225 254.279 688.092 320.146 688.092 401.449C688.092 482.752 622.176 548.619 540.922 548.619C459.668 548.619 393.752 482.752 393.752 401.449Z" fill="#9AA4BB"/>
<path d="M540.923 548.57C622.177 548.57 688.093 482.703 688.093 401.401C688.093 320.098 625.963 258.308 548.01 254.619L571.939 141.184C702.072 156.571 803.033 267.191 803.033 401.449C803.033 546.241 685.666 663.559 540.923 663.559C514.178 663.559 488.355 659.53 464.037 652.055L488.016 538.62C504.47 544.979 522.284 548.57 540.923 548.57Z" fill="#D7E0F5"/>
<g style="mix-blend-mode:multiply" opacity="0.3">
<path d="M200.255 546.247L342.543 581.649L552.868 389.793L683.358 422.26L807.127 332.258L846.137 381.914L888.708 252.038L875.394 229.92L747.797 251.574L761.111 273.692L775.425 291.926L669.168 369.665L538.662 337.194L334.704 503.459L218.119 474.451L200.255 546.247Z" fill="#D7E0F5"/>
</g>
<path d="M200.219 546.39L347.009 582.913L550.967 416.648L681.457 449.115L819.858 348.471L846.137 381.914L888.708 252.038L761.111 273.692L788.484 308.526L788.121 308.079L667.271 396.504L536.765 364.033L332.818 530.318L211.715 500.186L200.219 546.39Z" fill="#9AA4BB"/>
</g>
<defs>
<clipPath id="clip0_3169_2582">
<rect width="936" height="456" fill="white" transform="matrix(-1 0 0 1 936 0)"/>
</clipPath>
</defs>
</svg>
