<svg width="936" height="456" viewBox="0 0 936 456" fill="none" xmlns="http://www.w3.org/2000/svg">
<g clip-path="url(#clip0_3169_2582)">
<path d="M322.975 474.223C323.664 478.729 320.572 482.952 316.066 483.641L5.30056 531.58C0.794666 532.269 -3.4285 529.177 -4.13531 524.671L-69.9037 98.3075C-70.5928 93.8017 -67.5005 89.5785 -62.9947 88.8717L247.771 40.9325C252.277 40.2434 256.5 43.3356 257.207 47.8415L322.975 474.205V474.223Z" fill="#9AA4BB"/>
<path d="M303.979 441.568C304.668 446.074 301.576 450.297 297.07 451.004L13.5701 494.738C9.06416 495.427 4.84099 492.334 4.13418 487.829L-54.5838 107.089C-55.2729 102.583 -52.1807 98.3603 -47.6748 97.6535L235.826 53.9198C240.331 53.2307 244.555 56.3229 245.261 60.8288L303.979 441.55V441.568Z" fill="#D8E5FE"/>
<path d="M136.59 45.0673L111.887 48.8841C110.049 37.0274 98.9697 28.8991 87.113 30.7368C75.2563 32.5568 67.128 43.6537 68.9657 55.5104L44.2628 59.3271C35.2334 60.7231 29.0488 69.1694 30.4448 78.1812L30.6568 79.5595C32.0527 88.5889 40.4991 94.7735 49.5109 93.3776L141.838 79.1354C150.867 77.7395 157.052 69.2931 155.656 60.2813L155.444 58.9031C154.048 49.8736 145.601 43.689 136.59 45.085V45.0673ZM91.884 61.5536C86.4592 62.3841 81.3879 58.6733 80.5574 53.2486C79.7269 47.8239 83.4376 42.7525 88.8624 41.922C94.2871 41.0915 99.3584 44.8023 100.189 50.227C101.019 55.6517 97.3087 60.7231 91.884 61.5536Z" fill="#9AA4BB"/>
<path d="M85.1875 137.341C85.8236 141.423 83.014 145.239 78.9322 145.875L-2.17384 158.386C-6.25565 159.022 -10.0724 156.212 -10.7085 152.131C-11.3447 148.049 -8.53511 144.232 -4.4533 143.596L76.6528 131.085C80.7346 130.449 84.5514 133.259 85.1875 137.341Z" fill="#9AA4BB"/>
<path d="M51.4556 189.804C52.0917 193.885 49.2821 197.702 45.2003 198.338L-2.66816 205.724C-6.74997 206.361 -10.5667 203.551 -11.2029 199.469C-11.839 195.387 -9.02942 191.571 -4.94761 190.934L42.9209 183.548C47.0027 182.912 50.8195 185.722 51.4556 189.804Z" fill="#9AA4BB"/>
<path d="M150.991 174.448C151.627 178.53 148.818 182.347 144.736 182.983L64.5663 195.352C60.4845 195.988 56.6677 193.179 56.0316 189.097C55.3955 185.015 58.205 181.198 62.2868 180.562L142.456 168.193C146.538 167.557 150.355 170.366 150.991 174.448Z" fill="#9AA4BB"/>
<path d="M147.457 231.859C148.093 235.941 145.284 239.757 141.202 240.393L5.88378 261.262C1.80197 261.898 -2.01479 259.089 -2.65092 255.007C-3.28704 250.925 -0.477483 247.108 3.60433 246.472L138.923 225.604C143.004 224.967 146.821 227.777 147.457 231.859Z" fill="#9AA4BB"/>
<path d="M97.9803 270.874C98.6164 274.956 95.8069 278.773 91.7251 279.409L10.6366 291.92C6.55483 292.556 2.73808 289.746 2.10195 285.664C1.46583 281.583 4.27538 277.766 8.35719 277.13L89.4456 264.619C93.5274 263.983 97.3442 266.793 97.9803 270.874Z" fill="#9AA4BB"/>
<path d="M171.683 259.513C172.319 263.594 169.51 267.411 165.428 268.047L118.602 275.274C114.52 275.911 110.703 273.101 110.067 269.019C109.431 264.937 112.241 261.121 116.322 260.484L163.148 253.257C167.23 252.621 171.047 255.431 171.683 259.513Z" fill="#9AA4BB"/>
<path d="M124.469 313.212C125.105 317.294 122.296 321.111 118.214 321.747L17.6351 337.261C13.5533 337.898 9.73655 335.088 9.10043 331.006C8.4643 326.924 11.2739 323.108 15.3557 322.471L115.934 306.957C120.016 306.321 123.833 309.131 124.469 313.212Z" fill="#9AA4BB"/>
<path d="M178.681 304.836C179.317 308.918 176.508 312.735 172.426 313.371L139.082 318.513C135.001 319.149 131.184 316.34 130.548 312.258C129.912 308.176 132.721 304.359 136.803 303.723L170.147 298.581C174.228 297.945 178.045 300.754 178.681 304.836Z" fill="#9AA4BB"/>
<path d="M152.6 340.247C153.236 344.329 150.427 348.146 146.345 348.782L22.3531 367.901C18.2713 368.537 14.4545 365.728 13.8184 361.646C13.1823 357.564 15.9918 353.747 20.0736 353.111L144.065 333.992C148.147 333.356 151.964 336.166 152.6 340.247Z" fill="#9AA4BB"/>
<path d="M103.707 394.195C104.343 398.276 101.533 402.093 97.4513 402.729L29.3505 413.243C25.2686 413.879 21.4519 411.07 20.8158 406.988C20.1796 402.906 22.9892 399.089 27.071 398.453L95.1719 387.957C99.2537 387.321 103.07 390.131 103.707 394.212V394.195Z" fill="#9AA4BB"/>
<path d="M194.018 380.27C194.655 384.352 191.845 388.169 187.763 388.805L116.711 399.761C112.63 400.397 108.813 397.587 108.177 393.505C107.541 389.424 110.35 385.607 114.432 384.971L185.484 374.015C189.566 373.379 193.382 376.189 194.018 380.27Z" fill="#9AA4BB"/>
<path d="M88.439 427.927C89.0751 432.009 86.2655 435.826 82.1837 436.462L34.0679 443.883C29.986 444.519 26.1693 441.71 25.5332 437.628C24.897 433.546 27.7066 429.729 31.7884 429.093L79.9043 421.672C83.9861 421.036 87.8029 423.845 88.439 427.927Z" fill="#9AA4BB"/>
<path d="M206.899 139.126C209.603 138.702 212.148 140.575 212.554 143.278L216.812 170.844C217.237 173.547 215.364 176.092 212.66 176.498L185.095 180.757C182.391 181.181 179.846 179.308 179.44 176.604L175.182 149.039C174.757 146.335 176.631 143.791 179.334 143.384L206.899 139.126ZM206.405 135.857L178.839 140.115C174.333 140.804 171.241 145.028 171.93 149.551L176.189 177.117C176.878 181.623 181.101 184.715 185.625 184.026L213.19 179.767C217.696 179.078 220.788 174.855 220.099 170.331L215.841 142.766C215.151 138.26 210.928 135.168 206.405 135.857Z" fill="#9AA4BB"/>
<path d="M218.862 216.627C221.565 216.203 224.11 218.076 224.516 220.78L228.774 248.345C229.199 251.049 227.326 253.593 224.622 254L197.057 258.258C194.353 258.682 191.808 256.809 191.402 254.106L187.144 226.54C186.719 223.837 188.592 221.292 191.296 220.886L218.862 216.627ZM218.349 213.358L190.784 217.617C186.278 218.306 183.185 222.529 183.875 227.053L188.133 254.618C188.822 259.124 193.045 262.216 197.569 261.527L225.134 257.269C229.64 256.58 232.733 252.356 232.043 247.833L227.785 220.267C227.096 215.761 222.873 212.669 218.349 213.358Z" fill="#9AA4BB"/>
<path d="M230.824 294.146C233.528 293.722 236.072 295.595 236.478 298.299L240.737 325.864C241.161 328.568 239.288 331.112 236.585 331.519L209.019 335.777C206.315 336.201 203.771 334.328 203.365 331.625L199.106 304.059C198.682 301.356 200.555 298.811 203.259 298.405L230.824 294.146ZM230.312 290.877L202.746 295.136C198.24 295.825 195.148 300.048 195.837 304.572L200.096 332.137C200.785 336.643 205.008 339.735 209.531 339.046L237.097 334.788C241.603 334.099 244.695 329.875 244.006 325.352L239.747 297.786C239.058 293.28 234.835 290.188 230.312 290.877Z" fill="#9AA4BB"/>
<path d="M242.77 371.647C245.473 371.223 248.018 373.096 248.424 375.8L252.683 403.365C253.107 406.069 251.234 408.613 248.53 409.02L220.965 413.278C218.261 413.702 215.717 411.829 215.31 409.126L211.052 381.56C210.628 378.857 212.501 376.312 215.204 375.906L242.77 371.647ZM242.275 368.378L214.71 372.637C210.204 373.326 207.112 377.549 207.801 382.073L212.059 409.638C212.748 414.144 216.971 417.236 221.495 416.547L249.06 412.289C253.566 411.6 256.659 407.359 255.97 402.853L251.711 375.287C251.022 370.781 246.799 367.689 242.275 368.378Z" fill="#9AA4BB"/>
<path d="M198.436 168.705C197.27 168.882 196.068 168.617 195.078 167.963L166.753 148.968C164.58 147.519 163.997 144.568 165.446 142.395C166.912 140.221 169.845 139.638 172.019 141.087L196.227 157.308L224.853 110.111C226.213 107.867 229.129 107.16 231.373 108.521C233.617 109.881 234.324 112.797 232.963 115.041L201.758 166.479C201.086 167.592 199.991 168.37 198.719 168.652C198.612 168.67 198.524 168.688 198.418 168.705H198.436Z" fill="#9AA4BB"/>
<path d="M210.734 248.38C209.568 248.557 208.366 248.292 207.377 247.638L179.052 228.643C176.878 227.176 176.295 224.243 177.744 222.069C179.211 219.896 182.144 219.313 184.317 220.762L208.525 236.983L237.151 189.786C238.512 187.542 241.427 186.835 243.671 188.196C245.915 189.556 246.622 192.472 245.262 194.716L214.056 246.154C213.385 247.267 212.289 248.045 211.017 248.327C210.911 248.345 210.822 248.363 210.716 248.38H210.734Z" fill="#9AA4BB"/>
<path d="M223.015 328.055C221.849 328.232 220.648 327.967 219.658 327.313L191.333 308.318C189.159 306.851 188.576 303.918 190.025 301.744C191.492 299.571 194.425 298.988 196.598 300.437L220.807 316.658L249.432 269.461C250.793 267.217 253.708 266.51 255.953 267.87C258.197 269.231 258.904 272.147 257.543 274.391L226.337 325.829C225.666 326.942 224.57 327.719 223.298 328.002C223.192 328.02 223.104 328.037 222.998 328.055H223.015Z" fill="#9AA4BB"/>
<path d="M235.313 407.73C234.147 407.906 232.945 407.641 231.956 406.988L203.63 387.992C201.457 386.526 200.874 383.575 202.323 381.401C203.79 379.228 206.723 378.645 208.896 380.111L233.104 396.333L261.73 349.153C263.091 346.909 266.006 346.202 268.25 347.563C270.494 348.923 271.201 351.839 269.841 354.083L238.635 405.521C237.964 406.634 236.868 407.412 235.596 407.694C235.49 407.712 235.401 407.73 235.295 407.747L235.313 407.73Z" fill="#9AA4BB"/>
<path d="M278.812 401.449C278.812 546.24 396.179 663.559 540.922 663.559C685.665 663.559 803.032 546.192 803.032 401.449C803.032 256.706 685.665 139.339 540.922 139.339C396.179 139.339 278.812 256.706 278.812 401.449ZM393.752 401.449C393.752 320.195 459.62 254.279 540.922 254.279C622.225 254.279 688.092 320.146 688.092 401.449C688.092 482.752 622.176 548.619 540.922 548.619C459.668 548.619 393.752 482.752 393.752 401.449Z" fill="#9AA4BB"/>
<path d="M540.923 548.57C622.177 548.57 688.093 482.703 688.093 401.401C688.093 320.098 625.963 258.308 548.01 254.619L571.939 141.184C702.072 156.571 803.033 267.191 803.033 401.449C803.033 546.241 685.666 663.559 540.923 663.559C514.178 663.559 488.355 659.53 464.037 652.055L488.016 538.62C504.47 544.979 522.284 548.57 540.923 548.57Z" fill="#D7E0F5"/>
<g style="mix-blend-mode:multiply" opacity="0.3">
<path d="M200.255 546.247L342.543 581.649L552.868 389.793L683.358 422.26L807.127 332.258L846.137 381.914L888.708 252.038L875.394 229.92L747.797 251.574L761.111 273.692L775.425 291.926L669.168 369.665L538.662 337.194L334.704 503.459L218.119 474.451L200.255 546.247Z" fill="#D7E0F5"/>
</g>
<path d="M200.219 546.39L347.009 582.913L550.967 416.648L681.457 449.115L819.858 348.471L846.137 381.914L888.708 252.038L761.111 273.692L788.484 308.526L788.121 308.079L667.271 396.504L536.765 364.033L332.818 530.318L211.715 500.186L200.219 546.39Z" fill="#9AA4BB"/>
</g>
<defs>
<clipPath id="clip0_3169_2582">
<rect width="936" height="456" fill="white" transform="matrix(-1 0 0 1 936 0)"/>
</clipPath>
</defs>
</svg>
