<svg width="960" height="468" viewBox="0 0 960 468" fill="none" xmlns="http://www.w3.org/2000/svg">
<g clip-path="url(#clip0_7122_12987)">
<path d="M233.567 205.405L240.878 241.122L233.674 916.359L174.221 882.202L174.328 171.14L205.13 181.737L233.567 205.405Z" fill="#E7ECF9"/>
<path d="M107.593 174.8L128.504 263.017L107.646 885.7L48.354 919.965L48.3003 209.065L74.533 187.118L107.593 174.8Z" fill="#9AA4BB"/>
<path d="M180.622 174.853L180.676 885.753L105.74 885.7L105.633 174.799L133.263 171.895L180.622 174.853Z" fill="#F9F9F9"/>
<path d="M103.185 285.552L103.292 996.452L43.8926 962.349L43.9463 251.233L82.1127 269.522L103.185 285.552Z" fill="#E7ECF9"/>
<path d="M185.024 285.553L185.131 996.454H101.326L101.219 285.553L137.719 282.595L185.024 285.553Z" fill="white"/>
<path d="M244.371 251.287L244.425 962.187L185.133 996.452L185.025 285.551L211.258 263.605L244.371 251.287Z" fill="#9AA4BB"/>
<path d="M185.025 285.551L244.317 251.287V202.821L185.079 168.61L101.113 168.502L41.874 202.713L41.9815 251.233L101.22 285.498H185.025V285.551ZM180.563 279.258H105.789L52.8402 248.651L52.7326 205.349L105.628 174.796H180.617L233.566 205.457L233.459 248.705L180.51 279.312L180.563 279.258Z" fill="#BBC4D9"/>
<path d="M121.186 82.5334L128.497 118.251L121.294 793.488L61.8403 759.33L61.9478 48.2686L92.7498 58.8654L121.186 82.5334Z" fill="#E7ECF9"/>
<path d="M-6.75351 51.9287L14.1574 140.146L-6.69976 762.829L-65.9921 797.094L-66.0459 86.1935L-39.8132 64.2468L-6.75351 51.9287Z" fill="#9AA4BB"/>
<path d="M68.2414 51.9819L68.2952 762.882L-6.64005 762.829L-6.74756 51.9281L20.8828 49.0234L68.2414 51.9819Z" fill="#F1F2F7"/>
<path d="M72.6433 162.682L72.7508 873.582H-11.0541L-11.1616 162.682L25.3384 159.723L72.6433 162.682Z" fill="#C4CCDD"/>
<path d="M131.991 128.415L132.045 839.316L72.7525 873.58L72.645 162.68L98.8777 140.733L131.991 128.415Z" fill="#9AA4BB"/>
<path d="M72.6442 162.68L131.937 128.416V79.9499L72.6979 45.7389L-11.2682 45.6313L-70.5068 79.8424L-70.3993 128.362L-11.1607 162.627H72.6442V162.68ZM68.1825 156.387H-6.5915L-59.5407 125.78L-59.6482 82.4781L-6.75276 51.9249H68.2362L121.185 82.5857L121.078 125.834L68.1287 156.441L68.1825 156.387Z" fill="#BBC4D9"/>
<path d="M659.048 451.826L649.148 466.302L716.651 431.265L780.975 397.879C781.604 397.558 782.103 397.079 782.469 396.544C783.297 395.334 783.457 393.701 782.747 392.292C781.701 390.277 779.178 389.472 777.164 390.519L713.06 423.783L659.025 451.81L659.048 451.826Z" fill="#C1C7D9"/>
<path d="M110.726 365.544C112.033 363.1 115.096 362.17 117.573 363.478L133.985 372.292L140.213 375.632L191.754 403.313H170.353L132.299 382.897L126.106 379.557L112.79 372.396C110.347 371.087 109.419 368.023 110.726 365.544Z" fill="#F1F3F7"/>
<path d="M460.817 287.462L460.357 282.102L410.249 318.159L410.685 323.547L460.817 287.462Z" fill="#9AA4BB"/>
<path d="M918.078 486.697L917.629 481.29L452.634 272.558L453.106 277.937L918.078 486.697Z" fill="#9AA4BB"/>
<path d="M919.548 486.649L869.875 522.882L405.141 314.053L454.837 277.791L919.548 486.649Z" fill="#D7E0F5"/>
<path d="M436.604 345.289L433.446 348.237L440.785 306.71L443.948 303.737L436.604 345.289Z" fill="#9AA4BB"/>
<path d="M902.536 544.4L898.142 547.581L433.409 338.732L437.826 335.522L902.536 544.4Z" fill="#9AA4BB"/>
<path d="M902.405 544.819L898.949 502.116L432.056 293.813L435.513 336.516L902.405 544.819Z" fill="#9AA4BB"/>
<path d="M467.155 333.889L466.693 328.504L416.585 364.586L417.021 369.974L467.155 333.889Z" fill="#9AA4BB"/>
<path d="M924.415 533.125L923.966 527.718L458.968 318.961L459.442 324.365L924.415 533.125Z" fill="#9AA4BB"/>
<path d="M925.886 533.076L876.213 569.309L411.479 360.48L461.175 324.218L925.886 533.076Z" fill="#D7E0F5"/>
<path d="M805.41 364.623L769.507 458.648L744.317 432.34L780.215 338.301L805.41 364.623Z" fill="#CCD5E9"/>
<path d="M899.06 382.044L866.109 469.692L770.241 458.319L803.995 366.776L842.516 361.079L899.06 382.044Z" fill="#D7E0F5"/>
<path d="M806.987 335.749L843.267 331.488L869.325 357.39L894.231 383.908L856.179 388.396L831.898 362.28L796.959 366.613L772.661 340.639L806.987 335.749Z" fill="#E5EAF6"/>
<path d="M839.942 362.484L805.889 452.294L831.107 478.619L865.155 388.796L839.942 362.484Z" fill="#9AA4BB"/>
<path d="M954.114 468.115L936.636 449.626L942.416 416.987L926.417 415.782L930.098 372.883L888.329 371.437L879.417 416.953C879.417 416.953 816.866 438.781 813.907 436.922C810.948 435.063 813.253 469.354 813.253 469.354L954.08 468.08L954.114 468.115Z" fill="#E5EAF6"/>
<path d="M815.606 566.6C814.824 566.21 814.193 565.58 813.751 564.761L755.819 449.687C755.187 448.427 753.913 447.571 752.489 447.459L730.935 445.91C726.99 445.612 723.407 443.447 721.336 440.082L676.477 367.355C675.277 365.402 675.879 362.866 677.831 361.666C679.783 360.465 682.317 361.067 683.517 363.02L728.376 435.748C729.058 436.844 730.244 437.561 731.542 437.673L753.096 439.223C757.407 439.545 761.28 442.138 763.238 445.983L821.17 561.057C822.193 563.111 821.365 565.597 819.337 566.633C818.115 567.253 816.754 567.204 815.619 566.638L815.606 566.6Z" fill="#C1C7D9"/>
<path d="M709.124 420.888L656.567 406.049L611.927 424.71L601.435 379.917L586.766 384.049L555.339 429.358L518.908 404.638L476.26 389.041L489.375 351.238H441.433L390.187 390.281L370.903 363.254L321.989 367.557L310.283 383.119L301.102 379.952L277.204 353.923L262.486 357.814L253.305 377.989L147.317 381.157L131.142 391.692V446.779C131.142 446.779 145.714 477.594 149.891 480.555C154.069 483.516 449.982 483.791 452.216 483.963C454.45 484.135 587.543 483.791 591.283 483.963C595.024 484.135 645.589 482.104 651.515 480.555C657.441 478.971 709.075 420.957 709.075 420.957L709.124 420.888Z" fill="#9AA4BB"/>
<path d="M376.291 432.856C380.08 439.718 382.201 446.201 382.845 452.115C383.224 455.338 383.11 458.333 382.618 461.138C380.686 471.678 372.767 478.919 359.924 480.397C358.333 480.587 356.628 480.663 354.885 480.663C353.142 480.663 351.324 480.587 349.543 480.397C335.07 478.919 319.158 471.678 305.632 461.138C302.033 458.333 298.623 455.338 295.441 452.115C289.606 446.239 284.567 439.718 280.779 432.856C276.99 425.994 274.868 419.511 274.186 413.597C273.845 410.413 273.921 407.38 274.414 404.574C276.232 394.566 283.506 387.552 295.213 385.581C295.82 385.467 296.464 385.391 297.108 385.315C298.699 385.126 300.404 385.05 302.147 385.05C303.889 385.05 305.708 385.126 307.489 385.315C308.209 385.391 308.928 385.467 309.648 385.581C323.515 387.514 338.518 394.566 351.399 404.574C354.999 407.38 358.408 410.375 361.553 413.597C367.388 419.474 372.426 425.994 376.215 432.856H376.291Z" fill="#B8BFD5"/>
<path d="M386.257 430.126C390.235 437.367 392.508 444.267 393.19 450.485C393.569 453.859 393.493 457.081 392.925 460C390.879 471.109 382.506 478.767 368.943 480.359C367.238 480.549 365.457 480.662 363.601 480.662C361.744 480.662 359.85 480.549 357.918 480.359C342.611 478.805 325.79 471.146 311.507 460C307.718 457.043 304.119 453.859 300.747 450.485C294.571 444.267 289.267 437.367 285.251 430.126C281.273 422.885 279 415.985 278.28 409.768C277.901 406.394 277.977 403.209 278.545 400.252C280.477 389.674 288.168 382.244 300.557 380.197C301.201 380.083 301.883 380.007 302.527 379.931C304.232 379.742 306.013 379.628 307.869 379.628C309.726 379.628 311.62 379.742 313.515 379.931C314.272 380.007 315.03 380.121 315.826 380.197C330.488 382.244 346.362 389.674 359.964 400.252C363.752 403.209 367.351 406.394 370.723 409.768C376.899 415.985 382.203 422.885 386.219 430.126H386.257Z" fill="#F1F3F7"/>
<path d="M383.492 430.125C387.28 436.987 389.402 443.47 390.046 449.384C390.425 452.607 390.311 455.602 389.819 458.407C387.886 468.947 379.968 476.188 367.125 477.666C365.533 477.856 363.828 477.932 362.086 477.932C360.343 477.932 358.524 477.856 356.744 477.666C342.271 476.188 326.358 468.947 312.833 458.407C309.234 455.602 305.824 452.607 302.641 449.384C296.807 443.508 291.768 436.987 287.979 430.125C284.191 423.263 282.069 416.78 281.387 410.866C281.046 407.682 281.122 404.649 281.614 401.843C283.433 391.835 290.707 384.821 302.414 382.85C303.02 382.736 303.664 382.66 304.308 382.584C305.9 382.395 307.605 382.319 309.347 382.319C311.09 382.319 312.909 382.395 314.689 382.584C315.409 382.66 316.129 382.736 316.849 382.85C330.715 384.783 345.756 391.835 358.6 401.843C362.199 404.649 365.609 407.644 368.754 410.866C374.588 416.743 379.627 423.263 383.416 430.125H383.492Z" fill="#B8BFD5"/>
<path d="M346.853 425.69L385.839 434.827C387.43 438.315 388.566 441.727 389.324 445.025L351.627 439.679L379.474 473.686C378.299 474.406 377.011 475.013 375.647 475.582C374.283 476.112 372.843 476.567 371.366 476.946L340.526 444.153L329.387 469.023C325.447 467.014 321.583 464.701 317.794 462.085L324.652 434.637L285.666 425.5C284.075 422.013 282.938 418.601 282.181 415.302L319.878 420.61L292.031 386.603C293.206 385.883 294.494 385.276 295.858 384.708C297.222 384.177 298.661 383.722 300.139 383.343L330.979 416.136L342.117 391.266C346.02 393.276 349.922 395.588 353.673 398.204L346.815 425.652L346.853 425.69ZM343.368 427.055L332.494 420.534L324.879 423.567L328.137 433.159L339.011 439.679L346.626 436.646L343.368 427.055Z" fill="#F1F3F7"/>
<path d="M345.336 426.296C351.019 432.779 351.322 439.717 346.056 441.84C340.752 443.963 331.849 440.437 326.166 433.954C320.483 427.471 320.179 420.534 325.446 418.411C330.75 416.288 339.653 419.813 345.336 426.296Z" fill="#F1F3F7"/>
<path d="M15.8809 443.938L52.3865 410.232L63.1213 400.316L120.065 347.742H266.913L231.749 489.626L231.233 490.521L224.317 502.468L168.337 599.352H-6.862L15.8809 443.869V443.938ZM234.605 442.63L255.558 358.105H122.439L71.6198 404.895L60.8849 414.776L30.6414 442.63H234.639H234.605Z" fill="#D7DDEE"/>
<path d="M500.487 434.728L507.127 444.885L581.068 396.546C590.392 390.452 593.007 377.92 586.917 368.59C584.508 364.871 585.54 359.879 589.256 357.469L628.824 331.612C629.856 330.924 629.203 328.135 627.345 325.312L627.276 325.209C625.452 322.454 623.182 320.802 622.184 321.456L582.616 347.312C573.292 353.406 570.677 365.939 576.767 375.269C579.175 378.987 578.143 383.98 574.427 386.39L500.487 434.763V434.728Z" fill="#E7EBF7"/>
<path opacity="0.25" d="M506.851 437.689L510.258 442.888L581.101 396.546C590.426 390.452 593.04 377.92 586.95 368.59C584.542 364.871 585.574 359.879 589.29 357.469L628.858 331.612C629.89 330.924 629.236 328.135 627.378 325.312L627.31 325.208L589.015 350.273C580.585 355.782 577.661 366.558 581.652 375.441C584.198 381.087 582.202 388.455 577.007 391.864L506.92 437.724L506.851 437.689Z" fill="#B0B5C6"/>
<path d="M354.158 499.457L381.305 541.013L522.751 448.501C524.781 447.193 522.029 439.239 516.489 429.703C515.423 427.878 514.253 425.984 513.014 424.056C507.303 415.311 501.35 408.494 497.6 406.084C491.785 408.873 486.521 415.07 481.05 417.652C473.962 420.992 468.217 426.535 461.473 430.426C458.514 432.113 455.211 432.388 452.149 433.8C447.263 436.072 443.891 440.41 439.418 443.337C432.227 448.053 425.552 453.011 418.292 457.763C414.989 459.932 411.961 461.997 408.314 463.443C405.596 464.511 403.085 465.612 400.607 467.231C397.339 469.365 394.414 471.706 391.489 474.082C388.014 476.94 383.714 478.937 380.032 481.588C377.451 483.447 375.662 485.995 373.357 488.026C370.949 490.126 367.818 491.366 365.099 492.881C362.072 494.533 359.044 496.427 356.119 498.183C355.5 498.561 354.881 499.009 354.227 499.525L354.158 499.457Z" fill="#E7EBF7"/>
<path opacity="0.25" d="M381.305 541.012L522.751 448.5C524.781 447.192 522.029 439.239 516.489 429.702L375.043 522.213C380.582 531.785 383.335 539.704 381.305 541.012Z" fill="#B0B5C6"/>
</g>
<defs>
<clipPath id="clip0_7122_12987">
<rect width="960" height="468" fill="white" transform="matrix(-1 0 0 1 960 0)"/>
</clipPath>
</defs>
</svg>
