<svg width="25" height="20" viewBox="0 0 25 20" fill="none" xmlns="http://www.w3.org/2000/svg">
<path d="M4.86603 19.2344V17.9984C4.87328 17.8945 4.85828 17.7902 4.82204 17.6925C4.78579 17.5948 4.72913 17.5059 4.65584 17.4318C4.58254 17.3578 4.4943 17.3002 4.39698 17.2629C4.29967 17.2256 4.19553 17.2095 4.09151 17.2157C3.95537 17.2068 3.81933 17.2346 3.6976 17.2962C3.57586 17.3578 3.47287 17.4509 3.39937 17.5659C3.33238 17.4543 3.23657 17.363 3.12201 17.3013C3.00745 17.2397 2.8784 17.2101 2.74843 17.2157C2.63514 17.21 2.52233 17.234 2.42117 17.2853C2.32 17.3366 2.23399 17.4134 2.17165 17.5082V17.2651H1.74316V19.2344H2.17575V18.1426C2.16639 18.0753 2.17208 18.0067 2.19239 17.9417C2.2127 17.8768 2.24713 17.8172 2.29322 17.7672C2.3393 17.7172 2.39589 17.678 2.45893 17.6524C2.52196 17.6269 2.58987 17.6156 2.65778 17.6194C2.94205 17.6194 3.08627 17.8048 3.08627 18.1385V19.2344H3.51885V18.1426C3.5102 18.0754 3.51638 18.0071 3.53695 17.9425C3.55752 17.8779 3.59198 17.8185 3.63792 17.7687C3.68386 17.7188 3.74016 17.6796 3.80286 17.6538C3.86556 17.628 3.93315 17.6163 4.00088 17.6194C4.29337 17.6194 4.43344 17.8048 4.43344 18.1385V19.2344H4.86603ZM11.2683 17.2651H10.5679V16.6677H10.1354V17.2651H9.73572V17.6565H10.1354V18.5546C10.1354 19.0119 10.3125 19.2839 10.8193 19.2839C11.0086 19.2844 11.1942 19.2316 11.3548 19.1314L11.2312 18.7647C11.1163 18.8333 10.9859 18.8716 10.8522 18.876C10.638 18.876 10.5679 18.7441 10.5679 18.5464V17.6565H11.2683V17.2651ZM14.9226 17.2157C14.8182 17.2126 14.7148 17.2378 14.6235 17.2885C14.5321 17.3393 14.4561 17.4137 14.4036 17.5041V17.2651H13.9792V19.2344H14.4077V18.1303C14.4077 17.8048 14.5477 17.6235 14.8279 17.6235C14.9196 17.6223 15.0105 17.6391 15.0957 17.673L15.2275 17.2692C15.1297 17.2342 15.0266 17.2161 14.9226 17.2157ZM9.39791 17.4217C9.15538 17.2775 8.87652 17.206 8.59453 17.2157C8.09601 17.2157 7.77468 17.4546 7.77468 17.846C7.77468 18.1674 8.01362 18.3651 8.45443 18.4269L8.65631 18.4557C8.89113 18.4887 9.00239 18.5505 9.00239 18.6617C9.00239 18.8142 8.84581 18.9007 8.55332 18.9007C8.31803 18.9075 8.08731 18.8349 7.89825 18.6947L7.69639 19.0284C7.94596 19.2027 8.24491 19.2923 8.5492 19.2839C9.11774 19.2839 9.44731 19.016 9.44731 18.6411C9.44731 18.2951 9.18779 18.1138 8.75932 18.052L8.55746 18.0231C8.37204 17.9984 8.22375 17.9614 8.22375 17.8296C8.22375 17.6853 8.36378 17.5988 8.59864 17.5988C8.81429 17.6021 9.02556 17.6602 9.21251 17.7677L9.39791 17.4217ZM20.8759 17.2157C20.7714 17.2126 20.668 17.2378 20.5767 17.2885C20.4853 17.3393 20.4093 17.4137 20.3568 17.5041V17.2651H19.9324V19.2344H20.3609V18.1303C20.3609 17.8048 20.501 17.6235 20.7811 17.6235C20.8727 17.6223 20.9638 17.6391 21.0489 17.673L21.1807 17.2692C21.0829 17.2342 20.9798 17.2161 20.8759 17.2157ZM15.3552 18.2497C15.3495 18.3885 15.3729 18.5268 15.4239 18.656C15.4749 18.7851 15.5524 18.9022 15.6514 18.9996C15.7503 19.097 15.8686 19.1726 15.9985 19.2216C16.1284 19.2705 16.2672 19.2917 16.4058 19.2839C16.6631 19.2968 16.9158 19.213 17.1144 19.049L16.9084 18.7029C16.7603 18.8158 16.5797 18.878 16.3934 18.8801C16.2329 18.8703 16.0821 18.7997 15.9718 18.6825C15.8616 18.5654 15.8002 18.4106 15.8002 18.2498C15.8002 18.0889 15.8616 17.9341 15.9718 17.817C16.0821 17.6998 16.2329 17.6292 16.3934 17.6194C16.5797 17.6215 16.7603 17.6837 16.9084 17.7966L17.1144 17.4505C16.9158 17.2865 16.663 17.2028 16.4058 17.2157C16.2672 17.2078 16.1285 17.229 15.9985 17.278C15.8686 17.3269 15.7504 17.4025 15.6514 17.4999C15.5524 17.5973 15.475 17.7143 15.424 17.8435C15.3729 17.9726 15.3495 18.111 15.3552 18.2497ZM19.368 18.2497V17.2651H18.9395V17.5041C18.8664 17.4098 18.7717 17.3345 18.6635 17.2843C18.5553 17.2341 18.4366 17.2106 18.3174 17.2157C18.0519 17.2287 17.8016 17.3433 17.6183 17.5358C17.435 17.7283 17.3328 17.984 17.3328 18.2498C17.3328 18.5156 17.435 18.7712 17.6183 18.9637C17.8016 19.1562 18.0519 19.2708 18.3174 19.2839C18.4366 19.289 18.5553 19.2654 18.6635 19.2152C18.7717 19.1651 18.8664 19.0897 18.9395 18.9954V19.2344H19.368V18.2497ZM17.7736 18.2497C17.7802 18.1335 17.8207 18.0218 17.8901 17.9283C17.9595 17.8349 18.0547 17.7638 18.164 17.7238C18.2734 17.6838 18.392 17.6767 18.5053 17.7033C18.6186 17.7299 18.7216 17.7891 18.8017 17.8736C18.8818 17.9581 18.9354 18.0642 18.9559 18.1787C18.9764 18.2933 18.9629 18.4114 18.9171 18.5184C18.8713 18.6254 18.7952 18.7167 18.6982 18.7809C18.6011 18.8452 18.4874 18.8797 18.371 18.8801C18.2894 18.8812 18.2085 18.8654 18.1333 18.8337C18.0581 18.8019 17.9903 18.755 17.9342 18.6958C17.8781 18.6365 17.8348 18.5663 17.8072 18.4896C17.7795 18.4128 17.7681 18.3311 17.7736 18.2497ZM12.6032 17.2157C12.336 17.2297 12.0846 17.3467 11.9018 17.5421C11.719 17.7375 11.619 17.9961 11.6227 18.2636C11.6264 18.5312 11.7336 18.7869 11.9218 18.9771C12.11 19.1673 12.3645 19.2773 12.632 19.2839C12.926 19.2942 13.2134 19.1959 13.4395 19.0078L13.2294 18.6906C13.0667 18.821 12.8652 18.8935 12.6567 18.8966C12.5151 18.9085 12.3745 18.8648 12.2645 18.7749C12.1546 18.6849 12.0839 18.5556 12.0676 18.4145H13.5301C13.5343 18.361 13.5384 18.3074 13.5384 18.2497C13.5343 17.6359 13.1552 17.2157 12.6032 17.2157ZM12.5949 17.5988C12.7243 17.5963 12.8495 17.6452 12.9429 17.7348C13.0364 17.8243 13.0905 17.9473 13.0934 18.0767H12.0717C12.0792 17.9445 12.1382 17.8205 12.2359 17.7312C12.3337 17.6419 12.4626 17.5944 12.5949 17.5988ZM23.3437 18.2497V16.4741H22.9152V17.5041C22.8421 17.4098 22.7474 17.3345 22.6392 17.2843C22.5309 17.2341 22.4123 17.2106 22.2931 17.2157C22.0276 17.2287 21.7773 17.3433 21.594 17.5358C21.4107 17.7283 21.3084 17.984 21.3084 18.2498C21.3084 18.5156 21.4107 18.7712 21.594 18.9637C21.7773 19.1562 22.0276 19.2709 22.2931 19.2839C22.4123 19.2889 22.531 19.2654 22.6392 19.2152C22.7474 19.1651 22.8421 19.0897 22.9152 18.9954V19.2344H23.3437V18.2497ZM24.0579 18.949C24.0845 18.9488 24.1109 18.9541 24.1354 18.9644C24.159 18.9742 24.1805 18.9885 24.1987 19.0064C24.2168 19.0242 24.2313 19.0454 24.2414 19.0687C24.2517 19.0927 24.257 19.1185 24.257 19.1446C24.257 19.1708 24.2517 19.1966 24.2414 19.2206C24.2313 19.2438 24.2168 19.2649 24.1987 19.2827C24.1804 19.3006 24.159 19.3149 24.1354 19.3249C24.1109 19.3354 24.0845 19.3407 24.0579 19.3405C24.0187 19.3409 23.9803 19.3297 23.9474 19.3084C23.9145 19.2871 23.8886 19.2565 23.873 19.2206C23.8627 19.1966 23.8574 19.1707 23.8574 19.1446C23.8574 19.1185 23.8627 19.0927 23.873 19.0687C23.883 19.0454 23.8974 19.0242 23.9155 19.0064C23.9337 18.9883 23.9553 18.9741 23.979 18.9644C24.004 18.954 24.0308 18.9488 24.0579 18.949ZM24.0579 19.2973C24.0782 19.2975 24.0983 19.2934 24.1169 19.2853C24.1348 19.2776 24.1511 19.2665 24.1649 19.2527C24.1933 19.224 24.2093 19.1852 24.2093 19.1447C24.2093 19.1043 24.1933 19.0655 24.1649 19.0368C24.1511 19.023 24.1348 19.0121 24.1169 19.0044C24.0983 18.9965 24.0782 18.9925 24.0579 18.9927C24.0372 18.9925 24.0168 18.9965 23.9977 19.0044C23.9795 19.0119 23.963 19.0229 23.949 19.0368C23.9206 19.0655 23.9046 19.1043 23.9046 19.1447C23.9046 19.1852 23.9206 19.224 23.949 19.2527C23.963 19.2666 23.9795 19.2777 23.9977 19.2853C24.0167 19.2934 24.0372 19.2975 24.0579 19.2973ZM24.0694 19.0531C24.0887 19.0518 24.1078 19.0574 24.1234 19.0687C24.1296 19.0738 24.1346 19.0804 24.1379 19.0877C24.1412 19.0951 24.1427 19.1031 24.1423 19.1112C24.1426 19.1181 24.1413 19.125 24.1387 19.1314C24.1361 19.1378 24.1322 19.1435 24.1272 19.1483C24.1153 19.1589 24.1002 19.1653 24.0843 19.1663L24.1438 19.2349H24.0973L24.0421 19.1668H24.0243V19.2349H23.9855V19.0531H24.0694ZM24.0243 19.0872V19.1357H24.069C24.0775 19.1361 24.086 19.134 24.0934 19.1296C24.0964 19.1276 24.0989 19.1249 24.1005 19.1216C24.1021 19.1184 24.1028 19.1148 24.1025 19.1112C24.1027 19.1076 24.102 19.1041 24.1004 19.1009C24.0988 19.0978 24.0964 19.0951 24.0934 19.0932C24.086 19.0888 24.0775 19.0868 24.069 19.0872H24.0243ZM21.7493 18.2497C21.7559 18.1335 21.7965 18.0218 21.8658 17.9284C21.9352 17.8349 22.0304 17.7638 22.1398 17.7238C22.2491 17.6838 22.3677 17.6767 22.481 17.7034C22.5943 17.73 22.6973 17.7892 22.7774 17.8737C22.8575 17.9581 22.911 18.0642 22.9315 18.1788C22.952 18.2934 22.9386 18.4114 22.8928 18.5184C22.847 18.6254 22.7708 18.7167 22.6738 18.781C22.5768 18.8452 22.463 18.8797 22.3466 18.8801C22.2651 18.8812 22.1841 18.8654 22.109 18.8336C22.0338 18.8019 21.966 18.755 21.9099 18.6957C21.8538 18.6365 21.8105 18.5663 21.7829 18.4895C21.7552 18.4128 21.7438 18.3311 21.7493 18.2497ZM7.28029 18.2497V17.2651H6.8518V17.5041C6.77867 17.4098 6.68403 17.3345 6.5758 17.2843C6.46757 17.2341 6.34889 17.2106 6.2297 17.2157C5.96421 17.2287 5.7139 17.3433 5.5306 17.5358C5.3473 17.7283 5.24507 17.984 5.24507 18.2498C5.24507 18.5156 5.3473 18.7712 5.5306 18.9637C5.7139 19.1562 5.96421 19.2708 6.2297 19.2839C6.34889 19.289 6.46757 19.2654 6.5758 19.2152C6.68403 19.1651 6.77867 19.0897 6.8518 18.9954V19.2344H7.28029V18.2497ZM5.68591 18.2497C5.69256 18.1335 5.73308 18.0218 5.80247 17.9284C5.87185 17.8349 5.96707 17.7638 6.07638 17.7238C6.18569 17.6838 6.30431 17.6767 6.41762 17.7034C6.53092 17.73 6.63396 17.7892 6.71402 17.8737C6.79408 17.9581 6.84766 18.0642 6.86816 18.1788C6.88866 18.2934 6.87518 18.4114 6.82938 18.5184C6.78359 18.6254 6.70747 18.7167 6.61043 18.781C6.51339 18.8452 6.39966 18.8797 6.28327 18.8801C6.20169 18.8812 6.12076 18.8654 6.04559 18.8336C5.97042 18.8019 5.90264 18.755 5.84652 18.6957C5.7904 18.6365 5.74716 18.5663 5.71951 18.4895C5.69187 18.4128 5.68043 18.3311 5.68591 18.2497Z" fill="#231F20"/>
<path d="M15.7451 2.25708H9.25537V13.9192H15.7451V2.25708Z" fill="#FF5F00"/>
<path d="M9.66737 8.08866C9.66635 6.96551 9.92086 5.85685 10.4116 4.84661C10.9024 3.83636 11.6166 2.95101 12.5002 2.25759C11.406 1.39758 10.092 0.862749 8.70829 0.714234C7.32457 0.565718 5.92699 0.809508 4.67527 1.41774C3.42356 2.02597 2.36822 2.97409 1.62988 4.15375C0.891546 5.33341 0.5 6.697 0.5 8.08866C0.5 9.48033 0.891546 10.8439 1.62988 12.0236C2.36822 13.2032 3.42356 14.1514 4.67527 14.7596C5.92699 15.3678 7.32457 15.6116 8.70829 15.4631C10.092 15.3146 11.406 14.7798 12.5002 13.9197C11.6166 13.2263 10.9024 12.341 10.4117 11.3307C9.92087 10.3205 9.66635 9.21181 9.66737 8.08866Z" fill="#EB001B"/>
<path d="M24.5 8.08866C24.5001 9.4803 24.1086 10.8439 23.3703 12.0235C22.632 13.2032 21.5767 14.1513 20.325 14.7596C19.0733 15.3678 17.6757 15.6116 16.292 15.4631C14.9083 15.3146 13.5943 14.7797 12.5002 13.9197C13.383 13.2256 14.0966 12.3401 14.5873 11.33C15.078 10.3199 15.333 9.21163 15.333 8.08866C15.333 6.96569 15.078 5.85738 14.5873 4.84729C14.0966 3.83721 13.383 2.95171 12.5002 2.25758C13.5943 1.39757 14.9083 0.862746 16.292 0.714232C17.6757 0.565719 19.0733 0.809513 20.325 1.41775C21.5767 2.02598 22.632 2.97412 23.3703 4.15377C24.1086 5.33343 24.5001 6.69701 24.5 8.08866Z" fill="#F79E1B"/>
<path d="M23.7925 12.6844V12.4456H23.8887V12.397H23.6436V12.4456H23.7399V12.6844H23.7925ZM24.2685 12.6844V12.3965H24.1933L24.1069 12.5945L24.0204 12.3965H23.9452V12.6844H23.9983V12.4672L24.0794 12.6544H24.1344L24.2154 12.4667V12.6844H24.2685Z" fill="#F79E1B"/>
</svg>
