<svg width="25" height="8" viewBox="0 0 25 8" fill="none" xmlns="http://www.w3.org/2000/svg">
<path fill-rule="evenodd" clip-rule="evenodd" d="M2.71936 0.719867C2.93377 0.718584 3.57099 0.661193 3.84091 1.57216C4.02273 2.18579 4.31235 3.19096 4.70979 4.58765H4.87164C5.29786 3.11516 5.59064 2.11 5.75 1.57216C6.02273 0.651703 6.70455 0.719885 6.97727 0.719885L9.08143 0.719888V7.26533H6.93682V3.40799H6.793L5.59749 7.26533H3.98394L2.78842 3.40513H2.64461V7.26533H0.5V0.719888L2.71936 0.719867ZM12.161 0.719888V4.5801H12.3321L13.7864 1.40587C14.0687 0.774195 14.6703 0.719888 14.6703 0.719888H16.7457V7.26534H14.5563V3.40513H14.3852L12.9595 6.57935C12.6772 7.20817 12.047 7.26534 12.047 7.26534H9.97165V0.719888H12.161ZM24.3132 3.83033C24.0078 4.69576 23.0487 5.31555 21.9869 5.31555H19.6909V7.26534H17.6089V3.83033H24.3132Z" fill="#0F754E"/>
<path fill-rule="evenodd" clip-rule="evenodd" d="M22.0874 0.719971H17.4998C17.6089 2.17721 18.8639 3.4247 20.163 3.4247H24.4579C24.7058 2.21356 23.8525 0.719971 22.0874 0.719971Z" fill="url(#paint0_linear_4878_93622)"/>
<defs>
<linearGradient id="paint0_linear_4878_93622" x1="24.5" y1="2.42136" x2="17.4998" y2="2.42136" gradientUnits="userSpaceOnUse">
<stop stop-color="#1F5CD7"/>
<stop offset="1" stop-color="#02AEFF"/>
</linearGradient>
</defs>
</svg>
