<svg width="25" height="24" viewBox="0 0 25 24" fill="none" xmlns="http://www.w3.org/2000/svg">
<path d="M2.8999 5.22412L5.8063 10.4191V13.5879L2.9033 18.7727L2.8999 5.22412Z" fill="#5B57A2"/>
<path d="M14.0593 8.52865L16.7827 6.85945L22.3563 6.85425L14.0593 11.937V8.52865Z" fill="#D90751"/>
<path d="M14.044 5.19339L14.0594 12.0714L11.1462 10.2814V0L14.0442 5.19339H14.044Z" fill="#FAB718"/>
<path d="M22.3564 6.85419L16.7826 6.85939L14.044 5.19339L11.1462 0L22.3562 6.85419H22.3564Z" fill="#ED6F26"/>
<path d="M14.0594 18.8015V15.4645L11.1462 13.7085L11.1478 24.0001L14.0594 18.8015Z" fill="#63B22F"/>
<path d="M16.7759 17.1475L5.8061 10.4191L2.8999 5.22412L22.3445 17.1407L16.7757 17.1475H16.7759Z" fill="#1487C9"/>
<path d="M11.1479 24L14.0591 18.8014L16.7757 17.1474L22.3443 17.1406L11.1479 24Z" fill="#017F36"/>
<path d="M2.90332 18.7726L11.1699 13.7086L8.39072 12.0034L5.80632 13.5878L2.90332 18.7726Z" fill="#984995"/>
</svg>
