<svg width="25" height="8" viewBox="0 0 25 8" fill="none" xmlns="http://www.w3.org/2000/svg">
<path d="M12.3832 0.24628L10.7798 7.7425H8.84041L10.444 0.24628H12.3832ZM20.5422 5.08668L21.563 2.2717L22.1504 5.08668H20.5422ZM22.7067 7.7425H24.5L22.9334 0.24628H21.2792C20.9064 0.24628 20.5921 0.462428 20.453 0.795754L17.5431 7.7425H19.5799L19.9842 6.62298H22.4719L22.7067 7.7425ZM17.6441 5.29524C17.6526 3.31686 14.9092 3.20727 14.9276 2.32329C14.9335 2.05471 15.1898 1.76859 15.7499 1.69542C16.0276 1.65967 16.7939 1.63067 17.6625 2.03093L18.0022 0.440678C17.5357 0.271907 16.9353 0.109375 16.1883 0.109375C14.2711 0.109375 12.9224 1.12773 12.9116 2.58715C12.8993 3.66637 13.875 4.26811 14.6086 4.62757C15.365 4.99496 15.6184 5.23049 15.6147 5.55876C15.6094 6.0617 15.0116 6.28443 14.4549 6.29286C13.4793 6.30803 12.9138 6.02916 12.4632 5.81909L12.1111 7.46245C12.565 7.67017 13.4013 7.85091 14.2672 7.86018C16.3054 7.86018 17.6381 6.8538 17.6441 5.29524ZM9.6121 0.24628L6.46986 7.7425H4.42017L2.87375 1.75999C2.78001 1.3921 2.69823 1.25688 2.41313 1.10143C1.94678 0.848189 1.17694 0.611304 0.5 0.463945L0.54586 0.24628H3.84574C4.26606 0.24628 4.64424 0.525991 4.74051 1.01022L5.55739 5.34835L7.57471 0.24628H9.6121Z" fill="#1434CB"/>
</svg>
