<svg width="43" height="24" viewBox="0 0 43 24" fill="none" xmlns="http://www.w3.org/2000/svg">
<path d="M27.5233 5.76001V17.1016H25.5515V7.29397H22.0318V17.1016H20.0601V5.76001H27.5233Z" fill="black" fill-opacity="0.86"/>
<path d="M30.8251 17.2647C29.956 17.2647 29.2879 17.0961 28.8208 16.7588V15.1759C29.0707 15.35 29.3422 15.486 29.6355 15.5839C29.9397 15.6818 30.2982 15.7307 30.711 15.7307C31.3303 15.7307 31.7974 15.5512 32.1125 15.1922C32.4275 14.8223 32.623 14.3164 32.6991 13.6746H29.8474V12.1406H32.6828C32.4981 10.8895 31.8571 10.2639 30.7599 10.2639C30.4232 10.2639 30.0864 10.3183 29.7496 10.4271C29.4237 10.5359 29.163 10.6502 28.9674 10.7698V9.12165C29.1739 9.01282 29.4509 8.92036 29.7985 8.8442C30.1462 8.76803 30.5644 8.72998 31.0533 8.72998C31.6616 8.72998 32.1939 8.83879 32.6502 9.05636C33.1173 9.26306 33.503 9.5568 33.8071 9.93757C34.1222 10.3075 34.3557 10.759 34.5078 11.292C34.6708 11.8142 34.7523 12.3854 34.7523 13.0055C34.7523 14.3871 34.4264 15.4424 33.7746 16.1714C33.1336 16.9002 32.1504 17.2647 30.8251 17.2647Z" fill="black" fill-opacity="0.86"/>
<path d="M39.3609 7.81618C38.5787 7.81618 37.9867 7.62035 37.5847 7.2287C37.1937 6.83705 36.9981 6.34749 36.9981 5.76001H38.6276C38.6276 6.04287 38.6928 6.24958 38.8232 6.38013C38.9644 6.51067 39.1436 6.57595 39.3609 6.57595C39.5673 6.57595 39.7303 6.51067 39.8498 6.38013C39.9693 6.2387 40.029 6.03199 40.029 5.76001H41.6586C41.6586 6.04287 41.6097 6.30941 41.5119 6.55963C41.4141 6.80985 41.2675 7.02744 41.0719 7.21238C40.8873 7.39733 40.6482 7.5442 40.3549 7.65299C40.0725 7.76178 39.7411 7.81618 39.3609 7.81618ZM37.9269 8.8932V13.9847L40.8927 8.8932H42.62V17.1016H40.746V12.0264L37.7803 17.1016H36.053V8.8932H37.9269Z" fill="black" fill-opacity="0.86"/>
<mask id="mask0_4878_93647" style="mask-type:luminance" maskUnits="userSpaceOnUse" x="0" y="4" width="16" height="16">
<path d="M15.7399 11.989C15.7399 7.75358 12.3014 4.32007 8.05988 4.32007C3.81834 4.32007 0.379883 7.75358 0.379883 11.989V12.0111C0.379883 16.2466 3.81834 19.6801 8.05988 19.6801C12.3014 19.6801 15.7399 16.2466 15.7399 12.0111V11.989Z" fill="white"/>
</mask>
<g mask="url(#mask0_4878_93647)">
<path d="M8.05988 19.6801C12.3014 19.6801 15.7399 16.2416 15.7399 12.0001C15.7399 7.75852 12.3014 4.32007 8.05988 4.32007C3.81834 4.32007 0.379883 7.75852 0.379883 12.0001C0.379883 16.2416 3.81834 19.6801 8.05988 19.6801Z" fill="black" fill-opacity="0.86"/>
<path d="M9.14218 16.6147H10.7467V7.39868H8.41283C6.06576 7.39868 4.83253 8.60538 4.83253 10.3823C4.83253 11.8012 5.50883 12.6366 6.71551 13.4985L4.62036 16.6147H6.35749L8.6913 13.1272L7.88244 12.5835C6.90115 11.9205 6.42378 11.4033 6.42378 10.2895C6.42378 9.30819 7.11333 8.64516 8.4261 8.64516H9.14218V16.6147Z" fill="white"/>
</g>
</svg>
