<svg width="377" height="351" viewBox="0 0 377 351" fill="none" xmlns="http://www.w3.org/2000/svg">
<g clip-path="url(#clip0_7115_6249)">
<rect width="376.082" height="351" fill="#182136"/>
<path d="M420.985 375.287C421.581 377.339 420.399 379.486 418.342 380.088L304.888 412.992C302.836 413.588 300.683 412.402 300.087 410.35L253.585 250.024C252.989 247.972 254.171 245.825 256.228 245.223L369.686 212.313C371.738 211.717 373.885 212.899 374.487 214.955L420.996 375.285L420.985 375.287Z" fill="#2B3B64"/>
<path d="M413.135 350.401L339.951 201.387L413.135 350.401ZM413.135 350.401L413.119 350.399L413.526 351.229C414.346 352.902 413.658 354.924 411.979 355.751M413.135 350.401L411.979 355.751M411.979 355.751L305.948 407.823L411.979 355.751ZM301.427 406.277L301.427 406.278C302.247 407.951 304.275 408.644 305.948 407.824L301.427 406.277ZM301.427 406.277L227.841 256.437M301.427 406.277L227.841 256.437M227.841 256.437L227.841 256.437C227.021 254.764 227.709 252.742 229.387 251.915L227.841 256.437ZM229.387 251.915L335.429 199.841L229.387 251.915ZM335.429 199.841C337.102 199.021 339.124 199.709 339.951 201.387L335.429 199.841Z" fill="#2B3B64" stroke="#182136" stroke-width="0.989691"/>
<path fill-rule="evenodd" clip-rule="evenodd" d="M420.996 375.285L420.985 375.287C420.985 375.288 420.985 375.288 420.985 375.288C420.999 375.335 421.012 375.382 421.023 375.429C421.059 375.573 421.087 375.717 421.106 375.861C421.112 375.909 421.118 375.957 421.122 376.006C421.294 377.819 420.159 379.556 418.342 380.088L304.888 412.992C302.836 413.588 300.683 412.402 300.087 410.35L253.585 250.024C252.989 247.972 254.171 245.825 256.228 245.223L369.686 212.313C371.738 211.717 373.885 212.899 374.487 214.955L420.996 375.285ZM256.505 246.173C256.505 246.173 256.505 246.173 256.505 246.173C254.97 246.623 254.093 248.223 254.536 249.748L301.038 410.074C301.482 411.602 303.086 412.485 304.612 412.042L418.064 379.138C419.6 378.689 420.477 377.088 420.035 375.563L419.731 374.519L419.743 374.517L373.537 215.233M256.505 246.173L369.962 213.263C371.486 212.82 373.086 213.697 373.537 215.231" fill="#182136"/>
<path d="M413.342 350.847C414.283 352.765 413.493 355.083 411.57 356.031L305.538 408.103C303.62 409.044 301.295 408.25 300.355 406.331L226.769 256.49C225.828 254.572 226.618 252.254 228.541 251.306L334.583 199.232C336.502 198.291 338.82 199.081 339.767 201.004L413.359 350.849L413.342 350.847Z" fill="#2B3B64"/>
<path d="M242.298 263.241L334.624 225.256C334.82 225.178 334.877 224.95 334.764 224.745C334.651 224.541 334.403 224.448 334.208 224.526L241.892 262.51C241.697 262.588 241.64 262.816 241.753 263.02C241.866 263.225 242.114 263.317 242.305 263.246L242.298 263.241Z" fill="#2B3B64"/>
<path d="M245.861 271.839L304.299 247.799C304.495 247.721 304.552 247.493 304.446 247.294C304.333 247.089 304.085 246.996 303.89 247.074L245.447 271.121C245.252 271.199 245.194 271.427 245.3 271.626C245.417 271.825 245.661 271.924 245.857 271.846L245.861 271.839Z" fill="#2B3B64"/>
<path d="M306.873 242.129C306.678 242.207 306.62 242.436 306.726 242.635C306.839 242.839 307.087 242.932 307.282 242.854L336.002 231.039C336.197 230.961 336.255 230.732 336.149 230.533C336.036 230.329 335.788 230.236 335.593 230.314L306.877 242.123L306.873 242.129Z" fill="#2B3B64"/>
<path d="M249.417 278.16L330.978 244.61C331.174 244.532 331.231 244.304 331.125 244.105C331.012 243.9 330.764 243.807 330.573 243.879L249.012 277.429C248.816 277.507 248.759 277.735 248.865 277.934C248.978 278.138 249.226 278.231 249.417 278.16Z" fill="#2B3B64"/>
<path d="M252.98 285.964L320.542 258.167C320.738 258.089 320.795 257.861 320.689 257.661C320.576 257.457 320.328 257.364 320.137 257.436L252.575 285.233C252.379 285.311 252.322 285.54 252.435 285.744C252.548 285.948 252.796 286.041 252.991 285.963L252.98 285.964Z" fill="#2B3B64"/>
<path d="M256.533 292.573L340.175 258.161C340.371 258.083 340.428 257.855 340.322 257.656C340.209 257.452 339.961 257.359 339.77 257.43L256.121 291.837C255.925 291.915 255.868 292.143 255.981 292.348C256.094 292.552 256.342 292.645 256.533 292.573Z" fill="#2B3B64"/>
<path d="M260.096 300.365L330.069 271.579C330.265 271.501 330.322 271.272 330.209 271.068C330.096 270.864 329.848 270.771 329.652 270.849L259.679 299.635C259.484 299.713 259.427 299.941 259.532 300.141C259.645 300.345 259.893 300.438 260.085 300.366L260.096 300.365Z" fill="#2B3B64"/>
<path d="M263.653 307.312L341.042 275.471C341.23 275.388 341.295 275.164 341.182 274.96C341.069 274.756 340.821 274.663 340.629 274.735L263.24 306.576C263.045 306.654 262.987 306.882 263.093 307.081C263.206 307.286 263.454 307.379 263.646 307.307L263.653 307.312Z" fill="#2B3B64"/>
<path d="M267.208 315.131L330.12 289.253C330.308 289.17 330.372 288.947 330.259 288.743C330.146 288.538 329.899 288.445 329.703 288.523L266.798 314.406C266.603 314.484 266.546 314.713 266.659 314.917C266.772 315.121 267.02 315.214 267.215 315.136L267.208 315.131Z" fill="#2B3B64"/>
<path d="M334.136 283.262C333.941 283.34 333.884 283.568 333.99 283.768C334.103 283.972 334.35 284.064 334.545 283.986L349.35 277.891C349.545 277.813 349.602 277.585 349.496 277.386C349.379 277.188 349.136 277.089 348.94 277.167L334.129 283.257L334.136 283.262Z" fill="#2B3B64"/>
<path d="M270.767 321.374L359.011 285.072C359.206 284.994 359.263 284.765 359.158 284.566C359.045 284.362 358.797 284.269 358.601 284.347L270.362 320.643C270.166 320.722 270.109 320.95 270.215 321.149C270.328 321.353 270.576 321.446 270.767 321.374Z" fill="#2B3B64"/>
<path d="M366.251 289.744L273.918 327.723C273.722 327.801 273.665 328.03 273.771 328.229C273.884 328.433 274.132 328.526 274.323 328.454L366.649 290.47C366.845 290.392 366.902 290.164 366.796 289.964C366.679 289.766 366.435 289.667 366.24 289.745L366.251 289.744Z" fill="#2B3B64"/>
<path d="M277.887 337.052L336.324 313.012C336.52 312.934 336.577 312.706 336.464 312.502C336.351 312.298 336.103 312.205 335.912 312.277L277.47 336.323C277.275 336.401 277.217 336.629 277.323 336.828C277.436 337.033 277.684 337.126 277.88 337.048L277.887 337.052Z" fill="#2B3B64"/>
<path d="M367.613 295.533L338.893 307.348C338.705 307.431 338.641 307.655 338.754 307.859C338.867 308.063 339.115 308.156 339.306 308.084L368.025 296.269C368.214 296.186 368.278 295.963 368.165 295.758C368.052 295.554 367.804 295.461 367.609 295.539L367.613 295.533Z" fill="#2B3B64"/>
<path d="M281.443 343.373L363.004 309.824C363.199 309.746 363.257 309.517 363.151 309.318C363.038 309.114 362.79 309.021 362.598 309.093L281.037 342.642C280.842 342.72 280.785 342.948 280.891 343.148C281.004 343.352 281.251 343.445 281.447 343.367L281.443 343.373Z" fill="#2B3B64"/>
<path d="M285.006 351.179L352.569 323.381C352.757 323.299 352.821 323.075 352.708 322.871C352.591 322.673 352.347 322.574 352.152 322.652L284.59 350.449C284.394 350.527 284.337 350.755 284.443 350.955C284.556 351.159 284.8 351.258 284.995 351.18L285.006 351.179Z" fill="#2B3B64"/>
<path d="M288.558 357.786L372.201 323.374C372.396 323.296 372.454 323.068 372.341 322.864C372.228 322.66 371.98 322.567 371.784 322.645L288.142 357.056C287.953 357.139 287.889 357.363 288.002 357.567C288.115 357.771 288.363 357.864 288.554 357.792L288.558 357.786Z" fill="#2B3B64"/>
<path d="M292.122 365.578L362.095 336.792C362.283 336.709 362.348 336.485 362.235 336.281C362.122 336.077 361.874 335.984 361.682 336.056L291.709 364.842C291.514 364.92 291.457 365.148 291.562 365.348C291.675 365.552 291.923 365.645 292.119 365.567L292.122 365.578Z" fill="#2B3B64"/>
<path d="M295.678 372.524L373.067 340.683C373.263 340.605 373.32 340.377 373.214 340.177C373.101 339.973 372.853 339.88 372.662 339.952L295.276 371.787C295.088 371.87 295.023 372.093 295.136 372.298C295.249 372.502 295.497 372.595 295.689 372.523L295.678 372.524Z" fill="#2B3B64"/>
<path d="M299.24 380.349L362.145 354.466C362.34 354.388 362.398 354.16 362.292 353.961C362.179 353.756 361.931 353.664 361.735 353.742L298.831 379.624C298.635 379.702 298.571 379.926 298.684 380.13C298.797 380.334 299.045 380.427 299.236 380.355L299.24 380.349Z" fill="#2B3B64"/>
<path d="M366.155 348.471C365.967 348.554 365.903 348.777 366.015 348.982C366.132 349.179 366.376 349.278 366.571 349.2L381.381 343.11C381.577 343.033 381.634 342.804 381.521 342.6C381.408 342.396 381.16 342.304 380.965 342.382L366.155 348.471Z" fill="#2B3B64"/>
<path d="M390.626 349.56L302.382 385.863C302.187 385.941 302.13 386.169 302.243 386.374C302.356 386.578 302.604 386.671 302.799 386.593L391.038 350.296C391.234 350.218 391.291 349.99 391.185 349.791C391.072 349.586 390.824 349.493 390.633 349.565L390.626 349.56Z" fill="#2B3B64"/>
<path fill-rule="evenodd" clip-rule="evenodd" d="M242.301 263.247C242.298 263.248 242.294 263.249 242.291 263.25C242.105 263.312 241.871 263.223 241.758 263.03C241.756 263.027 241.755 263.024 241.753 263.02C241.64 262.816 241.697 262.588 241.893 262.51L334.208 224.526C334.403 224.448 334.651 224.541 334.764 224.745C334.877 224.95 334.82 225.178 334.624 225.256L242.298 263.241L242.305 263.246C242.304 263.246 242.302 263.247 242.301 263.247ZM334.353 224.899L242.121 262.848C242.128 262.855 242.137 262.861 242.147 262.865C242.15 262.866 242.152 262.867 242.154 262.867L334.396 224.917C334.389 224.911 334.381 224.906 334.372 224.903C334.362 224.899 334.356 224.899 334.353 224.899ZM245.705 271.471L304.071 247.46C304.066 247.457 304.06 247.453 304.054 247.451C304.044 247.447 304.038 247.447 304.035 247.447L245.678 271.458C245.684 271.462 245.691 271.465 245.697 271.468C245.7 271.469 245.703 271.47 245.705 271.471ZM245.857 271.846C245.661 271.924 245.417 271.825 245.3 271.626C245.194 271.427 245.252 271.199 245.447 271.121L303.89 247.074C304.085 246.996 304.333 247.089 304.446 247.294C304.552 247.493 304.495 247.721 304.299 247.799L245.861 271.839L245.857 271.846ZM304.151 247.428L304.15 247.428ZM245.595 271.492L245.596 271.492ZM307.102 242.469C307.107 242.472 307.112 242.475 307.118 242.477C307.128 242.481 307.134 242.482 307.137 242.481L335.774 230.7C335.769 230.696 335.763 230.693 335.757 230.691C335.747 230.687 335.741 230.687 335.739 230.687L307.144 242.446L307.138 242.454L307.102 242.469ZM335.593 230.314L306.877 242.123L306.873 242.13C306.678 242.207 306.62 242.436 306.726 242.635C306.839 242.839 307.087 242.932 307.282 242.854L336.002 231.039C336.198 230.961 336.255 230.732 336.149 230.533C336.036 230.329 335.788 230.236 335.593 230.314ZM249.012 277.429C248.816 277.507 248.759 277.735 248.865 277.934C248.978 278.139 249.226 278.231 249.417 278.16L330.978 244.61C331.174 244.532 331.231 244.304 331.125 244.105C331.012 243.9 330.764 243.807 330.573 243.879L249.012 277.429ZM330.71 244.255L249.239 277.768C249.245 277.772 249.252 277.776 249.26 277.779C249.27 277.783 249.277 277.784 249.28 277.784L330.751 244.271C330.745 244.267 330.738 244.263 330.731 244.26C330.72 244.256 330.714 244.255 330.71 244.255ZM249.161 277.8C249.161 277.8 249.16 277.8 249.16 277.8ZM252.981 285.967C252.982 285.967 252.981 285.967 252.981 285.967C252.964 285.973 252.945 285.979 252.927 285.982C252.744 286.02 252.536 285.926 252.435 285.744C252.322 285.54 252.379 285.311 252.575 285.233L320.137 257.436C320.328 257.364 320.576 257.457 320.689 257.661C320.795 257.861 320.738 258.089 320.542 258.167L252.98 285.964L252.991 285.963C252.988 285.964 252.985 285.966 252.981 285.967ZM320.315 257.828L252.839 285.59C252.836 285.589 252.832 285.588 252.827 285.586C252.818 285.583 252.81 285.578 252.803 285.572L320.275 257.812C320.278 257.812 320.284 257.813 320.295 257.817C320.302 257.82 320.309 257.824 320.315 257.828ZM252.723 285.605L252.724 285.605ZM256.121 291.837C255.925 291.915 255.868 292.143 255.981 292.348C256.094 292.552 256.342 292.645 256.533 292.573L340.175 258.161C340.371 258.083 340.428 257.855 340.322 257.656C340.209 257.452 339.961 257.359 339.77 257.431L256.121 291.837ZM339.907 257.806L256.349 292.176C256.356 292.182 256.366 292.188 256.376 292.192C256.386 292.196 256.393 292.197 256.396 292.197L339.948 257.823C339.942 257.818 339.935 257.814 339.928 257.811C339.917 257.807 339.91 257.807 339.907 257.806ZM256.269 292.209L256.27 292.208ZM259.679 299.635C259.484 299.713 259.427 299.941 259.533 300.141C259.645 300.345 259.893 300.438 260.085 300.366L260.096 300.365L330.069 271.579C330.265 271.501 330.322 271.272 330.209 271.068C330.096 270.864 329.848 270.771 329.653 270.849L259.679 299.635ZM329.798 271.221L259.907 299.974C259.913 299.978 259.92 299.982 259.927 299.985C259.938 299.99 259.946 299.99 259.948 299.99L259.992 299.974L259.997 299.973L329.841 271.24C329.834 271.234 329.826 271.229 329.817 271.226C329.807 271.222 329.801 271.221 329.798 271.221ZM259.829 300.006C259.828 300.006 259.828 300.006 259.828 300.007ZM263.646 307.307C263.454 307.379 263.206 307.286 263.093 307.081C262.987 306.882 263.045 306.654 263.24 306.576L340.629 274.735C340.821 274.663 341.069 274.756 341.182 274.96C341.295 275.164 341.23 275.388 341.042 275.471L263.653 307.312L263.646 307.307ZM263.703 306.859L340.814 275.132C340.806 275.125 340.797 275.12 340.787 275.116C340.777 275.112 340.77 275.111 340.767 275.111L263.468 306.915C263.474 306.919 263.481 306.923 263.488 306.926C263.499 306.931 263.506 306.931 263.509 306.931L263.703 306.859ZM263.389 306.947C263.389 306.947 263.389 306.947 263.388 306.947ZM267.211 315.138C267.207 315.139 267.204 315.14 267.201 315.141C267.01 315.209 266.774 315.118 266.662 314.923C266.661 314.921 266.66 314.919 266.659 314.917C266.546 314.713 266.603 314.484 266.799 314.406L329.703 288.523C329.899 288.445 330.147 288.538 330.26 288.743C330.372 288.947 330.308 289.17 330.12 289.253L267.212 315.129L267.208 315.131L267.215 315.136C267.214 315.137 267.212 315.137 267.211 315.138ZM329.892 288.915L267.056 314.761C267.054 314.761 267.053 314.76 267.051 314.759C267.042 314.756 267.034 314.751 267.027 314.745L329.849 288.896C329.851 288.896 329.857 288.896 329.868 288.9C329.876 288.903 329.884 288.908 329.892 288.915ZM334.366 283.602C334.371 283.605 334.376 283.608 334.382 283.61C334.391 283.614 334.398 283.614 334.4 283.614L349.118 277.554C349.112 277.55 349.106 277.547 349.1 277.545C349.092 277.542 349.087 277.541 349.084 277.541L334.958 283.349L334.973 283.359L334.366 283.602ZM334.129 283.258L334.136 283.262C334.135 283.263 334.134 283.264 334.132 283.264C334.129 283.266 334.125 283.267 334.122 283.269C334.013 283.318 333.95 283.417 333.939 283.529C333.939 283.535 333.938 283.54 333.938 283.546C333.934 283.618 333.951 283.695 333.99 283.768C334.103 283.972 334.35 284.064 334.546 283.986L349.35 277.891C349.545 277.813 349.602 277.585 349.496 277.386C349.379 277.188 349.136 277.089 348.941 277.167L334.129 283.258ZM270.362 320.644C270.166 320.722 270.109 320.95 270.215 321.149C270.328 321.353 270.576 321.446 270.767 321.374L359.011 285.072C359.206 284.994 359.264 284.765 359.158 284.566C359.045 284.362 358.797 284.269 358.601 284.347L270.362 320.644ZM358.747 284.719L270.589 320.982C270.595 320.987 270.602 320.991 270.609 320.994C270.62 320.998 270.627 320.998 270.63 320.999L358.783 284.733C358.778 284.729 358.772 284.726 358.766 284.723C358.756 284.719 358.749 284.719 358.747 284.719ZM270.511 321.015C270.511 321.015 270.51 321.015 270.51 321.015ZM273.918 327.723C273.723 327.801 273.665 328.03 273.771 328.229C273.884 328.433 274.132 328.526 274.324 328.454L366.65 290.47C366.845 290.392 366.902 290.164 366.796 289.964C366.692 289.787 366.487 289.69 366.305 289.726C366.286 289.73 366.268 289.735 366.251 289.741C366.251 289.741 366.25 289.741 366.251 289.741C366.247 289.742 366.243 289.744 366.24 289.745L366.251 289.744L366.241 289.748L273.918 327.723ZM366.418 290.132C366.412 290.129 366.406 290.125 366.4 290.123C366.396 290.121 366.392 290.12 366.389 290.119L274.145 328.062C274.152 328.067 274.158 328.071 274.166 328.074C274.176 328.078 274.183 328.078 274.186 328.079L366.418 290.132ZM274.067 328.095C274.067 328.095 274.067 328.095 274.067 328.095ZM277.47 336.323C277.275 336.401 277.217 336.629 277.323 336.828C277.436 337.033 277.684 337.126 277.88 337.048L277.887 337.053L336.325 313.013C336.52 312.935 336.577 312.706 336.464 312.502C336.351 312.298 336.103 312.205 335.912 312.277L277.47 336.323ZM336.05 312.653L277.698 336.662C277.703 336.665 277.709 336.669 277.715 336.671C277.726 336.675 277.732 336.675 277.734 336.675M277.619 336.694C277.619 336.694 277.619 336.694 277.618 336.694ZM336.05 312.653C336.053 312.653 336.059 312.653 336.07 312.657C336.08 312.661 336.089 312.667 336.096 312.674L277.937 336.599M367.613 295.533L367.609 295.539C367.611 295.539 367.613 295.538 367.615 295.537C367.616 295.537 367.617 295.537 367.617 295.536C367.755 295.485 367.917 295.517 368.04 295.612C368.09 295.651 368.133 295.7 368.165 295.758C368.278 295.963 368.214 296.186 368.025 296.269L339.306 308.084C339.115 308.156 338.867 308.063 338.754 307.859C338.641 307.655 338.705 307.431 338.894 307.349L367.613 295.533ZM339.122 307.687L367.393 296.056L367.755 295.912C367.757 295.912 367.763 295.912 367.773 295.916C367.782 295.919 367.79 295.924 367.797 295.93L339.168 307.708C339.165 307.708 339.159 307.707 339.148 307.703C339.138 307.699 339.129 307.694 339.122 307.687ZM281.441 343.369C281.44 343.369 281.44 343.37 281.439 343.37C281.301 343.421 281.138 343.389 281.016 343.294C280.966 343.255 280.923 343.206 280.891 343.148C280.785 342.948 280.842 342.72 281.037 342.642L362.598 309.093C362.79 309.021 363.038 309.114 363.151 309.318C363.257 309.517 363.199 309.746 363.004 309.824L281.443 343.373L281.447 343.367C281.445 343.368 281.443 343.368 281.441 343.369ZM281.663 342.85L362.777 309.485C362.77 309.48 362.764 309.476 362.756 309.473C362.746 309.469 362.739 309.469 362.736 309.469L281.265 342.981C281.271 342.985 281.276 342.988 281.283 342.99C281.291 342.994 281.297 342.994 281.3 342.994C281.301 342.994 281.301 342.994 281.301 342.994L281.663 342.85ZM281.187 343.013C281.186 343.013 281.186 343.013 281.186 343.013ZM284.995 351.18C284.8 351.258 284.556 351.159 284.443 350.955C284.337 350.755 284.394 350.527 284.59 350.449L352.152 322.652C352.347 322.574 352.591 322.673 352.708 322.871C352.821 323.075 352.757 323.299 352.569 323.382L285.006 351.179L284.995 351.18ZM284.907 350.787L352.337 323.044C352.329 323.038 352.32 323.033 352.312 323.03C352.304 323.026 352.298 323.025 352.296 323.025L284.816 350.789C284.823 350.795 284.831 350.8 284.839 350.803C284.845 350.805 284.85 350.806 284.852 350.807L284.898 350.788L284.907 350.787ZM284.739 350.82C284.739 350.82 284.738 350.821 284.738 350.821ZM288.409 357.415C288.405 357.415 288.401 357.413 288.397 357.411C288.387 357.407 288.378 357.402 288.37 357.395L371.93 323.017C371.933 323.017 371.939 323.017 371.949 323.021C371.958 323.025 371.966 323.03 371.973 323.036L288.409 357.415ZM371.784 322.645L288.142 357.056C287.954 357.139 287.889 357.363 288.002 357.567C288.115 357.771 288.363 357.864 288.555 357.792L288.559 357.786L372.201 323.374C372.396 323.296 372.454 323.068 372.341 322.864C372.228 322.66 371.98 322.567 371.784 322.645ZM292.037 365.589C292.065 365.585 292.092 365.578 292.118 365.567C292.118 365.567 292.118 365.567 292.119 365.567L292.122 365.578L362.095 336.792C362.283 336.709 362.348 336.485 362.235 336.281C362.122 336.077 361.874 335.984 361.683 336.056L291.709 364.842C291.514 364.92 291.457 365.148 291.563 365.348C291.66 365.524 291.859 365.618 292.037 365.589ZM291.858 365.214L291.859 365.213ZM291.937 365.181C291.942 365.185 291.948 365.188 291.955 365.19C291.965 365.194 291.971 365.194 291.973 365.194L292.386 365.029L292.388 365.036L361.867 336.453C361.859 336.446 361.85 336.441 361.84 336.437C361.83 336.433 361.823 336.432 361.82 336.432L291.937 365.181ZM295.679 372.527C295.679 372.527 295.679 372.527 295.679 372.527C295.661 372.533 295.642 372.538 295.624 372.541C295.444 372.573 295.237 372.479 295.137 372.298C295.024 372.093 295.088 371.87 295.276 371.787L372.662 339.952C372.853 339.88 373.101 339.973 373.214 340.178C373.32 340.377 373.263 340.605 373.067 340.683L295.689 372.52L295.678 372.524L295.689 372.523C295.686 372.524 295.682 372.525 295.679 372.527ZM372.84 340.344L295.545 372.146C295.541 372.146 295.537 372.144 295.531 372.142C295.521 372.138 295.512 372.133 295.504 372.126L372.799 340.328C372.803 340.328 372.809 340.329 372.82 340.333C372.827 340.336 372.834 340.34 372.84 340.344ZM299.09 379.978C299.087 379.978 299.083 379.976 299.078 379.975C299.071 379.972 299.064 379.968 299.058 379.963L361.881 354.114C361.884 354.114 361.89 354.114 361.9 354.118C361.906 354.121 361.912 354.124 361.917 354.127L299.09 379.978ZM361.996 354.095C361.996 354.095 361.996 354.095 361.997 354.095ZM361.735 353.742C361.931 353.664 362.179 353.756 362.292 353.961C362.398 354.16 362.34 354.388 362.145 354.466L299.24 380.349L299.236 380.355C299.045 380.427 298.797 380.334 298.684 380.13C298.571 379.926 298.635 379.702 298.831 379.624L361.735 353.742ZM381.381 343.11C381.577 343.033 381.634 342.804 381.521 342.6C381.408 342.396 381.161 342.304 380.965 342.382L366.155 348.472C365.967 348.554 365.903 348.778 366.015 348.982C366.132 349.179 366.376 349.278 366.571 349.2L381.381 343.11ZM390.633 349.565C390.824 349.493 391.072 349.586 391.185 349.791C391.291 349.99 391.234 350.218 391.038 350.296L302.799 386.593C302.604 386.671 302.356 386.578 302.243 386.374C302.13 386.169 302.187 385.941 302.383 385.863L390.626 349.56L390.633 349.565ZM390.576 350.013L302.611 386.202C302.618 386.208 302.626 386.213 302.635 386.216C302.645 386.22 302.651 386.22 302.653 386.22L390.811 349.957C390.805 349.953 390.798 349.949 390.79 349.946C390.779 349.942 390.772 349.941 390.769 349.941L390.576 350.013Z" fill="#182136"/>
<path d="M301.077 272.254C302.892 273.888 303.034 276.686 301.396 278.492L265.425 318.356C263.791 320.171 260.993 320.314 259.187 318.675L216.208 279.896C214.392 278.262 214.25 275.464 215.888 273.658L251.86 233.794C253.493 231.979 256.292 231.837 258.097 233.475L301.077 272.254Z" fill="#2B3B64"/>
<path fill-rule="evenodd" clip-rule="evenodd" d="M300.415 272.99L300.414 272.989L257.434 234.21L257.432 234.208C256.033 232.939 253.863 233.048 252.595 234.456L216.621 274.324C215.352 275.722 215.461 277.893 216.87 279.16L216.871 279.161L259.852 317.942C261.251 319.212 263.421 319.103 264.689 317.694L264.69 317.693L300.661 277.829L300.663 277.827C301.932 276.428 301.823 274.258 300.415 272.99ZM265.425 318.356L301.396 278.492C303.034 276.686 302.892 273.888 301.077 272.254L258.097 233.475C256.292 231.837 253.493 231.979 251.86 233.794L215.888 273.658C214.25 275.464 214.392 278.262 216.208 279.896L259.187 318.675C260.993 320.314 263.791 320.171 265.425 318.356Z" fill="#182136"/>
<path d="M155.671 339.367C154.015 341.766 150.725 342.363 148.337 340.701L95.6409 304.241C93.2416 302.586 92.6444 299.296 94.3064 296.908L133.612 240.094C135.267 237.694 138.557 237.097 140.945 238.759L193.642 275.219C196.041 276.874 196.638 280.164 194.976 282.552L155.671 339.367Z" fill="#2B3B64"/>
<path fill-rule="evenodd" clip-rule="evenodd" d="M154.856 338.805L194.162 281.989L194.164 281.987C195.512 280.05 195.028 277.378 193.08 276.034L193.079 276.033L140.38 239.571C138.442 238.223 135.771 238.707 134.427 240.656L95.1187 297.473C93.7703 299.411 94.2542 302.082 96.2029 303.427L96.204 303.427L148.9 339.887L148.903 339.889C150.84 341.237 153.512 340.754 154.856 338.805ZM194.976 282.552C196.638 280.164 196.041 276.874 193.642 275.219L140.945 238.759C138.557 237.097 135.267 237.694 133.612 240.094L94.3064 296.908C92.6444 299.296 93.2416 302.586 95.6409 304.241L148.337 340.701C150.725 342.363 154.015 341.766 155.671 339.367L194.976 282.552Z" fill="#182136"/>
<path d="M-13.8339 52.2423C-13.8339 52.2423 24.1014 64.8999 30.3288 73.5016C36.5562 82.1033 45.2543 129.183 45.2543 129.183C45.2543 129.183 81.7462 96.4588 112.799 89.5018C143.852 82.5447 171.663 73.0961 171.663 73.0961L229.403 13.6714L182.376 -23.5829L68.6295 -0.436155L-13.8339 52.2423Z" fill="#2B3B64"/>
<path fill-rule="evenodd" clip-rule="evenodd" d="M-12.6343 52.6504C-13.4062 52.385 -13.8339 52.2423 -13.8339 52.2423L68.6295 -0.436155L182.376 -23.5829L229.403 13.6714L171.663 73.0961C171.663 73.0961 143.852 82.5447 112.799 89.5018C84.5552 95.8295 51.8117 123.473 46.1191 128.423C45.5529 128.915 45.2543 129.183 45.2543 129.183C45.2543 129.183 45.1804 128.783 45.0414 128.05C43.672 120.831 35.9823 81.3105 30.3288 73.5016C24.7626 65.8132 -6.13575 54.8844 -12.6343 52.6504ZM-11.5705 51.9708C-10.5384 52.329 -9.13833 52.8215 -7.47269 53.4237C-3.81007 54.748 1.14109 56.6044 6.29006 58.7316C11.4353 60.8573 16.7965 63.2608 21.2719 65.6804C23.5094 66.8901 25.5408 68.1121 27.2194 69.3138C28.8859 70.5069 30.2599 71.7188 31.1305 72.9212C31.984 74.1001 32.8374 75.871 33.6786 78.0001C34.5263 80.1459 35.3859 82.7193 36.2359 85.5456C37.9361 91.1991 39.6128 97.9145 41.0914 104.346C42.5706 110.78 43.8544 116.944 44.7683 121.497C45.2253 123.775 45.5899 125.65 45.8404 126.957C45.8631 127.075 45.8849 127.189 45.9058 127.298C46.0107 127.208 46.1216 127.112 46.2385 127.012C47.3029 126.098 48.8564 124.787 50.817 123.193C54.7376 120.005 60.2895 115.681 66.8165 111.139C79.8429 102.073 96.86 92.0585 112.583 88.536C128.08 85.0641 142.772 80.9694 153.593 77.7417C159.003 76.1281 163.443 74.7317 166.529 73.739C168.073 73.2427 169.278 72.8473 170.096 72.5762C170.505 72.4407 170.818 72.3362 171.028 72.2657L171.12 72.2348L227.93 13.7672L182.122 -22.5213L69.0072 0.496958L-11.5705 51.9708Z" fill="#182136"/>
<path d="M-13.8351 52.2427L110.551 -40.8881C110.551 -40.8881 163.202 -45.3532 185.297 -40.1873C207.397 -35.0188 256.526 -3.68739 256.526 -3.68739C256.526 -3.68739 168.331 39.604 166.967 40.2476C165.601 40.8968 141.178 86.7125 128.041 96.1099C114.905 105.507 100.758 114.926 100.758 114.926C100.758 114.926 62.3481 77.9923 40.8202 71.4838C19.2923 64.9753 -13.8351 52.2427 -13.8351 52.2427Z" fill="#2B3B64"/>
<path fill-rule="evenodd" clip-rule="evenodd" d="M255.545 -4.30812C256.184 -3.90543 256.526 -3.68739 256.526 -3.68739C256.526 -3.68739 256.164 -3.50938 255.485 -3.17603C245.573 1.68922 168.243 39.6453 166.967 40.2476C166.606 40.4194 164.628 43.757 161.672 48.7463C153.461 62.6029 137.7 89.2004 128.041 96.1099C114.905 105.507 100.758 114.926 100.758 114.926C100.758 114.926 62.3481 77.9923 40.8202 71.4838C21.6067 65.675 -6.84627 54.9084 -12.742 52.6606C-13.4522 52.3898 -13.8351 52.2427 -13.8351 52.2427L110.551 -40.8881C110.551 -40.8881 163.202 -45.3532 185.297 -40.1873C205.553 -35.4499 248.518 -8.73269 255.545 -4.30812ZM254.501 -3.79554C254.301 -3.92054 254.083 -4.05707 253.847 -4.20456C252.464 -5.06964 250.461 -6.31173 247.989 -7.8186C243.045 -10.8327 236.223 -14.9045 228.713 -19.1369C213.645 -27.6288 195.96 -36.677 185.071 -39.2236C174.169 -41.7728 155.608 -41.9567 139.668 -41.4857C131.72 -41.2508 124.459 -40.8548 119.186 -40.5174C116.55 -40.3487 114.41 -40.1948 112.931 -40.083C112.191 -40.0271 111.616 -39.9818 111.227 -39.9505C111.105 -39.9407 111.001 -39.9323 110.916 -39.9253L-11.8045 51.9586C-10.8689 52.3145 -9.56887 52.8074 -7.974 53.4076C-4.53442 54.702 0.275885 56.4957 5.75829 58.4926C16.7281 62.4882 30.3704 67.2906 41.1066 70.5364C46.6287 72.2059 53.1621 75.7988 59.8131 80.1915C66.4794 84.5944 73.3273 89.8437 79.4886 94.8791C85.6517 99.9159 91.1388 104.747 95.0847 108.319C97.0579 110.106 98.6465 111.577 99.7424 112.603C100.21 113.041 100.588 113.398 100.867 113.663C101.279 113.388 101.873 112.99 102.622 112.486C104.152 111.457 106.329 109.987 108.916 108.224C114.092 104.697 120.906 99.9976 127.465 95.305C130.611 93.0551 134.521 88.5446 138.677 82.92C142.813 77.3236 147.125 70.7205 151.078 64.3748C154.798 58.4045 158.193 52.6753 160.821 48.2409C160.985 47.9634 161.147 47.6909 161.305 47.4238C162.647 45.1595 163.769 43.2712 164.6 41.9284C165.014 41.2586 165.363 40.7117 165.634 40.3175C165.769 40.122 165.895 39.9487 166.007 39.8119C166.062 39.744 166.125 39.6713 166.193 39.6046C166.244 39.5548 166.367 39.4372 166.542 39.3537L166.545 39.3526C167.217 39.0351 189.594 28.0577 211.822 17.1503C222.932 11.6987 233.999 6.26712 242.288 2.19851L254.501 -3.79554Z" fill="#182136"/>
<path d="M113.498 -35.9611L82.8272 -12.5581L140.823 -8.59062L169.172 -36.9232L113.498 -35.9611Z" fill="#2B3B64"/>
<path fill-rule="evenodd" clip-rule="evenodd" d="M82.8272 -12.5581L140.823 -8.59062L169.172 -36.9232L113.498 -35.9611L82.8272 -12.5581ZM85.5176 -13.3661L140.442 -9.60872L166.739 -35.8913L113.84 -34.9772L85.5176 -13.3661Z" fill="#182136"/>
<path d="M80.3178 -10.1795L-2.96455 48.907L19.7021 54.4318L98.6654 -7.86119L80.3178 -10.1795Z" fill="#2B3B64"/>
<path fill-rule="evenodd" clip-rule="evenodd" d="M-2.96455 48.907L19.7021 54.4318L98.6654 -7.86119L80.3178 -10.1795L-2.96455 48.907ZM-0.622852 48.4591L19.4678 53.356L96.1982 -7.17538L80.5762 -9.14925L-0.622852 48.4591Z" fill="#182136"/>
<path d="M26.929 57.0006L108.246 -8.02715L130.894 -6.71648L48.6138 64.7506L26.929 57.0006Z" fill="#2B3B64"/>
<path fill-rule="evenodd" clip-rule="evenodd" d="M26.929 57.0006L48.6138 64.7506L130.894 -6.71648L108.246 -8.02715L26.929 57.0006ZM28.9325 56.6656L48.4018 63.6238L128.409 -5.86894L108.568 -7.01719L28.9325 56.6656Z" fill="#182136"/>
<path d="M59.5741 68.5925L140.26 -2.84807L179.995 -35.1487L197.23 -28.9372C197.23 -28.9372 164.986 -6.99197 152.201 6.24136C139.414 19.4804 113.748 40.8687 103.081 51.3438C92.4148 61.8189 74.1182 79.1822 74.1182 79.1822L59.5767 68.5868L59.5741 68.5925Z" fill="#2B3B64"/>
<path fill-rule="evenodd" clip-rule="evenodd" d="M59.5793 68.5879L59.5767 68.5868L59.5741 68.5925L59.5793 68.5879L74.1182 79.1822C74.1182 79.1822 92.4148 61.8189 103.081 51.3438C107.585 46.9212 114.762 40.5533 122.515 33.6747C133.125 24.261 144.813 13.8909 152.201 6.24136C163.644 -5.60323 190.677 -24.4272 196.225 -28.2476C196.875 -28.6955 197.23 -28.9372 197.23 -28.9372L179.995 -35.1487L140.26 -2.84807L59.5793 68.5879ZM140.901 -2.09327L61.1565 68.5133L74.0346 77.8967L74.2435 77.6983C74.7644 77.2032 75.5206 76.4842 76.4614 75.5887C78.3429 73.7976 80.9627 71.3004 83.9158 68.476C89.8229 62.8261 97.0597 55.8703 102.388 50.6377C106.911 46.1957 114.112 39.8065 121.863 32.9297C123.291 31.6631 124.737 30.38 126.189 29.0894C135.543 20.7728 145.127 12.1413 151.489 5.55381C157.946 -1.12974 169.267 -9.96893 178.922 -17.1063C183.759 -20.6824 188.196 -23.8439 191.423 -26.1113C192.935 -27.1732 194.181 -28.0393 195.08 -28.6602L180.185 -34.0281L140.901 -2.09327Z" fill="#182136"/>
<path d="M117.438 55.4322L149.874 15.27C149.874 15.27 194.73 -25.4315 201.58 -23.5652C208.428 -21.6932 231.944 -6.29456 231.944 -6.29456L164.989 29.2664L139.304 67.5237L117.438 55.4322Z" fill="#2B3B64"/>
<path d="M79.8901 81.8817L102.61 105.048C102.61 105.048 119.284 92.6715 125.387 87.2987C131.49 81.9259 135.439 76.8976 135.439 76.8976L112.214 55.5334L79.8932 81.89L79.8901 81.8817Z" fill="#2B3B64"/>
<path fill-rule="evenodd" clip-rule="evenodd" d="M79.896 81.8878L79.8901 81.8817L79.8932 81.89L79.896 81.8878L79.8968 81.8886L102.61 105.048C102.61 105.048 119.284 92.6715 125.387 87.2987C131.49 81.9259 135.439 76.8976 135.439 76.8976L112.214 55.5334L79.896 81.8878ZM112.175 56.8423L81.3621 81.9692L102.711 103.738C102.723 103.729 102.735 103.721 102.746 103.712C103.214 103.364 103.888 102.86 104.716 102.238C106.374 100.995 108.646 99.282 111.109 97.4014C116.046 93.6319 121.712 89.2155 124.733 86.5559C127.75 83.8996 130.237 81.3268 131.968 79.4183C132.834 78.4646 133.51 77.678 133.968 77.1315C134.008 77.084 134.046 77.0384 134.082 76.9946L112.175 56.8423Z" fill="#182136"/>
<path d="M90.2028 76.9138C90.5961 75.5143 91.6756 74.326 93.0298 73.7948C95.3473 72.8864 98.2539 73.8306 100.279 72.3806C101.501 71.5025 102.054 69.9618 103.069 68.8546C103.816 68.0445 104.821 67.4667 105.897 67.2358C107.145 66.9722 108.462 67.1507 109.697 66.8402C111.627 66.3542 113.445 64.6948 115.325 65.3305C116.004 65.5588 116.598 66.1742 116.593 66.8909C116.581 67.6527 115.937 68.2345 115.576 68.9021C114.926 70.1111 115.219 71.5987 114.921 72.9381C114.568 74.5542 113.284 75.9248 111.697 76.3932C110.697 76.6853 109.59 76.6489 108.679 77.1526C106.886 78.1448 106.704 80.6183 105.623 82.3608C104.382 84.3677 101.939 85.3291 99.5971 85.6173C97.7263 85.8488 95.7758 85.7227 94.063 84.9427C91.2823 83.6712 89.3427 79.9538 90.2028 76.9138Z" fill="#2B3B64"/>
<path fill-rule="evenodd" clip-rule="evenodd" d="M91.1556 77.1815L91.1551 77.1832C90.806 78.4172 91.0129 79.8529 91.655 81.1532C92.2974 82.4543 93.3255 83.5169 94.4738 84.0423C95.9679 84.7225 97.7194 84.8524 99.4756 84.6351L99.4763 84.635C101.694 84.3621 103.772 83.4731 104.781 81.8405L104.782 81.8391C105.006 81.4771 105.195 81.0588 105.385 80.5837C105.452 80.4164 105.525 80.2266 105.601 80.0291C105.721 79.7161 105.849 79.3838 105.972 79.0909C106.394 78.0893 106.997 76.9524 108.2 76.2866C108.806 75.9513 109.447 75.8128 109.984 75.7187C110.143 75.6908 110.289 75.6671 110.428 75.6447C110.798 75.5847 111.106 75.5348 111.419 75.4436C112.661 75.0761 113.679 73.9866 113.955 72.7268L113.955 72.7233C114.05 72.2968 114.072 71.8719 114.098 71.3599C114.107 71.1866 114.116 71.0033 114.129 70.8066C114.176 70.0925 114.273 69.2361 114.705 68.4332L114.705 68.432C114.823 68.2141 114.957 68.0151 115.072 67.8492C115.106 67.8005 115.138 67.7554 115.167 67.7129C115.248 67.5982 115.316 67.5014 115.382 67.3981C115.557 67.1245 115.6 66.9804 115.603 66.8798C115.602 66.7251 115.425 66.4083 115.009 66.2685L115.008 66.2681C114.432 66.0734 113.803 66.1984 112.917 66.5754C112.641 66.6929 112.387 66.8128 112.114 66.9415C111.934 67.0268 111.744 67.1161 111.535 67.211C111.048 67.4323 110.508 67.6565 109.939 67.7999L109.938 67.8C109.209 67.9833 108.475 68.0176 107.844 68.0444C107.821 68.0453 107.799 68.0463 107.777 68.0472C107.144 68.074 106.612 68.0965 106.103 68.2038C105.23 68.3915 104.407 68.8639 103.798 69.5243C103.45 69.9041 103.171 70.3343 102.843 70.8418C102.758 70.9721 102.671 71.1075 102.578 71.2485C102.152 71.8939 101.626 72.6319 100.857 73.1842L100.856 73.1854C99.5815 74.0974 98.0745 74.2209 96.8099 74.2794C96.6362 74.2875 96.467 74.2944 96.3019 74.3012C95.1721 74.3474 94.2338 74.3858 93.391 74.7162C92.3239 75.1349 91.4645 76.0822 91.1556 77.1815ZM93.0298 73.7948C91.6756 74.326 90.5961 75.5143 90.2028 76.9138C89.3427 79.9538 91.2823 83.6712 94.063 84.9427C95.7758 85.7227 97.7263 85.8488 99.5971 85.6173C101.939 85.3291 104.382 84.3677 105.623 82.3608C106.002 81.749 106.271 81.047 106.538 80.3507C107.03 79.0639 107.516 77.7964 108.679 77.1526C109.247 76.8386 109.89 76.7345 110.537 76.6299C110.928 76.5667 111.32 76.5033 111.697 76.3932C113.284 75.9248 114.568 74.5542 114.921 72.9381C115.036 72.4229 115.063 71.8858 115.09 71.3511C115.133 70.4956 115.176 69.6461 115.576 68.9021C115.689 68.6938 115.829 68.4939 115.969 68.2942C116.277 67.854 116.584 67.4151 116.593 66.8909C116.598 66.1742 116.004 65.5588 115.325 65.3305C114.094 64.9144 112.89 65.4818 111.664 66.0597C111.017 66.3646 110.364 66.6724 109.697 66.8402C109.048 67.0033 108.377 67.0315 107.704 67.0597C107.097 67.0852 106.489 67.1107 105.897 67.2358C104.821 67.4667 103.816 68.0445 103.069 68.8546C102.659 69.3019 102.324 69.8198 101.991 70.3363C101.498 71.0984 101.008 71.8572 100.279 72.3806C99.1366 73.1988 97.7132 73.2547 96.2734 73.3112C95.1614 73.3549 94.0397 73.3989 93.0298 73.7948ZM115.325 65.3305L115.325 65.3311L115.325 65.3305Z" fill="#182136"/>
<path d="M102.311 89.5635C102.585 88.5833 103.344 87.7447 104.297 87.3763C105.926 86.7353 107.964 87.4006 109.384 86.3852C110.242 85.769 110.63 84.6888 111.349 83.9079C111.873 83.334 112.578 82.937 113.335 82.7758C114.212 82.5926 115.135 82.718 116.001 82.496C117.353 82.1553 118.635 80.9891 119.953 81.4419C120.427 81.6062 120.846 82.0332 120.842 82.5316C120.834 83.0693 120.381 83.4694 120.128 83.9449C119.672 84.7957 119.876 85.8392 119.667 86.7802C119.419 87.916 118.517 88.8755 117.404 89.206C116.702 89.4125 115.925 89.3871 115.283 89.7366C114.019 90.4318 113.893 92.1697 113.139 93.3943C112.268 94.806 110.556 95.4784 108.91 95.6807C107.599 95.8406 106.227 95.754 105.025 95.2095C103.07 94.3139 101.715 91.7078 102.314 89.5717L102.311 89.5635Z" fill="#2B3B64"/>
<path fill-rule="evenodd" clip-rule="evenodd" d="M104.297 87.3763C103.344 87.7447 102.585 88.5833 102.311 89.5635L102.314 89.5717C101.715 91.7078 103.07 94.3139 105.025 95.2095C106.227 95.754 107.599 95.8406 108.91 95.6807C110.556 95.4784 112.268 94.806 113.139 93.3943C113.402 92.9669 113.589 92.477 113.774 91.9907C114.12 91.0836 114.46 90.1892 115.283 89.7366C115.681 89.5202 116.13 89.4476 116.581 89.3746C116.858 89.3297 117.136 89.2847 117.404 89.206C118.517 88.8755 119.419 87.916 119.667 86.7802C119.747 86.4186 119.767 86.0419 119.786 85.6668C119.816 85.0657 119.847 84.4688 120.128 83.9449C120.208 83.7939 120.309 83.6506 120.409 83.508C120.624 83.2015 120.837 82.8986 120.842 82.5316C120.846 82.0332 120.427 81.6062 119.953 81.4419C119.088 81.1449 118.239 81.5445 117.376 81.9508C116.923 82.1639 116.466 82.3788 116.001 82.496C115.542 82.6136 115.068 82.6337 114.592 82.6538C114.17 82.6717 113.747 82.6896 113.335 82.7758C112.578 82.937 111.873 83.334 111.349 83.9079C111.057 84.2245 110.82 84.5902 110.584 84.9543C110.238 85.4884 109.894 86.0188 109.384 86.3852C108.585 86.9571 107.589 86.9959 106.58 87.0351C105.798 87.0656 105.008 87.0963 104.297 87.3763ZM113.539 83.7441C112.98 83.8637 112.461 84.158 112.08 84.5751L112.077 84.5783L112.077 84.5783C111.847 84.8277 111.666 85.1067 111.435 85.4616C111.376 85.5537 111.312 85.651 111.244 85.7541C110.943 86.2105 110.548 86.7678 109.962 87.189L109.96 87.1903C108.988 87.8851 107.849 87.9694 106.964 88.0098C106.843 88.0154 106.726 88.0202 106.613 88.0249C105.81 88.058 105.204 88.083 104.659 88.2973L104.654 88.2993L104.654 88.2993C104.04 88.5366 103.532 89.0665 103.31 89.6859L103.267 89.8392C103.047 90.6229 103.174 91.5559 103.599 92.4181C104.025 93.2805 104.7 93.9713 105.435 94.3088C106.418 94.7537 107.592 94.8444 108.791 94.6982C110.311 94.5111 111.657 93.9112 112.297 92.8748C112.44 92.6422 112.564 92.3671 112.695 92.0382C112.737 91.9309 112.786 91.8045 112.837 91.6708C112.923 91.4439 113.018 91.1958 113.108 90.9831C113.409 90.2658 113.866 89.3866 114.805 88.8695L114.81 88.8671C115.28 88.6114 115.769 88.5093 116.151 88.4427C116.268 88.4223 116.373 88.4052 116.47 88.3896C116.726 88.348 116.921 88.3164 117.123 88.2569C117.895 88.0272 118.53 87.3472 118.7 86.5692L118.701 86.5659C118.762 86.292 118.775 86.0259 118.794 85.6766C118.8 85.5511 118.807 85.4148 118.817 85.2636C118.851 84.755 118.921 84.1007 119.255 83.4781M113.539 83.7441C113.869 83.6754 114.216 83.6605 114.665 83.6413C114.681 83.6406 114.698 83.6399 114.714 83.6392C115.155 83.6203 115.699 83.5948 116.245 83.4552C116.669 83.348 117.067 83.1821 117.413 83.0251C117.566 82.9556 117.699 82.8925 117.825 82.8331C118.014 82.7442 118.185 82.6637 118.376 82.5825C118.984 82.3246 119.337 82.2772 119.63 82.3774C119.71 82.4054 119.783 82.4568 119.827 82.5078C119.837 82.5188 119.843 82.5278 119.848 82.5345C119.839 82.5615 119.813 82.6195 119.745 82.7258C119.703 82.791 119.662 82.8493 119.61 82.9237C119.586 82.9569 119.561 82.9932 119.532 83.0347C119.449 83.1541 119.347 83.3063 119.255 83.4774M119.853 82.5153C119.853 82.5153 119.853 82.5157 119.852 82.5167ZM119.856 82.5497C119.856 82.5497 119.855 82.5489 119.855 82.5474C119.855 82.5489 119.856 82.5497 119.856 82.5497Z" fill="#182136"/>
<path d="M108.777 69.9551C107.977 70.8851 106.935 71.5764 105.924 72.2748C100.871 75.7609 96.14 79.7201 91.83 84.0866C91.382 84.5369 90.9155 85.0131 90.3049 85.1989C89.6944 85.3846 88.9123 85.158 88.7043 84.5512C88.2826 83.3351 91.1866 82.463 92.0157 81.9572C93.4335 81.0846 94.773 80.0811 96.0719 79.0457C98.6939 76.9515 101.165 74.6735 103.909 72.7364C105.438 71.6604 107.051 70.6898 108.782 69.9577L108.777 69.9551Z" fill="#2B3B64"/>
<path fill-rule="evenodd" clip-rule="evenodd" d="M104.36 73.3758C104.878 73.0038 105.399 72.6367 105.924 72.2748C105.99 72.2291 106.056 72.1834 106.123 72.1377C107.067 71.4869 108.024 70.8282 108.77 69.963C108.771 69.9624 108.773 69.9618 108.774 69.9613C108.776 69.9603 108.778 69.9594 108.781 69.9585C108.781 69.9582 108.782 69.958 108.782 69.9577L108.777 69.9551C108.774 69.9578 108.772 69.9604 108.77 69.963C107.635 70.4436 106.552 71.0265 105.509 71.6743C105.509 71.6743 105.509 71.6744 105.509 71.6745C104.965 72.0126 104.432 72.3683 103.909 72.7364C102.133 73.9903 100.471 75.387 98.8087 76.7842C97.9028 77.5455 96.9968 78.3071 96.0719 79.0457C95.3497 79.6214 94.615 80.1873 93.8612 80.7262C93.2592 81.1566 92.6452 81.5698 92.0157 81.9572C91.8205 82.0763 91.5103 82.2157 91.1556 82.3751C90.0036 82.8927 88.3819 83.6214 88.7043 84.5512C88.9123 85.158 89.6944 85.3846 90.3049 85.1989C90.9052 85.0162 91.3663 84.5527 91.8075 84.1092L91.83 84.0866C92.7 83.2052 93.5871 82.3404 94.4905 81.4928C95.1633 80.8615 95.8452 80.2397 96.5358 79.6277C96.536 79.6275 96.5362 79.6274 96.5364 79.6272C99.0351 77.4128 101.648 75.3257 104.359 73.3766C104.36 73.3763 104.36 73.3761 104.36 73.3758ZM90.9666 83.55C90.761 83.6474 90.5605 83.7477 90.373 83.8522C90.0912 84.0094 89.8912 84.1483 89.7645 84.2623C89.8472 84.2783 89.9404 84.2753 90.0168 84.252C90.3074 84.1636 90.5692 83.9425 90.9666 83.55ZM89.6272 84.2064C89.6274 84.2063 89.6289 84.2076 89.631 84.2106C89.628 84.208 89.627 84.2065 89.6272 84.2064Z" fill="#182136"/>
<path d="M112.232 88.1802C111.789 88.6946 111.209 89.0721 110.646 89.4574C107.843 91.3746 105.222 93.5583 102.823 95.9647C102.574 96.2161 102.314 96.4765 101.974 96.5778C101.634 96.6792 101.203 96.555 101.085 96.2214C100.852 95.5485 102.463 95.0706 102.924 94.7905C103.709 94.3062 104.455 93.7564 105.175 93.1881C106.629 92.0369 107.999 90.7801 109.524 89.7154C110.372 89.1221 111.269 88.5853 112.223 88.1833L112.232 88.1802Z" fill="#2B3B64"/>
<path fill-rule="evenodd" clip-rule="evenodd" d="M102.823 95.9647C102.84 95.9479 102.857 95.9312 102.874 95.9144C103.025 95.7625 103.178 95.6115 103.332 95.4613C103.333 95.4601 103.334 95.4588 103.336 95.4576C104.017 94.7913 104.716 94.1428 105.432 93.513C105.432 93.5128 105.432 93.5127 105.432 93.5125C106.819 92.292 108.267 91.1418 109.771 90.0691C109.771 90.069 109.771 90.0689 109.771 90.0688C110.061 89.8621 110.353 89.6583 110.646 89.4574C110.69 89.4276 110.733 89.3978 110.777 89.3681C111.295 89.0148 111.818 88.6586 112.225 88.1878C112.225 88.1877 112.225 88.1877 112.225 88.1876C112.227 88.1852 112.229 88.1827 112.232 88.1802L112.223 88.1833C111.598 88.4467 110.997 88.7679 110.419 89.125C110.419 89.125 110.419 89.125 110.419 89.125C110.114 89.313 109.816 89.5108 109.524 89.7154C108.538 90.4043 107.616 91.1736 106.694 91.9426C106.191 92.3622 105.689 92.7817 105.175 93.1881C104.455 93.7564 103.709 94.3062 102.924 94.7905C102.815 94.8568 102.642 94.9341 102.444 95.0224C102.398 95.0427 102.351 95.0636 102.304 95.0851C101.682 95.3651 100.92 95.7442 101.085 96.2214C101.203 96.555 101.634 96.6792 101.974 96.5778C102.314 96.4765 102.574 96.2161 102.823 95.9647Z" fill="#182136"/>
<path d="M329.774 -5.14397C320.364 -8.78097 309.175 -7.38335 300.948 -1.55463C302.981 -0.506413 305.014 0.541798 307.047 1.59002C299.797 6.59287 296.724 16.8606 300.043 25.024C292.737 21.8476 284.781 20.5135 276.919 19.2112C274.624 26.7155 273.226 34.4897 272.758 42.3196C272.678 43.6934 272.647 45.1625 273.345 46.3457C274.005 47.4575 275.196 48.1324 276.331 48.7518C281.636 51.6424 286.948 54.525 292.253 57.4155C292.928 57.7808 293.667 58.2414 293.817 58.9878C293.952 59.6708 293.531 60.3299 293.126 60.9016C289.069 66.6827 285.011 72.4558 280.961 78.2369C280.31 79.166 279.635 80.1428 279.46 81.2704C279.277 82.4139 279.635 83.5733 280.048 84.6533C282.422 90.9187 286.782 96.4219 292.332 100.17C297.986 103.982 304.657 105.927 311.2 107.817C320.555 110.517 329.901 113.209 339.256 115.909C341.734 116.624 344.576 117.299 346.76 115.917C348.229 114.996 349.039 113.344 349.857 111.812C352.867 106.142 356.853 100.988 361.578 96.6442C362.198 96.0725 362.849 95.5007 363.182 94.7304C364.064 92.7214 362.491 90.5455 361.022 88.9097C356.996 84.4309 352.97 79.9442 348.944 75.4655C348.237 74.6793 347.483 73.6311 347.912 72.6623C348.253 71.9 349.158 71.6141 349.968 71.4156C353.804 70.4547 357.838 69.4938 361.666 70.5023C363.571 71.0026 365.31 71.9714 367.161 72.6464C371.576 74.2664 376.595 74.1552 380.931 72.3447C391.143 68.0803 395.471 56.2323 398.703 45.6469C399.076 44.416 399.37 42.8675 398.401 42.0178C397.98 41.6525 397.4 41.5176 396.844 41.454C393.636 41.1126 390.547 42.7484 387.323 42.939C384.099 43.1296 380.184 40.517 381.256 37.4756C381.613 36.4591 382.447 35.7047 383.249 34.99C387.466 31.2339 391.691 27.4857 395.907 23.7296C397.718 22.1176 399.568 20.4579 400.68 18.3138C403.967 11.9769 399.624 4.20262 394.113 -0.339653C391.905 -2.15815 389.221 -4.30222 389.539 -7.15305C389.658 -8.21715 390.206 -9.17803 390.738 -10.0992C393.017 -14.0459 395.288 -17.9926 397.567 -21.9393C391.087 -25.7907 382.519 -23.051 376.658 -18.3181C370.798 -13.5853 366.557 -7.1213 360.919 -2.12639C358.497 -5.58868 356.028 -9.1542 354.963 -13.2438C353.899 -17.3335 354.519 -22.1378 357.6 -25.0363C360.887 -28.1333 366.009 -28.3556 369.678 -31C368.114 -29.8724 357.568 -32.4929 355.082 -32.5723C351.747 -32.6835 343.862 -33.8111 341.17 -31.4526C338.843 -29.4118 338.112 -22.5666 336.993 -19.7396C334.992 -14.6812 332.57 -9.78154 329.767 -5.12015L329.774 -5.14397Z" fill="#2B3B64"/>
<path d="M394.146 -0.220837C391.938 -2.03933 389.254 -4.1834 389.571 -7.03423C389.691 -8.09833 390.239 -9.05919 390.771 -9.98035C393.05 -13.927 395.321 -17.8737 397.6 -21.8204C391.12 -25.6718 382.552 -22.9322 376.691 -18.1993C370.831 -13.4665 366.59 -7.00248 360.952 -2.00757C358.53 -5.46986 356.06 -9.03538 354.996 -13.125C353.932 -17.2147 354.552 -22.019 357.633 -24.9175C360.166 -27.3077 363.795 -27.9906 367.011 -29.3882C359.991 -29.8409 349.946 -28.7371 346.221 -24.2345C345.197 -22.9957 344.943 -21.3122 344.736 -19.724C343.363 -9.36891 342.465 2.24885 348.945 10.444C340.043 9.97548 331.134 9.50694 322.232 9.03842C326.02 12.9216 330.141 16.4792 334.532 19.6635C336.025 20.7435 337.621 21.8155 339.456 22.022C341.227 22.2205 342.974 21.5773 344.641 20.9262C350.359 18.6947 356.013 16.2886 361.587 13.7157C363.088 19.7191 358.228 25.3414 353.408 29.2245C351.558 30.7175 349.588 32.1786 347.293 32.8139C340.861 34.6165 334.659 29.6216 328.124 28.224C327.504 31.9483 326.877 35.6727 326.258 39.397C325.948 41.2632 325.646 43.2484 326.377 44.9954C327.362 47.338 330.045 48.6165 332.595 48.6483C335.136 48.6801 337.582 47.7033 339.893 46.6392C347.182 43.2961 354.131 38.9364 361.945 37.1497C362.787 36.9591 363.859 36.8717 364.343 37.5944C364.74 38.1741 364.51 38.9602 364.263 39.6194C360.666 49.1407 354.972 57.8599 347.714 64.991C344.26 68.3818 340.178 71.5344 335.374 72.0902C334.04 72.2411 332.618 72.1697 331.467 71.4788C330.427 70.8514 329.728 69.7953 329.077 68.7629C324.479 61.5445 320.103 54.08 314.084 47.9971C308.065 41.9222 300.052 37.2688 291.5 37.2926C290.34 37.2926 288.824 37.7294 288.808 38.8888C288.8 39.6511 289.491 40.2149 290.11 40.6517C295.24 44.2807 300.568 48.3863 302.649 54.3182C297.662 52.4362 292.683 50.5542 287.696 48.6721C286.997 50.9909 289.546 52.8968 291.714 53.9847C297.178 56.7323 302.641 59.4878 308.105 62.2354C297.63 68.9456 289.157 78.7369 284.019 90.0608C296.058 83.438 310.447 81.2066 323.931 83.8668C319.317 89.7591 313.87 95.0081 307.811 99.4153C311.654 100.265 315.545 98.6371 319.373 97.716C326.996 95.8975 335.271 97.0013 342.148 100.742C342.942 101.17 343.776 101.718 344.038 102.576C344.228 103.219 344.062 103.91 343.831 104.545C342.966 106.928 341.33 108.96 340.313 111.279C339.662 112.764 339.329 114.527 339.63 116.084C342.029 116.759 344.721 117.314 346.809 116.004C348.278 115.083 349.088 113.431 349.906 111.899C352.916 106.229 356.902 101.075 361.627 96.7313C362.246 96.1595 362.898 95.5878 363.231 94.8175C364.113 92.8084 362.54 90.6326 361.071 88.9967C357.045 84.518 353.019 80.0313 348.993 75.5525C348.286 74.7664 347.532 73.7182 347.961 72.7494C348.302 71.987 349.207 71.7011 350.017 71.5026C353.853 70.5417 357.887 69.5809 361.714 70.5894C363.62 71.0897 365.359 72.0585 367.21 72.7335C371.625 74.3534 376.644 74.2423 380.979 72.4317C390.167 68.5962 394.59 58.6223 397.743 48.958C395.106 48.6642 392.605 50.0221 390.072 50.8241C382.663 53.1826 373.523 50.0459 370.164 43.0419C366.797 36.03 371.013 26.1514 378.66 24.7379C381.098 24.2852 383.624 24.6346 386.085 24.3805C390.032 23.9676 393.637 22.03 397.115 20.132C398.37 19.4491 399.625 18.7662 400.88 18.0833C403.857 11.8019 399.577 4.21822 394.161 -0.252583L394.146 -0.220837Z" fill="#2B3B64"/>
<path d="M358.952 8.70484C364.448 5.65548 370.213 3.09847 376.168 1.08144C371.999 12.2386 368.521 23.6658 365.774 35.2597C369.307 24.8966 377.828 16.8921 381.83 6.69576C382.1 5.99695 382.362 5.26636 382.315 4.5199C382.267 3.83697 381.973 3.19376 381.687 2.57436C380.393 -0.18118 379.107 -2.94467 377.812 -5.70021C374.739 -3.0479 371.356 -0.75294 367.751 1.12909C365.329 2.39965 362.518 3.49551 359.921 2.63788C358.468 2.16142 357.285 1.12113 356.173 0.0729141C352.758 -3.17497 349.741 -6.83576 347.192 -10.7983C349.256 -7.60604 349.939 -3.56408 352.028 -0.324135C354.037 2.79669 356.499 5.93341 358.952 8.71277V8.70484Z" fill="#2B3B64"/>
<path d="M149.77 190.292C149.77 190.292 200.876 243.559 200.923 243.824C200.971 244.09 297.358 145.955 297.358 145.955L246.597 94.6288L149.769 190.286L149.77 190.292Z" fill="#2B3B64"/>
<path fill-rule="evenodd" clip-rule="evenodd" d="M149.77 190.292C149.77 190.292 200.876 243.559 200.923 243.824C200.924 243.825 200.925 243.825 200.927 243.824C200.957 243.806 201.168 243.605 201.544 243.234C201.576 243.203 201.609 243.171 201.642 243.137C210.457 234.431 297.358 145.955 297.358 145.955L246.597 94.6288L149.769 190.286L149.77 190.292ZM151.156 190.307L152.68 191.896C154.078 193.353 156.074 195.435 158.47 197.934C163.262 202.932 169.652 209.599 176.044 216.274C182.435 222.949 188.828 229.633 193.627 234.665C196.026 237.181 198.027 239.284 199.431 240.768C200.078 241.452 200.599 242.005 200.974 242.407C201.077 242.305 201.192 242.191 201.317 242.067C202.023 241.365 203.059 240.326 204.378 238.998C207.017 236.341 210.785 232.53 215.307 227.949C224.349 218.787 236.402 206.545 248.453 194.295C260.504 182.045 272.554 169.787 281.591 160.591C286.109 155.993 289.874 152.161 292.51 149.478L295.968 145.957L246.589 96.028L151.156 190.307Z" fill="#182136"/>
<path d="M149.77 190.292L116.087 177.118L154.787 218.451L200.923 243.824L149.77 190.292Z" fill="#2B3B64"/>
<path fill-rule="evenodd" clip-rule="evenodd" d="M116.087 177.118L154.787 218.451L200.923 243.824L149.77 190.292L116.087 177.118ZM119.796 179.632L149.205 191.133L195.764 239.857L155.402 217.659L119.796 179.632Z" fill="#182136"/>
<path d="M116.087 177.118L204.251 94.775L246.597 94.6284L149.77 190.292L116.087 177.118Z" fill="#2B3B64"/>
<path fill-rule="evenodd" clip-rule="evenodd" d="M116.087 177.118L149.77 190.292L246.597 94.6284L204.251 94.775L116.087 177.118ZM117.911 176.769L149.531 189.136L244.179 95.6265L204.643 95.7633L117.911 176.769Z" fill="#182136"/>
<path d="M204.25 94.775L208.085 66.8023L247.686 59.7461L246.927 96.4846L204.25 94.775Z" fill="#2B3B64"/>
<path fill-rule="evenodd" clip-rule="evenodd" d="M204.25 94.775L246.927 96.4846L247.686 59.7461L208.085 66.8023L204.25 94.775ZM205.379 93.8297L245.958 95.4554L246.672 60.9321L208.968 67.6503L205.379 93.8297Z" fill="#182136"/>
<path d="M116.087 177.119L104.76 212.212C104.76 212.212 141.49 233.831 141.347 233.029C141.205 232.228 149.77 190.292 149.77 190.292L116.088 177.124L116.087 177.119Z" fill="#2B3B64"/>
<path fill-rule="evenodd" clip-rule="evenodd" d="M149.77 190.292L116.088 177.124L116.087 177.119L104.76 212.212C104.76 212.212 134.602 229.776 140.384 232.654C140.398 232.661 140.412 232.668 140.426 232.675C140.849 232.885 141.137 233.012 141.268 233.043C141.324 233.057 141.351 233.053 141.347 233.029C141.336 232.965 141.381 232.632 141.474 232.076C141.474 232.074 141.474 232.072 141.475 232.07C142.535 225.714 149.77 190.292 149.77 190.292ZM140.546 231.627C140.589 231.378 140.638 231.097 140.694 230.787C140.916 229.558 141.24 227.849 141.631 225.826C142.415 221.778 143.473 216.458 144.534 211.166C145.596 205.872 146.663 200.604 147.464 196.66C147.864 194.688 148.198 193.046 148.432 191.898L148.633 190.91L116.705 178.428L105.946 211.761C106.186 211.903 106.486 212.079 106.839 212.286C107.843 212.876 109.277 213.717 110.997 214.724C114.438 216.737 119.023 219.414 123.603 222.065C128.185 224.716 132.757 227.341 136.174 229.251C137.884 230.207 139.296 230.979 140.272 231.487C140.368 231.536 140.46 231.583 140.546 231.627Z" fill="#182136"/>
<path fill-rule="evenodd" clip-rule="evenodd" d="M67.7257 165.086L67.7244 165.086L20.5349 157.063L20.5322 157.063C19.0868 156.813 17.7089 157.788 17.464 159.239L10.0196 203.013C9.76966 204.459 10.7446 205.837 12.1963 206.082L12.1975 206.082L59.3897 214.105C60.8351 214.355 62.2131 213.38 62.4579 211.929L62.4582 211.927L69.9023 168.155C70.1523 166.709 69.1774 165.331 67.7257 165.086ZM9.04436 202.845C8.7009 204.831 10.0402 206.722 12.0317 207.057L59.2211 215.081C61.2075 215.424 63.098 214.085 63.4338 212.093L70.8776 168.323C71.221 166.337 69.8817 164.446 67.8903 164.111L20.7008 156.087C18.7145 155.744 16.824 157.083 16.4881 159.075L9.04436 202.845Z" fill="#182136"/>
<path d="M229.632 -6.25671L163.418 28.9104L163.309 28.9686L163.24 29.0716L137.807 66.9521L116.854 55.3655L148.896 15.6919L148.9 15.6883L148.996 15.6013C149.08 15.5246 149.207 15.4106 149.372 15.262C149.701 14.9647 150.186 14.5288 150.806 13.9746C152.044 12.8662 153.822 11.2846 155.977 9.39243C160.287 5.60783 166.104 0.582139 172.134 -4.38446C178.166 -9.35276 184.402 -14.2547 189.553 -17.7957C192.129 -19.5673 194.421 -20.989 196.273 -21.908C197.199 -22.3678 198.001 -22.6947 198.664 -22.8787C199.339 -23.0661 199.812 -23.0882 200.111 -23.0068C201.761 -22.5558 204.468 -21.2696 207.64 -19.5602C210.797 -17.859 214.371 -15.7635 217.735 -13.7237C221.098 -11.6843 224.249 -9.70306 226.558 -8.23146C227.713 -7.49573 228.657 -6.88753 229.313 -6.46336C229.428 -6.38867 229.535 -6.31968 229.632 -6.25671Z" fill="#2B3B64" stroke="#182136" stroke-width="0.989691"/>
<mask id="path-46-inside-1_7115_6249" fill="white">
<path d="M330.057 -5.20537C320.647 -8.84237 309.458 -7.44475 301.231 -1.61603C303.264 -0.567815 305.297 0.480397 307.33 1.52861C300.08 6.53147 297.006 16.7992 300.326 24.9626C293.02 21.7862 285.063 20.4521 277.202 19.1498C274.907 26.6541 273.509 34.4283 273.041 42.2582C272.961 43.632 272.929 45.1011 273.628 46.2843C274.287 47.3961 275.478 48.071 276.614 48.6904C281.919 51.581 287.231 54.4636 292.536 57.3541C293.211 57.7194 293.949 58.18 294.1 58.9264C294.235 59.6094 293.814 60.2685 293.409 60.8402C289.351 66.6213 285.294 72.3944 281.244 78.1755C280.592 79.1046 279.917 80.0813 279.743 81.209C279.56 82.3525 279.917 83.5119 280.33 84.5919C282.705 90.8573 287.064 96.3605 292.615 100.109C298.269 103.92 304.94 105.866 311.483 107.756C320.838 110.456 330.184 113.148 339.539 115.848C342.016 116.563 344.859 117.237 347.043 115.856C348.512 114.935 349.322 113.283 350.14 111.75C353.15 106.08 357.136 100.927 361.861 96.5828C362.48 96.0111 363.131 95.4393 363.465 94.669C364.346 92.66 362.774 90.4841 361.305 88.8483C357.279 84.3695 353.253 79.8828 349.227 75.4041C348.52 74.6179 347.766 73.5697 348.194 72.6009C348.536 71.8386 349.441 71.5527 350.251 71.3542C354.087 70.3933 358.121 69.4324 361.948 70.4409C363.854 70.9412 365.593 71.91 367.443 72.585C371.859 74.205 376.877 74.0938 381.213 72.2833C391.425 68.0189 395.753 56.1709 398.985 45.5855C399.358 44.3546 399.652 42.8061 398.684 41.9564C398.263 41.5911 397.683 41.4562 397.127 41.3926C393.919 41.0512 390.83 42.687 387.606 42.8776C384.382 43.0682 380.467 40.4556 381.539 37.4142C381.896 36.3977 382.73 35.6433 383.532 34.9286C387.749 31.1725 391.973 27.4243 396.19 23.6682C398.001 22.0562 399.851 20.3965 400.963 18.2524C404.25 11.9155 399.907 4.14122 394.395 -0.401054C392.188 -2.21955 389.504 -4.36362 389.821 -7.21445C389.941 -8.27855 390.488 -9.23943 391.021 -10.1606C393.3 -14.1073 395.571 -18.054 397.85 -22.0007C391.37 -25.8521 382.801 -23.1124 376.941 -18.3795C371.08 -13.6467 366.84 -7.1827 361.202 -2.18779C358.78 -5.65008 356.31 -9.2156 355.246 -13.3052C354.182 -17.3949 354.801 -22.1992 357.882 -25.0977C361.17 -28.1947 366.292 -28.417 369.961 -31.0614C368.397 -29.9338 357.851 -32.5543 355.365 -32.6337C352.03 -32.7449 344.144 -33.8725 341.452 -31.514C339.126 -29.4732 338.395 -22.628 337.275 -19.801C335.274 -14.7426 332.852 -9.84294 330.049 -5.18155L330.057 -5.20537Z"/>
<path d="M394.428 -0.282234C392.221 -2.10073 389.537 -4.2448 389.854 -7.09563C389.973 -8.15973 390.521 -9.12059 391.053 -10.0418C393.332 -13.9884 395.604 -17.9351 397.883 -21.8818C391.403 -25.7332 382.834 -22.9936 376.974 -18.2607C371.113 -13.5279 366.873 -7.06388 361.235 -2.06897C358.813 -5.53126 356.343 -9.09678 355.279 -13.1864C354.215 -17.2761 354.834 -22.0804 357.915 -24.9789C360.449 -27.3691 364.078 -28.052 367.294 -29.4496C360.274 -29.9023 350.229 -28.7985 346.504 -24.2959C345.48 -23.0571 345.226 -21.3736 345.019 -19.7854C343.645 -9.43031 342.748 2.18745 349.228 10.3826C340.326 9.91407 331.416 9.44554 322.514 8.97702C326.302 12.8602 330.424 16.4178 334.815 19.6021C336.308 20.6821 337.904 21.7541 339.738 21.9606C341.509 22.1591 343.256 21.5159 344.924 20.8647C350.641 18.6333 356.295 16.2272 361.87 13.6543C363.371 19.6577 358.511 25.28 353.691 29.1631C351.841 30.6561 349.871 32.1172 347.576 32.7525C341.144 34.5551 334.942 29.5602 328.407 28.1626C327.787 31.8869 327.16 35.6113 326.54 39.3356C326.231 41.2018 325.929 43.187 326.66 44.934C327.644 47.2766 330.328 48.5551 332.877 48.5869C335.418 48.6187 337.864 47.6419 340.175 46.5778C347.465 43.2347 354.414 38.875 362.227 37.0883C363.069 36.8977 364.141 36.8103 364.626 37.533C365.023 38.1127 364.792 38.8988 364.546 39.558C360.949 49.0793 355.255 57.7985 347.997 64.9296C344.543 68.3204 340.461 71.473 335.657 72.0288C334.323 72.1797 332.901 72.1083 331.75 71.4174C330.709 70.79 330.011 69.7339 329.359 68.7015C324.762 61.4831 320.386 54.0186 314.367 47.9357C308.348 41.8608 300.335 37.2074 291.782 37.2312C290.623 37.2312 289.106 37.668 289.09 38.8274C289.083 39.5897 289.773 40.1535 290.393 40.5903C295.523 44.2193 300.851 48.3249 302.932 54.2568C297.945 52.3748 292.966 50.4928 287.979 48.6107C287.28 50.9295 289.829 52.8354 291.997 53.9233C297.46 56.6709 302.924 59.4264 308.387 62.174C297.913 68.8842 289.44 78.6755 284.302 89.9994C296.341 83.3766 310.73 81.1452 324.214 83.8054C319.6 89.6977 314.152 94.9467 308.093 99.3539C311.937 100.204 315.828 98.5757 319.656 97.6546C327.279 95.8361 335.553 96.9399 342.43 100.68C343.224 101.109 344.058 101.657 344.32 102.514C344.511 103.158 344.344 103.849 344.114 104.484C343.248 106.866 341.613 108.899 340.596 111.218C339.945 112.703 339.611 114.466 339.913 116.022C342.311 116.697 345.003 117.253 347.092 115.943C348.561 115.022 349.371 113.37 350.189 111.837C353.198 106.167 357.185 101.014 361.91 96.6699C362.529 96.0981 363.18 95.5264 363.514 94.7561C364.395 92.747 362.823 90.5712 361.354 88.9353C357.328 84.4566 353.302 79.9699 349.276 75.4911C348.569 74.705 347.814 73.6568 348.243 72.688C348.585 71.9256 349.49 71.6397 350.3 71.4412C354.136 70.4803 358.17 69.5195 361.997 70.528C363.903 71.0283 365.642 71.9971 367.492 72.6721C371.908 74.292 376.926 74.1809 381.262 72.3703C390.45 68.5348 394.873 58.5609 398.026 48.8966C395.389 48.6028 392.888 49.9607 390.355 50.7627C382.946 53.1212 373.805 49.9845 370.446 42.9805C367.079 35.9686 371.296 26.09 378.943 24.6765C381.381 24.2238 383.906 24.5732 386.368 24.3191C390.315 23.9062 393.92 21.9686 397.398 20.0706C398.653 19.3877 399.908 18.7048 401.162 18.0219C404.14 11.7405 399.86 4.15682 394.444 -0.31398L394.428 -0.282234Z"/>
<path d="M359.235 8.64344C364.73 5.59408 370.495 3.03707 376.451 1.02004C372.282 12.1772 368.804 23.6044 366.056 35.1983C369.59 24.8352 378.111 16.8307 382.113 6.63436C382.383 5.93555 382.645 5.20496 382.598 4.4585C382.55 3.77557 382.256 3.13236 381.97 2.51296C380.676 -0.242577 379.389 -3.00607 378.095 -5.76161C375.022 -3.1093 371.639 -0.814337 368.034 1.06769C365.612 2.33825 362.801 3.43411 360.204 2.57648C358.751 2.10001 357.567 1.05973 356.456 0.0115166C353.041 -3.23637 350.023 -6.89716 347.474 -10.8597C349.539 -7.66744 350.222 -3.62548 352.311 -0.385536C354.32 2.73529 356.781 5.872 359.235 8.65137V8.64344Z"/>
</mask>
<path d="M330.057 -5.20537C320.647 -8.84237 309.458 -7.44475 301.231 -1.61603C303.264 -0.567815 305.297 0.480397 307.33 1.52861C300.08 6.53147 297.006 16.7992 300.326 24.9626C293.02 21.7862 285.063 20.4521 277.202 19.1498C274.907 26.6541 273.509 34.4283 273.041 42.2582C272.961 43.632 272.929 45.1011 273.628 46.2843C274.287 47.3961 275.478 48.071 276.614 48.6904C281.919 51.581 287.231 54.4636 292.536 57.3541C293.211 57.7194 293.949 58.18 294.1 58.9264C294.235 59.6094 293.814 60.2685 293.409 60.8402C289.351 66.6213 285.294 72.3944 281.244 78.1755C280.592 79.1046 279.917 80.0813 279.743 81.209C279.56 82.3525 279.917 83.5119 280.33 84.5919C282.705 90.8573 287.064 96.3605 292.615 100.109C298.269 103.92 304.94 105.866 311.483 107.756C320.838 110.456 330.184 113.148 339.539 115.848C342.016 116.563 344.859 117.237 347.043 115.856C348.512 114.935 349.322 113.283 350.14 111.75C353.15 106.08 357.136 100.927 361.861 96.5828C362.48 96.0111 363.131 95.4393 363.465 94.669C364.346 92.66 362.774 90.4841 361.305 88.8483C357.279 84.3695 353.253 79.8828 349.227 75.4041C348.52 74.6179 347.766 73.5697 348.194 72.6009C348.536 71.8386 349.441 71.5527 350.251 71.3542C354.087 70.3933 358.121 69.4324 361.948 70.4409C363.854 70.9412 365.593 71.91 367.443 72.585C371.859 74.205 376.877 74.0938 381.213 72.2833C391.425 68.0189 395.753 56.1709 398.985 45.5855C399.358 44.3546 399.652 42.8061 398.684 41.9564C398.263 41.5911 397.683 41.4562 397.127 41.3926C393.919 41.0512 390.83 42.687 387.606 42.8776C384.382 43.0682 380.467 40.4556 381.539 37.4142C381.896 36.3977 382.73 35.6433 383.532 34.9286C387.749 31.1725 391.973 27.4243 396.19 23.6682C398.001 22.0562 399.851 20.3965 400.963 18.2524C404.25 11.9155 399.907 4.14122 394.395 -0.401054C392.188 -2.21955 389.504 -4.36362 389.821 -7.21445C389.941 -8.27855 390.488 -9.23943 391.021 -10.1606C393.3 -14.1073 395.571 -18.054 397.85 -22.0007C391.37 -25.8521 382.801 -23.1124 376.941 -18.3795C371.08 -13.6467 366.84 -7.1827 361.202 -2.18779C358.78 -5.65008 356.31 -9.2156 355.246 -13.3052C354.182 -17.3949 354.801 -22.1992 357.882 -25.0977C361.17 -28.1947 366.292 -28.417 369.961 -31.0614C368.397 -29.9338 357.851 -32.5543 355.365 -32.6337C352.03 -32.7449 344.144 -33.8725 341.452 -31.514C339.126 -29.4732 338.395 -22.628 337.275 -19.801C335.274 -14.7426 332.852 -9.84294 330.049 -5.18155L330.057 -5.20537Z" fill="#2B3B64"/>
<path d="M394.428 -0.282234C392.221 -2.10073 389.537 -4.2448 389.854 -7.09563C389.973 -8.15973 390.521 -9.12059 391.053 -10.0418C393.332 -13.9884 395.604 -17.9351 397.883 -21.8818C391.403 -25.7332 382.834 -22.9936 376.974 -18.2607C371.113 -13.5279 366.873 -7.06388 361.235 -2.06897C358.813 -5.53126 356.343 -9.09678 355.279 -13.1864C354.215 -17.2761 354.834 -22.0804 357.915 -24.9789C360.449 -27.3691 364.078 -28.052 367.294 -29.4496C360.274 -29.9023 350.229 -28.7985 346.504 -24.2959C345.48 -23.0571 345.226 -21.3736 345.019 -19.7854C343.645 -9.43031 342.748 2.18745 349.228 10.3826C340.326 9.91407 331.416 9.44554 322.514 8.97702C326.302 12.8602 330.424 16.4178 334.815 19.6021C336.308 20.6821 337.904 21.7541 339.738 21.9606C341.509 22.1591 343.256 21.5159 344.924 20.8647C350.641 18.6333 356.295 16.2272 361.87 13.6543C363.371 19.6577 358.511 25.28 353.691 29.1631C351.841 30.6561 349.871 32.1172 347.576 32.7525C341.144 34.5551 334.942 29.5602 328.407 28.1626C327.787 31.8869 327.16 35.6113 326.54 39.3356C326.231 41.2018 325.929 43.187 326.66 44.934C327.644 47.2766 330.328 48.5551 332.877 48.5869C335.418 48.6187 337.864 47.6419 340.175 46.5778C347.465 43.2347 354.414 38.875 362.227 37.0883C363.069 36.8977 364.141 36.8103 364.626 37.533C365.023 38.1127 364.792 38.8988 364.546 39.558C360.949 49.0793 355.255 57.7985 347.997 64.9296C344.543 68.3204 340.461 71.473 335.657 72.0288C334.323 72.1797 332.901 72.1083 331.75 71.4174C330.709 70.79 330.011 69.7339 329.359 68.7015C324.762 61.4831 320.386 54.0186 314.367 47.9357C308.348 41.8608 300.335 37.2074 291.782 37.2312C290.623 37.2312 289.106 37.668 289.09 38.8274C289.083 39.5897 289.773 40.1535 290.393 40.5903C295.523 44.2193 300.851 48.3249 302.932 54.2568C297.945 52.3748 292.966 50.4928 287.979 48.6107C287.28 50.9295 289.829 52.8354 291.997 53.9233C297.46 56.6709 302.924 59.4264 308.387 62.174C297.913 68.8842 289.44 78.6755 284.302 89.9994C296.341 83.3766 310.73 81.1452 324.214 83.8054C319.6 89.6977 314.152 94.9467 308.093 99.3539C311.937 100.204 315.828 98.5757 319.656 97.6546C327.279 95.8361 335.553 96.9399 342.43 100.68C343.224 101.109 344.058 101.657 344.32 102.514C344.511 103.158 344.344 103.849 344.114 104.484C343.248 106.866 341.613 108.899 340.596 111.218C339.945 112.703 339.611 114.466 339.913 116.022C342.311 116.697 345.003 117.253 347.092 115.943C348.561 115.022 349.371 113.37 350.189 111.837C353.198 106.167 357.185 101.014 361.91 96.6699C362.529 96.0981 363.18 95.5264 363.514 94.7561C364.395 92.747 362.823 90.5712 361.354 88.9353C357.328 84.4566 353.302 79.9699 349.276 75.4911C348.569 74.705 347.814 73.6568 348.243 72.688C348.585 71.9256 349.49 71.6397 350.3 71.4412C354.136 70.4803 358.17 69.5195 361.997 70.528C363.903 71.0283 365.642 71.9971 367.492 72.6721C371.908 74.292 376.926 74.1809 381.262 72.3703C390.45 68.5348 394.873 58.5609 398.026 48.8966C395.389 48.6028 392.888 49.9607 390.355 50.7627C382.946 53.1212 373.805 49.9845 370.446 42.9805C367.079 35.9686 371.296 26.09 378.943 24.6765C381.381 24.2238 383.906 24.5732 386.368 24.3191C390.315 23.9062 393.92 21.9686 397.398 20.0706C398.653 19.3877 399.908 18.7048 401.162 18.0219C404.14 11.7405 399.86 4.15682 394.444 -0.31398L394.428 -0.282234Z" fill="#2B3B64"/>
<path d="M359.235 8.64344C364.73 5.59408 370.495 3.03707 376.451 1.02004C372.282 12.1772 368.804 23.6044 366.056 35.1983C369.59 24.8352 378.111 16.8307 382.113 6.63436C382.383 5.93555 382.645 5.20496 382.598 4.4585C382.55 3.77557 382.256 3.13236 381.97 2.51296C380.676 -0.242577 379.389 -3.00607 378.095 -5.76161C375.022 -3.1093 371.639 -0.814337 368.034 1.06769C365.612 2.33825 362.801 3.43411 360.204 2.57648C358.751 2.10001 357.567 1.05973 356.456 0.0115166C353.041 -3.23637 350.023 -6.89716 347.474 -10.8597C349.539 -7.66744 350.222 -3.62548 352.311 -0.385536C354.32 2.73529 356.781 5.872 359.235 8.65137V8.64344Z" fill="#2B3B64"/>
<path d="M330.057 -5.20537C320.647 -8.84237 309.458 -7.44475 301.231 -1.61603C303.264 -0.567815 305.297 0.480397 307.33 1.52861C300.08 6.53147 297.006 16.7992 300.326 24.9626C293.02 21.7862 285.063 20.4521 277.202 19.1498C274.907 26.6541 273.509 34.4283 273.041 42.2582C272.961 43.632 272.929 45.1011 273.628 46.2843C274.287 47.3961 275.478 48.071 276.614 48.6904C281.919 51.581 287.231 54.4636 292.536 57.3541C293.211 57.7194 293.949 58.18 294.1 58.9264C294.235 59.6094 293.814 60.2685 293.409 60.8402C289.351 66.6213 285.294 72.3944 281.244 78.1755C280.592 79.1046 279.917 80.0813 279.743 81.209C279.56 82.3525 279.917 83.5119 280.33 84.5919C282.705 90.8573 287.064 96.3605 292.615 100.109C298.269 103.92 304.94 105.866 311.483 107.756C320.838 110.456 330.184 113.148 339.539 115.848C342.016 116.563 344.859 117.237 347.043 115.856C348.512 114.935 349.322 113.283 350.14 111.75C353.15 106.08 357.136 100.927 361.861 96.5828C362.48 96.0111 363.131 95.4393 363.465 94.669C364.346 92.66 362.774 90.4841 361.305 88.8483C357.279 84.3695 353.253 79.8828 349.227 75.4041C348.52 74.6179 347.766 73.5697 348.194 72.6009C348.536 71.8386 349.441 71.5527 350.251 71.3542C354.087 70.3933 358.121 69.4324 361.948 70.4409C363.854 70.9412 365.593 71.91 367.443 72.585C371.859 74.205 376.877 74.0938 381.213 72.2833C391.425 68.0189 395.753 56.1709 398.985 45.5855C399.358 44.3546 399.652 42.8061 398.684 41.9564C398.263 41.5911 397.683 41.4562 397.127 41.3926C393.919 41.0512 390.83 42.687 387.606 42.8776C384.382 43.0682 380.467 40.4556 381.539 37.4142C381.896 36.3977 382.73 35.6433 383.532 34.9286C387.749 31.1725 391.973 27.4243 396.19 23.6682C398.001 22.0562 399.851 20.3965 400.963 18.2524C404.25 11.9155 399.907 4.14122 394.395 -0.401054C392.188 -2.21955 389.504 -4.36362 389.821 -7.21445C389.941 -8.27855 390.488 -9.23943 391.021 -10.1606C393.3 -14.1073 395.571 -18.054 397.85 -22.0007C391.37 -25.8521 382.801 -23.1124 376.941 -18.3795C371.08 -13.6467 366.84 -7.1827 361.202 -2.18779C358.78 -5.65008 356.31 -9.2156 355.246 -13.3052C354.182 -17.3949 354.801 -22.1992 357.882 -25.0977C361.17 -28.1947 366.292 -28.417 369.961 -31.0614C368.397 -29.9338 357.851 -32.5543 355.365 -32.6337C352.03 -32.7449 344.144 -33.8725 341.452 -31.514C339.126 -29.4732 338.395 -22.628 337.275 -19.801C335.274 -14.7426 332.852 -9.84294 330.049 -5.18155L330.057 -5.20537Z" stroke="#182136" stroke-width="0.8" mask="url(#path-46-inside-1_7115_6249)"/>
<path d="M394.428 -0.282234C392.221 -2.10073 389.537 -4.2448 389.854 -7.09563C389.973 -8.15973 390.521 -9.12059 391.053 -10.0418C393.332 -13.9884 395.604 -17.9351 397.883 -21.8818C391.403 -25.7332 382.834 -22.9936 376.974 -18.2607C371.113 -13.5279 366.873 -7.06388 361.235 -2.06897C358.813 -5.53126 356.343 -9.09678 355.279 -13.1864C354.215 -17.2761 354.834 -22.0804 357.915 -24.9789C360.449 -27.3691 364.078 -28.052 367.294 -29.4496C360.274 -29.9023 350.229 -28.7985 346.504 -24.2959C345.48 -23.0571 345.226 -21.3736 345.019 -19.7854C343.645 -9.43031 342.748 2.18745 349.228 10.3826C340.326 9.91407 331.416 9.44554 322.514 8.97702C326.302 12.8602 330.424 16.4178 334.815 19.6021C336.308 20.6821 337.904 21.7541 339.738 21.9606C341.509 22.1591 343.256 21.5159 344.924 20.8647C350.641 18.6333 356.295 16.2272 361.87 13.6543C363.371 19.6577 358.511 25.28 353.691 29.1631C351.841 30.6561 349.871 32.1172 347.576 32.7525C341.144 34.5551 334.942 29.5602 328.407 28.1626C327.787 31.8869 327.16 35.6113 326.54 39.3356C326.231 41.2018 325.929 43.187 326.66 44.934C327.644 47.2766 330.328 48.5551 332.877 48.5869C335.418 48.6187 337.864 47.6419 340.175 46.5778C347.465 43.2347 354.414 38.875 362.227 37.0883C363.069 36.8977 364.141 36.8103 364.626 37.533C365.023 38.1127 364.792 38.8988 364.546 39.558C360.949 49.0793 355.255 57.7985 347.997 64.9296C344.543 68.3204 340.461 71.473 335.657 72.0288C334.323 72.1797 332.901 72.1083 331.75 71.4174C330.709 70.79 330.011 69.7339 329.359 68.7015C324.762 61.4831 320.386 54.0186 314.367 47.9357C308.348 41.8608 300.335 37.2074 291.782 37.2312C290.623 37.2312 289.106 37.668 289.09 38.8274C289.083 39.5897 289.773 40.1535 290.393 40.5903C295.523 44.2193 300.851 48.3249 302.932 54.2568C297.945 52.3748 292.966 50.4928 287.979 48.6107C287.28 50.9295 289.829 52.8354 291.997 53.9233C297.46 56.6709 302.924 59.4264 308.387 62.174C297.913 68.8842 289.44 78.6755 284.302 89.9994C296.341 83.3766 310.73 81.1452 324.214 83.8054C319.6 89.6977 314.152 94.9467 308.093 99.3539C311.937 100.204 315.828 98.5757 319.656 97.6546C327.279 95.8361 335.553 96.9399 342.43 100.68C343.224 101.109 344.058 101.657 344.32 102.514C344.511 103.158 344.344 103.849 344.114 104.484C343.248 106.866 341.613 108.899 340.596 111.218C339.945 112.703 339.611 114.466 339.913 116.022C342.311 116.697 345.003 117.253 347.092 115.943C348.561 115.022 349.371 113.37 350.189 111.837C353.198 106.167 357.185 101.014 361.91 96.6699C362.529 96.0981 363.18 95.5264 363.514 94.7561C364.395 92.747 362.823 90.5712 361.354 88.9353C357.328 84.4566 353.302 79.9699 349.276 75.4911C348.569 74.705 347.814 73.6568 348.243 72.688C348.585 71.9256 349.49 71.6397 350.3 71.4412C354.136 70.4803 358.17 69.5195 361.997 70.528C363.903 71.0283 365.642 71.9971 367.492 72.6721C371.908 74.292 376.926 74.1809 381.262 72.3703C390.45 68.5348 394.873 58.5609 398.026 48.8966C395.389 48.6028 392.888 49.9607 390.355 50.7627C382.946 53.1212 373.805 49.9845 370.446 42.9805C367.079 35.9686 371.296 26.09 378.943 24.6765C381.381 24.2238 383.906 24.5732 386.368 24.3191C390.315 23.9062 393.92 21.9686 397.398 20.0706C398.653 19.3877 399.908 18.7048 401.162 18.0219C404.14 11.7405 399.86 4.15682 394.444 -0.31398L394.428 -0.282234Z" stroke="#182136" stroke-width="0.8" mask="url(#path-46-inside-1_7115_6249)"/>
<path d="M359.235 8.64344C364.73 5.59408 370.495 3.03707 376.451 1.02004C372.282 12.1772 368.804 23.6044 366.056 35.1983C369.59 24.8352 378.111 16.8307 382.113 6.63436C382.383 5.93555 382.645 5.20496 382.598 4.4585C382.55 3.77557 382.256 3.13236 381.97 2.51296C380.676 -0.242577 379.389 -3.00607 378.095 -5.76161C375.022 -3.1093 371.639 -0.814337 368.034 1.06769C365.612 2.33825 362.801 3.43411 360.204 2.57648C358.751 2.10001 357.567 1.05973 356.456 0.0115166C353.041 -3.23637 350.023 -6.89716 347.474 -10.8597C349.539 -7.66744 350.222 -3.62548 352.311 -0.385536C354.32 2.73529 356.781 5.872 359.235 8.65137V8.64344Z" stroke="#182136" stroke-width="0.8" mask="url(#path-46-inside-1_7115_6249)"/>
<path d="M11.5436 439.627C9.61822 441.154 6.8173 441.121 4.91713 439.425L4.91669 439.425L-100.783 344.855L-100.784 344.854C-102.898 342.96 -103.078 339.703 -101.184 337.588L11.5436 439.627ZM11.5436 439.627L11.5712 439.734L12.1884 439.044L145.834 289.664L145.835 289.664C147.73 287.541 147.549 284.292 145.434 282.398L145.434 282.398L39.7266 187.817L39.7262 187.816C37.6028 185.921 34.3546 186.103 32.4603 188.217L32.4601 188.217L-101.184 337.588L11.5436 439.627Z" fill="#2B3B64" stroke="#182136" stroke-width="0.989691"/>
<path d="M11.8144 438.694C10.1025 440.605 7.16671 440.77 5.24665 439.056L-100.454 344.486C-102.364 342.774 -102.527 339.829 -100.815 337.918L32.8289 188.547C34.5408 186.636 37.4766 186.472 39.3966 188.186L145.104 282.767C147.015 284.479 147.179 287.414 145.466 289.334L11.8196 438.714L11.8144 438.694Z" fill="#2B3B64"/>
<path d="M28.2094 210.47L120.258 292.838C120.45 293.013 120.742 292.99 120.918 292.798C121.093 292.605 121.07 292.313 120.877 292.138L28.8359 209.781C28.6438 209.605 28.3516 209.629 28.1764 209.821C28.0011 210.013 28.0245 210.306 28.2075 210.479L28.2094 210.47Z" fill="#2B3B64"/>
<path d="M21.745 217.698L80.0133 269.843C80.2054 270.018 80.4976 269.994 80.6709 269.811C80.8462 269.619 80.8228 269.327 80.6307 269.152L22.3532 217.005C22.1611 216.83 21.8689 216.853 21.6956 217.036C21.5295 217.23 21.5438 217.521 21.7359 217.696L21.745 217.698Z" fill="#2B3B64"/>
<path d="M83.5951 271.787C83.403 271.612 83.1108 271.635 82.9375 271.818C82.7622 272.011 82.7856 272.303 82.9777 272.478L111.626 298.116C111.818 298.291 112.11 298.268 112.284 298.085C112.459 297.892 112.436 297.6 112.243 297.425L83.6042 271.789L83.5951 271.787Z" fill="#2B3B64"/>
<path d="M15.287 224.918L96.5987 297.687C96.7908 297.863 97.083 297.839 97.2563 297.656C97.4316 297.464 97.4082 297.172 97.2252 296.998L15.9135 224.229C15.7214 224.053 15.4292 224.077 15.2559 224.26C15.0806 224.452 15.104 224.744 15.287 224.918Z" fill="#2B3B64"/>
<path d="M8.82385 232.146L76.1904 292.427C76.3825 292.603 76.6747 292.579 76.848 292.396C77.0232 292.204 76.9998 291.912 76.8169 291.738L9.45035 231.457C9.25825 231.282 8.96605 231.306 8.79079 231.498C8.61553 231.69 8.63894 231.982 8.83104 232.158L8.82385 232.146Z" fill="#2B3B64"/>
<path d="M2.35613 239.364L85.749 313.987C85.9411 314.163 86.2333 314.139 86.4066 313.956C86.5819 313.764 86.5585 313.472 86.3755 313.298L2.9846 238.666C2.79249 238.49 2.5003 238.514 2.32504 238.706C2.14977 238.898 2.17318 239.191 2.35613 239.364Z" fill="#2B3B64"/>
<path d="M-4.10646 246.592L65.6601 309.025C65.8522 309.2 66.1444 309.177 66.3196 308.985C66.4949 308.792 66.4715 308.5 66.2794 308.325L-3.48715 245.892C-3.67925 245.717 -3.97146 245.74 -4.14475 245.923C-4.32001 246.115 -4.2966 246.408 -4.11365 246.581L-4.10646 246.592Z" fill="#2B3B64"/>
<path d="M-10.566 253.812L66.5965 322.858C66.7906 323.024 67.0808 323.01 67.2561 322.818C67.4313 322.625 67.4079 322.333 67.225 322.16L-9.93759 253.114C-10.1297 252.939 -10.4219 252.962 -10.5952 253.145C-10.7705 253.337 -10.747 253.63 -10.5641 253.803L-10.566 253.812Z" fill="#2B3B64"/>
<path d="M-17.0269 261.031L45.6972 317.167C45.8912 317.333 46.1814 317.319 46.3567 317.126C46.532 316.934 46.5086 316.642 46.3165 316.467L-16.4095 260.34C-16.6016 260.165 -16.8938 260.189 -17.0691 260.381C-17.2443 260.573 -17.2209 260.865 -17.0288 261.041L-17.0269 261.031Z" fill="#2B3B64"/>
<path d="M50.7049 320.403C50.5128 320.228 50.2206 320.251 50.0473 320.434C49.8721 320.627 49.8955 320.919 50.0876 321.094L64.8698 334.318C65.0619 334.493 65.3541 334.47 65.5274 334.287C65.6935 334.093 65.6793 333.802 65.4872 333.627L50.7069 320.394L50.7049 320.403Z" fill="#2B3B64"/>
<path d="M-23.4957 268.258L64.4815 346.986C64.6736 347.162 64.9658 347.138 65.1391 346.955C65.3144 346.763 65.291 346.471 65.0989 346.295L-22.8692 267.569C-23.0613 267.394 -23.3535 267.418 -23.5268 267.601C-23.7021 267.793 -23.6787 268.085 -23.4957 268.258Z" fill="#2B3B64"/>
<path d="M62.7182 357.166L-29.3285 274.789C-29.5206 274.614 -29.8128 274.637 -29.9861 274.82C-30.1613 275.012 -30.1379 275.305 -29.955 275.478L62.0937 357.846C62.2858 358.021 62.578 357.998 62.7513 357.815C62.9174 357.621 62.9032 357.33 62.7111 357.155L62.7182 357.166Z" fill="#2B3B64"/>
<path d="M-36.4198 282.706L21.8486 334.851C22.0407 335.026 22.3329 335.003 22.5082 334.811C22.6834 334.618 22.66 334.326 22.4771 334.153L-35.8004 282.006C-35.9926 281.831 -36.2847 281.855 -36.458 282.038C-36.6333 282.23 -36.6099 282.522 -36.4178 282.697L-36.4198 282.706Z" fill="#2B3B64"/>
<path d="M54.0694 362.431L25.421 336.793C25.2269 336.627 24.9367 336.642 24.7615 336.834C24.5862 337.026 24.6096 337.318 24.7925 337.492L53.4409 363.129C53.635 363.296 53.9252 363.281 54.1004 363.089C54.2757 362.897 54.2523 362.605 54.0602 362.429L54.0694 362.431Z" fill="#2B3B64"/>
<path d="M-42.8776 289.926L38.4341 362.696C38.6262 362.871 38.9184 362.847 39.0917 362.664C39.267 362.472 39.2436 362.18 39.0606 362.007L-42.2511 289.237C-42.4432 289.061 -42.7354 289.085 -42.9087 289.268C-43.084 289.46 -43.0606 289.752 -42.8685 289.928L-42.8776 289.926Z" fill="#2B3B64"/>
<path d="M-49.3408 297.154L18.0257 357.435C18.2198 357.602 18.51 357.587 18.6853 357.395C18.8514 357.201 18.8371 356.911 18.645 356.735L-48.7215 296.454C-48.9136 296.279 -49.2058 296.303 -49.3791 296.486C-49.5543 296.678 -49.5401 296.968 -49.348 297.143L-49.3408 297.154Z" fill="#2B3B64"/>
<path d="M-55.8082 304.372L27.5847 378.996C27.7768 379.171 28.069 379.147 28.2443 378.955C28.4195 378.763 28.3961 378.471 28.204 378.295L-55.1889 303.672C-55.3829 303.506 -55.6732 303.52 -55.8484 303.712C-56.0237 303.905 -56.0003 304.197 -55.8173 304.37L-55.8082 304.372Z" fill="#2B3B64"/>
<path d="M-62.2707 311.601L7.4958 374.034C7.68987 374.201 7.9801 374.186 8.15536 373.994C8.33063 373.802 8.30722 373.51 8.12427 373.336L-61.6422 310.903C-61.8344 310.728 -62.1265 310.752 -62.2998 310.935C-62.4751 311.127 -62.4517 311.419 -62.2596 311.594L-62.2707 311.601Z" fill="#2B3B64"/>
<path d="M-68.7307 318.82L8.4318 387.866C8.6239 388.041 8.91609 388.018 9.08939 387.835C9.26465 387.643 9.24125 387.35 9.0583 387.177L-68.0951 318.133C-68.2892 317.967 -68.5794 317.982 -68.7547 318.174C-68.9299 318.366 -68.9065 318.658 -68.7236 318.831L-68.7307 318.82Z" fill="#2B3B64"/>
<path d="M-75.1933 326.049L-12.4673 382.175C-12.2752 382.351 -11.983 382.327 -11.8097 382.144C-11.6345 381.952 -11.6579 381.66 -11.85 381.484L-74.576 325.358C-74.7681 325.183 -75.0583 325.197 -75.2336 325.389C-75.4088 325.582 -75.3854 325.874 -75.2025 326.047L-75.1933 326.049Z" fill="#2B3B64"/>
<path d="M-7.45765 385.402C-7.65171 385.236 -7.94193 385.25 -8.1172 385.443C-8.28331 385.637 -8.26904 385.927 -8.07695 386.102L6.70333 399.336C6.89543 399.511 7.18762 399.487 7.36288 399.295C7.53814 399.103 7.51474 398.811 7.32265 398.635L-7.45765 385.402Z" fill="#2B3B64"/>
<path d="M6.93467 411.304L-81.0426 332.576C-81.2347 332.401 -81.5269 332.424 -81.7021 332.616C-81.8774 332.808 -81.854 333.101 -81.6619 333.276L6.30621 412.002C6.49831 412.177 6.79049 412.154 6.96379 411.971C7.13905 411.779 7.11565 411.486 6.9327 411.313L6.93467 411.304Z" fill="#2B3B64"/>
<path d="M28.8304 209.776L28.8359 209.781L120.877 292.138L120.881 292.142L120.888 292.148C121.07 292.324 121.09 292.609 120.918 292.798C120.742 292.99 120.45 293.013 120.258 292.838L120.254 292.834L120.247 292.828L28.2094 210.47L28.2075 210.479L28.2041 210.476L28.203 210.475L28.195 210.467C28.0235 210.292 28.0052 210.009 28.1764 209.821C28.35 209.631 28.6383 209.606 28.8304 209.776Z" fill="#182136"/>
<path d="M21.9154 216.903C22.0638 216.862 22.2293 216.892 22.3532 217.005L80.6312 269.152L80.6377 269.158C80.8233 269.334 80.8441 269.621 80.6709 269.811C80.4977 269.994 80.2049 270.017 80.0128 269.842L21.745 217.698L21.7353 217.695L21.7288 217.689C21.5434 217.514 21.5315 217.228 21.6956 217.036C21.7546 216.974 21.8273 216.93 21.9052 216.906L21.9154 216.903Z" fill="#182136"/>
<path d="M111.626 298.116C111.818 298.291 112.11 298.268 112.284 298.085C112.457 297.895 112.436 297.607 112.25 297.431L112.244 297.425L83.6053 271.79L83.6042 271.789L83.5959 271.787C83.4038 271.612 83.1108 271.635 82.9375 271.818C82.7644 272.008 82.7851 272.296 82.9707 272.471L82.9777 272.478L111.626 298.116Z" fill="#182136"/>
<path d="M15.2559 224.26C15.4275 224.078 15.7159 224.054 15.908 224.224L15.9135 224.229L97.2252 296.998L97.2263 296.999C97.4083 297.173 97.4312 297.464 97.2563 297.656C97.0847 297.837 96.7964 297.862 96.6042 297.692L96.5987 297.687L15.287 224.918L15.2859 224.916C15.1039 224.743 15.081 224.452 15.2559 224.26Z" fill="#182136"/>
<path d="M9.45035 231.457L9.44482 231.452L9.43889 231.447C9.24679 231.283 8.9626 231.309 8.79079 231.498C8.64913 231.653 8.63727 231.874 8.73936 232.045C8.76125 232.082 8.78839 232.117 8.82061 232.148L8.82172 232.149L8.8271 232.154L8.83104 232.158L8.82385 232.146L76.1904 292.427L76.1959 292.432C76.3881 292.602 76.6763 292.577 76.848 292.396C77.0229 292.204 76.9999 291.913 76.818 291.739L76.8169 291.738L9.45035 231.457Z" fill="#182136"/>
<path d="M2.32504 238.706C2.49967 238.515 2.79042 238.491 2.98254 238.664L2.9846 238.666L86.3755 313.298L86.3766 313.299C86.5585 313.473 86.5815 313.764 86.4066 313.956C86.2349 314.137 85.9466 314.162 85.7545 313.992L85.749 313.987L2.35613 239.364L2.35164 239.36C2.17281 239.186 2.15121 238.897 2.32504 238.706Z" fill="#182136"/>
<path d="M-3.48715 245.892C-3.67925 245.717 -3.97146 245.74 -4.14475 245.923C-4.31966 246.115 -4.29669 246.406 -4.11474 246.58L-4.11365 246.581L-4.10646 246.592L65.6601 309.025C65.8522 309.2 66.1444 309.177 66.3196 308.985C66.4917 308.796 66.4723 308.511 66.2898 308.335L66.2833 308.329L66.2794 308.325L-3.48715 245.892Z" fill="#182136"/>
<path d="M-10.5952 253.145C-10.4225 252.963 -10.1318 252.939 -9.93965 253.112L-9.93759 253.114L67.2229 322.158L67.225 322.16C67.4079 322.333 67.4313 322.625 67.2561 322.818C67.0814 323.009 66.7927 323.024 66.5986 322.86L66.5965 322.858L-10.566 253.812L-10.5641 253.803L-10.5652 253.802C-10.7471 253.629 -10.7701 253.337 -10.5952 253.145Z" fill="#182136"/>
<path d="M46.3204 316.47L46.3165 316.467L-16.4089 260.341C-16.601 260.166 -16.8938 260.189 -17.0691 260.381C-17.2403 260.569 -17.2219 260.852 -17.0419 261.028L-17.0393 261.031L-17.0327 261.037L-17.0288 261.041L-17.0269 261.031L45.6972 317.167C45.8912 317.333 46.1814 317.319 46.3567 317.126C46.5307 316.936 46.5089 316.646 46.3204 316.47Z" fill="#182136"/>
<path d="M65.5274 334.287C65.3541 334.47 65.0612 334.493 64.8691 334.317L50.0876 321.094L50.0834 321.09L50.0805 321.087C49.8949 320.912 49.8743 320.624 50.0473 320.434C50.1052 320.373 50.1764 320.33 50.2527 320.306C50.259 320.304 50.2652 320.302 50.2715 320.3C50.4131 320.262 50.5696 320.289 50.6904 320.39L50.7015 320.4L50.7049 320.403L50.7069 320.394L50.7108 320.397L65.4876 333.628L65.4942 333.634C65.6796 333.81 65.6915 334.095 65.5274 334.287Z" fill="#182136"/>
<path d="M-22.8747 267.564C-23.0669 267.395 -23.3552 267.419 -23.5268 267.601C-23.7017 267.792 -23.6788 268.084 -23.4968 268.257L-23.4957 268.258L64.481 346.986C64.6731 347.161 64.9658 347.138 65.1391 346.955C65.3122 346.765 65.2915 346.478 65.1059 346.302L65.0994 346.296L-22.8692 267.569L-22.8747 267.564Z" fill="#182136"/>
<path d="M61.9041 357.676L61.9014 357.674L-29.955 275.478L-29.9561 275.477C-30.138 275.303 -30.161 275.012 -29.9861 274.82C-29.8144 274.639 -29.5261 274.614 -29.334 274.784L-29.3285 274.789L62.708 357.157L62.7093 357.158L62.7164 357.163L62.7116 357.156L62.7181 357.162L62.721 357.164C62.7536 357.196 62.7807 357.231 62.8023 357.268C62.902 357.439 62.8854 357.658 62.7513 357.815C62.5827 357.993 62.3015 358.02 62.1095 357.86L62.1027 357.854L62.0937 357.846L61.906 357.678L61.9041 357.676Z" fill="#182136"/>
<path d="M-35.8004 282.006C-35.9926 281.831 -36.2847 281.855 -36.458 282.038C-36.6311 282.227 -36.6104 282.515 -36.4248 282.691L-36.4183 282.697L-36.4198 282.706L21.8486 334.851L21.8507 334.853C22.0428 335.026 22.3335 335.002 22.5082 334.811C22.682 334.62 22.6604 334.331 22.4816 334.157L22.4771 334.153L-35.8004 282.006Z" fill="#182136"/>
<path d="M53.9015 363.22L53.8912 363.223C53.7406 363.27 53.5711 363.24 53.443 363.131L53.4409 363.129L24.7925 337.492C24.6096 337.318 24.5862 337.026 24.7615 336.834C24.9361 336.642 25.2249 336.627 25.4189 336.792L25.421 336.793L54.0613 362.424L54.0633 362.426L54.0673 362.429L54.0694 362.431L54.0663 362.431L54.0602 362.429L54.0642 362.433L54.0662 362.435L54.0682 362.437C54.2529 362.613 54.2733 362.9 54.1004 363.089C54.0438 363.151 53.9751 363.195 53.9015 363.22Z" fill="#182136"/>
<path d="M-42.6994 289.138L-42.7097 289.141C-42.7836 289.166 -42.8524 289.209 -42.9087 289.268C-43.0815 289.458 -43.0612 289.744 -42.8765 289.92L-42.8755 289.921L-42.8744 289.922L-42.869 289.927L-42.8776 289.926L38.4341 362.696L38.4396 362.7C38.6317 362.87 38.9201 362.846 39.0917 362.664C39.2666 362.472 39.2436 362.181 39.0617 362.008L39.0606 362.007L-42.2511 289.237L-42.2566 289.232C-42.3828 289.12 -42.5505 289.093 -42.6994 289.138Z" fill="#182136"/>
<path d="M-49.3791 296.486C-49.2058 296.303 -48.9136 296.279 -48.7215 296.454L-48.7204 296.455L18.645 356.735L18.649 356.739C18.8373 356.915 18.8503 357.202 18.6853 357.395C18.51 357.587 18.2198 357.602 18.0257 357.435L18.0218 357.432L-49.3408 297.154L-49.348 297.143L-49.3491 297.142C-49.5401 296.967 -49.554 296.677 -49.3791 296.486Z" fill="#182136"/>
<path d="M-55.1889 303.672C-55.3169 303.562 -55.4869 303.531 -55.638 303.578L-55.6483 303.581C-55.7223 303.606 -55.7914 303.65 -55.8484 303.712C-56.0237 303.905 -56.0003 304.197 -55.8173 304.37L-55.8142 304.371L-55.8082 304.372L27.5807 378.992L27.5847 378.996C27.7768 379.171 28.069 379.147 28.2443 378.955C28.4163 378.766 28.3969 378.481 28.2144 378.305L28.2079 378.299L28.204 378.295L-55.1889 303.672Z" fill="#182136"/>
<path d="M-62.3686 311.45C-62.3793 311.429 -62.3883 311.407 -62.3956 311.384C-62.4448 311.233 -62.4158 311.062 -62.2998 310.935C-62.1272 310.752 -61.8364 310.728 -61.6443 310.901L-61.6422 310.903L8.12223 373.334L8.12427 373.336C8.30722 373.51 8.33063 373.802 8.15536 373.994C7.98073 374.186 7.69195 374.2 7.49789 374.036L7.4958 374.034L-62.2687 311.603L-62.2707 311.601L-62.2601 311.594L-62.2622 311.592L-62.2666 311.588C-62.282 311.573 -62.2962 311.558 -62.3093 311.542C-62.3328 311.513 -62.3526 311.482 -62.3686 311.45Z" fill="#182136"/>
<path d="M-67.9039 318.304L-67.9053 318.303L-68.0951 318.133L-68.1071 318.123L-68.1129 318.119C-68.3065 317.968 -68.5847 317.987 -68.7547 318.174C-68.8954 318.328 -68.908 318.547 -68.8128 318.717C-68.7916 318.755 -68.765 318.79 -68.7333 318.822L-68.7236 318.831L-68.7307 318.82L-68.7212 318.829L-68.7192 318.831L8.4318 387.866L8.43729 387.871C8.62943 388.041 8.91773 388.016 9.08939 387.835C9.2643 387.643 9.24134 387.352 9.05939 387.178L9.0583 387.177L-67.9039 318.304Z" fill="#182136"/>
<path d="M-11.8097 382.144C-11.983 382.327 -12.2752 382.351 -12.4673 382.175L-12.4745 382.169L-75.1941 326.049L-75.2025 326.047L-75.2035 326.046C-75.3855 325.873 -75.4085 325.581 -75.2336 325.389C-75.1766 325.327 -75.1074 325.283 -75.0335 325.259L-75.0232 325.256C-74.8722 325.209 -74.7022 325.243 -74.5754 325.359L-11.8495 381.485L-11.843 381.491C-11.6573 381.667 -11.6366 381.954 -11.8097 382.144Z" fill="#182136"/>
<path d="M6.70333 399.336C6.89542 399.511 7.18762 399.487 7.36288 399.295C7.5349 399.106 7.51553 398.821 7.33313 398.645L7.3268 398.639L7.32265 398.635L-7.45343 385.406L-7.45765 385.402C-7.65171 385.236 -7.94193 385.25 -8.1172 385.443C-8.2821 385.635 -8.26924 385.923 -8.08111 386.098L-8.07695 386.102L6.70333 399.336Z" fill="#182136"/>
<path d="M6.9327 411.313L6.93379 411.314C7.11575 411.487 7.1387 411.779 6.96379 411.971C6.79111 412.153 6.50037 412.177 6.30824 412.004L6.30621 412.002L-81.6619 333.276L-81.6658 333.272L-81.6723 333.266C-81.8548 333.09 -81.8742 332.805 -81.7021 332.616C-81.5269 332.424 -81.2347 332.401 -81.0426 332.576L6.93467 411.304L6.9327 411.313Z" fill="#182136"/>
<path d="M67.8568 164.308L67.857 164.308C69.7394 164.625 71.0051 166.412 70.6805 168.289L70.6804 168.29L63.2367 212.06L63.2366 212.06C62.9191 213.942 61.1322 215.208 59.2552 214.884L59.2546 214.883L12.0652 206.86L12.0649 206.86C10.1825 206.543 8.91688 204.756 9.24144 202.879L9.24153 202.878L16.6853 159.108L16.6853 159.108C17.0028 157.226 18.7897 155.96 20.6668 156.284L20.6673 156.285L67.8568 164.308Z" fill="#2B3B64" stroke="black" stroke-width="0.4"/>
</g>
<defs>
<clipPath id="clip0_7115_6249">
<rect width="376.082" height="351" fill="white"/>
</clipPath>
</defs>
</svg>
