<svg width="378" height="351" viewBox="0 0 378 351" fill="none" xmlns="http://www.w3.org/2000/svg">
<g clip-path="url(#clip0_3168_4687)">
<rect width="376.082" height="351" transform="translate(0.95874)" fill="#182136"/>
<path opacity="0.3" d="M33.2065 32.0526V15.693L53.5948 3.93515H82.6861L103.074 15.693V32.0663L82.6861 43.8242H53.5949L33.2065 32.0526Z" fill="#2B3B64" stroke="#182136" stroke-width="0.989691"/>
<path d="M91.363 2.18974L78.2063 -5.40083V-38.107L86.6053 -36.1884L94.9132 -30.027L91.363 2.18974Z" fill="#2B3B64" stroke="#182136" stroke-width="0.989691"/>
<path d="M57.3263 -38.107V-5.40083L44.1681 2.19062L40.686 -28.7949L48.9507 -36.1937L57.3263 -38.107Z" fill="#2B3B64" stroke="#182136" stroke-width="0.989691"/>
<path d="M53.994 40.9257L35.6493 30.361L35.6357 -16.2155L47.3735 -10.6389L53.9669 -5.60491L53.994 40.9257Z" fill="#2B3B64" stroke="#182136" stroke-width="0.989691"/>
<path d="M54.9833 41.287L54.956 -5.39401L66.3746 -6.32469L81.3099 -5.38543L81.3235 41.3004L54.9833 41.287Z" fill="#2B3B64" stroke="#182136" stroke-width="0.989691"/>
<path d="M82.3144 40.9391L82.3008 -5.63271L90.5666 -12.5568L100.632 -16.2875L100.646 30.3614L82.3144 40.9391Z" fill="#2B3B64" stroke="#182136" stroke-width="0.989691"/>
<path opacity="0.3" d="M79.377 33.9426H79.584L79.7293 33.7953L95.5658 17.7395L100.618 15.6363V25.3827L81.6598 36.3087H54.5948L35.6362 25.3827V15.6363L40.6887 17.7395L56.5252 33.7953L56.6705 33.9426H56.8775H79.377Z" fill="#2B3B64" stroke="#182136" stroke-width="0.989691"/>
<path d="M53.5224 33.7283L34.2337 22.6095L34.2082 10.8668L46.5555 16.734L53.5097 22.0317L53.5224 33.7283Z" fill="#2B3B64" stroke="#182136" stroke-width="0.989691"/>
<path d="M54.5123 34.0896L54.4995 22.2418L66.4731 21.2694L82.186 22.2505L82.1988 34.0896H54.5123Z" fill="#2B3B64" stroke="#182136" stroke-width="0.989691"/>
<path d="M83.1858 33.7299L83.1604 22.017L91.8561 14.7326L102.464 10.7943L102.476 22.61L83.1858 33.7299Z" fill="#2B3B64" stroke="#182136" stroke-width="0.989691"/>
<path d="M101.36 9.18021L101.608 9.03724L101.608 8.75118L101.595 -6.66436L102.464 -6.17168V9.79703L82.5476 21.2914H54.1365L34.2063 9.79694V-6.17309L34.6462 -6.42486V8.7516V9.03738L34.8937 9.18021L54.2148 20.329L54.3295 20.3952H54.4621H81.7919H81.9244L82.0392 20.329L101.36 9.18021Z" fill="#2B3B64" stroke="#182136" stroke-width="0.989691"/>
<path opacity="0.3" d="M-21.5926 63.669V47.3096L-1.20429 35.5517H27.8871L48.2753 47.3096V63.669L27.8871 75.4269H-1.20429L-21.5926 63.669Z" fill="#2B3B64" stroke="#182136" stroke-width="0.989691"/>
<path d="M22.4175 25.9924H3.51706V-6.74491L13.3439 -9.35759L22.4175 -6.75262V25.9924Z" fill="#2B3B64" stroke="#182136" stroke-width="0.989691"/>
<path d="M36.5642 33.7917L23.4074 26.2011V-6.5051L31.8062 -4.5865L40.1144 1.58849L36.5642 33.7917Z" fill="#2B3B64" stroke="#182136" stroke-width="0.989691"/>
<path d="M2.52726 -6.5051V26.2011L-10.6311 33.7926L-14.1131 2.82061L-5.84815 -4.59185L2.52726 -6.5051Z" fill="#2B3B64" stroke="#182136" stroke-width="0.989691"/>
<path d="M0.185826 72.903L0.172224 26.2088L11.577 25.2915L26.5125 26.2173L26.5397 72.903H0.185826Z" fill="#2B3B64" stroke="#182136" stroke-width="0.989691"/>
<path d="M27.5297 72.5408L27.5025 25.9826L35.7684 19.0449L45.8339 15.3143L45.8475 61.9633L27.5297 72.5408Z" fill="#2B3B64" stroke="#182136" stroke-width="0.989691"/>
<path d="M37.4677 11.5966V0.985687V0.699885L37.2201 0.557061L23.1596 -7.5549L23.0448 -7.62112H22.9123H3.02226H2.88975L2.77497 -7.5549L-11.2855 0.557061L-11.5331 0.699885V0.985687V12.4534V12.7392L-11.2855 12.882L2.77497 20.9939L2.88975 21.0602H3.02226H22.9123H23.0448L23.1596 20.9939L37.2201 12.882L36.9808 12.4672H37.4677V12.4534V11.5966ZM-19.1629 14.3169V-0.877756L-0.190384 -11.8175H26.8605L45.8192 -0.877854V14.3169L26.8605 25.2566H-0.204185L-19.1629 14.3169Z" fill="#2B3B64" stroke="#182136" stroke-width="0.989691"/>
<path opacity="0.3" d="M24.5777 65.5452H24.7847L24.93 65.3978L40.7665 49.342L45.819 47.2388V56.9854L26.8603 67.9251H-0.204428L-19.1631 56.9854V47.2388L-14.1106 49.342L1.72586 65.3978L1.8712 65.5452H2.07817H24.5777Z" fill="#2B3B64" stroke="#182136" stroke-width="0.989691"/>
<path d="M-0.285755 65.7062L-0.298605 53.8451L11.6887 52.886L27.3884 53.8536L27.414 65.7062H-0.285755Z" fill="#2B3B64" stroke="#182136" stroke-width="0.989691"/>
<path d="M28.4016 65.3449L28.3762 53.6186L37.058 46.3346L47.6655 42.4092L47.6783 54.2121L28.4016 65.3449Z" fill="#2B3B64" stroke="#182136" stroke-width="0.989691"/>
<path d="M46.5616 40.7825L46.8092 40.6397V40.3539V24.9407L47.6655 25.4295V41.413L27.7492 52.8936H-0.661959L-20.5784 41.3993V25.4302L-20.1523 25.1882V40.3539V40.6397L-19.9048 40.7825L-0.583788 51.9312L-0.468998 51.9975H-0.33647H26.9933H27.1259L27.2406 51.9312L46.5616 40.7825Z" fill="#2B3B64" stroke="#182136" stroke-width="0.989691"/>
<path opacity="0.3" d="M87.6977 63.4882V47.1288L108.1 35.3708H137.177L157.566 47.1287V63.502L137.177 75.2599H108.1L87.6977 63.4882Z" fill="#2B3B64" stroke="#182136" stroke-width="0.989691"/>
<path d="M131.708 25.8263H112.821V-6.91118L122.634 -9.5237L131.708 -6.91876V25.8263Z" fill="#2B3B64" stroke="#182136" stroke-width="0.989691"/>
<path d="M145.854 33.626L132.697 26.0354V-6.67096L141.11 -4.75214L149.405 1.42259L145.854 33.626Z" fill="#2B3B64" stroke="#182136" stroke-width="0.989691"/>
<path d="M111.831 -6.67096V26.0354L98.6731 33.6269L95.1911 2.65471L103.442 -4.75748L111.831 -6.67096Z" fill="#2B3B64" stroke="#182136" stroke-width="0.989691"/>
<path d="M108.499 72.3612L90.1542 61.7965L90.1406 15.2201L101.878 20.7967L108.472 25.8306L108.499 72.3612Z" fill="#2B3B64" stroke="#182136" stroke-width="0.989691"/>
<path d="M109.488 72.7226L109.461 26.0415L120.866 25.1109L135.801 26.0501L135.828 72.7359L109.488 72.7226Z" fill="#2B3B64" stroke="#182136" stroke-width="0.989691"/>
<path d="M136.819 72.3748L136.792 25.803L145.072 18.8788L155.138 15.1481L155.151 61.7969L136.819 72.3748Z" fill="#2B3B64" stroke="#182136" stroke-width="0.989691"/>
<path d="M146.757 11.4309V0.820035V0.534233L146.509 0.391409L132.449 -7.72055L132.334 -7.78677H132.202H112.312H112.179L112.064 -7.72055L98.0038 0.391409L97.7563 0.534233V0.820035V12.2877V12.5735L98.0038 12.7163L112.064 20.8283L112.179 20.8945H112.312H132.202H132.334L132.449 20.8283L146.509 12.7163L146.27 12.3016H146.757V12.2877V11.4309ZM90.1404 14.1513V-1.04351L109.099 -11.9832H136.164L155.122 -1.0435V14.1513L136.164 25.0909H109.099L90.1404 14.1513Z" fill="#2B3B64" stroke="#182136" stroke-width="0.989691"/>
<path opacity="0.3" d="M133.869 65.3782H134.076L134.221 65.231L150.072 49.1749L155.11 47.0725V56.8185L136.165 67.7581H109.101L90.1421 56.8184V47.0718L95.1946 49.175L111.031 65.2308L111.176 65.3782H111.383H133.869Z" fill="#2B3B64" stroke="#182136" stroke-width="0.989691"/>
<path d="M108.028 65.1634L88.7264 54.0581L88.7137 42.3012L101.062 48.1687L108.002 53.4665L108.028 65.1634Z" fill="#2B3B64" stroke="#182136" stroke-width="0.989691"/>
<path d="M109.018 65.526L108.992 53.6788L120.979 52.7197L136.679 53.6874L136.705 65.526H109.018Z" fill="#2B3B64" stroke="#182136" stroke-width="0.989691"/>
<path d="M137.693 65.1645L137.667 53.4519L146.363 46.1676L156.957 42.2425L156.969 54.045L137.693 65.1645Z" fill="#2B3B64" stroke="#182136" stroke-width="0.989691"/>
<path d="M155.853 40.6157L156.1 40.4728V40.1872V24.7739L156.957 25.2628V41.2463L137.04 52.7269H108.629L88.7129 41.2326V25.2649L89.1528 25.0174V40.1872V40.4729L89.4003 40.6158L108.721 51.7645L108.836 51.8307H108.969H136.298H136.431L136.546 51.7644L155.853 40.6157Z" fill="#2B3B64" stroke="#182136" stroke-width="0.989691"/>
<path opacity="0.3" d="M32.914 95.1046V78.7452L53.3023 66.9873H82.3937L102.782 78.7452V95.1046L82.3937 106.862H53.3023L32.914 95.1046Z" fill="#2B3B64" stroke="#182136" stroke-width="0.989691"/>
<path d="M76.9241 57.4281H58.0237V24.6908L67.8505 22.0781L76.9241 24.683V57.4281Z" fill="#2B3B64" stroke="#182136" stroke-width="0.989691"/>
<path d="M91.0706 65.2277L77.9138 57.6371V24.9309L86.3126 26.8495L94.6208 33.0245L91.0706 65.2277Z" fill="#2B3B64" stroke="#182136" stroke-width="0.989691"/>
<path d="M57.0324 24.9309V57.6371L43.8741 65.2286L40.3921 34.2566L48.657 26.8442L57.0324 24.9309Z" fill="#2B3B64" stroke="#182136" stroke-width="0.989691"/>
<path d="M53.7013 103.976L35.3565 93.3985L35.343 46.8219L47.0808 52.3985L53.6742 57.4324L53.7013 103.976Z" fill="#2B3B64" stroke="#182136" stroke-width="0.989691"/>
<path d="M54.6905 104.339L54.6633 57.6449L66.0818 56.7275L81.0172 57.6534L81.0308 104.339H54.6905Z" fill="#2B3B64" stroke="#182136" stroke-width="0.989691"/>
<path d="M82.0204 103.976L82.0069 57.4182L90.2728 50.4805L100.338 46.7499L100.352 93.3987L82.0204 103.976Z" fill="#2B3B64" stroke="#182136" stroke-width="0.989691"/>
<path d="M91.9733 43.0466V32.4357V32.1499L91.7257 32.0071L77.6653 23.8951L77.5505 23.8289H77.418H57.5279H57.3954L57.2806 23.8951L43.2201 32.0071L42.9726 32.1499V32.4357V43.9034V44.1892L43.2201 44.332L57.2806 52.444L57.3954 52.5102H57.5279H77.418H77.5505L77.6653 52.444L91.7257 44.332L91.4864 43.9173H91.9733V43.9034V43.0466ZM35.3427 45.7531V30.5583L54.3014 19.6186H81.3662L100.325 30.5583V45.7531L81.3662 56.6927H54.3014L35.3427 45.7531Z" fill="#2B3B64" stroke="#182136" stroke-width="0.989691"/>
<path opacity="0.3" d="M79.0838 96.9805H79.2908L79.4361 96.8331L95.2726 80.7773L100.325 78.6741V88.4207L81.3664 99.3604H54.3017L35.343 88.4207V78.6741L40.3955 80.7773L56.232 96.8331L56.3773 96.9805H56.5843H79.0838Z" fill="#2B3B64" stroke="#182136" stroke-width="0.989691"/>
<path d="M53.2284 96.7791L33.9397 85.6602L33.9143 73.9044L46.2617 79.7847L53.2158 85.069L53.2284 96.7791Z" fill="#2B3B64" stroke="#182136" stroke-width="0.989691"/>
<path d="M54.2189 97.1412L54.206 85.2801L66.1795 84.321L81.8925 85.2887L81.9053 97.1412H54.2189Z" fill="#2B3B64" stroke="#182136" stroke-width="0.989691"/>
<path d="M82.8923 96.78L82.8669 85.0537L91.5624 77.7695L102.17 73.844L102.183 85.6468L82.8923 96.78Z" fill="#2B3B64" stroke="#182136" stroke-width="0.989691"/>
<path d="M101.066 72.2311L101.314 72.0881L101.314 71.8019L101.301 56.3725L102.17 56.8652V72.8476L82.2538 84.3282H53.8426L33.9123 72.8338V56.8662L34.3523 56.6187V71.8023V72.0883L34.6 72.2311L53.921 83.366L54.0357 83.4321H54.1681H81.4979H81.6303L81.745 83.366L101.066 72.2311Z" fill="#2B3B64" stroke="#182136" stroke-width="0.989691"/>
<path d="M197.534 25.8263H178.648V-6.91118L188.461 -9.5237L197.534 -6.91876V25.8263Z" fill="#2B3B64" stroke="#182136" stroke-width="0.989691"/>
<path d="M211.681 33.626L198.524 26.0354V-6.67096L206.937 -4.75214L215.231 1.42259L211.681 33.626Z" fill="#2B3B64" stroke="#182136" stroke-width="0.989691"/>
<path d="M177.659 -6.67096V26.0354L164.501 33.6269L161.019 2.65471L169.27 -4.75748L177.659 -6.67096Z" fill="#2B3B64" stroke="#182136" stroke-width="0.989691"/>
<path d="M174.326 72.3612L155.981 61.7965L155.967 15.2201L167.705 20.7967L174.298 25.8306L174.326 72.3612Z" fill="#2B3B64" stroke="#182136" stroke-width="0.989691"/>
<path d="M175.315 72.7226L175.288 26.0415L186.693 25.1109L201.628 26.0501L201.655 72.7359L175.315 72.7226Z" fill="#2B3B64" stroke="#182136" stroke-width="0.989691"/>
<path d="M202.646 72.3748L202.619 25.803L210.898 18.8788L220.964 15.1481L220.977 61.7969L202.646 72.3748Z" fill="#2B3B64" stroke="#182136" stroke-width="0.989691"/>
<path d="M212.584 11.4309V0.820035V0.534233L212.336 0.391409L198.276 -7.72055L198.161 -7.78677H198.028H178.138H178.006L177.891 -7.72055L163.83 0.391409L163.583 0.534233V0.820035V12.2877V12.5735L163.83 12.7163L177.891 20.8283L178.006 20.8945H178.138H198.028H198.161L198.276 20.8283L212.336 12.7163L212.097 12.3016H212.584V12.2877V11.4309ZM155.967 14.1513V-1.04351L174.926 -11.9832H201.99L220.949 -1.0435V14.1513L201.99 25.0909H174.926L155.967 14.1513Z" fill="#2B3B64" stroke="#182136" stroke-width="0.989691"/>
<path d="M262.86 25.8263H243.973V-6.91118L253.786 -9.5237L262.86 -6.91876V25.8263Z" fill="#2B3B64" stroke="#182136" stroke-width="0.989691"/>
<path d="M277.006 33.626L263.85 26.0354V-6.67096L272.262 -4.75214L280.557 1.42259L277.006 33.626Z" fill="#2B3B64" stroke="#182136" stroke-width="0.989691"/>
<path d="M242.984 -6.67096V26.0354L229.826 33.6269L226.344 2.65471L234.595 -4.75748L242.984 -6.67096Z" fill="#2B3B64" stroke="#182136" stroke-width="0.989691"/>
<path d="M239.651 72.3612L221.306 61.7965L221.292 15.2201L233.03 20.7967L239.624 25.8306L239.651 72.3612Z" fill="#2B3B64" stroke="#182136" stroke-width="0.989691"/>
<path d="M240.64 72.7226L240.613 26.0415L252.018 25.1109L266.953 26.0501L266.981 72.7359L240.64 72.7226Z" fill="#2B3B64" stroke="#182136" stroke-width="0.989691"/>
<path d="M267.972 72.3748L267.945 25.803L276.224 18.8788L286.29 15.1481L286.304 61.7969L267.972 72.3748Z" fill="#2B3B64" stroke="#182136" stroke-width="0.989691"/>
<path d="M277.909 11.4309V0.820035V0.534233L277.662 0.391409L263.601 -7.72055L263.486 -7.78677H263.354H243.464H243.331L243.216 -7.72055L229.156 0.391409L228.908 0.534233V0.820035V12.2877V12.5735L229.156 12.7163L243.216 20.8283L243.331 20.8945H243.464H263.354H263.486L263.601 20.8283L277.662 12.7163L277.422 12.3016H277.909V12.2877V11.4309ZM221.292 14.1513V-1.04351L240.251 -11.9832H267.316L286.275 -1.0435V14.1513L267.316 25.0909H240.251L221.292 14.1513Z" fill="#2B3B64" stroke="#182136" stroke-width="0.989691"/>
<path d="M167.629 123.498L171.839 121.07V135.312L167.463 137.836L164.471 131.16L167.629 123.498Z" fill="#2B3B64" stroke="#182136" stroke-width="0.989691"/>
<path d="M154.914 130.855L166.74 124.012V137.681L154.914 130.855Z" fill="#2B3B64" stroke="#182136" stroke-width="0.989691"/>
<path d="M183.207 175.588L187.418 173.16V187.401L183.041 189.925L180.04 183.25L183.207 175.588Z" fill="#2B3B64" stroke="#182136" stroke-width="0.989691"/>
<path d="M170.484 182.954L182.32 176.102V189.772L170.484 182.954Z" fill="#2B3B64" stroke="#182136" stroke-width="0.989691"/>
<path d="M220.567 154.029L224.777 151.601V165.843L220.401 168.367L217.408 161.691L220.567 154.029Z" fill="#2B3B64" stroke="#182136" stroke-width="0.989691"/>
<path d="M207.853 161.385L219.679 154.542V168.212L207.853 161.385Z" fill="#2B3B64" stroke="#182136" stroke-width="0.989691"/>
<path d="M163.389 181.966L152.615 178.008L145.393 171.722L197.255 141.785L215.122 152.151L174.141 178.38L163.389 181.966Z" fill="#2B3B64" stroke="#182136" stroke-width="0.989691"/>
<path d="M135.081 130.761L186.829 100.943V121.593L161.986 143.501L135.028 151.552L133.274 141.138L135.081 130.761Z" fill="#2B3B64" stroke="#182136" stroke-width="0.989691"/>
<path d="M138.675 159.99L135.267 152.392L187.143 122.491L198.572 142.226L146.722 172.117L138.675 159.99Z" fill="#2B3B64" stroke="#182136" stroke-width="0.989691"/>
<path d="M164.362 132.864L156.868 129.716L146.488 122.601L198.261 92.7002L216.099 103.053L164.362 132.864Z" fill="#2B3B64" stroke="#182136" stroke-width="0.989691"/>
<path d="M169.812 143.653L165.039 133.617L216.906 103.731L229.721 125.903L177.862 155.784L169.812 143.653Z" fill="#2B3B64" stroke="#182136" stroke-width="0.989691"/>
<path d="M178.154 156.758L229.903 126.941V147.538L178.076 177.4L176.348 167.136L178.154 156.758Z" fill="#2B3B64" stroke="#182136" stroke-width="0.989691"/>
<path d="M145.568 123.131L164.034 133.769L177.212 156.568V177.889L164.396 185.314L145.922 174.644L132.697 151.807V130.506L145.568 123.131ZM175.514 176.042L175.761 175.899V175.613V156.208V156.075L175.695 155.96L163.808 135.397L163.742 135.282L163.627 135.216L146.804 125.532L146.557 125.39L146.311 125.531L134.386 132.37L134.138 132.513V132.799V152.186V152.319L134.204 152.434L146.129 173.026L146.195 173.14L146.309 173.206L163.133 182.918L163.38 183.061L163.628 182.918L175.514 176.042Z" fill="#2B3B64" stroke="#182136" stroke-width="0.989691"/>
<path d="M226.433 168.008L232.735 164.373V184.929L226.267 188.659L221.918 178.959L226.433 168.008Z" fill="#2B3B64" stroke="#182136" stroke-width="0.989691"/>
<path d="M208.256 178.526L225.545 168.522V188.505L208.256 178.526Z" fill="#2B3B64" stroke="#182136" stroke-width="0.989691"/>
<path d="M248.405 241.476L254.708 237.841V258.396L248.239 262.127L243.878 252.427L248.405 241.476Z" fill="#2B3B64" stroke="#182136" stroke-width="0.989691"/>
<path d="M230.215 252.006L247.517 241.99V261.973L230.215 252.006Z" fill="#2B3B64" stroke="#182136" stroke-width="0.989691"/>
<path d="M301.097 211.069L307.4 207.435V227.99L300.931 231.72L296.583 222.021L301.097 211.069Z" fill="#2B3B64" stroke="#182136" stroke-width="0.989691"/>
<path d="M282.919 221.586L300.208 211.583V231.565L282.919 221.586Z" fill="#2B3B64" stroke="#182136" stroke-width="0.989691"/>
<path d="M220.611 250.827L205.314 245.206L194.885 236.129L268.379 193.705L293.968 208.551L235.867 245.737L220.611 250.827Z" fill="#2B3B64" stroke="#182136" stroke-width="0.989691"/>
<path d="M180.506 178.264L253.878 135.987V165.554L218.737 196.544L180.453 207.977L177.935 193.028L180.506 178.264Z" fill="#2B3B64" stroke="#182136" stroke-width="0.989691"/>
<path d="M185.58 219.715L180.691 208.817L254.191 166.453L270.513 194.638L197.044 236.992L185.58 219.715Z" fill="#2B3B64" stroke="#182136" stroke-width="0.989691"/>
<path d="M222.001 181.587L211.32 177.099L196.397 166.87L269.797 124.479L295.362 139.316L222.001 181.587Z" fill="#2B3B64" stroke="#182136" stroke-width="0.989691"/>
<path d="M229.497 196.675L222.679 182.338L296.17 139.993L314.448 171.616L240.964 213.957L229.497 196.675Z" fill="#2B3B64" stroke="#182136" stroke-width="0.989691"/>
<path d="M241.257 214.93L314.629 172.653V202.171L241.179 244.493L238.686 229.694L241.257 214.93Z" fill="#2B3B64" stroke="#182136" stroke-width="0.989691"/>
<path d="M195.48 167.399L221.673 182.488L240.313 214.738V244.98L222.035 255.569L195.831 240.435L177.124 208.131V177.917L195.48 167.399ZM237.615 242.082L237.862 241.939V241.654V214.284V214.151L237.795 214.036L221.031 185.035L220.965 184.92L220.849 184.853L197.122 171.195L196.876 171.053L196.629 171.195L179.811 180.84L179.562 180.982V181.269V208.612V208.745L179.629 208.86L196.447 237.902L196.513 238.016L196.628 238.082L220.355 251.781L220.603 251.924L220.85 251.78L237.615 242.082Z" fill="#2B3B64" stroke="#182136" stroke-width="0.989691"/>
<path opacity="0.3" d="M140.75 325.432L120.387 337.184L-214.945 143.744L-194.584 132.016L140.75 325.432Z" fill="#2B3B64" stroke="#182136" stroke-width="0.989691"/>
<path d="M140.459 325.146L120.881 336.443V335.486L140.459 324.189V325.146Z" fill="#2B3B64" stroke="#182136" stroke-width="0.989691"/>
<path d="M119.891 336.444L-214.657 143.458V142.5L119.891 335.486V336.444Z" fill="#2B3B64" stroke="#182136" stroke-width="0.989691"/>
<path d="M139.964 323.333L120.387 334.629L-214.161 141.644L-194.584 130.372L139.964 323.333Z" fill="#2B3B64" stroke="#182136" stroke-width="0.989691"/>
<path d="M131.086 328.486L130.252 328.961V313.398L131.086 312.924V328.486Z" fill="#2B3B64" stroke="#182136" stroke-width="0.989691"/>
<path d="M130.586 312.07L129.76 312.54L-204.784 119.581L-203.958 119.111L130.586 312.07Z" fill="#2B3B64" stroke="#182136" stroke-width="0.989691"/>
<path d="M-205.285 120.436L129.263 313.396V328.955L-205.285 135.994V120.436Z" fill="#2B3B64" stroke="#182136" stroke-width="0.989691"/>
<path d="M140.459 306.37L120.881 317.667V316.71L140.459 305.413V306.37Z" fill="#2B3B64" stroke="#182136" stroke-width="0.989691"/>
<path d="M119.891 317.668L-214.657 124.682V123.724L119.891 316.71V317.668Z" fill="#2B3B64" stroke="#182136" stroke-width="0.989691"/>
<path d="M139.964 304.556L120.387 315.853L-214.161 122.867L-194.584 111.596L139.964 304.556Z" fill="#2B3B64" stroke="#182136" stroke-width="0.989691"/>
<path opacity="0.3" d="M117.727 338.72L97.3645 350.472L-237.968 157.031L-217.606 145.304L117.727 338.72Z" fill="#2B3B64" stroke="#182136" stroke-width="0.989691"/>
<path d="M117.438 338.434L97.8601 349.731V348.773L117.438 337.476V338.434Z" fill="#2B3B64" stroke="#182136" stroke-width="0.989691"/>
<path d="M96.87 349.732L-237.653 156.746V155.788L96.87 348.774V349.732Z" fill="#2B3B64" stroke="#182136" stroke-width="0.989691"/>
<path d="M116.942 336.62L97.3647 347.917L-237.157 154.932L-217.606 143.66L116.942 336.62Z" fill="#2B3B64" stroke="#182136" stroke-width="0.989691"/>
<path d="M108.064 341.751L107.23 342.237V326.684L108.064 326.21V341.751Z" fill="#2B3B64" stroke="#182136" stroke-width="0.989691"/>
<path d="M107.564 325.355L106.737 325.825L-227.816 132.862L-226.978 132.374L107.564 325.355Z" fill="#2B3B64" stroke="#182136" stroke-width="0.989691"/>
<path d="M-228.308 133.721L106.241 326.682V342.24L-228.308 149.254V133.721Z" fill="#2B3B64" stroke="#182136" stroke-width="0.989691"/>
<path d="M117.438 319.658L97.8601 330.955V329.997L117.438 318.7V319.658Z" fill="#2B3B64" stroke="#182136" stroke-width="0.989691"/>
<path d="M96.87 330.954L-237.653 137.968V137.011L96.87 329.996V330.954Z" fill="#2B3B64" stroke="#182136" stroke-width="0.989691"/>
<path d="M116.942 317.843L97.3647 329.139L-237.158 136.154L-217.606 124.857L116.942 317.843Z" fill="#2B3B64" stroke="#182136" stroke-width="0.989691"/>
<path opacity="0.3" d="M94.727 351.978L74.3398 363.73L-260.993 170.315L-240.631 158.563L94.727 351.978Z" fill="#2B3B64" stroke="#182136" stroke-width="0.989691"/>
<path d="M94.4134 351.718L74.8509 363.02L74.8391 362.03L94.4134 350.76V351.718Z" fill="#2B3B64" stroke="#182136" stroke-width="0.989691"/>
<path d="M73.8608 363.009L-260.677 170.029V169.072L73.8492 362.034L73.8608 363.009Z" fill="#2B3B64" stroke="#182136" stroke-width="0.989691"/>
<path d="M93.917 349.904L74.3409 361.176L-260.182 168.216L-240.63 156.944L93.917 349.904Z" fill="#2B3B64" stroke="#182136" stroke-width="0.989691"/>
<path d="M85.0386 355.035L84.2046 355.521V339.965L85.0386 339.479V355.035Z" fill="#2B3B64" stroke="#182136" stroke-width="0.989691"/>
<path d="M84.5474 338.62L83.709 339.108L-250.807 146.127L-249.98 145.656L84.5474 338.62Z" fill="#2B3B64" stroke="#182136" stroke-width="0.989691"/>
<path d="M-251.308 146.981L83.2155 339.967V355.525L-251.308 162.539V146.981Z" fill="#2B3B64" stroke="#182136" stroke-width="0.989691"/>
<path d="M94.4134 332.942L74.8508 344.22L74.8391 343.254L94.4134 331.959V332.942Z" fill="#2B3B64" stroke="#182136" stroke-width="0.989691"/>
<path d="M73.8607 344.207L-260.677 151.253V150.295L73.8492 343.257L73.8607 344.207Z" fill="#2B3B64" stroke="#182136" stroke-width="0.989691"/>
<path d="M93.9178 331.102L74.3406 342.399L-260.182 149.438L-240.63 138.142L93.9178 331.102Z" fill="#2B3B64" stroke="#182136" stroke-width="0.989691"/>
<path opacity="0.3" d="M71.7032 365.263L51.3406 377.015L-283.992 183.599L-263.63 171.847L71.7032 365.263Z" fill="#2B3B64" stroke="#182136" stroke-width="0.989691"/>
<path d="M50.8455 376.274L-283.703 183.313V182.355L50.8455 375.316V376.274Z" fill="#2B3B64" stroke="#182136" stroke-width="0.989691"/>
<path d="M70.9174 363.163L51.3401 374.46L-283.208 181.499L-263.63 170.203L70.9174 363.163Z" fill="#2B3B64" stroke="#182136" stroke-width="0.989691"/>
<path d="M61.5487 351.905L60.7104 352.393L-273.831 159.412L-273.004 158.941L61.5487 351.905Z" fill="#2B3B64" stroke="#182136" stroke-width="0.989691"/>
<path d="M-274.332 160.266L60.2166 353.252V368.81L-274.332 175.825V160.266Z" fill="#2B3B64" stroke="#182136" stroke-width="0.989691"/>
<path d="M71.4132 346.226L51.8354 357.498V356.54L71.4132 345.243V346.226Z" fill="#2B3B64" stroke="#182136" stroke-width="0.989691"/>
<path d="M50.8455 357.499L-283.703 164.513V163.555L50.8455 356.541V357.499Z" fill="#2B3B64" stroke="#182136" stroke-width="0.989691"/>
<path d="M70.9174 344.387L51.3401 355.684L-283.207 162.699L-263.631 151.427L70.9174 344.387Z" fill="#2B3B64" stroke="#182136" stroke-width="0.989691"/>
<path opacity="0.3" d="M48.6793 378.549L28.3167 390.301L-307.016 196.86L-286.654 185.133L48.6793 378.549Z" fill="#2B3B64" stroke="#182136" stroke-width="0.989691"/>
<path d="M27.8208 389.561L-306.728 196.575V195.617L27.8208 388.603V389.561Z" fill="#2B3B64" stroke="#182136" stroke-width="0.989691"/>
<path d="M47.8929 376.448L28.3157 387.745L-306.231 194.76L-286.655 183.488L47.8929 376.448Z" fill="#2B3B64" stroke="#182136" stroke-width="0.989691"/>
<path d="M38.5246 365.19L37.6862 365.679L-296.855 172.697L-296.029 172.227L38.5246 365.19Z" fill="#2B3B64" stroke="#182136" stroke-width="0.989691"/>
<path d="M-297.355 173.551L37.1929 366.536V382.07L-297.355 189.109V173.551Z" fill="#2B3B64" stroke="#182136" stroke-width="0.989691"/>
<path d="M27.8208 370.784L-306.728 177.798V176.841L27.8208 369.826V370.784Z" fill="#2B3B64" stroke="#182136" stroke-width="0.989691"/>
<path d="M47.8929 357.672L28.3157 368.969L-306.231 175.984L-286.655 164.712L47.8929 357.672Z" fill="#2B3B64" stroke="#182136" stroke-width="0.989691"/>
<path d="M140.459 303.437L120.881 314.733V313.776L140.459 302.479V303.437Z" fill="#2B3B64" stroke="#182136" stroke-width="0.989691"/>
<path d="M119.892 314.733L-214.657 121.748V120.79L119.892 313.776V314.733Z" fill="#2B3B64" stroke="#182136" stroke-width="0.989691"/>
<path d="M139.964 301.621L120.387 312.918L-214.16 119.933L-194.584 108.661L139.964 301.621Z" fill="#2B3B64" stroke="#182136" stroke-width="0.989691"/>
<path d="M131.087 306.754L130.253 307.24V291.688L131.087 291.213V306.754Z" fill="#2B3B64" stroke="#182136" stroke-width="0.989691"/>
<path d="M130.587 290.359L129.76 290.829L-204.784 97.8454L-203.957 97.3752L130.587 290.359Z" fill="#2B3B64" stroke="#182136" stroke-width="0.989691"/>
<path d="M-205.284 98.699L129.264 291.685V307.243L-205.284 114.258V98.699Z" fill="#2B3B64" stroke="#182136" stroke-width="0.989691"/>
<path d="M140.459 284.66L120.881 295.932V294.974L140.459 283.677V284.66Z" fill="#2B3B64" stroke="#182136" stroke-width="0.989691"/>
<path d="M119.892 295.932L-214.656 102.971V102.013L119.892 294.974V295.932Z" fill="#2B3B64" stroke="#182136" stroke-width="0.989691"/>
<path d="M139.964 282.82L120.387 294.117L-214.161 101.157L-194.583 89.8601L139.964 282.82Z" fill="#2B3B64" stroke="#182136" stroke-width="0.989691"/>
<path d="M117.434 316.72L97.8564 328.017V327.034L117.434 315.737V316.72Z" fill="#2B3B64" stroke="#182136" stroke-width="0.989691"/>
<path d="M96.8669 328.017L-237.656 135.031V134.074L96.8669 327.034V328.017Z" fill="#2B3B64" stroke="#182136" stroke-width="0.989691"/>
<path d="M116.939 314.88L97.3616 326.177L-237.161 133.217L-217.609 121.92L116.939 314.88Z" fill="#2B3B64" stroke="#182136" stroke-width="0.989691"/>
<path d="M108.063 320.038L107.229 320.524V304.968L108.063 304.482V320.038Z" fill="#2B3B64" stroke="#182136" stroke-width="0.989691"/>
<path d="M107.572 303.623L106.734 304.111L-227.808 111.13L-226.981 110.659L107.572 303.623Z" fill="#2B3B64" stroke="#182136" stroke-width="0.989691"/>
<path d="M-228.309 111.984L106.24 304.97V320.529L-228.309 127.543V111.984Z" fill="#2B3B64" stroke="#182136" stroke-width="0.989691"/>
<path d="M117.434 297.944L97.8564 309.217V308.258L117.434 296.962V297.944Z" fill="#2B3B64" stroke="#182136" stroke-width="0.989691"/>
<path d="M96.8669 309.216L-237.656 116.256V115.298L96.8669 308.258V309.216Z" fill="#2B3B64" stroke="#182136" stroke-width="0.989691"/>
<path d="M116.939 296.105L97.3616 307.402L-237.161 114.441L-217.609 103.145L116.939 296.105Z" fill="#2B3B64" stroke="#182136" stroke-width="0.989691"/>
<path d="M94.4091 330.006L74.8464 341.284L74.8347 340.318L94.4091 329.023V330.006Z" fill="#2B3B64" stroke="#182136" stroke-width="0.989691"/>
<path d="M73.8565 341.272L-260.681 148.317V147.36L73.8451 340.322L73.8565 341.272Z" fill="#2B3B64" stroke="#182136" stroke-width="0.989691"/>
<path d="M93.9139 328.166L74.3367 339.463L-260.186 146.502L-240.634 135.206L93.9139 328.166Z" fill="#2B3B64" stroke="#182136" stroke-width="0.989691"/>
<path d="M85.0379 333.324L84.2038 333.81V318.254L85.0379 317.768V333.324Z" fill="#2B3B64" stroke="#182136" stroke-width="0.989691"/>
<path d="M84.5467 316.908L83.7083 317.396L-250.808 124.415L-249.981 123.944L84.5467 316.908Z" fill="#2B3B64" stroke="#182136" stroke-width="0.989691"/>
<path d="M-251.308 125.269L83.2148 318.255V333.814L-251.308 140.828V125.269Z" fill="#2B3B64" stroke="#182136" stroke-width="0.989691"/>
<path d="M94.4093 311.23L74.8466 322.508L74.835 321.542L94.4093 310.247V311.23Z" fill="#2B3B64" stroke="#182136" stroke-width="0.989691"/>
<path d="M73.8568 322.496L-260.681 129.516V128.558L73.8453 321.546L73.8568 322.496Z" fill="#2B3B64" stroke="#182136" stroke-width="0.989691"/>
<path d="M93.9142 309.389L74.3369 320.686L-260.185 127.701L-240.634 116.429L93.9142 309.389Z" fill="#2B3B64" stroke="#182136" stroke-width="0.989691"/>
<path d="M71.4132 343.265L51.8354 354.562V353.604L71.4132 342.308V343.265Z" fill="#2B3B64" stroke="#182136" stroke-width="0.989691"/>
<path d="M50.8455 354.562L-283.703 161.576V160.619L50.8455 353.605V354.562Z" fill="#2B3B64" stroke="#182136" stroke-width="0.989691"/>
<path d="M70.9174 341.451L51.3401 352.747L-283.207 159.762L-263.631 148.49L70.9174 341.451Z" fill="#2B3B64" stroke="#182136" stroke-width="0.989691"/>
<path d="M62.0395 346.604L61.2055 347.078V331.516L62.0395 331.041V346.604Z" fill="#2B3B64" stroke="#182136" stroke-width="0.989691"/>
<path d="M61.5398 330.187L60.7133 330.658L-273.831 137.699L-273.004 137.229L61.5398 330.187Z" fill="#2B3B64" stroke="#182136" stroke-width="0.989691"/>
<path d="M-274.332 138.554L60.2166 331.515V347.073L-274.332 154.113V138.554Z" fill="#2B3B64" stroke="#182136" stroke-width="0.989691"/>
<path d="M71.413 324.489L51.8352 335.786V334.829L71.413 323.532V324.489Z" fill="#2B3B64" stroke="#182136" stroke-width="0.989691"/>
<path d="M50.8452 335.786L-283.703 142.8V141.843L50.8452 334.828V335.786Z" fill="#2B3B64" stroke="#182136" stroke-width="0.989691"/>
<path d="M70.9171 322.674L51.3399 333.971L-283.207 140.986L-263.631 129.714L70.9171 322.674Z" fill="#2B3B64" stroke="#182136" stroke-width="0.989691"/>
<path d="M27.8213 367.849L-306.727 174.864V173.906L27.8213 366.892V367.849Z" fill="#2B3B64" stroke="#182136" stroke-width="0.989691"/>
<path d="M47.8934 354.738L28.3162 366.034L-306.231 173.049L-286.655 161.777L47.8934 354.738Z" fill="#2B3B64" stroke="#182136" stroke-width="0.989691"/>
<path d="M39.0164 359.869L38.1823 360.355V344.803L39.0164 344.329V359.869Z" fill="#2B3B64" stroke="#182136" stroke-width="0.989691"/>
<path d="M38.5162 343.474L37.6897 343.944L-296.864 150.981L-296.025 150.492L38.5162 343.474Z" fill="#2B3B64" stroke="#182136" stroke-width="0.989691"/>
<path d="M-297.355 151.84L37.1934 344.8V360.359L-297.355 167.373V151.84Z" fill="#2B3B64" stroke="#182136" stroke-width="0.989691"/>
<path d="M48.3875 337.775L28.8098 349.048V348.115L48.3875 336.818V337.775Z" fill="#2B3B64" stroke="#182136" stroke-width="0.989691"/>
<path d="M27.8213 349.047L-306.727 156.086V155.128L27.8213 348.114V349.047Z" fill="#2B3B64" stroke="#182136" stroke-width="0.989691"/>
<path d="M47.8935 335.962L28.3162 347.258L-306.232 154.273L-286.654 142.976L47.8935 335.962Z" fill="#2B3B64" stroke="#182136" stroke-width="0.989691"/>
<path d="M140.459 281.673L120.881 292.946V291.987L140.459 280.69V281.673Z" fill="#2B3B64" stroke="#182136" stroke-width="0.989691"/>
<path d="M119.892 292.945L-214.657 99.9841V99.0264L119.892 291.987V292.945Z" fill="#2B3B64" stroke="#182136" stroke-width="0.989691"/>
<path d="M139.964 279.834L120.387 291.131L-214.161 98.1704L-194.584 86.8738L139.964 279.834Z" fill="#2B3B64" stroke="#182136" stroke-width="0.989691"/>
<path d="M131.087 284.99L130.253 285.476V269.921L131.087 269.435V284.99Z" fill="#2B3B64" stroke="#182136" stroke-width="0.989691"/>
<path d="M130.596 268.576L129.758 269.065L-204.784 76.0832L-203.957 75.613L130.596 268.576Z" fill="#2B3B64" stroke="#182136" stroke-width="0.989691"/>
<path d="M-205.284 76.9363L129.264 269.922V285.481L-205.284 92.495V76.9363Z" fill="#2B3B64" stroke="#182136" stroke-width="0.989691"/>
<path d="M140.459 262.896L120.881 274.169V273.211L140.459 261.914V262.896Z" fill="#2B3B64" stroke="#182136" stroke-width="0.989691"/>
<path d="M119.892 274.169L-214.656 81.1836V80.2259L119.892 273.212V274.169Z" fill="#2B3B64" stroke="#182136" stroke-width="0.989691"/>
<path d="M139.964 261.058L120.387 272.354L-214.16 79.3692L-194.584 68.0973L139.964 261.058Z" fill="#2B3B64" stroke="#182136" stroke-width="0.989691"/>
<path d="M117.435 294.933L97.8569 306.23V305.272L117.435 293.975V294.933Z" fill="#2B3B64" stroke="#182136" stroke-width="0.989691"/>
<path d="M96.8673 306.23L-237.656 113.244V112.287L96.8673 305.272V306.23Z" fill="#2B3B64" stroke="#182136" stroke-width="0.989691"/>
<path d="M116.939 293.119L97.3621 304.416L-237.16 111.43L-217.609 100.159L116.939 293.119Z" fill="#2B3B64" stroke="#182136" stroke-width="0.989691"/>
<path d="M108.064 298.272L107.23 298.747V283.184L108.064 282.71V298.272Z" fill="#2B3B64" stroke="#182136" stroke-width="0.989691"/>
<path d="M107.564 281.856L106.737 282.326L-227.807 89.3678L-226.981 88.8977L107.564 281.856Z" fill="#2B3B64" stroke="#182136" stroke-width="0.989691"/>
<path d="M-228.308 90.2217L106.24 283.182V298.741L-228.308 105.78V90.2217Z" fill="#2B3B64" stroke="#182136" stroke-width="0.989691"/>
<path d="M117.435 276.157L97.8569 287.454V286.496L117.435 275.199V276.157Z" fill="#2B3B64" stroke="#182136" stroke-width="0.989691"/>
<path d="M96.8673 287.455L-237.656 94.4693V93.5115L96.8673 286.497V287.455Z" fill="#2B3B64" stroke="#182136" stroke-width="0.989691"/>
<path d="M116.939 274.344L97.3621 285.64L-237.16 92.6548L-217.609 81.3832L116.939 274.344Z" fill="#2B3B64" stroke="#182136" stroke-width="0.989691"/>
<path d="M94.4095 308.219L74.8469 319.521L74.8352 318.556L94.4095 307.261V308.219Z" fill="#2B3B64" stroke="#182136" stroke-width="0.989691"/>
<path d="M73.857 319.511L-260.681 126.531V125.573L73.8456 318.561L73.857 319.511Z" fill="#2B3B64" stroke="#182136" stroke-width="0.989691"/>
<path d="M93.9144 306.405L74.3372 317.701L-260.185 124.716L-240.633 113.445L93.9144 306.405Z" fill="#2B3B64" stroke="#182136" stroke-width="0.989691"/>
<path d="M85.0383 311.537L84.2043 312.023V296.47L85.0383 295.996V311.537Z" fill="#2B3B64" stroke="#182136" stroke-width="0.989691"/>
<path d="M84.5382 295.141L83.7117 295.611L-250.816 102.648L-249.978 102.159L84.5382 295.141Z" fill="#2B3B64" stroke="#182136" stroke-width="0.989691"/>
<path d="M-251.308 103.506L83.2152 296.467V312.026L-251.308 119.04V103.506Z" fill="#2B3B64" stroke="#182136" stroke-width="0.989691"/>
<path d="M94.4098 289.443L74.8471 300.745L74.8355 299.78L94.4098 288.486V289.443Z" fill="#2B3B64" stroke="#182136" stroke-width="0.989691"/>
<path d="M73.8572 300.733L-260.681 107.753V106.795L73.8458 299.783L73.8572 300.733Z" fill="#2B3B64" stroke="#182136" stroke-width="0.989691"/>
<path d="M93.9147 287.628L74.3374 298.925L-260.186 105.939L-240.633 94.6429L93.9147 287.628Z" fill="#2B3B64" stroke="#182136" stroke-width="0.989691"/>
<path d="M71.4132 321.504L51.8354 332.801V331.818L71.4132 320.546V321.504Z" fill="#2B3B64" stroke="#182136" stroke-width="0.989691"/>
<path d="M50.846 332.802L-283.702 139.816V138.858L50.846 331.819V332.802Z" fill="#2B3B64" stroke="#182136" stroke-width="0.989691"/>
<path d="M70.9171 319.69L51.3409 330.962L-283.206 138.002L-263.63 126.73L70.9171 319.69Z" fill="#2B3B64" stroke="#182136" stroke-width="0.989691"/>
<path d="M62.04 324.821L61.206 325.307V309.752L62.04 309.266V324.821Z" fill="#2B3B64" stroke="#182136" stroke-width="0.989691"/>
<path d="M61.5493 308.407L60.7109 308.896L-273.83 115.914L-273.004 115.444L61.5493 308.407Z" fill="#2B3B64" stroke="#182136" stroke-width="0.989691"/>
<path d="M-274.331 116.768L60.2171 309.754V325.312L-274.331 132.327V116.768Z" fill="#2B3B64" stroke="#182136" stroke-width="0.989691"/>
<path d="M71.413 302.727L51.8352 314V313.042L71.413 301.745V302.727Z" fill="#2B3B64" stroke="#182136" stroke-width="0.989691"/>
<path d="M50.8457 313.999L-283.703 121.038V120.081L50.8457 313.041V313.999Z" fill="#2B3B64" stroke="#182136" stroke-width="0.989691"/>
<path d="M70.9176 300.888L51.3404 312.185L-283.207 119.225L-263.63 107.928L70.9176 300.888Z" fill="#2B3B64" stroke="#182136" stroke-width="0.989691"/>
<path d="M48.3875 334.789L28.8098 346.062V345.103L48.3875 333.806V334.789Z" fill="#2B3B64" stroke="#182136" stroke-width="0.989691"/>
<path d="M27.8213 346.06L-306.727 153.1V152.142L27.8213 345.102V346.06Z" fill="#2B3B64" stroke="#182136" stroke-width="0.989691"/>
<path d="M47.8934 332.949L28.3162 344.246L-306.232 151.286L-286.654 139.989L47.8934 332.949Z" fill="#2B3B64" stroke="#182136" stroke-width="0.989691"/>
<path d="M39.0164 338.106L38.1823 338.592V323.037L39.0164 322.551V338.106Z" fill="#2B3B64" stroke="#182136" stroke-width="0.989691"/>
<path d="M38.5251 321.692L37.6867 322.18L-296.855 129.198L-296.028 128.728L38.5251 321.692Z" fill="#2B3B64" stroke="#182136" stroke-width="0.989691"/>
<path d="M-297.355 130.053L37.1934 323.039V338.597L-297.355 145.611V130.053Z" fill="#2B3B64" stroke="#182136" stroke-width="0.989691"/>
<path d="M48.3875 316.013L28.8098 327.285V326.327L48.3875 315.03V316.013Z" fill="#2B3B64" stroke="#182136" stroke-width="0.989691"/>
<path d="M27.8213 327.284L-306.727 134.298V133.366L27.8213 326.326V327.284Z" fill="#2B3B64" stroke="#182136" stroke-width="0.989691"/>
<path d="M47.8934 314.174L28.3162 325.47L-306.232 132.51L-286.654 121.213L47.8934 314.174Z" fill="#2B3B64" stroke="#182136" stroke-width="0.989691"/>
<path d="M140.459 259.861L120.881 271.158V270.201L140.459 258.904V259.861Z" fill="#2B3B64" stroke="#182136" stroke-width="0.989691"/>
<path d="M119.892 271.158L-214.657 78.1724V77.2146L119.892 270.2V271.158Z" fill="#2B3B64" stroke="#182136" stroke-width="0.989691"/>
<path d="M139.964 258.047L120.387 269.344L-214.16 76.3584L-194.584 65.0865L139.964 258.047Z" fill="#2B3B64" stroke="#182136" stroke-width="0.989691"/>
<path d="M131.087 263.179L130.253 263.665V248.112L131.087 247.638V263.179Z" fill="#2B3B64" stroke="#182136" stroke-width="0.989691"/>
<path d="M130.587 246.783L129.76 247.253L-204.793 54.2901L-203.954 53.8015L130.587 246.783Z" fill="#2B3B64" stroke="#182136" stroke-width="0.989691"/>
<path d="M-205.284 55.1492L129.264 248.11V263.668L-205.284 70.6826V55.1492Z" fill="#2B3B64" stroke="#182136" stroke-width="0.989691"/>
<path d="M140.459 241.086L120.881 252.383V251.425L140.459 240.128V241.086Z" fill="#2B3B64" stroke="#182136" stroke-width="0.989691"/>
<path d="M119.892 252.381L-214.656 59.3955V58.4378L119.892 251.424V252.381Z" fill="#2B3B64" stroke="#182136" stroke-width="0.989691"/>
<path d="M139.965 239.271L120.387 250.568L-214.161 57.582L-194.583 46.2854L139.965 239.271Z" fill="#2B3B64" stroke="#182136" stroke-width="0.989691"/>
<path d="M117.435 273.147L97.8569 284.443V283.461L117.435 272.188V273.147Z" fill="#2B3B64" stroke="#182136" stroke-width="0.989691"/>
<path d="M96.8673 284.443L-237.656 91.4576V90.4998L96.8673 283.46V284.443Z" fill="#2B3B64" stroke="#182136" stroke-width="0.989691"/>
<path d="M116.939 271.332L97.3623 282.604L-237.16 89.6436L-217.609 78.372L116.939 271.332Z" fill="#2B3B64" stroke="#182136" stroke-width="0.989691"/>
<path d="M108.064 276.463L107.23 276.949V261.393L108.064 260.907V276.463Z" fill="#2B3B64" stroke="#182136" stroke-width="0.989691"/>
<path d="M107.572 260.048L106.734 260.537L-227.807 67.5549L-226.981 67.0847L107.572 260.048Z" fill="#2B3B64" stroke="#182136" stroke-width="0.989691"/>
<path d="M-228.308 68.4092L106.24 261.395V276.954L-228.308 83.9679V68.4092Z" fill="#2B3B64" stroke="#182136" stroke-width="0.989691"/>
<path d="M117.435 254.37L97.8569 265.642V264.684L117.435 253.387V254.37Z" fill="#2B3B64" stroke="#182136" stroke-width="0.989691"/>
<path d="M96.8673 265.641L-237.656 72.6804V71.7227L96.8673 264.683V265.641Z" fill="#2B3B64" stroke="#182136" stroke-width="0.989691"/>
<path d="M116.939 252.53L97.3621 263.827L-237.161 70.8664L-217.608 59.5702L116.939 252.53Z" fill="#2B3B64" stroke="#182136" stroke-width="0.989691"/>
<path d="M94.4095 286.431L74.8469 297.709L74.8352 296.743L94.4095 285.448V286.431Z" fill="#2B3B64" stroke="#182136" stroke-width="0.989691"/>
<path d="M73.857 297.696L-260.681 104.741V103.784L73.8456 296.746L73.857 297.696Z" fill="#2B3B64" stroke="#182136" stroke-width="0.989691"/>
<path d="M93.9144 284.592L74.3372 295.888L-260.186 102.928L-240.633 91.6314L93.9144 284.592Z" fill="#2B3B64" stroke="#182136" stroke-width="0.989691"/>
<path d="M85.0383 289.747L84.2043 290.233V274.677L85.0383 274.191V289.747Z" fill="#2B3B64" stroke="#182136" stroke-width="0.989691"/>
<path d="M84.5471 273.333L83.7087 273.822L-250.807 80.8398L-249.981 80.3696L84.5471 273.333Z" fill="#2B3B64" stroke="#182136" stroke-width="0.989691"/>
<path d="M-251.308 81.6934L83.2152 274.679V290.238L-251.308 97.2521V81.6934Z" fill="#2B3B64" stroke="#182136" stroke-width="0.989691"/>
<path d="M94.4098 267.655L74.8471 278.933L74.8355 277.967L94.4098 266.672V267.655Z" fill="#2B3B64" stroke="#182136" stroke-width="0.989691"/>
<path d="M73.8572 278.92L-260.681 85.9403V85.0078L73.8458 277.97L73.8572 278.92Z" fill="#2B3B64" stroke="#182136" stroke-width="0.989691"/>
<path d="M93.9146 265.815L74.3374 277.112L-260.186 84.1516L-240.633 72.8553L93.9146 265.815Z" fill="#2B3B64" stroke="#182136" stroke-width="0.989691"/>
<path d="M71.4132 299.691L51.8354 310.987V310.03L71.4132 298.733V299.691Z" fill="#2B3B64" stroke="#182136" stroke-width="0.989691"/>
<path d="M50.846 310.989L-283.702 118.003V117.045L50.846 310.031V310.989Z" fill="#2B3B64" stroke="#182136" stroke-width="0.989691"/>
<path d="M70.9178 297.876L51.3406 309.173L-283.206 116.188L-263.63 104.916L70.9178 297.876Z" fill="#2B3B64" stroke="#182136" stroke-width="0.989691"/>
<path d="M62.04 303.03L61.206 303.504V287.942L62.04 287.467V303.03Z" fill="#2B3B64" stroke="#182136" stroke-width="0.989691"/>
<path d="M61.5403 286.613L60.7139 287.084L-273.83 94.1254L-273.004 93.6552L61.5403 286.613Z" fill="#2B3B64" stroke="#182136" stroke-width="0.989691"/>
<path d="M-274.331 94.9792L60.2171 287.94V303.499L-274.331 110.538V94.9792Z" fill="#2B3B64" stroke="#182136" stroke-width="0.989691"/>
<path d="M71.413 280.914L51.8352 292.211V291.254L71.413 279.957V280.914Z" fill="#2B3B64" stroke="#182136" stroke-width="0.989691"/>
<path d="M50.8457 292.212L-283.703 99.2259V98.2681L50.8457 291.254V292.212Z" fill="#2B3B64" stroke="#182136" stroke-width="0.989691"/>
<path d="M70.9176 279.1L51.3404 290.397L-283.207 97.4119L-263.631 86.14L70.9176 279.1Z" fill="#2B3B64" stroke="#182136" stroke-width="0.989691"/>
<path d="M48.3875 312.977L28.8098 324.274V323.316L48.3875 312.019V312.977Z" fill="#2B3B64" stroke="#182136" stroke-width="0.989691"/>
<path d="M27.8213 324.274L-306.727 131.289V130.331L27.8213 323.317V324.274Z" fill="#2B3B64" stroke="#182136" stroke-width="0.989691"/>
<path d="M47.8934 311.163L28.3162 322.459L-306.231 129.474L-286.655 118.202L47.8934 311.163Z" fill="#2B3B64" stroke="#182136" stroke-width="0.989691"/>
<path d="M39.0164 316.294L38.1823 316.78V301.228L39.0164 300.754V316.294Z" fill="#2B3B64" stroke="#182136" stroke-width="0.989691"/>
<path d="M38.5162 299.899L37.6897 300.369L-296.864 107.406L-296.025 106.917L38.5162 299.899Z" fill="#2B3B64" stroke="#182136" stroke-width="0.989691"/>
<path d="M-297.355 108.264L37.1934 301.225V316.784L-297.355 123.798V108.264Z" fill="#2B3B64" stroke="#182136" stroke-width="0.989691"/>
<path d="M48.3875 294.201L28.8098 305.498V304.54L48.3875 293.243V294.201Z" fill="#2B3B64" stroke="#182136" stroke-width="0.989691"/>
<path d="M27.8213 305.497L-306.727 112.512V111.554L27.8213 304.54V305.497Z" fill="#2B3B64" stroke="#182136" stroke-width="0.989691"/>
<path d="M47.8935 292.386L28.3162 303.682L-306.232 110.697L-286.654 99.4002L47.8935 292.386Z" fill="#2B3B64" stroke="#182136" stroke-width="0.989691"/>
<path d="M140.459 238.098L120.881 249.371V248.412L140.459 237.115V238.098Z" fill="#2B3B64" stroke="#182136" stroke-width="0.989691"/>
<path d="M119.892 249.37L-214.657 56.4092V55.4514L119.892 248.412V249.37Z" fill="#2B3B64" stroke="#182136" stroke-width="0.989691"/>
<path d="M139.964 236.258L120.387 247.555L-214.161 54.5947L-194.584 43.2981L139.964 236.258Z" fill="#2B3B64" stroke="#182136" stroke-width="0.989691"/>
<path d="M131.087 241.416L130.253 241.902V226.346L131.087 225.86V241.416Z" fill="#2B3B64" stroke="#182136" stroke-width="0.989691"/>
<path d="M130.596 225.001L129.758 225.489L-204.784 32.5075L-203.957 32.0373L130.596 225.001Z" fill="#2B3B64" stroke="#182136" stroke-width="0.989691"/>
<path d="M-205.284 33.3623L129.264 226.348V241.907L-205.284 48.921V33.3623Z" fill="#2B3B64" stroke="#182136" stroke-width="0.989691"/>
<path d="M140.459 219.322L120.881 230.594V229.636L140.459 218.339V219.322Z" fill="#2B3B64" stroke="#182136" stroke-width="0.989691"/>
<path d="M119.892 230.594L-214.656 37.6331V36.6753L119.892 229.636V230.594Z" fill="#2B3B64" stroke="#182136" stroke-width="0.989691"/>
<path d="M139.964 217.483L120.387 228.779L-214.161 35.8191L-194.583 24.5225L139.964 217.483Z" fill="#2B3B64" stroke="#182136" stroke-width="0.989691"/>
<path d="M117.434 251.383L97.8564 262.656V261.697L117.434 250.401V251.383Z" fill="#2B3B64" stroke="#182136" stroke-width="0.989691"/>
<path d="M96.8669 262.655L-237.656 69.6946V68.7368L96.8669 261.697V262.655Z" fill="#2B3B64" stroke="#182136" stroke-width="0.989691"/>
<path d="M116.939 249.544L97.3616 260.84L-237.161 67.8796L-217.609 56.5833L116.939 249.544Z" fill="#2B3B64" stroke="#182136" stroke-width="0.989691"/>
<path d="M108.063 254.697L107.229 255.171V239.631L108.063 239.145V254.697Z" fill="#2B3B64" stroke="#182136" stroke-width="0.989691"/>
<path d="M107.572 238.286L106.734 238.774L-227.808 45.7927L-226.981 45.3225L107.572 238.286Z" fill="#2B3B64" stroke="#182136" stroke-width="0.989691"/>
<path d="M-228.309 46.6468L106.24 239.633V255.166L-228.309 62.2054V46.6468Z" fill="#2B3B64" stroke="#182136" stroke-width="0.989691"/>
<path d="M117.434 232.581L97.8564 243.878V242.921L117.434 231.624V232.581Z" fill="#2B3B64" stroke="#182136" stroke-width="0.989691"/>
<path d="M96.8669 243.879L-237.656 50.8936V49.9359L96.8669 242.922V243.879Z" fill="#2B3B64" stroke="#182136" stroke-width="0.989691"/>
<path d="M116.939 230.767L97.3616 242.064L-237.161 49.0784L-217.609 37.8068L116.939 230.767Z" fill="#2B3B64" stroke="#182136" stroke-width="0.989691"/>
<path d="M94.4091 264.643L74.8464 275.945L74.8347 274.98L94.4091 263.685V264.643Z" fill="#2B3B64" stroke="#182136" stroke-width="0.989691"/>
<path d="M73.8565 275.934L-260.681 82.9546V81.9969L73.8451 274.985L73.8565 275.934Z" fill="#2B3B64" stroke="#182136" stroke-width="0.989691"/>
<path d="M93.9139 262.828L74.3367 274.125L-260.186 81.1397L-240.634 69.8681L93.9139 262.828Z" fill="#2B3B64" stroke="#182136" stroke-width="0.989691"/>
<path d="M85.0379 267.96L84.2038 268.446V252.894L85.0379 252.419V267.96Z" fill="#2B3B64" stroke="#182136" stroke-width="0.989691"/>
<path d="M84.5377 251.566L83.7112 252.036L-250.808 59.0776L-249.981 58.6074L84.5377 251.566Z" fill="#2B3B64" stroke="#182136" stroke-width="0.989691"/>
<path d="M-251.308 59.9321L83.2148 252.893V268.451L-251.308 75.4908V59.9321Z" fill="#2B3B64" stroke="#182136" stroke-width="0.989691"/>
<path d="M94.4093 245.866L74.8466 257.169L74.835 256.203L94.4093 244.909V245.866Z" fill="#2B3B64" stroke="#182136" stroke-width="0.989691"/>
<path d="M73.8568 257.158L-260.681 64.1785V63.2208L73.8453 256.209L73.8568 257.158Z" fill="#2B3B64" stroke="#182136" stroke-width="0.989691"/>
<path d="M93.9142 244.052L74.3369 255.349L-260.185 62.3636L-240.634 51.092L93.9142 244.052Z" fill="#2B3B64" stroke="#182136" stroke-width="0.989691"/>
<path d="M71.4132 277.929L51.8354 289.226V288.268L71.4132 276.972V277.929Z" fill="#2B3B64" stroke="#182136" stroke-width="0.989691"/>
<path d="M50.8455 289.227L-283.703 96.241V95.2832L50.8455 288.269V289.227Z" fill="#2B3B64" stroke="#182136" stroke-width="0.989691"/>
<path d="M70.9174 276.115L51.3401 287.411L-283.207 94.4261L-263.631 83.1541L70.9174 276.115Z" fill="#2B3B64" stroke="#182136" stroke-width="0.989691"/>
<path d="M62.0395 281.247L61.2055 281.733V266.181L62.0395 265.706V281.247Z" fill="#2B3B64" stroke="#182136" stroke-width="0.989691"/>
<path d="M61.5399 264.851L60.7134 265.322L-273.831 72.3381L-273.004 71.8679L61.5399 264.851Z" fill="#2B3B64" stroke="#182136" stroke-width="0.989691"/>
<path d="M-274.332 73.1924L60.2166 266.178V281.737L-274.332 88.7511V73.1924Z" fill="#2B3B64" stroke="#182136" stroke-width="0.989691"/>
<path d="M71.413 259.153L51.8352 270.426V269.468L71.413 258.195V259.153Z" fill="#2B3B64" stroke="#182136" stroke-width="0.989691"/>
<path d="M50.8452 270.424L-283.703 77.4636V76.5058L50.8452 269.466V270.424Z" fill="#2B3B64" stroke="#182136" stroke-width="0.989691"/>
<path d="M70.9164 257.338L51.3401 268.61L-283.208 75.6496L-263.631 64.353L70.9164 257.338Z" fill="#2B3B64" stroke="#182136" stroke-width="0.989691"/>
<path d="M48.387 291.214L28.8093 302.511V301.529L48.387 290.256V291.214Z" fill="#2B3B64" stroke="#182136" stroke-width="0.989691"/>
<path d="M27.8208 302.511L-306.728 109.525V108.567L27.8208 301.528V302.511Z" fill="#2B3B64" stroke="#182136" stroke-width="0.989691"/>
<path d="M47.8922 289.399L28.3159 300.671L-306.232 107.711L-286.655 96.4143L47.8922 289.399Z" fill="#2B3B64" stroke="#182136" stroke-width="0.989691"/>
<path d="M39.0159 294.531L38.1819 295.017V279.461L39.0159 278.975V294.531Z" fill="#2B3B64" stroke="#182136" stroke-width="0.989691"/>
<path d="M38.5246 278.117L37.6862 278.606L-296.855 85.6237L-296.029 85.1535L38.5246 278.117Z" fill="#2B3B64" stroke="#182136" stroke-width="0.989691"/>
<path d="M-297.355 86.4773L37.1929 279.463V295.022L-297.355 102.036V86.4773Z" fill="#2B3B64" stroke="#182136" stroke-width="0.989691"/>
<path d="M48.387 272.437L28.8093 283.71V282.751L48.387 271.454V272.437Z" fill="#2B3B64" stroke="#182136" stroke-width="0.989691"/>
<path d="M27.8208 283.709L-306.728 90.7483V89.7905L27.8208 282.751V283.709Z" fill="#2B3B64" stroke="#182136" stroke-width="0.989691"/>
<path d="M47.8929 270.598L28.3157 281.895L-306.232 88.9345L-286.655 77.6379L47.8929 270.598Z" fill="#2B3B64" stroke="#182136" stroke-width="0.989691"/>
<path opacity="0.3" d="M724.82 277.531L704.433 289.283L369.1 95.867L389.462 84.115L724.82 277.531Z" fill="#2B3B64" stroke="#182136" stroke-width="0.989691"/>
<path d="M703.954 288.562L369.416 95.5823V94.6245L703.942 287.587L703.954 288.562Z" fill="#2B3B64" stroke="#182136" stroke-width="0.989691"/>
<path d="M724.01 275.456L704.434 286.728L369.911 93.7678L389.463 82.4963L724.01 275.456Z" fill="#2B3B64" stroke="#182136" stroke-width="0.989691"/>
<path d="M703.954 269.76L369.416 76.8052V75.8474L703.942 268.81L703.954 269.76Z" fill="#2B3B64" stroke="#182136" stroke-width="0.989691"/>
<path d="M724.011 256.654L704.434 267.951L369.911 74.9902L389.463 63.6939L724.011 256.654Z" fill="#2B3B64" stroke="#182136" stroke-width="0.989691"/>
<path opacity="0.3" d="M701.795 290.815L681.433 302.567L346.1 109.151L366.462 97.3994L701.795 290.815Z" fill="#2B3B64" stroke="#182136" stroke-width="0.989691"/>
<path d="M680.938 301.827L346.389 108.866V107.909L680.938 300.869V301.827Z" fill="#2B3B64" stroke="#182136" stroke-width="0.989691"/>
<path d="M701.01 288.715L681.433 300.012L346.885 107.051L366.462 95.7549L701.01 288.715Z" fill="#2B3B64" stroke="#182136" stroke-width="0.989691"/>
<path d="M691.642 277.457L690.803 277.946L356.262 84.9641L357.089 84.4939L691.642 277.457Z" fill="#2B3B64" stroke="#182136" stroke-width="0.989691"/>
<path d="M355.761 85.8189L690.31 278.805V294.363L355.761 101.378V85.8189Z" fill="#2B3B64" stroke="#182136" stroke-width="0.989691"/>
<path d="M680.938 283.051L346.389 90.0647V89.107L680.938 282.093V283.051Z" fill="#2B3B64" stroke="#182136" stroke-width="0.989691"/>
<path d="M701.01 269.939L681.433 281.236L346.886 88.2505L366.462 76.9786L701.01 269.939Z" fill="#2B3B64" stroke="#182136" stroke-width="0.989691"/>
<path opacity="0.3" d="M678.773 304.101L658.41 315.853L323.078 122.412L343.44 110.685L678.773 304.101Z" fill="#2B3B64" stroke="#182136" stroke-width="0.989691"/>
<path d="M657.914 315.112L323.366 122.126V121.169L657.914 314.155V315.112Z" fill="#2B3B64" stroke="#182136" stroke-width="0.989691"/>
<path d="M677.986 302L658.409 313.297L323.862 120.312L343.438 109.04L677.986 302Z" fill="#2B3B64" stroke="#182136" stroke-width="0.989691"/>
<path d="M668.618 290.743L667.78 291.231L333.238 98.2495L334.065 97.7793L668.618 290.743Z" fill="#2B3B64" stroke="#182136" stroke-width="0.989691"/>
<path d="M332.738 99.1036L667.286 292.089V307.623L332.738 114.662V99.1036Z" fill="#2B3B64" stroke="#182136" stroke-width="0.989691"/>
<path d="M657.914 296.336L323.366 103.35V102.393L657.914 295.378V296.336Z" fill="#2B3B64" stroke="#182136" stroke-width="0.989691"/>
<path d="M677.986 283.224L658.409 294.521L323.862 101.536L343.438 90.264L677.986 283.224Z" fill="#2B3B64" stroke="#182136" stroke-width="0.989691"/>
<path d="M703.951 266.824L369.413 73.8696V72.9119L703.939 265.874L703.951 266.824Z" fill="#2B3B64" stroke="#182136" stroke-width="0.989691"/>
<path d="M724.008 253.72L704.43 265.016L369.908 72.0556L389.46 60.7594L724.008 253.72Z" fill="#2B3B64" stroke="#182136" stroke-width="0.989691"/>
<path d="M703.951 248.049L369.413 55.0691V54.1114L703.939 247.099L703.951 248.049Z" fill="#2B3B64" stroke="#182136" stroke-width="0.989691"/>
<path d="M724.008 234.943L704.43 246.239L369.908 53.2539L389.46 41.9824L724.008 234.943Z" fill="#2B3B64" stroke="#182136" stroke-width="0.989691"/>
<path d="M680.938 280.115L346.389 87.1287V86.1709L680.938 279.157V280.115Z" fill="#2B3B64" stroke="#182136" stroke-width="0.989691"/>
<path d="M701.01 267.003L681.433 278.3L346.886 85.315L366.462 74.0431L701.01 267.003Z" fill="#2B3B64" stroke="#182136" stroke-width="0.989691"/>
<path d="M691.633 255.741L690.806 256.211L356.262 63.2526L357.089 62.7824L691.633 255.741Z" fill="#2B3B64" stroke="#182136" stroke-width="0.989691"/>
<path d="M355.761 64.1062L690.31 257.067V272.625L355.761 79.6649V64.1062Z" fill="#2B3B64" stroke="#182136" stroke-width="0.989691"/>
<path d="M680.938 261.338L346.39 68.3526V67.3948L680.938 260.381V261.338Z" fill="#2B3B64" stroke="#182136" stroke-width="0.989691"/>
<path d="M701.01 248.227L681.433 259.524L346.886 66.5389L366.462 55.2669L701.01 248.227Z" fill="#2B3B64" stroke="#182136" stroke-width="0.989691"/>
<path d="M657.915 293.401L323.366 100.415V99.4573L657.915 292.443V293.401Z" fill="#2B3B64" stroke="#182136" stroke-width="0.989691"/>
<path d="M677.987 280.29L658.409 291.586L323.862 98.6011L343.439 87.3292L677.987 280.29Z" fill="#2B3B64" stroke="#182136" stroke-width="0.989691"/>
<path d="M668.609 269.026L667.783 269.496L333.23 76.5328L334.068 76.0442L668.609 269.026Z" fill="#2B3B64" stroke="#182136" stroke-width="0.989691"/>
<path d="M332.738 77.3913L667.286 270.352V285.911L332.738 92.9247V77.3913Z" fill="#2B3B64" stroke="#182136" stroke-width="0.989691"/>
<path d="M657.915 274.598L323.366 81.6377V80.68L657.915 273.666V274.598Z" fill="#2B3B64" stroke="#182136" stroke-width="0.989691"/>
<path d="M677.986 261.513L658.409 272.81L323.861 79.8242L343.439 68.5276L677.986 261.513Z" fill="#2B3B64" stroke="#182136" stroke-width="0.989691"/>
<path d="M703.951 245.064L369.413 52.0838V51.126L703.94 244.114L703.951 245.064Z" fill="#2B3B64" stroke="#182136" stroke-width="0.989691"/>
<path d="M724.008 231.957L704.431 243.254L369.909 50.2686L389.46 38.997L724.008 231.957Z" fill="#2B3B64" stroke="#182136" stroke-width="0.989691"/>
<path d="M703.951 226.286L369.413 33.3059V32.3482L703.94 225.336L703.951 226.286Z" fill="#2B3B64" stroke="#182136" stroke-width="0.989691"/>
<path d="M724.008 213.181L704.431 224.477L369.908 31.4917L389.461 20.1954L724.008 213.181Z" fill="#2B3B64" stroke="#182136" stroke-width="0.989691"/>
<path d="M680.939 258.355L346.39 65.3687V64.4109L680.939 257.372V258.355Z" fill="#2B3B64" stroke="#182136" stroke-width="0.989691"/>
<path d="M701.01 245.242L681.434 256.514L346.887 63.554L366.463 52.2821L701.01 245.242Z" fill="#2B3B64" stroke="#182136" stroke-width="0.989691"/>
<path d="M691.643 233.96L690.804 234.448L356.263 41.4665L357.089 40.9963L691.643 233.96Z" fill="#2B3B64" stroke="#182136" stroke-width="0.989691"/>
<path d="M355.762 42.3206L690.311 235.306V250.865L355.762 57.8792V42.3206Z" fill="#2B3B64" stroke="#182136" stroke-width="0.989691"/>
<path d="M680.939 239.552L346.39 46.5916V45.6338L680.939 238.594V239.552Z" fill="#2B3B64" stroke="#182136" stroke-width="0.989691"/>
<path d="M701.011 226.441L681.434 237.738L346.886 44.7773L366.463 33.4807L701.011 226.441Z" fill="#2B3B64" stroke="#182136" stroke-width="0.989691"/>
<path d="M657.915 271.613L323.366 78.6521V77.6943L657.915 270.655V271.613Z" fill="#2B3B64" stroke="#182136" stroke-width="0.989691"/>
<path d="M677.987 258.502L658.409 269.798L323.862 76.8381L343.439 65.5415L677.987 258.502Z" fill="#2B3B64" stroke="#182136" stroke-width="0.989691"/>
<path d="M668.618 247.244L667.78 247.733L333.238 54.7509L334.065 54.2807L668.618 247.244Z" fill="#2B3B64" stroke="#182136" stroke-width="0.989691"/>
<path d="M332.738 55.6048L667.286 248.591V264.149L332.738 71.1634V55.6048Z" fill="#2B3B64" stroke="#182136" stroke-width="0.989691"/>
<path d="M657.915 252.837L323.366 59.8507V58.9182L657.915 251.879V252.837Z" fill="#2B3B64" stroke="#182136" stroke-width="0.989691"/>
<path d="M677.986 239.726L658.409 251.023L323.861 58.0625L343.439 46.7659L677.986 239.726Z" fill="#2B3B64" stroke="#182136" stroke-width="0.989691"/>
<path d="M703.951 223.249L369.413 30.2942V29.3364L703.94 222.299L703.951 223.249Z" fill="#2B3B64" stroke="#182136" stroke-width="0.989691"/>
<path d="M724.008 210.144L704.431 221.44L369.908 28.4798L389.461 17.1836L724.008 210.144Z" fill="#2B3B64" stroke="#182136" stroke-width="0.989691"/>
<path d="M703.951 204.473L369.413 11.4928V10.5603L703.94 203.523L703.951 204.473Z" fill="#2B3B64" stroke="#182136" stroke-width="0.989691"/>
<path d="M724.008 191.368L704.431 202.665L369.908 9.70418L389.461 -1.59208L724.008 191.368Z" fill="#2B3B64" stroke="#182136" stroke-width="0.989691"/>
<path d="M680.939 236.541L346.39 43.5552V42.5975L680.939 235.583V236.541Z" fill="#2B3B64" stroke="#182136" stroke-width="0.989691"/>
<path d="M701.011 223.429L681.434 234.725L346.887 41.7403L366.463 30.4684L701.011 223.429Z" fill="#2B3B64" stroke="#182136" stroke-width="0.989691"/>
<path d="M691.634 212.165L690.807 212.636L356.263 19.6774L357.089 19.2072L691.634 212.165Z" fill="#2B3B64" stroke="#182136" stroke-width="0.989691"/>
<path d="M355.762 20.5316L690.311 213.492V229.051L355.762 36.0903V20.5316Z" fill="#2B3B64" stroke="#182136" stroke-width="0.989691"/>
<path d="M680.939 217.764L346.39 24.7783V23.8206L680.939 216.806V217.764Z" fill="#2B3B64" stroke="#182136" stroke-width="0.989691"/>
<path d="M701.011 204.652L681.434 215.949L346.887 22.9639L366.463 11.692L701.011 204.652Z" fill="#2B3B64" stroke="#182136" stroke-width="0.989691"/>
<path d="M657.915 249.827L323.366 56.8411V55.8833L657.915 248.869V249.827Z" fill="#2B3B64" stroke="#182136" stroke-width="0.989691"/>
<path d="M677.987 236.715L658.409 248.011L323.862 55.0264L343.439 43.7545L677.987 236.715Z" fill="#2B3B64" stroke="#182136" stroke-width="0.989691"/>
<path d="M668.609 225.452L667.783 225.922L333.23 32.9585L334.068 32.47L668.609 225.452Z" fill="#2B3B64" stroke="#182136" stroke-width="0.989691"/>
<path d="M332.738 33.8169L667.286 226.777V242.336L332.738 49.3503V33.8169Z" fill="#2B3B64" stroke="#182136" stroke-width="0.989691"/>
<path d="M657.915 231.049L323.366 38.0635V37.1058L657.915 230.092V231.049Z" fill="#2B3B64" stroke="#182136" stroke-width="0.989691"/>
<path d="M677.986 217.938L658.409 229.235L323.861 36.2493L343.439 24.9526L677.986 217.938Z" fill="#2B3B64" stroke="#182136" stroke-width="0.989691"/>
<path d="M703.951 201.486L369.413 8.50662V7.5489L703.939 200.537L703.951 201.486Z" fill="#2B3B64" stroke="#182136" stroke-width="0.989691"/>
<path d="M724.008 188.381L704.43 199.677L369.908 6.69218L389.46 -4.57941L724.008 188.381Z" fill="#2B3B64" stroke="#182136" stroke-width="0.989691"/>
<path d="M703.951 182.711L369.413 -10.2689V-11.2266L703.939 181.761L703.951 182.711Z" fill="#2B3B64" stroke="#182136" stroke-width="0.989691"/>
<path d="M724.008 169.605L704.43 180.901L369.908 -12.0838L389.46 -23.3554L724.008 169.605Z" fill="#2B3B64" stroke="#182136" stroke-width="0.989691"/>
<path d="M680.938 214.779L346.389 21.7936V20.8359L680.938 213.822V214.779Z" fill="#2B3B64" stroke="#182136" stroke-width="0.989691"/>
<path d="M701.01 201.668L681.433 212.964L346.886 19.9792L366.462 8.70724L701.01 201.668Z" fill="#2B3B64" stroke="#182136" stroke-width="0.989691"/>
<path d="M691.633 190.404L690.806 190.874L356.262 -2.10978L357.089 -2.57998L691.633 190.404Z" fill="#2B3B64" stroke="#182136" stroke-width="0.989691"/>
<path d="M355.761 -1.25484L690.31 191.731V207.29L355.761 14.3038V-1.25484Z" fill="#2B3B64" stroke="#182136" stroke-width="0.989691"/>
<path d="M680.938 195.977L346.39 3.01624V2.05846L680.938 195.019V195.977Z" fill="#2B3B64" stroke="#182136" stroke-width="0.989691"/>
<path d="M701.01 182.89L681.433 194.162L346.885 1.20174L366.463 -10.0948L701.01 182.89Z" fill="#2B3B64" stroke="#182136" stroke-width="0.989691"/>
<path d="M657.914 228.063L323.366 35.0772V34.1194L657.914 227.08V228.063Z" fill="#2B3B64" stroke="#182136" stroke-width="0.989691"/>
<path d="M677.985 214.952L658.409 226.224L323.861 33.2634L343.438 21.9668L677.985 214.952Z" fill="#2B3B64" stroke="#182136" stroke-width="0.989691"/>
<path d="M668.618 203.669L667.78 204.158L333.238 11.1757L334.065 10.7055L668.618 203.669Z" fill="#2B3B64" stroke="#182136" stroke-width="0.989691"/>
<path d="M332.738 12.0304L667.286 205.016V220.575L332.738 27.5891V12.0304Z" fill="#2B3B64" stroke="#182136" stroke-width="0.989691"/>
<path d="M657.914 209.262L323.366 16.3013V15.3435L657.914 208.304V209.262Z" fill="#2B3B64" stroke="#182136" stroke-width="0.989691"/>
<path d="M677.986 196.15L658.409 207.447L323.861 14.4865L343.438 3.18994L677.986 196.15Z" fill="#2B3B64" stroke="#182136" stroke-width="0.989691"/>
<path d="M297.639 236.144L306.971 230.762V260.458L297.473 265.935L291.162 251.856L297.639 236.144Z" fill="#2B3B64" stroke="#182136" stroke-width="0.989691"/>
<path d="M271.554 251.237L296.752 236.657V265.78L271.554 251.237Z" fill="#2B3B64" stroke="#182136" stroke-width="0.989691"/>
<path d="M328.867 340.56L338.199 335.178V364.874L328.701 370.352L322.371 356.273L328.867 340.56Z" fill="#2B3B64" stroke="#182136" stroke-width="0.989691"/>
<path d="M302.763 355.671L327.979 341.074V370.197L302.763 355.671Z" fill="#2B3B64" stroke="#182136" stroke-width="0.989691"/>
<path d="M377.669 312.438L402.867 297.858V326.981L377.669 312.438Z" fill="#2B3B64" stroke="#182136" stroke-width="0.989691"/>
<path d="M289.528 354.218L267.681 346.191L252.61 333.074L357.421 272.572L394.191 293.904L311.305 346.954L289.528 354.218Z" fill="#2B3B64" stroke="#182136" stroke-width="0.989691"/>
<path d="M232.342 250.733L337.021 190.418V232.895L286.971 277.032L232.289 293.362L228.666 271.849L232.342 250.733Z" fill="#2B3B64" stroke="#182136" stroke-width="0.989691"/>
<path d="M239.559 309.88L232.527 294.202L337.333 233.794L360.74 274.214L255.97 334.612L239.559 309.88Z" fill="#2B3B64" stroke="#182136" stroke-width="0.989691"/>
<path d="M291.521 255.819L276.226 249.394L254.725 234.656L359.438 174.181L396.188 195.51L291.521 255.819Z" fill="#2B3B64" stroke="#182136" stroke-width="0.989691"/>
<path d="M301.978 277.136L292.198 256.572L396.995 196.188L423.181 241.493L318.392 301.873L301.978 277.136Z" fill="#2B3B64" stroke="#182136" stroke-width="0.989691"/>
<path d="M318.685 302.846L423.364 242.53V284.964L318.607 345.325L315.009 323.961L318.685 302.846Z" fill="#2B3B64" stroke="#182136" stroke-width="0.989691"/>
<path d="M253.813 235.182L291.192 256.715L317.741 302.647V345.806L291.554 360.977L254.159 339.379L227.515 293.37V250.251L253.813 235.182ZM313.593 341.386L313.84 341.243V340.958V302.058V301.926L313.773 301.811L289.946 260.592L289.88 260.477L289.765 260.41L256.042 240.999L255.796 240.857L255.549 240.998L231.646 254.706L231.398 254.849V255.136V293.997V294.13L231.464 294.245L255.367 335.521L255.433 335.636L255.548 335.702L289.271 355.171L289.518 355.313L289.766 355.17L313.593 341.386Z" fill="#2B3B64" stroke="#182136" stroke-width="0.989691"/>
</g>
<defs>
<clipPath id="clip0_3168_4687">
<rect width="376.082" height="351" fill="white" transform="translate(0.95874)"/>
</clipPath>
</defs>
</svg>
