<svg width="377" height="351" viewBox="0 0 377 351" fill="none" xmlns="http://www.w3.org/2000/svg">
<g clip-path="url(#clip0_7115_11760)">
<rect width="376.082" height="351" fill="#182136"/>
<path d="M254.981 302.919C248.894 299.518 243.055 295.6 237.221 291.673L237.22 291.673C234.947 290.145 232.675 288.618 230.402 287.09L230.396 287.086C228.126 285.56 225.856 284.034 223.584 282.508C213.128 275.476 202.584 268.364 193.826 259.531L193.833 259.526L193.431 259.115C190.292 255.915 187.149 252.082 184.878 248.075C182.604 244.062 181.232 239.924 181.563 236.094L181.563 236.094C181.716 234.308 182.589 233.058 183.93 232.212C185.291 231.354 187.151 230.907 189.248 230.81C193.443 230.616 198.391 231.833 201.657 233.627C208.207 237.23 212.802 243.511 217.106 249.567C225.825 261.855 234.548 274.141 243.272 286.427C247.175 291.924 251.078 297.421 254.981 302.919Z" fill="#2B3B64" stroke="#182136" stroke-width="0.989691"/>
<path d="M291.37 190.329L291.37 190.329C296.419 195.188 301.527 199.991 306.702 204.733C301.869 209.295 296.25 213.138 290.024 216.141C285.099 207.759 278.236 200.231 271.483 192.824C271.085 192.387 270.687 191.951 270.29 191.515C263.038 183.549 255.847 175.381 251.303 166.297C247.726 159.147 245.949 151.269 247.583 144.654L247.139 144.545L247.583 144.654C248.34 141.586 250.49 138.995 253.192 136.757C255.891 134.52 259.089 132.678 261.875 131.083C262.497 130.729 263.117 130.573 263.57 130.91C263.86 131.13 264.008 131.505 264.098 131.961L264.099 131.962C264.346 133.19 264.264 134.367 264.053 135.552C263.946 136.145 263.809 136.735 263.665 137.335C263.646 137.414 263.627 137.493 263.607 137.572C263.482 138.092 263.355 138.621 263.246 139.153L263.246 139.153C261.482 147.811 264.909 157.853 270.486 166.559C276.067 175.274 283.708 182.943 291.37 190.329Z" fill="#2B3B64" stroke="#182136" stroke-width="0.989691"/>
<path d="M182.964 234.376C182.633 234.155 182.359 233.974 182.16 233.843C182.226 233.713 182.309 233.554 182.408 233.365C182.54 233.114 182.696 232.819 182.874 232.485C183.044 232.165 183.232 231.809 183.437 231.422C184.267 229.849 185.33 227.797 186.292 225.731C187.252 223.672 188.123 221.574 188.556 219.916C188.771 219.093 188.891 218.333 188.836 217.724C188.834 217.702 188.832 217.68 188.829 217.658C201.102 221.82 212.506 229.801 222.201 238.981C232.231 248.477 240.619 259.253 248.97 269.993L249.346 270.477L249.74 270.006C257.344 260.909 263.598 250.616 269.813 240.388C272.259 236.364 274.698 232.349 277.211 228.422C286.13 214.483 296.003 201.583 310.45 192.904L310.908 192.629L310.599 192.194C295.296 170.655 273.492 152.245 249.254 140.404C252.705 133.443 257.386 127.203 263.116 121.946C274.337 125.507 284.17 132.386 293.677 140.245C297.297 143.237 300.877 146.38 304.469 149.532C310.354 154.697 316.269 159.888 322.431 164.485C332.334 171.871 343.115 177.857 353.87 183.828C358.782 186.556 363.689 189.28 368.505 192.134L368.505 192.134C403.355 212.774 434.325 240.907 457.422 272.886C448.078 294.248 433.096 312.018 418.031 329.837L417.817 330.09C402.779 347.877 387.685 365.73 378.227 387.202L378.227 387.202C377.93 387.879 377.619 388.531 377.204 389.04C376.799 389.537 376.313 389.875 375.657 389.962L375.656 389.962C375.145 390.03 374.576 389.934 373.957 389.728C373.34 389.523 372.711 389.221 372.082 388.91C339.236 372.567 309.356 350.004 279.781 327.627C259.688 312.422 239.389 297.024 223.001 278.449L223.009 278.443L222.651 278.035C218.418 273.208 214.492 268.15 210.553 263.075C209.524 261.75 208.494 260.423 207.458 259.099C202.459 252.714 197.314 246.4 191.41 240.633L191.41 240.633C190.19 239.446 187.773 237.682 185.693 236.234C184.646 235.506 183.674 234.85 182.964 234.376Z" fill="#2B3B64" stroke="#182136" stroke-width="0.989691"/>
<path d="M457.419 272.908C448.076 294.262 433.098 312.027 418.038 329.84L417.824 330.093C402.787 347.879 387.694 365.731 378.236 387.203L378.236 387.203C377.939 387.879 377.628 388.532 377.213 389.041C376.808 389.537 376.322 389.876 375.666 389.962L375.665 389.963C375.154 390.031 374.585 389.935 373.966 389.729C373.349 389.523 372.72 389.222 372.092 388.91C371.107 388.417 370.124 387.917 369.139 387.416C369.13 387.396 369.123 387.377 369.116 387.355L369.113 387.347L369.111 387.339C367.316 382.24 368.917 377.387 370.818 372.933L370.362 372.739L370.818 372.933C383.154 344.03 404.936 321.214 426.639 298.482C430.161 294.792 433.682 291.105 437.16 287.394C438.018 286.484 438.909 285.322 439.342 284.04C439.784 282.731 439.748 281.29 438.732 279.912L438.368 279.417L437.962 279.879C435.29 282.92 431.577 285.115 427.283 286.206C429.516 284.158 431.717 281.888 433.307 279.333C435.234 276.235 436.275 272.699 435.385 268.63C435.385 268.63 435.385 268.63 435.385 268.63L434.901 268.736C433.942 264.342 430.764 260.211 427.695 256.293L427.657 256.245C420.693 247.364 413.676 238.418 405.258 230.59C398.034 223.876 389.951 218.131 381.86 212.38C376.959 208.897 372.056 205.412 367.338 201.709C365.508 200.27 363.703 198.797 361.899 197.324C357.961 194.11 354.024 190.897 349.824 188.045C347.537 186.492 345.18 185.053 342.825 183.613C340.292 182.066 337.76 180.519 335.316 178.832C327.412 173.383 320.515 166.464 315.244 158.825C315.727 159.224 316.21 159.622 316.695 160.017M457.419 272.908L367.644 201.32M457.419 272.908C434.323 240.929 403.354 212.797 368.505 192.157L368.757 191.731M457.419 272.908C457.459 272.817 457.499 272.725 457.539 272.633L315.613 158.487M316.695 160.017C321.785 167.022 328.253 173.362 335.597 178.425L335.597 178.425C337.943 180.044 340.372 181.535 342.817 183.029L343.087 183.194C345.44 184.631 347.805 186.076 350.102 187.636C354.32 190.5 358.286 193.737 362.232 196.958C364.033 198.427 365.829 199.893 367.644 201.32M316.695 160.017C316.327 159.511 315.966 159.001 315.613 158.487M316.695 160.017C318.586 161.558 320.497 163.062 322.433 164.509L322.433 164.509C332.335 171.895 343.116 177.88 353.87 183.851C358.782 186.579 363.689 189.303 368.504 192.156L368.757 191.731M367.644 201.32C367.644 201.32 367.644 201.319 367.644 201.319L367.343 201.702L367.644 201.32ZM315.613 158.487C317.954 160.426 320.324 162.314 322.729 164.112C332.604 171.478 343.336 177.436 354.075 183.399C358.995 186.13 363.916 188.862 368.757 191.731M315.613 158.487L457.887 272.71C434.743 240.637 403.696 212.425 368.757 191.731" fill="#2B3B64" stroke="#182136" stroke-width="0.989691"/>
<path d="M295.597 295.903L292.646 300.38L311.506 312.823L314.422 308.403L310.885 306.07L309.658 305.261L311.125 305.163C311.965 305.108 312.682 304.91 313.278 304.594L313.28 304.593C313.875 304.283 314.362 303.835 314.746 303.253L314.746 303.253C315.236 302.512 315.458 301.785 315.444 301.062C315.43 300.335 315.196 299.719 314.734 299.188C314.242 298.622 313.236 297.821 311.673 296.789L295.597 295.903ZM295.597 295.903L296.642 296.683L297.941 297.651L297.405 296.122C297.118 295.304 297.01 294.55 297.071 293.878L295.597 295.903ZM315.159 303.526C314.731 304.173 314.183 304.68 313.509 305.032C313.038 305.281 312.506 305.461 311.918 305.566L311.43 305.244L311.158 305.657L311.191 306.151C311.401 306.137 311.606 306.115 311.807 306.085L315.107 308.263L315.159 303.526ZM304.414 292.005L311.672 296.789L297.75 291.959C298.234 291.222 298.836 290.741 299.552 290.476C300.305 290.201 300.931 290.182 301.47 290.365C302.075 290.571 303.043 291.107 304.414 292.005C304.414 292.005 304.414 292.005 304.414 292.005ZM302.007 296.774L302.008 296.768L301.742 296.592C301.207 296.236 300.763 295.957 300.414 295.756C300.084 295.567 299.788 295.417 299.572 295.365C299.311 295.301 299.051 295.339 298.818 295.468C298.597 295.59 298.421 295.782 298.276 295.997L298.276 295.997L298.274 296C298.128 296.221 298.023 296.468 298.008 296.736C297.992 297.013 298.077 297.269 298.236 297.488C298.378 297.685 298.623 297.905 298.924 298.14C299.235 298.384 299.645 298.672 300.152 299.005C300.152 299.005 300.152 299.005 300.152 299.005L307.294 303.718L307.294 303.718C307.821 304.065 308.263 304.337 308.62 304.534C308.963 304.722 309.271 304.865 309.515 304.916C309.777 304.97 310.043 304.944 310.29 304.822C310.529 304.703 310.716 304.51 310.863 304.287L310.865 304.283C311.002 304.072 311.107 303.835 311.124 303.578C311.143 303.307 311.06 303.057 310.896 302.846C310.76 302.671 310.53 302.473 310.254 302.261C309.966 302.041 309.59 301.778 309.13 301.472L309.129 301.471L302.007 296.774ZM297.071 293.878C297.133 293.197 297.355 292.561 297.75 291.959L297.071 293.878Z" fill="#2B3B64" stroke="#182136" stroke-width="0.989691"/>
<path d="M297.951 284.082L300.967 279.506L321.171 292.827L318.154 297.403L297.951 284.082Z" fill="#2B3B64" stroke="#182136" stroke-width="0.989691"/>
<path d="M314.936 279.305L313.544 278.385L313.543 278.384C313.059 278.064 312.666 277.788 312.368 277.559C312.086 277.341 311.847 277.134 311.713 276.95C311.557 276.734 311.487 276.48 311.513 276.211C311.538 275.957 311.645 275.717 311.79 275.499C311.932 275.279 312.12 275.1 312.358 274.988C312.598 274.877 312.855 274.85 313.11 274.88C313.38 274.912 313.692 275.035 314.021 275.202C314.36 275.373 314.76 275.613 315.217 275.916C315.589 276.158 315.898 276.383 316.138 276.589C316.371 276.789 316.57 276.997 316.689 277.21L316.693 277.216L316.693 277.216C316.751 277.324 316.776 277.438 316.789 277.528C316.803 277.624 316.808 277.729 316.808 277.837C316.808 278.054 316.787 278.323 316.747 278.638C316.668 279.27 316.512 280.133 316.281 281.223L316.28 281.225C316.064 282.226 315.929 283.052 315.872 283.708C315.814 284.373 315.84 284.822 315.916 285.094C315.987 285.344 316.168 285.649 316.51 286.007C316.849 286.362 317.325 286.748 317.95 287.163C317.95 287.163 317.95 287.163 317.95 287.163L319.365 288.097L319.366 288.097C321.085 289.234 322.271 289.46 323.041 289.138C323.971 288.743 324.708 288.138 325.259 287.303C325.679 286.66 325.889 286.041 325.91 285.438L325.91 285.433L325.91 285.433C325.936 284.832 325.774 284.205 325.405 283.54L326.111 282.887L327.236 283.629L330.056 279.345L321.821 273.91L314.936 279.305ZM314.936 279.305L312.246 283.391L311.502 282.899L311.501 282.898C310.188 282.037 309.325 281.247 308.865 280.547L308.865 280.547L308.863 280.545C308.418 279.875 308.194 278.951 308.248 277.723C308.3 276.546 308.771 275.246 309.714 273.816C310.862 272.076 311.99 271.044 313.072 270.607C314.197 270.156 315.189 270.143 316.081 270.507C317.061 270.907 318.96 272.025 321.821 273.91L314.936 279.305ZM323.862 284.247C324.097 284.125 324.282 283.934 324.429 283.711C324.7 283.305 324.835 282.804 324.565 282.342C324.445 282.138 324.217 281.928 323.966 281.728C323.697 281.513 323.339 281.26 322.901 280.972C322.901 280.972 322.9 280.972 322.9 280.972L319.569 278.777L319.562 278.624L319.166 278.56L319.159 278.559L318.966 279.055L318.594 279.074C318.627 279.714 318.693 280.264 318.798 280.717C318.902 281.161 319.053 281.553 319.283 281.84C319.657 282.305 320.257 282.803 321.059 283.324C321.512 283.622 321.902 283.859 322.228 284.031C322.543 284.196 322.84 284.323 323.093 284.364C323.356 284.406 323.619 284.372 323.862 284.247Z" fill="#2B3B64" stroke="#182136" stroke-width="0.989691"/>
<path d="M326.588 259.093L325.997 258.705L325.995 258.703C325.141 258.135 324.515 257.79 324.099 257.629C323.738 257.497 323.221 257.459 322.511 257.565C321.855 257.669 321.14 257.989 320.365 258.563C319.611 259.127 318.86 259.955 318.127 261.066C317.397 262.176 316.936 263.251 316.729 264.279C316.524 265.299 316.622 266.128 316.972 266.801C317.327 267.484 318.136 268.278 319.49 269.17C320.419 269.778 321.297 270.128 322.136 270.242C322.501 270.292 323.008 270.238 323.678 270.036C324.342 269.837 325.134 269.502 326.058 269.025C327.176 268.442 328.061 267.995 328.71 267.684C329.035 267.529 329.306 267.406 329.52 267.317C329.72 267.234 329.911 267.163 330.058 267.138L330.065 267.137L330.065 267.137C330.371 267.089 330.705 267.182 331.018 267.314C331.345 267.453 331.723 267.668 332.147 267.949C332.462 268.154 332.724 268.354 332.926 268.549C333.122 268.739 333.292 268.955 333.375 269.197L333.378 269.208L333.378 269.208C333.527 269.681 333.369 270.16 333.081 270.593L333.08 270.595C332.93 270.82 332.737 271.01 332.493 271.127C332.244 271.246 331.976 271.273 331.708 271.225L326.588 259.093ZM326.588 259.093L324.073 262.911M326.588 259.093L324.073 262.911M324.073 262.911L323.554 262.568C323.554 262.568 323.554 262.568 323.554 262.567C323.15 262.3 322.804 262.087 322.518 261.934C322.247 261.788 321.983 261.669 321.758 261.633C321.202 261.544 320.782 261.893 320.5 262.319C320.232 262.717 320.141 263.164 320.299 263.616C320.449 264.042 320.795 264.382 321.222 264.666L321.224 264.667C321.764 265.022 322.221 265.269 322.583 265.383C323.029 265.523 323.569 265.434 324.127 265.259C324.728 265.069 325.702 264.563 327.01 263.79L324.073 262.911ZM326.822 273.793C328.239 274.725 329.349 275.204 330.179 275.303C330.979 275.4 331.858 275.171 332.831 274.539L332.833 274.538C333.802 273.914 334.723 272.965 335.572 271.672L335.573 271.67C336.339 270.514 336.792 269.423 336.956 268.4C337.118 267.389 336.98 266.535 336.569 265.812C336.151 265.076 335.292 264.248 333.913 263.339L326.822 273.793ZM326.822 273.793L326.404 273.518L328.925 269.691L329.601 270.136L329.602 270.136C330.071 270.444 330.477 270.691 330.816 270.871C331.144 271.045 331.449 271.178 331.708 271.225L326.822 273.793ZM330.863 262.245C330.024 262.28 328.748 262.764 327.01 263.79L330.863 262.245ZM330.863 262.245C331.688 262.21 332.704 262.542 333.913 263.338L330.863 262.245Z" fill="#2B3B64" stroke="#182136" stroke-width="0.989691"/>
<path d="M324.45 247.14L321.525 251.573L323.829 253.092L324.242 253.364L323.97 253.777L323.496 254.495L325.401 255.751L325.874 255.033L326.147 254.62L326.56 254.893L335.31 260.669L335.31 260.669C337.038 261.81 338.114 262.448 338.582 262.638C338.993 262.804 339.453 262.83 339.989 262.701C340.523 262.566 340.97 262.311 341.336 261.937L341.337 261.936C341.741 261.524 342.332 260.739 343.116 259.548L324.45 247.14ZM324.45 247.14L326.755 248.659L327.168 248.931L327.44 248.518L328.103 247.514L330.007 248.77L329.345 249.774L329.073 250.186L329.485 250.459L338.706 256.545L338.707 256.545C339.279 256.921 339.744 257.208 340.098 257.398C340.274 257.493 340.435 257.57 340.574 257.622C340.688 257.664 340.878 257.727 341.07 257.695C341.249 257.665 341.394 257.567 341.489 257.49C341.596 257.405 341.703 257.295 341.81 257.172C341.951 257.008 342.109 256.801 342.282 256.553L344.239 257.842L343.117 259.548L324.45 247.14Z" fill="#2B3B64" stroke="#182136" stroke-width="0.989691"/>
<path d="M325.203 242.758L328.22 238.181L330.131 239.444L327.114 244.021L325.203 242.758ZM328.996 245.262L332.013 240.686L348.423 251.509L345.406 256.086L328.996 245.262Z" fill="#2B3B64" stroke="#182136" stroke-width="0.989691"/>
<path d="M346.589 230.94L343.865 235.075L342.29 234.036L342.289 234.035C341.933 233.801 341.616 233.612 341.341 233.473C341.071 233.337 340.812 233.235 340.576 233.197C340.325 233.157 340.074 233.186 339.842 233.299C339.615 233.41 339.438 233.587 339.302 233.792C339.035 234.194 338.932 234.688 339.212 235.145C339.333 235.347 339.54 235.545 339.771 235.735C340.015 235.935 340.331 236.161 340.712 236.413L340.713 236.414L348.842 241.774C348.842 241.774 348.843 241.775 348.843 241.775C349.476 242.195 350.068 242.472 350.6 242.53C350.869 242.562 351.137 242.538 351.384 242.433C351.635 242.326 351.835 242.148 351.982 241.922C352.143 241.682 352.242 241.412 352.24 241.12C352.238 240.826 352.133 240.559 351.968 240.324C351.667 239.897 351.023 239.392 350.138 238.809C350.138 238.809 350.138 238.809 350.138 238.809L348.501 237.729L351.038 233.879C352.194 234.664 353.035 235.283 353.575 235.752C354.132 236.236 354.604 236.918 354.984 237.834C355.352 238.718 355.46 239.626 355.322 240.57C355.186 241.508 354.761 242.533 354.021 243.659C353.072 245.097 352.105 246.029 351.135 246.503L351.133 246.504C350.153 246.99 349.152 247.114 348.109 246.9C347.047 246.674 345.695 246.041 344.036 244.944L344.035 244.943L339.14 241.712L339.139 241.711C337.692 240.758 336.75 239.922 336.25 239.216C335.782 238.554 335.541 237.603 335.589 236.319C335.635 235.081 336.078 233.806 336.945 232.487C337.811 231.177 338.808 230.27 339.928 229.727C341.061 229.179 342.107 229.045 343.072 229.272C344 229.498 345.168 230.042 346.589 230.94Z" fill="#2B3B64" stroke="#182136" stroke-width="0.989691"/>
<path d="M332.171 301.673L335.089 297.25L339.646 300.255L340.756 300.987L340.394 299.707C340.195 299.002 340.147 298.342 340.238 297.729C340.34 297.1 340.563 296.508 340.936 295.952L340.938 295.949C341.388 295.268 341.868 294.774 342.371 294.443L342.371 294.444L342.374 294.441C342.881 294.103 343.369 293.948 343.845 293.945L343.845 293.945L343.851 293.945C344.381 293.935 344.813 294.023 345.155 294.186C345.546 294.373 346.367 294.873 347.647 295.713C347.647 295.714 347.648 295.714 347.648 295.714L355.41 300.835L355.41 300.835C356.665 301.663 357.503 302.34 357.971 302.863C358.39 303.339 358.631 303.975 358.676 304.807C358.71 305.618 358.49 306.401 357.976 307.18C357.609 307.731 357.15 308.166 356.607 308.48C356.053 308.794 355.4 308.999 354.626 309.078L353.654 309.177L354.308 309.902L355.132 310.815L352.374 314.994L332.171 301.673ZM341.558 299.828L341.558 299.828L341.555 299.832C341.421 300.038 341.321 300.27 341.303 300.523C341.286 300.786 341.361 301.031 341.509 301.243C341.645 301.437 341.884 301.651 342.171 301.874C342.47 302.107 342.865 302.384 343.351 302.701C343.351 302.702 343.351 302.702 343.351 302.702L350.779 307.603L350.78 307.604C351.249 307.911 351.652 308.158 351.984 308.336C352.304 308.508 352.602 308.642 352.849 308.687C353.103 308.733 353.361 308.709 353.602 308.595C353.838 308.483 354.024 308.3 354.166 308.084C354.313 307.863 354.41 307.615 354.416 307.349C354.422 307.076 354.333 306.826 354.179 306.613L354.179 306.613L354.174 306.607C354.029 306.412 353.778 306.191 353.47 305.951C353.151 305.704 352.732 305.408 352.216 305.067L352.215 305.067L344.956 300.282L344.867 300.223L344.859 300.222C344.443 299.951 344.081 299.733 343.773 299.571C343.453 299.402 343.16 299.276 342.914 299.226C342.648 299.172 342.381 299.193 342.133 299.31C341.889 299.424 341.702 299.612 341.558 299.828Z" fill="#2B3B64" stroke="#182136" stroke-width="0.989691"/>
<path d="M353.455 290.353L352.062 289.433L352.062 289.432C351.577 289.112 351.184 288.836 350.887 288.607C350.604 288.389 350.365 288.182 350.232 287.998C350.075 287.782 350.005 287.528 350.031 287.259C350.056 287.004 350.163 286.765 350.309 286.547C350.451 286.327 350.638 286.148 350.877 286.036C351.117 285.925 351.374 285.898 351.628 285.928C351.898 285.96 352.21 286.083 352.539 286.25C352.878 286.421 353.278 286.661 353.736 286.964C354.107 287.206 354.416 287.431 354.656 287.637C354.889 287.836 355.088 288.044 355.207 288.257M353.455 290.353L360.339 284.958L368.575 290.393L365.755 294.677L364.629 293.935L363.924 294.588C364.292 295.253 364.454 295.88 364.428 296.481L364.428 296.481L364.428 296.486C364.408 297.089 364.197 297.708 363.777 298.351C363.226 299.186 362.49 299.791 361.56 300.186C360.789 300.508 359.603 300.282 357.884 299.145L357.884 299.145L356.468 298.211C356.468 298.211 356.468 298.211 356.468 298.211C355.844 297.796 355.367 297.41 355.028 297.055C354.687 296.697 354.506 296.392 354.434 296.142C354.358 295.87 354.332 295.421 354.39 294.756C354.447 294.1 354.583 293.274 354.799 292.273L354.799 292.271C355.03 291.182 355.188 290.319 355.268 289.687C355.308 289.373 355.33 289.103 355.33 288.885C355.33 288.776 355.324 288.67 355.309 288.573C355.295 288.482 355.268 288.366 355.207 288.257M353.455 290.353L350.764 294.439L350.02 293.947L350.019 293.946C348.706 293.085 347.843 292.295 347.383 291.595L347.383 291.595L347.381 291.593C346.936 290.923 346.712 289.999 346.766 288.771C346.818 287.594 347.289 286.294 348.232 284.864L353.455 290.353ZM355.207 288.257C355.207 288.258 355.207 288.258 355.208 288.258L354.775 288.499L355.207 288.256C355.207 288.257 355.207 288.257 355.207 288.257ZM351.59 281.655C350.508 282.092 349.381 283.124 348.232 284.864L351.59 281.655ZM351.59 281.655C352.716 281.204 353.707 281.191 354.6 281.555C355.579 281.955 357.479 283.073 360.339 284.958L351.59 281.655ZM362.38 295.295C362.616 295.173 362.801 294.982 362.947 294.759C363.219 294.353 363.353 293.852 363.083 293.39C362.964 293.185 362.735 292.976 362.484 292.776C362.215 292.561 361.858 292.308 361.419 292.02C361.419 292.02 361.419 292.02 361.419 292.02L358.088 289.825L358.08 289.672L357.685 289.608L357.677 289.607L357.484 290.103L357.112 290.122C357.145 290.762 357.211 291.312 357.317 291.765C357.42 292.209 357.571 292.601 357.802 292.888C358.175 293.353 358.775 293.851 359.578 294.372C360.03 294.67 360.42 294.907 360.747 295.079C361.061 295.244 361.358 295.371 361.611 295.412C361.875 295.454 362.137 295.42 362.38 295.295Z" fill="#2B3B64" stroke="#182136" stroke-width="0.989691"/>
<path d="M369.827 287.64L372.648 283.363C372.931 283.496 373.22 283.571 373.506 283.558C373.975 283.536 374.34 283.283 374.592 282.903L374.594 282.9C374.897 282.439 375.062 281.893 374.792 281.374C374.674 281.147 374.47 280.93 374.231 280.722C373.985 280.509 373.667 280.276 373.282 280.025C373.282 280.024 373.281 280.024 373.281 280.024L371.982 279.169L371.051 278.557L371.221 279.658C371.324 280.328 371.319 280.947 371.207 281.518L371.207 281.518L371.206 281.524C371.102 282.09 370.885 282.615 370.558 283.117C369.967 284.01 369.334 284.583 368.656 284.889L368.653 284.89C367.962 285.207 367.292 285.281 366.65 285.127C365.971 284.965 365.064 284.53 363.939 283.787L363.938 283.787L357.681 279.66C357.681 279.66 357.681 279.66 357.681 279.66C356.075 278.596 355.207 277.608 354.932 276.714C354.661 275.831 354.83 274.846 355.567 273.734L355.567 273.734C355.967 273.129 356.438 272.676 356.992 272.361L356.992 272.361L356.999 272.357C357.548 272.033 358.201 271.837 358.954 271.776L359.917 271.699L359.292 270.963L358.48 270.008L361.229 265.841L374.086 274.319C375.886 275.508 376.985 276.292 377.416 276.688C377.793 277.035 378.126 277.597 378.359 278.431L378.359 278.431L378.36 278.434C378.586 279.224 378.579 280.123 378.308 281.154L378.307 281.157C378.044 282.185 377.478 283.364 376.601 284.693L369.827 287.64ZM369.827 287.64C371.226 288.411 372.352 288.471 373.28 287.994C374.416 287.409 375.524 286.322 376.601 284.693L369.827 287.64ZM359.46 272.691L359.46 272.692C359.322 272.9 359.231 273.132 359.216 273.384C359.201 273.639 359.266 273.88 359.39 274.097C359.514 274.316 359.716 274.528 359.953 274.732C360.197 274.943 360.508 275.172 360.881 275.42L360.883 275.422L366.679 279.242C367.071 279.5 367.412 279.707 367.698 279.858C367.973 280.003 368.234 280.117 368.458 280.158C368.698 280.203 368.943 280.178 369.172 280.064C369.395 279.953 369.566 279.775 369.699 279.571C369.847 279.346 369.951 279.094 369.96 278.82C369.97 278.538 369.879 278.281 369.718 278.058C369.57 277.854 369.321 277.629 369.02 277.393C368.709 277.149 368.304 276.863 367.812 276.537L367.811 276.536L362.472 273.015L362.187 272.827L362.175 272.835C361.896 272.658 361.65 272.51 361.437 272.395C361.167 272.25 360.908 272.132 360.688 272.09C360.443 272.045 360.199 272.078 359.975 272.198C359.76 272.313 359.593 272.491 359.46 272.691Z" fill="#2B3B64" stroke="#182136" stroke-width="0.989691"/>
<path d="M118.483 52.6373C121.688 49.4462 124.115 46.2885 127.505 45.3624C134.482 43.4618 153.791 44.844 153.791 44.844L155.454 23.6136C155.454 23.6136 136.162 21.9671 129.568 19.0019C126.364 17.5593 124.459 14.0597 121.788 10.4133C117.028 2.3284 109.643 -7.63731 94.1143 -6.97836C78.5857 -6.31941 49.6922 -1.11959 39.2598 -3.79261C31.0893 -5.88341 12.2887 -11.6753 12.2887 -11.6753L-5.67324 -13.0852C-5.67324 -13.0852 -18.0881 -14.0616 -18.5079 -4.41474C-18.8723 4.05332 -9.80441 3.03389 -10.3933 7.51901C-10.9822 12.0041 -14.2392 10.2901 -17.3943 13.0097C-21.0871 16.1857 -21.7671 24.885 -18.618 28.6029C-15.9236 31.777 -12.4349 30.597 -12.5549 35.118C-12.6749 39.639 -21.4745 37.2236 -22.4343 45.6392C-23.5275 55.231 -11.1048 56.203 -11.1048 56.203L6.88157 57.2983C12.4979 56.5045 26.3509 54.5911 34.7512 53.794C45.4712 52.7818 73.2005 62.4176 88.4336 65.4942C103.674 68.5665 112.519 59.8691 118.479 52.6295L118.483 52.6373Z" fill="#2B3B64"/>
<path d="M118.082 52.2758L117.989 52.3675L117.981 52.3985C112.048 59.5901 103.383 68.0136 88.4862 65.0108C83.2641 63.9561 76.5752 62.1298 69.59 60.2226C66.4114 59.3547 63.1714 58.4701 59.9804 57.6338C54.8889 56.2995 49.9278 55.0901 45.5646 54.2776C41.2127 53.4673 37.4116 53.0429 34.6579 53.303L34.6577 53.303C26.2688 54.099 12.4614 56.0051 6.81524 56.8028L-11.1156 55.7109L-11.1181 55.7107L-11.1415 55.7087C-11.1629 55.7067 -11.1955 55.7036 -11.2386 55.6991C-11.3247 55.6902 -11.4527 55.6756 -11.6163 55.6536C-11.9436 55.6097 -12.4123 55.5362 -12.9724 55.4186C-14.0952 55.1828 -15.5715 54.7723 -17.0074 54.075C-18.445 53.3768 -19.8161 52.4037 -20.7624 51.0558C-21.7007 49.7191 -22.2437 47.9832 -21.9839 45.7032C-21.8926 44.9204 -21.7329 44.2427 -21.5215 43.653C-20.1752 46.1672 -17.6495 47.6116 -15.4291 48.4345C-14.162 48.9041 -12.9664 49.1822 -12.0886 49.3431C-11.6491 49.4236 -11.2876 49.4751 -11.0346 49.5065C-10.9081 49.5222 -10.8086 49.5329 -10.7399 49.5398C-10.7055 49.5432 -10.6789 49.5457 -10.6604 49.5473L-10.6388 49.5492L-10.6327 49.5497L-10.6309 49.5499L-10.6303 49.5499C-10.63 49.5499 -10.6299 49.5499 -10.5912 49.0556L-10.6299 49.55L-10.6213 49.5505L7.36514 50.6458L7.41566 50.6489L7.46577 50.6418C13.0917 49.8434 26.9332 47.9318 35.3122 47.1403C37.9184 46.8942 41.603 47.2949 45.9407 48.1031C50.2672 48.9091 55.1998 50.1116 60.2842 51.4445C63.4324 52.2698 66.6411 53.1459 69.7978 54.0078C76.8171 55.9243 83.5796 57.7706 88.8487 58.8328L88.9475 58.3427L88.8487 58.8328C104.359 61.9588 113.378 53.0816 119.363 45.8148C119.997 45.183 120.59 44.5646 121.161 43.9685C122.059 43.0323 122.904 42.1513 123.771 41.3607C125.178 40.0787 126.562 39.1182 128.146 38.6854C129.835 38.2253 132.305 37.957 135.09 37.8196C137.866 37.6827 140.921 37.6772 143.764 37.731C146.607 37.7849 149.233 37.898 151.148 37.9977C152.106 38.0475 152.886 38.094 153.426 38.128C153.551 38.1359 153.664 38.1431 153.763 38.1495L153.282 44.3046C153.179 44.298 153.062 44.2904 152.93 44.2821C152.387 44.2479 151.603 44.2013 150.642 44.1512C148.719 44.0511 146.082 43.9375 143.225 43.8834C140.369 43.8293 137.289 43.8346 134.482 43.973C131.684 44.111 129.124 44.3827 127.325 44.8728L127.324 44.8729C125.518 45.3663 123.994 46.4476 122.539 47.7737C121.653 48.5808 120.762 49.5102 119.841 50.47C119.268 51.0676 118.683 51.6769 118.082 52.2758Z" fill="#2B3B64" stroke="#182136"/>
<path d="M-17.1539 46.0361L-17.1539 46.036C-16.9041 43.8339 -16.1342 42.3028 -15.0923 41.189C-14.0598 40.0852 -12.7902 39.4242 -11.6029 38.9096C-11.2633 38.7624 -10.91 38.6189 -10.5728 38.482C-10.3367 38.3862 -10.1085 38.2935 -9.89844 38.2051C-9.36594 37.9808 -8.89699 37.7624 -8.50415 37.5148C-8.11316 37.2684 -7.81673 37.0047 -7.61403 36.6993C-7.41517 36.3996 -7.29016 36.0354 -7.27749 35.5579C-7.24915 34.4901 -7.43541 33.8207 -7.72179 33.3535C-8.00894 32.8851 -8.43193 32.561 -8.99763 32.245C-9.23409 32.113 -9.49756 31.9831 -9.77962 31.844C-10.8155 31.3333 -12.102 30.699 -13.2219 29.3796C-14.9184 27.3811 -15.5369 24.1209 -15.2937 21.0194C-15.0505 17.918 -13.9313 14.7939 -11.9432 13.0839C-10.6307 11.9527 -9.2602 11.5269 -8.15716 11.1841C-7.85774 11.0911 -7.57802 11.0042 -7.32453 10.911C-6.71661 10.6874 -6.2487 10.4337 -5.89257 10.0161C-5.53736 9.59959 -5.24953 8.9676 -5.11187 7.90776L-5.11178 7.90708C-5.04957 7.43329 -5.11606 7.0539 -5.26558 6.72677C-5.41798 6.39335 -5.66948 6.08653 -6.01707 5.78203C-6.36632 5.47609 -6.79532 5.18712 -7.28617 4.88237C-7.48003 4.76202 -7.69138 4.63459 -7.91008 4.50274C-8.22141 4.31505 -8.54763 4.11837 -8.85949 3.92032C-9.95177 3.22664 -11.1026 2.37559 -11.9502 1.1245C-12.8054 -0.137969 -13.327 -1.76991 -13.2302 -3.98325L-17.1539 46.0361ZM-17.1539 46.0361C-17.4385 48.5506 -16.8375 50.5322 -15.7539 52.0751C-14.6781 53.6067 -13.1489 54.6752 -11.6179 55.4193C-11.4036 55.5234 -11.1888 55.6214 -10.9746 55.7137M-17.1539 46.0361L-10.9746 55.7137M-10.9746 55.7137L-11.0537 55.7075L-11.0538 55.7075L-11.054 55.7075L-11.0547 55.7074L-11.0599 55.707L-11.0833 55.7049C-11.1047 55.703 -11.1373 55.6999 -11.1804 55.6954C-11.2665 55.6864 -11.3945 55.6719 -11.5581 55.6499C-11.8854 55.606 -12.3541 55.5325 -12.9142 55.4149C-14.037 55.1791 -15.5133 54.7686 -16.9492 54.0712C-18.3868 53.3731 -19.7579 52.4 -20.7042 51.052C-21.6426 49.7153 -22.1856 47.9792 -21.9257 45.6989C-21.6967 43.6913 -21.0073 42.3673 -20.1257 41.4253C-19.2346 40.4733 -18.1167 39.8779 -16.9688 39.3798C-16.6294 39.2325 -16.3079 39.1019 -15.9881 38.9721C-15.7513 38.876 -15.5156 38.7802 -15.2742 38.6784C-14.7299 38.4487 -14.1997 38.2045 -13.7355 37.9116C-13.2695 37.6174 -12.8512 37.2626 -12.5459 36.8022C-12.2369 36.336 -12.0606 35.7869 -12.0433 35.1342C-12.0116 33.9416 -12.2164 33.063 -12.6346 32.3808C-13.0521 31.6998 -13.6471 31.2727 -14.2754 30.9218C-14.5757 30.7541 -14.8823 30.6022 -15.192 30.4487C-16.2055 29.9466 -17.2526 29.4277 -18.2249 28.2823L-10.9746 55.7137ZM-5.63132 -12.5784C-5.85393 -12.5213 -6.07796 -12.4588 -6.3024 -12.3904C-7.93054 -11.8939 -9.60739 -11.0766 -10.9083 -9.73108C-12.2187 -8.37578 -13.1205 -6.51181 -13.2302 -3.98344L-5.63132 -12.5784ZM-5.63132 -12.5784L-5.7004 -12.5838L-5.70059 -12.5838L-5.70133 -12.5838L-5.70653 -12.5842L-5.72999 -12.5858C-5.75134 -12.5872 -5.784 -12.5893 -5.82723 -12.5915C-5.91368 -12.5961 -6.04232 -12.6017 -6.20721 -12.6055C-6.53714 -12.6131 -7.01132 -12.6136 -7.58253 -12.5847C-8.72773 -12.5268 -10.2492 -12.3514 -11.7756 -11.8863C-13.3037 -11.4206 -14.8093 -10.673 -15.9541 -9.48875C-17.0894 -8.31433 -17.8967 -6.68366 -17.9966 -4.39026C-18.0835 -2.37002 -17.609 -0.954022 -16.8852 0.11415C-16.1536 1.1937 -15.1424 1.95596 -14.0865 2.62667C-13.7743 2.82501 -13.477 3.00407 -13.1813 3.18215C-12.9626 3.31387 -12.7448 3.44506 -12.5225 3.58311C-12.0208 3.89468 -11.5353 4.21837 -11.1226 4.57997C-10.7084 4.94303 -10.3507 5.35865 -10.1212 5.86108C-9.88885 6.3698 -9.80072 6.93966 -9.88572 7.58708C-10.0411 8.77018 -10.3805 9.60583 -10.8998 10.2142C-11.4182 10.8216 -12.0722 11.1502 -12.7469 11.3986C-13.0685 11.517 -13.3937 11.6189 -13.7223 11.7219C-14.8015 12.06 -15.9166 12.4093 -17.056 13.3914L-17.0564 13.3918C-18.761 14.8578 -19.8286 17.6728 -20.0615 20.6451C-20.2945 23.6171 -19.6787 26.5656 -18.225 28.2823L-5.63132 -12.5784Z" fill="#2B3B64" stroke="#182136"/>
<path d="M157.682 23.4964L155.968 45.3215C155.846 46.8773 154.478 48.0457 152.924 47.9241L141.993 47.0686C140.438 46.9469 139.27 45.58 139.392 44.0243L141.107 22.1992C141.229 20.6434 142.596 19.4749 144.151 19.5966L155.082 20.452C156.636 20.5737 157.804 21.9406 157.682 23.4964Z" fill="#2B3B64" stroke="#182136"/>
<path d="M149.185 88.829L140.701 94.8932C140.701 94.8932 140.625 95.0412 140.657 95.1124L151.486 110.251C151.486 110.251 151.634 110.327 151.705 110.295L160.189 104.231C168.261 110.259 179.651 110.704 188.243 104.563L236.651 69.919C241.422 66.5086 242.506 59.8146 239.105 55.0649L221.176 30.0181C217.764 25.2446 211.071 24.157 206.324 27.5569L157.916 62.2008C149.324 68.3417 146.063 79.2827 149.172 88.8634L149.185 88.829Z" fill="#2B3B64" stroke="#182136" stroke-width="0.989691" stroke-linecap="round" stroke-linejoin="round"/>
<path d="M185.265 100.52L160.576 66.0227C158.775 63.5057 159.357 59.9867 161.873 58.1865L162.169 57.9747C164.685 56.1745 168.204 56.7587 170.005 59.2757L194.693 93.7728C196.495 96.2898 195.912 99.8088 193.397 101.609L193.101 101.821C190.585 103.621 187.066 103.037 185.265 100.52Z" fill="#2B3B64" stroke="#182136" stroke-width="0.989691" stroke-linecap="round" stroke-linejoin="round"/>
<path d="M194.629 94.0523L169.94 59.5552C168.139 57.0382 168.721 53.5192 171.237 51.719L171.533 51.5072C174.049 49.707 177.567 50.2912 179.369 52.8082L204.057 87.3053C205.858 89.8223 205.276 93.3413 202.76 95.1415L202.464 95.3533C199.949 97.1535 196.43 96.5693 194.629 94.0523Z" fill="#2B3B64" stroke="#182136" stroke-width="0.989691" stroke-linecap="round" stroke-linejoin="round"/>
<path d="M203.619 87.1574L178.931 52.6602C177.13 50.1433 177.712 46.6242 180.228 44.824L180.524 44.6122C183.039 42.812 186.558 43.3963 188.359 45.9132L213.048 80.4104C214.849 82.9273 214.267 86.4464 211.751 88.2466L211.455 88.4584C208.94 90.2586 205.421 89.6743 203.619 87.1574Z" fill="#2B3B64" stroke="#182136" stroke-width="0.989691" stroke-linecap="round" stroke-linejoin="round"/>
<path d="M213.486 80.8165L188.797 46.3194C186.996 43.8024 187.578 40.2834 190.094 38.4832L190.39 38.2714C192.906 36.4712 196.425 37.0554 198.226 39.5724L222.914 74.0695C224.716 76.5865 224.133 80.1055 221.618 81.9058L221.322 82.1175C218.806 83.9178 215.287 83.3335 213.486 80.8165Z" fill="#2B3B64" stroke="#182136" stroke-width="0.989691" stroke-linecap="round" stroke-linejoin="round"/>
<path d="M140.633 110.188L136.772 104.794C134.002 100.923 134.896 95.5172 138.765 92.7487L141.979 90.4492L155.876 109.868L152.662 112.167C148.794 114.936 143.388 114.038 140.617 110.167L140.633 110.188Z" fill="#2B3B64" stroke="#182136" stroke-width="0.989691" stroke-linecap="round" stroke-linejoin="round"/>
<path d="M178.626 163.601L178.865 165.656C180.77 180.974 169.794 195.087 154.444 196.997C139.131 198.895 125.016 187.91 123.1 172.556L122.86 170.501C120.956 155.183 131.932 141.07 147.281 139.16C162.63 137.25 176.709 148.247 178.626 163.601Z" fill="#2B3B64" stroke="#182136" stroke-width="0.989691" stroke-linecap="round" stroke-linejoin="round"/>
<path d="M155.859 133.085C150.952 133.706 147.418 138.221 148.005 143.142L154.306 193.776C154.929 198.684 159.445 202.221 164.365 201.636C168.462 201.123 171.547 197.925 172.144 194.021L232.486 181.616C237.804 180.537 241.375 175.526 240.716 170.146L237.458 143.837C236.775 138.385 231.981 134.376 226.506 134.742L165.28 138.539C163.761 134.935 159.957 132.571 155.896 133.073L155.859 133.085Z" fill="#2B3B64" stroke="#182136" stroke-width="0.989691" stroke-linecap="round" stroke-linejoin="round"/>
<path d="M172.187 194.045L166.235 146.165" stroke="#182136" stroke-width="0.989691" stroke-linecap="round" stroke-linejoin="round"/>
<path d="M189.605 145.212L225.575 143.069" stroke="#182136" stroke-width="0.989691" stroke-linecap="round" stroke-linejoin="round"/>
<path d="M215.483 159.151L110.1 157.778L103.705 137.544" fill="#2B3B64"/>
<path d="M215.483 159.151L110.1 157.778L103.705 137.544" stroke="#182136" stroke-width="0.989691" stroke-linecap="round" stroke-linejoin="round"/>
<path d="M84.56 187.187L93.4599 192.079C98.3586 194.772 100.159 200.974 97.4645 205.874L94.626 211.037L67.9263 196.361L70.7648 191.199C73.4593 186.298 79.6614 184.494 84.56 187.187Z" fill="#2B3B64" stroke="#182136" stroke-width="0.989691" stroke-linecap="round" stroke-linejoin="round"/>
<path d="M65.3013 200.134L48.6545 230.894L45.7363 236.211L9.41269 302.227C0.33178 318.731 6.38905 339.706 22.9243 348.8L71.711 375.621C88.2082 384.696 109.183 378.628 118.283 362.085L123.959 347.786C134.947 320.198 141.493 291.089 143.383 261.548C144.066 251.185 138.717 241.321 129.63 236.314L95.1689 217.378M134.607 260.855L123.421 308.37C122.337 312.89 117.805 315.721 113.266 314.678L105.066 312.746C100.547 311.665 97.7183 307.133 98.7637 302.593L109.95 255.079C111.034 250.558 115.566 247.727 120.104 248.77L128.304 250.702C132.824 251.784 135.652 256.315 134.607 260.855Z" fill="#2B3B64"/>
<path d="M65.3013 200.134L48.6545 230.894L45.7363 236.211L9.41269 302.227C0.33178 318.731 6.38905 339.706 22.9243 348.8L71.711 375.621C88.2082 384.696 109.183 378.628 118.283 362.085L123.959 347.786C134.947 320.198 141.493 291.089 143.383 261.548C144.066 251.185 138.717 241.321 129.63 236.314L95.1689 217.378M134.607 260.855L123.421 308.37C122.337 312.89 117.805 315.721 113.266 314.678L105.066 312.746C100.547 311.665 97.7183 307.133 98.7637 302.593L109.95 255.079C111.034 250.558 115.566 247.727 120.104 248.77L128.304 250.702C132.824 251.784 135.652 256.315 134.607 260.855Z" stroke="#182136" stroke-width="0.989691" stroke-linecap="round" stroke-linejoin="round"/>
<path d="M65.9357 192.274L99.4058 210.673C100.789 211.433 101.294 213.172 100.533 214.557L99.1547 217.064C98.3936 218.448 96.6545 218.954 95.2708 218.194L61.8008 199.795C60.4171 199.035 59.9124 197.295 60.6735 195.911L62.0519 193.404C62.813 192.02 64.5521 191.514 65.9357 192.274Z" fill="#2B3B64" stroke="#182136" stroke-width="0.989691" stroke-linecap="round" stroke-linejoin="round"/>
<mask id="path-35-inside-1_7115_11760" fill="white">
<path d="M248.099 9.17439L242.722 28.7403C242.27 30.3863 243.237 32.087 244.883 32.5389L254.683 35.2304C256.329 35.6823 258.029 34.7143 258.482 33.0683L263.859 13.5024C264.311 11.8564 263.344 10.1557 261.699 9.70378L251.898 7.01227C250.252 6.56037 248.552 7.52839 248.099 9.17439Z"/>
<path d="M249.757 8.94458L243.996 29.8979C243.919 30.1772 243.627 30.3439 243.348 30.2664C243.069 30.1889 242.902 29.8977 242.98 29.6184L248.741 8.66507C248.819 8.38576 249.11 8.21907 249.389 8.29657C249.668 8.37407 249.835 8.66527 249.757 8.94458Z"/>
<path d="M323.518 119.739C321.298 122.027 318.943 124.371 317.909 127.389C316.88 130.411 317.678 134.324 320.532 135.747C323.01 136.982 325.946 135.971 328.71 135.741C331.471 135.516 335.003 136.991 334.795 139.75C332.024 142.096 331.696 146.788 334.116 149.497C336.536 152.207 341.236 152.407 343.878 149.913C345.258 148.611 347.334 146.637 348.544 148.105C348.972 148.626 348.967 149.359 349.037 150.031C349.525 154.735 355.652 157.788 359.705 155.351C361.483 154.281 362.694 152.498 363.847 150.767C365.632 148.092 367.42 145.412 369.205 142.736C372.405 137.937 375.757 132.521 374.857 126.821C373.784 119.983 367.174 115.683 362.888 110.252C360.542 107.28 358.774 103.399 359.82 99.7588C360.323 98.0115 361.434 96.4934 362.049 94.7777C363.029 92.0527 362.691 89.0458 362.259 86.182C360.968 77.5935 358.947 69.1162 356.229 60.8636C353.765 53.3837 349.823 36.1455 342.956 32.2839C334.003 27.2525 322.576 39.9638 313.567 35.0355C303.711 29.6431 301.126 16.8932 294.658 7.70397C292.602 4.79084 289.539 1.96201 285.993 2.35884C283.88 2.59342 282.082 3.94038 280.4 5.23259C277.459 7.49834 274.517 9.76408 271.573 12.0344C268.687 14.2594 270.254 10.8023 268.5 14C265.404 19.643 262.252 32.3777 264.023 38.5628C265.183 42.6042 266.473 46.6066 267.896 50.5582C268.565 52.4232 269.303 54.3304 270.682 55.7578C272.035 57.1564 273.9 57.9581 275.778 58.4724C285.411 61.1302 295.499 57.1352 305.473 56.5308C306.897 56.4447 308.346 56.4306 309.729 56.7786C311.54 57.2388 313.138 58.2911 314.693 59.33C318.21 61.677 321.807 64.0984 324.291 67.5206C326.776 70.9429 327.957 75.6331 326.175 79.4681C325.781 80.3135 325.254 81.1087 324.999 82.0025C324.247 84.6344 326.018 87.3156 328.006 89.1936C329.994 91.0715 332.38 92.7224 333.436 95.2468C336.481 102.499 328.402 114.705 323.528 119.732L323.518 119.739Z"/>
<path d="M272.681 11.1952C273.465 11.9738 274.253 12.7478 275.038 13.5264C275.913 14.3924 277.011 15.3261 278.215 15.0667C279.585 14.7715 280.132 13.1579 281.071 12.1128C283.001 9.96717 286.764 10.5153 288.772 12.5873C290.782 14.6547 291.402 17.7034 291.561 20.5816C292.203 32.1045 286.541 43.7858 277.096 50.4154C278.067 52.2204 280.822 51.4629 282.529 50.3244C289.849 45.4507 295.233 37.7368 297.273 29.1799C301.013 31.8087 303.612 36.0057 304.294 40.5268C304.614 42.6425 304.739 45.1785 306.567 46.2848C307.571 46.8904 308.814 46.8629 309.989 46.8558C317.578 46.7962 325.954 48.7996 330.218 55.0722C333.524 59.9377 333.65 66.3433 336.436 71.5236C337.413 73.3388 339.317 75.19 341.261 74.4933C343.536 73.679 343.421 70.4632 342.869 68.1108C341.931 64.0985 340.996 60.089 340.058 56.0768C339.735 54.6896 339.585 52.88 340.836 52.1966C342.304 51.3954 343.879 53.0565 344.697 54.5162C348.808 61.8647 351.799 69.8383 353.53 78.0807C354.434 82.3738 354.598 87.7269 350.963 90.1889C346.4 93.2808 340.262 89.0819 334.816 89.9197C340.749 97.6909 346.678 105.467 352.611 113.238C353.776 114.767 354.532 117.616 352.655 118.039C351.993 118.185 351.324 117.862 350.733 117.536C349.418 116.821 348.061 116.042 346.566 116.009C345.071 115.976 343.429 116.998 343.376 118.494C348.669 120.316 353.963 122.147 359.255 123.97C360.858 124.522 362.554 125.138 363.606 126.465C364.536 127.641 364.821 129.2 364.844 130.705C364.937 137.317 359.967 143.656 353.526 145.139C352.968 141.223 347.948 138.712 344.481 140.617C341.468 142.273 340.403 145.995 338.348 148.75C337.721 149.597 336.816 150.311 335.824 150.808C338.352 152.168 341.785 151.903 343.899 149.908C345.279 148.606 347.356 146.632 348.561 148.097C348.988 148.618 348.984 149.351 349.054 150.024C349.542 154.727 355.668 157.78 359.722 155.343C361.5 154.274 362.71 152.49 363.864 150.759C365.652 148.079 367.437 145.404 369.222 142.728C372.422 137.929 375.77 132.51 374.874 126.814C373.8 119.976 367.191 115.675 362.905 110.245C360.559 107.272 358.791 103.391 359.837 99.7513C360.34 98.004 361.45 96.4859 362.066 94.7702C363.046 92.0453 362.708 89.0383 362.276 86.1746C360.984 77.5861 358.964 69.1088 356.246 60.8563C353.781 53.3764 349.821 36.1381 342.956 32.2839C334.003 27.2525 322.595 39.9639 313.584 35.0283C303.728 29.6359 301.143 16.886 294.675 7.69684C292.619 4.78372 289.556 1.95491 286.01 2.35173C283.897 2.58631 282.1 3.93329 280.418 5.22549C277.837 7.21047 275.259 9.2028 272.679 11.1878L272.681 11.1952Z"/>
<path d="M272.982 11.0801C273.767 11.8587 274.554 12.6327 275.339 13.4114C276.215 14.2773 277.313 15.211 278.516 14.9516C279.887 14.6564 280.433 13.0428 281.372 11.9977C283.303 9.85208 287.066 10.4003 289.073 12.4722C291.083 14.5397 291.703 17.5883 291.862 20.4665C292.505 31.9894 286.843 43.6707 277.398 50.3003C278.368 52.1053 281.124 51.3478 282.831 50.2093C290.151 45.3356 295.534 37.6217 297.575 29.0648C301.315 31.6936 303.913 35.8906 304.595 40.4118C304.916 42.5274 305.04 45.0634 306.868 46.1697C307.873 46.7753 309.116 46.7478 310.29 46.7407C317.879 46.6811 326.255 48.6845 330.519 54.9571C333.826 59.8226 333.952 66.2282 336.737 71.4085C337.714 73.2237 339.618 75.075 341.563 74.3782C343.837 73.5639 343.723 70.3482 343.171 67.9957C342.232 63.9834 341.298 59.9739 340.359 55.9617C340.037 54.5745 339.887 52.7649 341.137 52.0816C342.605 51.2803 344.18 52.9414 344.998 54.4011C349.11 61.7496 352.1 69.7232 353.831 77.9657C354.735 82.2587 354.899 87.6118 351.265 90.0738C346.701 93.1657 340.563 88.9668 335.117 89.8046C341.05 97.5758 346.98 105.352 352.912 113.123C354.078 114.652 354.833 117.501 352.956 117.924C352.294 118.07 351.625 117.747 351.034 117.421C349.719 116.706 348.362 115.927 346.867 115.894C345.372 115.861 343.731 116.882 343.678 118.378C348.97 120.201 354.264 122.032 359.557 123.855C361.16 124.407 362.856 125.023 363.907 126.35C364.837 127.526 365.122 129.085 365.146 130.59C365.239 137.202 360.268 143.541 353.827 145.024C353.27 141.108 348.25 138.597 344.782 140.502C341.769 142.158 340.704 145.88 338.65 148.635C338.022 149.482 337.117 150.196 336.126 150.693C338.653 152.053 342.086 151.788 344.201 149.793C345.581 148.491 347.657 146.517 348.862 147.982C349.29 148.503 349.285 149.236 349.356 149.909C349.844 154.612 355.97 157.665 360.023 155.228C361.801 154.159 363.012 152.375 364.165 150.644C365.953 147.964 367.739 145.289 369.524 142.613C372.723 137.814 376.071 132.395 375.175 126.698C374.102 119.861 367.492 115.56 363.206 110.13C360.86 107.157 359.092 103.276 360.138 99.6362C360.641 97.8889 361.752 96.3708 362.368 94.6551C363.347 91.9302 363.009 88.9233 362.577 86.0595C361.286 77.471 359.266 68.9938 356.547 60.7412C354.083 53.2613 350.123 36.023 343.257 32.1688C334.305 27.1374 322.896 39.8488 313.885 34.9132C304.029 29.5208 301.444 16.7709 294.976 7.58175C292.92 4.66863 289.857 1.83982 286.311 2.23664C284.199 2.47123 282.401 3.8182 280.719 5.11041C278.139 7.09539 275.56 9.08772 272.98 11.0727L272.982 11.0801Z"/>
</mask>
<path d="M248.099 9.17439L242.722 28.7403C242.27 30.3863 243.237 32.087 244.883 32.5389L254.683 35.2304C256.329 35.6823 258.029 34.7143 258.482 33.0683L263.859 13.5024C264.311 11.8564 263.344 10.1557 261.699 9.70378L251.898 7.01227C250.252 6.56037 248.552 7.52839 248.099 9.17439Z" fill="#2B3B64"/>
<path d="M249.757 8.94458L243.996 29.8979C243.919 30.1772 243.627 30.3439 243.348 30.2664C243.069 30.1889 242.902 29.8977 242.98 29.6184L248.741 8.66507C248.819 8.38576 249.11 8.21907 249.389 8.29657C249.668 8.37407 249.835 8.66527 249.757 8.94458Z" fill="#2B3B64"/>
<path d="M323.518 119.739C321.298 122.027 318.943 124.371 317.909 127.389C316.88 130.411 317.678 134.324 320.532 135.747C323.01 136.982 325.946 135.971 328.71 135.741C331.471 135.516 335.003 136.991 334.795 139.75C332.024 142.096 331.696 146.788 334.116 149.497C336.536 152.207 341.236 152.407 343.878 149.913C345.258 148.611 347.334 146.637 348.544 148.105C348.972 148.626 348.967 149.359 349.037 150.031C349.525 154.735 355.652 157.788 359.705 155.351C361.483 154.281 362.694 152.498 363.847 150.767C365.632 148.092 367.42 145.412 369.205 142.736C372.405 137.937 375.757 132.521 374.857 126.821C373.784 119.983 367.174 115.683 362.888 110.252C360.542 107.28 358.774 103.399 359.82 99.7588C360.323 98.0115 361.434 96.4934 362.049 94.7777C363.029 92.0527 362.691 89.0458 362.259 86.182C360.968 77.5935 358.947 69.1162 356.229 60.8636C353.765 53.3837 349.823 36.1455 342.956 32.2839C334.003 27.2525 322.576 39.9638 313.567 35.0355C303.711 29.6431 301.126 16.8932 294.658 7.70397C292.602 4.79084 289.539 1.96201 285.993 2.35884C283.88 2.59342 282.082 3.94038 280.4 5.23259C277.459 7.49834 274.517 9.76408 271.573 12.0344C268.687 14.2594 270.254 10.8023 268.5 14C265.404 19.643 262.252 32.3777 264.023 38.5628C265.183 42.6042 266.473 46.6066 267.896 50.5582C268.565 52.4232 269.303 54.3304 270.682 55.7578C272.035 57.1564 273.9 57.9581 275.778 58.4724C285.411 61.1302 295.499 57.1352 305.473 56.5308C306.897 56.4447 308.346 56.4306 309.729 56.7786C311.54 57.2388 313.138 58.2911 314.693 59.33C318.21 61.677 321.807 64.0984 324.291 67.5206C326.776 70.9429 327.957 75.6331 326.175 79.4681C325.781 80.3135 325.254 81.1087 324.999 82.0025C324.247 84.6344 326.018 87.3156 328.006 89.1936C329.994 91.0715 332.38 92.7224 333.436 95.2468C336.481 102.499 328.402 114.705 323.528 119.732L323.518 119.739Z" fill="#2B3B64"/>
<path d="M272.681 11.1952C273.465 11.9738 274.253 12.7478 275.038 13.5264C275.913 14.3924 277.011 15.3261 278.215 15.0667C279.585 14.7715 280.132 13.1579 281.071 12.1128C283.001 9.96717 286.764 10.5153 288.772 12.5873C290.782 14.6547 291.402 17.7034 291.561 20.5816C292.203 32.1045 286.541 43.7858 277.096 50.4154C278.067 52.2204 280.822 51.4629 282.529 50.3244C289.849 45.4507 295.233 37.7368 297.273 29.1799C301.013 31.8087 303.612 36.0057 304.294 40.5268C304.614 42.6425 304.739 45.1785 306.567 46.2848C307.571 46.8904 308.814 46.8629 309.989 46.8558C317.578 46.7962 325.954 48.7996 330.218 55.0722C333.524 59.9377 333.65 66.3433 336.436 71.5236C337.413 73.3388 339.317 75.19 341.261 74.4933C343.536 73.679 343.421 70.4632 342.869 68.1108C341.931 64.0985 340.996 60.089 340.058 56.0768C339.735 54.6896 339.585 52.88 340.836 52.1966C342.304 51.3954 343.879 53.0565 344.697 54.5162C348.808 61.8647 351.799 69.8383 353.53 78.0807C354.434 82.3738 354.598 87.7269 350.963 90.1889C346.4 93.2808 340.262 89.0819 334.816 89.9197C340.749 97.6909 346.678 105.467 352.611 113.238C353.776 114.767 354.532 117.616 352.655 118.039C351.993 118.185 351.324 117.862 350.733 117.536C349.418 116.821 348.061 116.042 346.566 116.009C345.071 115.976 343.429 116.998 343.376 118.494C348.669 120.316 353.963 122.147 359.255 123.97C360.858 124.522 362.554 125.138 363.606 126.465C364.536 127.641 364.821 129.2 364.844 130.705C364.937 137.317 359.967 143.656 353.526 145.139C352.968 141.223 347.948 138.712 344.481 140.617C341.468 142.273 340.403 145.995 338.348 148.75C337.721 149.597 336.816 150.311 335.824 150.808C338.352 152.168 341.785 151.903 343.899 149.908C345.279 148.606 347.356 146.632 348.561 148.097C348.988 148.618 348.984 149.351 349.054 150.024C349.542 154.727 355.668 157.78 359.722 155.343C361.5 154.274 362.71 152.49 363.864 150.759C365.652 148.079 367.437 145.404 369.222 142.728C372.422 137.929 375.77 132.51 374.874 126.814C373.8 119.976 367.191 115.675 362.905 110.245C360.559 107.272 358.791 103.391 359.837 99.7513C360.34 98.004 361.45 96.4859 362.066 94.7702C363.046 92.0453 362.708 89.0383 362.276 86.1746C360.984 77.5861 358.964 69.1088 356.246 60.8563C353.781 53.3764 349.821 36.1381 342.956 32.2839C334.003 27.2525 322.595 39.9639 313.584 35.0283C303.728 29.6359 301.143 16.886 294.675 7.69684C292.619 4.78372 289.556 1.95491 286.01 2.35173C283.897 2.58631 282.1 3.93329 280.418 5.22549C277.837 7.21047 275.259 9.2028 272.679 11.1878L272.681 11.1952Z" fill="#2B3B64"/>
<path d="M272.982 11.0801C273.767 11.8587 274.554 12.6327 275.339 13.4114C276.215 14.2773 277.313 15.211 278.516 14.9516C279.887 14.6564 280.433 13.0428 281.372 11.9977C283.303 9.85208 287.066 10.4003 289.073 12.4722C291.083 14.5397 291.703 17.5883 291.862 20.4665C292.505 31.9894 286.843 43.6707 277.398 50.3003C278.368 52.1053 281.124 51.3478 282.831 50.2093C290.151 45.3356 295.534 37.6217 297.575 29.0648C301.315 31.6936 303.913 35.8906 304.595 40.4118C304.916 42.5274 305.04 45.0634 306.868 46.1697C307.873 46.7753 309.116 46.7478 310.29 46.7407C317.879 46.6811 326.255 48.6845 330.519 54.9571C333.826 59.8226 333.952 66.2282 336.737 71.4085C337.714 73.2237 339.618 75.075 341.563 74.3782C343.837 73.5639 343.723 70.3482 343.171 67.9957C342.232 63.9834 341.298 59.9739 340.359 55.9617C340.037 54.5745 339.887 52.7649 341.137 52.0816C342.605 51.2803 344.18 52.9414 344.998 54.4011C349.11 61.7496 352.1 69.7232 353.831 77.9657C354.735 82.2587 354.899 87.6118 351.265 90.0738C346.701 93.1657 340.563 88.9668 335.117 89.8046C341.05 97.5758 346.98 105.352 352.912 113.123C354.078 114.652 354.833 117.501 352.956 117.924C352.294 118.07 351.625 117.747 351.034 117.421C349.719 116.706 348.362 115.927 346.867 115.894C345.372 115.861 343.731 116.882 343.678 118.378C348.97 120.201 354.264 122.032 359.557 123.855C361.16 124.407 362.856 125.023 363.907 126.35C364.837 127.526 365.122 129.085 365.146 130.59C365.239 137.202 360.268 143.541 353.827 145.024C353.27 141.108 348.25 138.597 344.782 140.502C341.769 142.158 340.704 145.88 338.65 148.635C338.022 149.482 337.117 150.196 336.126 150.693C338.653 152.053 342.086 151.788 344.201 149.793C345.581 148.491 347.657 146.517 348.862 147.982C349.29 148.503 349.285 149.236 349.356 149.909C349.844 154.612 355.97 157.665 360.023 155.228C361.801 154.159 363.012 152.375 364.165 150.644C365.953 147.964 367.739 145.289 369.524 142.613C372.723 137.814 376.071 132.395 375.175 126.698C374.102 119.861 367.492 115.56 363.206 110.13C360.86 107.157 359.092 103.276 360.138 99.6362C360.641 97.8889 361.752 96.3708 362.368 94.6551C363.347 91.9302 363.009 88.9233 362.577 86.0595C361.286 77.471 359.266 68.9938 356.547 60.7412C354.083 53.2613 350.123 36.023 343.257 32.1688C334.305 27.1374 322.896 39.8488 313.885 34.9132C304.029 29.5208 301.444 16.7709 294.976 7.58175C292.92 4.66863 289.857 1.83982 286.311 2.23664C284.199 2.47123 282.401 3.8182 280.719 5.11041C278.139 7.09539 275.56 9.08772 272.98 11.0727L272.982 11.0801Z" fill="#2B3B64"/>
<path d="M242.722 28.7403L243.108 28.8463L242.722 28.7403ZM248.099 9.17439L247.714 9.0684L248.099 9.17439ZM251.898 7.01227L252.004 6.62655L251.898 7.01227ZM261.699 9.70378L261.804 9.31806L261.699 9.70378ZM263.859 13.5024L264.245 13.6084L264.245 13.6084L263.859 13.5024ZM258.482 33.0683L258.096 32.9623L258.096 32.9623L258.482 33.0683ZM254.683 35.2304L254.577 35.6162L254.577 35.6162L254.683 35.2304ZM244.883 32.5389L244.988 32.1532L244.988 32.1532L244.883 32.5389ZM249.757 8.94458L249.372 8.83749L249.372 8.83853L249.757 8.94458ZM243.996 29.8979L244.382 30.005L244.382 30.0039L243.996 29.8979ZM242.98 29.6184L243.365 29.7255L243.366 29.7245L242.98 29.6184ZM248.741 8.66507L248.356 8.55798L248.355 8.55902L248.741 8.66507ZM323.518 119.739L323.307 119.399L323.265 119.425L323.231 119.46L323.518 119.739ZM317.909 127.389L317.531 127.26L317.531 127.26L317.909 127.389ZM320.532 135.747L320.71 135.389L320.71 135.389L320.532 135.747ZM328.71 135.741L328.678 135.343L328.677 135.343L328.71 135.741ZM334.795 139.75L335.054 140.056L335.181 139.947L335.194 139.78L334.795 139.75ZM343.878 149.913L343.603 149.622L343.603 149.622L343.878 149.913ZM348.544 148.105L348.853 147.851L348.853 147.851L348.544 148.105ZM349.037 150.031L349.435 149.99L349.435 149.99L349.037 150.031ZM359.705 155.351L359.911 155.694L359.911 155.694L359.705 155.351ZM363.847 150.767L363.514 150.545L363.514 150.545L363.847 150.767ZM369.205 142.736L369.538 142.958L369.538 142.958L369.205 142.736ZM374.857 126.821L374.462 126.883L374.462 126.884L374.857 126.821ZM362.888 110.252L363.202 110.004L363.202 110.004L362.888 110.252ZM359.82 99.7588L359.435 99.6481L359.435 99.6483L359.82 99.7588ZM362.049 94.7777L361.673 94.6424L361.673 94.6426L362.049 94.7777ZM362.259 86.182L361.863 86.2415L361.864 86.2417L362.259 86.182ZM356.229 60.8636L356.609 60.7385L356.609 60.7384L356.229 60.8636ZM313.567 35.0355L313.375 35.3865L313.375 35.3865L313.567 35.0355ZM294.658 7.70397L294.985 7.47372L294.984 7.47335L294.658 7.70397ZM285.993 2.35884L286.037 2.75639L286.037 2.75636L285.993 2.35884ZM280.4 5.23259L280.157 4.91538L280.156 4.91569L280.4 5.23259ZM271.573 12.0344L271.328 11.7176L271.328 11.7176L271.573 12.0344ZM268.5 14L268.149 13.8076L268.5 14ZM264.023 38.5628L263.638 38.6729L263.638 38.6731L264.023 38.5628ZM267.896 50.5582L268.272 50.423L268.272 50.4227L267.896 50.5582ZM270.682 55.7578L270.395 56.0357L270.395 56.0359L270.682 55.7578ZM275.778 58.4724L275.884 58.0868L275.884 58.0866L275.778 58.4724ZM305.473 56.5308L305.449 56.1316L305.449 56.1316L305.473 56.5308ZM309.729 56.7786L309.828 56.3909L309.827 56.3907L309.729 56.7786ZM314.693 59.33L314.471 59.6626L314.471 59.6627L314.693 59.33ZM326.175 79.4681L326.538 79.6373L326.538 79.6367L326.175 79.4681ZM324.999 82.0025L325.384 82.1124L325.384 82.1121L324.999 82.0025ZM333.436 95.2468L333.067 95.4011L333.068 95.4016L333.436 95.2468ZM323.528 119.732L323.739 120.072L323.781 120.046L323.815 120.011L323.528 119.732ZM272.681 11.1952L272.291 11.2877L272.318 11.3987L272.399 11.4791L272.681 11.1952ZM275.038 13.5264L274.756 13.8104L274.756 13.8108L275.038 13.5264ZM278.215 15.0667L278.131 14.6757L278.131 14.6757L278.215 15.0667ZM281.071 12.1128L280.773 11.8453L280.773 11.8455L281.071 12.1128ZM288.772 12.5873L288.484 12.8656L288.485 12.8662L288.772 12.5873ZM291.561 20.5816L291.161 20.6037L291.161 20.6039L291.561 20.5816ZM277.096 50.4154L276.866 50.088L276.576 50.292L276.744 50.6048L277.096 50.4154ZM282.529 50.3244L282.307 49.9915L282.307 49.9916L282.529 50.3244ZM297.273 29.1799L297.504 28.8527L297.021 28.5137L296.884 29.0871L297.273 29.1799ZM304.294 40.5268L303.898 40.5865L303.899 40.5867L304.294 40.5268ZM306.567 46.2848L306.36 46.627L306.36 46.6274L306.567 46.2848ZM309.989 46.8558L309.991 47.2558L309.992 47.2558L309.989 46.8558ZM330.218 55.0722L330.549 54.8474L330.549 54.8473L330.218 55.0722ZM336.436 71.5236L336.084 71.713L336.084 71.7131L336.436 71.5236ZM341.261 74.4933L341.127 74.1167L341.126 74.1168L341.261 74.4933ZM342.869 68.1108L342.48 68.2019L342.48 68.2021L342.869 68.1108ZM340.058 56.0768L339.668 56.1673L339.668 56.1679L340.058 56.0768ZM340.836 52.1966L340.644 51.8455L340.644 51.8456L340.836 52.1966ZM344.697 54.5162L345.046 54.3209L345.046 54.3206L344.697 54.5162ZM353.53 78.0807L353.138 78.163L353.138 78.1632L353.53 78.0807ZM350.963 90.1889L350.739 89.8577L350.739 89.8577L350.963 90.1889ZM334.816 89.9197L334.755 89.5243L334.089 89.6268L334.498 90.1624L334.816 89.9197ZM352.611 113.238L352.929 112.995L352.929 112.995L352.611 113.238ZM352.655 118.039L352.741 118.43L352.743 118.43L352.655 118.039ZM350.733 117.536L350.926 117.185L350.924 117.184L350.733 117.536ZM343.376 118.494L342.977 118.479L342.966 118.775L343.246 118.872L343.376 118.494ZM359.255 123.97L359.386 123.591L359.386 123.591L359.255 123.97ZM363.606 126.465L363.919 126.217L363.919 126.216L363.606 126.465ZM364.844 130.705L365.244 130.7L365.244 130.699L364.844 130.705ZM353.526 145.139L353.13 145.196L353.191 145.627L353.616 145.529L353.526 145.139ZM344.481 140.617L344.288 140.266L344.288 140.266L344.481 140.617ZM338.348 148.75L338.028 148.511L338.027 148.512L338.348 148.75ZM335.824 150.808L335.645 150.45L334.957 150.795L335.635 151.16L335.824 150.808ZM343.899 149.908L344.174 150.199L344.174 150.199L343.899 149.908ZM348.561 148.097L348.87 147.843L348.87 147.843L348.561 148.097ZM349.054 150.024L349.452 149.982L349.452 149.982L349.054 150.024ZM359.722 155.343L359.928 155.686L359.928 155.686L359.722 155.343ZM363.864 150.759L363.531 150.537L363.531 150.538L363.864 150.759ZM369.222 142.728L369.555 142.95L369.555 142.95L369.222 142.728ZM374.874 126.814L374.479 126.876L374.479 126.876L374.874 126.814ZM362.905 110.245L363.219 109.997L363.219 109.997L362.905 110.245ZM359.837 99.7513L359.452 99.6406L359.452 99.6408L359.837 99.7513ZM362.066 94.7702L361.69 94.6349L361.69 94.6351L362.066 94.7702ZM362.276 86.1746L361.88 86.234L361.88 86.2342L362.276 86.1746ZM356.246 60.8563L356.626 60.7311L356.626 60.7311L356.246 60.8563ZM313.584 35.0283L313.776 34.6775L313.776 34.6774L313.584 35.0283ZM294.675 7.69684L295.002 7.46659L295.001 7.46622L294.675 7.69684ZM286.01 2.35173L286.054 2.74929L286.054 2.74925L286.01 2.35173ZM280.418 5.22549L280.174 4.90828L280.174 4.90846L280.418 5.22549ZM272.679 11.1878L272.435 10.8707L272.23 11.0286L272.29 11.2804L272.679 11.1878ZM272.982 11.0801L272.593 11.1727L272.619 11.2837L272.7 11.364L272.982 11.0801ZM275.339 13.4114L275.057 13.6953L275.058 13.6958L275.339 13.4114ZM278.516 14.9516L278.432 14.5606L278.432 14.5606L278.516 14.9516ZM281.372 11.9977L281.075 11.7302L281.075 11.7304L281.372 11.9977ZM289.073 12.4722L288.786 12.7506L288.786 12.7511L289.073 12.4722ZM291.862 20.4665L291.463 20.4886L291.463 20.4888L291.862 20.4665ZM277.398 50.3003L277.168 49.9729L276.877 50.1769L277.045 50.4897L277.398 50.3003ZM282.831 50.2093L282.609 49.8764L282.609 49.8765L282.831 50.2093ZM297.575 29.0648L297.805 28.7376L297.323 28.3986L297.186 28.972L297.575 29.0648ZM304.595 40.4118L304.2 40.4714L304.2 40.4716L304.595 40.4118ZM306.868 46.1697L306.661 46.5119L306.662 46.5123L306.868 46.1697ZM310.29 46.7407L310.292 47.1407L310.293 47.1407L310.29 46.7407ZM330.519 54.9571L330.85 54.7323L330.85 54.7322L330.519 54.9571ZM336.737 71.4085L336.385 71.5979L336.385 71.598L336.737 71.4085ZM341.563 74.3782L341.428 74.0016L341.428 74.0017L341.563 74.3782ZM343.171 67.9957L342.781 68.0868L342.781 68.087L343.171 67.9957ZM340.359 55.9617L339.969 56.0522L339.97 56.0528L340.359 55.9617ZM341.137 52.0816L340.946 51.7305L340.946 51.7305L341.137 52.0816ZM344.998 54.4011L345.348 54.2058L345.347 54.2055L344.998 54.4011ZM353.831 77.9657L353.44 78.0479L353.44 78.0481L353.831 77.9657ZM351.265 90.0738L351.04 89.7426L351.04 89.7427L351.265 90.0738ZM335.117 89.8046L335.057 89.4092L334.391 89.5117L334.799 90.0473L335.117 89.8046ZM352.912 113.123L353.23 112.88L353.23 112.88L352.912 113.123ZM352.956 117.924L353.043 118.315L353.044 118.314L352.956 117.924ZM351.034 117.421L351.227 117.07L351.225 117.069L351.034 117.421ZM343.678 118.378L343.278 118.364L343.267 118.66L343.547 118.757L343.678 118.378ZM359.557 123.855L359.687 123.476L359.687 123.476L359.557 123.855ZM363.907 126.35L364.221 126.101L364.221 126.101L363.907 126.35ZM365.146 130.59L365.545 130.585L365.545 130.584L365.146 130.59ZM353.827 145.024L353.431 145.081L353.493 145.512L353.917 145.414L353.827 145.024ZM344.782 140.502L344.589 140.151L344.589 140.151L344.782 140.502ZM338.65 148.635L338.329 148.396L338.329 148.397L338.65 148.635ZM336.126 150.693L335.947 150.335L335.258 150.68L335.936 151.045L336.126 150.693ZM344.201 149.793L344.475 150.084L344.475 150.084L344.201 149.793ZM348.862 147.982L349.171 147.728L349.171 147.728L348.862 147.982ZM349.356 149.909L349.753 149.867L349.753 149.867L349.356 149.909ZM360.023 155.228L360.229 155.571L360.229 155.571L360.023 155.228ZM364.165 150.644L363.833 150.422L363.832 150.423L364.165 150.644ZM369.524 142.613L369.856 142.835L369.857 142.835L369.524 142.613ZM375.175 126.698L374.78 126.761L374.78 126.761L375.175 126.698ZM363.206 110.13L363.52 109.882L363.52 109.882L363.206 110.13ZM360.138 99.6362L359.754 99.5255L359.754 99.5257L360.138 99.6362ZM362.368 94.6551L361.991 94.5199L361.991 94.52L362.368 94.6551ZM362.577 86.0595L362.182 86.119L362.182 86.1191L362.577 86.0595ZM356.547 60.7412L356.927 60.616L356.927 60.616L356.547 60.7412ZM343.257 32.1688L343.061 32.5175L343.061 32.5176L343.257 32.1688ZM313.885 34.9132L314.077 34.5624L314.077 34.5623L313.885 34.9132ZM294.976 7.58175L295.303 7.35151L295.303 7.35113L294.976 7.58175ZM286.311 2.23664L286.355 2.6342L286.356 2.63416L286.311 2.23664ZM280.719 5.11041L280.475 4.7932L280.475 4.79337L280.719 5.11041ZM272.98 11.0727L272.736 10.7557L272.531 10.9135L272.591 11.1653L272.98 11.0727ZM243.108 28.8463L248.485 9.28039L247.714 9.0684L242.336 28.6343L243.108 28.8463ZM248.485 9.28039C248.879 7.84725 250.359 7.00462 251.792 7.39799L252.004 6.62655C250.145 6.11612 248.224 7.20953 247.714 9.0684L248.485 9.28039ZM251.792 7.39799L261.593 10.0895L261.804 9.31806L252.004 6.62655L251.792 7.39799ZM261.593 10.0895C263.025 10.4829 263.867 11.9633 263.473 13.3964L264.245 13.6084C264.756 11.7495 263.663 9.8285 261.804 9.31806L261.593 10.0895ZM263.473 13.3964L258.096 32.9623L258.868 33.1743L264.245 13.6084L263.473 13.3964ZM258.096 32.9623C257.702 34.3955 256.222 35.2381 254.789 34.8447L254.577 35.6162C256.436 36.1266 258.357 35.0332 258.868 33.1743L258.096 32.9623ZM254.789 34.8447L244.988 32.1532L244.777 32.9247L254.577 35.6162L254.789 34.8447ZM244.988 32.1532C243.556 31.7599 242.714 30.2794 243.108 28.8463L242.336 28.6343C241.826 30.4933 242.918 32.4142 244.777 32.9247L244.988 32.1532ZM249.372 8.83853L243.611 29.7918L244.382 30.0039L250.143 9.05063L249.372 8.83853ZM243.611 29.7908C243.592 29.8598 243.519 29.8987 243.455 29.881L243.241 30.6518C243.736 30.7891 244.246 30.4946 244.382 30.005L243.611 29.7908ZM243.455 29.881C243.387 29.8619 243.348 29.7897 243.365 29.7255L242.595 29.5113C242.457 30.0057 242.751 30.5159 243.241 30.6518L243.455 29.881ZM243.366 29.7245L249.127 8.77111L248.355 8.55902L242.594 29.5124L243.366 29.7245ZM249.127 8.77216C249.146 8.7032 249.218 8.66424 249.282 8.682L249.496 7.91114C249.002 7.77389 248.492 8.06832 248.356 8.55798L249.127 8.77216ZM249.282 8.682C249.351 8.70102 249.39 8.77328 249.372 8.83749L250.143 9.05167C250.28 8.55726 249.986 8.04712 249.496 7.91114L249.282 8.682ZM323.231 119.46C321.029 121.73 318.6 124.14 317.531 127.26L318.288 127.519C319.287 124.602 321.567 122.325 323.805 120.017L323.231 119.46ZM317.531 127.26C316.99 128.846 316.929 130.662 317.379 132.275C317.829 133.89 318.802 135.331 320.353 136.105L320.71 135.389C319.408 134.739 318.555 133.513 318.15 132.06C317.744 130.605 317.799 128.954 318.288 127.518L317.531 127.26ZM320.353 136.105C321.69 136.771 323.132 136.822 324.55 136.692C325.259 136.627 325.976 136.516 326.675 136.408C327.38 136.3 328.068 136.196 328.743 136.14L328.677 135.343C327.97 135.402 327.255 135.51 326.554 135.618C325.848 135.726 325.157 135.833 324.477 135.895C323.116 136.02 321.851 135.958 320.71 135.389L320.353 136.105ZM328.743 136.14C330.05 136.033 331.542 136.332 332.668 136.974C333.792 137.615 334.485 138.55 334.396 139.72L335.194 139.78C335.314 138.192 334.345 137.009 333.064 136.279C331.786 135.55 330.132 135.224 328.678 135.343L328.743 136.14ZM334.537 139.445C331.594 141.936 331.248 146.886 333.817 149.764L334.414 149.231C332.144 146.689 332.455 142.256 335.054 140.056L334.537 139.445ZM333.817 149.764C336.387 152.642 341.347 152.853 344.152 150.204L343.603 149.622C341.125 151.962 336.684 151.773 334.414 149.231L333.817 149.764ZM344.152 150.204C344.853 149.543 345.679 148.763 346.47 148.319C346.865 148.098 347.21 147.984 347.498 147.985C347.762 147.986 348.007 148.082 348.235 148.359L348.853 147.851C348.476 147.394 348.008 147.186 347.5 147.185C347.015 147.184 346.528 147.37 346.079 147.622C345.184 148.123 344.283 148.981 343.603 149.622L344.152 150.204ZM348.235 148.359C348.388 148.546 348.476 148.785 348.531 149.084C348.589 149.397 348.601 149.705 348.639 150.073L349.435 149.99C349.403 149.686 349.383 149.291 349.318 148.939C349.251 148.573 349.127 148.185 348.853 147.851L348.235 148.359ZM348.639 150.073C348.901 152.592 350.665 154.635 352.856 155.727C355.046 156.819 357.74 156.999 359.911 155.694L359.499 155.008C357.616 156.14 355.22 156.012 353.213 155.011C351.205 154.01 349.662 152.175 349.435 149.99L348.639 150.073ZM359.911 155.694C361.778 154.57 363.035 152.707 364.18 150.989L363.514 150.545C362.352 152.289 361.187 153.992 359.499 155.008L359.911 155.694ZM364.18 150.989C365.072 149.651 365.966 148.312 366.859 146.974C367.752 145.635 368.646 144.296 369.538 142.958L368.873 142.514C367.98 143.852 367.087 145.191 366.194 146.53C365.3 147.868 364.407 149.207 363.514 150.545L364.18 150.989ZM369.538 142.958C371.138 140.558 372.795 137.977 373.937 135.272C375.08 132.564 375.718 129.707 375.252 126.759L374.462 126.884C374.897 129.635 374.308 132.336 373.2 134.961C372.091 137.588 370.472 140.114 368.873 142.514L369.538 142.958ZM375.252 126.759C374.698 123.226 372.715 120.37 370.376 117.743C369.207 116.43 367.936 115.16 366.702 113.892C365.464 112.619 364.26 111.345 363.202 110.004L362.574 110.5C363.659 111.875 364.888 113.175 366.129 114.449C367.373 115.729 368.625 116.979 369.778 118.275C372.084 120.865 373.943 123.579 374.462 126.883L375.252 126.759ZM363.202 110.004C360.881 107.064 359.213 103.32 360.204 99.8692L359.435 99.6483C358.335 103.478 360.203 107.496 362.574 110.5L363.202 110.004ZM360.204 99.8695C360.444 99.0374 360.83 98.2521 361.248 97.4392C361.661 96.6366 362.107 95.801 362.426 94.9128L361.673 94.6426C361.376 95.47 360.959 96.2513 360.537 97.0735C360.119 97.8854 359.699 98.7329 359.435 99.6481L360.204 99.8695ZM362.426 94.913C363.443 92.0816 363.086 88.98 362.655 86.1223L361.864 86.2417C362.296 89.1116 362.614 92.0239 361.673 94.6424L362.426 94.913ZM362.655 86.1225C361.36 77.5116 359.334 69.0124 356.609 60.7385L355.849 60.9887C358.56 69.22 360.575 77.6753 361.863 86.2415L362.655 86.1225ZM356.609 60.7384C355.391 57.0422 353.771 50.806 351.618 45.0762C350.538 42.2017 349.314 39.4257 347.923 37.12C346.535 34.8211 344.957 32.9505 343.152 31.9352L342.76 32.6325C344.388 33.548 345.878 35.2803 347.238 37.5334C348.594 39.7797 349.797 42.5048 350.869 45.3576C353.02 51.0822 354.602 57.2051 355.849 60.9888L356.609 60.7384ZM343.152 31.9352C340.81 30.619 338.317 30.473 335.789 30.8895C333.271 31.3044 330.683 32.2837 328.141 33.247C325.581 34.2167 323.066 35.1705 320.634 35.5828C318.212 35.9933 315.907 35.8599 313.758 34.6846L313.375 35.3865C315.731 36.6753 318.233 36.801 320.767 36.3715C323.291 35.9437 325.882 34.9582 328.424 33.9951C330.984 33.0255 333.494 32.0784 335.919 31.6789C338.333 31.2812 340.625 31.433 342.76 32.6326L343.152 31.9352ZM313.759 34.6846C308.937 32.0463 305.872 27.5981 303.194 22.6045C300.535 17.6458 298.236 12.093 294.985 7.47372L294.33 7.93421C297.547 12.5042 299.775 17.921 302.489 22.9826C305.185 28.0094 308.341 32.6323 313.375 35.3865L313.759 34.6846ZM294.984 7.47335C293.94 5.99393 292.63 4.51916 291.113 3.46201C289.594 2.40342 287.846 1.74896 285.948 1.96132L286.037 2.75636C287.686 2.57189 289.242 3.13342 290.655 4.11833C292.07 5.10466 293.319 6.50088 294.331 7.93458L294.984 7.47335ZM285.949 1.96128C283.707 2.21019 281.823 3.63562 280.157 4.91538L280.644 5.54979C282.342 4.24514 284.053 2.97665 286.037 2.75639L285.949 1.96128ZM280.156 4.91569C277.215 7.18143 274.273 9.44723 271.328 11.7176L271.817 12.3512C274.761 10.0809 277.703 7.81524 280.644 5.54948L280.156 4.91569ZM271.328 11.7176C270.617 12.2661 270.245 12.4103 270.068 12.4341C269.994 12.4442 269.969 12.4309 269.966 12.4292C269.954 12.4236 269.94 12.4142 269.894 12.3683C269.877 12.3516 269.837 12.3107 269.793 12.2766C269.748 12.2407 269.664 12.184 269.547 12.1648C269.283 12.1214 269.101 12.296 269.018 12.3886C268.918 12.4993 268.807 12.6639 268.675 12.8815C268.54 13.1049 268.369 13.4067 268.149 13.8076L268.851 14.1924C269.069 13.7938 269.233 13.5042 269.36 13.2959C269.489 13.0818 269.567 12.9745 269.611 12.9249C269.673 12.8572 269.593 12.983 269.418 12.9542C269.345 12.9423 269.303 12.9088 269.299 12.9059C269.298 12.9048 269.301 12.9067 269.331 12.9366C269.379 12.984 269.477 13.083 269.624 13.1527C269.781 13.2265 269.963 13.2557 270.176 13.2269C270.572 13.1733 271.085 12.9152 271.817 12.3511L271.328 11.7176ZM268.149 13.8076C266.576 16.6756 265.003 21.3116 264.044 25.9979C263.088 30.6714 262.725 35.4823 263.638 38.6729L264.407 38.4527C263.55 35.4583 263.877 30.8092 264.828 26.1583C265.777 21.5202 267.328 16.9674 268.851 14.1924L268.149 13.8076ZM263.638 38.6731C264.8 42.7229 266.094 46.7337 267.52 50.6937L268.272 50.4227C266.853 46.4796 265.565 42.4855 264.407 38.4525L263.638 38.6731ZM267.519 50.6933C268.186 52.5515 268.948 54.5383 270.395 56.0357L270.97 55.4799C269.659 54.1224 268.944 52.295 268.272 50.423L267.519 50.6933ZM270.395 56.0359C271.82 57.5094 273.765 58.3359 275.672 58.8582L275.884 58.0866C274.035 57.5803 272.25 56.8035 270.97 55.4797L270.395 56.0359ZM275.672 58.858C280.571 60.2097 285.569 59.8649 290.557 59.1205C295.573 58.372 300.532 57.231 305.498 56.9301L305.449 56.1316C300.44 56.4351 295.368 57.5937 290.439 58.3293C285.481 59.0691 280.618 59.3929 275.884 58.0868L275.672 58.858ZM305.498 56.9301C306.913 56.8445 308.311 56.8342 309.632 57.1665L309.827 56.3907C308.381 56.027 306.881 56.045 305.449 56.1316L305.498 56.9301ZM309.631 57.1663C311.365 57.6069 312.907 58.6178 314.471 59.6626L314.915 58.9974C313.369 57.9643 311.716 56.8708 309.828 56.3909L309.631 57.1663ZM314.471 59.6627C317.998 62.0165 321.532 64.4008 323.968 67.7556L324.615 67.2857C322.082 63.7959 318.422 61.3375 314.915 58.9973L314.471 59.6627ZM323.968 67.7556C326.4 71.1064 327.513 75.6408 325.813 79.2995L326.538 79.6367C328.402 75.6255 327.151 70.7794 324.615 67.2857L323.968 67.7556ZM325.813 79.2989C325.619 79.7143 325.402 80.0987 325.179 80.5349C324.962 80.9583 324.752 81.4081 324.614 81.8929L325.384 82.1121C325.5 81.7031 325.682 81.3084 325.891 80.8993C326.094 80.5032 326.337 80.0672 326.538 79.6373L325.813 79.2989ZM324.614 81.8926C324.204 83.3302 324.489 84.7617 325.115 86.055C325.74 87.3461 326.715 88.5241 327.731 89.4844L328.281 88.9028C327.309 87.9851 326.404 86.8835 325.835 85.7065C325.266 84.5318 325.042 83.3067 325.384 82.1124L324.614 81.8926ZM327.731 89.4844C328.235 89.9598 328.763 90.4207 329.28 90.8767C329.8 91.3349 330.31 91.7897 330.79 92.2626C331.75 93.2088 332.569 94.209 333.067 95.4011L333.805 95.0924C333.248 93.7601 332.346 92.6727 331.352 91.6929C330.854 91.2028 330.329 90.735 329.809 90.2766C329.287 89.816 328.772 89.3663 328.281 88.9028L327.731 89.4844ZM333.068 95.4016C333.789 97.1195 333.862 99.1574 333.465 101.354C333.068 103.549 332.207 105.876 331.093 108.148C328.864 112.695 325.65 116.969 323.241 119.454L323.815 120.011C326.28 117.469 329.543 113.127 331.811 108.5C332.945 106.186 333.838 103.787 334.252 101.496C334.666 99.2076 334.606 97 333.805 95.0919L333.068 95.4016ZM323.317 119.392L323.307 119.399L323.728 120.079L323.739 120.072L323.317 119.392ZM272.399 11.4791C272.792 11.8688 273.185 12.2573 273.578 12.6454C273.971 13.0336 274.364 13.4215 274.756 13.8104L275.319 13.2425C274.927 12.8528 274.533 12.4643 274.14 12.0762C273.747 11.688 273.354 11.3001 272.962 10.9112L272.399 11.4791ZM274.756 13.8108C275.198 14.2476 275.722 14.7284 276.303 15.0648C276.888 15.4033 277.567 15.6156 278.299 15.4577L278.131 14.6757C277.66 14.7772 277.188 14.6524 276.704 14.3724C276.216 14.0903 275.753 13.6712 275.319 13.242L274.756 13.8108ZM278.299 15.4577C279.131 15.2786 279.685 14.7018 280.125 14.1099C280.345 13.8146 280.555 13.4907 280.753 13.1977C280.956 12.8974 281.153 12.6198 281.368 12.3801L280.773 11.8455C280.519 12.1284 280.296 12.4444 280.09 12.7498C279.878 13.0625 279.689 13.3563 279.484 13.632C279.074 14.182 278.67 14.5596 278.131 14.6757L278.299 15.4577ZM281.368 12.3804C282.229 11.4236 283.516 11.0472 284.857 11.1669C286.2 11.2867 287.551 11.9026 288.484 12.8656L289.059 12.309C287.985 11.2 286.451 10.5059 284.928 10.37C283.403 10.234 281.843 10.6564 280.773 11.8453L281.368 12.3804ZM288.485 12.8662C290.389 14.8251 291.004 17.7474 291.161 20.6037L291.96 20.5595C291.8 17.6594 291.174 14.4844 289.058 12.3085L288.485 12.8662ZM291.161 20.6039C291.796 31.9888 286.198 43.5379 276.866 50.088L277.326 50.7428C286.884 44.0338 292.61 32.2202 291.96 20.5593L291.161 20.6039ZM276.744 50.6048C277.338 51.7089 278.472 51.9862 279.578 51.8716C280.682 51.7572 281.858 51.2526 282.751 50.6572L282.307 49.9916C281.493 50.5347 280.439 50.9781 279.495 51.0758C278.554 51.1733 277.825 50.9268 277.449 50.2259L276.744 50.6048ZM282.751 50.6574C290.155 45.7277 295.598 37.9281 297.663 29.2727L296.884 29.0871C294.867 37.5455 289.544 45.1737 282.307 49.9915L282.751 50.6574ZM297.043 29.5072C300.694 32.0731 303.233 36.1736 303.898 40.5865L304.69 40.4672C303.991 35.8379 301.333 31.5442 297.504 28.8527L297.043 29.5072ZM303.899 40.5867C304.054 41.6129 304.171 42.825 304.481 43.8954C304.794 44.9781 305.323 45.9998 306.36 46.627L306.774 45.9426C305.982 45.4635 305.536 44.664 305.249 43.6733C304.959 42.6701 304.854 41.5564 304.69 40.467L303.899 40.5867ZM306.36 46.6274C307.48 47.3026 308.85 47.2627 309.991 47.2558L309.986 46.4558C308.779 46.4631 307.662 46.4782 306.773 45.9422L306.36 46.6274ZM309.992 47.2558C317.543 47.1965 325.739 49.1955 329.887 55.2971L330.549 54.8473C326.168 48.4037 317.613 46.3959 309.985 46.4558L309.992 47.2558ZM329.887 55.297C331.499 57.6692 332.343 60.4277 333.137 63.2868C333.925 66.1261 334.665 69.0742 336.084 71.713L336.788 71.3341C335.422 68.7926 334.706 65.9478 333.908 63.0729C333.115 60.2178 332.243 57.3407 330.549 54.8474L329.887 55.297ZM336.084 71.7131C336.593 72.6593 337.35 73.6286 338.253 74.2756C339.159 74.9245 340.259 75.2775 341.396 74.8699L341.126 74.1168C340.32 74.4058 339.495 74.1816 338.719 73.6252C337.939 73.067 337.256 72.2031 336.788 71.334L336.084 71.7131ZM341.396 74.8699C342.727 74.3934 343.322 73.2152 343.521 71.9404C343.718 70.6689 343.541 69.2201 343.259 68.0194L342.48 68.2021C342.75 69.3539 342.906 70.6892 342.73 71.8174C342.555 72.9421 342.07 73.7789 341.127 74.1167L341.396 74.8699ZM343.259 68.0196C342.79 66.0136 342.321 64.0083 341.853 62.0028C341.385 59.9974 340.917 57.9919 340.447 55.9856L339.668 56.1679C340.138 58.1739 340.606 60.1793 341.074 62.1847C341.542 64.1901 342.011 66.1957 342.48 68.2019L343.259 68.0196ZM340.447 55.9863C340.29 55.3088 340.183 54.5613 340.255 53.9167C340.325 53.2762 340.561 52.8028 341.028 52.5477L340.644 51.8456C339.86 52.2738 339.546 53.0469 339.459 53.8289C339.374 54.6067 339.503 55.4576 339.668 56.1673L340.447 55.9863ZM341.028 52.5477C341.569 52.2521 342.158 52.3802 342.774 52.8313C343.392 53.2838 343.956 54.0121 344.348 54.7118L345.046 54.3206C344.62 53.5606 343.987 52.7285 343.246 52.1858C342.504 51.6418 341.571 51.3399 340.644 51.8455L341.028 52.5477ZM344.348 54.7115C348.439 62.0247 351.416 69.9602 353.138 78.163L353.921 77.9985C352.182 69.7164 349.177 61.7047 345.046 54.3209L344.348 54.7115ZM353.138 78.1632C353.586 80.2879 353.844 82.6486 353.552 84.7669C353.261 86.8819 352.43 88.7119 350.739 89.8577L351.187 90.5201C353.131 89.2039 354.035 87.1264 354.345 84.876C354.654 82.629 354.378 80.1666 353.921 77.9983L353.138 78.1632ZM350.739 89.8577C348.607 91.3023 346.085 91.066 343.299 90.5074C341.932 90.2332 340.479 89.877 339.058 89.6482C337.627 89.4176 336.176 89.3058 334.755 89.5243L334.877 90.315C336.179 90.1146 337.538 90.2135 338.931 90.438C340.336 90.6643 341.724 91.0075 343.142 91.2918C345.927 91.8502 348.756 92.1673 351.187 90.52L350.739 89.8577ZM334.498 90.1624C337.464 94.0479 340.43 97.9346 343.395 101.821C346.361 105.708 349.326 109.595 352.293 113.481L352.929 112.995C349.962 109.11 346.997 105.223 344.031 101.336C341.066 97.4494 338.1 93.5626 335.134 89.6769L334.498 90.1624ZM352.293 113.48C352.838 114.196 353.285 115.222 353.376 116.095C353.422 116.53 353.375 116.889 353.246 117.147C353.126 117.387 352.922 117.569 352.567 117.649L352.743 118.43C353.326 118.298 353.732 117.965 353.962 117.504C354.183 117.061 354.226 116.532 354.172 116.011C354.063 114.971 353.549 113.809 352.929 112.995L352.293 113.48ZM352.569 117.649C352.073 117.758 351.532 117.52 350.926 117.185L350.539 117.886C351.116 118.204 351.912 118.613 352.741 118.43L352.569 117.649ZM350.924 117.184C349.636 116.484 348.187 115.645 346.575 115.609L346.557 116.409C347.935 116.44 349.2 117.158 350.541 117.887L350.924 117.184ZM346.575 115.609C345.739 115.591 344.869 115.865 344.195 116.354C343.519 116.845 343.008 117.578 342.977 118.479L343.776 118.508C343.797 117.913 344.133 117.388 344.665 117.002C345.199 116.614 345.897 116.394 346.557 116.409L346.575 115.609ZM343.246 118.872C345.892 119.783 348.539 120.696 351.185 121.61C353.832 122.523 356.479 123.436 359.125 124.348L359.386 123.591C356.739 122.68 354.093 121.767 351.446 120.853C348.8 119.94 346.153 119.027 343.507 118.115L343.246 118.872ZM359.125 124.348C360.748 124.907 362.325 125.493 363.292 126.713L363.919 126.216C362.784 124.784 360.969 124.137 359.386 123.591L359.125 124.348ZM363.292 126.713C364.141 127.787 364.422 129.24 364.444 130.711L365.244 130.699C365.22 129.16 364.93 127.495 363.919 126.217L363.292 126.713ZM364.444 130.711C364.535 137.135 359.693 143.308 353.436 144.75L353.616 145.529C360.24 144.003 365.34 137.5 365.244 130.7L364.444 130.711ZM353.922 145.083C353.621 142.967 352.121 141.262 350.273 140.338C348.425 139.414 346.162 139.237 344.288 140.266L344.673 140.967C346.267 140.092 348.247 140.219 349.916 141.053C351.584 141.887 352.873 143.395 353.13 145.196L353.922 145.083ZM344.288 140.266C342.687 141.146 341.623 142.565 340.713 144.064C339.784 145.595 339.042 147.151 338.028 148.511L338.669 148.99C339.709 147.595 340.527 145.912 341.397 144.479C342.287 143.013 343.261 141.743 344.673 140.967L344.288 140.266ZM338.027 148.512C337.443 149.3 336.59 149.976 335.645 150.45L336.004 151.165C337.041 150.645 337.999 149.894 338.67 148.989L338.027 148.512ZM335.635 151.16C338.296 152.592 341.92 152.326 344.174 150.199L343.625 149.617C341.65 151.48 338.407 151.744 336.014 150.455L335.635 151.16ZM344.174 150.199C344.874 149.538 345.701 148.758 346.492 148.314C346.886 148.093 347.23 147.979 347.518 147.979C347.781 147.979 348.025 148.075 348.252 148.351L348.87 147.843C348.494 147.387 348.027 147.18 347.519 147.179C347.035 147.178 346.548 147.365 346.1 147.616C345.206 148.119 344.304 148.976 343.625 149.617L344.174 150.199ZM348.252 148.351C348.405 148.538 348.493 148.777 348.548 149.076C348.606 149.389 348.618 149.697 348.656 150.065L349.452 149.982C349.42 149.678 349.4 149.283 349.335 148.931C349.268 148.565 349.144 148.177 348.87 147.843L348.252 148.351ZM348.656 150.065C348.918 152.584 350.682 154.627 352.873 155.719C355.063 156.811 357.757 156.991 359.928 155.686L359.516 155.001C357.633 156.133 355.237 156.004 353.229 155.003C351.222 154.002 349.679 152.167 349.452 149.982L348.656 150.065ZM359.928 155.686C361.795 154.563 363.052 152.699 364.197 150.981L363.531 150.538C362.369 152.281 361.204 153.985 359.515 155.001L359.928 155.686ZM364.197 150.981C365.985 148.301 367.77 145.626 369.555 142.95L368.89 142.506C367.104 145.182 365.319 147.857 363.531 150.537L364.197 150.981ZM369.555 142.95C371.155 140.551 372.811 137.968 373.952 135.263C375.095 132.554 375.732 129.698 375.269 126.751L374.479 126.876C374.911 129.626 374.323 132.327 373.215 134.952C372.107 137.58 370.489 140.107 368.889 142.506L369.555 142.95ZM375.269 126.752C374.714 123.218 372.731 120.362 370.393 117.735C369.224 116.422 367.952 115.152 366.719 113.884C365.481 112.612 364.277 111.337 363.219 109.997L362.591 110.493C363.676 111.868 364.905 113.167 366.145 114.442C367.39 115.721 368.642 116.972 369.795 118.267C372.101 120.858 373.96 123.571 374.479 126.876L375.269 126.752ZM363.219 109.997C360.898 107.057 359.23 103.313 360.221 99.8617L359.452 99.6408C358.352 103.47 360.22 107.488 362.591 110.493L363.219 109.997ZM360.221 99.862C360.461 99.0299 360.847 98.2447 361.265 97.4317C361.678 96.6291 362.124 95.7936 362.443 94.9053L361.69 94.6351C361.393 95.4625 360.976 96.2439 360.554 97.0661C360.136 97.8779 359.716 98.7254 359.452 99.6406L360.221 99.862ZM362.443 94.9055C363.46 92.0741 363.103 88.9725 362.671 86.1149L361.88 86.2342C362.313 89.1041 362.631 92.0165 361.69 94.6349L362.443 94.9055ZM362.671 86.1151C361.377 77.5042 359.351 69.005 356.626 60.7311L355.866 60.9814C358.577 69.2126 360.592 77.6679 361.88 86.234L362.671 86.1151ZM356.626 60.7311C355.408 57.034 353.783 50.7991 351.626 45.0695C350.543 42.1954 349.318 39.4201 347.924 37.1155C346.535 34.8177 344.957 32.9485 343.151 31.9351L342.76 32.6327C344.387 33.5464 345.878 35.2773 347.24 37.5294C348.597 39.7747 349.803 42.4992 350.877 45.3514C353.032 51.0745 354.62 57.1987 355.866 60.9814L356.626 60.7311ZM343.152 31.9352C340.81 30.619 338.318 30.473 335.792 30.8895C333.276 31.3042 330.69 32.2833 328.15 33.2461C325.592 34.2154 323.08 35.1685 320.649 35.5798C318.228 35.9893 315.925 35.8546 313.776 34.6775L313.391 35.3791C315.748 36.6698 318.25 36.7971 320.782 36.3685C323.305 35.9418 325.893 34.9569 328.433 33.9942C330.991 33.025 333.499 32.0782 335.922 31.6788C338.334 31.2812 340.625 31.433 342.76 32.6326L343.152 31.9352ZM313.776 34.6774C308.954 32.0391 305.889 27.5909 303.211 22.5973C300.552 17.6386 298.253 12.0858 295.002 7.46659L294.348 7.92708C297.564 12.497 299.792 17.9138 302.506 22.9754C305.202 28.0022 308.358 32.6251 313.392 35.3792L313.776 34.6774ZM295.001 7.46622C293.958 5.9868 292.647 4.51204 291.13 3.45489C289.611 2.39631 287.863 1.74185 285.965 1.95421L286.054 2.74925C287.703 2.56478 289.259 3.12631 290.672 4.11122C292.088 5.09755 293.336 6.49375 294.348 7.92745L295.001 7.46622ZM285.966 1.95417C283.724 2.20309 281.84 3.62853 280.174 4.90828L280.661 5.5427C282.36 4.23804 284.07 2.96954 286.054 2.74929L285.966 1.95417ZM280.174 4.90846C278.883 5.9011 277.594 6.89555 276.304 7.88986C275.014 8.88421 273.725 9.87841 272.435 10.8707L272.923 11.5048C274.213 10.5122 275.503 9.51772 276.792 8.52341C278.082 7.52906 279.372 6.53487 280.661 5.54253L280.174 4.90846ZM272.29 11.2804L272.291 11.2877L273.07 11.1026L273.068 11.0952L272.29 11.2804ZM272.7 11.364C273.093 11.7537 273.486 12.1422 273.879 12.5303C274.273 12.9186 274.665 13.3064 275.057 13.6953L275.621 13.1274C275.228 12.7377 274.835 12.3492 274.442 11.9611C274.048 11.5729 273.656 11.185 273.264 10.7961L272.7 11.364ZM275.058 13.6958C275.499 14.1325 276.023 14.6134 276.604 14.9497C277.189 15.2882 277.868 15.5005 278.601 15.3426L278.432 14.5606C277.961 14.6621 277.489 14.5373 277.005 14.2573C276.518 13.9752 276.054 13.5562 275.62 13.127L275.058 13.6958ZM278.601 15.3426C279.432 15.1635 279.986 14.5867 280.427 13.9948C280.647 13.6995 280.856 13.3756 281.054 13.0826C281.257 12.7823 281.454 12.5047 281.67 12.265L281.075 11.7304C280.82 12.0133 280.598 12.3293 280.391 12.6347C280.18 12.9474 279.991 13.2413 279.785 13.5169C279.376 14.0669 278.971 14.4445 278.432 14.5606L278.601 15.3426ZM281.67 12.2653C282.53 11.3085 283.817 10.9321 285.158 11.0518C286.501 11.1716 287.853 11.7875 288.786 12.7506L289.36 12.1939C288.286 11.085 286.752 10.3908 285.229 10.255C283.705 10.1189 282.145 10.5413 281.075 11.7302L281.67 12.2653ZM288.786 12.7511C290.691 14.71 291.305 17.6324 291.463 20.4886L292.262 20.4444C292.101 17.5443 291.475 14.3693 289.36 12.1934L288.786 12.7511ZM291.463 20.4888C292.098 31.8737 286.5 43.4228 277.168 49.9729L277.627 50.6277C287.186 43.9187 292.912 32.1051 292.262 20.4443L291.463 20.4888ZM277.045 50.4897C277.639 51.5938 278.773 51.8711 279.879 51.7565C280.983 51.6421 282.16 51.1375 283.052 50.5421L282.609 49.8765C281.794 50.4196 280.74 50.863 279.797 50.9608C278.856 51.0583 278.127 50.8117 277.75 50.1109L277.045 50.4897ZM283.052 50.5423C290.456 45.6126 295.9 37.813 297.964 29.1576L297.186 28.972C295.168 37.4304 289.845 45.0586 282.609 49.8764L283.052 50.5423ZM297.345 29.3921C300.995 31.9581 303.534 36.0585 304.2 40.4714L304.991 40.3521C304.292 35.7228 301.634 31.4291 297.805 28.7376L297.345 29.3921ZM304.2 40.4716C304.355 41.4978 304.473 42.7099 304.782 43.7803C305.095 44.863 305.625 45.8847 306.661 46.5119L307.075 45.8275C306.284 45.3484 305.837 44.549 305.551 43.5582C305.261 42.555 305.156 41.4413 304.991 40.3519L304.2 40.4716ZM306.662 46.5123C307.782 47.1875 309.152 47.1476 310.292 47.1407L310.288 46.3407C309.08 46.348 307.964 46.3631 307.075 45.8272L306.662 46.5123ZM310.293 47.1407C317.844 47.0814 326.041 49.0804 330.189 55.182L330.85 54.7322C326.47 48.2886 317.914 46.2809 310.287 46.3407L310.293 47.1407ZM330.188 55.1819C331.8 57.5541 332.645 60.3126 333.438 63.1717C334.226 66.011 334.966 68.9591 336.385 71.5979L337.09 71.2191C335.723 68.6775 335.007 65.8327 334.209 62.9578C333.417 60.1027 332.545 57.2256 330.85 54.7323L330.188 55.1819ZM336.385 71.598C336.894 72.5442 337.651 73.5135 338.554 74.1605C339.46 74.8094 340.56 75.1625 341.698 74.7548L341.428 74.0017C340.621 74.2907 339.797 74.0665 339.02 73.5102C338.241 72.9519 337.557 72.088 337.09 71.2189L336.385 71.598ZM341.698 74.7548C343.029 74.2783 343.624 73.1001 343.822 71.8253C344.02 70.5538 343.842 69.105 343.56 67.9043L342.781 68.087C343.052 69.2389 343.207 70.5741 343.031 71.7023C342.856 72.827 342.372 73.6638 341.428 74.0016L341.698 74.7548ZM343.56 67.9046C343.091 65.8985 342.623 63.8932 342.154 61.8877C341.686 59.8823 341.218 57.8768 340.749 55.8705L339.97 56.0528C340.439 58.0588 340.907 60.0642 341.375 62.0696C341.844 64.075 342.312 66.0806 342.781 68.0868L343.56 67.9046ZM340.749 55.8712C340.591 55.1937 340.485 54.4463 340.556 53.8016C340.627 53.1611 340.862 52.6877 341.329 52.4326L340.946 51.7305C340.162 52.1587 339.847 52.9318 339.761 53.7138C339.675 54.4916 339.805 55.3425 339.969 56.0522L340.749 55.8712ZM341.329 52.4327C341.871 52.137 342.459 52.2651 343.075 52.7162C343.693 53.1687 344.257 53.897 344.65 54.5967L345.347 54.2055C344.921 53.4455 344.289 52.6134 343.548 52.0708C342.805 51.5267 341.872 51.2248 340.946 51.7305L341.329 52.4327ZM344.649 54.5964C348.741 61.9097 351.717 69.8451 353.44 78.0479L354.223 77.8835C352.483 69.6013 349.478 61.5896 345.348 54.2058L344.649 54.5964ZM353.44 78.0481C353.887 80.1728 354.145 82.5335 353.854 84.6518C353.563 86.7668 352.732 88.5968 351.04 89.7426L351.489 90.405C353.432 89.0888 354.337 87.0113 354.646 84.7609C354.955 82.5139 354.679 80.0516 354.223 77.8832L353.44 78.0481ZM351.04 89.7427C348.908 91.1873 346.387 90.9509 343.601 90.3923C342.233 90.1181 340.78 89.7619 339.36 89.5331C337.928 89.3025 336.477 89.1907 335.057 89.4092L335.178 90.1999C336.481 89.9995 337.839 90.0984 339.233 90.3229C340.637 90.5492 342.025 90.8924 343.443 91.1767C346.229 91.7352 349.058 92.0523 351.489 90.4049L351.04 89.7427ZM334.799 90.0473C337.766 93.9328 340.731 97.8195 343.697 101.706C346.662 105.593 349.628 109.48 352.594 113.365L353.23 112.88C350.264 108.994 347.298 105.108 344.333 101.221C341.367 97.3343 338.402 93.4475 335.435 89.5619L334.799 90.0473ZM352.594 113.365C353.139 114.08 353.586 115.107 353.677 115.98C353.723 116.415 353.676 116.774 353.547 117.032C353.428 117.272 353.224 117.454 352.868 117.534L353.044 118.314C353.628 118.183 354.033 117.85 354.263 117.389C354.484 116.946 354.528 116.417 354.473 115.896C354.364 114.856 353.851 113.694 353.23 112.88L352.594 113.365ZM352.87 117.534C352.375 117.643 351.834 117.405 351.227 117.07L350.841 117.771C351.417 118.089 352.214 118.498 353.042 118.315L352.87 117.534ZM351.225 117.069C349.938 116.369 348.488 115.53 346.876 115.494L346.858 116.294C348.236 116.325 349.501 117.042 350.843 117.772L351.225 117.069ZM346.876 115.494C346.04 115.476 345.171 115.75 344.497 116.239C343.821 116.73 343.31 117.463 343.278 118.364L344.077 118.393C344.099 117.798 344.435 117.272 344.967 116.887C345.5 116.499 346.199 116.279 346.858 116.294L346.876 115.494ZM343.547 118.757C346.194 119.668 348.84 120.581 351.487 121.495C354.133 122.408 356.78 123.321 359.426 124.233L359.687 123.476C357.041 122.565 354.394 121.652 351.748 120.738C349.101 119.825 346.454 118.912 343.808 118L343.547 118.757ZM359.426 124.233C361.049 124.792 362.627 125.378 363.594 126.598L364.221 126.101C363.085 124.668 361.271 124.022 359.687 123.476L359.426 124.233ZM363.593 126.598C364.443 127.672 364.723 129.125 364.746 130.596L365.545 130.584C365.522 129.045 365.231 127.38 364.221 126.101L363.593 126.598ZM364.746 130.596C364.836 137.019 359.995 143.193 353.737 144.634L353.917 145.414C360.542 143.888 365.641 137.385 365.545 130.585L364.746 130.596ZM354.223 144.968C353.922 142.852 352.423 141.147 350.575 140.223C348.727 139.298 346.463 139.122 344.589 140.151L344.975 140.852C346.569 139.977 348.549 140.104 350.217 140.938C351.885 141.772 353.175 143.28 353.431 145.081L354.223 144.968ZM344.589 140.151C342.989 141.031 341.924 142.45 341.015 143.949C340.085 145.48 339.344 147.036 338.329 148.396L338.971 148.874C340.011 147.48 340.829 145.797 341.698 144.364C342.588 142.898 343.563 141.628 344.975 140.852L344.589 140.151ZM338.329 148.397C337.744 149.185 336.892 149.861 335.947 150.335L336.305 151.05C337.343 150.53 338.3 149.778 338.971 148.874L338.329 148.397ZM335.936 151.045C338.597 152.477 342.221 152.211 344.475 150.084L343.926 149.502C341.951 151.365 338.709 151.629 336.315 150.34L335.936 151.045ZM344.475 150.084C345.176 149.423 346.002 148.643 346.793 148.199C347.187 147.978 347.532 147.864 347.819 147.864C348.083 147.864 348.326 147.96 348.553 148.236L349.171 147.728C348.796 147.272 348.328 147.065 347.82 147.064C347.336 147.063 346.85 147.249 346.401 147.501C345.507 148.003 344.606 148.861 343.926 149.502L344.475 150.084ZM348.553 148.236C348.707 148.423 348.795 148.662 348.849 148.961C348.907 149.274 348.919 149.582 348.958 149.95L349.753 149.867C349.722 149.563 349.701 149.168 349.636 148.816C349.569 148.45 349.445 148.062 349.171 147.728L348.553 148.236ZM348.958 149.95C349.219 152.469 350.983 154.512 353.174 155.604C355.365 156.696 358.059 156.876 360.229 155.571L359.817 154.885C357.934 156.017 355.539 155.889 353.531 154.888C351.523 153.887 349.98 152.052 349.753 149.867L348.958 149.95ZM360.229 155.571C362.096 154.448 363.353 152.584 364.498 150.866L363.832 150.423C362.671 152.166 361.505 153.87 359.817 154.886L360.229 155.571ZM364.498 150.866C366.286 148.186 368.071 145.511 369.856 142.835L369.191 142.391C367.406 145.067 365.621 147.742 363.833 150.422L364.498 150.866ZM369.857 142.835C371.456 140.435 373.113 137.853 374.254 135.148C375.396 132.439 376.034 129.583 375.571 126.636L374.78 126.761C375.213 129.511 374.624 132.212 373.517 134.837C372.408 137.465 370.791 139.992 369.191 142.391L369.857 142.835ZM375.571 126.636C375.016 123.103 373.033 120.247 370.694 117.62C369.525 116.307 368.254 115.037 367.02 113.769C365.782 112.497 364.578 111.222 363.52 109.882L362.892 110.377C363.978 111.752 365.207 113.052 366.447 114.327C367.692 115.606 368.943 116.857 370.097 118.152C372.403 120.743 374.261 123.456 374.78 126.761L375.571 126.636ZM363.52 109.882C361.2 106.942 359.531 103.198 360.523 99.7466L359.754 99.5257C358.654 103.355 360.521 107.373 362.892 110.377L363.52 109.882ZM360.523 99.7469C360.762 98.9148 361.149 98.1296 361.566 97.3167C361.979 96.5141 362.425 95.6785 362.744 94.7903L361.991 94.52C361.694 95.3475 361.277 96.1288 360.855 96.951C360.438 97.7629 360.017 98.6103 359.754 99.5255L360.523 99.7469ZM362.744 94.7904C363.762 91.959 363.404 88.8575 362.973 85.9998L362.182 86.1191C362.615 88.9891 362.932 91.9014 361.991 94.5199L362.744 94.7904ZM362.973 86C361.678 77.3891 359.652 68.89 356.927 60.616L356.167 60.8663C358.879 69.0976 360.894 77.5528 362.182 86.119L362.973 86ZM356.927 60.616C355.709 56.9189 354.084 50.684 351.927 44.9544C350.845 42.0803 349.619 39.305 348.226 37.0004C346.837 34.7026 345.258 32.8334 343.453 31.82L343.061 32.5176C344.689 33.4313 346.18 35.1622 347.541 37.4143C348.898 39.6596 350.104 42.3841 351.178 45.2363C353.333 50.9594 354.921 57.0836 356.167 60.8664L356.927 60.616ZM343.453 31.8201C341.111 30.5039 338.62 30.3579 336.093 30.7744C333.577 31.1891 330.992 32.1682 328.451 33.131C325.894 34.1004 323.381 35.0534 320.95 35.4647C318.53 35.8742 316.226 35.7395 314.077 34.5624L313.693 35.2641C316.049 36.5547 318.551 36.682 321.084 36.2535C323.606 35.8267 326.195 34.8418 328.735 33.8791C331.292 32.9099 333.801 31.9631 336.223 31.5637C338.635 31.1661 340.927 31.318 343.061 32.5175L343.453 31.8201ZM314.077 34.5623C309.255 31.924 306.191 27.4758 303.513 22.4823C300.854 17.5235 298.555 11.9707 295.303 7.35151L294.649 7.81199C297.866 12.382 300.093 17.7987 302.808 22.8603C305.503 27.8871 308.659 32.51 313.693 35.2641L314.077 34.5623ZM295.303 7.35113C294.259 5.87172 292.948 4.39696 291.431 3.33981C289.912 2.28123 288.164 1.62677 286.267 1.83913L286.356 2.63416C288.004 2.44969 289.561 3.01123 290.974 3.99613C292.389 4.98246 293.638 6.37867 294.649 7.81237L295.303 7.35113ZM286.267 1.83909C284.025 2.088 282.141 3.51345 280.475 4.7932L280.963 5.42761C282.661 4.12296 284.372 2.85446 286.355 2.6342L286.267 1.83909ZM280.475 4.79337C279.185 5.78601 277.895 6.78047 276.605 7.77478C275.316 8.76913 274.026 9.76332 272.736 10.7557L273.224 11.3897C274.514 10.3971 275.804 9.40264 277.094 8.40833C278.383 7.41398 279.673 6.41978 280.963 5.42744L280.475 4.79337ZM272.591 11.1653L272.593 11.1727L273.371 10.9875L273.369 10.9801L272.591 11.1653Z" fill="#182136" mask="url(#path-35-inside-1_7115_11760)"/>
<path d="M31.8638 92.3839L0.677001 146.594C-3.52947 153.883 -0.994971 163.268 6.28828 167.472C6.68073 167.679 6.7948 168.157 6.58729 168.55L1.10562 178.049C-0.43488 180.741 0.507449 184.193 3.16467 185.724L12.6333 191.162C15.3227 192.701 18.7747 191.756 20.3067 189.097L25.7883 179.598C25.9959 179.205 26.4737 179.091 26.8662 179.298L27.2586 179.505C34.5418 183.709 43.9252 181.168 48.1317 173.879L78.8135 120.534C78.8135 120.534 78.9291 120.358 79.0512 120.287C80.2742 119.44 81.3233 118.34 82.1021 116.962L88.0651 106.557C92.8685 98.1871 89.9747 87.4321 81.6105 82.632C78.0247 80.5794 73.2365 80.7223 69.8885 82.8313C69.3424 83.2032 68.6303 82.7733 68.664 82.1278C68.8914 78.1585 66.7008 73.9616 63.115 71.909C54.7509 67.1089 43.9983 70.0105 39.1949 78.3809L33.2319 88.7858C32.6028 89.859 32.2225 91.0325 32.0201 92.1843C31.9944 92.2809 31.9774 92.3452 31.9517 92.4417L31.8638 92.3839Z" fill="#2B3B64"/>
<mask id="mask0_7115_11760" style="mask-type:luminance" maskUnits="userSpaceOnUse" x="-2" y="69" width="93" height="123">
<path d="M31.8652 92.3864L0.676751 146.6C-3.52995 153.889 -0.996293 163.274 6.28614 167.478C6.67855 167.685 6.79258 168.163 6.58506 168.556L1.10309 178.056C-0.43749 180.747 0.504526 184.2 3.16145 185.731L12.629 191.167C15.3181 192.707 18.77 191.762 20.302 189.102L25.784 179.602C25.9915 179.21 26.4693 179.095 26.8617 179.302L27.2541 179.51C34.5365 183.713 43.9194 181.171 48.1261 173.882L78.8096 120.533C78.8096 120.533 78.9252 120.357 79.0473 120.286C80.2702 119.439 81.3193 118.34 82.0982 116.962L88.0616 106.556C92.8652 98.1853 89.9723 87.4303 81.6091 82.6307C78.0237 80.5784 73.2358 80.7216 69.8879 82.8309C69.3418 83.2028 68.6298 82.7729 68.6635 82.1275C68.8912 78.158 66.7011 73.9612 63.1157 71.9088C54.7525 67.1092 44.0004 70.0117 39.1968 78.3825L33.2335 88.7881C32.6044 89.8613 32.224 91.035 32.0215 92.1868C31.9958 92.2833 31.9788 92.3476 31.9531 92.4442L31.8652 92.3864Z" fill="white"/>
</mask>
<g mask="url(#mask0_7115_11760)">
<path d="M8.65686 120.044L69.1201 154.812L86.7391 124.184L26.2758 89.4166L8.65686 120.044Z" fill="#2B3B64" stroke="#182136" stroke-width="0.989691" stroke-linecap="round" stroke-linejoin="round"/>
</g>
<path d="M31.8638 92.3839L0.676996 146.594C-3.52948 153.883 -0.994971 163.268 6.28828 167.472C6.68073 167.679 6.7948 168.157 6.58729 168.55L1.10562 178.049C-0.434879 180.741 0.507448 184.193 3.16467 185.724L12.6333 191.162C15.3227 192.701 18.7747 191.756 20.3067 189.097L25.7883 179.598C25.9959 179.205 26.4737 179.091 26.8662 179.298L27.2586 179.505C34.5418 183.709 43.9252 181.168 48.1317 173.879L78.8135 120.534C78.8135 120.534 78.9291 120.358 79.0512 120.287C80.2742 119.44 81.3233 118.34 82.1021 116.962L88.0651 106.557C92.8685 98.1871 89.9747 87.4321 81.6105 82.632C78.0247 80.5794 73.2365 80.7223 69.8885 82.8313C69.3424 83.2032 68.6303 82.7733 68.6639 82.1278C68.8914 78.1585 66.7008 73.9616 63.115 71.909C54.7509 67.1089 43.9983 70.0105 39.1949 78.3809L33.2319 88.7858C32.6028 89.859 32.2225 91.0326 32.0201 92.1843C31.9944 92.2809 31.9774 92.3452 31.9517 92.4417L31.8638 92.3839Z" fill="#2B3B64" stroke="#182136" stroke-width="0.989691" stroke-linecap="round" stroke-linejoin="round"/>
<path d="M8.31609 195.616L1.65194 191.783C-3.62747 188.747 -5.45227 181.975 -2.41405 176.693L-0.0897488 172.652L25.7303 187.501L23.406 191.541C20.3678 196.823 13.5955 198.652 8.31609 195.616Z" fill="#2B3B64" stroke="#182136" stroke-width="0.989691" stroke-linecap="round" stroke-linejoin="round"/>
<path d="M231.727 326.639L208.377 282.513C205.244 276.571 197.823 274.292 191.881 277.425C191.574 277.602 191.202 277.476 191.025 277.169L186.941 269.425C185.778 267.24 183.044 266.408 180.878 267.552L173.172 271.637C170.987 272.799 170.156 275.534 171.3 277.7L175.385 285.443C175.562 285.751 175.436 286.122 175.128 286.299L174.821 286.476C168.88 289.609 166.601 297.03 169.735 302.972L192.716 346.389C192.716 346.389 192.785 346.542 192.781 346.655C192.833 347.841 193.129 349.018 193.728 350.13L198.22 358.584C201.83 365.389 210.33 368.008 217.134 364.398C220.048 362.848 221.99 359.552 221.991 356.394C221.972 355.866 222.566 355.568 222.988 355.865C225.573 357.707 229.341 358.012 232.255 356.462C239.06 352.852 241.678 344.353 238.067 337.548L233.576 329.094C233.119 328.213 232.488 327.457 231.796 326.83C231.741 326.772 231.705 326.733 231.651 326.674L231.727 326.639Z" fill="#2B3B64"/>
<mask id="mask1_7115_11760" style="mask-type:luminance" maskUnits="userSpaceOnUse" x="168" y="267" width="72" height="100">
<path d="M231.726 326.636L208.376 282.509C205.242 276.567 197.821 274.288 191.88 277.422C191.573 277.598 191.201 277.472 191.024 277.165L186.94 269.421C185.777 267.236 183.043 266.404 180.877 267.548L173.171 271.633C170.986 272.796 170.154 275.53 171.299 277.696L175.383 285.44C175.56 285.747 175.434 286.118 175.127 286.295L174.82 286.472C168.878 289.606 166.6 297.026 169.734 302.968L192.714 346.386C192.714 346.386 192.784 346.539 192.78 346.651C192.831 347.838 193.128 349.014 193.727 350.126L198.219 358.58C201.829 365.386 210.328 368.004 217.133 364.395C220.047 362.845 221.989 359.549 221.99 356.39C221.971 355.863 222.565 355.564 222.986 355.862C225.572 357.703 229.34 358.008 232.254 356.459C239.059 352.849 241.677 344.35 238.066 337.544L233.575 329.09C233.117 328.209 232.486 327.453 231.794 326.826C231.74 326.768 231.704 326.729 231.65 326.671L231.726 326.636Z" fill="white"/>
</mask>
<g mask="url(#mask1_7115_11760)">
<path d="M222.915 299.204L173.685 325.26L186.876 350.182L236.106 324.126L222.915 299.204Z" fill="#2B3B64" stroke="#182136" stroke-width="0.989691" stroke-linecap="round" stroke-linejoin="round"/>
</g>
<path d="M231.727 326.639L208.377 282.513C205.244 276.571 197.823 274.292 191.881 277.425C191.574 277.602 191.202 277.476 191.025 277.169L186.941 269.425C185.778 267.24 183.044 266.408 180.878 267.552L173.172 271.637C170.987 272.799 170.156 275.534 171.3 277.7L175.385 285.443C175.562 285.751 175.436 286.122 175.128 286.299L174.821 286.476C168.88 289.609 166.601 297.03 169.735 302.972L192.716 346.389C192.716 346.389 192.785 346.542 192.781 346.655C192.833 347.841 193.129 349.018 193.728 350.13L198.22 358.584C201.83 365.389 210.33 368.008 217.134 364.398C220.048 362.848 221.99 359.552 221.991 356.394C221.972 355.866 222.566 355.568 222.988 355.865C225.573 357.707 229.341 358.012 232.255 356.462C239.06 352.852 241.678 344.353 238.067 337.548L233.576 329.094C233.119 328.213 232.488 327.457 231.796 326.83C231.741 326.772 231.705 326.733 231.651 326.674L231.727 326.639Z" fill="#2B3B64" stroke="#182136" stroke-width="0.989691" stroke-linecap="round" stroke-linejoin="round"/>
<path d="M171.997 266.815L177.422 263.943C181.721 261.668 187.073 263.316 189.348 267.614L191.089 270.903L170.067 282.029L168.326 278.741C166.051 274.442 167.698 269.09 171.997 266.815Z" fill="#2B3B64" stroke="#182136" stroke-width="0.989691" stroke-linecap="round" stroke-linejoin="round"/>
</g>
<defs>
<clipPath id="clip0_7115_11760">
<rect width="376.082" height="351" fill="white"/>
</clipPath>
</defs>
</svg>
