<svg width="420" height="421" viewBox="0 0 420 421" fill="none" xmlns="http://www.w3.org/2000/svg">
<g clip-path="url(#clip0_5102_3987)">
<path d="M31.6828 328.416C31.6828 328.416 16.5689 333.143 13.387 333.771C10.1866 334.399 0.326522 331.832 0.0305335 335.692C-0.265455 339.551 5.70981 342.95 15.1999 346.754C24.6901 350.558 35.1051 353.698 42.1719 353.365C49.2386 353.033 47.8881 339.145 48.2766 336.781C48.6651 334.399 31.7013 328.416 31.7013 328.416H31.6828Z" fill="#182136" stroke="#2B3B64" stroke-width="0.812436" stroke-linecap="round" stroke-linejoin="round"/>
<path d="M20.1382 343.319C8.29867 338.444 2.80439 335.914 0.399487 334.732C0.195995 334.99 0.0480008 335.304 0.0110022 335.692C-0.284986 339.552 5.69028 342.95 15.1804 346.754C24.6705 350.559 35.0856 353.698 42.1523 353.366C44.7792 353.236 46.2592 351.224 47.0731 348.638C41.2829 348.73 31.4782 347.973 20.1382 343.319Z" fill="#182136" stroke="#2B3B64" stroke-width="0.812436" stroke-linecap="round" stroke-linejoin="round"/>
<path d="M123.532 186.809L119.573 188.969V194.713C119.573 194.713 37.0111 208.453 35.9381 215.637C34.8652 222.82 31.5908 329.692 31.5908 329.692C31.5908 329.692 44.9103 344.005 47.7777 340.773C50.6636 337.541 51.385 327.181 51.385 327.181L65.093 232.516C65.093 232.516 158.089 241.048 172.111 236.727C186.152 232.424 192.978 213.734 193.348 205.11C193.7 196.486 193.7 192.534 193.7 192.534L130.377 183.909L123.532 186.79V186.809Z" fill="#182136" stroke="#2B3B64" stroke-width="0.812436" stroke-linecap="round" stroke-linejoin="round"/>
<path d="M95.4673 332.276C95.4673 332.276 95.2638 332.627 94.8753 333.254C93.4324 335.563 89.5105 341.546 84.6822 346.644C78.559 353.107 68.4954 358.5 68.8469 360.66C69.1983 362.821 76.0431 364.243 99.4261 357.078C109.952 353.846 117.777 353.846 118.85 350.245C119.923 346.662 111.303 331.205 111.303 331.205L95.4673 332.276Z" fill="#182136" stroke="#2B3B64" stroke-width="0.812436" stroke-linecap="round" stroke-linejoin="round"/>
<path d="M118.85 350.226C119.146 349.247 118.702 347.364 117.925 345.166C113.449 347.327 104.828 351.076 93.3028 354.178C82.9617 356.967 74.8591 358.223 69.9753 358.777C69.1983 359.534 68.7543 360.18 68.8283 360.642C69.1798 362.803 76.0245 364.225 99.4076 357.059C109.934 353.827 117.759 353.827 118.832 350.226H118.85Z" fill="#182136" stroke="#2B3B64" stroke-width="0.812436" stroke-linecap="round" stroke-linejoin="round"/>
<path d="M146.191 202.247C146.191 202.247 137.552 194.713 136.83 199.015C136.109 203.318 134.666 204.408 134.666 204.408C134.666 204.408 74.2288 211.592 67.384 215.895C60.5393 220.198 58.3934 225.96 62.3522 234.566C66.3111 243.19 92.9315 337.652 92.9315 337.652C92.9315 337.652 97.6118 339.813 101.571 340.533C105.53 341.253 113.799 337.301 113.799 337.301C113.799 337.301 112.8 319.701 110.284 313.958C107.768 308.214 97.4638 241.953 97.4638 241.953C97.4638 241.953 141.159 242.119 155.903 242.119C170.647 242.119 186.852 229.912 190.09 219.847C193.327 209.782 191.884 207.64 191.884 207.64" fill="#182136"/>
<path d="M146.191 202.247C146.191 202.247 137.552 194.713 136.83 199.015C136.109 203.318 134.666 204.408 134.666 204.408C134.666 204.408 74.2288 211.592 67.384 215.895C60.5393 220.198 58.3934 225.96 62.3522 234.566C66.3111 243.19 92.9315 337.652 92.9315 337.652C92.9315 337.652 97.6118 339.813 101.571 340.533C105.53 341.253 113.799 337.301 113.799 337.301C113.799 337.301 112.8 319.701 110.284 313.958C107.768 308.214 97.4638 241.953 97.4638 241.953C97.4638 241.953 141.159 242.119 155.903 242.119C170.647 242.119 186.852 229.912 190.09 219.847C193.327 209.782 191.884 207.64 191.884 207.64" stroke="#2B3B64" stroke-width="0.812436" stroke-linecap="round" stroke-linejoin="round"/>
<path d="M97.482 241.951L95.3916 230.648" stroke="#2B3B64" stroke-width="0.812436" stroke-linecap="round" stroke-linejoin="round"/>
<path d="M166.169 218.129C167.279 219.718 168.241 221.454 168.962 223.356L166.169 218.129Z" fill="#182136"/>
<path d="M166.169 218.129C167.279 219.718 168.241 221.454 168.962 223.356" stroke="#2B3B64" stroke-width="0.812436" stroke-linecap="round" stroke-linejoin="round"/>
<path d="M149.726 205.663C149.726 205.663 157.81 208.728 163.859 215.266L149.726 205.663Z" fill="#182136"/>
<path d="M149.726 205.663C149.726 205.663 157.81 208.728 163.859 215.266" stroke="#2B3B64" stroke-width="0.812436" stroke-linecap="round" stroke-linejoin="round"/>
<path d="M163.396 207.675C163.396 207.675 171.998 211.221 176.567 219.809L163.396 207.675Z" fill="#182136"/>
<path d="M163.396 207.675C163.396 207.675 171.998 211.221 176.567 219.809" stroke="#2B3B64" stroke-width="0.812436" stroke-linecap="round" stroke-linejoin="round"/>
<path d="M124.417 98.6631C124.417 98.6631 124.38 99.1618 124.325 100.067C124.01 105.127 118.386 112.699 121.735 122.154C129.375 143.65 127.821 159.44 127.137 154.842C128.21 162.026 121.735 177.464 121.735 182.506C121.735 187.548 108.415 188.286 138.643 197.28C168.871 206.255 179.305 205.868 186.852 202.987C194.4 200.106 199.802 197.594 200.523 191.5C201.245 185.405 194.77 174.62 194.4 165.276C194.048 155.931 192.772 126.697 183.763 108.026C174.772 89.3555 151.019 76.4097 151.019 76.4097L124.399 98.6816L124.417 98.6631Z" fill="#182136" stroke="#2B3B64" stroke-width="0.812436" stroke-linecap="round" stroke-linejoin="round"/>
<path d="M171.777 169.08C173.349 167.879 174.829 166.679 176.161 165.46L171.777 169.08Z" fill="#182136"/>
<path d="M171.777 169.08C173.349 167.879 174.829 166.679 176.161 165.46" stroke="#2B3B64" stroke-width="0.812436" stroke-linecap="round" stroke-linejoin="round"/>
<path d="M133.851 190.299C133.851 190.299 151.684 182.635 166.021 173.161L133.851 190.299Z" fill="#182136"/>
<path d="M133.851 190.299C133.851 190.299 151.684 182.635 166.021 173.161" stroke="#2B3B64" stroke-width="0.812436" stroke-linecap="round" stroke-linejoin="round"/>
<path d="M145.451 188.23C141.899 189.966 137.108 192.035 132.095 193.346L145.451 188.23Z" fill="#182136"/>
<path d="M145.451 188.23C141.899 189.966 137.108 192.035 132.095 193.346" stroke="#2B3B64" stroke-width="0.812436" stroke-linecap="round" stroke-linejoin="round"/>
<path d="M151.297 185.073C151.297 185.073 150.298 185.701 148.577 186.625L151.297 185.073Z" fill="#182136"/>
<path d="M151.297 185.073C151.297 185.073 150.298 185.701 148.577 186.625" stroke="#2B3B64" stroke-width="0.812436" stroke-linecap="round" stroke-linejoin="round"/>
<path d="M156.272 137.593L165.984 125.737" stroke="#2B3B64" stroke-width="0.812436" stroke-linecap="round" stroke-linejoin="round"/>
<path d="M120.997 19.0124C120.997 19.0124 116.076 24.2203 114.504 27.3229C112.931 30.4254 112.709 32.66 109.971 34.636C107.215 36.5936 101.758 35.3563 101.887 38.5512C102.035 41.7461 105.365 44.7932 105.365 44.7932C105.365 44.7932 102.664 64.295 103.7 67.3976C104.717 70.5001 118.684 71.0726 118.684 71.0726L125.807 94.231L150.966 77.2223L151.632 70.4817C152.242 67.7485 156.756 59.2903 160.493 52.9559C164.23 46.6215 162.565 29.8714 153.555 22.669C144.546 15.4666 132.577 16.2054 128.896 15.9468C125.215 15.6883 120.997 19.0494 120.997 19.0494V19.0124Z" fill="#182136" stroke="#2B3B64" stroke-width="0.812436" stroke-linecap="round" stroke-linejoin="round"/>
<path d="M107.103 48.6157C107.103 48.6157 110.525 52.5493 116.408 50.721L107.103 48.6157Z" fill="#182136"/>
<path d="M107.103 48.6157C107.103 48.6157 110.525 52.5493 116.408 50.721" stroke="#2B3B64" stroke-width="0.812436" stroke-linecap="round" stroke-linejoin="round"/>
<path d="M117.795 36.8703C117.185 38.2923 116.223 39.2342 115.649 38.9941C115.076 38.754 115.113 37.4059 115.723 35.9839C116.334 34.5619 117.296 33.62 117.869 33.8601C118.443 34.1002 118.406 35.4483 117.795 36.8703Z" fill="#182136"/>
<path d="M116.817 29.834C116.817 29.834 122.237 28.7629 123.033 34.1185L116.817 29.834Z" fill="#182136"/>
<path d="M116.817 29.834C116.817 29.834 122.237 28.7629 123.033 34.1185" stroke="#2B3B64" stroke-width="0.812436" stroke-linecap="round" stroke-linejoin="round"/>
<path d="M118.704 71.0536L127.399 70.7212L121.442 77.9974L118.704 71.0536Z" fill="#182136" stroke="#2B3B64" stroke-width="0.812436" stroke-linecap="round" stroke-linejoin="round"/>
<path d="M138.591 62.0416L134.817 60.915L132.579 64.4239" fill="#182136"/>
<path d="M138.591 62.0416L134.817 60.915L132.579 64.4239" stroke="#2B3B64" stroke-width="0.812436" stroke-linecap="round" stroke-linejoin="round"/>
<path d="M136.461 10.4425C136.461 10.4425 141.9 4.20049 135.37 1.28261C128.84 -1.63527 106.622 3.70187 109.027 13.4343C111.432 23.1667 132.151 24.4041 134.13 24.5703C136.11 24.7365 130.172 26.8418 131.799 29.7966C133.427 32.7514 137.405 34.2288 137.553 37.4237C137.701 40.6186 133.834 44.9216 135.721 46.7683C137.608 48.6336 140.531 45.8449 142.418 45.1247C144.305 44.4045 149.466 49.5939 145.396 56.1314C141.327 62.6874 138.589 62.0595 138.589 62.0595C138.589 62.0595 136.831 65.9746 140.457 69.0957C144.083 72.2167 151.464 71.2933 153.314 68.2646C155.146 65.2359 158.364 62.5027 165.024 55.9652C171.684 49.4277 174.847 32.8992 170.241 21.5231C165.635 10.1471 144.823 5.43782 136.498 10.4425H136.461Z" fill="#182136" stroke="#2B3B64" stroke-width="0.812436" stroke-linecap="round" stroke-linejoin="round"/>
<path d="M150.964 71.0908L116.685 96.2991L118.645 107.158L157.235 78.7918L150.964 71.0908Z" fill="#182136" stroke="#2B3B64" stroke-width="0.812436" stroke-linecap="round" stroke-linejoin="round"/>
<path d="M65.3849 218.075L125.767 204.87L111.652 196.504L54.3594 209.266L65.3849 218.075Z" fill="#182136" stroke="#2B3B64" stroke-width="0.812436" stroke-linecap="round" stroke-linejoin="round"/>
<path d="M38.4877 160.862L65.3856 218.074L54.36 209.265L27.0366 155.58L38.4877 160.862Z" fill="#182136" stroke="#2B3B64" stroke-width="0.812436" stroke-linecap="round" stroke-linejoin="round"/>
<path d="M87.0677 193.753L73.1562 197.336L64.5171 209.783C64.5171 209.783 65.7195 210.983 67.1625 210.743C68.6054 210.503 72.4348 207.16 72.4348 207.16L82.5169 204.52C82.5169 204.52 77.2446 207.641 77.2446 208.342C77.2446 209.044 78.2065 209.303 80.6115 209.063C83.0164 208.823 88.7696 203.559 88.7696 203.559L92.599 198.776L87.0862 193.753H87.0677Z" fill="#182136" stroke="#2B3B64" stroke-width="0.812436" stroke-linecap="round" stroke-linejoin="round"/>
<path d="M124.638 131.369L117.535 163.817L87.0664 193.753L94.2626 200.456L119.57 188.951L121.327 184.408L127.432 157.224L124.638 131.369Z" fill="#182136" stroke="#2B3B64" stroke-width="0.812436" stroke-linecap="round" stroke-linejoin="round"/>
<path d="M78.6326 187.214C78.6326 187.214 68.9205 188.655 65.3132 188.655C61.7058 188.655 53.0852 189.375 51.6422 190.095C50.1993 190.815 43.373 195.118 43.7245 198.35C44.076 201.582 50.1993 198.701 50.1993 198.701C50.1993 198.701 51.9937 203.004 54.8796 206.956C57.7655 210.908 59.1899 209.468 64.9617 207.307C70.715 205.146 79.3541 198.683 79.3541 198.683L84.3859 194.01L78.6326 187.177V187.214Z" fill="#182136" stroke="#2B3B64" stroke-width="0.812436" stroke-linecap="round" stroke-linejoin="round"/>
<path d="M163.119 86.233C163.119 86.233 148.375 84.0723 142.973 91.2562C137.571 98.4401 132.188 111.017 131.097 120.343C130.005 129.669 123.179 148.358 123.179 148.358L77.4302 186.383L85.3479 198.239C85.3479 198.239 140.809 172.44 142.252 170.63C143.695 168.839 162.046 121.414 162.046 121.414" fill="#182136"/>
<path d="M163.119 86.233C163.119 86.233 148.375 84.0723 142.973 91.2562C137.571 98.4401 132.188 111.017 131.097 120.343C130.005 129.669 123.179 148.358 123.179 148.358L77.4302 186.383L85.3479 198.239C85.3479 198.239 140.809 172.44 142.252 170.63C143.695 168.839 162.046 121.414 162.046 121.414" stroke="#2B3B64" stroke-width="0.812436" stroke-linecap="round" stroke-linejoin="round"/>
<path d="M144.72 361.717C147.343 361.717 149.903 360.166 152.288 357.224C154.67 354.284 156.832 350.006 158.657 344.684C162.304 334.044 164.567 319.318 164.567 303.033C164.567 286.748 162.304 272.023 158.657 261.382C156.832 256.06 154.67 251.782 152.288 248.843C149.903 245.9 147.343 244.35 144.72 244.35C142.096 244.35 139.537 245.9 137.152 248.843C134.77 251.782 132.607 256.06 130.783 261.382C127.136 272.023 124.873 286.748 124.873 303.033C124.873 319.318 127.136 334.044 130.783 344.684C132.607 350.006 134.77 354.284 137.152 357.224C139.537 360.166 142.096 361.717 144.72 361.717Z" stroke="#2D3E69" stroke-width="0.812436"/>
<path d="M144.72 361.717C147.343 361.717 149.903 360.166 152.288 357.224C154.67 354.284 156.832 350.006 158.657 344.684C162.304 334.044 164.567 319.318 164.567 303.033C164.567 286.748 162.304 272.023 158.657 261.382C156.832 256.06 154.67 251.782 152.288 248.843C149.903 245.9 147.343 244.35 144.72 244.35C142.096 244.35 139.537 245.9 137.152 248.843C134.77 251.782 132.607 256.06 130.783 261.382C127.136 272.023 124.873 286.748 124.873 303.033C124.873 319.318 127.136 334.044 130.783 344.684C132.607 350.006 134.77 354.284 137.152 357.224C139.537 360.166 142.096 361.717 144.72 361.717Z" fill="#182136" stroke="#2D3E69" stroke-width="0.812436"/>
<path d="M145.464 241.729C142.528 241.729 139.68 243.364 137.038 246.437C134.397 249.509 132.001 253.978 129.981 259.535C125.941 270.647 123.436 286.026 123.436 303.033C123.436 320.04 125.941 335.419 129.981 346.531C132.001 352.088 134.397 356.557 137.038 359.629C139.68 362.702 142.528 364.337 145.464 364.337C148.399 364.337 151.248 362.702 153.889 359.629C156.53 356.557 158.926 352.088 160.947 346.531C164.986 335.419 167.492 320.04 167.492 303.033C167.492 286.026 164.986 270.647 160.947 259.535C158.926 253.978 156.53 249.509 153.889 246.437C151.248 243.364 148.399 241.729 145.464 241.729Z" fill="#182136" stroke="#2D3E69" stroke-width="0.812436"/>
<path d="M513.639 241.729L149.201 241.729C151.072 242.553 152.849 243.981 154.506 245.908C157.233 249.081 159.671 253.648 161.71 259.258C165.79 270.48 168.304 285.956 168.304 303.033C168.304 320.11 165.79 335.586 161.71 346.808C159.671 352.418 157.233 356.985 154.506 360.158C152.849 362.085 151.072 363.513 149.201 364.337L513.639 364.337C516.574 364.337 519.423 362.702 522.064 359.629C524.705 356.557 527.101 352.088 529.121 346.531C533.161 335.419 535.667 320.041 535.667 303.033C535.667 286.026 533.161 270.647 529.121 259.535C527.101 253.978 524.705 249.509 522.064 246.437C519.423 243.364 516.574 241.729 513.639 241.729Z" fill="#182136" stroke="#2D3E69" stroke-width="0.812436"/>
<path d="M192.357 407.346C194.22 407.346 196.055 406.246 197.78 404.117C199.502 401.991 201.072 398.89 202.397 395.023C205.047 387.292 206.693 376.586 206.693 364.741C206.693 352.897 205.047 342.191 202.397 334.46C201.072 330.592 199.502 327.492 197.78 325.366C196.055 323.237 194.22 322.137 192.357 322.137C190.495 322.137 188.66 323.237 186.935 325.366C185.212 327.492 183.643 330.592 182.317 334.46C179.668 342.191 178.021 352.897 178.021 364.741C178.021 376.586 179.668 387.292 182.317 395.023C183.643 398.89 185.212 401.991 186.935 404.117C188.66 406.246 190.495 407.346 192.357 407.346Z" stroke="#2D3E69" stroke-width="0.812436"/>
<path d="M192.357 407.346C194.22 407.346 196.055 406.246 197.78 404.117C199.502 401.991 201.072 398.89 202.397 395.023C205.047 387.292 206.693 376.586 206.693 364.741C206.693 352.897 205.047 342.191 202.397 334.46C201.072 330.592 199.502 327.492 197.78 325.366C196.055 323.237 194.22 322.137 192.357 322.137C190.495 322.137 188.66 323.237 186.935 325.366C185.212 327.492 183.643 330.592 182.317 334.46C179.668 342.191 178.021 352.897 178.021 364.741C178.021 376.586 179.668 387.292 182.317 395.023C183.643 398.89 185.212 401.991 186.935 404.117C188.66 406.246 190.495 407.346 192.357 407.346Z" fill="#182136" stroke="#2D3E69" stroke-width="0.812436"/>
<path d="M192.899 320.23C190.807 320.23 188.761 321.395 186.85 323.618C184.94 325.84 183.201 329.08 181.733 333.118C178.798 341.191 176.976 352.372 176.976 364.742C176.976 377.112 178.798 388.292 181.733 396.366C183.201 400.404 184.94 403.643 186.85 405.865C188.761 408.089 190.807 409.254 192.899 409.254C194.991 409.254 197.037 408.089 198.948 405.865C200.859 403.643 202.597 400.404 204.065 396.366C207 388.292 208.823 377.112 208.823 364.742C208.823 352.372 207 341.191 204.065 333.118C202.597 329.08 200.859 325.84 198.948 323.618C197.037 321.395 194.991 320.23 192.899 320.23Z" fill="#182136" stroke="#2D3E69" stroke-width="0.812436"/>
<path d="M460.891 320.23L196.108 320.23C197.326 320.857 198.483 321.83 199.565 323.089C201.562 325.412 203.343 328.75 204.829 332.84C207.804 341.024 209.636 352.302 209.636 364.742C209.636 377.181 207.804 388.46 204.829 396.643C203.343 400.733 201.562 404.072 199.565 406.395C198.483 407.654 197.326 408.627 196.108 409.254L460.891 409.254C462.984 409.254 465.029 408.089 466.941 405.865C468.851 403.643 470.589 400.404 472.057 396.366C474.992 388.292 476.815 377.112 476.815 364.742C476.815 352.372 474.992 341.191 472.057 333.118C470.589 329.08 468.851 325.84 466.941 323.618C465.029 321.395 462.984 320.23 460.891 320.23Z" fill="#182136" stroke="#2D3E69" stroke-width="0.812436"/>
<path d="M232.141 320.482C232.867 320.482 233.62 320.053 234.361 319.139C235.099 318.228 235.782 316.885 236.363 315.19C237.524 311.803 238.249 307.098 238.249 301.882C238.249 296.666 237.524 291.96 236.363 288.574C235.782 286.878 235.099 285.535 234.361 284.624C233.62 283.71 232.867 283.281 232.141 283.281C231.414 283.281 230.662 283.71 229.921 284.624C229.183 285.535 228.5 286.878 227.919 288.574C226.758 291.96 226.033 296.666 226.033 301.882C226.033 307.098 226.758 311.803 227.919 315.19C228.5 316.885 229.183 318.228 229.921 319.139C230.662 320.053 231.414 320.482 232.141 320.482Z" fill="#182136" stroke="#2D3E69" stroke-width="0.812436"/>
<path d="M232.379 282.438C232.247 282.438 232.115 282.45 231.983 282.473C232.035 282.47 232.087 282.469 232.14 282.469C233.213 282.469 234.174 283.104 234.992 284.113C235.812 285.126 236.533 286.566 237.131 288.31C238.328 291.802 239.061 296.601 239.061 301.882C239.061 307.162 238.328 311.961 237.131 315.453C236.533 317.197 235.812 318.638 234.992 319.65C234.174 320.659 233.213 321.294 232.14 321.294C232.088 321.294 232.035 321.293 231.983 321.29C232.115 321.313 232.247 321.325 232.379 321.325C233.213 321.325 234.059 320.861 234.88 319.906C235.7 318.953 236.457 317.549 237.1 315.779C238.386 312.242 239.189 307.329 239.189 301.882C239.189 296.434 238.386 291.521 237.1 287.984C236.457 286.214 235.7 284.81 234.88 283.857C234.059 282.902 233.213 282.438 232.379 282.438Z" fill="#182136" stroke="#2D3E69" stroke-width="0.812436"/>
<path d="M464.547 282.438L234.572 282.438C234.895 282.686 235.204 282.985 235.498 283.327C236.405 284.382 237.203 285.885 237.866 287.707C239.191 291.354 240.003 296.365 240.003 301.882C240.003 307.398 239.191 312.409 237.866 316.056C237.203 317.878 236.405 319.381 235.498 320.436C235.204 320.778 234.895 321.077 234.572 321.325L464.547 321.325C465.381 321.325 466.228 320.861 467.049 319.906C467.868 318.953 468.625 317.549 469.269 315.779C470.554 312.242 471.357 307.329 471.357 301.882C471.357 296.434 470.554 291.521 469.269 287.984C468.625 286.214 467.868 284.81 467.049 283.857C466.228 282.902 465.381 282.438 464.547 282.438Z" fill="#182136" stroke="#2D3E69" stroke-width="0.812436"/>
<path d="M291.263 419.714C291.676 419.714 292.129 419.471 292.598 418.892C293.064 418.317 293.501 417.461 293.876 416.366C294.625 414.181 295.096 411.135 295.096 407.753C295.096 404.37 294.625 401.325 293.876 399.14C293.501 398.045 293.064 397.188 292.598 396.613C292.129 396.035 291.676 395.792 291.263 395.792C290.851 395.792 290.398 396.035 289.929 396.613C289.463 397.188 289.025 398.045 288.65 399.14C287.901 401.325 287.431 404.37 287.431 407.753C287.431 411.135 287.901 414.181 288.65 416.366C289.025 417.461 289.463 418.317 289.929 418.892C290.398 419.471 290.851 419.714 291.263 419.714Z" stroke="#2D3E69" stroke-width="0.812436"/>
<path d="M291.263 419.714C291.676 419.714 292.129 419.471 292.598 418.892C293.064 418.317 293.501 417.461 293.876 416.366C294.625 414.181 295.096 411.135 295.096 407.753C295.096 404.37 294.625 401.325 293.876 399.14C293.501 398.045 293.064 397.188 292.598 396.613C292.129 396.035 291.676 395.792 291.263 395.792C290.851 395.792 290.398 396.035 289.929 396.613C289.463 397.188 289.025 398.045 288.65 399.14C287.901 401.325 287.431 404.37 287.431 407.753C287.431 411.135 287.901 414.181 288.65 416.366C289.025 417.461 289.463 418.317 289.929 418.892C290.398 419.471 290.851 419.714 291.263 419.714Z" fill="#182136" stroke="#2D3E69" stroke-width="0.812436"/>
<mask id="path-56-inside-1_5102_3987" fill="white">
<path d="M286.723 407.753C286.723 400.619 288.824 394.837 291.418 394.837C294.012 394.837 296.113 400.619 296.113 407.753C296.113 414.886 294.012 420.668 291.418 420.668C288.824 420.668 286.723 414.886 286.723 407.753ZM295.501 407.753C295.501 400.923 293.604 395.386 291.262 395.386C288.921 395.386 287.024 400.923 287.024 407.753C287.024 414.583 288.921 420.12 291.262 420.12C293.604 420.12 295.501 414.583 295.501 407.753Z"/>
</mask>
<path d="M286.723 407.753C286.723 400.619 288.824 394.837 291.418 394.837C294.012 394.837 296.113 400.619 296.113 407.753C296.113 414.886 294.012 420.668 291.418 420.668C288.824 420.668 286.723 414.886 286.723 407.753ZM295.501 407.753C295.501 400.923 293.604 395.386 291.262 395.386C288.921 395.386 287.024 400.923 287.024 407.753C287.024 414.583 288.921 420.12 291.262 420.12C293.604 420.12 295.501 414.583 295.501 407.753Z" fill="#182136"/>
<path d="M285.91 407.753C285.91 404.117 286.444 400.79 287.334 398.342C287.778 397.122 288.325 396.077 288.974 395.323C289.621 394.57 290.444 394.025 291.418 394.025L291.418 395.65C291.095 395.65 290.683 395.827 290.206 396.382C289.732 396.934 289.267 397.781 288.861 398.898C288.052 401.125 287.535 404.255 287.535 407.753L285.91 407.753ZM291.418 394.025C292.392 394.025 293.215 394.57 293.862 395.323C294.511 396.077 295.058 397.122 295.502 398.342C296.392 400.79 296.926 404.117 296.926 407.753L295.301 407.753C295.301 404.255 294.784 401.125 293.975 398.898C293.569 397.781 293.105 396.934 292.63 396.382C292.153 395.827 291.741 395.65 291.418 395.65L291.418 394.025ZM296.926 407.753C296.926 411.389 296.392 414.716 295.502 417.163C295.058 418.384 294.511 419.428 293.862 420.183C293.215 420.935 292.392 421.481 291.418 421.481L291.418 419.856C291.741 419.856 292.153 419.679 292.63 419.124C293.105 418.572 293.569 417.725 293.975 416.608C294.784 414.381 295.301 411.25 295.301 407.753L296.926 407.753ZM291.418 421.481C290.444 421.481 289.621 420.935 288.974 420.183C288.325 419.428 287.778 418.384 287.334 417.163C286.444 414.716 285.91 411.389 285.91 407.753L287.535 407.753C287.535 411.25 288.052 414.381 288.861 416.608C289.267 417.725 289.732 418.572 290.206 419.124C290.683 419.679 291.095 419.856 291.418 419.856L291.418 421.481ZM294.689 407.753C294.689 404.403 294.222 401.404 293.491 399.271C293.124 398.201 292.706 397.393 292.281 396.869C291.851 396.338 291.502 396.198 291.262 396.198L291.262 394.573C292.194 394.573 292.96 395.125 293.544 395.846C294.133 396.574 294.628 397.577 295.028 398.745C295.832 401.088 296.314 404.273 296.314 407.753L294.689 407.753ZM291.262 396.198C291.023 396.198 290.674 396.338 290.244 396.869C289.819 397.393 289.4 398.201 289.034 399.271C288.303 401.404 287.836 404.403 287.836 407.753L286.211 407.753C286.211 404.273 286.693 401.088 287.496 398.745C287.897 397.577 288.392 396.574 288.981 395.846C289.565 395.125 290.331 394.573 291.262 394.573L291.262 396.198ZM287.836 407.753C287.836 411.103 288.303 414.102 289.034 416.234C289.4 417.305 289.819 418.113 290.244 418.637C290.674 419.167 291.023 419.308 291.262 419.308L291.262 420.932C290.331 420.932 289.565 420.38 288.981 419.66C288.392 418.932 287.897 417.929 287.496 416.761C286.693 414.418 286.211 411.233 286.211 407.753L287.836 407.753ZM291.262 419.308C291.502 419.308 291.851 419.167 292.281 418.637C292.706 418.113 293.124 417.305 293.491 416.234C294.222 414.102 294.689 411.103 294.689 407.753L296.314 407.753C296.314 411.233 295.832 414.418 295.028 416.761C294.628 417.929 294.133 418.932 293.544 419.66C292.96 420.38 292.194 420.932 291.262 420.932L291.262 419.308Z" fill="#2D3E69" mask="url(#path-56-inside-1_5102_3987)"/>
<path d="M442.481 395.244L293.225 395.244C293.338 395.35 293.447 395.465 293.552 395.587C294.157 396.292 294.684 397.287 295.118 398.481C295.988 400.873 296.518 404.151 296.518 407.753C296.518 411.354 295.988 414.632 295.118 417.025C294.684 418.219 294.157 419.214 293.552 419.918C293.447 420.041 293.338 420.156 293.225 420.262L442.481 420.262C442.967 420.262 443.482 419.993 444.001 419.389C444.52 418.786 445.005 417.89 445.42 416.747C446.25 414.465 446.771 411.285 446.771 407.753C446.771 404.221 446.25 401.041 445.42 398.759C445.005 397.616 444.52 396.72 444.001 396.117C443.482 395.513 442.967 395.244 442.481 395.244Z" fill="#182136" stroke="#2D3E69" stroke-width="0.812436"/>
</g>
<defs>
<clipPath id="clip0_5102_3987">
<rect width="420" height="420" fill="white" transform="translate(0 0.486816)"/>
</clipPath>
</defs>
</svg>
