<svg viewBox="0 0 536 289" fill="none" xmlns="http://www.w3.org/2000/svg"
  xmlns:anim="http://www.w3.org/2000/anim" anim="" anim:transform-origin="50% 50%" anim:duration="7"
  anim:ease="linear" style="display: block;">
  <style>
    @keyframes fade_2 {
      0% {
        opacity: 0;
      }
    
      24% {
        opacity: 0;
      }
    
      33.33% {
        opacity: 1;
      }
    
      57.33% {
        opacity: 1;
      }
    
      66.67% {
        opacity: 0
      }
    
      100% {
        opacity: 0;
      }
    }
    
    @keyframes fade_3 {
      0% {
        opacity: 0;
      }
    
      52.33% {
        opacity: 0;
      }
    
      63.67% {
        opacity: 1;
      }
    
      90.67% {
        opacity: 1;
      }
    
      100% {
        opacity: 0;
      }
    }

    #ANIMATION_2,
    #ANIMATION_3 {
      opacity: 0;
    }

    #ANIMATION_2 {
      animation: fade_2 9s infinite;
    }
    
    #ANIMATION_3 {
      animation: fade_3 9s infinite;
    }

  </style>
  <g id="Frame 1321315235">
    <g id="Group 1321315224">
      <g id="ANIMATION">
        <g id="Group">
          <g id="Group 1321315121">
            <path id="Vector"
              d="M363.321 269.191L364.719 289.018H323.075C323.075 289.018 321.512 283.442 332.499 282.836C335.525 282.672 343.897 276.538 343.897 276.538C346.824 273.947 348.255 265.026 348.255 265.026L363.305 269.191H363.321Z"
              fill="#182136"></path>
            <g id="Group_2">
              <path id="Vector_2"
                d="M486.51 142.899H434.52L437.859 188.359C438.78 200.79 428.895 211.384 416.396 211.384H468.385C480.885 211.384 490.753 200.79 489.849 188.359L486.51 142.899Z"
                fill="#182136"></path>
              <path id="Vector_3"
                d="M488.468 142.899H486.511L489.849 188.359C490.77 200.79 480.886 211.384 468.386 211.384H400.031V213.335H468.386C474.882 213.335 481.149 210.613 485.573 205.857C489.997 201.101 492.267 194.673 491.79 188.211L488.468 142.899Z"
                fill="#182136"></path>
              <path id="Vector_4" d="M466.774 211.384H400.031V213.335H466.774V211.384Z"
                fill="#182136"></path>
              <g id="Group_3">
                <path id="Vector_5"
                  d="M485.59 205.857C483.847 207.743 481.791 209.285 479.57 210.482L488.666 289.002H491.61L485.672 205.759C485.672 205.759 485.623 205.824 485.59 205.841V205.857Z"
                  fill="#182136"></path>
                <path id="Vector_6"
                  d="M449.308 213.335L439.341 289.019H442.285L455.624 213.335H449.308Z"
                  fill="#182136"></path>
              </g>
              <path id="Vector_7"
                d="M407.071 213.335L397.104 289.018H400.031L413.37 213.335H407.071Z" fill="#182136"></path>
            </g>
            <g id="Group_4">
              <path id="Vector_8"
                d="M423.074 90.962C418.172 93.0611 405.031 101.179 403.765 102.95C402.498 104.738 375.262 136.815 375.262 136.815L339.357 145.884V149.41H385.887C388.617 149.41 415.475 126.319 415.475 126.713C415.475 127.106 420.426 136.667 420.903 137.586C421.445 138.635 423.419 169.614 423.419 169.614L479.224 176.551C479.224 176.551 479.011 132.83 475.705 119.825C472.382 106.804 472.218 93.7171 465.277 90.9456C456.741 87.5345 439.883 88.4857 439.883 88.4857L423.041 90.9456L423.074 90.962Z"
                fill="#182136"></path>
              <path id="Vector_9"
                d="M432.893 96.8167L429.949 98.5058L433.173 102.934L432.433 162.661L439.702 167.958L446.692 161.152L436.133 102.688L437.844 98.7846L432.893 96.8167Z"
                fill="#182136"></path>
              <path id="Vector_10"
                d="M465.295 90.9621C471.446 92.5529 479.867 106.574 485.245 117.119C487.515 121.58 490.229 128.041 492.581 134.011C495.508 141.407 490.031 149.426 482.054 149.426H445.015L444.769 138.143L473.091 133.371C473.091 133.371 449.259 86.7967 465.278 90.9621H465.295Z"
                fill="#182136"></path>
              <path id="Vector_11"
                d="M437.269 139.013L444.785 138.144L445.015 149.427H437.269V139.013Z" fill="#182136"></path>
              <path id="Vector_12"
                d="M437.267 149.426L423.073 150.115L412.778 150.706L410.508 148.902L412.778 147.409L411.462 145.933L418.008 139.898L426.297 137.914L424.817 135.848L427.004 134.7L437.267 139.013V149.426Z"
                fill="#182136"></path>
              <path id="Vector_13"
                d="M423.436 169.647L368.321 181.897C360.328 183.668 354.407 190.392 353.683 198.526L345.706 266.207L366.282 272.029L377.679 205.775L465.639 174.895L423.436 169.647Z"
                fill="#182136"></path>
              <path id="Vector_14"
                d="M386.61 264.272L386.347 272.111C384.489 274.21 379.505 281.245 379.505 281.245C367.531 282.754 364.538 289.002 364.538 289.002H390.262C390.262 289.002 404.423 278.801 404.488 277.145C404.554 275.489 400.031 262.992 400.031 262.992L386.61 264.272Z"
                fill="#182136"></path>
              <g id="Group_5">
                <path id="Vector_15"
                  d="M413.863 53.7846C411.84 60.0164 414.504 61.7547 413.912 64.5426C413.139 68.1669 411.38 69.8232 411.544 70.8236C411.824 72.5783 414.899 71.7256 415.097 73.4803C415.804 79.6629 415.705 82.8772 416.774 84.1892C418.978 86.8787 426.379 85.1567 426.379 85.1567L428.09 100.736L433.781 96.1444L441.264 97.3743L438.188 55.4737C438.188 55.4737 416.56 45.4044 413.847 53.7846H413.863Z"
                  fill="#182136"></path>
                <path id="Vector_16"
                  d="M439.964 79.4826C439.964 79.4826 449.026 63.4111 450.473 57.3105C451.493 53.0138 445.802 52.7022 445.802 52.7022C445.802 52.7022 448.286 46.8148 444.273 44.8469C425.556 35.6468 387.448 56.6873 422.118 53.0794C422.118 53.0794 421.148 58.606 427.645 58.0321C427.645 58.0321 425.391 70.7744 427.201 71.1188C427.875 71.25 428.944 68.9869 428.944 68.9869C428.944 68.9869 432.118 61.3448 434.75 64.0835C437.381 66.8222 436.773 71.7748 430.638 72.972L439.947 79.499L439.964 79.4826Z"
                  fill="#182136"></path>
                <path id="Vector_17"
                  d="M426.544 86.5016L426.396 85.1404C430.244 84.386 436.461 81.8933 436.461 81.8933C436.461 81.8933 434.142 85.0748 426.544 86.4852V86.5016Z"
                  fill="#2A3A62" fill-opacity="0.19"></path>
                <path id="Vector_18"
                  d="M433.796 96.1445L440.326 84.55C440.326 84.55 443.451 85.616 444.339 86.6164C445.326 87.7479 444.437 99.736 443.944 100.474C443.385 101.31 436 98.4568 434.092 98.0632C434.092 98.0632 427.464 103.196 426.214 103.393C425.277 103.541 422.332 90.8474 423.286 88.9123C423.714 88.0267 426.543 86.5016 426.543 86.5016L433.796 96.1445Z"
                  fill="#182136"></path>
              </g>
              <g id="Group_6">
                <path id="Vector_19"
                  d="M448.255 147.606C448.074 147.606 447.91 147.475 447.893 147.295L446.545 137.849C446.512 137.652 446.66 137.471 446.857 137.439L474.406 133.126L460.673 105.394C460.591 105.214 460.673 104.984 460.837 104.902C461.018 104.804 461.248 104.902 461.331 105.066L475.278 133.257C475.327 133.355 475.327 133.486 475.278 133.585C475.229 133.683 475.13 133.765 475.015 133.781L447.318 138.111L448.617 147.196C448.65 147.393 448.502 147.59 448.304 147.606C448.288 147.606 448.272 147.606 448.255 147.606Z"
                  fill="#2A3A62"></path>
                <path id="Vector_20"
                  d="M425.986 101.097C425.986 101.097 425.937 101.097 425.904 101.097C425.805 101.081 425.723 101.015 425.674 100.933C425.542 100.737 422.532 96.0463 422.203 92.9796C422.187 92.7828 422.335 92.6024 422.532 92.5696C422.73 92.5368 422.911 92.7008 422.944 92.8976C423.207 95.3575 425.411 99.113 426.101 100.228L427.499 99.3262C427.664 99.2114 427.894 99.2606 428.009 99.441C428.124 99.605 428.075 99.8346 427.894 99.9494L426.184 101.048C426.184 101.048 426.052 101.114 425.986 101.114V101.097Z"
                  fill="#2A3A62"></path>
                <path id="Vector_21"
                  d="M441.15 99.2114C441.15 99.2114 441.117 99.2114 441.1 99.2114L437.877 98.7195C437.679 98.6867 437.531 98.5063 437.564 98.2931C437.597 98.0963 437.794 97.9487 437.992 97.9815L441.018 98.4571C441.659 97.7355 444.571 94.2752 444.423 89.9622C444.423 89.7654 444.571 89.585 444.784 89.585C444.949 89.585 445.163 89.7326 445.163 89.9458C445.36 95.1116 441.577 98.9655 441.429 99.1295C441.363 99.1951 441.265 99.2442 441.166 99.2442L441.15 99.2114Z"
                  fill="#2A3A62"></path>
                <path id="Vector_22"
                  d="M433.156 95.3902C433.057 95.3902 432.959 95.341 432.893 95.2754L429.077 91.2247C428.946 91.0771 428.946 90.8475 429.077 90.6999C429.225 90.5687 429.455 90.5687 429.603 90.7163L433.09 94.4226L438.501 85.9277C438.617 85.7637 438.83 85.6981 439.011 85.8129C439.176 85.9277 439.242 86.1573 439.126 86.3213L433.452 95.2262C433.386 95.3246 433.288 95.3902 433.173 95.3902C433.173 95.3902 433.156 95.3902 433.14 95.3902H433.156Z"
                  fill="#2A3A62"></path>
                <path id="Vector_23"
                  d="M414.67 125.516C414.554 125.516 414.423 125.451 414.357 125.336L411.15 120.268C411.035 120.104 411.084 119.875 411.265 119.76C411.429 119.662 411.66 119.711 411.775 119.875L414.982 124.942C415.097 125.106 415.048 125.336 414.867 125.451C414.801 125.483 414.735 125.5 414.67 125.5V125.516Z"
                  fill="#2A3A62"></path>
                <path id="Vector_24"
                  d="M424.062 138.521C424.062 138.521 423.98 138.521 423.947 138.504C423.749 138.439 423.651 138.225 423.717 138.045L424.473 135.749C424.523 135.585 424.671 135.454 424.851 135.503L430.46 135.798C430.657 135.798 430.822 135.979 430.805 136.192C430.805 136.389 430.624 136.553 430.411 136.536L425.082 136.258L424.407 138.291C424.358 138.439 424.21 138.537 424.062 138.537V138.521Z"
                  fill="#2A3A62"></path>
              </g>
              <path id="Vector_25"
                d="M479.257 176.584L479.669 180.438C481.429 196.968 468.435 211.383 451.774 211.383H400.048L403.946 270.979H383.387L374.423 203.626C373.157 194.541 379.439 186.145 388.535 184.767L442.597 176.6L445.047 172.336L479.274 176.6L479.257 176.584Z"
                fill="#182136"></path>
              <path id="Vector_26"
                d="M374.408 203.987C374.227 203.987 374.062 203.856 374.046 203.676C372.746 194.443 379.227 185.8 388.47 184.406L442.532 176.239C442.746 176.206 442.927 176.354 442.96 176.551C442.992 176.748 442.844 176.944 442.647 176.977L388.585 185.144C379.736 186.472 373.552 194.754 374.786 203.594C374.819 203.79 374.671 203.987 374.473 204.003C374.457 204.003 374.44 204.003 374.424 204.003L374.408 203.987Z"
                fill="#2A3A62"></path>
            </g>
          </g>
          <path id="Vector_27"
            d="M92.895 110.133C92.9608 106.017 93.4871 101.654 96.0364 98.44C98.7667 95.0125 103.619 93.5038 107.895 94.5369C112.171 95.5537 115.724 98.9484 117.237 103.065C118.947 107.755 118.141 112.97 116.76 117.759C115.214 123.154 112.961 128.353 110.099 133.19C108.29 136.257 102.763 143.752 98.8489 139.275C97.0397 137.208 96.3818 133.715 95.6582 131.157C94.7536 127.992 94.0628 124.761 93.6023 121.514C93.0595 117.759 92.8292 113.954 92.8786 110.149L92.895 110.133Z"
            fill="#182136"></path>
          <g id="Group_7">
            <path id="Vector_28"
              d="M51.5292 142.899H103.519L100.18 188.358C99.259 200.789 109.144 211.383 121.644 211.383H69.654C57.1541 211.383 47.2858 200.789 48.1904 188.358L51.5292 142.899Z"
              fill="#182136"></path>
            <path id="Vector_29"
              d="M49.5724 142.899H51.5296L48.1908 188.358C47.2697 200.789 57.1545 211.383 69.6544 211.383H138.009V213.335H69.6544C63.1577 213.335 56.8914 210.613 52.4671 205.857C48.0428 201.101 45.773 194.672 46.25 188.211L49.5724 142.899Z"
              fill="#182136"></path>
            <path id="Vector_30" d="M71.267 213.335H138.01V211.383H71.267V213.335Z" fill="#182136"></path>
            <g id="Group_8">
              <path id="Vector_31"
                d="M52.4503 205.857C54.1937 207.743 56.2496 209.284 58.47 210.481L49.3747 289.002H46.4307L52.3681 205.758C52.3681 205.758 52.4174 205.824 52.4503 205.84V205.857Z"
                fill="#182136"></path>
              <path id="Vector_32"
                d="M88.7327 213.335L98.6997 289.018H95.7557L82.417 213.335H88.7327Z" fill="#182136"></path>
            </g>
            <path id="Vector_33"
              d="M130.969 213.335L140.936 289.018H138.009L124.67 213.335H130.969Z" fill="#182136"></path>
          </g>
          <path id="Vector_34"
            d="M98.2885 87.2065C86.94 88.6661 72.746 90.9784 72.746 90.9784L59.7527 139.357C59.7527 139.357 54.1113 160.66 54.1113 173.648C54.1113 177.748 54.7034 181.208 55.1804 183.439C55.4929 184.865 57.0389 185.669 58.3876 185.111L91.3314 171.533L102.104 139.291C102.104 139.291 93.0254 119.874 95.7721 99.2438L98.2885 87.2229V87.2065Z"
            fill="#182136"></path>
          <g id="Group_9">
            <path id="Vector_35"
              d="M163.043 269.175L166.661 289.002H208.338C208.338 289.002 208.486 283.426 197.335 282.82C194.26 282.656 184.326 276.522 184.326 276.522C180.74 273.931 177.039 265.01 177.039 265.01L163.026 269.175H163.043Z"
              fill="#182136"></path>
            <g id="Group_10">
              <path id="Vector_36"
                d="M216.465 98.0137L216.63 101.326L213.62 102.802C213.62 102.802 214.343 106.377 213.57 106.558C212.781 106.755 206.235 109.756 206.235 109.756L196.712 114.167L193.291 107.788C193.291 107.788 197.518 100.588 197.83 100.113C198.143 99.6372 200.133 93.4218 201.038 93.6022C203.159 94.0122 201.992 101.015 201.992 101.015L216.465 98.0137Z"
                fill="#182136"></path>
              <path id="Vector_37"
                d="M190.658 107.116L193.027 105.213L200.724 114.987L197.303 117.267L190.658 107.116Z"
                fill="#182136"></path>
              <path id="Vector_38"
                d="M114.969 90.9622C114.969 90.9622 123.472 94.5865 127.666 96.7676C131.432 98.7192 137.764 101.343 141.12 103.606C144.228 105.705 166.152 123.417 166.152 123.417L190.247 104.607L200.001 118.185L173.504 140.079C169.228 143.621 163.159 143.998 158.455 141.03L126.58 123.728C126.58 123.728 115.067 160.922 114.59 169.614C114.113 178.322 84.8701 173.304 84.8701 173.304L101.597 135.815C116.268 112.347 114.952 90.9294 114.952 90.9294L114.969 90.9622Z"
                fill="#182136"></path>
            </g>
            <path id="Vector_39"
              d="M72.7475 90.9618C66.5963 92.5526 58.1753 106.574 52.7971 117.119C49.557 123.466 45.4452 133.896 42.682 141.193C41.1689 145.178 44.1294 149.442 48.3892 149.442H93.0105L93.2572 138.159L64.9351 133.387C64.9351 133.387 88.7671 86.8128 72.7475 90.9782V90.9618Z"
              fill="#182136"></path>
            <path id="Vector_40"
              d="M100.774 139.012L93.2576 138.143L93.0273 149.426H100.774V139.012Z" fill="#182136"></path>
            <path id="Vector_41"
              d="M100.773 149.426L114.967 150.115L125.263 150.705L127.533 148.901L125.263 147.409L126.579 145.933L120.033 139.898L111.744 137.914L113.224 135.847L111.036 134.699L100.773 139.012V149.426Z"
              fill="#182136"></path>
            <path id="Vector_42"
              d="M202.697 269.192L211.085 289.019H252.763C252.763 289.019 251.562 283.443 240.279 282.836C237.171 282.672 225.756 276.539 225.756 276.539C221.546 273.947 215.707 265.026 215.707 265.026L202.697 269.192Z"
              fill="#182136"></path>
            <path id="Vector_43"
              d="M91.1368 138.16C91.1368 138.16 91.1039 138.16 91.071 138.16L63.0121 133.781C62.8969 133.765 62.7983 133.683 62.7489 133.584C62.6996 133.486 62.6996 133.355 62.7489 133.256L76.6962 105.066C76.7948 104.885 77.0086 104.803 77.1896 104.902C77.3705 104.984 77.4527 105.213 77.354 105.394L63.6206 133.125L91.1697 137.438C91.3671 137.471 91.5151 137.651 91.4822 137.865C91.4493 138.045 91.3013 138.176 91.1204 138.176L91.1368 138.16Z"
              fill="#2A3A61"></path>
            <g id="Group_11">
              <path id="Vector_44"
                d="M105.839 97.0949L100.214 85.0249C100.214 85.0249 96.99 85.8121 96.0525 86.7796C94.9834 87.9112 95.5426 101.047 96.0196 101.195C96.9736 101.506 105.263 98.6857 105.263 98.6857C105.263 98.6857 111.612 104.589 112.845 104.885C113.766 105.114 117.664 92.6671 116.858 90.6663C116.496 89.7479 113.799 88.0096 113.799 88.0096L105.822 97.0785L105.839 97.0949Z"
                fill="#182136"></path>
              <path id="Vector_45"
                d="M128.965 56.3752C130.511 62.7382 127.715 64.2798 128.093 67.0841C128.587 70.7575 130.215 72.5451 129.968 73.5291C129.557 75.251 126.564 74.1686 126.218 75.907C125.034 82.0076 124.886 85.2383 123.718 86.4518C121.317 88.9609 114.064 86.6978 114.064 86.6978L111.153 102.113L105.824 97.1115L98.2744 97.7675L104.541 56.2276C104.541 56.2276 126.876 47.8311 128.932 56.3916L128.965 56.3752Z"
                fill="#182136"></path>
              <path id="Vector_46"
                d="M100.971 80.0069C100.971 80.0069 93.1749 63.2958 92.188 57.0968C91.4973 52.7345 97.188 52.8657 97.188 52.8657C97.188 52.8657 95.165 46.7979 99.3097 45.1416C118.668 37.3847 155.066 61.2623 120.757 55.0305C120.757 55.0305 121.3 60.6063 114.852 59.5567C114.852 59.5567 116.119 72.4303 114.293 72.6271C113.602 72.7091 112.714 70.364 112.714 70.364C112.714 70.364 110.148 62.4922 107.303 65.0341C104.458 67.5761 104.688 72.5451 110.724 74.2014L100.954 80.0069H100.971Z"
                fill="#182136"></path>
            </g>
            <path id="Vector_47"
              d="M114.605 169.647L166.447 179.634C171.43 180.602 175.706 183.75 178.075 188.211L220.887 268.568L204.028 275.653L160.361 205.775L72.4014 174.895L114.605 169.647Z"
              fill="#182136"></path>
            <path id="Vector_48"
              d="M164.375 202.265L183.076 270.208L161.563 273.226L139.688 211.367H86.2837C69.6063 211.367 56.613 196.952 58.3893 180.421L58.8005 176.567L93.0271 172.303L95.4777 176.567"
              fill="#182136"></path>
            <path id="Vector_49"
              d="M164.376 202.642C164.212 202.642 164.064 202.527 164.015 202.363C161.663 193.803 154.475 187.292 145.709 185.751L95.3968 176.944C95.1994 176.911 95.0678 176.715 95.1007 176.518C95.1336 176.321 95.331 176.19 95.5284 176.223L145.84 185.029C154.886 186.62 162.304 193.344 164.722 202.167C164.771 202.363 164.656 202.56 164.459 202.626C164.426 202.626 164.393 202.626 164.36 202.626L164.376 202.642Z"
              fill="#2A3A61"></path>
          </g>
          <path id="Vector_50" d="M385.735 289.019H389.979L369.847 158.446H360.571L385.735 289.019Z"
            fill="#182136"></path>
          <path id="Vector_51" d="M94.0941 289.019H89.8672L96.5776 158.446H105.837L94.0941 289.019Z"
            fill="#182136"></path>
          <path id="Vector_52"
            d="M96.8928 101.54C96.7283 101.54 96.5803 101.425 96.5309 101.261C96.4816 101.064 96.5967 100.867 96.7941 100.818L101.087 99.6867C101.284 99.6375 101.482 99.7523 101.531 99.949C101.58 100.146 101.465 100.343 101.268 100.392L96.975 101.523C96.975 101.523 96.9092 101.523 96.8763 101.523L96.8928 101.54Z"
            fill="#2A3A61"></path>
          <path id="Vector_53"
            d="M112.862 105.295C112.779 105.295 112.681 105.263 112.615 105.197L108.931 101.917C108.783 101.786 108.766 101.54 108.898 101.392C109.029 101.245 109.276 101.228 109.424 101.359L113.108 104.639C113.256 104.771 113.273 105.017 113.141 105.164C113.075 105.246 112.96 105.295 112.862 105.295Z"
            fill="#2A3A61"></path>
          <path id="Vector_54"
            d="M105.807 97.4728C104.228 97.4728 101.761 91.1426 100.429 87.3215C100.363 87.1247 100.461 86.9115 100.659 86.8459C100.856 86.7803 101.07 86.8787 101.136 87.0755C102.961 92.2741 105.1 96.702 105.807 96.7348C106.794 96.5708 110.247 92.7989 112.188 90.4702C112.32 90.3062 112.55 90.2898 112.715 90.421C112.879 90.5522 112.895 90.7818 112.764 90.9458C111.892 91.9954 107.484 97.2104 105.938 97.4728C105.905 97.4728 105.873 97.4728 105.84 97.4728H105.807Z"
            fill="#2A3A61"></path>
          <path id="Vector_55"
            d="M453.74 156.162V156.162C453.74 152.499 450.846 149.426 447.184 149.426H89.3914C85.1642 149.426 81.7373 152.853 81.7373 157.08V157.08C81.7373 161.307 85.1642 164.734 89.3914 164.734H267.739H445.167C449.902 164.734 453.74 160.896 453.74 156.162V156.162Z"
            fill="#182136"></path>
          <path id="Vector_56"
            d="M453.74 150.578V150.578C453.74 149.997 453.333 149.426 452.752 149.426H83.0466C82.3235 149.426 81.7373 150.012 81.7373 150.735V150.735C81.7373 151.458 82.3235 152.045 83.0466 152.045H267.739H452.274C453.084 152.045 453.74 151.388 453.74 150.578V150.578Z"
            fill="#2A3A61"></path>
          <path id="Vector_57"
            d="M193.469 137.226C194.275 137.226 194.998 137.489 195.64 137.866L195.13 131.372H210.936L209.258 152.576H196.807L196.215 145.065C195.426 145.721 194.406 146.131 193.288 146.115C190.821 146.066 188.88 144.032 188.929 141.588C188.979 139.129 191.018 137.193 193.469 137.243V137.226ZM193.337 143.934C194.587 143.966 195.623 142.966 195.656 141.72C195.689 140.473 194.686 139.44 193.436 139.407C192.186 139.375 191.15 140.375 191.117 141.621C191.084 142.868 192.087 143.901 193.337 143.934Z"
            fill="#131C2F"></path>
          <path id="Vector_58"
            d="M105.657 97.499L108.552 99.1484L106.265 101.744L105.998 146.191L100.622 150.108L95.4404 145.075L104.198 101.38L102.933 98.4935L105.657 97.499Z"
            fill="#2A3A61"></path>
        </g>
        <g id="Group 1321315122">
          <g id="Group_12">
            <path id="Vector_59"
              d="M225.31 145.23H342.834C347.7 145.23 352.196 141.357 352.857 136.573L352.83 65.2858C353.491 60.5022 350.106 56.6284 345.24 56.6284H227.716C222.85 56.6284 218.354 60.5022 217.693 65.2858L217.72 136.573C217.059 141.357 220.444 145.23 225.31 145.23Z"
              fill="#6381E0"></path>
            <path id="Vector_60"
              d="M228.456 142.66H339.161C343.745 142.66 347.98 139.011 348.603 134.505L349.247 69.8186C349.869 65.3125 346.681 61.6636 342.097 61.6636H231.392C226.808 61.6636 222.574 65.3125 221.951 69.8186L221.307 134.505C220.684 139.011 223.873 142.66 228.456 142.66Z"
              fill="#182136"></path>
            <path id="Vector_61"
              d="M215.6 144.611H354.462V146.223C354.462 149.161 351.989 151.527 348.919 151.527H221.143C218.072 151.527 215.6 149.161 215.6 146.223V144.611Z"
              fill="#6381E0"></path>
          </g>
          <g id="Group 1321315115">
            <g id="Group 1321315113">
              <path id="Rectangle 88" opacity="0.42" d="M231.75 72.6982V135.455H338.309"
                stroke="#6381E0" stroke-width="1.04995"></path>
              <path id="Rectangle 89" opacity="0.1" d="M251.275 72.3398V135.097" stroke="#6381E0"
                stroke-width="1.04995"></path>
              <path id="Rectangle 90" opacity="0.1" d="M271.35 72.3398V135.097" stroke="#6381E0"
                stroke-width="1.04995"></path>
              <path id="Rectangle 91" opacity="0.1" d="M292.111 72.3398V135.097" stroke="#6381E0"
                stroke-width="1.04995"></path>
              <path id="Rectangle 92" opacity="0.1" d="M312.65 72.6924V135.449" stroke="#6381E0"
                stroke-width="1.04995"></path>
              <path id="Rectangle 93" opacity="0.1" d="M332.5 72.6924V135.449" stroke="#6381E0"
                stroke-width="1.04995"></path>
              <path id="Rectangle 94" opacity="0.1" d="M231.75 113.211L337.421 113.211"
                stroke="#6381E0" stroke-width="1.04995"></path>
              <path id="Rectangle 95" opacity="0.1" d="M231.75 90.7327L337.421 90.7327"
                stroke="#6381E0" stroke-width="1.04995"></path>
            </g>
          </g>
        </g>
        <g id="Group 1321315218">
          <g id="Group 1321315112">
            <path id="Vector 11"
              d="M232.225 125.04C232.225 125.04 243.341 113.442 252.674 113.102C261.379 112.784 264.236 122.664 272.928 122.098C284.955 121.314 283.005 104.143 294.59 100.935C302.536 98.7343 307.676 104.057 315.72 102.217C325.752 99.9229 327.523 88.1111 337.422 87.7446"
              stroke="#6381E0"></path>
          </g>
          <g id="Group 1321315112_2">
            <path id="Vector 11_2"
              d="M231.996 100.659H252.012H271.62L292.249 99.4331H312.061L336.98 99.4334"
              stroke="#6381E0" stroke-dasharray="2 2"></path>
          </g>
        </g>
      </g>
      <g id="ANIMATION_2" anim:opacity="1[4:5:0:ease-in-out]"
        data-svg-origin="267.8306350708008 165.75841522216797" transform="matrix(1,0,0,1,0,0)"
        style="translate: none; rotate: none; scale: none; transform-origin: 0px 0px;">
        <g id="Group_13">
          <g id="Group 1321315121_2">
            <path id="Vector_62"
              d="M363.321 269.191L364.719 289.018H323.075C323.075 289.018 321.512 283.442 332.499 282.836C335.525 282.672 343.897 276.538 343.897 276.538C346.824 273.947 348.255 265.026 348.255 265.026L363.305 269.191H363.321Z"
              fill="#182136"></path>
            <g id="Group_14">
              <path id="Vector_63"
                d="M486.51 142.899H434.52L437.859 188.359C438.78 200.79 428.895 211.384 416.396 211.384H468.385C480.885 211.384 490.753 200.79 489.849 188.359L486.51 142.899Z"
                fill="#182136"></path>
              <path id="Vector_64"
                d="M488.468 142.899H486.511L489.849 188.359C490.77 200.79 480.886 211.384 468.386 211.384H400.031V213.335H468.386C474.882 213.335 481.149 210.613 485.573 205.857C489.997 201.101 492.267 194.673 491.79 188.211L488.468 142.899Z"
                fill="#182136"></path>
              <path id="Vector_65" d="M466.774 211.384H400.031V213.335H466.774V211.384Z"
                fill="#182136"></path>
              <g id="Group_15">
                <path id="Vector_66"
                  d="M485.59 205.857C483.847 207.743 481.791 209.285 479.57 210.482L488.666 289.002H491.61L485.672 205.759C485.672 205.759 485.623 205.824 485.59 205.841V205.857Z"
                  fill="#182136"></path>
                <path id="Vector_67"
                  d="M449.308 213.335L439.341 289.019H442.285L455.624 213.335H449.308Z"
                  fill="#182136"></path>
              </g>
              <path id="Vector_68"
                d="M407.071 213.335L397.104 289.018H400.031L413.37 213.335H407.071Z" fill="#182136"></path>
            </g>
            <g id="Group_16">
              <path id="Vector_69"
                d="M423.074 90.962C418.172 93.0611 405.031 101.179 403.765 102.95C402.498 104.738 375.262 136.815 375.262 136.815L339.357 145.884V149.41H385.887C388.617 149.41 415.475 126.319 415.475 126.713C415.475 127.106 420.426 136.667 420.903 137.586C421.445 138.635 423.419 169.614 423.419 169.614L479.224 176.551C479.224 176.551 479.011 132.83 475.705 119.825C472.382 106.804 472.218 93.7171 465.277 90.9456C456.741 87.5345 439.883 88.4857 439.883 88.4857L423.041 90.9456L423.074 90.962Z"
                fill="#182136"></path>
              <path id="Vector_70"
                d="M432.893 96.8167L429.949 98.5058L433.173 102.934L432.433 162.661L439.702 167.958L446.692 161.152L436.133 102.688L437.844 98.7846L432.893 96.8167Z"
                fill="#182136"></path>
              <path id="Vector_71"
                d="M465.295 90.9621C471.446 92.5529 479.867 106.574 485.245 117.119C487.515 121.58 490.229 128.041 492.581 134.011C495.508 141.407 490.031 149.426 482.054 149.426H445.015L444.769 138.143L473.091 133.371C473.091 133.371 449.259 86.7967 465.278 90.9621H465.295Z"
                fill="#182136"></path>
              <path id="Vector_72"
                d="M437.269 139.013L444.785 138.144L445.015 149.427H437.269V139.013Z" fill="#182136"></path>
              <path id="Vector_73"
                d="M437.267 149.426L423.073 150.115L412.778 150.706L410.508 148.902L412.778 147.409L411.462 145.933L418.008 139.898L426.297 137.914L424.817 135.848L427.004 134.7L437.267 139.013V149.426Z"
                fill="#182136"></path>
              <path id="Vector_74"
                d="M423.436 169.647L368.321 181.897C360.328 183.668 354.407 190.392 353.683 198.526L345.706 266.207L366.282 272.029L377.679 205.775L465.639 174.895L423.436 169.647Z"
                fill="#182136"></path>
              <path id="Vector_75"
                d="M386.61 264.272L386.347 272.111C384.489 274.21 379.505 281.245 379.505 281.245C367.531 282.754 364.538 289.002 364.538 289.002H390.262C390.262 289.002 404.423 278.801 404.488 277.145C404.554 275.489 400.031 262.992 400.031 262.992L386.61 264.272Z"
                fill="#182136"></path>
              <g id="Group_17">
                <path id="Vector_76"
                  d="M413.863 53.7846C411.84 60.0164 414.504 61.7547 413.912 64.5426C413.139 68.1669 411.38 69.8232 411.544 70.8236C411.824 72.5783 414.899 71.7256 415.097 73.4803C415.804 79.6629 415.705 82.8772 416.774 84.1892C418.978 86.8787 426.379 85.1567 426.379 85.1567L428.09 100.736L433.781 96.1444L441.264 97.3743L438.188 55.4737C438.188 55.4737 416.56 45.4044 413.847 53.7846H413.863Z"
                  fill="#182136"></path>
                <path id="Vector_77"
                  d="M439.964 79.4826C439.964 79.4826 449.026 63.4111 450.473 57.3105C451.493 53.0138 445.802 52.7022 445.802 52.7022C445.802 52.7022 448.286 46.8148 444.273 44.8469C425.556 35.6468 387.448 56.6873 422.118 53.0794C422.118 53.0794 421.148 58.606 427.645 58.0321C427.645 58.0321 425.391 70.7744 427.201 71.1188C427.875 71.25 428.944 68.9869 428.944 68.9869C428.944 68.9869 432.118 61.3448 434.75 64.0835C437.381 66.8222 436.773 71.7748 430.638 72.972L439.947 79.499L439.964 79.4826Z"
                  fill="#182136"></path>
                <path id="Vector_78"
                  d="M426.544 86.5016L426.396 85.1404C430.244 84.386 436.461 81.8933 436.461 81.8933C436.461 81.8933 434.142 85.0748 426.544 86.4852V86.5016Z"
                  fill="#2A3A62" fill-opacity="0.19"></path>
                <path id="Vector_79"
                  d="M433.796 96.1445L440.326 84.55C440.326 84.55 443.451 85.616 444.339 86.6164C445.326 87.7479 444.437 99.736 443.944 100.474C443.385 101.31 436 98.4568 434.092 98.0632C434.092 98.0632 427.464 103.196 426.214 103.393C425.277 103.541 422.332 90.8474 423.286 88.9123C423.714 88.0267 426.543 86.5016 426.543 86.5016L433.796 96.1445Z"
                  fill="#182136"></path>
              </g>
              <g id="Group_18">
                <path id="Vector_80"
                  d="M448.255 147.606C448.074 147.606 447.91 147.475 447.893 147.295L446.545 137.849C446.512 137.652 446.66 137.471 446.857 137.439L474.406 133.126L460.673 105.394C460.591 105.214 460.673 104.984 460.837 104.902C461.018 104.804 461.248 104.902 461.331 105.066L475.278 133.257C475.327 133.355 475.327 133.486 475.278 133.585C475.229 133.683 475.13 133.765 475.015 133.781L447.318 138.111L448.617 147.196C448.65 147.393 448.502 147.59 448.304 147.606C448.288 147.606 448.272 147.606 448.255 147.606Z"
                  fill="#2A3A62"></path>
                <path id="Vector_81"
                  d="M425.986 101.097C425.986 101.097 425.937 101.097 425.904 101.097C425.805 101.081 425.723 101.015 425.674 100.933C425.542 100.737 422.532 96.0463 422.203 92.9796C422.187 92.7828 422.335 92.6024 422.532 92.5696C422.73 92.5368 422.911 92.7008 422.944 92.8976C423.207 95.3575 425.411 99.113 426.101 100.228L427.499 99.3262C427.664 99.2114 427.894 99.2606 428.009 99.441C428.124 99.605 428.075 99.8346 427.894 99.9494L426.184 101.048C426.184 101.048 426.052 101.114 425.986 101.114V101.097Z"
                  fill="#2A3A62"></path>
                <path id="Vector_82"
                  d="M441.15 99.2114C441.15 99.2114 441.117 99.2114 441.1 99.2114L437.877 98.7195C437.679 98.6867 437.531 98.5063 437.564 98.2931C437.597 98.0963 437.794 97.9487 437.992 97.9815L441.018 98.4571C441.659 97.7355 444.571 94.2752 444.423 89.9622C444.423 89.7654 444.571 89.585 444.784 89.585C444.949 89.585 445.163 89.7326 445.163 89.9458C445.36 95.1116 441.577 98.9655 441.429 99.1295C441.363 99.1951 441.265 99.2442 441.166 99.2442L441.15 99.2114Z"
                  fill="#2A3A62"></path>
                <path id="Vector_83"
                  d="M433.156 95.3902C433.057 95.3902 432.959 95.341 432.893 95.2754L429.077 91.2247C428.946 91.0771 428.946 90.8475 429.077 90.6999C429.225 90.5687 429.455 90.5687 429.603 90.7163L433.09 94.4226L438.501 85.9277C438.617 85.7637 438.83 85.6981 439.011 85.8129C439.176 85.9277 439.242 86.1573 439.126 86.3213L433.452 95.2262C433.386 95.3246 433.288 95.3902 433.173 95.3902C433.173 95.3902 433.156 95.3902 433.14 95.3902H433.156Z"
                  fill="#2A3A62"></path>
                <path id="Vector_84"
                  d="M414.67 125.516C414.554 125.516 414.423 125.451 414.357 125.336L411.15 120.268C411.035 120.104 411.084 119.875 411.265 119.76C411.429 119.662 411.66 119.711 411.775 119.875L414.982 124.942C415.097 125.106 415.048 125.336 414.867 125.451C414.801 125.483 414.735 125.5 414.67 125.5V125.516Z"
                  fill="#2A3A62"></path>
                <path id="Vector_85"
                  d="M424.062 138.521C424.062 138.521 423.98 138.521 423.947 138.504C423.749 138.439 423.651 138.225 423.717 138.045L424.473 135.749C424.523 135.585 424.671 135.454 424.851 135.503L430.46 135.798C430.657 135.798 430.822 135.979 430.805 136.192C430.805 136.389 430.624 136.553 430.411 136.536L425.082 136.258L424.407 138.291C424.358 138.439 424.21 138.537 424.062 138.537V138.521Z"
                  fill="#2A3A62"></path>
              </g>
              <path id="Vector_86"
                d="M479.257 176.584L479.669 180.438C481.429 196.968 468.435 211.383 451.774 211.383H400.048L403.946 270.979H383.387L374.423 203.626C373.157 194.541 379.439 186.145 388.535 184.767L442.597 176.6L445.047 172.336L479.274 176.6L479.257 176.584Z"
                fill="#182136"></path>
              <path id="Vector_87"
                d="M374.408 203.987C374.227 203.987 374.062 203.856 374.046 203.676C372.746 194.443 379.227 185.8 388.47 184.406L442.532 176.239C442.746 176.206 442.927 176.354 442.96 176.551C442.992 176.748 442.844 176.944 442.647 176.977L388.585 185.144C379.736 186.472 373.552 194.754 374.786 203.594C374.819 203.79 374.671 203.987 374.473 204.003C374.457 204.003 374.44 204.003 374.424 204.003L374.408 203.987Z"
                fill="#2A3A62"></path>
            </g>
          </g>
          <path id="Vector_88"
            d="M92.895 110.133C92.9608 106.017 93.4871 101.654 96.0364 98.44C98.7667 95.0125 103.619 93.5038 107.895 94.5369C112.171 95.5537 115.724 98.9484 117.237 103.065C118.947 107.755 118.141 112.97 116.76 117.759C115.214 123.154 112.961 128.353 110.099 133.19C108.29 136.257 102.763 143.752 98.8489 139.275C97.0397 137.208 96.3818 133.715 95.6582 131.157C94.7536 127.992 94.0628 124.761 93.6023 121.514C93.0595 117.759 92.8292 113.954 92.8786 110.149L92.895 110.133Z"
            fill="#182136"></path>
          <g id="Group_19">
            <path id="Vector_89"
              d="M51.5292 142.899H103.519L100.18 188.358C99.259 200.789 109.144 211.383 121.644 211.383H69.654C57.1541 211.383 47.2858 200.789 48.1904 188.358L51.5292 142.899Z"
              fill="#182136"></path>
            <path id="Vector_90"
              d="M49.5724 142.899H51.5296L48.1908 188.358C47.2697 200.789 57.1545 211.383 69.6544 211.383H138.009V213.335H69.6544C63.1577 213.335 56.8914 210.613 52.4671 205.857C48.0428 201.101 45.773 194.672 46.25 188.211L49.5724 142.899Z"
              fill="#182136"></path>
            <path id="Vector_91" d="M71.267 213.335H138.01V211.383H71.267V213.335Z" fill="#182136"></path>
            <g id="Group_20">
              <path id="Vector_92"
                d="M52.4503 205.857C54.1937 207.743 56.2496 209.284 58.47 210.481L49.3747 289.002H46.4307L52.3681 205.758C52.3681 205.758 52.4174 205.824 52.4503 205.84V205.857Z"
                fill="#182136"></path>
              <path id="Vector_93"
                d="M88.7327 213.335L98.6997 289.018H95.7557L82.417 213.335H88.7327Z" fill="#182136"></path>
            </g>
            <path id="Vector_94"
              d="M130.969 213.335L140.936 289.018H138.009L124.67 213.335H130.969Z" fill="#182136"></path>
          </g>
          <path id="Vector_95"
            d="M98.2885 87.2065C86.94 88.6661 72.746 90.9784 72.746 90.9784L59.7527 139.357C59.7527 139.357 54.1113 160.66 54.1113 173.648C54.1113 177.748 54.7034 181.208 55.1804 183.439C55.4929 184.865 57.0389 185.669 58.3876 185.111L91.3314 171.533L102.104 139.291C102.104 139.291 93.0254 119.874 95.7721 99.2438L98.2885 87.2229V87.2065Z"
            fill="#182136"></path>
          <g id="Group_21">
            <path id="Vector_96"
              d="M163.043 269.175L166.661 289.002H208.338C208.338 289.002 208.486 283.426 197.335 282.82C194.26 282.656 184.326 276.522 184.326 276.522C180.74 273.931 177.039 265.01 177.039 265.01L163.026 269.175H163.043Z"
              fill="#182136"></path>
            <g id="Group_22">
              <path id="Vector_97"
                d="M216.465 98.0137L216.63 101.326L213.62 102.802C213.62 102.802 214.343 106.377 213.57 106.558C212.781 106.755 206.235 109.756 206.235 109.756L196.712 114.167L193.291 107.788C193.291 107.788 197.518 100.588 197.83 100.113C198.143 99.6372 200.133 93.4218 201.038 93.6022C203.159 94.0122 201.992 101.015 201.992 101.015L216.465 98.0137Z"
                fill="#182136"></path>
              <path id="Vector_98"
                d="M190.658 107.116L193.027 105.213L200.724 114.987L197.303 117.267L190.658 107.116Z"
                fill="#182136"></path>
              <path id="Vector_99"
                d="M114.969 90.9622C114.969 90.9622 123.472 94.5865 127.666 96.7676C131.432 98.7192 137.764 101.343 141.12 103.606C144.228 105.705 166.152 123.417 166.152 123.417L190.247 104.607L200.001 118.185L173.504 140.079C169.228 143.621 163.159 143.998 158.455 141.03L126.58 123.728C126.58 123.728 115.067 160.922 114.59 169.614C114.113 178.322 84.8701 173.304 84.8701 173.304L101.597 135.815C116.268 112.347 114.952 90.9294 114.952 90.9294L114.969 90.9622Z"
                fill="#182136"></path>
            </g>
            <path id="Vector_100"
              d="M72.7475 90.9618C66.5963 92.5526 58.1753 106.574 52.7971 117.119C49.557 123.466 45.4452 133.896 42.682 141.193C41.1689 145.178 44.1294 149.442 48.3892 149.442H93.0105L93.2572 138.159L64.9351 133.387C64.9351 133.387 88.7671 86.8128 72.7475 90.9782V90.9618Z"
              fill="#182136"></path>
            <path id="Vector_101"
              d="M100.774 139.012L93.2576 138.143L93.0273 149.426H100.774V139.012Z" fill="#182136"></path>
            <path id="Vector_102"
              d="M100.773 149.426L114.967 150.115L125.263 150.705L127.533 148.901L125.263 147.409L126.579 145.933L120.033 139.898L111.744 137.914L113.224 135.847L111.036 134.699L100.773 139.012V149.426Z"
              fill="#182136"></path>
            <path id="Vector_103"
              d="M202.697 269.192L211.085 289.019H252.763C252.763 289.019 251.562 283.443 240.279 282.836C237.171 282.672 225.756 276.539 225.756 276.539C221.546 273.947 215.707 265.026 215.707 265.026L202.697 269.192Z"
              fill="#182136"></path>
            <path id="Vector_104"
              d="M91.1368 138.16C91.1368 138.16 91.1039 138.16 91.071 138.16L63.0121 133.781C62.8969 133.765 62.7983 133.683 62.7489 133.584C62.6996 133.486 62.6996 133.355 62.7489 133.256L76.6962 105.066C76.7948 104.885 77.0086 104.803 77.1896 104.902C77.3705 104.984 77.4527 105.213 77.354 105.394L63.6206 133.125L91.1697 137.438C91.3671 137.471 91.5151 137.651 91.4822 137.865C91.4493 138.045 91.3013 138.176 91.1204 138.176L91.1368 138.16Z"
              fill="#2A3A61"></path>
            <g id="Group_23">
              <path id="Vector_105"
                d="M105.839 97.0949L100.214 85.0249C100.214 85.0249 96.99 85.8121 96.0525 86.7796C94.9834 87.9112 95.5426 101.047 96.0196 101.195C96.9736 101.506 105.263 98.6857 105.263 98.6857C105.263 98.6857 111.612 104.589 112.845 104.885C113.766 105.114 117.664 92.6671 116.858 90.6663C116.496 89.7479 113.799 88.0096 113.799 88.0096L105.822 97.0785L105.839 97.0949Z"
                fill="#182136"></path>
              <path id="Vector_106"
                d="M128.965 56.3752C130.511 62.7382 127.715 64.2798 128.093 67.0841C128.587 70.7575 130.215 72.5451 129.968 73.5291C129.557 75.251 126.564 74.1686 126.218 75.907C125.034 82.0076 124.886 85.2383 123.718 86.4518C121.317 88.9609 114.064 86.6978 114.064 86.6978L111.153 102.113L105.824 97.1115L98.2744 97.7675L104.541 56.2276C104.541 56.2276 126.876 47.8311 128.932 56.3916L128.965 56.3752Z"
                fill="#182136"></path>
              <path id="Vector_107"
                d="M100.971 80.0069C100.971 80.0069 93.1749 63.2958 92.188 57.0968C91.4973 52.7345 97.188 52.8657 97.188 52.8657C97.188 52.8657 95.165 46.7979 99.3097 45.1416C118.668 37.3847 155.066 61.2623 120.757 55.0305C120.757 55.0305 121.3 60.6063 114.852 59.5567C114.852 59.5567 116.119 72.4303 114.293 72.6271C113.602 72.7091 112.714 70.364 112.714 70.364C112.714 70.364 110.148 62.4922 107.303 65.0341C104.458 67.5761 104.688 72.5451 110.724 74.2014L100.954 80.0069H100.971Z"
                fill="#182136"></path>
            </g>
            <path id="Vector_108"
              d="M114.605 169.647L166.447 179.634C171.43 180.602 175.706 183.75 178.075 188.211L220.887 268.568L204.028 275.653L160.361 205.775L72.4014 174.895L114.605 169.647Z"
              fill="#182136"></path>
            <path id="Vector_109"
              d="M164.375 202.265L183.076 270.208L161.563 273.226L139.688 211.367H86.2837C69.6063 211.367 56.613 196.952 58.3893 180.421L58.8005 176.567L93.0271 172.303L95.4777 176.567"
              fill="#182136"></path>
            <path id="Vector_110"
              d="M164.376 202.642C164.212 202.642 164.064 202.527 164.015 202.363C161.663 193.803 154.475 187.292 145.709 185.751L95.3968 176.944C95.1994 176.911 95.0678 176.715 95.1007 176.518C95.1336 176.321 95.331 176.19 95.5284 176.223L145.84 185.029C154.886 186.62 162.304 193.344 164.722 202.167C164.771 202.363 164.656 202.56 164.459 202.626C164.426 202.626 164.393 202.626 164.36 202.626L164.376 202.642Z"
              fill="#2A3A61"></path>
          </g>
          <path id="Vector_111"
            d="M385.735 289.019H389.979L369.847 158.446H360.571L385.735 289.019Z" fill="#182136"></path>
          <path id="Vector_112"
            d="M94.0941 289.019H89.8672L96.5776 158.446H105.837L94.0941 289.019Z" fill="#182136"></path>
          <path id="Vector_113"
            d="M96.8928 101.54C96.7283 101.54 96.5803 101.425 96.5309 101.261C96.4816 101.064 96.5967 100.867 96.7941 100.818L101.087 99.6867C101.284 99.6375 101.482 99.7523 101.531 99.949C101.58 100.146 101.465 100.343 101.268 100.392L96.975 101.523C96.975 101.523 96.9092 101.523 96.8763 101.523L96.8928 101.54Z"
            fill="#2A3A61"></path>
          <path id="Vector_114"
            d="M112.862 105.295C112.779 105.295 112.681 105.263 112.615 105.197L108.931 101.917C108.783 101.786 108.766 101.54 108.898 101.392C109.029 101.245 109.276 101.228 109.424 101.359L113.108 104.639C113.256 104.771 113.273 105.017 113.141 105.164C113.075 105.246 112.96 105.295 112.862 105.295Z"
            fill="#2A3A61"></path>
          <path id="Vector_115"
            d="M105.807 97.4728C104.228 97.4728 101.761 91.1426 100.429 87.3215C100.363 87.1247 100.461 86.9115 100.659 86.8459C100.856 86.7803 101.07 86.8787 101.136 87.0755C102.961 92.2741 105.1 96.702 105.807 96.7348C106.794 96.5708 110.247 92.7989 112.188 90.4702C112.32 90.3062 112.55 90.2898 112.715 90.421C112.879 90.5522 112.895 90.7818 112.764 90.9458C111.892 91.9954 107.484 97.2104 105.938 97.4728C105.905 97.4728 105.873 97.4728 105.84 97.4728H105.807Z"
            fill="#2A3A61"></path>
          <path id="Vector_116"
            d="M453.74 156.162V156.162C453.74 152.499 450.846 149.426 447.184 149.426H89.3914C85.1642 149.426 81.7373 152.853 81.7373 157.08V157.08C81.7373 161.307 85.1642 164.734 89.3914 164.734H267.739H445.167C449.902 164.734 453.74 160.896 453.74 156.162V156.162Z"
            fill="#182136"></path>
          <path id="Vector_117"
            d="M453.74 150.578V150.578C453.74 149.997 453.333 149.426 452.752 149.426H83.0466C82.3235 149.426 81.7373 150.012 81.7373 150.735V150.735C81.7373 151.458 82.3235 152.045 83.0466 152.045H267.739H452.274C453.084 152.045 453.74 151.388 453.74 150.578V150.578Z"
            fill="#2A3A61"></path>
          <path id="Vector_118"
            d="M193.469 137.226C194.275 137.226 194.998 137.489 195.64 137.866L195.13 131.372H210.936L209.258 152.576H196.807L196.215 145.065C195.426 145.721 194.406 146.131 193.288 146.115C190.821 146.066 188.88 144.032 188.929 141.588C188.979 139.129 191.018 137.193 193.469 137.243V137.226ZM193.337 143.934C194.587 143.966 195.623 142.966 195.656 141.72C195.689 140.473 194.686 139.44 193.436 139.407C192.186 139.375 191.15 140.375 191.117 141.621C191.084 142.868 192.087 143.901 193.337 143.934Z"
            fill="#131C2F"></path>
          <path id="Vector_119"
            d="M105.657 97.499L108.552 99.1484L106.265 101.744L105.998 146.191L100.622 150.108L95.4404 145.075L104.198 101.38L102.933 98.4935L105.657 97.499Z"
            fill="#2A3A61"></path>
        </g>
        <g id="Group 1321315122_2">
          <g id="Group_24">
            <path id="Vector_120"
              d="M225.31 145.23H342.834C347.7 145.23 352.196 141.357 352.857 136.573L352.83 65.2858C353.491 60.5022 350.106 56.6284 345.24 56.6284H227.716C222.85 56.6284 218.354 60.5022 217.693 65.2858L217.72 136.573C217.059 141.357 220.444 145.23 225.31 145.23Z"
              fill="#6381E0"></path>
            <path id="Vector_121"
              d="M228.456 142.661H339.161C343.745 142.661 347.98 139.012 348.603 134.506L349.247 69.8191C349.869 65.313 346.681 61.6641 342.097 61.6641H231.392C226.808 61.6641 222.574 65.313 221.951 69.8191L221.307 134.506C220.684 139.012 223.873 142.661 228.456 142.661Z"
              fill="#182136"></path>
            <path id="Vector_122"
              d="M215.6 144.611H354.462V146.223C354.462 149.161 351.989 151.527 348.919 151.527H221.143C218.072 151.527 215.6 149.161 215.6 146.223V144.611Z"
              fill="#6381E0"></path>
          </g>
          <g id="Group 1321315115_2">
            <g id="Group 1321315113_2">
              <path id="Rectangle 88_2" opacity="0.42" d="M231.75 72.698V135.455H338.309"
                stroke="#6381E0" stroke-width="1.04995"></path>
              <path id="Rectangle 89_2" opacity="0.1" d="M251.275 72.3396V135.097" stroke="#6381E0"
                stroke-width="1.04995"></path>
              <path id="Rectangle 90_2" opacity="0.1" d="M271.35 72.3396V135.097" stroke="#6381E0"
                stroke-width="1.04995"></path>
              <path id="Rectangle 91_2" opacity="0.1" d="M292.111 72.3396V135.097" stroke="#6381E0"
                stroke-width="1.04995"></path>
              <path id="Rectangle 92_2" opacity="0.1" d="M312.65 72.6924V135.449" stroke="#6381E0"
                stroke-width="1.04995"></path>
              <path id="Rectangle 93_2" opacity="0.1" d="M332.5 72.6924V135.449" stroke="#6381E0"
                stroke-width="1.04995"></path>
              <path id="Rectangle 94_2" opacity="0.1" d="M231.75 113.211L337.421 113.211"
                stroke="#6381E0" stroke-width="1.04995"></path>
              <path id="Rectangle 95_2" opacity="0.1" d="M231.75 90.7327L337.421 90.7327"
                stroke="#6381E0" stroke-width="1.04995"></path>
            </g>
          </g>
        </g>
        <g id="Group 1321315217">
          <rect id="Rectangle 109" x="249.32" y="113.211" width="3" height="21.4883" fill="#6381E0"></rect>
          <rect id="Rectangle 114" x="231.75" y="123.064" width="3" height="11.6353" fill="#6381E0"></rect>
          <rect id="Rectangle 110" x="270.043" y="101.863" width="3" height="32.8364" fill="#6381E0"></rect>
          <rect id="Rectangle 112" x="311.15" y="101.863" width="3" height="32.8364" fill="#6381E0"></rect>
          <rect id="Rectangle 113" x="329.5" y="113.211" width="3" height="21.4883" fill="#6381E0"></rect>
          <path id="Rectangle 111" d="M290.422 95.0273H293.422V134.7H290.422V95.0273Z"
            fill="#6381E0"></path>
        </g>
      </g>
      <g id="ANIMATION_3" anim:opacity="1[2:3:0:linear]"
        data-svg-origin="267.8301315307617 165.75841522216797" transform="matrix(1,0,0,1,0,0)"
        style="translate: none; rotate: none; scale: none; transform-origin: 0px 0px;">
        <g id="Group_25">
          <g id="Group 1321315121_3">
            <path id="Vector_123"
              d="M363.32 269.191L364.718 289.018H323.074C323.074 289.018 321.511 283.442 332.498 282.836C335.524 282.672 343.896 276.538 343.896 276.538C346.823 273.947 348.254 265.026 348.254 265.026L363.304 269.191H363.32Z"
              fill="#182136"></path>
            <g id="Group_26">
              <path id="Vector_124"
                d="M486.509 142.899H434.519L437.858 188.359C438.779 200.79 428.894 211.384 416.395 211.384H468.384C480.884 211.384 490.752 200.79 489.848 188.359L486.509 142.899Z"
                fill="#182136"></path>
              <path id="Vector_125"
                d="M488.467 142.899H486.51L489.848 188.359C490.769 200.79 480.885 211.384 468.385 211.384H400.03V213.335H468.385C474.882 213.335 481.148 210.613 485.572 205.857C489.997 201.101 492.266 194.673 491.789 188.211L488.467 142.899Z"
                fill="#182136"></path>
              <path id="Vector_126" d="M466.773 211.384H400.03V213.335H466.773V211.384Z"
                fill="#182136"></path>
              <g id="Group_27">
                <path id="Vector_127"
                  d="M485.589 205.857C483.846 207.743 481.79 209.285 479.569 210.482L488.665 289.002H491.609L485.671 205.759C485.671 205.759 485.622 205.824 485.589 205.841V205.857Z"
                  fill="#182136"></path>
                <path id="Vector_128"
                  d="M449.307 213.335L439.34 289.019H442.284L455.623 213.335H449.307Z"
                  fill="#182136"></path>
              </g>
              <path id="Vector_129"
                d="M407.07 213.335L397.103 289.018H400.03L413.369 213.335H407.07Z" fill="#182136"></path>
            </g>
            <g id="Group_28">
              <path id="Vector_130"
                d="M423.073 90.962C418.171 93.0611 405.03 101.179 403.764 102.95C402.497 104.738 375.261 136.815 375.261 136.815L339.356 145.884V149.41H385.886C388.616 149.41 415.474 126.319 415.474 126.713C415.474 127.106 420.425 136.667 420.902 137.586C421.444 138.635 423.418 169.614 423.418 169.614L479.223 176.551C479.223 176.551 479.01 132.83 475.704 119.825C472.381 106.804 472.217 93.7171 465.276 90.9456C456.74 87.5345 439.882 88.4857 439.882 88.4857L423.04 90.9456L423.073 90.962Z"
                fill="#182136"></path>
              <path id="Vector_131"
                d="M432.892 96.8167L429.948 98.5058L433.172 102.934L432.432 162.661L439.701 167.958L446.691 161.152L436.132 102.688L437.843 98.7846L432.892 96.8167Z"
                fill="#182136"></path>
              <path id="Vector_132"
                d="M465.294 90.9621C471.445 92.5529 479.866 106.574 485.244 117.119C487.514 121.58 490.228 128.041 492.58 134.011C495.507 141.407 490.03 149.426 482.053 149.426H445.014L444.768 138.143L473.09 133.371C473.09 133.371 449.258 86.7967 465.277 90.9621H465.294Z"
                fill="#182136"></path>
              <path id="Vector_133"
                d="M437.268 139.013L444.784 138.144L445.014 149.427H437.268V139.013Z" fill="#182136"></path>
              <path id="Vector_134"
                d="M437.266 149.426L423.073 150.115L412.777 150.706L410.507 148.902L412.777 147.409L411.461 145.933L418.007 139.898L426.296 137.914L424.816 135.848L427.003 134.7L437.266 139.013V149.426Z"
                fill="#182136"></path>
              <path id="Vector_135"
                d="M423.435 169.647L368.32 181.897C360.327 183.668 354.406 190.392 353.682 198.526L345.705 266.207L366.281 272.029L377.678 205.775L465.638 174.895L423.435 169.647Z"
                fill="#182136"></path>
              <path id="Vector_136"
                d="M386.609 264.272L386.346 272.111C384.488 274.21 379.504 281.245 379.504 281.245C367.53 282.754 364.537 289.002 364.537 289.002H390.261C390.261 289.002 404.422 278.801 404.487 277.145C404.553 275.489 400.03 262.992 400.03 262.992L386.609 264.272Z"
                fill="#182136"></path>
              <g id="Group_29">
                <path id="Vector_137"
                  d="M413.862 53.7846C411.839 60.0164 414.504 61.7547 413.911 64.5426C413.138 68.1669 411.379 69.8232 411.543 70.8236C411.823 72.5783 414.898 71.7256 415.096 73.4803C415.803 79.6629 415.704 82.8772 416.773 84.1892C418.977 86.8787 426.378 85.1567 426.378 85.1567L428.089 100.736L433.78 96.1444L441.263 97.3743L438.187 55.4737C438.187 55.4737 416.559 45.4044 413.846 53.7846H413.862Z"
                  fill="#182136"></path>
                <path id="Vector_138"
                  d="M439.963 79.4826C439.963 79.4826 449.025 63.4111 450.472 57.3105C451.492 53.0138 445.801 52.7022 445.801 52.7022C445.801 52.7022 448.285 46.8148 444.272 44.8469C425.555 35.6468 387.447 56.6873 422.117 53.0794C422.117 53.0794 421.147 58.606 427.644 58.0321C427.644 58.0321 425.39 70.7744 427.2 71.1188C427.874 71.25 428.943 68.9869 428.943 68.9869C428.943 68.9869 432.117 61.3448 434.749 64.0835C437.38 66.8222 436.772 71.7748 430.637 72.972L439.946 79.499L439.963 79.4826Z"
                  fill="#182136"></path>
                <path id="Vector_139"
                  d="M426.543 86.5016L426.395 85.1404C430.243 84.386 436.46 81.8933 436.46 81.8933C436.46 81.8933 434.141 85.0748 426.543 86.4852V86.5016Z"
                  fill="#2A3A62" fill-opacity="0.19"></path>
                <path id="Vector_140"
                  d="M433.795 96.1445L440.325 84.55C440.325 84.55 443.45 85.616 444.338 86.6164C445.325 87.7479 444.437 99.736 443.943 100.474C443.384 101.31 435.999 98.4568 434.091 98.0632C434.091 98.0632 427.463 103.196 426.213 103.393C425.276 103.541 422.331 90.8474 423.285 88.9123C423.713 88.0267 426.542 86.5016 426.542 86.5016L433.795 96.1445Z"
                  fill="#182136"></path>
              </g>
              <g id="Group_30">
                <path id="Vector_141"
                  d="M448.254 147.606C448.073 147.606 447.909 147.475 447.892 147.295L446.544 137.849C446.511 137.652 446.659 137.471 446.856 137.439L474.405 133.126L460.672 105.394C460.59 105.214 460.672 104.984 460.836 104.902C461.017 104.804 461.247 104.902 461.33 105.066L475.277 133.257C475.326 133.355 475.326 133.486 475.277 133.585C475.228 133.683 475.129 133.765 475.014 133.781L447.317 138.111L448.616 147.196C448.649 147.393 448.501 147.59 448.304 147.606C448.287 147.606 448.271 147.606 448.254 147.606Z"
                  fill="#2A3A62"></path>
                <path id="Vector_142"
                  d="M425.985 101.097C425.985 101.097 425.936 101.097 425.903 101.097C425.804 101.081 425.722 101.015 425.673 100.933C425.541 100.737 422.531 96.0463 422.202 92.9796C422.186 92.7828 422.334 92.6024 422.531 92.5696C422.729 92.5368 422.91 92.7008 422.943 92.8976C423.206 95.3575 425.41 99.113 426.1 100.228L427.498 99.3262C427.663 99.2114 427.893 99.2606 428.008 99.441C428.123 99.605 428.074 99.8346 427.893 99.9494L426.183 101.048C426.183 101.048 426.051 101.114 425.985 101.114V101.097Z"
                  fill="#2A3A62"></path>
                <path id="Vector_143"
                  d="M441.149 99.2114C441.149 99.2114 441.116 99.2114 441.099 99.2114L437.876 98.7195C437.678 98.6867 437.53 98.5063 437.563 98.2931C437.596 98.0963 437.793 97.9487 437.991 97.9815L441.017 98.4571C441.659 97.7355 444.57 94.2752 444.422 89.9622C444.422 89.7654 444.57 89.585 444.784 89.585C444.948 89.585 445.162 89.7326 445.162 89.9458C445.359 95.1116 441.576 98.9655 441.428 99.1295C441.362 99.1951 441.264 99.2442 441.165 99.2442L441.149 99.2114Z"
                  fill="#2A3A62"></path>
                <path id="Vector_144"
                  d="M433.155 95.3902C433.056 95.3902 432.958 95.341 432.892 95.2754L429.076 91.2247C428.945 91.0771 428.945 90.8475 429.076 90.6999C429.224 90.5687 429.454 90.5687 429.603 90.7163L433.089 94.4226L438.5 85.9277C438.616 85.7637 438.829 85.6981 439.01 85.8129C439.175 85.9277 439.241 86.1573 439.125 86.3213L433.451 95.2262C433.385 95.3246 433.287 95.3902 433.172 95.3902C433.172 95.3902 433.155 95.3902 433.139 95.3902H433.155Z"
                  fill="#2A3A62"></path>
                <path id="Vector_145"
                  d="M414.669 125.516C414.553 125.516 414.422 125.451 414.356 125.336L411.149 120.268C411.034 120.104 411.083 119.875 411.264 119.76C411.428 119.662 411.659 119.711 411.774 119.875L414.981 124.942C415.096 125.106 415.047 125.336 414.866 125.451C414.8 125.483 414.734 125.5 414.669 125.5V125.516Z"
                  fill="#2A3A62"></path>
                <path id="Vector_146"
                  d="M424.061 138.521C424.061 138.521 423.979 138.521 423.946 138.504C423.749 138.439 423.65 138.225 423.716 138.045L424.472 135.749C424.522 135.585 424.67 135.454 424.85 135.503L430.459 135.798C430.656 135.798 430.821 135.979 430.804 136.192C430.804 136.389 430.623 136.553 430.41 136.536L425.081 136.258L424.406 138.291C424.357 138.439 424.209 138.537 424.061 138.537V138.521Z"
                  fill="#2A3A62"></path>
              </g>
              <path id="Vector_147"
                d="M479.257 176.584L479.668 180.438C481.428 196.968 468.434 211.383 451.773 211.383H400.047L403.945 270.979H383.386L374.422 203.626C373.156 194.541 379.438 186.145 388.534 184.767L442.596 176.6L445.046 172.336L479.273 176.6L479.257 176.584Z"
                fill="#182136"></path>
              <path id="Vector_148"
                d="M374.407 203.987C374.226 203.987 374.061 203.856 374.045 203.676C372.745 194.443 379.226 185.8 388.469 184.406L442.531 176.239C442.745 176.206 442.926 176.354 442.959 176.551C442.991 176.748 442.843 176.944 442.646 176.977L388.584 185.144C379.735 186.472 373.551 194.754 374.785 203.594C374.818 203.79 374.67 203.987 374.472 204.003C374.456 204.003 374.439 204.003 374.423 204.003L374.407 203.987Z"
                fill="#2A3A62"></path>
            </g>
          </g>
          <path id="Vector_149"
            d="M92.895 110.133C92.9608 106.017 93.4871 101.654 96.0364 98.44C98.7667 95.0125 103.619 93.5038 107.895 94.5369C112.171 95.5537 115.724 98.9484 117.237 103.065C118.947 107.755 118.141 112.97 116.76 117.759C115.214 123.154 112.961 128.353 110.099 133.19C108.29 136.257 102.763 143.752 98.8489 139.275C97.0397 137.208 96.3818 133.715 95.6582 131.157C94.7536 127.992 94.0628 124.761 93.6023 121.514C93.0595 117.759 92.8292 113.954 92.8786 110.149L92.895 110.133Z"
            fill="#182136"></path>
          <g id="Group_31">
            <path id="Vector_150"
              d="M51.5292 142.899H103.519L100.18 188.358C99.259 200.789 109.144 211.383 121.644 211.383H69.654C57.1541 211.383 47.2858 200.789 48.1904 188.358L51.5292 142.899Z"
              fill="#182136"></path>
            <path id="Vector_151"
              d="M49.5724 142.899H51.5296L48.1908 188.358C47.2697 200.789 57.1545 211.383 69.6544 211.383H138.009V213.335H69.6544C63.1577 213.335 56.8914 210.613 52.4671 205.857C48.0428 201.101 45.773 194.672 46.25 188.211L49.5724 142.899Z"
              fill="#182136"></path>
            <path id="Vector_152" d="M71.267 213.335H138.01V211.383H71.267V213.335Z" fill="#182136"></path>
            <g id="Group_32">
              <path id="Vector_153"
                d="M52.4503 205.857C54.1937 207.743 56.2496 209.284 58.47 210.481L49.3747 289.002H46.4307L52.3681 205.758C52.3681 205.758 52.4174 205.824 52.4503 205.84V205.857Z"
                fill="#182136"></path>
              <path id="Vector_154"
                d="M88.7327 213.335L98.6997 289.018H95.7557L82.417 213.335H88.7327Z" fill="#182136"></path>
            </g>
            <path id="Vector_155"
              d="M130.969 213.335L140.936 289.018H138.009L124.67 213.335H130.969Z" fill="#182136"></path>
          </g>
          <path id="Vector_156"
            d="M98.2885 87.2065C86.94 88.6661 72.746 90.9784 72.746 90.9784L59.7527 139.357C59.7527 139.357 54.1113 160.66 54.1113 173.648C54.1113 177.748 54.7034 181.208 55.1804 183.439C55.4929 184.865 57.0389 185.669 58.3876 185.111L91.3314 171.533L102.104 139.291C102.104 139.291 93.0254 119.874 95.7721 99.2438L98.2885 87.2229V87.2065Z"
            fill="#182136"></path>
          <g id="Group_33">
            <path id="Vector_157"
              d="M163.043 269.175L166.661 289.002H208.338C208.338 289.002 208.486 283.426 197.335 282.82C194.26 282.656 184.326 276.522 184.326 276.522C180.74 273.931 177.039 265.01 177.039 265.01L163.026 269.175H163.043Z"
              fill="#182136"></path>
            <g id="Group_34">
              <path id="Vector_158"
                d="M216.465 98.0137L216.63 101.326L213.62 102.802C213.62 102.802 214.343 106.377 213.57 106.558C212.781 106.755 206.235 109.756 206.235 109.756L196.712 114.167L193.291 107.788C193.291 107.788 197.518 100.588 197.83 100.113C198.143 99.6372 200.133 93.4218 201.038 93.6022C203.159 94.0122 201.992 101.015 201.992 101.015L216.465 98.0137Z"
                fill="#182136"></path>
              <path id="Vector_159"
                d="M190.658 107.116L193.027 105.213L200.724 114.987L197.303 117.267L190.658 107.116Z"
                fill="#182136"></path>
              <path id="Vector_160"
                d="M114.969 90.9622C114.969 90.9622 123.472 94.5865 127.666 96.7676C131.432 98.7192 137.764 101.343 141.12 103.606C144.228 105.705 166.152 123.417 166.152 123.417L190.247 104.607L200.001 118.185L173.504 140.079C169.228 143.621 163.159 143.998 158.455 141.03L126.58 123.728C126.58 123.728 115.067 160.922 114.59 169.614C114.113 178.322 84.8701 173.304 84.8701 173.304L101.597 135.815C116.268 112.347 114.952 90.9294 114.952 90.9294L114.969 90.9622Z"
                fill="#182136"></path>
            </g>
            <path id="Vector_161"
              d="M72.7475 90.9618C66.5963 92.5526 58.1753 106.574 52.7971 117.119C49.557 123.466 45.4452 133.896 42.682 141.193C41.1689 145.178 44.1294 149.442 48.3892 149.442H93.0105L93.2572 138.159L64.9351 133.387C64.9351 133.387 88.7671 86.8128 72.7475 90.9782V90.9618Z"
              fill="#182136"></path>
            <path id="Vector_162"
              d="M100.774 139.012L93.2576 138.143L93.0273 149.426H100.774V139.012Z" fill="#182136"></path>
            <path id="Vector_163"
              d="M100.773 149.426L114.967 150.115L125.263 150.705L127.533 148.901L125.263 147.409L126.579 145.933L120.033 139.898L111.744 137.914L113.224 135.847L111.036 134.699L100.773 139.012V149.426Z"
              fill="#182136"></path>
            <path id="Vector_164"
              d="M202.697 269.192L211.085 289.019H252.763C252.763 289.019 251.562 283.443 240.279 282.836C237.171 282.672 225.756 276.539 225.756 276.539C221.546 273.947 215.707 265.026 215.707 265.026L202.697 269.192Z"
              fill="#182136"></path>
            <path id="Vector_165"
              d="M91.1368 138.16C91.1368 138.16 91.1039 138.16 91.071 138.16L63.0121 133.781C62.8969 133.765 62.7983 133.683 62.7489 133.584C62.6996 133.486 62.6996 133.355 62.7489 133.256L76.6962 105.066C76.7948 104.885 77.0086 104.803 77.1896 104.902C77.3705 104.984 77.4527 105.213 77.354 105.394L63.6206 133.125L91.1697 137.438C91.3671 137.471 91.5151 137.651 91.4822 137.865C91.4493 138.045 91.3013 138.176 91.1204 138.176L91.1368 138.16Z"
              fill="#2A3A61"></path>
            <g id="Group_35">
              <path id="Vector_166"
                d="M105.839 97.0949L100.214 85.0249C100.214 85.0249 96.99 85.8121 96.0525 86.7796C94.9834 87.9112 95.5426 101.047 96.0196 101.195C96.9736 101.506 105.263 98.6857 105.263 98.6857C105.263 98.6857 111.612 104.589 112.845 104.885C113.766 105.114 117.664 92.6671 116.858 90.6663C116.496 89.7479 113.799 88.0096 113.799 88.0096L105.822 97.0785L105.839 97.0949Z"
                fill="#182136"></path>
              <path id="Vector_167"
                d="M128.965 56.3752C130.511 62.7382 127.715 64.2798 128.093 67.0841C128.587 70.7575 130.215 72.5451 129.968 73.5291C129.557 75.251 126.564 74.1686 126.218 75.907C125.034 82.0076 124.886 85.2383 123.718 86.4518C121.317 88.9609 114.064 86.6978 114.064 86.6978L111.153 102.113L105.824 97.1115L98.2744 97.7675L104.541 56.2276C104.541 56.2276 126.876 47.8311 128.932 56.3916L128.965 56.3752Z"
                fill="#182136"></path>
              <path id="Vector_168"
                d="M100.971 80.0069C100.971 80.0069 93.1749 63.2958 92.188 57.0968C91.4973 52.7345 97.188 52.8657 97.188 52.8657C97.188 52.8657 95.165 46.7979 99.3097 45.1416C118.668 37.3847 155.066 61.2623 120.757 55.0305C120.757 55.0305 121.3 60.6063 114.852 59.5567C114.852 59.5567 116.119 72.4303 114.293 72.6271C113.602 72.7091 112.714 70.364 112.714 70.364C112.714 70.364 110.148 62.4922 107.303 65.0341C104.458 67.5761 104.688 72.5451 110.724 74.2014L100.954 80.0069H100.971Z"
                fill="#182136"></path>
            </g>
            <path id="Vector_169"
              d="M114.605 169.647L166.447 179.634C171.43 180.602 175.706 183.75 178.075 188.211L220.887 268.568L204.028 275.653L160.361 205.775L72.4014 174.895L114.605 169.647Z"
              fill="#182136"></path>
            <path id="Vector_170"
              d="M164.375 202.265L183.076 270.208L161.563 273.226L139.688 211.367H86.2837C69.6063 211.367 56.613 196.952 58.3893 180.421L58.8005 176.567L93.0271 172.303L95.4777 176.567"
              fill="#182136"></path>
            <path id="Vector_171"
              d="M164.376 202.642C164.212 202.642 164.064 202.527 164.015 202.363C161.663 193.803 154.475 187.292 145.709 185.751L95.3968 176.944C95.1994 176.911 95.0678 176.715 95.1007 176.518C95.1336 176.321 95.331 176.19 95.5284 176.223L145.84 185.029C154.886 186.62 162.304 193.344 164.722 202.167C164.771 202.363 164.656 202.56 164.459 202.626C164.426 202.626 164.393 202.626 164.36 202.626L164.376 202.642Z"
              fill="#2A3A61"></path>
          </g>
          <path id="Vector_172"
            d="M385.735 289.019H389.979L369.847 158.446H360.571L385.735 289.019Z" fill="#182136"></path>
          <path id="Vector_173"
            d="M94.0941 289.019H89.8672L96.5776 158.446H105.837L94.0941 289.019Z" fill="#182136"></path>
          <path id="Vector_174"
            d="M96.8928 101.54C96.7283 101.54 96.5803 101.425 96.5309 101.261C96.4816 101.064 96.5967 100.867 96.7941 100.818L101.087 99.6867C101.284 99.6375 101.482 99.7523 101.531 99.949C101.58 100.146 101.465 100.343 101.268 100.392L96.975 101.523C96.975 101.523 96.9092 101.523 96.8763 101.523L96.8928 101.54Z"
            fill="#2A3A61"></path>
          <path id="Vector_175"
            d="M112.862 105.295C112.779 105.295 112.681 105.263 112.615 105.197L108.931 101.917C108.783 101.786 108.766 101.54 108.898 101.392C109.029 101.245 109.276 101.228 109.424 101.359L113.108 104.639C113.256 104.771 113.273 105.017 113.141 105.164C113.075 105.246 112.96 105.295 112.862 105.295Z"
            fill="#2A3A61"></path>
          <path id="Vector_176"
            d="M105.807 97.4728C104.228 97.4728 101.761 91.1426 100.429 87.3215C100.363 87.1247 100.461 86.9115 100.659 86.8459C100.856 86.7803 101.07 86.8787 101.136 87.0755C102.961 92.2741 105.1 96.702 105.807 96.7348C106.794 96.5708 110.247 92.7989 112.188 90.4702C112.32 90.3062 112.55 90.2898 112.715 90.421C112.879 90.5522 112.895 90.7818 112.764 90.9458C111.892 91.9954 107.484 97.2104 105.938 97.4728C105.905 97.4728 105.873 97.4728 105.84 97.4728H105.807Z"
            fill="#2A3A61"></path>
          <path id="Vector_177"
            d="M453.74 156.162V156.162C453.74 152.499 450.846 149.426 447.184 149.426H89.3914C85.1642 149.426 81.7373 152.853 81.7373 157.08V157.08C81.7373 161.307 85.1642 164.734 89.3914 164.734H267.739H445.167C449.902 164.734 453.74 160.896 453.74 156.162V156.162Z"
            fill="#182136"></path>
          <path id="Vector_178"
            d="M453.74 150.578V150.578C453.74 149.997 453.333 149.426 452.752 149.426H83.0466C82.3235 149.426 81.7373 150.012 81.7373 150.735V150.735C81.7373 151.458 82.3235 152.045 83.0466 152.045H267.739H452.274C453.084 152.045 453.74 151.388 453.74 150.578V150.578Z"
            fill="#2A3A61"></path>
          <path id="Vector_179"
            d="M193.469 137.226C194.275 137.226 194.998 137.489 195.64 137.866L195.13 131.372H210.936L209.258 152.576H196.807L196.215 145.065C195.426 145.721 194.406 146.131 193.288 146.115C190.821 146.066 188.88 144.032 188.929 141.588C188.979 139.129 191.018 137.193 193.469 137.243V137.226ZM193.337 143.934C194.587 143.966 195.623 142.966 195.656 141.72C195.689 140.473 194.686 139.44 193.436 139.407C192.186 139.375 191.15 140.375 191.117 141.621C191.084 142.868 192.087 143.901 193.337 143.934Z"
            fill="#131C2F"></path>
          <path id="Vector_180"
            d="M105.657 97.499L108.552 99.1484L106.265 101.744L105.998 146.191L100.622 150.108L95.4404 145.075L104.198 101.38L102.933 98.4935L105.657 97.499Z"
            fill="#2A3A61"></path>
        </g>
        <g id="Group 1321315122_3">
          <g id="Group_36">
            <path id="Vector_181"
              d="M225.31 145.23H342.834C347.7 145.23 352.196 141.357 352.857 136.573L352.83 65.2858C353.491 60.5022 350.106 56.6284 345.24 56.6284H227.716C222.85 56.6284 218.354 60.5022 217.693 65.2858L217.72 136.573C217.059 141.357 220.444 145.23 225.31 145.23Z"
              fill="#6381E0"></path>
            <path id="Vector_182"
              d="M228.456 142.66H339.161C343.745 142.66 347.98 139.011 348.603 134.505L349.247 69.8186C349.869 65.3125 346.681 61.6636 342.097 61.6636H231.392C226.808 61.6636 222.574 65.3125 221.951 69.8186L221.307 134.505C220.684 139.011 223.873 142.66 228.456 142.66Z"
              fill="#182136"></path>
            <path id="Vector_183"
              d="M215.6 144.611H354.462V146.223C354.462 149.161 351.989 151.527 348.919 151.527H221.143C218.072 151.527 215.6 149.161 215.6 146.223V144.611Z"
              fill="#6381E0"></path>
          </g>
          <g id="Group 1321315115_3">
            <g id="Group 1321315113_3">
              <path id="Rectangle 88_3" opacity="0.42" d="M231.75 72.6985V135.455H338.309"
                stroke="#6381E0" stroke-width="1.04995"></path>
              <path id="Rectangle 89_3" opacity="0.1" d="M251.275 72.3398V135.097" stroke="#6381E0"
                stroke-width="1.04995"></path>
              <path id="Rectangle 90_3" opacity="0.1" d="M271.35 72.3398V135.097" stroke="#6381E0"
                stroke-width="1.04995"></path>
              <path id="Rectangle 91_3" opacity="0.1" d="M292.111 72.3398V135.097" stroke="#6381E0"
                stroke-width="1.04995"></path>
              <path id="Rectangle 92_3" opacity="0.1" d="M312.65 72.6924V135.449" stroke="#6381E0"
                stroke-width="1.04995"></path>
              <path id="Rectangle 93_3" opacity="0.1" d="M332.5 72.6924V135.449" stroke="#6381E0"
                stroke-width="1.04995"></path>
              <path id="Rectangle 94_3" opacity="0.1" d="M231.75 113.211L337.421 113.211"
                stroke="#6381E0" stroke-width="1.04995"></path>
              <path id="Rectangle 95_3" opacity="0.1" d="M231.75 90.7332L337.421 90.7332"
                stroke="#6381E0" stroke-width="1.04995"></path>
              <g id="Group 1321315112_3">
                <path id="Vector 11_3"
                  d="M231.887 121.804C231.887 121.804 239.787 94.7599 251.215 95.4405C261.185 96.0343 260.977 117.247 270.953 116.778C278.718 116.414 284.303 97.695 292.083 97.695C297.474 97.695 296.806 113.234 302.583 113.234C308.946 113.234 306.178 91.6559 312.957 91.4602C319.175 91.2807 325.555 99.6497 331.77 99.3705C339.853 99.0073 342.032 84.4053 342.032 84.4053"
                  stroke="#6381E0" stroke-width="1.04995"></path>
                <ellipse id="Ellipse 27" cx="231.888" cy="121.804" rx="1.32359" ry="1.33094"
                  fill="#6381E0"></ellipse>
                <ellipse id="Ellipse 28" cx="251.275" cy="94.9296" rx="1.32359" ry="1.33094"
                  fill="#6381E0"></ellipse>
                <g id="Ellipse 29">
                  <path
                    d="M272.655 116.971C272.655 117.706 272.062 118.302 271.331 118.302C270.6 118.302 270.008 117.706 270.008 116.971C270.008 116.236 270.6 115.64 271.331 115.64C272.062 115.64 272.655 116.236 272.655 116.971Z"
                    fill="#6381E0"></path>
                  <path
                    d="M293.814 97.8514C293.814 98.5865 293.221 99.1823 292.49 99.1823C291.759 99.1823 291.167 98.5865 291.167 97.8514C291.167 97.1164 291.759 96.5205 292.49 96.5205C293.221 96.5205 293.814 97.1164 293.814 97.8514Z"
                    fill="#6381E0"></path>
                  <path
                    d="M303.699 112.831C303.699 113.566 303.106 114.162 302.375 114.162C301.644 114.162 301.052 113.566 301.052 112.831C301.052 112.096 301.644 111.5 302.375 111.5C303.106 111.5 303.699 112.096 303.699 112.831Z"
                    fill="#6381E0"></path>
                  <path
                    d="M314.258 91.5804C314.258 92.3155 313.665 92.9114 312.934 92.9114C312.203 92.9114 311.611 92.3155 311.611 91.5804C311.611 90.8454 312.203 90.2495 312.934 90.2495C313.665 90.2495 314.258 90.8454 314.258 91.5804Z"
                    fill="#6381E0"></path>
                  <path
                    d="M334.165 99.6287C334.165 100.364 333.573 100.96 332.842 100.96C332.111 100.96 331.518 100.364 331.518 99.6287C331.518 98.8936 332.111 98.2977 332.842 98.2977C333.573 98.2977 334.165 98.8936 334.165 99.6287Z"
                    fill="#6381E0"></path>
                </g>
              </g>
            </g>
          </g>
        </g>
      </g>
    </g>
  </g>
</svg>