<svg width="300" height="300" viewBox="0 0 300 300" fill="none" xmlns="http://www.w3.org/2000/svg">
<path d="M270.277 61.3784C230.097 88.3243 170.796 152.338 147.46 202.591C128.269 175.376 110.511 151.274 82.5906 128.475C69.1376 117.488 52.5425 137.831 65.9856 148.808C96.163 173.447 118.475 197.331 137.507 226.961C143.423 236.169 157.224 234.966 161.479 224.903C181.574 177.375 232.503 110.368 269.979 78.9082C294.419 120.023 298.088 173.438 270.297 220.687C215.988 313.029 83.3562 312.433 29.7926 219.653C-23.781 126.854 43.1959 10.8474 150.353 10.8474C186.417 10.8474 217.927 23.9823 241.82 44.9524C243.819 46.7123 246.851 46.5632 248.671 44.6143L248.74 44.5447C250.63 42.5163 250.49 39.3146 248.402 37.4851C222.351 14.6059 187.839 0.417101 148.335 0.914257C33.8892 2.36595 -36.0409 125.502 21.1918 224.625C78.6034 324.056 222.113 324.056 279.524 224.625C310.497 170.982 304.571 107.962 270.287 61.3784H270.277Z" fill="white"/>
</svg>
