<svg width="256" height="316" viewBox="0 0 256 316" fill="none" xmlns="http://www.w3.org/2000/svg">
<g opacity="0.9">
<path d="M254.709 307.76C254.689 312.275 250.755 315.923 245.88 315.92L9.30398 315.388C4.44611 315.385 0.523332 311.696 0.526369 307.18L1.30653 8.48208C1.30957 3.96599 5.26108 0.302979 10.1185 0.321639L246.694 0.869493C251.552 0.888153 255.475 4.5454 255.472 9.06148L254.692 307.759L254.709 307.76Z" fill="white"/>
<rect x="26.4868" y="31.7028" width="220.662" height="6.40786" rx="3.20393" fill="#D7E0F5"/>
<path d="M37.2324 102.12C36.8151 102.128 36.4051 101.981 36.0903 101.703L27.0558 93.7669C26.3603 93.1593 26.2944 92.0977 26.9021 91.4095C27.5098 90.714 28.5713 90.6481 29.2595 91.2557L36.9761 98.0352L49.144 82.8583C49.7224 82.1335 50.7767 82.0237 51.4941 82.5947C52.2116 83.1731 52.3288 84.2274 51.7504 84.9448L38.4916 101.491C38.2061 101.85 37.7888 102.069 37.3349 102.113C37.2983 102.113 37.2617 102.113 37.225 102.113L37.2324 102.12Z" fill="#D7E0F5"/>
<rect x="85.8955" y="81.7583" width="106.048" height="4.27104" rx="2.13552" fill="#D7E0F5"/>
<rect x="210.298" y="81.7589" width="36.8505" height="4.27104" rx="2.13552" fill="#D7E0F5"/>
<rect x="85.8955" y="98.3209" width="73.9078" height="4.27188" rx="2.13594" fill="#D7E0F5"/>
<rect x="173.241" y="98.3209" width="73.9078" height="4.27188" rx="2.13594" fill="#D7E0F5"/>
<path d="M37.2324 145.174C36.8151 145.181 36.4051 145.035 36.0903 144.757L27.0558 136.821C26.3603 136.213 26.2944 135.151 26.9021 134.463C27.5098 133.768 28.5713 133.702 29.2595 134.309L36.9761 141.089L49.144 125.912C49.7224 125.187 50.7767 125.077 51.4941 125.648C52.2116 126.227 52.3288 127.281 51.7504 127.999L38.4916 144.545C38.2061 144.903 37.7888 145.123 37.3349 145.167C37.2983 145.167 37.2617 145.167 37.225 145.167L37.2324 145.174Z" fill="#D7E0F5"/>
<rect x="85.8955" y="126.659" width="106.048" height="2.42486" rx="1.21243" fill="#D7E0F5"/>
<rect x="210.298" y="126.659" width="36.8505" height="2.42486" rx="1.21243" fill="#D7E0F5"/>
<rect x="85.8955" y="141.375" width="73.9078" height="2.42486" rx="1.21243" fill="#D7E0F5"/>
<rect x="173.242" y="141.375" width="73.9078" height="2.42486" rx="1.21243" fill="#D7E0F5"/>
<path d="M37.2324 188.228C36.8151 188.235 36.4051 188.089 36.0903 187.81L27.0558 179.874C26.3603 179.267 26.2944 178.205 26.9021 177.517C27.5098 176.821 28.5713 176.755 29.2595 177.363L36.9761 184.142L49.144 168.966C49.7224 168.241 50.7767 168.131 51.4941 168.702C52.2116 169.28 52.3288 170.335 51.7504 171.052L38.4916 187.598C38.2061 187.957 37.7888 188.176 37.3349 188.22C37.2983 188.22 37.2617 188.22 37.225 188.22L37.2324 188.228Z" fill="#D7E0F5"/>
<rect x="85.896" y="167.865" width="106.048" height="4.27111" rx="2.13556" fill="#D7E0F5"/>
<rect x="210.299" y="167.866" width="36.8505" height="4.27111" rx="2.13556" fill="#D7E0F5"/>
<rect x="85.896" y="184.428" width="73.9078" height="4.27191" rx="2.13595" fill="#D7E0F5"/>
<rect x="173.242" y="184.428" width="73.9078" height="4.27191" rx="2.13595" fill="#D7E0F5"/>
<path d="M37.2324 231.281C36.8151 231.288 36.4051 231.142 36.0903 230.864L27.0558 222.928C26.3603 222.32 26.2944 221.258 26.9021 220.57C27.5098 219.875 28.5713 219.809 29.2595 220.416L36.9761 227.196L49.144 212.019C49.7224 211.294 50.7767 211.184 51.4941 211.755C52.2116 212.334 52.3288 213.388 51.7504 214.106L38.4916 230.652C38.2061 231.01 37.7888 231.23 37.3349 231.274C37.2983 231.274 37.2617 231.274 37.225 231.274L37.2324 231.281Z" fill="#D7E0F5"/>
<rect x="85.896" y="214.668" width="106.048" height="2.42486" rx="1.21243" fill="#D7E0F5"/>
<rect x="210.299" y="214.668" width="36.8505" height="2.42486" rx="1.21243" fill="#D7E0F5"/>
<rect x="85.896" y="225.58" width="73.9078" height="2.42486" rx="1.21243" fill="#D7E0F5"/>
<rect x="173.241" y="225.58" width="73.9078" height="2.42486" rx="1.21243" fill="#D7E0F5"/>
<path d="M37.2324 273.863C36.8151 273.87 36.4051 273.724 36.0903 273.445L27.0558 265.509C26.3603 264.902 26.2944 263.84 26.9021 263.152C27.5098 262.456 28.5713 262.39 29.2595 262.998L36.9761 269.778L49.144 254.601C49.7224 253.876 50.7767 253.766 51.4941 254.337C52.2116 254.915 52.3288 255.97 51.7504 256.687L38.4916 273.233C38.2061 273.592 37.7888 273.812 37.3349 273.855C37.2983 273.855 37.2617 273.855 37.225 273.855L37.2324 273.863Z" fill="#D7E0F5"/>
<rect x="85.896" y="255.348" width="73.9078" height="2.42486" rx="1.21243" fill="#D7E0F5"/>
<rect x="173.242" y="255.348" width="73.9078" height="2.42486" rx="1.21243" fill="#D7E0F5"/>
<rect x="85.896" y="270.064" width="161.253" height="2.42486" rx="1.21243" fill="#D7E0F5"/>
</g>
</svg>
