<svg width="393" height="393" viewBox="0 0 393 393" fill="none" xmlns="http://www.w3.org/2000/svg">
<path d="M360.416 154.36C356.432 138.955 350.329 124.408 342.448 111.032L360.742 83.5236L335.367 58.1486L309.992 32.7736L282.484 51.0679C269.108 43.1873 254.561 37.0842 239.156 33.0995L232.653 0.732666L160.868 0.732666L154.35 33.0995C138.944 37.0842 124.398 43.1873 111.036 51.0679L83.5282 32.7736L58.1532 58.1486L32.7782 83.5236L51.0725 111.032C43.1919 124.408 37.074 138.955 33.1041 154.36L0.737305 160.878L0.737305 232.663L33.1041 239.166C37.074 254.571 43.1919 269.118 51.0725 282.494L32.7782 310.002L58.1532 335.377L83.5282 360.752L111.036 342.458C124.398 350.339 138.959 356.442 154.35 360.427L160.868 392.793H232.653L239.156 360.427C254.561 356.442 269.108 350.339 282.484 342.458L309.992 360.752L335.367 335.377L360.742 310.002L342.448 282.494C350.343 269.118 356.446 254.571 360.416 239.166L392.768 232.663V160.878L360.416 154.36ZM196.745 322.52C127.286 322.52 70.9814 266.215 70.9814 196.756C70.9814 127.297 127.286 70.9916 196.745 70.9916C266.204 70.9916 322.509 127.297 322.509 196.756C322.509 266.215 266.204 322.52 196.745 322.52Z" fill="white"/>
<path d="M257.578 160.716C254.188 154.99 250.046 149.855 245.326 145.396L249.481 132.22L236.339 124.974L223.197 117.727L214.271 128.272C207.982 126.66 201.429 125.898 194.777 126.086L188.404 113.839L159.566 122.177L160.707 135.938C154.981 139.328 149.846 143.47 145.393 148.188L132.217 144.034L124.97 157.175L117.724 170.317L128.269 179.243C126.657 185.532 125.888 192.087 126.083 198.737L113.837 205.116L122.176 233.955L135.934 232.807C139.319 238.535 143.466 243.669 148.186 248.127L144.032 261.303L157.174 268.55L170.316 275.796L179.242 265.251C185.525 266.865 192.084 267.626 198.73 267.439L205.108 279.685L233.947 271.346L232.8 257.588C238.526 254.197 243.661 250.056 248.119 245.336L261.296 249.49L268.542 236.348L275.789 223.206L265.244 214.28C266.862 207.989 267.624 201.436 267.429 194.786L279.671 188.415L271.333 159.577L257.578 160.716ZM211.359 247.285C183.454 255.354 154.293 239.274 146.225 211.369C138.156 183.465 154.236 154.304 182.141 146.236C210.045 138.167 239.206 154.247 247.274 182.151C255.343 210.056 239.263 239.217 211.359 247.285Z" fill="white"/>
</svg>
