<svg width="458" height="300" viewBox="0 0 458 300" fill="none" xmlns="http://www.w3.org/2000/svg">
<mask id="path-1-outside-1_7121_12966" maskUnits="userSpaceOnUse" x="0" y="0.000488281" width="458" height="300" fill="black">
<rect fill="white" y="0.000488281" width="458" height="300"/>
<path d="M455.919 90.0984C456.481 90.0984 457 89.7874 457 89.3915C457 88.9957 456.524 88.7129 455.919 88.7129H415.671V29.418H455.919C456.481 29.418 457 29.1069 457 28.7111C457 28.3152 456.524 28.0324 455.919 28.0324H415.671V1.70739C415.671 1.31153 415.196 1.00049 414.59 1.00049C413.985 1.00049 413.51 1.31153 413.51 1.70739V28.0324H322.854V1.70739C322.854 1.31153 322.379 1.00049 321.774 1.00049C321.168 1.00049 320.693 1.31153 320.693 1.70739V28.0324H230.038V1.70739C230.038 1.31153 229.562 1.00049 228.957 1.00049C228.351 1.00049 227.876 1.31153 227.876 1.70739V28.0324H137.221V1.70739C137.221 1.31153 136.745 1.00049 136.183 1.00049C135.621 1.00049 135.102 1.31153 135.102 1.70739V28.0324H44.4471V1.70739C44.4471 1.31153 43.9715 1.00049 43.3663 1.00049C42.761 1.00049 42.2855 1.31153 42.2855 1.70739V28.0324H2.0375C1.43227 28.0324 1 28.3435 1 28.7111C1 29.0786 1.4755 29.418 2.0375 29.418H42.2855V88.7129H2.0375C1.43227 88.7129 1 89.0239 1 89.3915C1 89.7591 1.4755 90.0984 2.0375 90.0984H42.2855V149.393H2.0375C1.43227 149.393 1 149.704 1 150.1C1 150.496 1.4755 150.807 2.0375 150.807H42.2855V210.102H2.0375C1.43227 210.102 1 210.413 1 210.809C1 211.205 1.4755 211.516 2.0375 211.516H42.2855V270.811H2.0375C1.43227 270.811 1 271.122 1 271.49C1 271.857 1.4755 272.196 2.0375 272.196H42.2855V298.521C42.2855 298.917 42.761 299.228 43.3663 299.228C43.9715 299.228 44.4471 298.917 44.4471 298.521V272.196H135.102V298.521C135.102 298.917 135.578 299.228 136.183 299.228C136.788 299.228 137.221 298.917 137.221 298.521V272.196H227.876V298.521C227.876 298.917 228.351 299.228 228.957 299.228C229.562 299.228 230.038 298.917 230.038 298.521V272.196H320.693V298.521C320.693 298.917 321.168 299.228 321.774 299.228C322.379 299.228 322.854 298.917 322.854 298.521V272.196H413.51V298.521C413.51 298.917 413.985 299.228 414.59 299.228C415.196 299.228 415.671 298.917 415.671 298.521V272.196H455.919C456.481 272.196 457 271.885 457 271.49C457 271.094 456.524 270.811 455.919 270.811H415.671V211.516H455.919C456.481 211.516 457 211.205 457 210.809C457 210.413 456.524 210.102 455.919 210.102H415.671V150.807H455.919C456.481 150.807 457 150.496 457 150.1C457 149.704 456.524 149.393 455.919 149.393H415.671V90.0984H455.919ZM413.553 29.3897V88.6846H322.898V29.3897H413.553ZM320.736 29.3897V88.6846H230.081V29.3897H320.736ZM227.963 150.779V210.074H137.307V150.779H227.963ZM137.307 149.393V90.0984H227.963V149.393H137.307ZM230.081 150.779H320.736V210.074H230.081V150.779ZM230.081 149.393V90.0984H320.736V149.393H230.081ZM227.963 29.3897V88.6846H137.307V29.3897H227.963ZM44.4903 29.3897H135.146V88.6846H44.4903V29.3897ZM44.4903 90.0984H135.146V149.393H44.4903V90.0984ZM44.4903 150.779H135.146V210.074H44.4903V150.779ZM44.4903 270.783V211.488H135.146V270.783H44.4903ZM137.307 270.783V211.488H227.963V270.783H137.307ZM230.081 270.783V211.488H320.736V270.783H230.081ZM413.553 270.783H322.898V211.488H413.553V270.783ZM413.553 210.074H322.898V150.779H413.553V210.074ZM413.553 149.393H322.898V90.0984H413.553V149.393Z"/>
<path d="M30.5124 261.373C29.7217 261.373 28.931 261.197 28.2533 260.845C26.6344 260.015 26.3709 258.456 27.6133 257.375L133.448 166.802C134.314 166.073 135.707 165.721 137.063 165.897L231.565 178.092L302.272 100.268C303.175 99.2623 305.02 98.8349 306.715 99.2372L379.605 117.015L423.957 30.0628C424.635 28.7804 426.706 28.0763 428.664 28.5289C430.584 28.9564 431.638 30.3645 430.96 31.6469L385.404 120.988C385.065 121.616 384.387 122.144 383.521 122.421C382.618 122.698 381.601 122.748 380.66 122.522L307.053 104.568L236.61 182.141C235.819 183.021 234.276 183.499 232.77 183.272L137.966 171.027L33.4868 260.418C32.7714 261.046 31.6796 261.373 30.5877 261.373H30.5124Z"/>
</mask>
<path d="M455.919 90.0984C456.481 90.0984 457 89.7874 457 89.3915C457 88.9957 456.524 88.7129 455.919 88.7129H415.671V29.418H455.919C456.481 29.418 457 29.1069 457 28.7111C457 28.3152 456.524 28.0324 455.919 28.0324H415.671V1.70739C415.671 1.31153 415.196 1.00049 414.59 1.00049C413.985 1.00049 413.51 1.31153 413.51 1.70739V28.0324H322.854V1.70739C322.854 1.31153 322.379 1.00049 321.774 1.00049C321.168 1.00049 320.693 1.31153 320.693 1.70739V28.0324H230.038V1.70739C230.038 1.31153 229.562 1.00049 228.957 1.00049C228.351 1.00049 227.876 1.31153 227.876 1.70739V28.0324H137.221V1.70739C137.221 1.31153 136.745 1.00049 136.183 1.00049C135.621 1.00049 135.102 1.31153 135.102 1.70739V28.0324H44.4471V1.70739C44.4471 1.31153 43.9715 1.00049 43.3663 1.00049C42.761 1.00049 42.2855 1.31153 42.2855 1.70739V28.0324H2.0375C1.43227 28.0324 1 28.3435 1 28.7111C1 29.0786 1.4755 29.418 2.0375 29.418H42.2855V88.7129H2.0375C1.43227 88.7129 1 89.0239 1 89.3915C1 89.7591 1.4755 90.0984 2.0375 90.0984H42.2855V149.393H2.0375C1.43227 149.393 1 149.704 1 150.1C1 150.496 1.4755 150.807 2.0375 150.807H42.2855V210.102H2.0375C1.43227 210.102 1 210.413 1 210.809C1 211.205 1.4755 211.516 2.0375 211.516H42.2855V270.811H2.0375C1.43227 270.811 1 271.122 1 271.49C1 271.857 1.4755 272.196 2.0375 272.196H42.2855V298.521C42.2855 298.917 42.761 299.228 43.3663 299.228C43.9715 299.228 44.4471 298.917 44.4471 298.521V272.196H135.102V298.521C135.102 298.917 135.578 299.228 136.183 299.228C136.788 299.228 137.221 298.917 137.221 298.521V272.196H227.876V298.521C227.876 298.917 228.351 299.228 228.957 299.228C229.562 299.228 230.038 298.917 230.038 298.521V272.196H320.693V298.521C320.693 298.917 321.168 299.228 321.774 299.228C322.379 299.228 322.854 298.917 322.854 298.521V272.196H413.51V298.521C413.51 298.917 413.985 299.228 414.59 299.228C415.196 299.228 415.671 298.917 415.671 298.521V272.196H455.919C456.481 272.196 457 271.885 457 271.49C457 271.094 456.524 270.811 455.919 270.811H415.671V211.516H455.919C456.481 211.516 457 211.205 457 210.809C457 210.413 456.524 210.102 455.919 210.102H415.671V150.807H455.919C456.481 150.807 457 150.496 457 150.1C457 149.704 456.524 149.393 455.919 149.393H415.671V90.0984H455.919ZM413.553 29.3897V88.6846H322.898V29.3897H413.553ZM320.736 29.3897V88.6846H230.081V29.3897H320.736ZM227.963 150.779V210.074H137.307V150.779H227.963ZM137.307 149.393V90.0984H227.963V149.393H137.307ZM230.081 150.779H320.736V210.074H230.081V150.779ZM230.081 149.393V90.0984H320.736V149.393H230.081ZM227.963 29.3897V88.6846H137.307V29.3897H227.963ZM44.4903 29.3897H135.146V88.6846H44.4903V29.3897ZM44.4903 90.0984H135.146V149.393H44.4903V90.0984ZM44.4903 150.779H135.146V210.074H44.4903V150.779ZM44.4903 270.783V211.488H135.146V270.783H44.4903ZM137.307 270.783V211.488H227.963V270.783H137.307ZM230.081 270.783V211.488H320.736V270.783H230.081ZM413.553 270.783H322.898V211.488H413.553V270.783ZM413.553 210.074H322.898V150.779H413.553V210.074ZM413.553 149.393H322.898V90.0984H413.553V149.393Z" fill="white"/>
<path d="M30.5124 261.373C29.7217 261.373 28.931 261.197 28.2533 260.845C26.6344 260.015 26.3709 258.456 27.6133 257.375L133.448 166.802C134.314 166.073 135.707 165.721 137.063 165.897L231.565 178.092L302.272 100.268C303.175 99.2623 305.02 98.8349 306.715 99.2372L379.605 117.015L423.957 30.0628C424.635 28.7804 426.706 28.0763 428.664 28.5289C430.584 28.9564 431.638 30.3645 430.96 31.6469L385.404 120.988C385.065 121.616 384.387 122.144 383.521 122.421C382.618 122.698 381.601 122.748 380.66 122.522L307.053 104.568L236.61 182.141C235.819 183.021 234.276 183.499 232.77 183.272L137.966 171.027L33.4868 260.418C32.7714 261.046 31.6796 261.373 30.5877 261.373H30.5124Z" fill="white"/>
<path d="M455.919 90.0984C456.481 90.0984 457 89.7874 457 89.3915C457 88.9957 456.524 88.7129 455.919 88.7129H415.671V29.418H455.919C456.481 29.418 457 29.1069 457 28.7111C457 28.3152 456.524 28.0324 455.919 28.0324H415.671V1.70739C415.671 1.31153 415.196 1.00049 414.59 1.00049C413.985 1.00049 413.51 1.31153 413.51 1.70739V28.0324H322.854V1.70739C322.854 1.31153 322.379 1.00049 321.774 1.00049C321.168 1.00049 320.693 1.31153 320.693 1.70739V28.0324H230.038V1.70739C230.038 1.31153 229.562 1.00049 228.957 1.00049C228.351 1.00049 227.876 1.31153 227.876 1.70739V28.0324H137.221V1.70739C137.221 1.31153 136.745 1.00049 136.183 1.00049C135.621 1.00049 135.102 1.31153 135.102 1.70739V28.0324H44.4471V1.70739C44.4471 1.31153 43.9715 1.00049 43.3663 1.00049C42.761 1.00049 42.2855 1.31153 42.2855 1.70739V28.0324H2.0375C1.43227 28.0324 1 28.3435 1 28.7111C1 29.0786 1.4755 29.418 2.0375 29.418H42.2855V88.7129H2.0375C1.43227 88.7129 1 89.0239 1 89.3915C1 89.7591 1.4755 90.0984 2.0375 90.0984H42.2855V149.393H2.0375C1.43227 149.393 1 149.704 1 150.1C1 150.496 1.4755 150.807 2.0375 150.807H42.2855V210.102H2.0375C1.43227 210.102 1 210.413 1 210.809C1 211.205 1.4755 211.516 2.0375 211.516H42.2855V270.811H2.0375C1.43227 270.811 1 271.122 1 271.49C1 271.857 1.4755 272.196 2.0375 272.196H42.2855V298.521C42.2855 298.917 42.761 299.228 43.3663 299.228C43.9715 299.228 44.4471 298.917 44.4471 298.521V272.196H135.102V298.521C135.102 298.917 135.578 299.228 136.183 299.228C136.788 299.228 137.221 298.917 137.221 298.521V272.196H227.876V298.521C227.876 298.917 228.351 299.228 228.957 299.228C229.562 299.228 230.038 298.917 230.038 298.521V272.196H320.693V298.521C320.693 298.917 321.168 299.228 321.774 299.228C322.379 299.228 322.854 298.917 322.854 298.521V272.196H413.51V298.521C413.51 298.917 413.985 299.228 414.59 299.228C415.196 299.228 415.671 298.917 415.671 298.521V272.196H455.919C456.481 272.196 457 271.885 457 271.49C457 271.094 456.524 270.811 455.919 270.811H415.671V211.516H455.919C456.481 211.516 457 211.205 457 210.809C457 210.413 456.524 210.102 455.919 210.102H415.671V150.807H455.919C456.481 150.807 457 150.496 457 150.1C457 149.704 456.524 149.393 455.919 149.393H415.671V90.0984H455.919ZM413.553 29.3897V88.6846H322.898V29.3897H413.553ZM320.736 29.3897V88.6846H230.081V29.3897H320.736ZM227.963 150.779V210.074H137.307V150.779H227.963ZM137.307 149.393V90.0984H227.963V149.393H137.307ZM230.081 150.779H320.736V210.074H230.081V150.779ZM230.081 149.393V90.0984H320.736V149.393H230.081ZM227.963 29.3897V88.6846H137.307V29.3897H227.963ZM44.4903 29.3897H135.146V88.6846H44.4903V29.3897ZM44.4903 90.0984H135.146V149.393H44.4903V90.0984ZM44.4903 150.779H135.146V210.074H44.4903V150.779ZM44.4903 270.783V211.488H135.146V270.783H44.4903ZM137.307 270.783V211.488H227.963V270.783H137.307ZM230.081 270.783V211.488H320.736V270.783H230.081ZM413.553 270.783H322.898V211.488H413.553V270.783ZM413.553 210.074H322.898V150.779H413.553V210.074ZM413.553 149.393H322.898V90.0984H413.553V149.393Z" stroke="white" mask="url(#path-1-outside-1_7121_12966)"/>
<path d="M30.5124 261.373C29.7217 261.373 28.931 261.197 28.2533 260.845C26.6344 260.015 26.3709 258.456 27.6133 257.375L133.448 166.802C134.314 166.073 135.707 165.721 137.063 165.897L231.565 178.092L302.272 100.268C303.175 99.2623 305.02 98.8349 306.715 99.2372L379.605 117.015L423.957 30.0628C424.635 28.7804 426.706 28.0763 428.664 28.5289C430.584 28.9564 431.638 30.3645 430.96 31.6469L385.404 120.988C385.065 121.616 384.387 122.144 383.521 122.421C382.618 122.698 381.601 122.748 380.66 122.522L307.053 104.568L236.61 182.141C235.819 183.021 234.276 183.499 232.77 183.272L137.966 171.027L33.4868 260.418C32.7714 261.046 31.6796 261.373 30.5877 261.373H30.5124Z" stroke="white" mask="url(#path-1-outside-1_7121_12966)"/>
</svg>
