<svg width="320" height="246" viewBox="0 0 320 246" fill="none" xmlns="http://www.w3.org/2000/svg">
<g clip-path="url(#clip0_5471_6105)">
<path opacity="0.1" d="M64.6065 172.695C64.9423 171.665 64.5767 170.536 63.7009 169.898L41.136 153.474C39.961 152.619 40.567 150.76 42.0202 150.762L69.9298 150.791C71.013 150.792 71.9737 150.095 72.3093 149.065L80.9576 122.528C81.4079 121.146 83.3631 121.148 83.8108 122.53L92.4101 149.082C92.7438 150.113 93.7031 150.811 94.7862 150.812L122.697 150.838C124.15 150.839 124.752 152.699 123.576 153.552L100.98 169.938C100.103 170.574 99.7357 171.702 100.069 172.732L108.668 199.281C109.115 200.663 107.532 201.811 106.358 200.956L83.795 184.53C82.9194 183.893 81.7329 183.891 80.8561 184.527L58.2602 200.909C57.0838 201.762 55.5032 200.611 55.9537 199.23L64.6065 172.695Z" fill="#B4C2EE" stroke="#E9EEF8"/>
<path opacity="0.2" d="M99.1274 168.407C99.4633 167.377 99.0976 166.248 98.2218 165.61L61.8414 139.131C60.6664 138.276 61.2724 136.417 62.7256 136.418L107.723 136.465C108.806 136.466 109.767 135.769 110.102 134.739L124.046 91.9546C124.496 90.573 126.451 90.5747 126.899 91.9572L140.763 134.765C141.096 135.796 142.056 136.494 143.139 136.495L188.136 136.536C189.589 136.537 190.192 138.397 189.016 139.25L152.587 165.669C151.71 166.304 151.342 167.432 151.676 168.463L165.538 211.266C165.986 212.648 164.403 213.796 163.228 212.94L126.852 186.458C125.977 185.821 124.79 185.82 123.913 186.455L87.4837 212.867C86.3072 213.72 84.7266 212.569 85.1771 211.188L99.1274 168.407Z" fill="#B4C2EE" stroke="#E9EEF8"/>
<path opacity="0.3" d="M134.076 160.465C134.412 159.435 134.047 158.306 133.171 157.669L81.7735 120.259C80.5985 119.404 81.2045 117.545 82.6577 117.546L146.229 117.612C147.312 117.613 148.273 116.916 148.608 115.886L168.306 55.442C168.757 54.0603 170.712 54.0621 171.16 55.4446L190.746 115.923C191.08 116.953 192.039 117.651 193.122 117.652L256.693 117.71C258.146 117.711 258.748 119.571 257.572 120.424L206.107 157.747C205.23 158.382 204.863 159.51 205.196 160.541L224.78 221.011C225.228 222.393 223.645 223.541 222.471 222.686L171.08 185.273C170.204 184.635 169.018 184.634 168.141 185.27L116.674 222.584C115.498 223.437 113.917 222.286 114.368 220.904L134.076 160.465Z" fill="#B4C2EE" stroke="#E9EEF8"/>
<path opacity="0.4" d="M171.865 158.633C172.201 157.603 171.835 156.474 170.959 155.837L101.604 105.357C100.43 104.501 101.036 102.642 102.489 102.644L188.27 102.732C189.354 102.733 190.314 102.037 190.65 101.007L217.23 19.4443C217.681 18.0627 219.636 18.0645 220.084 19.4469L246.513 101.055C246.847 102.085 247.806 102.783 248.889 102.784L334.67 102.862C336.123 102.864 336.725 104.724 335.549 105.577L266.104 155.938C265.227 156.574 264.859 157.702 265.193 158.732L291.619 240.33C292.067 241.712 290.484 242.86 289.309 242.005L219.964 191.52C219.088 190.883 217.902 190.882 217.025 191.517L147.577 241.868C146.401 242.721 144.82 241.57 145.271 240.188L171.865 158.633Z" fill="#B4C2EE" stroke="#E9EEF8"/>
<path d="M228.595 147.152C228.931 146.122 228.565 144.993 227.689 144.355L149.677 87.5742C148.502 86.7191 149.108 84.86 150.561 84.8615L247.051 84.961C248.134 84.9621 249.095 84.2656 249.43 83.2357L279.329 -8.50792C279.779 -9.88955 281.734 -9.88776 282.182 -8.50531L311.911 83.2891C312.244 84.3196 313.204 85.0179 314.287 85.0189L410.774 85.1066C412.228 85.108 412.83 86.9679 411.654 87.8209L333.54 144.469C332.663 145.105 332.296 146.233 332.629 147.263L362.354 239.046C362.802 240.428 361.219 241.576 360.045 240.72L322.945 213.711L282.043 183.934C281.167 183.297 279.981 183.296 279.104 183.932L200.988 240.567C199.811 241.42 198.231 240.269 198.681 238.887L228.595 147.152Z" fill="#B4C2EE" stroke="#E9EEF8"/>
</g>
<defs>
<clipPath id="clip0_5471_6105">
<rect width="320" height="245" fill="white" transform="translate(-0.217285 0.5)"/>
</clipPath>
</defs>
</svg>
