<svg width="24" height="25" viewBox="0 0 24 25" fill="none" xmlns="http://www.w3.org/2000/svg">
<path d="M19.0088 12.6528H21.12" stroke="#182136" stroke-linecap="round"/>
<path d="M2.87988 12.6528H14.5086" stroke="#182136" stroke-linecap="round"/>
<path d="M9.95215 6.6416H21.1196" stroke="#182136" stroke-linecap="round"/>
<path d="M2.87988 6.6416H5.45988" stroke="#182136" stroke-linecap="round"/>
<path d="M13.125 18.6641H21.12" stroke="#182136" stroke-linecap="round"/>
<path d="M2.87988 18.6641H8.62488" stroke="#182136" stroke-linecap="round"/>
<path d="M7.70605 8.77539C8.94869 8.77539 9.95605 7.76803 9.95605 6.52539C9.95605 5.28275 8.94869 4.27539 7.70605 4.27539C6.46341 4.27539 5.45605 5.28275 5.45605 6.52539C5.45605 7.76803 6.46341 8.77539 7.70605 8.77539Z" stroke="#182136"/>
<path d="M16.7588 14.9028C18.0014 14.9028 19.0088 13.8955 19.0088 12.6528C19.0088 11.4102 18.0014 10.4028 16.7588 10.4028C15.5161 10.4028 14.5088 11.4102 14.5088 12.6528C14.5088 13.8955 15.5161 14.9028 16.7588 14.9028Z" stroke="#182136"/>
<path d="M10.875 20.9141C12.1176 20.9141 13.125 19.9067 13.125 18.6641C13.125 17.4214 12.1176 16.4141 10.875 16.4141C9.63236 16.4141 8.625 17.4214 8.625 18.6641C8.625 19.9067 9.63236 20.9141 10.875 20.9141Z" stroke="#182136"/>
</svg>
