<svg width="520" height="358" viewBox="0 0 520 358" fill="none" xmlns="http://www.w3.org/2000/svg">
<path d="M345.208 356.401L345.208 356.401L483.319 331.617C483.319 331.617 483.319 331.617 483.319 331.617C485.918 331.15 487.929 328.498 487.929 325.263V313.173L0.492371 317.419V322.185C0.492371 325.505 2.67419 328.143 5.3493 328.369L340.381 356.627C340.381 356.627 340.381 356.627 340.381 356.627C341.991 356.763 343.612 356.688 345.208 356.401Z" fill="#080E27" stroke="#080E27" stroke-width="0.985091"/>
<path d="M157.089 296.025L157.265 296.037L483.082 319.062C488.632 319.455 493.126 315.298 493.126 309.773V76.8534C493.126 71.3133 488.608 66.8188 483.048 66.8188H157.23C152.74 66.8188 149.036 70.8155 149.036 75.8432V286.4C149.036 291.37 152.659 295.608 157.089 296.025Z" fill="#080E27" stroke="#080E27" stroke-width="0.985091"/>
<path d="M151.893 296.025L152.069 296.037L477.886 319.062C483.435 319.455 487.929 315.298 487.929 309.773V76.8534C487.929 71.3133 483.412 66.8188 477.851 66.8188H152.034C147.543 66.8188 143.839 70.8155 143.839 75.8432V286.4C143.839 291.37 147.462 295.608 151.893 296.025Z" fill="#2C3B64" stroke="#080E27" stroke-width="0.985091"/>
<path d="M465.328 80.5403L465.328 80.5403L161.863 79.2853L161.865 78.7928L161.863 79.2853C158.214 79.27 155.191 82.4979 155.191 86.5901V272.328C155.191 276.428 158.23 279.893 161.897 280.135L465.362 300.136L465.33 300.627L465.362 300.136C469.823 300.43 473.437 297.059 473.437 292.6V88.6769C473.437 84.2025 469.801 80.5579 465.328 80.5403Z" fill="#080E27" stroke="#080E27" stroke-width="0.985091"/>
<g filter="url(#filter0_i_5287_671)">
<path d="M177.287 267.628L450.051 284.365C454.315 284.628 457.781 281.619 457.781 277.648V106.996C457.781 103.024 454.315 99.7904 450.051 99.7747L177.287 98.7245C173.726 98.7106 170.845 101.632 170.845 105.25V260.683C170.845 264.301 173.726 267.41 177.287 267.628Z" fill="#5E72B1" fill-opacity="0.1"/>
</g>
<path d="M450.049 100.356L450.049 100.356L177.285 99.3054C174.055 99.2928 171.426 101.944 171.426 105.25V260.683C171.426 264.001 174.075 266.849 177.323 267.048L450.087 283.786L450.051 284.365L450.087 283.786C454.062 284.03 457.2 281.241 457.2 277.648V106.996C457.2 103.383 454.033 100.37 450.049 100.356Z" stroke="#080E27" stroke-width="1.16178"/>
<circle cx="314.313" cy="191.553" r="16.5" stroke="#6381E0"/>
<g opacity="0.1">
<g filter="url(#filter1_i_5287_671)">
<path d="M170.845 121.27L457.781 123.539V106.996C457.781 103.024 454.315 99.7904 450.051 99.7747L177.287 98.7245C173.726 98.7106 170.845 101.632 170.845 105.25V121.27Z" fill="#2C3B64"/>
</g>
<path d="M171.426 120.693L457.2 122.954V106.996C457.2 103.383 454.033 100.37 450.049 100.356L450.049 100.356L177.285 99.3054C174.055 99.2928 171.426 101.944 171.426 105.25V120.693Z" stroke="#080E27" stroke-width="1.16178"/>
</g>
<path d="M303.927 72.6978C303.927 74.611 305.404 76.1307 307.184 76.136C308.966 76.1414 310.447 74.6303 310.447 72.7123C310.447 70.7938 308.965 69.276 307.183 69.274C305.405 69.2742 303.927 70.7859 303.927 72.6978Z" fill="#2C3B64" stroke="#080E27" stroke-width="0.985091"/>
<rect x="220.943" y="166.106" width="187.177" height="49.2649" rx="11.6178" transform="rotate(0.5 220.943 166.106)" fill="#5E72B1"/>
<path d="M240.277 195.408L240.365 185.27L242.202 185.286L242.164 189.578L246.862 189.619L246.9 185.327L248.742 185.343L248.653 195.482L246.811 195.465L246.849 191.158L242.151 191.117L242.113 195.424L240.277 195.408ZM259.754 190.509C259.745 191.601 259.532 192.535 259.116 193.31C258.703 194.082 258.144 194.672 257.437 195.078C256.734 195.484 255.938 195.684 255.05 195.676C254.163 195.668 253.369 195.455 252.67 195.036C251.974 194.614 251.424 194.014 251.022 193.235C250.623 192.452 250.428 191.516 250.437 190.427C250.447 189.335 250.658 188.403 251.071 187.631C251.487 186.855 252.047 186.264 252.75 185.858C253.456 185.452 254.254 185.252 255.141 185.26C256.029 185.268 256.821 185.481 257.517 185.9C258.217 186.318 258.766 186.919 259.165 187.701C259.567 188.48 259.764 189.416 259.754 190.509ZM257.908 190.493C257.915 189.724 257.8 189.074 257.563 188.544C257.33 188.01 257.004 187.606 256.584 187.332C256.164 187.055 255.678 186.913 255.127 186.909C254.576 186.904 254.088 187.036 253.663 187.307C253.238 187.574 252.903 187.972 252.657 188.501C252.415 189.027 252.291 189.674 252.284 190.443C252.277 191.212 252.39 191.864 252.623 192.397C252.86 192.927 253.188 193.331 253.608 193.609C254.028 193.883 254.514 194.023 255.065 194.027C255.616 194.032 256.104 193.901 256.529 193.634C256.954 193.364 257.287 192.966 257.529 192.44C257.775 191.911 257.901 191.262 257.908 190.493ZM261.447 195.593L261.535 185.454L265.416 185.488C266.149 185.495 266.757 185.616 267.24 185.851C267.727 186.083 268.088 186.398 268.326 186.796C268.567 187.194 268.685 187.644 268.681 188.146C268.677 188.558 268.595 188.911 268.434 189.203C268.273 189.492 268.058 189.726 267.789 189.905C267.52 190.085 267.22 190.212 266.889 190.289L266.889 190.388C267.248 190.411 267.592 190.524 267.92 190.728C268.252 190.929 268.522 191.212 268.73 191.577C268.938 191.942 269.04 192.382 269.035 192.897C269.031 193.422 268.899 193.892 268.642 194.309C268.384 194.723 267.998 195.048 267.484 195.284C266.971 195.521 266.326 195.636 265.551 195.629L261.447 195.593ZM263.297 194.075L265.272 194.092C265.939 194.098 266.42 193.975 266.716 193.723C267.015 193.468 267.167 193.14 267.17 192.737C267.173 192.437 267.101 192.165 266.954 191.923C266.808 191.678 266.598 191.484 266.326 191.343C266.053 191.199 265.727 191.125 265.347 191.122L263.323 191.104L263.297 194.075ZM263.334 189.782L265.151 189.798C265.468 189.801 265.754 189.746 266.009 189.632C266.264 189.516 266.465 189.351 266.612 189.138C266.763 188.921 266.839 188.664 266.842 188.367C266.845 187.975 266.709 187.65 266.434 187.393C266.163 187.137 265.756 187.006 265.215 187.002L263.359 186.985L263.334 189.782ZM279.713 190.683C279.703 191.775 279.49 192.709 279.074 193.484C278.662 194.256 278.102 194.846 277.395 195.252C276.692 195.659 275.897 195.858 275.009 195.85C274.121 195.842 273.327 195.629 272.628 195.211C271.932 194.789 271.383 194.188 270.98 193.409C270.581 192.626 270.386 191.691 270.396 190.602C270.405 189.509 270.616 188.577 271.029 187.805C271.445 187.029 272.005 186.439 272.708 186.032C273.415 185.626 274.212 185.426 275.1 185.434C275.987 185.442 276.779 185.655 277.475 186.074C278.175 186.492 278.724 187.093 279.123 187.875C279.526 188.655 279.722 189.59 279.713 190.683ZM277.866 190.667C277.873 189.898 277.758 189.248 277.522 188.718C277.289 188.185 276.962 187.781 276.542 187.506C276.122 187.229 275.636 187.088 275.085 187.083C274.534 187.078 274.046 187.211 273.621 187.481C273.196 187.748 272.861 188.146 272.616 188.675C272.373 189.201 272.249 189.849 272.242 190.618C272.236 191.387 272.349 192.038 272.582 192.571C272.818 193.101 273.146 193.505 273.566 193.783C273.986 194.057 274.472 194.197 275.023 194.202C275.574 194.206 276.062 194.075 276.487 193.808C276.912 193.538 277.245 193.14 277.488 192.614C277.733 192.085 277.859 191.436 277.866 190.667ZM281.405 195.767L281.493 185.629L288.087 185.686L288.074 187.226L283.317 187.184L283.292 189.937L287.708 189.975L287.695 191.515L283.279 191.476L283.255 194.244L288.052 194.286L288.039 195.825L281.405 195.767ZM302.435 190.881C302.425 191.974 302.212 192.907 301.796 193.683C301.383 194.455 300.824 195.044 300.117 195.45C299.414 195.857 298.618 196.056 297.731 196.048C296.843 196.041 296.049 195.827 295.35 195.409C294.654 194.987 294.104 194.386 293.702 193.607C293.303 192.825 293.108 191.889 293.118 190.8C293.127 189.707 293.338 188.775 293.751 188.003C294.167 187.228 294.727 186.637 295.43 186.23C296.136 185.824 296.934 185.625 297.821 185.632C298.709 185.64 299.501 185.853 300.197 186.272C300.897 186.691 301.446 187.291 301.845 188.074C302.248 188.853 302.444 189.789 302.435 190.881ZM300.588 190.865C300.595 190.096 300.48 189.446 300.244 188.916C300.011 188.383 299.684 187.979 299.264 187.705C298.844 187.427 298.358 187.286 297.807 187.281C297.256 187.276 296.768 187.409 296.343 187.679C295.918 187.946 295.583 188.344 295.338 188.873C295.095 189.399 294.971 190.047 294.964 190.816C294.957 191.585 295.071 192.236 295.304 192.77C295.54 193.3 295.868 193.704 296.288 193.981C296.708 194.256 297.194 194.395 297.745 194.4C298.296 194.405 298.784 194.274 299.209 194.007C299.634 193.736 299.967 193.338 300.21 192.812C300.455 192.283 300.581 191.634 300.588 190.865ZM304.127 195.966L304.215 185.827L310.735 185.884L310.722 187.423L306.038 187.383L306.018 189.759L307.973 189.776C308.749 189.783 309.413 189.916 309.965 190.174C310.52 190.43 310.945 190.789 311.238 191.25C311.531 191.711 311.675 192.252 311.669 192.873C311.664 193.497 311.51 194.045 311.209 194.517C310.908 194.987 310.478 195.353 309.917 195.615C309.361 195.878 308.694 196.006 307.919 195.999L304.127 195.966ZM305.976 194.477L307.932 194.494C308.341 194.497 308.688 194.423 308.974 194.27C309.259 194.118 309.475 193.915 309.623 193.662C309.773 193.409 309.85 193.134 309.853 192.837C309.856 192.408 309.694 192.042 309.367 191.739C309.043 191.432 308.574 191.276 307.96 191.271L306.005 191.254L305.976 194.477ZM312.089 187.371L312.101 185.896L315.527 185.926L315.514 187.401L312.089 187.371ZM316.018 189.846L318.592 189.869C319.371 189.875 320.037 190.008 320.589 190.267C321.144 190.523 321.569 190.881 321.862 191.343C322.155 191.804 322.297 192.345 322.288 192.965C322.286 193.589 322.134 194.137 321.833 194.61C321.532 195.079 321.101 195.445 320.541 195.708C319.985 195.97 319.317 196.098 318.538 196.091L314.746 196.058L314.834 185.92L316.671 185.936L316.595 194.569L318.551 194.586C318.963 194.59 319.312 194.516 319.598 194.363C319.883 194.21 320.099 194.007 320.246 193.755C320.397 193.502 320.472 193.227 320.472 192.93C320.479 192.501 320.318 192.135 319.991 191.831C319.667 191.525 319.196 191.369 318.579 191.364L316.005 191.341L316.018 189.846ZM331.366 196.203L329.524 196.187L329.599 187.583L327.916 187.569C327.461 187.565 327.086 187.629 326.791 187.762C326.499 187.891 326.281 188.084 326.137 188.34C325.996 188.593 325.924 188.899 325.921 189.259C325.918 189.619 325.985 189.923 326.121 190.172C326.258 190.417 326.47 190.606 326.76 190.737C327.052 190.865 327.425 190.931 327.877 190.935L330.342 190.956L330.329 192.481L327.616 192.457C326.837 192.451 326.182 192.316 325.649 192.054C325.117 191.789 324.714 191.417 324.441 190.939C324.171 190.459 324.039 189.893 324.045 189.243C324.05 188.596 324.191 188.031 324.466 187.548C324.744 187.062 325.15 186.686 325.683 186.42C326.217 186.154 326.872 186.025 327.647 186.031L331.454 186.065L331.366 196.203ZM326.163 191.563L328.168 191.581L325.663 196.154L323.613 196.136L326.163 191.563ZM333.356 196.221L333.445 186.082L337.326 186.116C338.059 186.122 338.666 186.243 339.15 186.478C339.636 186.71 339.998 187.025 340.235 187.424C340.476 187.822 340.594 188.272 340.59 188.773C340.586 189.186 340.504 189.538 340.343 189.831C340.182 190.12 339.967 190.354 339.698 190.533C339.429 190.712 339.13 190.84 338.799 190.916L338.798 191.015C339.158 191.038 339.502 191.152 339.83 191.356C340.161 191.557 340.431 191.84 340.639 192.205C340.847 192.57 340.949 193.009 340.945 193.524C340.94 194.049 340.809 194.52 340.551 194.937C340.293 195.35 339.908 195.676 339.394 195.912C338.88 196.148 338.236 196.263 337.46 196.257L333.356 196.221ZM335.206 194.702L337.181 194.719C337.848 194.725 338.329 194.602 338.625 194.351C338.925 194.096 339.076 193.767 339.08 193.364C339.082 193.064 339.01 192.793 338.864 192.551C338.717 192.305 338.508 192.112 338.235 191.971C337.963 191.827 337.636 191.753 337.257 191.749L335.232 191.732L335.206 194.702ZM335.244 190.41L337.06 190.426C337.377 190.429 337.663 190.373 337.918 190.26C338.174 190.143 338.375 189.978 338.522 189.765C338.672 189.549 338.749 189.292 338.751 188.995C338.755 188.602 338.619 188.277 338.344 188.021C338.072 187.764 337.666 187.634 337.124 187.629L335.268 187.613L335.244 190.41ZM341.86 196.295L341.873 194.77L342.161 194.758C342.55 194.738 342.86 194.601 343.09 194.345C343.323 194.09 343.497 193.677 343.611 193.107C343.728 192.537 343.809 191.772 343.854 190.812L344.062 186.175L350.706 186.233L350.617 196.371L348.82 196.356L348.896 187.727L345.762 187.699L345.571 191.396C345.515 192.505 345.385 193.423 345.181 194.15C344.98 194.878 344.655 195.42 344.206 195.776C343.761 196.132 343.144 196.306 342.355 196.299L341.86 196.295ZM352.62 196.389L352.708 186.25L359.303 186.308L359.289 187.847L354.532 187.806L354.508 190.558L358.924 190.597L358.91 192.136L354.494 192.098L354.47 194.865L359.267 194.907L359.254 196.447L352.62 196.389ZM361.088 196.463L361.176 186.324L363.013 186.34L362.976 190.632L367.674 190.673L367.711 186.381L369.553 186.397L369.464 196.536L367.623 196.52L367.66 192.213L362.962 192.172L362.925 196.479L361.088 196.463ZM371.55 186.415L373.372 186.43L373.312 193.341L373.406 193.342L378.234 186.473L379.882 186.487L379.794 196.626L377.957 196.61L378.017 189.704L377.933 189.703L373.091 196.567L371.462 196.553L371.55 186.415ZM381.795 196.643L381.883 186.505L388.478 186.562L388.464 188.102L383.707 188.06L383.683 190.813L388.099 190.851L388.085 192.391L383.669 192.352L383.645 195.12L388.442 195.162L388.429 196.701L381.795 196.643Z" fill="#0A102A"/>
<path d="M155.009 296.135L4.47186 316.812L340.381 345.145C340.381 345.145 340.381 345.145 340.381 345.145C341.991 345.28 343.612 345.205 345.208 344.918L345.208 344.918L484.496 319.923L160.127 295.974C158.421 295.848 156.707 295.901 155.009 296.135L155.009 296.135Z" fill="#2C3B64" stroke="#080E27" stroke-width="0.985091"/>
<g style="mix-blend-mode:multiply" opacity="0.3">
<path d="M353.574 332.771L436.091 320.49L167.254 300.346L87.2279 311.251L353.574 332.771Z" fill="#080E27"/>
<path d="M353.574 332.771L436.091 320.49L167.254 300.346L87.2279 311.251L353.574 332.771Z" stroke="#080E27" stroke-width="0.985091"/>
</g>
<path d="M327.846 1.30679L72.675 7.64587C66.9413 7.78911 62.201 13.268 62.201 20.0204V67.1714C62.201 73.924 66.9365 79.2782 72.6628 79.2782L327.834 79.3591C334.747 79.3611 340.422 73.4216 340.422 66.0368V14.3078C340.422 6.92698 334.754 1.13591 327.846 1.30679C327.846 1.30679 327.846 1.30679 327.846 1.30679Z" fill="#2C3B64" stroke="#080E27" stroke-width="0.985091"/>
<path d="M74.1201 25.6303C74.1201 20.1069 78.5981 15.6295 84.1215 15.6303L153.216 15.6399C158.739 15.6407 163.215 20.1176 163.215 25.6399V59.2825C163.215 64.8059 158.737 69.2833 153.213 69.2825L84.1187 69.2729C78.5964 69.2721 74.1201 64.7952 74.1201 59.2729V25.6303Z" fill="#080E27"/>
<path d="M91.9805 37.2961L91.9022 47.7872L90.6318 47.7777L90.7001 38.6185L90.6387 38.6181L88.0647 40.2996L88.0743 39.0087L90.7101 37.2866L91.9805 37.2961ZM98.773 47.9819C98.0011 47.9762 97.3453 47.7612 96.8055 47.3371C96.2656 46.9096 95.8553 46.2935 95.5744 45.4888C95.2935 44.6807 95.1574 43.7064 95.1659 42.5657C95.1744 41.4319 95.325 40.4648 95.6179 39.6644C95.9142 38.8607 96.3354 38.2491 96.8816 37.8296C97.4312 37.4068 98.0884 37.1983 98.8534 37.204C99.6184 37.2097 100.271 37.428 100.811 37.859C101.354 38.2865 101.766 38.9043 102.047 39.7124C102.331 40.5171 102.469 41.4864 102.46 42.6202C102.452 43.7608 102.301 44.7331 102.008 45.5369C101.716 46.3373 101.296 46.9472 100.75 47.3666C100.204 47.7826 99.5448 47.9877 98.773 47.9819ZM98.7814 46.855C99.5463 46.8607 100.143 46.4963 100.572 45.7618C101.001 45.0273 101.221 43.977 101.231 42.611C101.238 41.7026 101.146 40.9284 100.956 40.2883C100.77 39.6483 100.497 39.1595 100.137 38.8222C99.7813 38.4848 99.3506 38.3143 98.8452 38.3105C98.087 38.3048 97.4917 38.6743 97.0592 39.4191C96.6268 40.1604 96.4055 41.2123 96.3953 42.5749C96.3885 43.4833 96.4784 44.2558 96.6649 44.8925C96.8514 45.5291 97.1227 46.0144 97.4788 46.3483C97.8383 46.6823 98.2725 46.8512 98.7814 46.855ZM109.291 47.917L109.297 46.995L112.789 43.2301C113.198 42.7892 113.536 42.4058 113.801 42.0799C114.067 41.7506 114.264 41.4413 114.392 41.1519C114.524 40.8592 114.591 40.5523 114.594 40.2313C114.596 39.8625 114.51 39.5425 114.334 39.2714C114.162 39.0003 113.925 38.7902 113.622 38.6411C113.319 38.492 112.978 38.416 112.599 38.4132C112.196 38.4102 111.844 38.4912 111.542 38.6563C111.244 38.818 111.011 39.0468 110.845 39.3427C110.683 39.6386 110.6 39.9863 110.597 40.3859L109.388 40.3769C109.392 39.7622 109.538 39.2236 109.825 38.7613C110.112 38.299 110.501 37.9399 110.991 37.684C111.485 37.4281 112.037 37.3024 112.648 37.307C113.263 37.3116 113.807 37.4454 114.28 37.7085C114.752 37.9716 115.122 38.3244 115.388 38.767C115.655 39.2095 115.786 39.7006 115.782 40.2402C115.779 40.6261 115.706 41.0029 115.564 41.3707C115.424 41.7351 115.182 42.1414 114.837 42.5897C114.496 43.0345 114.022 43.5774 113.416 44.2184L111.041 46.7211L111.041 46.8031L115.917 46.8395L115.909 47.9664L109.291 47.917ZM121.878 48.1544C121.106 48.1487 120.45 47.9337 119.911 47.5096C119.371 47.0821 118.96 46.466 118.68 45.6613C118.399 44.8532 118.263 43.8789 118.271 42.7382C118.28 41.6044 118.43 40.6373 118.723 39.8369C119.019 39.0331 119.441 38.4215 119.987 38.0021C120.536 37.5793 121.194 37.3708 121.959 37.3765C122.724 37.3822 123.376 37.6005 123.916 38.0315C124.459 38.459 124.871 39.0768 125.152 39.8849C125.436 40.6896 125.574 41.6589 125.566 42.7927C125.557 43.9333 125.406 44.9055 125.114 45.7094C124.821 46.5098 124.401 47.1197 123.855 47.5391C123.309 47.9551 122.65 48.1602 121.878 48.1544ZM121.887 47.0275C122.652 47.0332 123.248 46.6688 123.677 45.9343C124.106 45.1998 124.326 44.1495 124.336 42.7835C124.343 41.8751 124.251 41.1009 124.062 40.4608C123.875 39.8208 123.602 39.332 123.243 38.9947C122.887 38.6573 122.456 38.4867 121.95 38.483C121.192 38.4773 120.597 38.8468 120.164 39.5916C119.732 40.3328 119.511 41.3848 119.5 42.7474C119.494 43.6558 119.584 44.4283 119.77 45.065C119.957 45.7016 120.228 46.1869 120.584 46.5208C120.943 46.8548 121.378 47.0237 121.887 47.0275ZM131.327 48.225C130.555 48.2192 129.899 48.0043 129.359 47.5802C128.819 47.1526 128.409 46.5365 128.128 45.7319C127.847 44.9238 127.711 43.9494 127.72 42.8088C127.728 41.675 127.879 40.7079 128.172 39.9075C128.468 39.1037 128.889 38.4921 129.435 38.0727C129.985 37.6499 130.642 37.4413 131.407 37.447C132.172 37.4527 132.824 37.6711 133.364 38.102C133.908 38.5296 134.32 39.1474 134.6 39.9555C134.885 40.7602 135.023 41.7294 135.014 42.8632C135.006 44.0039 134.855 44.9761 134.562 45.7799C134.269 46.5803 133.85 47.1902 133.304 47.6096C132.757 48.0256 132.098 48.2307 131.327 48.225ZM131.335 47.098C132.1 47.1037 132.697 46.7393 133.126 46.0048C133.555 45.2703 133.775 44.2201 133.785 42.8541C133.792 41.9456 133.7 41.1714 133.51 40.5313C133.324 39.8913 133.051 39.4026 132.691 39.0652C132.335 38.7279 131.904 38.5573 131.399 38.5535C130.641 38.5479 130.045 38.9174 129.613 39.6621C129.18 40.4034 128.959 41.4553 128.949 42.818C128.942 43.7264 129.032 44.4989 129.219 45.1355C129.405 45.7721 129.676 46.2574 130.033 46.5914C130.392 46.9253 130.826 47.0942 131.335 47.098Z" fill="#758FE3"/>
<path d="M145.418 43.7746L139.692 43.7318L139.7 42.7483L145.425 42.791C146.003 42.7953 146.491 42.6897 146.891 42.4741C147.291 42.2585 147.596 41.9603 147.805 41.5793C148.015 41.1945 148.122 40.7542 148.125 40.2585C148.129 39.7629 148.029 39.323 147.825 38.939C147.621 38.551 147.321 38.2463 146.924 38.0248C146.528 37.7993 146.041 37.6845 145.463 37.6801L142.595 37.6587L142.512 48.665L141.418 48.6568L141.507 36.667L145.471 36.6966C146.29 36.7027 146.976 36.8659 147.528 37.1862C148.084 37.5065 148.502 37.9351 148.783 38.4719C149.068 39.0088 149.208 39.607 149.203 40.2666C149.198 40.9262 149.049 41.5222 148.756 42.0548C148.467 42.5874 148.042 43.0096 147.482 43.3216C146.925 43.6297 146.237 43.7807 145.418 43.7746ZM145.363 44.8749L145.355 45.8584L139.677 45.816L139.684 44.8325L145.363 44.8749Z" fill="#758FE3"/>
<path d="M175.011 25.3353C175.032 26.1574 175.708 26.8108 176.531 26.8038L321.536 25.5721C322.378 25.565 323.052 24.8683 323.03 24.0259L322.916 19.5978C322.894 18.7739 322.215 18.1198 321.391 18.1293L176.398 19.809C175.557 19.8187 174.887 20.5146 174.908 21.3552L175.011 25.3353Z" fill="#080E27" stroke="#080E27" stroke-width="0.985091"/>
<path d="M175.437 41.8802C175.458 42.7023 176.134 43.3557 176.956 43.3488L321.961 42.1171C322.804 42.1099 323.477 41.4133 323.456 40.5708L323.341 36.1428C323.32 35.3188 322.641 34.6647 321.817 34.6743L176.824 36.3539C175.983 36.3637 175.312 37.0595 175.334 37.9001L175.437 41.8802Z" fill="#080E27" stroke="#080E27" stroke-width="0.985091"/>
<path d="M177.397 60.3002C176.584 60.3025 175.916 59.6595 175.887 58.847L175.743 54.8638C175.713 54.0157 176.388 53.3096 177.237 53.3022L250.952 52.6579C251.768 52.6508 252.442 53.2951 252.471 54.1111L252.63 58.5308C252.661 59.3823 251.98 60.09 251.128 60.0924L177.397 60.3002Z" fill="#080E27" stroke="#080E27" stroke-width="0.985091"/>
<circle cx="65.6783" cy="12.9273" r="12.2253" fill="#2C3B64" stroke="#5E72B1" stroke-width="1.16178"/>
<path d="M73.1203 7.25586C70.0462 7.72968 65.8603 10.5336 63.2195 13.9049C62.849 12.3151 61.186 10.8641 60.3163 10.5471L57.6807 13.1963C59.3266 13.9382 61.1247 16.0392 61.3632 18.1906L63.9962 18.5984C65.1064 16.4055 67.9732 11.1602 73.6773 8.34014C73.5676 7.911 73.1645 7.31716 73.1208 7.25586H73.1203Z" fill="#5E72B1"/>
<path d="M505.165 102.724L505.165 102.724L229.243 100.344C223.033 100.291 217.937 105.828 217.937 112.823V161.764C217.937 168.765 223.043 174.533 229.264 174.744L505.185 184.066C512.725 184.32 518.871 178.32 518.871 170.642V116.749C518.871 109.063 512.712 102.788 505.165 102.724Z" fill="#2C3B64" stroke="#080E27" stroke-width="0.985091"/>
<path d="M229.119 118.982C229.119 113.371 233.735 108.858 239.345 108.985L308.44 110.546C313.873 110.668 318.214 115.108 318.214 120.543V154.18C318.214 159.792 313.598 164.305 307.988 164.178L238.893 162.617C233.46 162.495 229.119 158.055 229.119 152.62V118.982Z" fill="#080E27"/>
<path d="M250.826 131.991C251.256 132.012 251.682 132.112 252.105 132.29C252.529 132.468 252.91 132.751 253.249 133.138C253.589 133.521 253.853 134.036 254.041 134.683C254.23 135.33 254.304 136.135 254.264 137.097C254.225 138.029 254.101 138.852 253.894 139.568C253.69 140.281 253.412 140.878 253.06 141.359C252.712 141.84 252.297 142.199 251.816 142.435C251.338 142.671 250.803 142.777 250.213 142.753C249.626 142.728 249.107 142.59 248.656 142.339C248.209 142.085 247.847 141.743 247.571 141.315C247.298 140.883 247.133 140.389 247.074 139.833L248.323 139.885C248.415 140.371 248.622 140.777 248.944 141.105C249.268 141.43 249.707 141.604 250.26 141.627C251.069 141.66 251.721 141.334 252.218 140.647C252.719 139.96 252.996 138.972 253.05 137.682L252.968 137.679C252.765 137.958 252.527 138.195 252.256 138.393C251.985 138.59 251.686 138.738 251.361 138.837C251.035 138.936 250.692 138.979 250.33 138.963C249.729 138.938 249.185 138.767 248.695 138.449C248.21 138.128 247.828 137.7 247.549 137.166C247.274 136.628 247.151 136.021 247.179 135.346C247.206 134.704 247.374 134.123 247.682 133.603C247.995 133.079 248.419 132.67 248.954 132.374C249.493 132.079 250.117 131.951 250.826 131.991ZM250.779 133.117C250.349 133.099 249.957 133.19 249.604 133.391C249.254 133.588 248.97 133.863 248.754 134.217C248.541 134.567 248.426 134.96 248.407 135.397C248.389 135.834 248.468 136.235 248.644 136.601C248.824 136.964 249.077 137.259 249.402 137.484C249.731 137.706 250.111 137.826 250.541 137.844C250.865 137.858 251.17 137.807 251.455 137.693C251.74 137.575 251.991 137.409 252.209 137.196C252.429 136.98 252.606 136.732 252.737 136.454C252.868 136.172 252.94 135.876 252.953 135.566C252.97 135.156 252.887 134.768 252.704 134.402C252.525 134.035 252.267 133.734 251.932 133.498C251.6 133.262 251.216 133.135 250.779 133.117ZM261.286 143.071L266.361 133.992L266.364 133.91L260.959 133.685L261.006 132.559L267.722 132.839L267.672 134.026L262.617 143.126L261.286 143.071ZM272.813 143.695C272.041 143.663 271.393 143.426 270.868 142.983C270.343 142.538 269.954 141.908 269.701 141.094C269.448 140.277 269.345 139.298 269.393 138.159C269.44 137.026 269.624 136.065 269.944 135.275C270.267 134.481 270.709 133.885 271.27 133.484C271.833 133.08 272.497 132.894 273.262 132.926C274.026 132.958 274.671 133.199 275.195 133.648C275.724 134.094 276.114 134.725 276.367 135.543C276.624 136.357 276.729 137.33 276.681 138.463C276.634 139.602 276.45 140.569 276.13 141.362C275.81 142.152 275.37 142.747 274.809 143.148C274.249 143.545 273.584 143.727 272.813 143.695ZM272.859 142.569C273.624 142.601 274.233 142.257 274.687 141.538C275.141 140.819 275.396 139.776 275.453 138.412C275.491 137.504 275.426 136.727 275.258 136.081C275.093 135.435 274.837 134.937 274.49 134.587C274.145 134.238 273.721 134.053 273.216 134.032C272.458 134 271.85 134.349 271.393 135.079C270.935 135.805 270.678 136.849 270.621 138.21C270.583 139.118 270.647 139.893 270.811 140.535C270.976 141.178 271.231 141.672 271.575 142.018C271.923 142.364 272.351 142.548 272.859 142.569ZM282.253 144.089C281.482 144.057 280.834 143.82 280.309 143.377C279.784 142.931 279.395 142.302 279.142 141.488C278.889 140.671 278.786 139.692 278.833 138.553C278.881 137.42 279.064 136.458 279.384 135.668C279.708 134.875 280.15 134.278 280.71 133.878C281.274 133.474 281.938 133.288 282.702 133.32C283.467 133.352 284.111 133.592 284.636 134.042C285.164 134.487 285.555 135.119 285.808 135.936C286.064 136.75 286.169 137.724 286.122 138.856C286.074 139.996 285.89 140.963 285.57 141.756C285.25 142.546 284.81 143.141 284.25 143.542C283.69 143.939 283.024 144.121 282.253 144.089ZM282.3 142.963C283.064 142.995 283.673 142.651 284.127 141.932C284.581 141.212 284.837 140.17 284.893 138.805C284.931 137.898 284.866 137.121 284.698 136.474C284.534 135.828 284.278 135.331 283.93 134.981C283.586 134.632 283.161 134.447 282.656 134.426C281.899 134.394 281.291 134.743 280.833 135.472C280.376 136.199 280.119 137.242 280.062 138.604C280.024 139.511 280.087 140.287 280.252 140.929C280.417 141.572 280.671 142.066 281.016 142.412C281.364 142.758 281.792 142.942 282.3 142.963Z" fill="#758FE3"/>
<path d="M296.359 140.118L290.639 139.879L290.68 138.897L296.4 139.135C296.978 139.159 297.47 139.07 297.876 138.869C298.283 138.667 298.598 138.379 298.821 138.006C299.043 137.628 299.165 137.192 299.186 136.697C299.206 136.201 299.121 135.758 298.931 135.367C298.74 134.973 298.45 134.658 298.062 134.423C297.673 134.184 297.191 134.053 296.613 134.029L293.747 133.909L293.289 144.906L292.195 144.86L292.694 132.881L296.654 133.046C297.473 133.08 298.153 133.267 298.694 133.606C299.238 133.945 299.642 134.387 299.904 134.933C300.17 135.48 300.29 136.082 300.262 136.741C300.235 137.4 300.065 137.991 299.755 138.513C299.448 139.036 299.009 139.443 298.438 139.736C297.871 140.025 297.178 140.152 296.359 140.118ZM296.267 141.216L296.226 142.198L290.552 141.962L290.593 140.979L296.267 141.216Z" fill="#758FE3"/>
<path d="M331.359 122.545C331.359 123.369 332.02 124.04 332.844 124.053L496.017 126.566C496.858 126.579 497.547 125.901 497.547 125.059V120.629C497.547 119.803 496.884 119.132 496.059 119.121L332.886 117.057C332.046 117.047 331.359 117.725 331.359 118.565V122.545Z" fill="#080E27" stroke="#080E27" stroke-width="0.985091"/>
<path d="M331.359 139.096C331.359 139.92 332.02 140.591 332.844 140.603L496.017 143.117C496.858 143.13 497.547 142.451 497.547 141.61V137.179C497.547 136.354 496.884 135.682 496.059 135.672L332.886 133.608C332.046 133.597 331.359 134.275 331.359 135.115V139.096Z" fill="#080E27" stroke="#080E27" stroke-width="0.985091"/>
<path d="M331.359 155.675C331.359 156.49 332.007 157.157 332.822 157.181L415.996 159.638C416.845 159.663 417.547 158.982 417.547 158.132V153.707C417.547 152.889 416.895 152.22 416.077 152.2L332.903 150.183C332.057 150.162 331.359 150.843 331.359 151.69V155.675Z" fill="#080E27" stroke="#080E27" stroke-width="0.985091"/>
<path d="M110.402 195.071L110.127 195.06C104.536 194.992 99.9608 200.072 99.9608 206.71V253.861C99.9608 260.616 104.709 266.313 110.456 266.701L365.624 283.864C372.524 284.328 378.179 278.791 378.179 271.418V219.689C378.179 212.298 372.494 206.103 365.571 205.812L365.571 205.812L110.402 195.071Z" fill="#2C3B64" stroke="#080E27" stroke-width="0.985091"/>
<path d="M111.119 214.41C111.119 208.667 115.946 204.104 121.681 204.426L190.776 208.313C196.072 208.611 200.214 212.993 200.214 218.298V251.909C200.214 257.652 195.387 262.215 189.652 261.893L120.557 258.006C115.261 257.708 111.119 253.326 111.119 248.021V214.41Z" fill="#080E27"/>
<path d="M131.827 227.069C132.257 227.09 132.683 227.19 133.106 227.368C133.53 227.547 133.911 227.829 134.25 228.216C134.59 228.599 134.854 229.114 135.042 229.761C135.231 230.408 135.305 231.213 135.264 232.175C135.226 233.107 135.102 233.931 134.895 234.647C134.691 235.359 134.413 235.956 134.061 236.437C133.713 236.918 133.298 237.277 132.817 237.513C132.339 237.75 131.804 237.855 131.214 237.831C130.627 237.806 130.108 237.669 129.657 237.417C129.21 237.163 128.848 236.821 128.572 236.393C128.299 235.961 128.134 235.467 128.075 234.911L129.324 234.963C129.416 235.449 129.623 235.855 129.945 236.183C130.269 236.508 130.708 236.682 131.261 236.705C132.07 236.739 132.722 236.412 133.219 235.725C133.72 235.038 133.997 234.05 134.051 232.76L133.969 232.757C133.766 233.036 133.528 233.274 133.257 233.471C132.986 233.668 132.687 233.816 132.362 233.915C132.036 234.015 131.693 234.057 131.331 234.042C130.73 234.017 130.186 233.845 129.696 233.527C129.211 233.206 128.829 232.778 128.55 232.244C128.275 231.706 128.152 231.099 128.18 230.424C128.207 229.782 128.375 229.201 128.683 228.681C128.996 228.157 129.42 227.748 129.955 227.452C130.494 227.157 131.118 227.029 131.827 227.069ZM131.78 228.195C131.35 228.177 130.958 228.268 130.605 228.469C130.255 228.666 129.971 228.941 129.755 229.295C129.542 229.645 129.427 230.038 129.408 230.475C129.39 230.912 129.469 231.313 129.645 231.679C129.825 232.042 130.078 232.337 130.403 232.562C130.732 232.784 131.112 232.904 131.542 232.922C131.866 232.936 132.171 232.885 132.456 232.771C132.741 232.653 132.992 232.487 133.209 232.274C133.43 232.058 133.607 231.81 133.738 231.532C133.869 231.251 133.941 230.955 133.954 230.644C133.971 230.235 133.888 229.847 133.705 229.48C133.526 229.114 133.268 228.812 132.933 228.576C132.601 228.34 132.217 228.213 131.78 228.195ZM145.311 238.419C144.608 238.389 143.992 238.239 143.463 237.967C142.938 237.693 142.535 237.329 142.253 236.876C141.971 236.42 141.844 235.909 141.871 235.343C141.886 234.899 141.99 234.493 142.183 234.125C142.376 233.754 142.632 233.448 142.949 233.208C143.27 232.965 143.623 232.818 144.008 232.766L144.011 232.704C143.515 232.554 143.127 232.255 142.849 231.81C142.57 231.361 142.444 230.858 142.47 230.302C142.489 229.769 142.644 229.299 142.934 228.891C143.225 228.482 143.614 228.167 144.102 227.945C144.593 227.723 145.146 227.624 145.76 227.65C146.367 227.675 146.905 227.819 147.372 228.081C147.84 228.343 148.202 228.69 148.457 229.121C148.716 229.552 148.836 230.034 148.817 230.567C148.791 231.123 148.618 231.613 148.3 232.037C147.985 232.458 147.579 232.723 147.082 232.832L147.079 232.894C147.455 232.978 147.79 233.154 148.083 233.423C148.376 233.688 148.605 234.013 148.77 234.4C148.935 234.783 149.01 235.196 148.995 235.64C148.968 236.206 148.794 236.705 148.471 237.135C148.153 237.563 147.72 237.892 147.174 238.122C146.631 238.349 146.01 238.448 145.311 238.419ZM145.358 237.293C145.832 237.313 146.245 237.253 146.596 237.114C146.947 236.974 147.222 236.769 147.421 236.497C147.621 236.225 147.73 235.901 147.749 235.526C147.762 235.13 147.674 234.776 147.486 234.464C147.297 234.152 147.032 233.902 146.691 233.713C146.354 233.525 145.964 233.421 145.52 233.403C145.073 233.384 144.67 233.455 144.311 233.614C143.956 233.773 143.672 234.001 143.458 234.296C143.247 234.592 143.135 234.937 143.122 235.333C143.103 235.708 143.18 236.04 143.352 236.327C143.528 236.615 143.787 236.843 144.129 237.011C144.47 237.179 144.88 237.273 145.358 237.293ZM145.565 232.318C145.941 232.333 146.276 232.272 146.573 232.134C146.872 231.996 147.112 231.796 147.29 231.533C147.468 231.271 147.567 230.959 147.585 230.597C147.597 230.242 147.526 229.93 147.373 229.66C147.221 229.387 147.002 229.173 146.718 229.018C146.434 228.859 146.099 228.771 145.714 228.755C145.321 228.739 144.975 228.798 144.676 228.933C144.376 229.064 144.141 229.259 143.97 229.518C143.798 229.774 143.707 230.08 143.695 230.435C143.677 230.797 143.744 231.116 143.897 231.392C144.052 231.668 144.274 231.888 144.561 232.05C144.848 232.213 145.183 232.302 145.565 232.318ZM154.543 238.804C153.942 238.779 153.406 238.637 152.935 238.378C152.464 238.119 152.092 237.775 151.82 237.347C151.547 236.918 151.408 236.438 151.403 235.904L152.631 235.955C152.659 236.432 152.858 236.833 153.227 237.159C153.6 237.483 154.054 237.655 154.59 237.678C155.02 237.696 155.406 237.611 155.749 237.424C156.095 237.236 156.371 236.971 156.577 236.628C156.786 236.281 156.9 235.884 156.919 235.437C156.938 234.98 156.854 234.568 156.668 234.201C156.485 233.831 156.224 233.535 155.884 233.312C155.545 233.089 155.152 232.967 154.705 232.945C154.385 232.928 154.053 232.964 153.711 233.052C153.369 233.137 153.086 233.253 152.861 233.401L151.679 233.209L152.529 228.076L157.975 228.303L157.928 229.429L153.547 229.246L153.049 232.322L153.111 232.325C153.333 232.163 153.608 232.033 153.937 231.934C154.266 231.835 154.606 231.792 154.958 231.807C155.599 231.834 156.164 232.011 156.653 232.339C157.145 232.664 157.524 233.097 157.788 233.638C158.056 234.179 158.176 234.789 158.148 235.468C158.12 236.136 157.945 236.727 157.623 237.24C157.304 237.75 156.878 238.146 156.343 238.428C155.808 238.706 155.208 238.832 154.543 238.804ZM163.887 239.193C163.116 239.161 162.468 238.924 161.943 238.482C161.418 238.036 161.029 237.406 160.776 236.592C160.523 235.775 160.42 234.797 160.468 233.657C160.515 232.524 160.699 231.563 161.019 230.773C161.342 229.98 161.784 229.383 162.344 228.982C162.908 228.579 163.572 228.393 164.337 228.425C165.101 228.456 165.745 228.697 166.27 229.146C166.799 229.592 167.189 230.224 167.442 231.041C167.699 231.855 167.803 232.828 167.756 233.961C167.709 235.101 167.525 236.067 167.205 236.861C166.885 237.65 166.444 238.246 165.884 238.646C165.324 239.043 164.659 239.226 163.887 239.193ZM163.934 238.067C164.699 238.099 165.308 237.756 165.762 237.036C166.216 236.317 166.471 235.275 166.528 233.91C166.566 233.002 166.501 232.225 166.333 231.579C166.168 230.933 165.912 230.435 165.564 230.086C165.22 229.736 164.795 229.551 164.29 229.53C163.533 229.499 162.925 229.848 162.468 230.577C162.01 231.303 161.753 232.347 161.696 233.708C161.658 234.616 161.722 235.391 161.886 236.034C162.051 236.676 162.305 237.171 162.65 237.517C162.998 237.863 163.426 238.046 163.934 238.067Z" fill="#758FE3"/>
<path d="M178.359 235.238L172.639 234.999L172.68 234.016L178.4 234.255C178.978 234.279 179.47 234.19 179.876 233.988C180.283 233.787 180.598 233.499 180.821 233.125C181.043 232.748 181.165 232.312 181.186 231.816C181.206 231.321 181.121 230.878 180.931 230.487C180.74 230.093 180.45 229.778 180.062 229.543C179.673 229.304 179.191 229.173 178.613 229.148L175.747 229.029L175.289 240.026L174.195 239.98L174.694 228.001L178.654 228.166C179.473 228.2 180.153 228.386 180.694 228.725C181.238 229.065 181.642 229.507 181.904 230.053C182.17 230.6 182.29 231.202 182.262 231.861C182.235 232.52 182.065 233.111 181.755 233.633C181.448 234.156 181.009 234.563 180.438 234.856C179.871 235.145 179.178 235.272 178.359 235.238ZM178.267 236.335L178.226 237.318L172.552 237.082L172.593 236.099L178.267 236.335Z" fill="#758FE3"/>
<path d="M212.359 223.703C212.359 224.503 212.983 225.163 213.781 225.208L360.955 233.556C361.819 233.606 362.547 232.918 362.547 232.051V227.627C362.547 226.826 361.921 226.165 361.121 226.122L213.948 218.222C213.085 218.176 212.359 218.863 212.359 219.727V223.703Z" fill="#080E27" stroke="#080E27" stroke-width="0.985091"/>
<path d="M212.359 239.494C212.359 240.294 212.983 240.954 213.781 240.999L360.955 249.347C361.819 249.397 362.547 248.709 362.547 247.842V243.418C362.547 242.617 361.921 241.956 361.121 241.913L213.948 234.013C213.085 233.967 212.359 234.654 212.359 235.518V239.494Z" fill="#080E27" stroke="#080E27" stroke-width="0.985091"/>
<path d="M291.167 260.185C291.167 260.988 291.796 261.65 292.598 261.691L360.964 265.139C361.825 265.182 362.547 264.496 362.547 263.633V259.214C362.547 258.408 361.912 257.744 361.106 257.708L292.74 254.695C291.883 254.658 291.167 255.343 291.167 256.201V260.185Z" fill="#080E27" stroke="#080E27" stroke-width="0.985091"/>
<defs>
<filter id="filter0_i_5287_671" x="170.846" y="98.7245" width="291.583" height="190.304" filterUnits="userSpaceOnUse" color-interpolation-filters="sRGB">
<feFlood flood-opacity="0" result="BackgroundImageFix"/>
<feBlend mode="normal" in="SourceGraphic" in2="BackgroundImageFix" result="shape"/>
<feColorMatrix in="SourceAlpha" type="matrix" values="0 0 0 0 0 0 0 0 0 0 0 0 0 0 0 0 0 0 127 0" result="hardAlpha"/>
<feOffset dx="4.64711" dy="4.64711"/>
<feGaussianBlur stdDeviation="2.90444"/>
<feComposite in2="hardAlpha" operator="arithmetic" k2="-1" k3="1"/>
<feColorMatrix type="matrix" values="0 0 0 0 0 0 0 0 0 0 0 0 0 0 0 0 0 0 0.3 0"/>
<feBlend mode="normal" in2="shape" result="effect1_innerShadow_5287_671"/>
</filter>
<filter id="filter1_i_5287_671" x="170.846" y="98.7245" width="291.583" height="29.4621" filterUnits="userSpaceOnUse" color-interpolation-filters="sRGB">
<feFlood flood-opacity="0" result="BackgroundImageFix"/>
<feBlend mode="normal" in="SourceGraphic" in2="BackgroundImageFix" result="shape"/>
<feColorMatrix in="SourceAlpha" type="matrix" values="0 0 0 0 0 0 0 0 0 0 0 0 0 0 0 0 0 0 127 0" result="hardAlpha"/>
<feOffset dx="4.64711" dy="4.64711"/>
<feGaussianBlur stdDeviation="2.90444"/>
<feComposite in2="hardAlpha" operator="arithmetic" k2="-1" k3="1"/>
<feColorMatrix type="matrix" values="0 0 0 0 0 0 0 0 0 0 0 0 0 0 0 0 0 0 0.5 0"/>
<feBlend mode="normal" in2="shape" result="effect1_innerShadow_5287_671"/>
</filter>
</defs>
</svg>
