<svg width="360" height="313" viewBox="0 0 360 313" fill="none" xmlns="http://www.w3.org/2000/svg">
<path d="M26.1803 114.825L26.1802 114.825C21.6994 114.073 18.0371 117.265 18.0371 122.002V284.837C18.0371 289.594 21.7301 293.461 26.2261 293.501L263.499 295.558C264.838 295.569 266.064 294.863 266.964 293.674C267.864 292.485 268.427 290.823 268.427 288.97V162.128C268.427 160.274 267.863 158.503 266.953 157.141C266.041 155.777 264.799 154.844 263.453 154.617C263.453 154.617 263.453 154.617 263.453 154.617L26.1803 114.825Z" fill="#D4D8E7" stroke="white" stroke-width="0.526074"/>
<path d="M29.2124 294.164L269.258 296.245C272.168 296.269 274.518 293.168 274.518 289.31V160.983C274.518 157.131 272.174 153.613 269.258 153.124L29.2124 112.867C24.5075 112.08 20.6613 115.443 20.6613 120.392V285.13C20.6613 290.079 24.5075 294.122 29.2124 294.164Z" fill="#D4D8E7"/>
<path d="M30.3683 293.764L267.641 295.821C270.521 295.845 272.835 292.78 272.835 288.97V162.128C272.835 158.317 270.515 154.841 267.641 154.358L30.3683 114.566C25.7171 113.785 21.9185 117.112 21.9185 122.002V284.837C21.9185 289.727 25.7171 293.722 30.3683 293.764Z" fill="white"/>
<path d="M112.093 198.206L144.96 202.016C144.96 202.016 144.961 202.016 144.961 202.016C144.975 202.018 144.988 202.019 145 202.021H145.092C145.68 202.021 146.159 201.537 146.159 200.888V182.838C146.159 182.128 145.629 181.511 144.966 181.417C144.966 181.417 144.966 181.417 144.966 181.417L112.098 176.873L112.097 176.873C111.379 176.771 110.811 177.284 110.811 178.008V196.756C110.811 197.471 111.392 198.126 112.092 198.206L112.093 198.206ZM110.887 178.008C110.887 177.403 111.321 176.937 111.925 176.934V176.934L111.93 176.934L111.93 176.934C111.969 176.934 112.032 176.934 112.104 176.95L144.96 181.492C144.96 181.492 144.961 181.492 144.961 181.492C145.591 181.577 146.095 182.2 146.095 182.844V200.894C146.095 201.515 145.617 202.03 144.971 201.949C144.97 201.949 144.97 201.948 144.969 201.948L112.104 198.138L112.102 198.138C111.426 198.056 110.887 197.442 110.887 196.756V178.008ZM111.931 176.934V177.197C111.971 177.197 112.011 177.197 112.056 177.209L111.931 176.934Z" fill="#D4D8E7" stroke="white" stroke-width="0.526074"/>
<path d="M132.064 200.148V179.863H131.994V200.148H132.064Z" fill="#D4D8E7" stroke="white" stroke-width="0.526074"/>
<path d="M142.24 186.245L142.249 186.176L111.159 182.127L111.15 182.196L142.24 186.245Z" fill="#D4D8E7" stroke="white" stroke-width="0.526074"/>
<path d="M142.087 193.725L142.096 193.656L111.005 189.612L110.996 189.682L142.087 193.725Z" fill="#D4D8E7" stroke="white" stroke-width="0.526074"/>
<path opacity="0.4" d="M272.572 162.122C272.572 160.963 272.349 159.829 271.954 158.809L23.7444 117.237C22.7678 118.479 22.1756 120.111 22.1756 122.002V127.186L272.572 166.031V162.122Z" fill="#D4D8E7" stroke="white" stroke-width="0.526074"/>
<path d="M272.835 284.372V288.97C272.835 292.78 270.515 295.845 267.641 295.821L30.3682 293.764C25.7169 293.722 21.9184 289.727 21.9184 284.837V278.934L272.841 284.372H272.835Z" fill="#D4D8E7"/>
<path d="M44.204 263.191C49.8928 258.075 58.5811 257.615 64.8364 262.016C58.5214 257.198 57.1141 246.602 60.6324 239.338C64.1267 232.123 71.2944 228.146 78.4979 227.144C85.6 226.154 92.8094 227.675 99.7743 229.285C103.394 230.119 107.037 230.99 110.603 230.68C114.145 230.37 117.676 228.742 119.649 225.426C121.224 222.791 121.772 219.213 123.913 217.257C126.161 215.206 129.447 215.623 132.261 216.72C135.058 217.812 137.753 219.499 140.604 219.803C146.877 220.465 152.22 212.838 150.807 205.349C149.793 200 148.213 197 148.07 191.574C147.885 184.627 152.47 183.75 154.432 177.56C155.589 173.917 155.792 164.781 156.937 154.632L158.726 126.588L168.261 128.347L170.008 156.654C171.117 166.982 172.387 171.424 173.496 175.306C175.369 181.854 180.664 187.286 180.497 193.941C180.366 199.141 176.854 202.886 175.894 207.883C174.546 214.925 179.591 223.256 185.375 223.626C187.951 223.793 190.372 222.624 192.847 222.045C195.31 221.467 198.154 221.604 200.08 223.852C201.899 225.975 202.364 229.344 203.688 231.98C205.34 235.272 208.256 237.21 211.142 237.925C214.01 238.641 216.908 238.307 219.74 238.003C225.089 237.43 230.48 236.983 235.662 238.665C240.778 240.322 245.752 244.401 248.131 250.686C249.526 254.371 249.771 258.856 248.858 262.654C248.346 264.807 249.699 266.989 251.816 267.204C254.416 267.472 256.974 268.838 258.936 271.211C261.554 274.378 262.985 279.178 262.955 283.883L37.3523 280.46C37.2987 274.509 40.0834 266.882 44.204 263.179V263.191Z" fill="#D4D8E7"/>
<path d="M160.02 194.317C159.072 191.962 156.794 190.227 156.239 187.752C155.518 184.556 157.855 181.586 159.525 178.765C164.194 170.87 164.105 161.15 163.878 151.985C165.035 152.051 166.192 152.116 167.349 152.182C162.286 166.237 174.85 181.83 170.742 196.196C169.722 199.762 167.724 202.97 166.424 206.446C165.124 209.923 164.594 214.001 166.46 217.21C168.887 221.372 174.773 223.113 176.025 227.764C177.164 231.992 173.825 235.964 172.441 240.12C171.213 243.805 171.648 248.128 174.021 251.199C176.395 254.276 180.807 255.779 184.415 254.336C188.464 252.714 191.696 247.795 195.9 248.975C199.311 249.941 200.289 254.306 200.122 257.854C199.955 261.396 199.4 265.392 201.702 268.093C203.563 270.27 206.753 270.812 209.597 270.472C212.442 270.132 215.149 269.065 217.976 268.594C228.232 266.888 239.145 274.444 241.148 284.647C191.237 285.714 141.284 285.195 91.4023 283.096C89.7684 279.465 88.0987 275.672 88.2299 271.689C88.3611 267.705 90.8835 263.501 94.8132 262.834C99.0291 262.118 103.496 265.535 107.407 263.806C111.176 262.142 111.653 257.043 114.032 253.686C116.662 249.977 121.611 248.606 126.161 248.749C130.705 248.898 135.118 250.281 139.62 250.925C144.122 251.569 149.048 251.372 152.745 248.719C156.442 246.065 158.112 240.311 155.208 236.81C154.164 235.558 152.691 234.729 151.612 233.507C150.527 232.29 149.912 230.346 150.908 229.058C152.793 226.625 158.303 228.683 158.869 225.659C159.179 224.002 157.337 222.815 156.579 221.306C155.84 219.822 156.192 218.044 156.567 216.428C157.659 211.682 158.75 206.935 159.841 202.189C160.437 199.589 161.022 196.798 160.026 194.323L160.02 194.317Z" fill="#EAECF3"/>
<path d="M60.8693 176.527L60.87 176.527L100.228 181.089C100.229 181.089 100.229 181.089 100.229 181.089C100.833 181.156 101.329 180.713 101.329 180.044V158.429C101.329 157.745 100.796 157.121 100.163 157.033C100.163 157.033 100.163 157.033 100.163 157.033L60.8038 151.592C60.8038 151.592 60.8037 151.592 60.8037 151.592C60.1363 151.5 59.6103 151.959 59.6103 152.645V175.096C59.6103 175.807 60.1837 176.449 60.8693 176.527Z" fill="#D4D8E7" stroke="white" stroke-width="0.526074"/>
<mask id="path-13-inside-1_5260_1107" fill="white">
<path d="M64.7113 162.685L96.4375 166.762V166.355L64.7113 162.264V162.685Z"/>
</mask>
<path d="M64.7113 162.685L96.4375 166.762V166.355L64.7113 162.264V162.685Z" fill="#D4D8E7"/>
<path d="M64.7113 162.685L64.6442 163.207L64.1852 163.148V162.685H64.7113ZM96.4375 166.762H96.9636V167.36L96.3704 167.284L96.4375 166.762ZM96.4375 166.355L96.5048 165.834L96.9636 165.893V166.355H96.4375ZM64.7113 162.264H64.1852V161.666L64.7786 161.742L64.7113 162.264ZM64.7784 162.163L96.5046 166.241L96.3704 167.284L64.6442 163.207L64.7784 162.163ZM95.9114 166.762V166.355H96.9636V166.762H95.9114ZM96.3702 166.877L64.644 162.786L64.7786 161.742L96.5048 165.834L96.3702 166.877ZM65.2374 162.264V162.685H64.1852V162.264H65.2374Z" fill="white" mask="url(#path-13-inside-1_5260_1107)"/>
<mask id="path-15-inside-2_5260_1107" fill="white">
<path d="M64.7113 167.534L96.4375 171.482V171.068L64.7113 167.112V167.534Z"/>
</mask>
<path d="M64.7113 167.534L96.4375 171.482V171.068L64.7113 167.112V167.534Z" fill="#D4D8E7"/>
<path d="M64.7113 167.534L64.6463 168.056L64.1852 167.998V167.534H64.7113ZM96.4375 171.482H96.9636V172.078L96.3725 172.005L96.4375 171.482ZM96.4375 171.068L96.5026 170.546L96.9636 170.604V171.068H96.4375ZM64.7113 167.112H64.1852V166.517L64.7764 166.59L64.7113 167.112ZM64.7763 167.012L96.5025 170.96L96.3725 172.005L64.6463 168.056L64.7763 167.012ZM95.9114 171.482V171.068H96.9636V171.482H95.9114ZM96.3724 171.59L64.6462 167.634L64.7764 166.59L96.5026 170.546L96.3724 171.59ZM65.2374 167.112V167.534H64.1852V167.112H65.2374Z" fill="white" mask="url(#path-15-inside-2_5260_1107)"/>
<mask id="path-17-inside-3_5260_1107" fill="white">
<path d="M64.7113 172.389L96.4375 176.195V175.788L64.7113 171.968V172.389Z"/>
</mask>
<path d="M64.7113 172.389L96.4375 176.195V175.788L64.7113 171.968V172.389Z" fill="#D4D8E7"/>
<path d="M64.7113 172.389L64.6486 172.912L64.1852 172.856V172.389H64.7113ZM96.4375 176.195H96.9636V176.788L96.3748 176.718L96.4375 176.195ZM96.4375 175.788L96.5004 175.266L96.9636 175.322V175.788H96.4375ZM64.7113 171.968H64.1852V171.375L64.7742 171.446L64.7113 171.968ZM64.774 171.867L96.5002 175.673L96.3748 176.718L64.6486 172.912L64.774 171.867ZM95.9114 176.195V175.788H96.9636V176.195H95.9114ZM96.3746 176.31L64.6484 172.49L64.7742 171.446L96.5004 175.266L96.3746 176.31ZM65.2374 171.968V172.389H64.1852V171.968H65.2374Z" fill="white" mask="url(#path-17-inside-3_5260_1107)"/>
<path d="M60.7969 151.592L60.7966 151.592C60.1358 151.5 59.6035 151.96 59.6035 152.645V157.449L101.322 162.978V158.429C101.322 157.745 100.789 157.121 100.156 157.033C100.156 157.033 100.156 157.033 100.156 157.033L60.7969 151.592Z" fill="#D4D8E7" stroke="white" stroke-width="0.526074"/>
<path d="M61.9383 153.111V155.821L64.5827 156.179V153.474L61.9383 153.111Z" fill="#D4D8E7" stroke="white" stroke-width="0.526074"/>
<path d="M73.1866 217.088L73.1877 217.089C73.7998 217.133 74.3102 216.651 74.3102 215.988V194.502C74.3102 193.826 73.7776 193.235 73.1452 193.178L73.1451 193.178L33.3792 189.586L33.3787 189.586C32.701 189.523 32.1566 190.017 32.1566 190.701V213.026C32.1566 213.725 32.7266 214.331 33.4205 214.377L33.6659 214.394V214.401L73.1866 217.088Z" fill="#D4D8E7" stroke="white" stroke-width="0.526074"/>
<mask id="path-22-inside-4_5260_1107" fill="white">
<path d="M37.7769 201.37L69.8076 203.928V203.523L37.7769 200.951V201.37Z"/>
</mask>
<path d="M37.7769 201.37L69.8076 203.928V203.523L37.7769 200.951V201.37Z" fill="#D4D8E7"/>
<path d="M37.7769 201.37L37.6932 202.419L36.7248 202.342V201.37H37.7769ZM69.8076 203.928H70.8598V205.067L69.7239 204.977L69.8076 203.928ZM69.8076 203.523L69.8918 202.474L70.8598 202.552V203.523H69.8076ZM37.7769 200.951H36.7248V199.811L37.8611 199.902L37.7769 200.951ZM37.8606 200.322L69.8914 202.879L69.7239 204.977L37.6932 202.419L37.8606 200.322ZM68.7555 203.928V203.523H70.8598V203.928H68.7555ZM69.7234 204.571L37.6927 202L37.8611 199.902L69.8918 202.474L69.7234 204.571ZM38.8291 200.951V201.37H36.7248V200.951H38.8291Z" fill="white" mask="url(#path-22-inside-4_5260_1107)"/>
<mask id="path-24-inside-5_5260_1107" fill="white">
<path d="M37.7769 206.192L69.8076 208.617V208.212L37.7769 205.773V206.192Z"/>
</mask>
<path d="M37.7769 206.192L69.8076 208.617V208.212L37.7769 205.773V206.192Z" fill="#D4D8E7"/>
<path d="M37.7769 206.192L37.6975 207.241L36.7248 207.168V206.192H37.7769ZM69.8076 208.617H70.8598V209.752L69.7282 209.666L69.8076 208.617ZM69.8076 208.212L69.8875 207.162L70.8598 207.236V208.212H69.8076ZM37.7769 205.773H36.7248V204.638L37.8568 204.724L37.7769 205.773ZM37.8563 205.143L69.887 207.568L69.7282 209.666L37.6975 207.241L37.8563 205.143ZM68.7555 208.617V208.212H70.8598V208.617H68.7555ZM69.7277 209.261L37.697 206.822L37.8568 204.724L69.8875 207.162L69.7277 209.261ZM38.8291 205.773V206.192H36.7248V205.773H38.8291Z" fill="white" mask="url(#path-24-inside-5_5260_1107)"/>
<mask id="path-26-inside-6_5260_1107" fill="white">
<path d="M37.7769 211.013L69.8076 213.305V212.893L37.7769 210.594V211.013Z"/>
</mask>
<path d="M37.7769 211.013L69.8076 213.305V212.893L37.7769 210.594V211.013Z" fill="#D4D8E7"/>
<path d="M37.7769 211.013L37.7018 212.063L36.7248 211.993V211.013H37.7769ZM69.8076 213.305H70.8598V214.435L69.7325 214.355L69.8076 213.305ZM69.8076 212.893L69.8829 211.843L70.8598 211.914V212.893H69.8076ZM37.7769 210.594H36.7248V209.464L37.8522 209.545L37.7769 210.594ZM37.852 209.964L69.8827 212.256L69.7325 214.355L37.7018 212.063L37.852 209.964ZM68.7555 213.305V212.893H70.8598V213.305H68.7555ZM69.7323 213.942L37.7016 211.643L37.8522 209.545L69.8829 211.843L69.7323 213.942ZM38.829 210.594V211.013H36.7248V210.594H38.829Z" fill="white" mask="url(#path-26-inside-6_5260_1107)"/>
<path d="M32.1566 195.833L74.3102 199.379V194.502C74.3102 193.826 73.7776 193.235 73.1452 193.178L73.1451 193.178L33.3792 189.586L33.3787 189.586C32.701 189.523 32.1566 190.017 32.1566 190.701V195.833Z" fill="#D4D8E7" stroke="white" stroke-width="0.526074"/>
<path d="M34.1691 191.735V194.434L36.8502 194.662V191.975L34.1691 191.735Z" fill="#D4D8E7" stroke="white" stroke-width="0.526074"/>
<path d="M35.4526 299.386H338.069C340.22 299.386 341.963 297.644 341.963 295.493V293.925H31.5594V295.493C31.5594 297.644 33.3021 299.386 35.4526 299.386Z" fill="#D4D8E7" stroke="white" stroke-width="0.526074"/>
<path d="M341.963 293.925H31.5594V295.397H341.963V293.925Z" fill="#D4D8E7" stroke="white" stroke-width="0.526074"/>
<path d="M245.811 184.029L247.187 184.446L247.369 184.502L247.376 184.691C247.404 185.44 247.513 186.176 247.691 186.891L247.739 187.084L247.568 187.182L246.336 187.884C246.459 188.287 246.602 188.679 246.766 189.066L248.214 188.894L248.399 188.872L248.482 189.041C248.803 189.696 249.192 190.312 249.637 190.894L249.757 191.051L249.642 191.21L248.809 192.359C249.089 192.685 249.386 192.995 249.7 193.295L250.937 192.559L251.097 192.464L251.24 192.585C251.787 193.046 252.376 193.462 253.013 193.816L253.183 193.911L253.144 194.101L252.864 195.492C253.253 195.684 253.657 195.856 254.072 196.007L254.89 194.837L254.999 194.682L255.18 194.738C255.525 194.844 255.867 194.932 256.224 195.005C256.581 195.078 256.936 195.133 257.287 195.17L257.476 195.189L257.518 195.376L257.838 196.779C258.278 196.803 258.715 196.802 259.146 196.779L259.406 195.383L259.441 195.193L259.633 195.172C260.349 195.094 261.053 194.949 261.728 194.734L261.906 194.677L262.019 194.829L262.888 195.997C263.288 195.847 263.679 195.675 264.059 195.482L263.719 194.093L263.672 193.901L263.841 193.803C264.469 193.441 265.058 193.025 265.599 192.546L265.738 192.423L265.902 192.516L267.175 193.246C267.471 192.954 267.749 192.647 268.013 192.324L267.136 191.19L267.014 191.031L267.132 190.871C267.568 190.284 267.937 189.646 268.242 188.965L268.32 188.792L268.508 188.813L269.958 188.972C270.099 188.593 270.226 188.209 270.332 187.817L269.069 187.125L268.898 187.031L268.935 186.841L268.935 186.841L268.935 186.84L268.935 186.84L268.935 186.84L268.935 186.839L268.935 186.839L268.936 186.839L268.936 186.838L268.936 186.838L268.936 186.837L268.936 186.837L268.936 186.837L268.936 186.836L268.936 186.836L268.936 186.836L268.936 186.835L268.936 186.835L268.936 186.835L268.936 186.834L268.936 186.834L268.936 186.834L268.937 186.833L268.937 186.833L268.937 186.833L268.937 186.832L268.937 186.832L268.937 186.832L268.937 186.831L268.937 186.831L268.937 186.831L268.937 186.83L268.937 186.83L268.937 186.83L268.937 186.829L268.937 186.829L268.937 186.829L268.938 186.828L268.938 186.828L268.938 186.828L268.938 186.827L268.938 186.827L268.938 186.826L268.938 186.826L268.938 186.826L268.938 186.825L268.938 186.825L268.938 186.825L268.938 186.824L268.938 186.824L268.938 186.824L268.938 186.823L268.939 186.823L268.939 186.823L268.939 186.822L268.939 186.822L268.939 186.822L268.939 186.821L268.939 186.821L268.939 186.821L268.939 186.82L268.939 186.82L268.939 186.82L268.939 186.819L268.939 186.819L268.939 186.819L268.939 186.818L268.94 186.818L268.94 186.817L268.94 186.817L268.94 186.817L268.94 186.816L268.94 186.816L268.94 186.816L268.94 186.815L268.94 186.815L268.94 186.815L268.94 186.814L268.94 186.814L268.94 186.814L268.94 186.813L268.94 186.813L268.941 186.813L268.941 186.812L268.941 186.812L268.941 186.812L268.941 186.811L268.941 186.811L268.941 186.81L268.941 186.81L268.941 186.81L268.941 186.809L268.941 186.809L268.941 186.809L268.941 186.808L268.941 186.808L268.942 186.808L268.942 186.807L268.942 186.807L268.942 186.807L268.942 186.806L268.942 186.806L268.942 186.806L268.942 186.805L268.942 186.805L268.942 186.805L268.942 186.804L268.942 186.804L268.942 186.803L268.942 186.803L268.942 186.803L268.943 186.802L268.943 186.802L268.943 186.802L268.943 186.801L268.943 186.801L268.943 186.801L268.943 186.8L268.943 186.8L268.943 186.8L268.943 186.799L268.943 186.799L268.943 186.799L268.943 186.798L268.943 186.798L268.943 186.797L268.944 186.797L268.944 186.797L268.944 186.796L268.944 186.796L268.944 186.796L268.944 186.795L268.944 186.795L268.944 186.795L268.944 186.794L268.944 186.794L268.944 186.794L268.944 186.793L268.944 186.793L268.944 186.793L268.945 186.792L268.945 186.792L268.945 186.791L268.945 186.791L268.945 186.791L268.945 186.79L268.945 186.79L268.945 186.79L268.945 186.789L268.945 186.789L268.945 186.789L268.945 186.788L268.945 186.788L268.945 186.788L268.945 186.787L268.946 186.787L268.946 186.786L268.946 186.786L268.946 186.786L268.946 186.785L268.946 186.785L268.946 186.785L268.946 186.784L268.946 186.784L268.946 186.784L268.946 186.783L268.946 186.783L268.946 186.783L268.946 186.782L268.947 186.782L268.947 186.782L268.947 186.781L268.947 186.781L268.947 186.78L268.947 186.78L268.947 186.78L268.947 186.779L268.947 186.779L268.947 186.779L268.947 186.778L268.947 186.778L268.947 186.778L268.947 186.777L268.947 186.777L268.948 186.777L268.948 186.776L268.948 186.776L268.948 186.775L268.948 186.775L268.948 186.775L268.948 186.774L268.948 186.774L268.948 186.774L268.948 186.773L268.948 186.773L268.948 186.773L268.948 186.772L268.948 186.772L268.949 186.772L268.949 186.771L268.949 186.771L268.949 186.77L268.949 186.77L268.949 186.77L268.949 186.769L268.949 186.769L268.949 186.769L268.949 186.768L268.949 186.768L268.949 186.768L268.949 186.767L268.949 186.767L268.949 186.767L268.95 186.766L268.95 186.766L268.95 186.765L268.95 186.765L268.95 186.765L268.95 186.764L268.95 186.764L268.95 186.764L268.95 186.763L268.95 186.763L268.95 186.763L268.95 186.762L268.95 186.762L268.95 186.762L268.951 186.761L268.951 186.761L268.951 186.76L268.951 186.76L268.951 186.76L268.951 186.759L268.951 186.759L268.951 186.759L268.951 186.758L268.951 186.758L268.951 186.758L268.951 186.757L268.951 186.757L268.951 186.757L268.951 186.756L268.952 186.756L268.952 186.755L268.952 186.755L268.952 186.755L268.952 186.754L268.952 186.754L268.952 186.754L268.952 186.753L268.952 186.753L268.952 186.753L268.952 186.752L268.952 186.752L268.952 186.752L268.952 186.751L268.953 186.751L268.953 186.75L268.953 186.75L268.953 186.75L268.953 186.749L268.953 186.749L268.953 186.749L268.953 186.748L268.953 186.748L268.953 186.748L268.953 186.747L268.953 186.747L268.953 186.747L268.953 186.746L268.953 186.746L268.954 186.745L268.954 186.745L268.954 186.745L268.954 186.744L268.954 186.744L268.954 186.744L268.954 186.743L268.954 186.743L268.954 186.743L268.954 186.742L268.954 186.742L268.954 186.742L268.954 186.741L268.954 186.741L268.955 186.74L268.955 186.74L268.955 186.74L268.955 186.739L268.955 186.739L268.955 186.739L268.955 186.738L268.955 186.738L268.955 186.738L268.955 186.737L268.955 186.737L268.955 186.736L268.955 186.736L268.955 186.736L268.956 186.735L268.956 186.735L268.956 186.735L268.956 186.734L268.956 186.734L268.956 186.734L268.956 186.733L268.956 186.733L268.956 186.733L268.956 186.732L268.956 186.732L268.956 186.731L268.956 186.731L268.956 186.731L268.956 186.73L268.957 186.73L268.957 186.73L268.957 186.729L268.957 186.729L268.957 186.729L268.957 186.728L268.957 186.728L268.957 186.728L268.957 186.727L268.957 186.727L268.957 186.727L268.957 186.726L268.957 186.726L268.957 186.725L268.958 186.725L268.958 186.725L268.958 186.724L268.958 186.724L268.958 186.724L268.958 186.723L268.958 186.723L268.958 186.723L268.958 186.722L268.958 186.722L268.958 186.722L268.958 186.721L268.958 186.721L268.958 186.72L268.958 186.72L268.959 186.72L268.959 186.719L268.959 186.719L268.959 186.719L268.959 186.718L268.959 186.718L268.959 186.718L268.959 186.717L268.959 186.717L268.959 186.717L268.959 186.716L268.959 186.716L268.959 186.715L268.959 186.715L268.96 186.715L268.96 186.714L268.96 186.714L268.96 186.714L268.96 186.713L268.96 186.713L268.96 186.713L268.96 186.712L268.96 186.712L268.96 186.712L268.96 186.711L268.96 186.711L268.96 186.711L268.96 186.71L268.96 186.71L268.961 186.709L268.961 186.709L268.961 186.709L268.961 186.708L268.961 186.708L268.961 186.708L268.961 186.707L268.961 186.707L268.961 186.707L268.961 186.706L268.961 186.706L268.961 186.706L268.961 186.705L268.961 186.705L268.962 186.704L268.962 186.704L268.962 186.704L268.962 186.703L268.962 186.703L268.962 186.703L268.962 186.702L268.962 186.702L268.962 186.702L268.962 186.701L268.962 186.701L268.962 186.701L268.962 186.7L268.962 186.7L268.962 186.7L268.963 186.699L268.963 186.699L268.963 186.699L268.963 186.698L268.963 186.698L268.963 186.697L268.963 186.697L268.963 186.697L268.963 186.696L268.963 186.696L268.963 186.696L268.963 186.695L268.963 186.695L268.963 186.695L268.963 186.694L268.964 186.694L268.964 186.694L268.964 186.693L268.964 186.693L268.964 186.693L268.964 186.692L268.964 186.692L268.964 186.691L268.964 186.691L268.964 186.691L268.964 186.69L268.964 186.69L268.964 186.69L268.964 186.689L268.965 186.689L268.965 186.689L268.965 186.688L268.965 186.688L268.965 186.688L268.965 186.687L268.965 186.687L268.965 186.687L268.965 186.686L268.965 186.686L268.965 186.686L268.965 186.685L268.965 186.685L268.965 186.684L268.965 186.684L268.966 186.684L268.966 186.683L268.966 186.683L268.966 186.683L268.966 186.682L268.966 186.682L268.966 186.682L268.966 186.681L268.966 186.681L268.966 186.681L268.966 186.68L268.966 186.68L268.966 186.68L268.966 186.679L268.966 186.679L268.967 186.679L268.967 186.678L268.967 186.678L268.967 186.678L268.967 186.677L268.967 186.677L268.967 186.676L268.967 186.676L268.967 186.676L268.967 186.675L268.967 186.675L268.967 186.675L268.967 186.674L268.967 186.674L268.967 186.674L268.968 186.673L268.968 186.673L268.968 186.673L268.968 186.672L268.968 186.672L268.968 186.672L268.968 186.671L268.968 186.671L268.968 186.671L268.968 186.67L268.968 186.67L268.968 186.67L268.968 186.669L268.968 186.669L268.968 186.669L268.969 186.668L268.969 186.668L268.969 186.668L268.969 186.667L268.969 186.667L268.969 186.667L268.969 186.666L268.969 186.666L268.969 186.665L268.969 186.665L268.969 186.665L268.969 186.664L268.969 186.664L268.969 186.664L268.969 186.663L268.97 186.663L268.97 186.663L268.97 186.662L268.97 186.662L268.97 186.662L268.97 186.661L268.97 186.661L268.97 186.661C269.105 185.963 269.168 185.268 269.165 184.577L269.164 184.385L269.345 184.327L270.72 183.888C270.693 183.491 270.648 183.097 270.586 182.707L269.159 182.578L268.965 182.561L268.923 182.369C268.756 181.598 268.506 180.851 268.177 180.141L268.095 179.963L268.24 179.834L269.304 178.883C269.12 178.536 268.919 178.197 268.705 177.87L267.348 178.329L267.166 178.391L267.051 178.234C266.578 177.588 266.03 176.986 265.422 176.455L265.275 176.326L265.353 176.148L265.928 174.842C265.624 174.603 265.307 174.378 264.979 174.165L263.939 175.133L263.798 175.263L263.631 175.167C262.931 174.763 262.187 174.434 261.391 174.189L261.206 174.132L261.204 173.938L261.184 172.515C260.998 172.466 260.809 172.421 260.622 172.382C260.434 172.344 260.244 172.312 260.053 172.283L259.504 173.59L259.43 173.768L259.237 173.748C258.411 173.661 257.601 173.672 256.804 173.769L256.613 173.792L256.532 173.616L255.932 172.313C255.551 172.381 255.174 172.466 254.803 172.566L254.847 173.997L254.853 174.191L254.671 174.252C253.908 174.51 253.179 174.845 252.501 175.254L252.337 175.354L252.192 175.225L251.109 174.266C250.787 174.482 250.478 174.717 250.179 174.966L250.807 176.264L250.891 176.438L250.752 176.57C250.186 177.106 249.672 177.691 249.23 178.336L249.121 178.497L248.935 178.436L247.566 177.992C247.361 178.324 247.173 178.672 247.003 179.03L248.11 179.978L248.257 180.104L248.184 180.281C247.924 180.911 247.722 181.583 247.587 182.281L247.587 182.282L247.587 182.282L247.587 182.282L247.586 182.283L247.586 182.283L247.586 182.283L247.586 182.284L247.586 182.284L247.586 182.284L247.586 182.285L247.586 182.285L247.586 182.285L247.586 182.286L247.586 182.286L247.586 182.286L247.586 182.287L247.586 182.287L247.586 182.288L247.585 182.288L247.585 182.288L247.585 182.289L247.585 182.289L247.585 182.289L247.585 182.29L247.585 182.29L247.585 182.29L247.585 182.291L247.585 182.291L247.585 182.291L247.585 182.292L247.585 182.292L247.585 182.292L247.585 182.293L247.584 182.293L247.584 182.293L247.584 182.294L247.584 182.294L247.584 182.294L247.584 182.295L247.584 182.295L247.584 182.295L247.584 182.296L247.584 182.296L247.584 182.296L247.584 182.297L247.584 182.297L247.584 182.298L247.584 182.298L247.583 182.298L247.583 182.299L247.583 182.299L247.583 182.299L247.583 182.3L247.583 182.3L247.583 182.3L247.583 182.301L247.583 182.301L247.583 182.301L247.583 182.302L247.583 182.302L247.583 182.302L247.583 182.303L247.583 182.303L247.582 182.303L247.582 182.304L247.582 182.304L247.582 182.304L247.582 182.305L247.582 182.305L247.582 182.305L247.582 182.306L247.582 182.306L247.582 182.307L247.582 182.307L247.582 182.307L247.582 182.308L247.582 182.308L247.582 182.308L247.581 182.309L247.581 182.309L247.581 182.309L247.581 182.31L247.581 182.31L247.581 182.31L247.581 182.311L247.581 182.311L247.581 182.311L247.581 182.312L247.581 182.312L247.581 182.312L247.581 182.313L247.581 182.313L247.58 182.314L247.58 182.314L247.58 182.314L247.58 182.315L247.58 182.315L247.58 182.315L247.58 182.316L247.58 182.316L247.58 182.316L247.58 182.317L247.58 182.317L247.58 182.317L247.58 182.318L247.58 182.318L247.58 182.318L247.579 182.319L247.579 182.319L247.579 182.32L247.579 182.32L247.579 182.32L247.579 182.321L247.579 182.321L247.579 182.321L247.579 182.322L247.579 182.322L247.579 182.322L247.579 182.323L247.579 182.323L247.579 182.323L247.579 182.324L247.578 182.324L247.578 182.324L247.578 182.325L247.578 182.325L247.578 182.326L247.578 182.326L247.578 182.326L247.578 182.327L247.578 182.327L247.578 182.327L247.578 182.328L247.578 182.328L247.578 182.328L247.578 182.329L247.577 182.329L247.577 182.329L247.577 182.33L247.577 182.33L247.577 182.33L247.577 182.331L247.577 182.331L247.577 182.332L247.577 182.332L247.577 182.332L247.577 182.333L247.577 182.333L247.577 182.333L247.577 182.334L247.577 182.334L247.576 182.334L247.576 182.335L247.576 182.335L247.576 182.335L247.576 182.336L247.576 182.336L247.576 182.336L247.576 182.337L247.576 182.337L247.576 182.338L247.576 182.338L247.576 182.338L247.576 182.339L247.576 182.339L247.575 182.339L247.575 182.34L247.575 182.34L247.575 182.34L247.575 182.341L247.575 182.341L247.575 182.341L247.575 182.342L247.575 182.342L247.575 182.343L247.575 182.343L247.575 182.343L247.575 182.344L247.575 182.344L247.575 182.344L247.574 182.345L247.574 182.345L247.574 182.345L247.574 182.346L247.574 182.346L247.574 182.346L247.574 182.347L247.574 182.347L247.574 182.348L247.574 182.348L247.574 182.348L247.574 182.349L247.574 182.349L247.574 182.349L247.573 182.35L247.573 182.35L247.573 182.35L247.573 182.351L247.573 182.351L247.573 182.351L247.573 182.352L247.573 182.352L247.573 182.353L247.573 182.353L247.573 182.353L247.573 182.354L247.573 182.354L247.573 182.354L247.573 182.355L247.572 182.355L247.572 182.355L247.572 182.356L247.572 182.356L247.572 182.356L247.572 182.357L247.572 182.357L247.572 182.358L247.572 182.358L247.572 182.358L247.572 182.359L247.572 182.359L247.572 182.359L247.572 182.36L247.571 182.36L247.571 182.36L247.571 182.361L247.571 182.361L247.571 182.361L247.571 182.362L247.571 182.362L247.571 182.363L247.571 182.363L247.571 182.363L247.571 182.364L247.571 182.364L247.571 182.364L247.571 182.365L247.571 182.365L247.57 182.365L247.57 182.366L247.57 182.366L247.57 182.366L247.57 182.367L247.57 182.367L247.57 182.368L247.57 182.368L247.57 182.368L247.57 182.369L247.57 182.369L247.57 182.369L247.57 182.37L247.57 182.37L247.569 182.37L247.569 182.371L247.569 182.371L247.569 182.371L247.569 182.372L247.569 182.372L247.569 182.373L247.569 182.373L247.569 182.373L247.569 182.374L247.569 182.374L247.569 182.374L247.569 182.375L247.569 182.375L247.569 182.375L247.568 182.376L247.568 182.376L247.568 182.376L247.568 182.377L247.568 182.377L247.568 182.378L247.568 182.378L247.568 182.378L247.568 182.379L247.568 182.379L247.568 182.379L247.568 182.38L247.568 182.38L247.568 182.38L247.567 182.381L247.567 182.381L247.567 182.381L247.567 182.382L247.567 182.382L247.567 182.383L247.567 182.383L247.567 182.383L247.567 182.384L247.567 182.384L247.567 182.384L247.567 182.385L247.567 182.385L247.567 182.385L247.566 182.386L247.566 182.386L247.566 182.386L247.566 182.387L247.566 182.387L247.566 182.388L247.566 182.388L247.566 182.388L247.566 182.389L247.566 182.389L247.566 182.389L247.566 182.39L247.566 182.39L247.566 182.39L247.566 182.391L247.565 182.391L247.565 182.391L247.565 182.392L247.565 182.392L247.565 182.393L247.565 182.393L247.565 182.393L247.565 182.394L247.565 182.394L247.565 182.394L247.565 182.395L247.565 182.395L247.565 182.395L247.565 182.396L247.564 182.396L247.564 182.396L247.564 182.397L247.564 182.397L247.564 182.398L247.564 182.398L247.564 182.398L247.564 182.399L247.564 182.399L247.564 182.399L247.564 182.4L247.564 182.4L247.564 182.4L247.564 182.401L247.564 182.401L247.563 182.401L247.563 182.402L247.563 182.402L247.563 182.403L247.563 182.403L247.563 182.403L247.563 182.404L247.563 182.404L247.563 182.404L247.563 182.405L247.563 182.405L247.563 182.405L247.563 182.406L247.563 182.406L247.562 182.406L247.562 182.407L247.562 182.407L247.562 182.407L247.562 182.408L247.562 182.408L247.562 182.409L247.562 182.409L247.562 182.409L247.562 182.41L247.562 182.41L247.562 182.41L247.562 182.411L247.562 182.411L247.562 182.411L247.561 182.412L247.561 182.412L247.561 182.412L247.561 182.413L247.561 182.413L247.561 182.414L247.561 182.414L247.561 182.414L247.561 182.415L247.561 182.415L247.561 182.415L247.561 182.416L247.561 182.416L247.561 182.416L247.561 182.417L247.56 182.417L247.56 182.417L247.56 182.418L247.56 182.418L247.56 182.418L247.56 182.419L247.56 182.419L247.56 182.42L247.56 182.42L247.56 182.42L247.56 182.421L247.56 182.421L247.56 182.421L247.56 182.422L247.559 182.422L247.559 182.422L247.559 182.423L247.559 182.423L247.559 182.423L247.559 182.424L247.559 182.424L247.559 182.424L247.559 182.425L247.559 182.425L247.559 182.426L247.559 182.426L247.559 182.426L247.559 182.427L247.559 182.427L247.558 182.427L247.558 182.428L247.558 182.428L247.558 182.428L247.558 182.429L247.558 182.429L247.558 182.429L247.558 182.43L247.558 182.43L247.558 182.43L247.558 182.431L247.558 182.431L247.558 182.431L247.558 182.432L247.557 182.432L247.557 182.433L247.557 182.433L247.557 182.433L247.557 182.434L247.557 182.434L247.557 182.434L247.557 182.435L247.557 182.435L247.557 182.435L247.557 182.436L247.557 182.436L247.557 182.436L247.557 182.437L247.557 182.437L247.556 182.437L247.556 182.438L247.556 182.438L247.556 182.438L247.556 182.439L247.556 182.439L247.556 182.44L247.556 182.44L247.556 182.44L247.556 182.441L247.556 182.441L247.556 182.441L247.556 182.442L247.556 182.442L247.556 182.442L247.555 182.443L247.555 182.443L247.555 182.443L247.555 182.444L247.555 182.444L247.555 182.444L247.555 182.445L247.555 182.445L247.555 182.445L247.555 182.446L247.555 182.446L247.555 182.446L247.555 182.447L247.555 182.447L247.555 182.447L247.554 182.448L247.554 182.448L247.554 182.449L247.554 182.449L247.554 182.449L247.554 182.45L247.554 182.45L247.554 182.45L247.554 182.451L247.554 182.451L247.554 182.451L247.554 182.452L247.554 182.452L247.554 182.452L247.554 182.453L247.553 182.453L247.553 182.453L247.553 182.454L247.553 182.454L247.553 182.454L247.553 182.455L247.553 182.455L247.553 182.455L247.553 182.456L247.553 182.456L247.553 182.456L247.553 182.457L247.553 182.457L247.553 182.457L247.553 182.458L247.552 182.458L247.552 182.458L247.552 182.459L247.552 182.459L247.552 182.46L247.552 182.46L247.552 182.46L247.552 182.461L247.552 182.461L247.552 182.461L247.552 182.462L247.515 182.652L247.322 182.671L245.897 182.812C245.848 183.22 245.818 183.627 245.811 184.029ZM264.123 185.602C263.509 188.771 260.407 190.796 257.21 190.141C254.007 189.485 251.903 186.394 252.517 183.225C253.132 180.055 256.228 178.029 259.431 178.685C262.633 179.341 264.738 182.432 264.123 185.602Z" fill="#D4D8E7" stroke="white" stroke-width="0.526074"/>
<mask id="path-33-inside-7_5260_1107" fill="white">
<path d="M196.107 187.931C196.152 187.699 196.203 187.467 196.26 187.237L193.37 185.993C193.517 185.424 193.688 184.861 193.88 184.314L196.956 184.944C197.127 184.502 197.31 184.067 197.508 183.643L194.936 181.835C195.203 181.309 195.486 180.799 195.79 180.305L198.679 181.556C198.94 181.156 199.211 180.77 199.503 180.401L197.355 178.111C197.725 177.655 198.116 177.222 198.516 176.802L201.081 178.614C201.422 178.279 201.771 177.964 202.136 177.658L200.511 174.98C200.968 174.614 201.445 174.271 201.932 173.941L204.073 176.235C204.472 175.979 204.88 175.736 205.303 175.514L204.273 172.578C204.796 172.316 205.334 172.07 205.879 171.849L207.497 174.531C207.946 174.363 208.398 174.214 208.858 174.085L208.464 171C209.032 170.851 209.613 170.728 210.196 170.63L211.219 173.571C211.692 173.499 212.167 173.451 212.651 173.423L212.912 170.334C213.499 170.309 214.094 170.31 214.69 170.329L215.079 173.413C215.557 173.444 216.032 173.493 216.516 173.556L217.419 170.604C217.71 170.651 218.001 170.699 218.295 170.759C218.59 170.82 218.877 170.89 219.163 170.961L218.897 174.043C219.362 174.169 219.825 174.312 220.277 174.477L221.786 171.782C222.344 171.999 222.894 172.227 223.426 172.487L222.516 175.443C222.945 175.664 223.372 175.897 223.783 176.144L225.825 173.83C226.325 174.157 226.811 174.498 227.287 174.855L225.772 177.549C226.149 177.85 226.509 178.171 226.862 178.497L229.358 176.657C229.779 177.076 230.185 177.51 230.569 177.963L228.523 180.27C228.83 180.641 229.117 181.026 229.39 181.42L232.223 180.145C232.55 180.641 232.862 181.146 233.148 181.664L230.648 183.497C230.872 183.924 231.076 184.353 231.266 184.796L234.311 184.133C234.53 184.679 234.722 185.238 234.895 185.8L232.057 187.068C232.183 187.529 232.295 187.993 232.388 188.459L235.522 188.442C235.619 189.018 235.69 189.601 235.741 190.192L232.691 190.848C232.722 191.32 232.727 191.798 232.715 192.273L235.791 192.903C235.766 193.478 235.713 194.066 235.637 194.649L232.504 194.66C232.47 194.895 232.431 195.128 232.386 195.361C232.341 195.594 232.29 195.825 232.233 196.055L235.123 197.3C234.976 197.868 234.805 198.431 234.614 198.978L231.537 198.348C231.366 198.791 231.184 199.225 230.985 199.649L233.557 201.457C233.29 201.983 233.007 202.493 232.703 202.987L229.814 201.737C229.553 202.136 229.282 202.522 228.99 202.891L231.138 205.181C230.768 205.637 230.377 206.071 229.977 206.49L227.412 204.678C227.072 205.013 226.722 205.328 226.357 205.634L227.982 208.312C227.525 208.678 227.048 209.021 226.561 209.351L224.42 207.057C224.021 207.313 223.613 207.556 223.19 207.778L224.22 210.714C223.697 210.976 223.16 211.223 222.614 211.443L220.996 208.761C220.547 208.929 220.095 209.078 219.635 209.207L220.03 212.292C219.461 212.442 218.88 212.564 218.297 212.662L217.274 209.721C216.801 209.793 216.326 209.841 215.842 209.869L215.581 212.958C214.994 212.983 214.4 212.982 213.803 212.963L213.414 209.879C212.936 209.848 212.462 209.799 211.977 209.736L211.074 212.688C210.783 212.641 210.492 212.593 210.198 212.533C209.903 212.472 209.616 212.402 209.33 212.331L209.597 209.249C209.131 209.123 208.668 208.98 208.216 208.815L206.707 211.51C206.149 211.293 205.599 211.065 205.067 210.805L205.977 207.849C205.548 207.628 205.121 207.395 204.71 207.148L202.668 209.462C202.168 209.135 201.682 208.794 201.206 208.437L202.721 205.743C202.344 205.443 201.984 205.121 201.631 204.795L199.136 206.635C198.714 206.216 198.308 205.782 197.924 205.329L199.971 203.022C199.669 202.652 199.376 202.266 199.103 201.872L196.27 203.147C195.944 202.651 195.631 202.146 195.345 201.628L197.845 199.795C197.622 199.368 197.417 198.939 197.227 198.496L194.182 199.159C193.963 198.613 193.771 198.054 193.598 197.492L196.436 196.224C196.311 195.763 196.198 195.299 196.105 194.833L192.971 194.85C192.874 194.274 192.803 193.691 192.752 193.101L195.802 192.444C195.771 191.972 195.766 191.494 195.778 191.019L192.702 190.389C192.728 189.814 192.78 189.226 192.856 188.643L195.99 188.632C196.023 188.397 196.062 188.164 196.107 187.931ZM211.471 205.964C219.486 207.605 227.222 202.529 228.755 194.623C230.287 186.717 225.035 178.981 217.02 177.34C209.005 175.698 201.268 180.78 199.736 188.68C198.205 196.58 203.456 204.322 211.471 205.964Z"/>
</mask>
<path d="M196.107 187.931C196.152 187.699 196.203 187.467 196.26 187.237L193.37 185.993C193.517 185.424 193.688 184.861 193.88 184.314L196.956 184.944C197.127 184.502 197.31 184.067 197.508 183.643L194.936 181.835C195.203 181.309 195.486 180.799 195.79 180.305L198.679 181.556C198.94 181.156 199.211 180.77 199.503 180.401L197.355 178.111C197.725 177.655 198.116 177.222 198.516 176.802L201.081 178.614C201.422 178.279 201.771 177.964 202.136 177.658L200.511 174.98C200.968 174.614 201.445 174.271 201.932 173.941L204.073 176.235C204.472 175.979 204.88 175.736 205.303 175.514L204.273 172.578C204.796 172.316 205.334 172.07 205.879 171.849L207.497 174.531C207.946 174.363 208.398 174.214 208.858 174.085L208.464 171C209.032 170.851 209.613 170.728 210.196 170.63L211.219 173.571C211.692 173.499 212.167 173.451 212.651 173.423L212.912 170.334C213.499 170.309 214.094 170.31 214.69 170.329L215.079 173.413C215.557 173.444 216.032 173.493 216.516 173.556L217.419 170.604C217.71 170.651 218.001 170.699 218.295 170.759C218.59 170.82 218.877 170.89 219.163 170.961L218.897 174.043C219.362 174.169 219.825 174.312 220.277 174.477L221.786 171.782C222.344 171.999 222.894 172.227 223.426 172.487L222.516 175.443C222.945 175.664 223.372 175.897 223.783 176.144L225.825 173.83C226.325 174.157 226.811 174.498 227.287 174.855L225.772 177.549C226.149 177.85 226.509 178.171 226.862 178.497L229.358 176.657C229.779 177.076 230.185 177.51 230.569 177.963L228.523 180.27C228.83 180.641 229.117 181.026 229.39 181.42L232.223 180.145C232.55 180.641 232.862 181.146 233.148 181.664L230.648 183.497C230.872 183.924 231.076 184.353 231.266 184.796L234.311 184.133C234.53 184.679 234.722 185.238 234.895 185.8L232.057 187.068C232.183 187.529 232.295 187.993 232.388 188.459L235.522 188.442C235.619 189.018 235.69 189.601 235.741 190.192L232.691 190.848C232.722 191.32 232.727 191.798 232.715 192.273L235.791 192.903C235.766 193.478 235.713 194.066 235.637 194.649L232.504 194.66C232.47 194.895 232.431 195.128 232.386 195.361C232.341 195.594 232.29 195.825 232.233 196.055L235.123 197.3C234.976 197.868 234.805 198.431 234.614 198.978L231.537 198.348C231.366 198.791 231.184 199.225 230.985 199.649L233.557 201.457C233.29 201.983 233.007 202.493 232.703 202.987L229.814 201.737C229.553 202.136 229.282 202.522 228.99 202.891L231.138 205.181C230.768 205.637 230.377 206.071 229.977 206.49L227.412 204.678C227.072 205.013 226.722 205.328 226.357 205.634L227.982 208.312C227.525 208.678 227.048 209.021 226.561 209.351L224.42 207.057C224.021 207.313 223.613 207.556 223.19 207.778L224.22 210.714C223.697 210.976 223.16 211.223 222.614 211.443L220.996 208.761C220.547 208.929 220.095 209.078 219.635 209.207L220.03 212.292C219.461 212.442 218.88 212.564 218.297 212.662L217.274 209.721C216.801 209.793 216.326 209.841 215.842 209.869L215.581 212.958C214.994 212.983 214.4 212.982 213.803 212.963L213.414 209.879C212.936 209.848 212.462 209.799 211.977 209.736L211.074 212.688C210.783 212.641 210.492 212.593 210.198 212.533C209.903 212.472 209.616 212.402 209.33 212.331L209.597 209.249C209.131 209.123 208.668 208.98 208.216 208.815L206.707 211.51C206.149 211.293 205.599 211.065 205.067 210.805L205.977 207.849C205.548 207.628 205.121 207.395 204.71 207.148L202.668 209.462C202.168 209.135 201.682 208.794 201.206 208.437L202.721 205.743C202.344 205.443 201.984 205.121 201.631 204.795L199.136 206.635C198.714 206.216 198.308 205.782 197.924 205.329L199.971 203.022C199.669 202.652 199.376 202.266 199.103 201.872L196.27 203.147C195.944 202.651 195.631 202.146 195.345 201.628L197.845 199.795C197.622 199.368 197.417 198.939 197.227 198.496L194.182 199.159C193.963 198.613 193.771 198.054 193.598 197.492L196.436 196.224C196.311 195.763 196.198 195.299 196.105 194.833L192.971 194.85C192.874 194.274 192.803 193.691 192.752 193.101L195.802 192.444C195.771 191.972 195.766 191.494 195.778 191.019L192.702 190.389C192.728 189.814 192.78 189.226 192.856 188.643L195.99 188.632C196.023 188.397 196.062 188.164 196.107 187.931ZM211.471 205.964C219.486 207.605 227.222 202.529 228.755 194.623C230.287 186.717 225.035 178.981 217.02 177.34C209.005 175.698 201.268 180.78 199.736 188.68C198.205 196.58 203.456 204.322 211.471 205.964Z" fill="#D4D8E7" stroke="white" stroke-width="1.05215" mask="url(#path-33-inside-7_5260_1107)"/>
<path d="M243.311 217.926C242.544 221.885 245.176 225.769 249.201 226.594C253.226 227.418 257.104 224.869 257.871 220.909C258.638 216.95 256.006 213.066 251.981 212.241C247.956 211.417 244.078 213.966 243.311 217.926Z" fill="#D4D8E7" stroke="white" stroke-width="0.526074"/>
<path d="M237.472 217.031L237.435 217.221L237.242 217.24L235.46 217.417C235.396 217.943 235.365 218.466 235.355 218.988L237.108 219.523L237.289 219.578L237.296 219.768C237.329 220.681 237.456 221.577 237.677 222.451L237.726 222.645L237.554 222.743L236.018 223.619C236.175 224.138 236.36 224.65 236.572 225.146L238.371 224.936L238.556 224.915L238.639 225.083C239.03 225.879 239.509 226.635 240.052 227.347L240.171 227.503L240.057 227.662L239.022 229.096C239.382 229.518 239.765 229.921 240.172 230.303L241.715 229.382L241.875 229.286L242.019 229.408C242.686 229.972 243.411 230.482 244.185 230.913L244.356 231.008L244.317 231.198L243.964 232.937C244.464 233.186 244.981 233.407 245.516 233.601L246.533 232.14L246.641 231.985L246.822 232.04C247.238 232.167 247.661 232.277 248.094 232.366C248.527 232.455 248.96 232.52 249.391 232.567L249.579 232.587L249.621 232.773L250.015 234.523C250.582 234.555 251.142 234.555 251.696 234.522L252.018 232.776L252.053 232.585L252.246 232.565C253.123 232.472 253.981 232.292 254.807 232.029L254.985 231.972L255.098 232.124L256.181 233.583C256.699 233.391 257.203 233.17 257.693 232.922L257.271 231.189L257.224 230.997L257.394 230.899C258.158 230.463 258.883 229.948 259.542 229.367L259.681 229.244L259.844 229.337L261.427 230.239C261.809 229.861 262.17 229.464 262.508 229.047L261.416 227.633L261.294 227.475L261.41 227.316C261.935 226.593 262.392 225.816 262.763 224.987L262.84 224.814L263.028 224.834L264.836 225.03C265.023 224.546 265.187 224.046 265.322 223.536L263.742 222.67L263.572 222.577L263.609 222.387L263.609 222.386L263.609 222.386L263.609 222.385L263.609 222.385L263.609 222.384L263.609 222.384L263.609 222.383L263.609 222.383L263.609 222.383L263.61 222.382L263.61 222.382L263.61 222.381L263.61 222.381L263.61 222.38L263.61 222.38L263.61 222.379L263.61 222.379L263.61 222.379L263.61 222.378L263.61 222.378L263.611 222.377L263.611 222.377L263.611 222.376L263.611 222.376L263.611 222.376L263.611 222.375L263.611 222.375L263.611 222.374L263.611 222.374L263.611 222.373L263.611 222.373L263.611 222.372L263.612 222.372L263.612 222.372L263.612 222.371L263.612 222.371L263.612 222.37L263.612 222.37L263.612 222.369L263.612 222.369L263.612 222.369L263.612 222.368L263.612 222.368L263.612 222.367L263.613 222.367L263.613 222.366L263.613 222.366L263.613 222.365L263.613 222.365L263.613 222.365L263.613 222.364L263.613 222.364L263.613 222.363L263.613 222.363L263.613 222.362L263.613 222.362L263.614 222.362L263.614 222.361L263.614 222.361L263.614 222.36L263.614 222.36L263.614 222.359L263.614 222.359L263.614 222.358L263.614 222.358L263.614 222.358L263.614 222.357L263.615 222.357L263.615 222.356L263.615 222.356L263.615 222.355L263.615 222.355L263.615 222.355L263.615 222.354L263.615 222.354L263.615 222.353L263.615 222.353L263.615 222.352L263.615 222.352L263.616 222.352L263.616 222.351L263.616 222.351L263.616 222.35L263.616 222.35L263.616 222.349L263.616 222.349L263.616 222.348L263.616 222.348L263.616 222.348L263.616 222.347L263.616 222.347L263.617 222.346L263.617 222.346L263.617 222.345L263.617 222.345L263.617 222.345L263.617 222.344L263.617 222.344L263.617 222.343L263.617 222.343L263.617 222.342L263.617 222.342L263.617 222.342L263.618 222.341L263.618 222.341L263.618 222.34L263.618 222.34L263.618 222.339L263.618 222.339L263.618 222.339L263.618 222.338L263.618 222.338L263.618 222.337L263.618 222.337L263.618 222.336L263.619 222.336L263.619 222.336L263.619 222.335L263.619 222.335L263.619 222.334L263.619 222.334L263.619 222.333L263.619 222.333L263.619 222.333L263.619 222.332L263.619 222.332L263.619 222.331L263.62 222.331L263.62 222.33L263.62 222.33L263.62 222.33L263.62 222.329L263.62 222.329L263.62 222.328L263.62 222.328L263.62 222.327L263.62 222.327L263.62 222.327L263.62 222.326L263.621 222.326L263.621 222.325L263.621 222.325L263.621 222.324L263.621 222.324L263.621 222.324L263.621 222.323L263.621 222.323L263.621 222.322L263.621 222.322L263.621 222.321L263.621 222.321L263.622 222.321L263.622 222.32L263.622 222.32L263.622 222.319L263.622 222.319L263.622 222.318L263.622 222.318L263.622 222.318L263.622 222.317L263.622 222.317L263.622 222.316L263.622 222.316L263.623 222.315L263.623 222.315L263.623 222.315L263.623 222.314L263.623 222.314L263.623 222.313L263.623 222.313L263.623 222.312L263.623 222.312L263.623 222.312L263.623 222.311L263.623 222.311L263.624 222.31L263.624 222.31L263.624 222.309L263.624 222.309L263.624 222.309L263.624 222.308L263.624 222.308L263.624 222.307L263.624 222.307L263.624 222.306L263.624 222.306L263.624 222.306L263.625 222.305L263.625 222.305L263.625 222.304L263.625 222.304L263.625 222.303L263.625 222.303L263.625 222.303L263.625 222.302L263.625 222.302L263.625 222.301L263.625 222.301L263.625 222.3L263.625 222.3L263.626 222.3L263.626 222.299L263.626 222.299L263.626 222.298L263.626 222.298L263.626 222.297L263.626 222.297L263.626 222.297L263.626 222.296L263.626 222.296L263.626 222.295L263.626 222.295L263.627 222.294L263.627 222.294L263.627 222.294L263.627 222.293L263.627 222.293L263.627 222.292L263.627 222.292L263.627 222.291L263.627 222.291L263.627 222.291L263.627 222.29L263.627 222.29L263.628 222.289L263.628 222.289L263.628 222.288L263.628 222.288L263.628 222.288L263.628 222.287L263.628 222.287L263.628 222.286L263.628 222.286L263.628 222.286L263.628 222.285L263.628 222.285L263.629 222.284L263.629 222.284L263.629 222.283L263.629 222.283L263.629 222.283L263.629 222.282L263.629 222.282L263.629 222.281L263.629 222.281L263.629 222.28L263.629 222.28L263.629 222.28L263.63 222.279L263.63 222.279L263.63 222.278L263.63 222.278L263.63 222.277L263.63 222.277L263.63 222.277L263.63 222.276L263.63 222.276L263.63 222.275L263.63 222.275L263.63 222.274L263.631 222.274L263.631 222.274L263.631 222.273L263.631 222.273L263.631 222.272L263.631 222.272L263.631 222.271L263.631 222.271L263.631 222.271L263.631 222.27L263.631 222.27L263.631 222.269L263.632 222.269L263.632 222.268L263.632 222.268L263.632 222.268L263.632 222.267L263.632 222.267L263.632 222.266L263.632 222.266L263.632 222.265L263.632 222.265L263.632 222.265L263.632 222.264L263.633 222.264L263.633 222.263L263.633 222.263L263.633 222.263L263.633 222.262L263.633 222.262L263.633 222.261L263.633 222.261L263.633 222.26L263.633 222.26L263.633 222.26L263.633 222.259L263.633 222.259L263.634 222.258L263.634 222.258L263.634 222.257L263.634 222.257L263.634 222.257L263.634 222.256L263.634 222.256L263.634 222.255L263.634 222.255L263.634 222.254L263.634 222.254L263.634 222.254L263.635 222.253L263.635 222.253L263.635 222.252L263.635 222.252L263.635 222.251L263.635 222.251L263.635 222.251L263.635 222.25L263.635 222.25L263.635 222.249L263.635 222.249L263.635 222.248L263.636 222.248L263.636 222.248L263.636 222.247L263.636 222.247L263.636 222.246L263.636 222.246L263.636 222.245L263.636 222.245L263.636 222.245L263.636 222.244L263.636 222.244L263.636 222.243L263.637 222.243L263.637 222.242L263.637 222.242L263.637 222.242L263.637 222.241L263.637 222.241L263.637 222.24L263.637 222.24L263.637 222.239L263.637 222.239L263.637 222.239L263.637 222.238L263.638 222.238L263.638 222.237L263.638 222.237L263.638 222.236L263.638 222.236L263.638 222.236L263.638 222.235L263.638 222.235L263.638 222.234L263.638 222.234L263.638 222.233L263.638 222.233L263.639 222.233L263.639 222.232L263.639 222.232L263.639 222.231L263.639 222.231L263.639 222.23L263.639 222.23L263.639 222.23L263.639 222.229L263.639 222.229L263.639 222.228L263.639 222.228L263.64 222.227L263.64 222.227L263.64 222.227L263.64 222.226L263.64 222.226L263.64 222.225L263.64 222.225L263.64 222.224L263.64 222.224L263.64 222.224L263.64 222.223L263.64 222.223L263.641 222.222L263.641 222.222L263.641 222.221L263.641 222.221L263.641 222.221L263.641 222.22L263.641 222.22L263.641 222.219L263.641 222.219L263.641 222.218L263.641 222.218L263.641 222.218L263.642 222.217L263.642 222.217L263.642 222.216L263.642 222.216L263.642 222.215L263.642 222.215L263.642 222.215L263.642 222.214L263.642 222.214L263.642 222.213L263.642 222.213L263.642 222.212L263.643 222.212L263.643 222.212L263.643 222.211L263.643 222.211L263.643 222.21L263.643 222.21L263.643 222.209L263.643 222.209L263.643 222.209L263.643 222.208L263.643 222.208L263.643 222.207L263.644 222.207L263.644 222.206L263.644 222.206L263.644 222.206L263.644 222.205L263.644 222.205L263.644 222.204L263.644 222.204L263.644 222.203L263.644 222.203L263.644 222.202L263.644 222.202L263.645 222.202L263.645 222.201L263.645 222.201L263.645 222.2L263.645 222.2L263.645 222.199L263.645 222.199L263.645 222.199L263.645 222.198L263.645 222.198L263.645 222.197L263.645 222.197L263.646 222.196L263.646 222.196L263.646 222.196L263.646 222.195L263.646 222.195L263.646 222.194L263.646 222.194L263.646 222.193L263.646 222.193L263.646 222.192L263.646 222.192L263.646 222.192L263.647 222.191L263.647 222.191L263.647 222.19L263.647 222.19L263.647 222.189L263.647 222.189L263.647 222.189L263.647 222.188L263.647 222.188L263.647 222.187L263.647 222.187L263.648 222.186L263.648 222.186L263.648 222.186L263.648 222.185L263.648 222.185L263.648 222.184L263.648 222.184L263.648 222.183L263.648 222.183L263.648 222.182L263.648 222.182L263.648 222.182L263.649 222.181L263.649 222.181L263.649 222.18L263.649 222.18L263.649 222.179L263.649 222.179L263.649 222.178L263.649 222.178L263.649 222.178L263.649 222.177L263.649 222.177L263.649 222.176L263.65 222.176L263.65 222.175L263.65 222.175L263.65 222.175L263.65 222.174L263.65 222.174L263.65 222.173L263.65 222.173L263.65 222.172L263.65 222.172L263.65 222.171L263.65 222.171L263.651 222.171L263.651 222.17L263.651 222.17L263.651 222.169L263.651 222.169L263.651 222.168L263.651 222.168L263.651 222.167L263.651 222.167L263.651 222.167L263.651 222.166L263.652 222.166C263.817 221.312 263.891 220.462 263.886 219.62L263.885 219.427L264.067 219.369L265.783 218.824C265.752 218.308 265.694 217.797 265.612 217.292L263.828 217.133L263.633 217.115L263.592 216.924C263.389 215.989 263.079 215.078 262.677 214.208L262.595 214.03L262.739 213.901L264.063 212.714C263.826 212.264 263.568 211.823 263.29 211.399L261.598 211.97L261.417 212.032L261.302 211.876C260.721 211.087 260.057 210.358 259.312 209.708L259.165 209.58L259.243 209.402L259.954 207.774C259.562 207.465 259.15 207.17 258.725 206.898L257.423 208.104L257.283 208.233L257.116 208.138C256.26 207.648 255.347 207.241 254.378 206.942L254.193 206.885L254.191 206.691L254.171 204.917C253.93 204.853 253.685 204.795 253.439 204.745C253.194 204.695 252.947 204.655 252.698 204.618L252.02 206.246L251.945 206.424L251.753 206.404C250.746 206.299 249.751 206.314 248.778 206.429L248.588 206.452L248.507 206.277L247.754 204.65C247.261 204.734 246.774 204.844 246.292 204.975L246.343 206.759L246.348 206.953L246.165 207.014C245.24 207.322 244.349 207.732 243.519 208.232L243.355 208.33L243.21 208.202L241.861 207.008C241.445 207.289 241.043 207.595 240.656 207.917L241.437 209.536L241.522 209.712L241.381 209.843C240.691 210.485 240.059 211.203 239.523 211.991L239.414 212.152L239.227 212.092L237.52 211.536C237.256 211.97 237.012 212.418 236.791 212.883L238.172 214.063L238.319 214.188L238.246 214.366C237.928 215.142 237.68 215.956 237.514 216.81L237.514 216.81L237.514 216.811L237.514 216.811L237.514 216.812L237.514 216.812L237.514 216.812L237.514 216.813L237.514 216.813L237.514 216.814L237.514 216.814L237.513 216.815L237.513 216.815L237.513 216.815L237.513 216.816L237.513 216.816L237.513 216.817L237.513 216.817L237.513 216.818L237.513 216.818L237.513 216.819L237.513 216.819L237.513 216.819L237.512 216.82L237.512 216.82L237.512 216.821L237.512 216.821L237.512 216.822L237.512 216.822L237.512 216.823L237.512 216.823L237.512 216.823L237.512 216.824L237.512 216.824L237.512 216.825L237.511 216.825L237.511 216.826L237.511 216.826L237.511 216.826L237.511 216.827L237.511 216.827L237.511 216.828L237.511 216.828L237.511 216.829L237.511 216.829L237.511 216.83L237.511 216.83L237.51 216.83L237.51 216.831L237.51 216.831L237.51 216.832L237.51 216.832L237.51 216.833L237.51 216.833L237.51 216.833L237.51 216.834L237.51 216.834L237.51 216.835L237.509 216.835L237.509 216.836L237.509 216.836L237.509 216.837L237.509 216.837L237.509 216.837L237.509 216.838L237.509 216.838L237.509 216.839L237.509 216.839L237.509 216.84L237.509 216.84L237.508 216.84L237.508 216.841L237.508 216.841L237.508 216.842L237.508 216.842L237.508 216.843L237.508 216.843L237.508 216.843L237.508 216.844L237.508 216.844L237.508 216.845L237.508 216.845L237.507 216.846L237.507 216.846L237.507 216.847L237.507 216.847L237.507 216.847L237.507 216.848L237.507 216.848L237.507 216.849L237.507 216.849L237.507 216.85L237.507 216.85L237.507 216.85L237.506 216.851L237.506 216.851L237.506 216.852L237.506 216.852L237.506 216.853L237.506 216.853L237.506 216.853L237.506 216.854L237.506 216.854L237.506 216.855L237.506 216.855L237.506 216.856L237.505 216.856L237.505 216.856L237.505 216.857L237.505 216.857L237.505 216.858L237.505 216.858L237.505 216.859L237.505 216.859L237.505 216.859L237.505 216.86L237.505 216.86L237.505 216.861L237.504 216.861L237.504 216.862L237.504 216.862L237.504 216.862L237.504 216.863L237.504 216.863L237.504 216.864L237.504 216.864L237.504 216.865L237.504 216.865L237.504 216.866L237.504 216.866L237.503 216.866L237.503 216.867L237.503 216.867L237.503 216.868L237.503 216.868L237.503 216.869L237.503 216.869L237.503 216.869L237.503 216.87L237.503 216.87L237.503 216.871L237.503 216.871L237.502 216.872L237.502 216.872L237.502 216.872L237.502 216.873L237.502 216.873L237.502 216.874L237.502 216.874L237.502 216.875L237.502 216.875L237.502 216.875L237.502 216.876L237.502 216.876L237.501 216.877L237.501 216.877L237.501 216.878L237.501 216.878L237.501 216.878L237.501 216.879L237.501 216.879L237.501 216.88L237.501 216.88L237.501 216.881L237.501 216.881L237.501 216.881L237.5 216.882L237.5 216.882L237.5 216.883L237.5 216.883L237.5 216.884L237.5 216.884L237.5 216.884L237.5 216.885L237.5 216.885L237.5 216.886L237.5 216.886L237.5 216.887L237.499 216.887L237.499 216.887L237.499 216.888L237.499 216.888L237.499 216.889L237.499 216.889L237.499 216.889L237.499 216.89L237.499 216.89L237.499 216.891L237.499 216.891L237.499 216.892L237.498 216.892L237.498 216.892L237.498 216.893L237.498 216.893L237.498 216.894L237.498 216.894L237.498 216.895L237.498 216.895L237.498 216.895L237.498 216.896L237.498 216.896L237.498 216.897L237.497 216.897L237.497 216.898L237.497 216.898L237.497 216.898L237.497 216.899L237.497 216.899L237.497 216.9L237.497 216.9L237.497 216.901L237.497 216.901L237.497 216.901L237.497 216.902L237.496 216.902L237.496 216.903L237.496 216.903L237.496 216.904L237.496 216.904L237.496 216.904L237.496 216.905L237.496 216.905L237.496 216.906L237.496 216.906L237.496 216.907L237.496 216.907L237.496 216.907L237.495 216.908L237.495 216.908L237.495 216.909L237.495 216.909L237.495 216.91L237.495 216.91L237.495 216.91L237.495 216.911L237.495 216.911L237.495 216.912L237.495 216.912L237.495 216.913L237.494 216.913L237.494 216.913L237.494 216.914L237.494 216.914L237.494 216.915L237.494 216.915L237.494 216.915L237.494 216.916L237.494 216.916L237.494 216.917L237.494 216.917L237.494 216.918L237.493 216.918L237.493 216.918L237.493 216.919L237.493 216.919L237.493 216.92L237.493 216.92L237.493 216.921L237.493 216.921L237.493 216.921L237.493 216.922L237.493 216.922L237.493 216.923L237.492 216.923L237.492 216.924L237.492 216.924L237.492 216.924L237.492 216.925L237.492 216.925L237.492 216.926L237.492 216.926L237.492 216.927L237.492 216.927L237.492 216.927L237.492 216.928L237.491 216.928L237.491 216.929L237.491 216.929L237.491 216.93L237.491 216.93L237.491 216.93L237.491 216.931L237.491 216.931L237.491 216.932L237.491 216.932L237.491 216.933L237.491 216.933L237.49 216.933L237.49 216.934L237.49 216.934L237.49 216.935L237.49 216.935L237.49 216.936L237.49 216.936L237.49 216.936L237.49 216.937L237.49 216.937L237.49 216.938L237.49 216.938L237.489 216.938L237.489 216.939L237.489 216.939L237.489 216.94L237.489 216.94L237.489 216.941L237.489 216.941L237.489 216.941L237.489 216.942L237.489 216.942L237.489 216.943L237.489 216.943L237.488 216.944L237.488 216.944L237.488 216.944L237.488 216.945L237.488 216.945L237.488 216.946L237.488 216.946L237.488 216.947L237.488 216.947L237.488 216.947L237.488 216.948L237.488 216.948L237.487 216.949L237.487 216.949L237.487 216.95L237.487 216.95L237.487 216.95L237.487 216.951L237.487 216.951L237.487 216.952L237.487 216.952L237.487 216.953L237.487 216.953L237.487 216.953L237.487 216.954L237.486 216.954L237.486 216.955L237.486 216.955L237.486 216.956L237.486 216.956L237.486 216.956L237.486 216.957L237.486 216.957L237.486 216.958L237.486 216.958L237.486 216.959L237.486 216.959L237.485 216.959L237.485 216.96L237.485 216.96L237.485 216.961L237.485 216.961L237.485 216.962L237.485 216.962L237.485 216.962L237.485 216.963L237.485 216.963L237.485 216.964L237.485 216.964L237.484 216.965L237.484 216.965L237.484 216.965L237.484 216.966L237.484 216.966L237.484 216.967L237.484 216.967L237.484 216.968L237.484 216.968L237.484 216.968L237.484 216.969L237.484 216.969L237.483 216.97L237.483 216.97L237.483 216.971L237.483 216.971L237.483 216.971L237.483 216.972L237.483 216.972L237.483 216.973L237.483 216.973L237.483 216.974L237.483 216.974L237.483 216.974L237.482 216.975L237.482 216.975L237.482 216.976L237.482 216.976L237.482 216.977L237.482 216.977L237.482 216.977L237.482 216.978L237.482 216.978L237.482 216.979L237.482 216.979L237.482 216.98L237.481 216.98L237.481 216.98L237.481 216.981L237.481 216.981L237.481 216.982L237.481 216.982L237.481 216.983L237.481 216.983L237.481 216.983L237.481 216.984L237.481 216.984L237.481 216.985L237.48 216.985L237.48 216.986L237.48 216.986L237.48 216.986L237.48 216.987L237.48 216.987L237.48 216.988L237.48 216.988L237.48 216.989L237.48 216.989L237.48 216.99L237.48 216.99L237.479 216.99L237.479 216.991L237.479 216.991L237.479 216.992L237.479 216.992L237.479 216.993L237.479 216.993L237.479 216.993L237.479 216.994L237.479 216.994L237.479 216.995L237.479 216.995L237.478 216.996L237.478 216.996L237.478 216.996L237.478 216.997L237.478 216.997L237.478 216.998L237.478 216.998L237.478 216.999L237.478 216.999L237.478 216.999L237.478 217L237.477 217L237.477 217.001L237.477 217.001L237.477 217.002L237.477 217.002L237.477 217.003L237.477 217.003L237.477 217.003L237.477 217.004L237.477 217.004L237.477 217.005L237.477 217.005L237.476 217.006L237.476 217.006L237.476 217.006L237.476 217.007L237.476 217.007L237.476 217.008L237.476 217.008L237.476 217.009L237.476 217.009L237.476 217.009L237.476 217.01L237.476 217.01L237.475 217.011L237.475 217.011L237.475 217.012L237.475 217.012L237.475 217.013L237.475 217.013L237.475 217.013L237.475 217.014L237.475 217.014L237.475 217.015L237.475 217.015L237.475 217.016L237.474 217.016L237.474 217.016L237.474 217.017L237.474 217.017L237.474 217.018L237.474 217.018L237.474 217.019L237.474 217.019L237.474 217.02L237.474 217.02L237.474 217.02L237.474 217.021L237.473 217.021L237.473 217.022L237.473 217.022L237.473 217.023L237.473 217.023L237.473 217.024L237.473 217.024L237.473 217.024L237.473 217.025L237.473 217.025L237.473 217.026L237.472 217.026L237.472 217.027L237.472 217.027L237.472 217.028L237.472 217.028L237.472 217.028L237.472 217.029L237.472 217.029L237.472 217.03L237.472 217.03L237.472 217.031ZM259.642 221.272C258.687 226.202 253.85 229.369 248.861 228.347C243.872 227.324 240.584 222.492 241.539 217.562C242.494 212.632 247.331 209.464 252.32 210.487C257.31 211.509 260.597 216.342 259.642 221.272Z" fill="#D4D8E7" stroke="white" stroke-width="0.526074"/>
<path d="M185.156 108.835L185.156 108.834C183.444 108.094 181.806 107.207 180.241 106.201V137.21C190.127 137.713 199.932 139.984 209.03 143.9C209.253 143.049 209.479 142.201 209.704 141.352C209.955 140.405 210.206 139.459 210.455 138.51L210.455 138.509C211.15 135.886 209.712 133.17 207.15 132.245C202.847 130.696 198.641 128.838 195.06 125.985L195.059 125.985C190.895 122.653 187.69 117.633 187.463 112.358L187.463 112.357C187.398 110.822 186.546 109.434 185.156 108.835Z" fill="#D4D8E7" stroke="white" stroke-width="0.526074"/>
<path d="M183.34 137.069V79.6711C183.34 58.734 178.179 38.214 168.453 20.396L168.453 20.396L165.172 14.3861C165.172 14.386 165.172 14.3858 165.172 14.3856C164.885 13.8656 164.42 13.6179 163.969 13.6136C163.518 13.6094 163.053 13.8479 162.763 14.3631L162.763 14.3635L159.662 19.8499L159.662 19.85C149.387 38.0084 143.927 59.1015 143.927 80.6535V137.069H183.34Z" fill="#D4D8E7" stroke="white" stroke-width="0.526074"/>
<path d="M130.97 125.977L130.543 126.318V126.303C127.057 128.975 123.013 130.741 118.88 132.229L118.879 132.229C116.319 133.145 114.88 135.86 115.575 138.493L115.575 138.494C115.824 139.442 116.075 140.389 116.326 141.336L116.327 141.337C116.552 142.185 116.777 143.033 117 143.883C126.21 139.925 136.144 137.645 146.158 137.184V105.953C144.479 107.065 142.705 108.035 140.857 108.835L140.856 108.836C139.476 109.426 138.632 110.812 138.567 112.349C138.348 117.625 135.143 122.646 130.97 125.977Z" fill="#D4D8E7" stroke="white" stroke-width="0.526074"/>
<path d="M164.533 13.7728V141.003H178.334C181.094 141.003 183.332 138.765 183.332 136.005V81.7794C183.332 60.1767 178.171 39.0046 168.443 20.6208L168.443 20.6207L165.162 14.4196L165.162 14.4189C164.999 14.1084 164.778 13.8975 164.533 13.7728Z" fill="#D4D8E7" stroke="white" stroke-width="0.526074"/>
<path d="M146.422 136.627C146.422 135.559 154.623 134.686 164.734 134.686C174.846 134.686 183.047 135.552 183.047 136.627V139.325C183.047 140.393 174.846 141.266 164.734 141.266C154.623 141.266 146.422 140.401 146.422 139.325V136.627Z" fill="url(#paint0_linear_5260_1107)"/>
<path d="M163.684 97.47C155.345 97.47 148.585 89.5121 148.585 79.6955C148.585 69.879 155.345 61.9211 163.684 61.9211C172.022 61.9211 178.782 69.879 178.782 79.6955C178.782 89.5121 172.022 97.47 163.684 97.47Z" fill="white"/>
<path fill-rule="evenodd" clip-rule="evenodd" d="M163.768 68.8591H163.597L152.852 79.6075L152.851 79.7784L163.598 90.5319H163.768L174.516 79.7784L174.515 79.6075L163.768 68.8591ZM162.31 82.9078L163.137 82.0796L162.78 81.7231L161.952 82.55L162.31 82.9078ZM161.611 82.2101L162.44 81.3828L162.075 81.0184L161.247 81.846L161.611 82.2101ZM168.025 79.9263V85.3943L163.683 89.7385L159.341 85.3937V79.9409L160.91 81.5097C161.574 80.8463 162.237 80.187 162.9 79.5228L163.702 80.3254C164.542 81.0133 165.636 79.9655 164.894 79.1335L164.123 78.3615L168.025 74.4604V79.0498L166.361 80.7136L166.14 80.4925C165.748 80.1644 165.054 80.6671 165.056 81.1399C164.749 81.0908 164.279 81.4391 164.292 81.8334C164.009 81.8444 163.619 82.1411 163.623 82.5356C163.454 82.5382 163.252 82.6438 163.11 82.8096L162.66 83.259L163.673 84.2723L163.836 84.1094L164.009 83.9365C163.792 83.7205 163.576 83.5045 163.358 83.2879L163.682 82.9634L164.333 83.6128L164.697 83.2502C164.479 83.034 164.263 82.8178 164.044 82.6011L164.395 82.2504C164.613 82.4672 164.83 82.6836 165.047 82.9001L165.407 82.5411L164.757 81.8885L165.098 81.5472C165.314 81.7661 165.531 81.9836 165.747 82.2014L166.11 81.8386C165.892 81.6218 165.675 81.405 165.457 81.1879L165.795 80.8481L166.448 81.5014L168.025 79.9263ZM168.629 84.7896V79.3214L170.987 76.9607L171.131 77.1046V82.2863L168.629 84.7896ZM171.735 81.6816V77.7094L173.72 79.6955L171.735 81.6816ZM170.551 76.5242L168.629 78.4457V74.6014L170.551 76.5242ZM167.814 73.786L163.683 77.9226L159.549 73.7896L163.683 69.6525L167.814 73.786ZM158.737 74.6021V78.4425L156.817 76.5234L158.737 74.6021ZM155.631 77.7102V81.6808L153.647 79.6955L155.631 77.7102ZM156.235 82.2856V77.1054L156.371 76.9695L158.737 79.3364V84.7891L156.235 82.2856ZM159.341 74.4535L164.454 79.5729C164.754 79.8382 164.386 80.1531 164.142 79.8857L162.931 78.6746L160.95 80.654L159.341 79.0463V74.4535Z" fill="url(#paint1_radial_5260_1107)"/>
<defs>
<linearGradient id="paint0_linear_5260_1107" x1="164.734" y1="132.56" x2="164.734" y2="141.266" gradientUnits="userSpaceOnUse">
<stop stop-color="#F3F3F5"/>
<stop offset="1" stop-color="#C3C8D6"/>
</linearGradient>
<radialGradient id="paint1_radial_5260_1107" cx="0" cy="0" r="1" gradientUnits="userSpaceOnUse" gradientTransform="translate(164.252 79.6955) rotate(-130.4) scale(14.2297 14.2242)">
<stop stop-color="#BFC3D2"/>
<stop offset="1" stop-color="#A5ADC9"/>
</radialGradient>
</defs>
</svg>
