<svg width="360" height="305" viewBox="0 0 360 305" fill="none" xmlns="http://www.w3.org/2000/svg">
<path d="M67.2833 195.762L159.166 248.983V267.261L67.2833 214.024V195.762Z" fill="#98A0BE" stroke="#98A0BE" stroke-width="1.14286"/>
<path d="M77.8942 188.661L164.866 239.051L159.539 247.88L67.8327 194.761L77.8942 188.661Z" fill="#D4D8E7" stroke="#98A0BE" stroke-width="1.14286"/>
<path d="M287.104 193.808L160.309 267.259V248.982L287.104 175.546V193.808Z" fill="#98A0BE" stroke="#98A0BE" stroke-width="1.14286"/>
<path d="M161.376 247.043L166.069 239.266L274.024 176.735L284.998 175.445L161.376 247.043Z" fill="#D4D8E7" stroke="#98A0BE" stroke-width="1.14286"/>
<path d="M186.073 125.991L272.701 176.181L165.657 238.185L79.0286 187.994L186.073 125.991Z" fill="#98A0BE" stroke="#98A0BE" stroke-width="1.14286"/>
<path d="M199.785 124.294L285.903 174.189L273.962 175.593L187.844 125.698L199.785 124.294Z" fill="#D4D8E7" stroke="#98A0BE" stroke-width="1.14286"/>
<path d="M115.136 189.574L182.215 150.706L236.592 182.214L169.513 221.067L115.136 189.574Z" fill="#D4D8E7" stroke="#98A0BE" stroke-width="1.14286"/>
<path d="M199.006 174.563C200.195 175.16 201.268 175.874 202.286 176.659C201.189 175.968 200.074 175.267 198.911 174.722C196.137 173.357 193.043 173.271 190.067 173.887C188.587 174.178 187.13 174.612 185.684 175.053L185.675 175.056L185.666 175.059C185.481 175.123 185.281 175.185 185.075 175.249C184.917 175.298 184.754 175.349 184.589 175.402C184.415 175.459 184.242 175.519 184.103 175.578C184.035 175.607 183.959 175.642 183.889 175.684C183.854 175.705 183.809 175.735 183.764 175.776C183.727 175.808 183.66 175.873 183.61 175.973L183.604 175.983C183.601 175.988 183.596 175.998 183.591 176.009C183.562 176.065 183.529 176.148 183.52 176.257C183.513 176.346 183.526 176.421 183.534 176.463C183.543 176.509 183.556 176.557 183.568 176.603L183.57 176.61L183.572 176.616C183.651 176.881 183.848 177.191 184.06 177.422L184.06 177.423L184.068 177.431C184.285 177.659 184.587 177.872 184.89 178.058C185.199 178.249 185.544 178.434 185.871 178.602C185.947 178.642 186.023 178.682 186.099 178.721C186.705 179.037 187.311 179.352 187.887 179.839C188.531 180.402 189.006 181.104 189.212 182.007C189.302 182.435 189.287 182.924 189.122 183.382C188.966 183.816 188.627 184.205 188.295 184.459C187.787 184.829 187.396 185.051 186.978 185.289C186.756 185.415 186.527 185.546 186.267 185.705C185.616 186.078 184.934 186.452 184.251 186.81C182.869 187.511 181.432 188.138 179.9 188.533L179.9 188.533L179.89 188.536C178.728 188.859 177.494 188.932 176.343 189.001C175.988 189.022 175.641 189.042 175.306 189.07C173.816 189.19 172.581 189.712 171.494 190.681C170.458 191.603 169.586 192.846 168.713 194.097L168.713 194.097L168.708 194.105C167.874 195.344 166.833 196.647 165.696 197.681L165.695 197.683C163.512 199.684 161.078 201.257 158.521 202.632L157.936 201.476C160.415 200.158 162.809 198.603 164.845 196.741L164.845 196.741C165.957 195.724 166.834 194.63 167.714 193.347C167.813 193.208 167.912 193.068 168.011 192.929C168.805 191.81 169.602 190.686 170.719 189.725L170.719 189.725L170.727 189.718C171.917 188.656 173.648 187.977 175.19 187.904L175.196 187.904C175.555 187.884 175.904 187.869 176.247 187.855C177.438 187.806 178.543 187.761 179.661 187.478C181.085 187.132 182.464 186.561 183.804 185.904L183.804 185.904L183.809 185.902C184.477 185.567 185.144 185.216 185.811 184.85L185.811 184.85L185.822 184.844C186.015 184.732 186.218 184.621 186.426 184.507C186.553 184.437 186.682 184.366 186.812 184.293C187.139 184.11 187.473 183.916 187.719 183.734L187.727 183.727L187.735 183.721C187.957 183.543 188.165 183.339 188.283 183.053C188.401 182.769 188.398 182.481 188.372 182.209L188.37 182.198L188.369 182.186C188.283 181.563 187.865 180.894 187.38 180.464C186.927 180.058 186.308 179.705 185.722 179.37C185.666 179.338 185.61 179.306 185.555 179.274C185.439 179.207 185.326 179.143 185.215 179.08C184.644 178.757 184.127 178.464 183.583 177.886C183.293 177.551 183.071 177.207 182.959 176.744L182.955 176.726L182.949 176.708C182.899 176.549 182.888 176.301 182.952 176.035C183.015 175.772 183.137 175.548 183.293 175.406L183.293 175.406L183.299 175.4C183.638 175.08 183.95 174.988 184.279 174.89C184.338 174.873 184.398 174.855 184.458 174.836L185.552 174.523L185.553 174.522C187.026 174.098 188.495 173.711 190.019 173.464L190.019 173.464L190.032 173.461C192.999 172.909 196.305 173.118 198.992 174.556L198.999 174.56L199.006 174.563Z" fill="#98A0BE" stroke="#98A0BE" stroke-width="1.14286"/>
<path d="M29.8622 64.4675C31.3103 67.8471 66.0652 90.2406 66.742 92.9569C67.104 94.394 67.2142 96.368 68.379 99.4633C69.4021 102.164 71.228 105.717 74.7224 110.534C82.1519 120.767 94.1303 119.63 99.9543 118.383C100.002 118.383 100.064 118.367 100.127 118.351C101.261 118.114 102.567 117.83 103.937 117.577C105.621 117.245 107.4 116.914 109.099 116.63C113.003 115.966 116.45 115.493 117.253 115.65C118.15 115.824 126.729 118.951 133.859 121.809C138.125 123.531 141.871 125.142 143.13 125.979C146.499 128.205 149.773 129.943 149.773 129.943L148.718 134.001C147.663 138.06 148.718 146.256 148.718 146.256C148.718 146.256 147.9 147.898 147.128 156.158C146.987 157.721 146.845 159.522 146.703 161.606C146.389 166.375 147.128 170.181 148.435 173.056C148.608 173.419 148.781 173.766 148.954 174.114C149.332 174.793 149.741 175.409 150.166 175.961C151.599 177.809 153.33 178.978 155.014 179.467C155.99 179.752 156.95 179.815 157.863 179.657C157.942 179.657 158.021 179.625 158.084 179.609C159.012 179.42 159.768 179.088 160.397 178.646C163.026 176.798 163.372 173.008 163.829 169.708C167.481 168.46 178.357 156.474 183.268 151.562C184.937 149.904 185.991 148.53 186.684 147.361C188.038 145.087 187.927 143.603 187.99 142.197C188.085 140.081 181.93 126.073 181.93 126.073C181.93 126.073 181.978 125.947 182.056 125.71C182.261 125.126 182.67 123.878 183.001 122.41C183.52 120.135 183.882 117.372 183.064 115.65C181.521 112.366 170.267 104.738 170.267 104.738C170.267 104.738 171.809 100.206 172.093 97.205C172.376 94.2045 168.047 89.5773 168.047 89.5773L167.559 85.8187C167.071 82.0602 164.348 78.5385 160.885 76.8645C157.423 75.1905 122.778 60.1246 113.79 55.3711C104.818 50.6176 94.8701 28.1767 79.476 13.7583C79.476 13.7583 68.8984 6.1622 46.7517 25.0814C35.8908 34.4147 31.2631 43.3058 29.5631 50.3176C27.8002 57.5189 29.1381 62.7619 29.8622 64.4675Z" fill="white"/>
<path d="M155.471 195.17L159.07 194.25L159.082 194.519C159.107 195.107 159.14 195.901 159.174 196.719C159.241 198.367 159.307 200.091 159.307 200.486C159.307 200.603 159.258 200.72 159.012 200.837C158.771 200.951 158.422 201.016 158.039 201.021C158.02 201.001 157.994 200.973 157.962 200.934C157.844 200.788 157.698 200.557 157.532 200.249C157.204 199.637 156.844 198.809 156.506 197.963C156.169 197.12 155.861 196.277 155.637 195.643C155.575 195.467 155.519 195.308 155.471 195.17ZM158.08 201.057C158.08 201.057 158.079 201.056 158.077 201.054C158.079 201.056 158.08 201.057 158.08 201.057Z" fill="url(#paint0_linear_5274_620)" stroke="#98A0BE" stroke-width="1.14286"/>
<path d="M146.772 177.333L146.771 177.332L146.756 177.277L146.679 177.005L146.378 175.94L145.231 171.876L141.078 157.166L127.96 110.705C118.075 75.6942 107.242 37.3233 103.448 23.8836C102.742 21.3597 104.099 18.7262 106.554 17.8489L106.554 17.8489L106.556 17.8481L110.003 16.6005L110.004 16.6002C112.205 15.7997 114.619 17.0537 115.255 19.3281L115.372 19.7457H115.386L158.133 174.641L159.892 195.117C159.979 196.158 159.316 197.118 158.312 197.392L158.311 197.392C156.849 197.792 155.33 197.072 154.737 195.696L154.736 195.694C153.477 192.797 151.482 188.197 149.802 184.322C148.962 182.385 148.2 180.628 147.649 179.356L146.996 177.85L146.818 177.44L146.772 177.333Z" fill="#98A0BE" stroke="#98A0BE" stroke-width="1.14286"/>
<path d="M146.72 161.589C146.405 166.358 147.145 170.164 148.451 173.038C148.624 173.401 148.797 173.749 148.971 174.096C149.348 174.775 149.758 175.391 150.183 175.944C152.449 178.85 155.408 180.082 157.88 179.655C157.958 179.655 158.037 179.624 158.1 179.608C158.462 179.529 158.793 179.434 159.123 179.324V173.875L148.325 136.921C148.073 141.074 148.734 146.254 148.734 146.254C148.734 146.254 147.916 147.897 147.145 156.156C147.003 157.72 146.861 159.52 146.72 161.605V161.589Z" fill="white"/>
<g style="mix-blend-mode:multiply">
<path d="M160.413 178.63C163.042 176.782 163.388 172.992 163.844 169.691C167.496 168.444 178.373 156.457 183.284 151.546C184.952 149.888 186.007 148.514 186.7 147.345C182.749 149.983 182.009 150.741 178.64 152.02C174.926 153.425 172.407 153.978 171.589 153.52C170.109 152.699 170.471 151.388 171.51 148.735C172.549 146.082 174.548 139.718 177.051 134.775C179.553 129.816 182.088 125.694 182.088 125.694C182.292 125.11 182.702 123.862 183.032 122.393C180.828 125.773 177.885 127.178 175.697 127.826C173.509 128.473 174.8 132.722 170.943 142.892C167.087 153.062 163.624 161.306 162.995 166.059C162.554 169.312 161.247 174.698 160.429 178.63H160.413Z" fill="#D4D8E7"/>
</g>
<path d="M155.03 179.451C156.006 179.735 156.966 179.814 157.879 179.64C157.958 179.64 158.037 179.609 158.1 179.593C159.028 179.403 159.784 179.072 160.413 178.629C163.042 176.782 163.388 172.992 163.845 169.691C163.845 169.691 165.088 164.48 163.845 164.385C162.601 164.29 157.785 164.969 156.431 169.691C155.077 174.429 154.495 177.887 155.03 179.435V179.451Z" fill="#D4D8E7"/>
<g style="mix-blend-mode:multiply">
<path d="M170.284 104.723C170.284 104.723 144.202 89.183 142.376 86.9563C145.839 87.8248 151.128 90.8254 151.899 91.4887C152.67 92.1677 170.284 104.723 170.284 104.723Z" fill="#D4D8E7"/>
</g>
<g style="mix-blend-mode:multiply">
<path d="M155.472 76.8804C156.149 79.344 168.489 103.443 168.489 103.443L170.283 104.722C170.283 104.722 164.995 93.9993 164.129 92.5621C163.263 91.1093 158.258 79.6282 155.472 76.8804Z" fill="#D4D8E7"/>
</g>
<path d="M68.0015 111.688C70.2209 118.163 73.7783 124.922 82.8133 132.344C87.441 136.15 97.2472 141.614 103.307 146.731C109.367 151.848 124.667 162.665 125.816 163.234C126.965 163.818 133.151 173.088 140.439 176.468C143.351 177.826 145.665 176.973 147.255 174.968C147.695 174.415 148.089 173.767 148.419 173.041C149.883 169.898 150.23 165.429 149.285 161.528C148.86 159.728 148.073 157.928 147.113 156.159C146.043 154.201 144.752 152.306 143.43 150.537C140.644 146.81 137.747 143.683 136.677 141.898C134.662 138.519 128.98 132.534 124.935 129.833C122.668 128.317 115.443 122.095 109.084 116.615C104.142 112.351 99.7185 108.529 98.5694 107.724C97.0426 106.65 94.8704 103.791 93.076 100.033C91.8011 97.364 90.715 94.2213 90.1955 90.9207C88.952 83.0088 78.5476 74.8915 73.6524 77.3077C72.7551 77.7499 71.9839 78.3816 71.307 79.1554C68.3006 82.614 67.3562 88.8519 66.7266 92.9421C65.9553 97.9641 65.7664 105.197 67.9701 111.672L68.0015 111.688Z" fill="white"/>
<path d="M136.898 156.364C142.218 161.78 144.799 163.454 145.759 165.428C146.72 167.418 146.153 177.478 141.006 176.673C140.833 176.609 140.66 176.53 140.486 176.452C135.292 174.051 130.664 168.65 128.004 165.539C127.989 165.523 127.973 165.492 127.957 165.476C127.154 164.528 125.187 161.512 128.382 157.343C130.696 154.974 135.056 154.453 136.913 156.364H136.898Z" fill="#D4D8E7"/>
<path d="M229.529 213.705C230.663 213.074 231.67 213.026 232.41 213.453L239.603 217.654C238.863 217.227 237.856 217.274 236.723 217.906C234.425 219.185 232.551 222.391 232.52 225.06C232.504 226.418 232.961 227.366 233.732 227.824L226.539 223.623C225.783 223.181 225.311 222.217 225.327 220.859C225.358 218.19 227.247 215 229.529 213.705Z" fill="#D4D8E7"/>
<path d="M234.208 221.199C234.864 220.083 235.727 219.123 236.654 218.516L236.966 218.342C238.134 217.691 239.025 217.789 239.566 218.241C241.036 219.472 242.511 220.707 243.986 221.942L243.988 221.944C245.027 222.814 246.066 223.685 247.104 224.553C246.864 224.622 246.621 224.725 246.38 224.859L246.379 224.859C245.52 225.339 244.765 226.159 244.225 227.078C243.684 227.996 243.33 229.061 243.321 230.061H243.321V230.065C243.321 230.369 243.352 230.661 243.416 230.931C242.145 230.456 240.876 229.979 239.606 229.503L239.606 229.502C237.807 228.827 236.008 228.152 234.205 227.48L234.204 227.48C233.538 227.235 233.005 226.47 233.02 225.049C233.034 223.822 233.479 222.438 234.208 221.199Z" fill="#D4D8E7" stroke="#98A0BE"/>
<path d="M246.302 231.305C245.632 231.679 245.151 231.641 244.867 231.467C244.579 231.29 244.315 230.863 244.322 230.071C244.329 229.287 244.613 228.393 245.088 227.587C245.562 226.78 246.201 226.107 246.868 225.734C247.538 225.36 248.019 225.398 248.303 225.572C248.591 225.749 248.854 226.175 248.847 226.967C248.84 227.752 248.557 228.646 248.082 229.452C247.607 230.259 246.969 230.932 246.302 231.305Z" fill="#D4D8E7" stroke="#98A0BE"/>
<path d="M246.287 229.534L246.287 229.534L246.282 229.537C246.162 229.603 246.076 229.623 246.025 229.627C245.978 229.63 245.961 229.619 245.957 229.617C245.957 229.617 245.858 229.552 245.857 229.252C245.863 228.953 245.975 228.588 246.174 228.248C246.375 227.905 246.633 227.64 246.881 227.506L246.881 227.506L246.886 227.503C247.005 227.436 247.091 227.417 247.142 227.413C247.189 227.41 247.206 227.421 247.21 227.423C247.211 227.423 247.31 227.488 247.311 227.788C247.304 228.087 247.193 228.452 246.994 228.792C246.793 229.135 246.534 229.399 246.287 229.534Z" fill="#D4D8E7" stroke="#98A0BE" stroke-width="1.14286"/>
<path d="M250.425 232.555L250.425 232.555L250.421 232.552L246.291 229.9L247.721 227.663L251.876 230.327C253.718 231.562 254.797 233.584 254.782 235.781C254.767 237.98 253.658 239.986 251.818 241.158C250.731 241.849 250.095 242.999 250.076 244.286C250.041 245.577 250.643 246.743 251.687 247.483L251.695 247.489L251.704 247.495L263.658 255.277L262.213 257.508L250.211 249.694C248.397 248.414 247.38 246.393 247.424 244.243C247.467 242.089 248.577 240.11 250.39 238.936C251.492 238.229 252.13 237.076 252.13 235.752C252.13 234.454 251.532 233.283 250.425 232.555Z" fill="#D4D8E7" stroke="#98A0BE"/>
<path opacity="0.7" d="M236.744 182.458L241.002 142.821L180.819 104.659L103.89 151.557L115.367 190.022L169.533 221.402L236.744 182.458Z" fill="url(#paint1_linear_5274_620)"/>
<path d="M262.014 237.358V288.488C262.014 294.169 331.307 294.169 331.307 288.488V237.358H262.014Z" fill="#D4D8E7"/>
<path d="M304.729 256.669C304.729 261.143 301.114 264.768 296.658 264.768C292.202 264.768 288.587 261.143 288.587 256.669C288.587 252.195 292.202 248.57 296.658 248.57C301.114 248.57 304.729 252.195 304.729 256.669Z" fill="#98A0BE" stroke="#98A0BE" stroke-width="0.964047"/>
<path d="M296.658 282.034C294.991 282.034 293.634 280.675 293.634 278.999V259.794H299.682V278.999C299.682 280.675 298.325 282.034 296.658 282.034Z" fill="#98A0BE" stroke="#98A0BE" stroke-width="0.964047"/>
<path d="M325.236 233.713H318.224V230.269C318.224 218.339 308.554 208.637 296.663 208.637C284.772 208.637 275.097 218.344 275.097 230.269V233.713H268.085V230.269C268.085 214.461 280.902 201.602 296.658 201.602C312.414 201.602 325.231 214.461 325.231 230.269V233.713H325.236Z" fill="#D4D8E7"/>
<defs>
<linearGradient id="paint0_linear_5274_620" x1="157.305" y1="193.522" x2="157.305" y2="201.592" gradientUnits="userSpaceOnUse">
<stop stop-color="#98A0BE"/>
<stop offset="1" stop-color="#464A58"/>
</linearGradient>
<linearGradient id="paint1_linear_5274_620" x1="172.399" y1="230.717" x2="156.433" y2="139.603" gradientUnits="userSpaceOnUse">
<stop stop-color="#B1D7FF"/>
<stop offset="1" stop-color="#B1D7FF" stop-opacity="0"/>
</linearGradient>
</defs>
</svg>
