<svg width="360" height="315" viewBox="0 0 360 315" fill="none" xmlns="http://www.w3.org/2000/svg">
<path d="M109.163 45.1924C109.163 43.9328 110.314 42.9869 111.549 43.23L211.067 62.8093C212.005 62.9938 212.681 63.8159 212.681 64.7716L212.681 147.719C212.681 148.876 211.703 149.792 210.549 149.715L111.031 143.115C109.98 143.045 109.163 142.172 109.163 141.119L109.163 45.1924Z" fill="white"/>
<path d="M17.374 109.652C17.374 97.3682 28.3433 87.9876 40.4778 89.8938L264.781 125.13C274.562 126.667 281.746 135.128 281.676 145.029L280.94 249.477C280.862 260.613 271.704 269.539 260.57 269.333L37.0031 265.186C26.1039 264.984 17.374 256.091 17.374 245.189V109.652Z" fill="white"/>
<path d="M88.6186 186.157L94.2556 184.799L93.7193 246.254L88.0946 246.205L88.6186 186.157Z" fill="#9DA5BD"/>
<path d="M83.0059 184.701L88.6184 186.157L88.0943 246.205L82.4696 246.156L83.0059 184.701Z" fill="#D0D7E2"/>
<path d="M68.0688 221.057L73.7058 219.7L73.4763 246L67.8515 245.95L68.0688 221.057Z" fill="#9DA5BD"/>
<path d="M62.4561 219.601L68.0686 221.057L67.8513 245.95L62.2265 245.901L62.4561 219.601Z" fill="#D0D7E2"/>
<path d="M108.753 211.468L114.378 210.062V246.207H108.753V211.468Z" fill="#9DA5BD"/>
<path d="M103.128 210.062L108.753 211.468V246.207H103.128V210.062Z" fill="#D0D7E2"/>
<path d="M129.329 203.734L134.966 202.377L134.577 246.958L128.952 246.909L129.329 203.734Z" fill="#9DA5BD"/>
<path d="M123.716 202.279L129.328 203.734L128.952 246.909L123.327 246.86L123.716 202.279Z" fill="#D0D7E2"/>
<path fill-rule="evenodd" clip-rule="evenodd" d="M108.703 43.0409C108.317 43.7609 108.284 63.2128 108.587 110.422L108.796 143.018L109.451 143.306C110.483 143.761 211.788 150.481 212.435 150.137C212.955 149.862 212.985 147.454 212.985 106.342V62.8388L212.278 62.5371C211.568 62.2348 188.442 57.6188 159.582 52.0191C151.03 50.3597 136.531 47.524 127.363 45.7177C109.271 42.1528 109.185 42.1402 108.703 43.0409ZM160.405 53.1188C188.201 58.6502 211.261 63.3127 211.65 63.4786L212.356 63.781V106.52C212.356 140.552 212.276 149.29 211.962 149.41C211.277 149.673 109.925 142.745 109.593 142.412C109.33 142.15 109.537 43.0613 109.8 43.0613C109.837 43.0613 132.609 47.5873 160.405 53.1188ZM278.442 86.8913C274.195 89.6897 266.723 92.6365 260.891 93.8142C260.545 93.8838 259.909 94.016 259.477 94.1081C257.581 94.5131 256.948 94.62 253.98 95.0328C249.538 95.6508 245.916 95.892 241.067 95.892C238.581 95.892 236.782 96.0213 236.666 96.2084C236.354 96.7132 236.773 128.413 236.773 128.413C236.773 135.033 237.44 138.363 239.089 143.742C243.682 158.723 257.328 173.319 275.47 182.657L280.35 184.806C280.35 184.806 312.8 164.645 315.25 143.742C317.046 128.413 316.288 113.043 315.25 112.182C314.983 111.961 314.765 111.85 314.765 111.935C314.765 112.072 311.812 110.612 307.539 108.362C306.759 107.952 305.677 107.298 305.134 106.909C304.59 106.521 303.99 106.203 303.801 106.203C303.611 106.203 303.456 106.071 303.456 105.91C303.456 105.748 303.209 105.537 302.906 105.44C302.604 105.343 301.156 104.417 299.687 103.384C298.218 102.351 296.749 101.325 296.422 101.105C295.812 100.695 294.789 99.8344 293.404 98.5667C292.972 98.1715 291.843 97.2188 290.894 96.4496C289.313 95.1671 284.243 90.0813 282.297 87.8257C280.229 85.4295 280.545 85.5054 278.442 86.8913ZM307.692 124.098C308.749 126.183 308.796 126.087 306.205 127.09C295.571 131.21 285.664 139.943 278.379 151.622C276.596 154.481 277.297 154.338 271.286 153.065C266.828 152.122 267.071 152.304 266.109 149.178C264.661 144.475 259.778 138.458 254.821 135.268C253.556 134.453 252.592 133.716 252.679 133.629C252.766 133.542 255.142 131.798 257.959 129.754L263.081 126.036L264.31 126.721C267.339 128.409 272.726 134.457 273.623 137.176L273.978 138.251L275.916 136.493C284.586 128.627 296.927 122.741 305.1 122.574L306.901 122.538L307.692 124.098Z" fill="#9DA5BD"/>
<path d="M307.692 124.098C308.749 126.183 308.796 126.087 306.205 127.09C295.571 131.21 285.664 139.943 278.379 151.622C276.596 154.481 277.297 154.338 271.286 153.065C266.828 152.122 267.071 152.304 266.109 149.178C264.661 144.475 259.778 138.458 254.821 135.268C253.556 134.453 252.592 133.716 252.679 133.629C252.766 133.542 255.142 131.798 257.959 129.754L263.081 126.036L264.31 126.721C267.339 128.409 272.726 134.457 273.623 137.176L273.978 138.251L275.916 136.493C284.586 128.627 296.927 122.741 305.1 122.574L306.901 122.538L307.692 124.098Z" fill="white"/>
<path fill-rule="evenodd" clip-rule="evenodd" d="M145.763 68.1235V71.277L148.04 71.651C149.952 71.9653 150.502 72.2023 151.463 73.1262L152.61 74.2266L153.57 73.5164C154.476 72.847 154.651 72.8267 156.659 73.1592C159.314 73.5994 159.316 73.5973 159.205 70.2054L159.113 67.407L153.616 66.3924C150.592 65.8348 147.589 65.2863 146.94 65.1745L145.763 64.9706V68.1235ZM125.726 71.3993L125.815 74.6063L128.328 74.9937C130.485 75.3263 130.963 75.5175 131.701 76.3416C132.71 77.4708 132.969 77.5074 134.127 76.6833C134.893 76.1377 135.214 76.1004 136.845 76.3676C140.011 76.8858 139.794 77.0946 139.794 73.5326C139.794 71.805 139.688 70.391 139.558 70.3903C139.429 70.3903 136.425 69.8974 132.883 69.2956C129.341 68.6937 126.261 68.1994 126.039 68.1966C125.731 68.1931 125.657 68.9482 125.726 71.3993ZM149.055 106.36C149.055 123.292 149.093 130.172 149.14 121.65C149.186 113.128 149.186 99.274 149.14 90.8646C149.093 82.4552 149.055 89.4281 149.055 106.36ZM149.607 90.8836L149.689 105.721L150.946 105.934C151.637 106.051 152.909 106.189 153.773 106.239L155.343 106.331L155.426 91.6746L155.507 77.018L154.326 76.8253C153.676 76.7199 152.466 76.5012 151.637 76.3395C150.808 76.1778 149.994 76.0456 149.828 76.0456C149.638 76.0456 149.556 81.5503 149.607 90.8836ZM155.966 106.988C155.966 123.92 156.004 130.801 156.051 122.278C156.097 113.756 156.097 99.9026 156.051 91.4932C156.004 83.0831 155.966 90.056 155.966 106.988ZM128.949 107.773C128.949 123.237 128.988 129.563 129.035 121.831C129.082 114.099 129.082 101.447 129.035 93.7158C128.988 85.9842 128.949 92.3103 128.949 107.773ZM184.716 82.8012C184.716 86.1178 184.469 85.7986 187.385 86.2606C188.167 86.385 189.019 86.8217 189.639 87.4172L190.636 88.3742L191.596 87.69C192.472 87.0663 192.714 87.0354 194.348 87.3378C195.334 87.5199 196.26 87.6689 196.408 87.6689C196.556 87.6689 196.636 86.3611 196.586 84.7629L196.495 81.8569L191.511 81.0251C188.769 80.5674 186.119 80.1117 185.621 80.0119L184.716 79.8312V82.8012ZM129.742 86.8231V93.2145L132.176 93.585C133.515 93.7889 134.858 93.9549 135.16 93.9535C135.666 93.9513 135.71 93.4437 135.71 87.697V81.4428L133.433 81.0863C132.18 80.8901 130.837 80.6623 130.448 80.5807L129.742 80.4317V86.8231ZM21.3776 86.082C20.4122 86.4153 19.3146 87.0727 18.8646 87.5867C18.4252 88.0887 17.5505 88.8741 16.9205 89.3318C16.2807 89.7966 15.4144 90.8885 14.9574 91.8054L14.1396 93.4465L14.1425 180.636L14.1453 267.826L14.88 269.403C15.6704 271.099 17.1554 272.766 18.492 273.456C21.4662 274.991 27.2227 276.176 27.5504 275.322C27.6882 274.962 47.8222 274.894 154.443 274.894H281.17L281.556 274.03C282.316 272.322 282.255 184.002 281.493 184.41C281.157 184.59 280.484 184.753 279.998 184.773C279.467 184.795 279.333 184.867 279.663 184.953C280.183 185.089 280.213 187.267 280.213 225.126V265.156L278.877 265.165C275.357 265.191 23.345 259.778 20.8151 259.622L17.9091 259.442V176.282V93.1217L18.7732 91.4426C19.8336 89.381 21.5464 88.1042 23.8793 87.6352C25.4993 87.3096 28.1354 87.7146 66.8199 94.2326C89.4872 98.052 108.111 101.177 108.205 101.177C108.299 101.177 108.415 110.4 108.464 121.674L108.552 142.172L108.545 121.072C108.541 109.467 108.431 99.866 108.301 99.736C108.03 99.4645 107.845 99.4329 60.2267 91.4574C20.8271 84.8578 23.7521 85.2621 21.3776 86.082ZM188.233 91.3266L188.328 93.161L189.898 93.3797C190.763 93.5006 191.858 93.675 192.333 93.7671C193.197 93.9359 193.197 93.9352 193.197 92.0867V90.2367L191.94 90.0525C191.249 89.9506 190.111 89.7832 189.411 89.6799L188.138 89.4928L188.233 91.3266ZM193.659 108.402C193.659 118.855 193.698 123.131 193.747 117.904C193.795 112.678 193.795 104.126 193.747 98.8992C193.698 93.6729 193.659 97.9486 193.659 108.402ZM164.805 90.4062C164.504 90.7064 164.575 96.0917 164.882 96.2815C165.032 96.3736 165.986 96.541 167.003 96.6528C168.525 96.8208 169.049 97.0444 169.966 97.9191L171.081 98.9815L172.078 98.2446C172.986 97.5753 173.25 97.5324 175 97.7714C177.501 98.1138 177.49 98.1258 177.49 95.051C177.49 91.8687 177.954 92.1738 171.74 91.2619C168.942 90.8513 166.28 90.447 165.826 90.3633C165.371 90.2803 164.911 90.3 164.805 90.4062ZM168.38 104.422C168.38 106.764 168.486 108.743 168.616 108.822C168.746 108.9 169.947 109.067 171.286 109.192L173.721 109.418V105.181V100.943L171.757 100.727C170.677 100.607 169.476 100.433 169.087 100.338C168.381 100.166 168.38 100.167 168.38 104.422ZM168.38 127.721V138.245L169.873 138.248C170.693 138.25 171.895 138.339 172.542 138.447L173.721 138.641V128.121V117.601L171.789 117.399C170.728 117.288 169.526 117.197 169.12 117.197H168.38V127.721ZM213.36 118.051L213.459 118.905L224.297 120.703C230.257 121.692 235.497 122.572 235.941 122.658C236.68 122.801 236.736 122.737 236.612 121.89C236.537 121.382 236.415 120.967 236.339 120.967C236.264 120.967 231.128 120.119 224.925 119.082C218.722 118.045 213.56 117.197 213.454 117.197C213.347 117.197 213.305 117.581 213.36 118.051ZM129.742 128.505C129.742 136.083 129.304 135.249 133.433 135.536L135.71 135.695V129.131V122.566L134.689 122.412C134.128 122.327 132.785 122.181 131.705 122.088L129.742 121.919V128.505ZM188.171 133.394V139.413L189.82 139.612C190.727 139.721 191.858 139.811 192.333 139.813L193.197 139.815V133.847V127.878L192.49 127.852C192.101 127.837 190.971 127.724 189.977 127.599L188.171 127.374V133.394ZM193.644 134.003C193.645 137.632 193.69 139.073 193.746 137.207C193.801 135.34 193.801 132.371 193.745 130.609C193.69 128.848 193.644 130.375 193.644 134.003ZM149.742 129.658C149.408 129.991 149.499 136.303 149.841 136.513C150.01 136.618 151.353 136.789 152.825 136.893L155.501 137.081V133.466V129.85L153.851 129.653C151.7 129.394 150.004 129.397 149.742 129.658ZM129.977 135.953C130.366 136.028 131.002 136.028 131.391 135.953C131.779 135.879 131.462 135.817 130.684 135.817C129.906 135.817 129.589 135.879 129.977 135.953ZM134.693 136.268C135.083 136.343 135.649 136.34 135.95 136.261C136.25 136.183 135.93 136.121 135.239 136.125C134.548 136.128 134.302 136.193 134.693 136.268ZM151.338 137.524C151.727 137.599 152.363 137.599 152.752 137.524C153.14 137.449 152.823 137.388 152.045 137.388C151.268 137.388 150.949 137.449 151.338 137.524ZM171.443 139.095C171.832 139.169 172.468 139.169 172.857 139.095C173.246 139.02 172.927 138.958 172.15 138.958C171.372 138.958 171.055 139.02 171.443 139.095ZM190.763 140.346C191.065 140.425 191.56 140.425 191.862 140.346C192.165 140.267 191.917 140.202 191.312 140.202C190.708 140.202 190.46 140.267 190.763 140.346ZM28.2753 275.993C28.2753 276.412 46.4954 276.464 190.37 276.464C334.244 276.464 352.464 276.412 352.464 275.993C352.464 275.575 334.244 275.522 190.37 275.522C46.4954 275.522 28.2753 275.575 28.2753 275.993ZM28.2753 277.699C28.2753 278.032 28.752 278.809 29.3335 279.427L30.3917 280.548H190.045C338.436 280.548 349.759 280.512 350.583 280.025C351.463 279.505 352.15 278.42 352.15 277.549C352.15 277.151 331.617 277.093 190.213 277.093C30.4775 277.093 28.2753 277.101 28.2753 277.699Z" fill="#D3DAE4"/>
<path d="M129.502 135.872V80.3382L135.827 81.0011V135.872H129.502Z" fill="#D3DAE4"/>
<path d="M149.545 137.358V75.8569L155.85 76.8859V137.358H149.545Z" fill="#D3DAE4"/>
<path d="M168.178 100.206V138.387H174.123V100.892L168.178 100.206Z" fill="#D3DAE4"/>
<path d="M187.84 139.645V89.1175L193.442 90.032V140.33L187.84 139.645Z" fill="#D3DAE4"/>
<path d="M45.9834 148.453V245.3L143.52 246.91M129.502 80.3382V135.872H135.827V81.0011L129.502 80.3382ZM149.545 75.8569V137.358H155.85V76.8859L149.545 75.8569ZM168.178 138.387V100.206L174.123 100.892V138.387H168.178ZM187.84 89.1175V139.645L193.442 140.33V90.032L187.84 89.1175Z" stroke="#9DA5BD"/>
<path d="M129.754 93.3754L135.577 94.0786V123.188L129.754 122.485V93.3754Z" fill="#9DA5BD"/>
<path d="M149.717 105.435L155.54 106.138V130.326L149.717 129.622V105.435Z" fill="#9DA5BD"/>
<path d="M168.141 108.278L173.963 108.982V119.81L168.141 119.106V108.278Z" fill="#9DA5BD"/>
<path d="M187.619 91.9321L193.442 92.6352V128.073L187.619 127.369V91.9321Z" fill="#9DA5BD"/>
<path d="M165.969 249.545C165.969 249.545 180.722 205.157 187.783 205.157C194.843 205.157 194.175 225.605 198.27 238.707C198.27 238.707 209.044 197.156 215.559 197.156C222.073 197.156 233.668 240.514 233.668 240.514C233.668 240.514 241.616 207.609 247.087 205.157C252.559 202.705 254.383 251.224 254.383 251.224L165.969 249.545Z" fill="#9DA5BD"/>
<path d="M179.473 249.488C179.473 249.488 192.421 220.011 198.178 216.174C203.934 212.336 207.866 241.468 211.958 241.467C216.05 241.467 219.143 212.568 225.457 210.08C231.771 207.592 229.822 238.72 234.586 236.063C236.115 235.209 236.916 215.043 241.432 219.56C245.949 224.077 249.542 250.521 249.542 250.521L179.473 249.488Z" fill="#D3DAE4"/>
<path d="M165.646 166.591V249.493L254.38 251.014" stroke="#9DA5BD"/>
</svg>
