<svg width="360" height="315" viewBox="0 0 360 315" fill="none" xmlns="http://www.w3.org/2000/svg">
<path d="M109.162 45.1923C109.162 43.9327 110.313 42.9868 111.548 43.2299L211.066 62.8092C212.004 62.9937 212.68 63.8158 212.68 64.7715V147.719C212.68 148.876 211.702 149.792 210.548 149.715L111.03 143.115C109.979 143.045 109.162 142.172 109.162 141.119V45.1923Z" fill="white"/>
<path d="M17.3745 109.652C15.5 90.5 17.867 85.5939 30.0015 87.5001L264.782 125.13C274.563 126.667 281.747 135.128 281.677 145.029L281 260C280.922 271.136 279.5 269.5 260.571 269.333L28.5 265C17.6008 264.798 17 263.902 17 253L17.3745 109.652Z" fill="white"/>
<path d="M88.6178 186.157L94.2548 184.799L93.7185 246.254L88.0938 246.205L88.6178 186.157Z" fill="#9DA5BD"/>
<path d="M83.0051 184.701L88.6176 186.157L88.0935 246.205L82.4688 246.156L83.0051 184.701Z" fill="#D0D7E2"/>
<path d="M68.0689 221.057L73.7059 219.7L73.4764 246L67.8516 245.95L68.0689 221.057Z" fill="#9DA5BD"/>
<path d="M62.4562 219.601L68.0687 221.057L67.8514 245.95L62.2266 245.901L62.4562 219.601Z" fill="#D0D7E2"/>
<path d="M108.754 211.468L114.379 210.062V246.207H108.754V211.468Z" fill="#9DA5BD"/>
<path d="M103.129 210.062L108.754 211.468V246.207H103.129V210.062Z" fill="#D0D7E2"/>
<path d="M129.328 203.734L134.965 202.377L134.576 246.958L128.951 246.909L129.328 203.734Z" fill="#9DA5BD"/>
<path d="M123.715 202.279L129.327 203.734L128.951 246.909L123.326 246.86L123.715 202.279Z" fill="#D0D7E2"/>
<path fill-rule="evenodd" clip-rule="evenodd" d="M108.702 43.041C108.316 43.761 108.283 63.2129 108.586 110.422L108.795 143.018L109.45 143.306C110.482 143.761 211.787 150.481 212.434 150.137C212.954 149.862 212.984 147.454 212.984 106.342V62.8389L212.277 62.5372C211.567 62.2349 188.441 57.6189 159.581 52.0192C151.029 50.3598 136.53 47.5241 127.362 45.7178C109.27 42.1529 109.184 42.1403 108.702 43.041ZM160.404 53.1189C188.2 58.6503 211.26 63.3128 211.649 63.4787L212.355 63.7811V106.52C212.355 140.552 212.275 149.29 211.961 149.41C211.276 149.673 109.924 142.745 109.592 142.412C109.329 142.15 109.536 43.0614 109.799 43.0614C109.836 43.0614 132.608 47.5874 160.404 53.1189ZM278.441 86.8914C274.194 89.6898 266.722 92.6366 260.89 93.8143C260.544 93.8839 259.908 94.0161 259.476 94.1082C257.58 94.5132 256.947 94.6201 253.979 95.0329C249.537 95.6509 245.915 95.8921 241.066 95.8921C238.58 95.8921 236.781 96.0214 236.665 96.2085C236.353 96.7133 236.772 128.413 236.772 128.413C236.772 135.033 237.439 138.363 239.088 143.742C243.681 158.723 257.327 173.319 275.469 182.657L280.349 184.806C280.349 184.806 312.799 164.645 315.249 143.742C317.045 128.413 316.287 113.043 315.249 112.182C314.982 111.961 314.764 111.85 314.764 111.935C314.764 112.072 311.811 110.612 307.538 108.362C306.758 107.952 305.676 107.298 305.133 106.909C304.589 106.521 303.989 106.203 303.8 106.203C303.61 106.203 303.455 106.071 303.455 105.91C303.455 105.748 303.208 105.537 302.905 105.44C302.603 105.343 301.155 104.417 299.686 103.384C298.217 102.351 296.748 101.325 296.421 101.105C295.811 100.695 294.788 99.8345 293.403 98.5668C292.971 98.1716 291.842 97.2189 290.893 96.4497C289.312 95.1672 284.242 90.0814 282.296 87.8258C280.228 85.4296 280.544 85.5055 278.441 86.8914ZM307.691 124.098C308.748 126.183 308.795 126.087 306.204 127.09C295.57 131.21 285.663 139.943 278.378 151.622C276.595 154.481 277.296 154.338 271.285 153.065C266.827 152.122 267.07 152.304 266.108 149.178C264.66 144.475 259.777 138.458 254.82 135.268C253.555 134.453 252.591 133.716 252.678 133.629C252.765 133.542 255.141 131.798 257.958 129.754L263.08 126.036L264.309 126.721C267.338 128.409 272.725 134.457 273.622 137.176L273.977 138.251L275.915 136.493C284.585 128.627 296.926 122.741 305.099 122.574L306.9 122.538L307.691 124.098Z" fill="#9DA5BD"/>
<path d="M307.692 124.098C308.749 126.183 308.796 126.087 306.205 127.09C295.571 131.21 285.664 139.943 278.379 151.622C276.596 154.481 277.297 154.338 271.286 153.065C266.828 152.122 267.071 152.304 266.109 149.178C264.661 144.475 259.778 138.458 254.821 135.268C253.556 134.453 252.592 133.716 252.679 133.629C252.766 133.542 255.142 131.798 257.959 129.754L263.081 126.036L264.31 126.721C267.339 128.409 272.726 134.457 273.623 137.176L273.978 138.251L275.916 136.493C284.586 128.627 296.927 122.741 305.1 122.574L306.901 122.538L307.692 124.098Z" fill="white"/>
<path fill-rule="evenodd" clip-rule="evenodd" d="M145.762 68.1236V71.2771L148.039 71.6511C149.951 71.9654 150.501 72.2024 151.462 73.1263L152.609 74.2267L153.569 73.5165C154.475 72.8471 154.65 72.8268 156.658 73.1593C159.313 73.5995 159.315 73.5974 159.204 70.2055L159.112 67.4071L153.615 66.3925C150.591 65.8349 147.588 65.2864 146.939 65.1746L145.762 64.9707V68.1236ZM125.725 71.3994L125.814 74.6064L128.327 74.9938C130.484 75.3264 130.962 75.5176 131.7 76.3417C132.709 77.4709 132.968 77.5075 134.126 76.6834C134.892 76.1378 135.213 76.1005 136.844 76.3677C140.01 76.8859 139.793 77.0947 139.793 73.5327C139.793 71.8051 139.687 70.3911 139.557 70.3904C139.428 70.3904 136.424 69.8975 132.882 69.2957C129.34 68.6938 126.26 68.1995 126.038 68.1967C125.73 68.1932 125.656 68.9483 125.725 71.3994ZM149.054 106.36C149.054 123.292 149.092 130.172 149.139 121.65C149.185 113.128 149.185 99.2741 149.139 90.8647C149.092 82.4553 149.054 89.4282 149.054 106.36ZM149.606 90.8837L149.688 105.721L150.945 105.934C151.636 106.051 152.908 106.189 153.772 106.239L155.342 106.331L155.425 91.6747L155.506 77.0181L154.325 76.8254C153.675 76.72 152.465 76.5013 151.636 76.3396C150.807 76.1779 149.993 76.0457 149.827 76.0457C149.637 76.0457 149.555 81.5504 149.606 90.8837ZM155.965 106.988C155.965 123.92 156.003 130.801 156.05 122.278C156.096 113.756 156.096 99.9027 156.05 91.4933C156.003 83.0832 155.965 90.0561 155.965 106.988ZM128.948 107.773C128.948 123.237 128.987 129.563 129.034 121.831C129.081 114.099 129.081 101.447 129.034 93.7159C128.987 85.9843 128.948 92.3104 128.948 107.773ZM184.715 82.8013C184.715 86.1179 184.468 85.7987 187.384 86.2607C188.166 86.3851 189.018 86.8218 189.638 87.4173L190.635 88.3743L191.595 87.6901C192.471 87.0664 192.713 87.0355 194.347 87.3379C195.333 87.52 196.259 87.669 196.407 87.669C196.555 87.669 196.635 86.3612 196.585 84.763L196.494 81.857L191.51 81.0252C188.768 80.5675 186.118 80.1118 185.62 80.012L184.715 79.8313V82.8013ZM129.741 86.8232V93.2146L132.175 93.5851C133.514 93.789 134.857 93.955 135.159 93.9536C135.665 93.9514 135.709 93.4438 135.709 87.6971V81.4429L133.432 81.0864C132.179 80.8902 130.836 80.6624 130.447 80.5808L129.741 80.4318V86.8232ZM21.3767 86.0821C20.4113 86.4154 19.3137 87.0728 18.8637 87.5868C18.4243 88.0888 17.5496 88.8742 16.9196 89.3319C16.2798 89.7967 15.4135 90.8886 14.9565 91.8055L14.1387 93.4466L14.1416 180.636L14.1444 267.826L14.8791 269.403C15.6695 271.099 17.1545 272.766 18.4911 273.456C21.4653 274.991 27.2218 276.176 27.5495 275.322C27.6873 274.962 47.8213 274.894 154.442 274.894H281.169L281.555 274.03C282.315 272.322 282.254 184.002 281.492 184.41C281.156 184.59 280.483 184.753 279.997 184.773C279.466 184.795 279.332 184.867 279.662 184.953C280.182 185.089 280.212 187.267 280.212 225.126V265.156L278.876 265.165C275.356 265.191 23.3441 259.778 20.8142 259.622L17.9082 259.442V176.282V93.1218L18.7723 91.4427C19.8327 89.3811 21.5455 88.1043 23.8784 87.6353C25.4984 87.3097 28.1345 87.7147 66.819 94.2327C89.4863 98.0521 108.11 101.177 108.204 101.177C108.298 101.177 108.414 110.4 108.463 121.674L108.551 142.172L108.544 121.072C108.54 109.467 108.43 99.8661 108.3 99.7361C108.029 99.4646 107.844 99.433 60.2258 91.4575C20.8262 84.8579 23.7512 85.2622 21.3767 86.0821ZM188.232 91.3267L188.327 93.1611L189.897 93.3798C190.762 93.5007 191.857 93.6751 192.332 93.7672C193.196 93.936 193.196 93.9353 193.196 92.0868V90.2368L191.939 90.0526C191.248 89.9507 190.11 89.7833 189.41 89.68L188.137 89.4929L188.232 91.3267ZM193.658 108.402C193.658 118.855 193.697 123.131 193.746 117.904C193.794 112.678 193.794 104.126 193.746 98.8993C193.697 93.673 193.658 97.9487 193.658 108.402ZM164.804 90.4063C164.503 90.7065 164.574 96.0918 164.881 96.2816C165.031 96.3737 165.985 96.5411 167.002 96.6529C168.524 96.8209 169.048 97.0445 169.965 97.9192L171.08 98.9816L172.077 98.2447C172.985 97.5754 173.249 97.5325 174.999 97.7715C177.5 98.1139 177.489 98.1259 177.489 95.0511C177.489 91.8688 177.953 92.1739 171.739 91.262C168.941 90.8514 166.279 90.4471 165.825 90.3634C165.37 90.2804 164.91 90.3001 164.804 90.4063ZM168.379 104.422C168.379 106.764 168.485 108.743 168.615 108.822C168.745 108.9 169.946 109.067 171.285 109.192L173.72 109.418V105.181V100.943L171.756 100.727C170.676 100.607 169.475 100.433 169.086 100.338C168.38 100.166 168.379 100.167 168.379 104.422ZM168.379 127.721V138.245L169.872 138.248C170.692 138.25 171.894 138.339 172.541 138.447L173.72 138.641V128.121V117.601L171.788 117.399C170.727 117.288 169.525 117.197 169.119 117.197H168.379V127.721ZM213.359 118.051L213.458 118.905L224.296 120.703C230.256 121.692 235.496 122.572 235.94 122.658C236.679 122.801 236.735 122.737 236.611 121.89C236.536 121.382 236.414 120.967 236.338 120.967C236.263 120.967 231.127 120.119 224.924 119.082C218.721 118.045 213.559 117.197 213.453 117.197C213.346 117.197 213.304 117.581 213.359 118.051ZM129.741 128.505C129.741 136.083 129.303 135.249 133.432 135.536L135.709 135.695V129.131V122.566L134.688 122.412C134.127 122.327 132.784 122.181 131.704 122.088L129.741 121.919V128.505ZM188.17 133.394V139.413L189.819 139.612C190.726 139.721 191.857 139.811 192.332 139.813L193.196 139.815V133.847V127.878L192.489 127.852C192.1 127.837 190.97 127.724 189.976 127.599L188.17 127.374V133.394ZM193.643 134.003C193.644 137.632 193.689 139.073 193.745 137.207C193.8 135.34 193.8 132.371 193.744 130.609C193.689 128.848 193.643 130.375 193.643 134.003ZM149.741 129.658C149.407 129.991 149.498 136.303 149.84 136.513C150.009 136.618 151.352 136.789 152.824 136.893L155.5 137.081V133.466V129.85L153.85 129.653C151.699 129.394 150.003 129.397 149.741 129.658ZM129.976 135.953C130.365 136.028 131.001 136.028 131.39 135.953C131.778 135.879 131.461 135.817 130.683 135.817C129.905 135.817 129.588 135.879 129.976 135.953ZM134.692 136.268C135.082 136.343 135.648 136.34 135.949 136.261C136.249 136.183 135.929 136.121 135.238 136.125C134.547 136.128 134.301 136.193 134.692 136.268ZM151.337 137.524C151.726 137.599 152.362 137.599 152.751 137.524C153.139 137.449 152.822 137.388 152.044 137.388C151.267 137.388 150.948 137.449 151.337 137.524ZM171.442 139.095C171.831 139.169 172.467 139.169 172.856 139.095C173.245 139.02 172.926 138.958 172.149 138.958C171.371 138.958 171.054 139.02 171.442 139.095ZM190.762 140.346C191.064 140.425 191.559 140.425 191.861 140.346C192.164 140.267 191.916 140.202 191.311 140.202C190.707 140.202 190.459 140.267 190.762 140.346ZM28.2744 275.993C28.2744 276.412 46.4945 276.464 190.369 276.464C334.243 276.464 352.463 276.412 352.463 275.993C352.463 275.575 334.243 275.522 190.369 275.522C46.4945 275.522 28.2744 275.575 28.2744 275.993ZM28.2744 277.699C28.2744 278.032 28.7511 278.809 29.3326 279.427L30.3908 280.548H190.044C338.435 280.548 349.758 280.512 350.582 280.025C351.462 279.505 352.149 278.42 352.149 277.549C352.149 277.151 331.616 277.093 190.212 277.093C30.4766 277.093 28.2744 277.101 28.2744 277.699Z" fill="#D3DAE4"/>
<path d="M129.502 135.872V80.3381L135.827 81.001V135.872H129.502Z" fill="#D3DAE4"/>
<path d="M149.545 137.358V75.8569L155.85 76.8859V137.358H149.545Z" fill="#D3DAE4"/>
<path d="M168.178 100.206V138.387H174.123V100.892L168.178 100.206Z" fill="#D3DAE4"/>
<path d="M187.84 139.645V89.1174L193.442 90.0319V140.33L187.84 139.645Z" fill="#D3DAE4"/>
<path d="M45.9844 148.453V245.3L143.521 246.91M129.503 80.3382V135.872H135.828V81.0011L129.503 80.3382ZM149.546 75.8569V137.358H155.851V76.8859L149.546 75.8569ZM168.179 138.387V100.206L174.124 100.892V138.387H168.179ZM187.841 89.1175V139.645L193.443 140.33V90.032L187.841 89.1175Z" stroke="#9DA5BD"/>
<path d="M129.754 93.3755L135.577 94.0787V123.188L129.754 122.485V93.3755Z" fill="#9DA5BD"/>
<path d="M149.717 105.435L155.54 106.138V130.326L149.717 129.622V105.435Z" fill="#9DA5BD"/>
<path d="M168.141 108.278L173.963 108.982V119.81L168.141 119.106V108.278Z" fill="#9DA5BD"/>
<path d="M187.619 91.9321L193.442 92.6352V128.073L187.619 127.369V91.9321Z" fill="#9DA5BD"/>
<path d="M165.969 249.545C165.969 249.545 180.722 205.157 187.783 205.157C194.843 205.157 194.175 225.605 198.27 238.707C198.27 238.707 209.044 197.156 215.559 197.156C222.073 197.156 233.668 240.514 233.668 240.514C233.668 240.514 241.616 207.609 247.087 205.157C252.559 202.705 254.383 251.224 254.383 251.224L165.969 249.545Z" fill="#9DA5BD"/>
<path d="M179.473 249.488C179.473 249.488 192.421 220.011 198.178 216.174C203.934 212.336 207.866 241.468 211.958 241.467C216.05 241.467 219.143 212.568 225.457 210.08C231.771 207.592 229.822 238.72 234.586 236.063C236.115 235.209 236.916 215.043 241.432 219.56C245.949 224.077 249.542 250.521 249.542 250.521L179.473 249.488Z" fill="#D3DAE4"/>
<path d="M165.646 166.591V249.493L254.38 251.014" stroke="#9DA5BD"/>
</svg>
