<svg width="192" height="57" viewBox="0 0 192 57" fill="none" xmlns="http://www.w3.org/2000/svg">
<path fill-rule="evenodd" clip-rule="evenodd" d="M29.7913 2.07153H30.2106L56.5687 28.437L56.5705 28.8561L30.2103 55.234H29.791L3.42871 28.8561L3.43056 28.437L29.7913 2.07153ZM33.3685 36.5324L31.3405 34.501L32.2151 33.6264L34.2476 35.6547L33.3685 36.5324ZM35.0823 34.821L33.0498 32.7916L33.9438 31.8977L35.9765 33.9279L35.0823 34.821ZM19.3507 29.219V42.6316L30.0009 53.2879L40.6511 42.6303V29.2547L36.8021 33.103C35.175 31.4756 33.5484 29.8585 31.9204 28.2292L29.9545 30.198C27.8934 31.8853 25.2109 29.315 27.0308 27.2743L28.9217 25.3805L19.3507 15.8114V27.069L23.4323 31.1502L23.9742 30.6077C24.9355 29.803 26.6388 31.0361 26.6339 32.1958C27.3848 32.0755 28.539 32.9297 28.5065 33.897C29.2005 33.9241 30.157 34.6516 30.1484 35.6194C30.5634 35.6259 31.0573 35.8849 31.4052 36.2915L32.5109 37.3939L30.0248 39.8795L29.6246 39.4799L29.1998 39.0557C29.7322 38.5258 30.2636 37.996 30.7984 37.4648L30.0026 36.6688L28.405 38.2618L27.5144 37.3722C28.047 36.8419 28.5788 36.3117 29.1141 35.78L28.2543 34.9197C27.7193 35.4517 27.1877 35.9824 26.6545 36.5135L25.7729 35.633L27.367 34.0321L26.5304 33.195C25.999 33.7318 25.4687 34.2653 24.9386 34.7997L24.0474 33.9098C24.5811 33.3778 25.1139 32.8461 25.6492 32.3135L24.8191 31.48L23.2192 33.0826L19.3507 29.219ZM17.8685 41.1483V27.7351L12.0845 21.9444L11.7315 22.2975V35.0079L17.8685 41.1483ZM10.2491 33.5247V23.7811L5.38013 28.6527L10.2491 33.5247ZM13.1545 20.8737L17.8685 25.587V16.1573L13.1545 20.8737ZM19.8673 14.1571L30.0009 24.304L40.1417 14.1659L30.0009 4.01767L19.8673 14.1571ZM42.1334 16.1589V25.5793L46.8436 20.8718L42.1334 16.1589ZM49.7528 23.7829V33.5226L54.6196 28.6527L49.7528 23.7829ZM48.2703 35.0061V22.2995L47.9369 21.966L42.1334 27.7718V41.1472L48.2703 35.0061ZM40.6511 15.7945L28.1086 28.3521C27.3736 29.0027 28.2773 29.7753 28.8758 29.1194L31.8462 26.1486L36.7053 31.0039L40.6511 27.0604V15.7945Z" fill="#182136"/>
<path d="M64.6929 22.7812H67.2138L70.5897 31.0212H70.723L74.099 22.7812H76.6198V34.1528H74.6431V26.3404H74.5376L71.3949 34.1195H69.9179L66.7751 26.3237H66.6696V34.1528H64.6929V22.7812ZM85.5073 27.6397V29.2943H80.3878V27.6397H85.5073ZM99.0075 26.618H96.9308C96.8716 26.2774 96.7624 25.9758 96.6032 25.7129C96.4441 25.4464 96.246 25.2206 96.0091 25.0355C95.7722 24.8504 95.502 24.7116 95.1984 24.6191C94.8986 24.5228 94.5747 24.4747 94.2267 24.4747C93.6085 24.4747 93.0607 24.6302 92.5832 24.9411C92.1056 25.2484 91.7318 25.7 91.4615 26.296C91.1913 26.8882 91.0562 27.6119 91.0562 28.467C91.0562 29.3369 91.1913 30.0698 91.4615 30.6658C91.7355 31.2581 92.1093 31.706 92.5832 32.0095C93.0607 32.3094 93.6067 32.4593 94.2212 32.4593C94.5617 32.4593 94.8801 32.4149 95.1762 32.326C95.4761 32.2335 95.7444 32.0984 95.9813 31.9207C96.2219 31.743 96.4237 31.5246 96.5866 31.2655C96.7531 31.0064 96.8679 30.7102 96.9308 30.3771L99.0075 30.3882C98.9298 30.9286 98.7613 31.4358 98.5022 31.9096C98.2468 32.3834 97.9118 32.8017 97.4972 33.1645C97.0826 33.5235 96.5977 33.8049 96.0424 34.0085C95.4872 34.2084 94.8708 34.3083 94.1934 34.3083C93.1939 34.3083 92.3018 34.0769 91.5171 33.6142C90.7323 33.1515 90.1141 32.4834 89.6625 31.6098C89.2109 30.7362 88.9851 29.6886 88.9851 28.467C88.9851 27.2417 89.2128 26.1942 89.6681 25.3243C90.1234 24.4506 90.7434 23.7825 91.5282 23.3198C92.3129 22.8571 93.2014 22.6257 94.1934 22.6257C94.8264 22.6257 95.415 22.7145 95.9591 22.8922C96.5033 23.0699 96.9882 23.3309 97.4139 23.6751C97.8396 24.0157 98.1894 24.434 98.4633 24.93C98.741 25.4223 98.9223 25.985 99.0075 26.618ZM112.619 28.467C112.619 29.6923 112.389 30.7417 111.93 31.6153C111.475 32.4852 110.853 33.1515 110.065 33.6142C109.28 34.0769 108.39 34.3083 107.394 34.3083C106.398 34.3083 105.506 34.0769 104.717 33.6142C103.933 33.1478 103.311 32.4797 102.852 31.6098C102.396 30.7362 102.169 29.6886 102.169 28.467C102.169 27.2417 102.396 26.1942 102.852 25.3243C103.311 24.4506 103.933 23.7825 104.717 23.3198C105.506 22.8571 106.398 22.6257 107.394 22.6257C108.39 22.6257 109.28 22.8571 110.065 23.3198C110.853 23.7825 111.475 24.4506 111.93 25.3243C112.389 26.1942 112.619 27.2417 112.619 28.467ZM110.548 28.467C110.548 27.6045 110.413 26.8771 110.142 26.2848C109.876 25.6889 109.506 25.2391 109.032 24.9356C108.558 24.6283 108.012 24.4747 107.394 24.4747C106.776 24.4747 106.23 24.6283 105.756 24.9356C105.282 25.2391 104.91 25.6889 104.64 26.2848C104.373 26.8771 104.24 27.6045 104.24 28.467C104.24 29.3295 104.373 30.0587 104.64 30.6547C104.91 31.247 105.282 31.6967 105.756 32.004C106.23 32.3075 106.776 32.4593 107.394 32.4593C108.012 32.4593 108.558 32.3075 109.032 32.004C109.506 31.6967 109.876 31.247 110.142 30.6547C110.413 30.0587 110.548 29.3295 110.548 28.467ZM125.475 22.7812V34.1528H123.643L118.284 26.407H118.19V34.1528H116.13V22.7812H117.973L123.326 30.5326H123.426V22.7812H125.475ZM128.783 24.508V22.7812H137.856V24.508H134.342V34.1528H132.298V24.508H128.783ZM141.169 34.1528V22.7812H145.433C146.307 22.7812 147.04 22.9329 147.632 23.2365C148.228 23.54 148.678 23.9657 148.981 24.5136C149.289 25.0577 149.442 25.6926 149.442 26.4181C149.442 27.1473 149.287 27.7803 148.976 28.3171C148.669 28.8501 148.215 29.2629 147.615 29.5553C147.016 29.844 146.279 29.9884 145.406 29.9884H142.368V28.2782H145.128C145.639 28.2782 146.057 28.2079 146.383 28.0672C146.709 27.9229 146.949 27.7137 147.105 27.4398C147.264 27.1622 147.343 26.8216 147.343 26.4181C147.343 26.0146 147.264 25.6704 147.105 25.3853C146.945 25.0966 146.703 24.8782 146.377 24.7301C146.052 24.5784 145.631 24.5025 145.117 24.5025H143.229V34.1528H141.169ZM147.044 29.0001L149.859 34.1528H147.56L144.795 29.0001H147.044ZM154.362 34.1528H152.164L156.167 22.7812H158.71L162.719 34.1528H160.52L157.483 25.1133H157.394L154.362 34.1528ZM154.435 29.6941H160.431V31.3488H154.435V29.6941ZM174.98 26.618H172.903C172.844 26.2774 172.735 25.9758 172.575 25.7129C172.416 25.4464 172.218 25.2206 171.981 25.0355C171.744 24.8504 171.474 24.7116 171.171 24.6191C170.871 24.5228 170.547 24.4747 170.199 24.4747C169.581 24.4747 169.033 24.6302 168.555 24.9411C168.078 25.2484 167.704 25.7 167.434 26.296C167.163 26.8882 167.028 27.6119 167.028 28.467C167.028 29.3369 167.163 30.0698 167.434 30.6658C167.708 31.2581 168.081 31.706 168.555 32.0095C169.033 32.3094 169.579 32.4593 170.193 32.4593C170.534 32.4593 170.852 32.4149 171.148 32.326C171.448 32.2335 171.717 32.0984 171.953 31.9207C172.194 31.743 172.396 31.5246 172.559 31.2655C172.725 31.0064 172.84 30.7102 172.903 30.3771L174.98 30.3882C174.902 30.9286 174.733 31.4358 174.474 31.9096C174.219 32.3834 173.884 32.8017 173.469 33.1645C173.055 33.5235 172.57 33.8049 172.015 34.0085C171.459 34.2084 170.843 34.3083 170.166 34.3083C169.166 34.3083 168.274 34.0769 167.489 33.6142C166.704 33.1515 166.086 32.4834 165.635 31.6098C165.183 30.7362 164.957 29.6886 164.957 28.467C164.957 27.2417 165.185 26.1942 165.64 25.3243C166.096 24.4506 166.716 23.7825 167.5 23.3198C168.285 22.8571 169.174 22.6257 170.166 22.6257C170.799 22.6257 171.387 22.7145 171.931 22.8922C172.475 23.0699 172.96 23.3309 173.386 23.6751C173.812 24.0157 174.162 24.434 174.435 24.93C174.713 25.4223 174.894 25.985 174.98 26.618ZM177.93 24.508V22.7812H187.003V24.508H183.488V34.1528H181.445V24.508H177.93Z" fill="#182136"/>
</svg>
