<svg width="38" height="39" viewBox="0 0 38 39" fill="none" xmlns="http://www.w3.org/2000/svg">
<path fill-rule="evenodd" clip-rule="evenodd" d="M19.0855 1.35718H19.3718L37.3694 19.3527L37.3706 19.6388L19.3716 37.6428H19.0853L1.08496 19.6388L1.08623 19.3527L19.0855 1.35718ZM21.5281 24.8782L20.1434 23.4916L20.7405 22.8947L22.1283 24.2791L21.5281 24.8782ZM22.6983 23.7101L21.3105 22.325L21.9209 21.7148L23.3088 23.1005L22.6983 23.7101ZM11.9566 19.8865V29.0411L19.2287 36.3145L26.5007 29.0402V19.9108L23.8726 22.5375C22.7616 21.4267 21.6509 20.323 20.5393 19.2109L19.197 20.5547C17.7896 21.7063 15.958 19.952 17.2006 18.5592L18.4918 17.2666L11.9566 10.7352V18.419L14.7435 21.2046L15.1136 20.8343C15.7699 20.2851 16.933 21.1267 16.9296 21.9183C17.4423 21.8361 18.2305 22.4192 18.2083 23.0794C18.6821 23.0979 19.3353 23.5945 19.3294 24.255C19.6127 24.2594 19.95 24.4363 20.1875 24.7137L20.9425 25.4662L19.245 27.1627L18.9717 26.89L18.6817 26.6004C19.0452 26.2388 19.408 25.8771 19.7732 25.5146L19.2298 24.9713L18.139 26.0586L17.5308 25.4514C17.8945 25.0894 18.2576 24.7275 18.6232 24.3647L18.0361 23.7775C17.6708 24.1406 17.3078 24.5028 16.9437 24.8653L16.3417 24.2643L17.4302 23.1716L16.859 22.6003C16.4961 22.9667 16.1341 23.3308 15.7721 23.6956L15.1636 23.0881C15.528 22.725 15.8918 22.3621 16.2573 21.9986L15.6905 21.4297L14.598 22.5236L11.9566 19.8865ZM10.9445 28.0287V18.8736L6.99521 14.9212L6.75419 15.1623V23.8377L10.9445 28.0287ZM5.74197 22.8253V16.1749L2.41741 19.5L5.74197 22.8253ZM7.7258 14.1905L10.9445 17.4075V10.9713L7.7258 14.1905ZM12.3094 9.60611L19.2287 16.5318L26.1529 9.61211L19.2287 2.6855L12.3094 9.60611ZM27.5128 10.9724V17.4022L30.729 14.1892L27.5128 10.9724ZM32.7154 16.1761V22.8239L36.0385 19.5L32.7154 16.1761ZM31.7032 23.8364V15.1636L31.4755 14.936L27.5128 18.8987V28.028L31.7032 23.8364ZM26.5007 10.7237L17.9366 19.2948C17.4347 19.7389 18.0518 20.2662 18.4604 19.8185L20.4886 17.7908L23.8065 21.1048L26.5007 18.4131V10.7237Z" fill="#182136"/>
</svg>
