<svg width="60" height="61" viewBox="0 0 60 61" fill="none" xmlns="http://www.w3.org/2000/svg">
<path fill-rule="evenodd" clip-rule="evenodd" d="M36.2501 4.90283C25.4805 4.90283 16.7501 13.6333 16.7501 24.4028C16.7501 29.7877 18.9321 34.6621 22.4615 38.1914C25.9908 41.7208 30.8652 43.9028 36.2501 43.9028C47.0196 43.9028 55.7501 35.1724 55.7501 24.4028C55.7501 13.6333 47.0196 4.90283 36.2501 4.90283ZM15.7501 24.4028C15.7501 13.081 24.9282 3.90283 36.2501 3.90283C47.5719 3.90283 56.7501 13.081 56.7501 24.4028C56.7501 35.7247 47.5719 44.9028 36.2501 44.9028C30.7692 44.9028 25.7899 42.7513 22.1122 39.2478L16.9572 44.4028L17.2286 44.6743L17.5822 45.0278L17.2286 45.3814L7.22863 55.3814L6.87508 55.7349L6.52152 55.3814L5.27152 54.1314L4.91797 53.7778L5.27152 53.4243L15.2715 43.4243L15.6251 43.0707L15.9786 43.4243L16.2501 43.6957L21.4051 38.5407C17.9016 34.863 15.7501 29.8837 15.7501 24.4028ZM15.6251 44.4849L6.33218 53.7778L6.87508 54.3207L16.168 45.0278L15.8965 44.7564L15.6251 44.4849Z" fill="#6381E0"/>
</svg>
