<svg width="61" height="61" viewBox="0 0 61 61" fill="none" xmlns="http://www.w3.org/2000/svg">
<path fill-rule="evenodd" clip-rule="evenodd" d="M54.583 9.98093V10.6529V48.153V48.825L53.9393 48.6319L36.1246 43.2875C34.9555 47.8113 30.8475 51.153 25.958 51.153C20.159 51.153 15.458 46.4519 15.458 40.653C15.458 39.5471 15.5697 38.4415 15.88 37.403H6.58301H6.08301V36.903V21.9029V21.4029H6.58301H16.5096L53.9393 10.174L54.583 9.98093ZM16.8917 37.5176L35.166 42.9999C34.1214 47.1116 30.3944 50.153 25.958 50.153C20.7113 50.153 16.458 45.8997 16.458 40.653C16.458 39.5423 16.5782 38.4797 16.8917 37.5176ZM53.583 11.325L16.7267 22.3819L16.6564 22.4029H16.583H7.08301V36.403H16.583H16.6564L16.7267 36.424L35.9012 42.1764L53.583 47.4809V11.325Z" fill="#6381E0"/>
</svg>
