<svg width="61" height="61" viewBox="0 0 61 61" fill="none" xmlns="http://www.w3.org/2000/svg">
<path fill-rule="evenodd" clip-rule="evenodd" d="M14.917 6.40283V6.90283V8.90283H36.417V6.90283V6.40283H37.417V6.90283V8.90283H44.417H44.917V9.40283V16.9028V28.9107C53.246 29.1747 59.917 36.0097 59.917 44.4028C59.917 52.9632 52.9774 59.9028 44.417 59.9028C35.8566 59.9028 28.917 52.9632 28.917 44.4028C28.917 43.7253 28.9605 43.0578 29.0449 42.4028H6.91699H6.41699V41.9028V16.9028V9.40283V8.90283H6.91699H13.917V6.90283V6.40283H14.917ZM13.917 9.90283H7.41699V16.4028H43.917V9.90283H37.417V11.9028V12.4028H36.417V11.9028V9.90283H14.917V11.9028V12.4028H13.917V11.9028V9.90283ZM43.917 17.4028H7.41699V41.4028H29.2072C30.5737 34.4363 36.6063 29.1424 43.917 28.9107V17.4028ZM44.417 29.9028C37.2327 29.9028 31.268 35.1281 30.1175 41.9856C29.9857 42.7714 29.917 43.5789 29.917 44.4028C29.917 52.411 36.4089 58.9028 44.417 58.9028C52.4251 58.9028 58.917 52.411 58.917 44.4028C58.917 36.3947 52.4251 29.9028 44.417 29.9028ZM44.917 35.1528V35.6528V44.1957L48.5205 47.7993L48.8741 48.1528L48.167 48.8599L47.8134 48.5064L44.0634 44.7564L43.917 44.6099V44.4028V35.6528V35.1528H44.917Z" fill="#6381E0"/>
</svg>
