<svg width="61" height="61" viewBox="0 0 61 61" fill="none" xmlns="http://www.w3.org/2000/svg">
<path fill-rule="evenodd" clip-rule="evenodd" d="M25.9641 3.90283H26.3573H34.5983H34.9914L35.0842 4.28486L36.3729 9.59236L41.2013 11.5924L45.8653 8.75069L46.2011 8.54615L46.479 8.82413L52.3064 14.6515L52.5844 14.9295L52.3798 15.2652L49.5382 19.9293L51.5382 24.7577L56.8455 26.0463L57.2275 26.139V26.5322V34.7733V35.1664L56.8455 35.2592L51.5382 36.5478L49.5382 41.3762L52.3799 46.0404L52.5845 46.3761L52.3065 46.6541L46.4792 52.4814L46.2012 52.7594L45.8654 52.5549L41.2013 49.7131L36.3729 51.7131L35.0842 57.0208L34.9914 57.4028H34.5983H26.3573H25.9642L25.8714 57.0208L24.5827 51.7131L19.7543 49.7131L15.0898 52.5551L14.7541 52.7596L14.4761 52.4816L8.64892 46.6544L8.37093 46.3764L8.57548 46.0407L11.4174 41.3762L9.4174 36.5478L4.10957 35.2591L3.72754 35.1663V34.7732V26.5323V26.1392L4.10957 26.0464L9.4174 24.7577L11.4174 19.9293L8.57555 15.2649L8.371 14.9292L8.64898 14.6512L14.4762 8.82394L14.7542 8.54596L15.0899 8.7505L19.7543 11.5924L24.5827 9.59236L25.8714 4.28486L25.9641 3.90283ZM26.7504 4.90283L25.4946 10.0751L25.4346 10.3219L25.2 10.4191L19.9024 12.6134L19.6677 12.7106L19.4509 12.5785L14.9053 9.80903L9.63407 15.0803L12.4035 19.6258L12.5356 19.8427L12.4385 20.0773L10.2441 25.375L10.1469 25.6096L9.90013 25.6695L4.72754 26.9254V34.3801L9.90013 35.636L10.1469 35.6959L10.2441 35.9305L12.4385 41.2282L12.5356 41.4628L12.4035 41.6797L9.63401 46.2253L14.9052 51.4965L19.4509 48.727L19.6677 48.5949L19.9024 48.6921L25.2 50.8864L25.4346 50.9836L25.4946 51.2304L26.7504 56.4028H34.2052L35.461 51.2304L35.5209 50.9836L35.7556 50.8864L41.0532 48.6921L41.2878 48.5949L41.5047 48.727L46.05 51.4963L51.3214 46.225L48.5521 41.6797L48.4199 41.4628L48.5171 41.2282L50.7115 35.9305L50.8087 35.6959L51.0554 35.636L56.2275 34.3802V26.9253L51.0554 25.6695L50.8087 25.6096L50.7115 25.375L48.5171 20.0773L48.4199 19.8427L48.5521 19.6258L51.3213 15.0806L46.0499 9.80922L41.5047 12.5785L41.2878 12.7106L41.0532 12.6134L35.7556 10.4191L35.5209 10.3219L35.461 10.0751L34.2052 4.90283H26.7504ZM21.2275 30.6528C21.2275 25.5442 25.3689 21.4028 30.4775 21.4028C35.5862 21.4028 39.7275 25.5442 39.7275 30.6528C39.7275 35.7615 35.5862 39.9028 30.4775 39.9028C25.3689 39.9028 21.2275 35.7615 21.2275 30.6528ZM30.4775 22.4028C25.9212 22.4028 22.2275 26.0965 22.2275 30.6528C22.2275 35.2092 25.9212 38.9028 30.4775 38.9028C35.0339 38.9028 38.7275 35.2092 38.7275 30.6528C38.7275 26.0965 35.0339 22.4028 30.4775 22.4028Z" fill="#6381E0"/>
</svg>
