<svg width="61" height="61" viewBox="0 0 61 61" fill="none" xmlns="http://www.w3.org/2000/svg">
<path fill-rule="evenodd" clip-rule="evenodd" d="M30.8109 6.33769L31.0437 6.46026L54.7937 18.9604L55.6344 19.4029L54.7937 19.8453L44.9469 25.0278L54.7937 30.2104L55.6344 30.6529L54.7937 31.0953L44.9469 36.2778L54.7937 41.4604L55.6344 41.9029L54.7937 42.3453L31.0437 54.8452L30.8109 54.9677L30.578 54.8452L6.82798 42.3453L5.9873 41.9029L6.82797 41.4604L16.6748 36.2778L6.82798 31.0953L5.9873 30.6529L6.82797 30.2104L16.6748 25.0278L6.82798 19.8453L5.9873 19.4029L6.82797 18.9604L30.578 6.46026L30.8109 6.33769ZM17.7484 25.5928L8.1344 30.6529L17.9812 35.8353L30.8109 42.5877L43.6405 35.8353L53.4873 30.6529L43.8733 25.5928L31.0437 32.3452L30.8109 32.4677L30.578 32.3452L17.7484 25.5928ZM17.7484 36.8428L8.1344 41.9029L30.8109 53.8377L53.4873 41.9029L43.8733 36.8428L31.0437 43.5952L30.8109 43.7177L30.578 43.5952L17.7484 36.8428ZM8.1344 19.4029L17.9812 24.5853L30.8109 31.3377L43.6405 24.5853L53.4873 19.4029L30.8109 7.46774L8.1344 19.4029Z" fill="#6381E0"/>
</svg>
