<svg width="61" height="61" viewBox="0 0 61 61" fill="none" xmlns="http://www.w3.org/2000/svg">
<path fill-rule="evenodd" clip-rule="evenodd" d="M30.1445 4.90283C15.9232 4.90283 4.39453 16.4315 4.39453 30.6528C4.39453 44.8742 15.9232 56.4028 30.1445 56.4028C44.3659 56.4028 55.8945 44.8742 55.8945 30.6528C55.8945 28.975 55.7341 27.3351 55.428 25.7475L55.3333 25.2566L56.3152 25.0672L56.4099 25.5582C56.728 27.2078 56.8945 28.9111 56.8945 30.6528C56.8945 45.4264 44.9181 57.4028 30.1445 57.4028C15.3709 57.4028 3.39453 45.4264 3.39453 30.6528C3.39453 15.8792 15.3709 3.90283 30.1445 3.90283C35.8273 3.90283 41.0975 5.67541 45.4306 8.69782L45.8407 8.98387L45.2686 9.80406L44.8585 9.51801C40.6878 6.60886 35.6161 4.90283 30.1445 4.90283ZM57.1007 11.9034L56.7472 12.257L30.4972 38.507L30.1436 38.8605L29.7901 38.507L18.5401 27.257L18.1865 26.9034L18.8936 26.1963L19.2472 26.5499L30.1436 37.4463L56.0401 11.5499L56.3936 11.1963L57.1007 11.9034Z" fill="#6381E0"/>
</svg>
